<svg width="146" height="22" viewBox="0 0 146 22" fill="none" xmlns="http://www.w3.org/2000/svg">
<path opacity="0.8" d="M0.986 16.5L5.424 6.7H6.81L11.262 16.5H9.792L5.83 7.484H6.39L2.428 16.5H0.986ZM2.876 14.05L3.254 12.93H8.77L9.176 14.05H2.876ZM14.0911 16.5L10.8431 9.08H12.2431L15.1271 15.8H14.4551L17.3951 9.08H18.7111L15.4631 16.5H14.0911ZM24.339 16.5V14.932L24.269 14.638V11.964C24.269 11.3947 24.101 10.956 23.765 10.648C23.4383 10.3307 22.9437 10.172 22.281 10.172C21.8423 10.172 21.413 10.2467 20.993 10.396C20.573 10.536 20.2183 10.7273 19.929 10.97L19.369 9.962C19.7517 9.654 20.209 9.42067 20.741 9.262C21.2823 9.094 21.847 9.01 22.435 9.01C23.4523 9.01 24.2363 9.25733 24.787 9.752C25.3377 10.2467 25.613 11.0027 25.613 12.02V16.5H24.339ZM21.903 16.584C21.3523 16.584 20.867 16.4907 20.447 16.304C20.0363 16.1173 19.719 15.8607 19.495 15.534C19.271 15.198 19.159 14.82 19.159 14.4C19.159 13.9987 19.2523 13.6347 19.439 13.308C19.635 12.9813 19.9477 12.72 20.377 12.524C20.8157 12.328 21.4037 12.23 22.141 12.23H24.493V13.196H22.197C21.525 13.196 21.0723 13.308 20.839 13.532C20.6057 13.756 20.489 14.0267 20.489 14.344C20.489 14.708 20.6337 15.002 20.923 15.226C21.2123 15.4407 21.6137 15.548 22.127 15.548C22.631 15.548 23.0697 15.436 23.443 15.212C23.8257 14.988 24.101 14.6613 24.269 14.232L24.535 15.156C24.3577 15.5947 24.045 15.9447 23.597 16.206C23.149 16.458 22.5843 16.584 21.903 16.584ZM28.1002 16.5V9.08H29.4442V16.5H28.1002ZM28.7722 7.652C28.5108 7.652 28.2915 7.568 28.1142 7.4C27.9462 7.232 27.8622 7.02667 27.8622 6.784C27.8622 6.532 27.9462 6.322 28.1142 6.154C28.2915 5.986 28.5108 5.902 28.7722 5.902C29.0335 5.902 29.2482 5.986 29.4162 6.154C29.5935 6.31267 29.6822 6.51333 29.6822 6.756C29.6822 7.008 29.5982 7.22267 29.4302 7.4C29.2622 7.568 29.0428 7.652 28.7722 7.652ZM32.0103 16.5V6.112H33.3543V16.5H32.0103ZM40.5265 16.5V14.932L40.4565 14.638V11.964C40.4565 11.3947 40.2885 10.956 39.9525 10.648C39.6258 10.3307 39.1312 10.172 38.4685 10.172C38.0298 10.172 37.6005 10.2467 37.1805 10.396C36.7605 10.536 36.4058 10.7273 36.1165 10.97L35.5565 9.962C35.9392 9.654 36.3965 9.42067 36.9285 9.262C37.4698 9.094 38.0345 9.01 38.6225 9.01C39.6398 9.01 40.4238 9.25733 40.9745 9.752C41.5252 10.2467 41.8005 11.0027 41.8005 12.02V16.5H40.5265ZM38.0905 16.584C37.5398 16.584 37.0545 16.4907 36.6345 16.304C36.2238 16.1173 35.9065 15.8607 35.6825 15.534C35.4585 15.198 35.3465 14.82 35.3465 14.4C35.3465 13.9987 35.4398 13.6347 35.6265 13.308C35.8225 12.9813 36.1352 12.72 36.5645 12.524C37.0032 12.328 37.5912 12.23 38.3285 12.23H40.6805V13.196H38.3845C37.7125 13.196 37.2598 13.308 37.0265 13.532C36.7932 13.756 36.6765 14.0267 36.6765 14.344C36.6765 14.708 36.8212 15.002 37.1105 15.226C37.3998 15.4407 37.8012 15.548 38.3145 15.548C38.8185 15.548 39.2572 15.436 39.6305 15.212C40.0132 14.988 40.2885 14.6613 40.4565 14.232L40.7225 15.156C40.5452 15.5947 40.2325 15.9447 39.7845 16.206C39.3365 16.458 38.7718 16.584 38.0905 16.584ZM48.2217 16.584C47.587 16.584 47.013 16.444 46.4997 16.164C45.9957 15.8747 45.5943 15.45 45.2957 14.89C45.0063 14.33 44.8617 13.63 44.8617 12.79C44.8617 11.95 45.011 11.25 45.3097 10.69C45.6177 10.13 46.0237 9.71 46.5277 9.43C47.041 9.15 47.6057 9.01 48.2217 9.01C48.9497 9.01 49.5937 9.16867 50.1537 9.486C50.7137 9.80333 51.157 10.2467 51.4837 10.816C51.8103 11.376 51.9737 12.034 51.9737 12.79C51.9737 13.546 51.8103 14.2087 51.4837 14.778C51.157 15.3473 50.7137 15.7907 50.1537 16.108C49.5937 16.4253 48.9497 16.584 48.2217 16.584ZM44.2877 16.5V6.112H45.6317V11.054L45.4917 12.776L45.5757 14.498V16.5H44.2877ZM48.1097 15.408C48.5857 15.408 49.0103 15.3007 49.3837 15.086C49.7663 14.8713 50.065 14.568 50.2797 14.176C50.5037 13.7747 50.6157 13.3127 50.6157 12.79C50.6157 12.258 50.5037 11.8007 50.2797 11.418C50.065 11.026 49.7663 10.7227 49.3837 10.508C49.0103 10.2933 48.5857 10.186 48.1097 10.186C47.643 10.186 47.2183 10.2933 46.8357 10.508C46.4623 10.7227 46.1637 11.026 45.9397 11.418C45.725 11.8007 45.6177 12.258 45.6177 12.79C45.6177 13.3127 45.725 13.7747 45.9397 14.176C46.1637 14.568 46.4623 14.8713 46.8357 15.086C47.2183 15.3007 47.643 15.408 48.1097 15.408ZM53.8306 16.5V6.112H55.1746V16.5H53.8306ZM61.0448 16.584C60.2515 16.584 59.5515 16.4207 58.9448 16.094C58.3475 15.7673 57.8808 15.3193 57.5448 14.75C57.2181 14.1807 57.0548 13.5273 57.0548 12.79C57.0548 12.0527 57.2135 11.3993 57.5308 10.83C57.8575 10.2607 58.3008 9.81733 58.8608 9.5C59.4301 9.17333 60.0695 9.01 60.7788 9.01C61.4975 9.01 62.1321 9.16867 62.6828 9.486C63.2335 9.80333 63.6628 10.2513 63.9708 10.83C64.2881 11.3993 64.4468 12.0667 64.4468 12.832C64.4468 12.888 64.4421 12.9533 64.4328 13.028C64.4328 13.1027 64.4281 13.1727 64.4188 13.238H58.1048V12.272H63.7188L63.1728 12.608C63.1821 12.132 63.0841 11.7073 62.8788 11.334C62.6735 10.9607 62.3888 10.6713 62.0248 10.466C61.6701 10.2513 61.2548 10.144 60.7788 10.144C60.3121 10.144 59.8968 10.2513 59.5328 10.466C59.1688 10.6713 58.8841 10.9653 58.6788 11.348C58.4735 11.7213 58.3708 12.1507 58.3708 12.636V12.86C58.3708 13.3547 58.4828 13.798 58.7068 14.19C58.9401 14.5727 59.2621 14.8713 59.6728 15.086C60.0835 15.3007 60.5548 15.408 61.0868 15.408C61.5255 15.408 61.9221 15.3333 62.2768 15.184C62.6408 15.0347 62.9581 14.8107 63.2288 14.512L63.9708 15.38C63.6348 15.772 63.2148 16.0707 62.7108 16.276C62.2161 16.4813 61.6608 16.584 61.0448 16.584ZM73.2508 16.584C72.5042 16.584 71.8415 16.4207 71.2628 16.094C70.6842 15.7673 70.2268 15.3193 69.8908 14.75C69.5548 14.1713 69.3868 13.518 69.3868 12.79C69.3868 12.0527 69.5548 11.3993 69.8908 10.83C70.2268 10.2607 70.6842 9.81733 71.2628 9.5C71.8415 9.17333 72.5042 9.01 73.2508 9.01C73.9882 9.01 74.6462 9.17333 75.2248 9.5C75.8128 9.81733 76.2702 10.2607 76.5968 10.83C76.9328 11.39 77.1008 12.0433 77.1008 12.79C77.1008 13.5273 76.9328 14.1807 76.5968 14.75C76.2702 15.3193 75.8128 15.7673 75.2248 16.094C74.6462 16.4207 73.9882 16.584 73.2508 16.584ZM73.2508 15.408C73.7268 15.408 74.1515 15.3007 74.5248 15.086C74.9075 14.8713 75.2062 14.568 75.4208 14.176C75.6355 13.7747 75.7428 13.3127 75.7428 12.79C75.7428 12.258 75.6355 11.8007 75.4208 11.418C75.2062 11.026 74.9075 10.7227 74.5248 10.508C74.1515 10.2933 73.7268 10.186 73.2508 10.186C72.7748 10.186 72.3502 10.2933 71.9768 10.508C71.6035 10.7227 71.3048 11.026 71.0808 11.418C70.8568 11.8007 70.7448 12.258 70.7448 12.79C70.7448 13.3127 70.8568 13.7747 71.0808 14.176C71.3048 14.568 71.6035 14.8713 71.9768 15.086C72.3502 15.3007 72.7748 15.408 73.2508 15.408ZM82.9215 9.01C83.5282 9.01 84.0602 9.12667 84.5175 9.36C84.9842 9.59333 85.3482 9.948 85.6095 10.424C85.8709 10.9 86.0015 11.502 86.0015 12.23V16.5H84.6575V12.384C84.6575 11.6653 84.4802 11.124 84.1255 10.76C83.7802 10.396 83.2902 10.214 82.6555 10.214C82.1795 10.214 81.7642 10.3073 81.4095 10.494C81.0549 10.6807 80.7795 10.956 80.5835 11.32C80.3969 11.684 80.3035 12.1367 80.3035 12.678V16.5H78.9595V9.08H80.2475V11.082L80.0375 10.55C80.2802 10.0647 80.6535 9.68667 81.1575 9.416C81.6615 9.14533 82.2495 9.01 82.9215 9.01Z" fill="white"/>
<g opacity="0.8">
<path d="M114.562 1.375H99.4375C98.299 1.375 97.375 2.299 97.375 3.4375V18.5625C97.375 19.701 98.299 20.625 99.4375 20.625H114.562C115.701 20.625 116.625 19.701 116.625 18.5625V3.4375C116.625 2.299 115.701 1.375 114.562 1.375ZM102.832 16.5213C102.718 16.7184 102.531 16.8622 102.311 16.921C102.091 16.9798 101.857 16.9488 101.66 16.8348C101.462 16.7209 101.319 16.5333 101.26 16.3133C101.201 16.0933 101.232 15.859 101.346 15.6619L101.961 14.6004C102.652 14.3901 103.219 14.553 103.662 15.0899L102.832 16.5213ZM108.801 14.2058H100.984C100.511 14.2058 100.125 13.8188 100.125 13.3464C100.125 12.8741 100.512 12.4871 100.984 12.4871H103.176L105.986 7.623L105.105 6.10225C104.992 5.905 104.961 5.67091 105.02 5.45113C105.079 5.23135 105.222 5.04376 105.419 4.92938C105.616 4.81603 105.85 4.78538 106.07 4.84413C106.29 4.90287 106.477 5.04623 106.592 5.24287L106.974 5.90425L107.356 5.24287C107.413 5.14528 107.488 5.05975 107.577 4.99118C107.667 4.9226 107.769 4.87233 107.878 4.84321C107.987 4.8141 108.1 4.80673 108.212 4.82151C108.324 4.8363 108.431 4.87295 108.529 4.92938C108.627 4.9858 108.712 5.0609 108.781 5.15038C108.849 5.23986 108.9 5.34197 108.929 5.45088C108.958 5.5598 108.965 5.67338 108.95 5.78514C108.936 5.8969 108.899 6.00465 108.843 6.10225L105.156 12.4877H107.824C108.692 12.4877 109.178 13.5059 108.8 14.2065L108.801 14.2058ZM113.016 14.2058H111.769L112.611 15.6626C112.848 16.0751 112.706 16.5997 112.298 16.8355C111.885 17.072 111.361 16.9297 111.125 16.522C109.712 14.0772 108.654 12.2382 107.945 11.0179C107.228 9.77144 107.739 8.52569 108.251 8.10494C108.814 9.0805 109.656 10.5414 110.781 12.4877H113.016C113.244 12.4877 113.462 12.5783 113.623 12.7395C113.784 12.9006 113.875 13.1192 113.875 13.3471C113.875 13.575 113.784 13.7936 113.623 13.9548C113.462 14.116 113.244 14.2065 113.016 14.2065V14.2058Z" fill="white"/>
</g>
<g opacity="0.8" clip-path="url(#clip0_3236_5299)">
<path d="M127.671 1.08799C127.772 1.02988 127.887 0.999537 128.004 1.00001C128.121 1.00047 128.236 1.03174 128.337 1.09066L138.795 7.19066L135.559 10.1027L127.336 2.70266V1.66666C127.336 1.54928 127.367 1.43395 127.426 1.33235C127.484 1.23074 127.569 1.14644 127.671 1.08799V1.08799ZM127.336 4.49732V17.5027L134.563 11L127.336 4.49732ZM127.336 19.2973V20.3333C127.336 20.4506 127.367 20.5659 127.426 20.6674C127.484 20.7689 127.569 20.8532 127.671 20.9116C127.772 20.97 127.888 21.0006 128.005 21.0002C128.122 20.9998 128.237 20.9684 128.339 20.9093L138.795 14.8093L135.559 11.8973L127.336 19.2973V19.2973ZM140.004 14.104L144.337 11.576C144.438 11.5173 144.522 11.4332 144.58 11.3322C144.638 11.2311 144.668 11.1166 144.668 11C144.668 10.8834 144.638 10.7689 144.58 10.6678C144.522 10.5668 144.438 10.4827 144.337 10.424L140.004 7.89599L136.555 11L140.004 14.104Z" fill="white"/>
</g>
<defs>
<clipPath id="clip0_3236_5299">
<rect width="20" height="20" fill="white" transform="translate(126 1)"/>
</clipPath>
</defs>
</svg>
