<svg width="800" height="415" viewBox="0 0 800 415" fill="none" xmlns="http://www.w3.org/2000/svg">
<g filter="url(#filter0_d_3238_5666)">
<rect x="413" y="1" width="383.464" height="410.513" rx="15.9114" fill="#181818"/>
<rect x="413.5" y="1.5" width="382.464" height="409.513" rx="15.4114" stroke="#F6F5D8" stroke-opacity="0.46"/>
</g>
<path d="M690.127 86.5706L641.845 55.3989C639.269 53.7353 635.833 54.4786 634.172 57.059L579.83 141.469C578.168 144.049 578.911 147.49 581.487 149.153L629.769 180.325C632.346 181.988 635.782 181.245 637.443 178.665L691.785 94.2551C693.446 91.6747 692.704 88.2342 690.127 86.5706Z" fill="#19CAAA" stroke="black" stroke-width="0.92" stroke-linecap="round" stroke-linejoin="round"/>
<path d="M680.884 101.282L639.468 165.599L623.496 170.552L593.893 151.436L590.078 135.43L631.098 71.7247L650.116 66.498L678.047 84.5345L680.884 101.282Z" fill="#199E86" stroke="black" stroke-width="0.92" stroke-linecap="round" stroke-linejoin="round"/>
<path d="M657.298 91.8153C660.255 91.8153 662.652 89.4152 662.652 86.4545C662.652 83.4938 660.255 81.0938 657.298 81.0938C654.342 81.0938 651.945 83.4938 651.945 86.4545C651.945 89.4152 654.342 91.8153 657.298 91.8153Z" fill="#19CAAA" stroke="black" stroke-width="0.92" stroke-linecap="round" stroke-linejoin="round"/>
<path d="M617.83 153.11C620.786 153.11 623.183 150.71 623.183 147.749C623.183 144.789 620.786 142.389 617.83 142.389C614.873 142.389 612.477 144.789 612.477 147.749C612.477 150.71 614.873 153.11 617.83 153.11Z" fill="#19CAAA" stroke="black" stroke-width="0.92" stroke-linecap="round" stroke-linejoin="round"/>
<path d="M637.065 130.174C643.573 130.174 648.849 124.89 648.849 118.373C648.849 111.856 643.573 106.572 637.065 106.572C630.557 106.572 625.281 111.856 625.281 118.373C625.281 124.89 630.557 130.174 637.065 130.174Z" fill="#19CAAA" stroke="black" stroke-width="0.92" stroke-linecap="round" stroke-linejoin="round"/>
<path d="M737.949 125.71L708.552 76.2858C706.983 73.6481 703.576 72.7834 700.942 74.3546L614.78 125.75C612.146 127.321 611.282 130.733 612.851 133.37L642.249 182.795C643.818 185.432 647.225 186.297 649.859 184.726L736.021 133.331C738.655 131.76 739.518 128.348 737.949 125.71Z" fill="#19CAAA" stroke="black" stroke-width="0.92" stroke-linecap="round" stroke-linejoin="round"/>
<path d="M723.159 134.759L657.499 173.923L640.997 171.246L622.969 140.942L626.668 124.906L691.692 86.1152L711.048 89.9069L728.057 118.496L723.159 134.759Z" fill="#199E86" stroke="black" stroke-width="0.92" stroke-linecap="round" stroke-linejoin="round"/>
<path d="M708.619 116.331C711.575 116.331 713.972 113.931 713.972 110.97C713.972 108.009 711.575 105.609 708.619 105.609C705.662 105.609 703.266 108.009 703.266 110.97C703.266 113.931 705.662 116.331 708.619 116.331Z" fill="#19CAAA" stroke="black" stroke-width="0.92" stroke-linecap="round" stroke-linejoin="round"/>
<path d="M646.048 153.659C649.005 153.659 651.402 151.259 651.402 148.298C651.402 145.338 649.005 142.938 646.048 142.938C643.092 142.938 640.695 145.338 640.695 148.298C640.695 151.259 643.092 153.659 646.048 153.659Z" fill="#19CAAA" stroke="black" stroke-width="0.92" stroke-linecap="round" stroke-linejoin="round"/>
<path d="M676.315 142.353C682.823 142.353 688.099 137.07 688.099 130.553C688.099 124.035 682.823 118.752 676.315 118.752C669.807 118.752 664.531 124.035 664.531 130.553C664.531 137.07 669.807 142.353 676.315 142.353Z" fill="#19CAAA" stroke="black" stroke-width="0.92" stroke-linecap="round" stroke-linejoin="round"/>
<path d="M680.211 127.514H548.566C541.971 127.514 536.625 132.868 536.625 139.472V229.887C536.625 236.492 541.971 241.846 548.566 241.846H680.211C686.806 241.846 692.152 236.492 692.152 229.887V139.472C692.152 132.868 686.806 127.514 680.211 127.514Z" fill="#2BC0CA" stroke="black" stroke-miterlimit="10"/>
<path d="M676.66 131.889H552.704C546.559 131.889 541.578 136.877 541.578 143.03V226.329C541.578 232.482 546.559 237.471 552.704 237.471H676.66C682.804 237.471 687.785 232.482 687.785 226.329V143.03C687.785 136.877 682.804 131.889 676.66 131.889Z" stroke="#299097" stroke-width="0.93" stroke-linecap="round" stroke-linejoin="round" stroke-dasharray="5 5"/>
<path d="M689.373 170.973H653.573C649.947 170.973 647.008 173.916 647.008 177.547V194.732C647.008 198.362 649.947 201.306 653.573 201.306H689.373C692.999 201.306 695.938 198.362 695.938 194.732V177.547C695.938 173.916 692.999 170.973 689.373 170.973Z" fill="#2BC0CA" stroke="black" stroke-width="0.98" stroke-linecap="round" stroke-linejoin="round"/>
<path d="M660.99 193.139C664.85 193.139 667.98 190.005 667.98 186.139C667.98 182.273 664.85 179.139 660.99 179.139C657.13 179.139 654 182.273 654 186.139C654 190.005 657.13 193.139 660.99 193.139Z" stroke="black" stroke-width="0.93" stroke-linecap="round" stroke-linejoin="round"/>
<path d="M526.139 240.796C526.139 240.971 526.098 241.145 526.011 241.32C524.677 244.138 512.724 246.337 498.179 246.337C483.634 246.337 471.285 244.062 470.289 241.181C470.242 241.052 470.219 240.924 470.219 240.796C470.219 237.733 482.737 235.254 498.179 235.254C513.621 235.254 526.139 237.733 526.139 240.796Z" fill="#E8920A" stroke="black" stroke-width="0.72" stroke-miterlimit="10"/>
<path d="M522.139 231.796C522.139 231.971 522.098 232.145 522.011 232.32C520.677 235.138 508.724 237.337 494.179 237.337C479.634 237.337 467.285 235.062 466.289 232.181C466.242 232.052 466.219 231.924 466.219 231.796C466.219 228.733 478.737 226.254 494.179 226.254C509.621 226.254 522.139 228.733 522.139 231.796Z" fill="#E8920A" stroke="black" stroke-width="0.72" stroke-miterlimit="10"/>
<path d="M526.139 223.796C526.139 223.971 526.098 224.145 526.011 224.32C524.677 227.138 512.724 229.337 498.179 229.337C483.634 229.337 471.285 227.062 470.289 224.181C470.242 224.052 470.219 223.924 470.219 223.796C470.219 220.733 482.737 218.254 498.179 218.254C513.621 218.254 526.139 220.733 526.139 223.796Z" fill="#E8920A" stroke="black" stroke-width="0.72" stroke-miterlimit="10"/>
<path d="M522.357 216.18C522.357 216.355 522.317 216.53 522.229 216.705C520.895 219.523 508.942 221.722 494.397 221.722C479.852 221.722 467.503 219.447 466.507 216.565C466.461 216.437 466.438 216.309 466.438 216.18C466.438 213.118 478.955 210.639 494.397 210.639C509.84 210.639 522.357 213.118 522.357 216.18Z" fill="#E8920A" stroke="black" stroke-width="0.72" stroke-miterlimit="10"/>
<path d="M526.141 245.461C526.141 248.524 513.623 251.003 498.181 251.003C482.739 251.003 470.221 248.524 470.221 245.461C470.221 244.639 469.68 242.696 470.291 241.18C471.287 244.061 483.392 246.336 498.181 246.336C512.971 246.336 524.679 244.137 526.013 241.32C526.427 242.871 526.141 244.814 526.141 245.461Z" fill="#9B6619" stroke="black" stroke-width="0.72" stroke-miterlimit="10"/>
<path d="M522.141 236.461C522.141 239.524 509.623 242.003 494.181 242.003C478.739 242.003 466.221 239.524 466.221 236.461C466.221 235.639 465.68 233.696 466.291 232.18C467.287 235.061 479.392 237.336 494.181 237.336C508.971 237.336 520.679 235.137 522.013 232.32C522.427 233.871 522.141 235.814 522.141 236.461Z" fill="#9B6619" stroke="black" stroke-width="0.72" stroke-miterlimit="10"/>
<path d="M526.141 228.461C526.141 231.524 513.623 234.003 498.181 234.003C482.739 234.003 470.221 231.524 470.221 228.461C470.221 227.639 469.68 225.696 470.291 224.18C471.287 227.061 483.392 229.336 498.181 229.336C512.971 229.336 524.679 227.137 526.013 224.32C526.427 225.871 526.141 227.814 526.141 228.461Z" fill="#9B6619" stroke="black" stroke-width="0.72" stroke-miterlimit="10"/>
<path d="M522.352 220.846C522.352 223.909 509.834 226.388 494.392 226.388C478.95 226.388 466.432 223.909 466.432 220.846C466.432 220.024 465.891 218.081 466.502 216.564C467.498 219.446 479.603 221.721 494.392 221.721C509.182 221.721 520.89 219.522 522.224 216.704C522.638 218.256 522.352 220.199 522.352 220.846Z" fill="#9B6619" stroke="black" stroke-width="0.72" stroke-miterlimit="10"/>
<path d="M518.56 321.654C518.307 321.187 517.94 320.834 517.46 320.594C516.993 320.341 516.44 320.214 515.8 320.214C514.693 320.214 513.807 320.581 513.14 321.314C512.473 322.034 512.14 323.001 512.14 324.214C512.14 325.507 512.487 326.521 513.18 327.254C513.887 327.974 514.853 328.334 516.08 328.334C516.92 328.334 517.627 328.121 518.2 327.694C518.787 327.267 519.213 326.654 519.48 325.854H515.14V323.334H522.58V326.514C522.327 327.367 521.893 328.161 521.28 328.894C520.68 329.627 519.913 330.221 518.98 330.674C518.047 331.127 516.993 331.354 515.82 331.354C514.433 331.354 513.193 331.054 512.1 330.454C511.02 329.841 510.173 328.994 509.56 327.914C508.96 326.834 508.66 325.601 508.66 324.214C508.66 322.827 508.96 321.594 509.56 320.514C510.173 319.421 511.02 318.574 512.1 317.974C513.18 317.361 514.413 317.054 515.8 317.054C517.48 317.054 518.893 317.461 520.04 318.274C521.2 319.087 521.967 320.214 522.34 321.654H518.56ZM527.894 321.954C528.294 321.341 528.794 320.861 529.394 320.514C529.994 320.154 530.661 319.974 531.394 319.974V323.594H530.454C529.601 323.594 528.961 323.781 528.534 324.154C528.108 324.514 527.894 325.154 527.894 326.074V331.254H524.474V320.094H527.894V321.954ZM538.109 331.414C537.016 331.414 536.029 331.181 535.149 330.714C534.282 330.247 533.596 329.581 533.089 328.714C532.596 327.847 532.349 326.834 532.349 325.674C532.349 324.527 532.602 323.521 533.109 322.654C533.616 321.774 534.309 321.101 535.189 320.634C536.069 320.167 537.056 319.934 538.149 319.934C539.242 319.934 540.229 320.167 541.109 320.634C541.989 321.101 542.682 321.774 543.189 322.654C543.696 323.521 543.949 324.527 543.949 325.674C543.949 326.821 543.689 327.834 543.169 328.714C542.662 329.581 541.962 330.247 541.069 330.714C540.189 331.181 539.202 331.414 538.109 331.414ZM538.109 328.454C538.762 328.454 539.316 328.214 539.769 327.734C540.236 327.254 540.469 326.567 540.469 325.674C540.469 324.781 540.242 324.094 539.789 323.614C539.349 323.134 538.802 322.894 538.149 322.894C537.482 322.894 536.929 323.134 536.489 323.614C536.049 324.081 535.829 324.767 535.829 325.674C535.829 326.567 536.042 327.254 536.469 327.734C536.909 328.214 537.456 328.454 538.109 328.454ZM556.783 320.094V331.254H553.363V329.734C553.017 330.227 552.543 330.627 551.943 330.934C551.357 331.227 550.703 331.374 549.983 331.374C549.13 331.374 548.377 331.187 547.723 330.814C547.07 330.427 546.563 329.874 546.203 329.154C545.843 328.434 545.663 327.587 545.663 326.614V320.094H549.063V326.154C549.063 326.901 549.257 327.481 549.643 327.894C550.03 328.307 550.55 328.514 551.203 328.514C551.87 328.514 552.397 328.307 552.783 327.894C553.17 327.481 553.363 326.901 553.363 326.154V320.094H556.783ZM562.66 321.674C562.993 321.154 563.453 320.734 564.04 320.414C564.627 320.094 565.313 319.934 566.1 319.934C567.02 319.934 567.853 320.167 568.6 320.634C569.347 321.101 569.933 321.767 570.36 322.634C570.8 323.501 571.02 324.507 571.02 325.654C571.02 326.801 570.8 327.814 570.36 328.694C569.933 329.561 569.347 330.234 568.6 330.714C567.853 331.181 567.02 331.414 566.1 331.414C565.327 331.414 564.64 331.254 564.04 330.934C563.453 330.614 562.993 330.201 562.66 329.694V336.574H559.24V320.094H562.66V321.674ZM567.54 325.654C567.54 324.801 567.3 324.134 566.82 323.654C566.353 323.161 565.773 322.914 565.08 322.914C564.4 322.914 563.82 323.161 563.34 323.654C562.873 324.147 562.64 324.821 562.64 325.674C562.64 326.527 562.873 327.201 563.34 327.694C563.82 328.187 564.4 328.434 565.08 328.434C565.76 328.434 566.34 328.187 566.82 327.694C567.3 327.187 567.54 326.507 567.54 325.654ZM668.858 328.354V331.254H667.118C665.878 331.254 664.912 330.954 664.218 330.354C663.525 329.741 663.178 328.747 663.178 327.374V322.934H661.818V320.094H663.178V317.374H666.598V320.094H668.838V322.934H666.598V327.414C666.598 327.747 666.678 327.987 666.838 328.134C666.998 328.281 667.265 328.354 667.638 328.354H668.858ZM675.843 331.414C674.75 331.414 673.763 331.181 672.883 330.714C672.017 330.247 671.33 329.581 670.823 328.714C670.33 327.847 670.083 326.834 670.083 325.674C670.083 324.527 670.337 323.521 670.843 322.654C671.35 321.774 672.043 321.101 672.923 320.634C673.803 320.167 674.79 319.934 675.883 319.934C676.977 319.934 677.963 320.167 678.843 320.634C679.723 321.101 680.417 321.774 680.923 322.654C681.43 323.521 681.683 324.527 681.683 325.674C681.683 326.821 681.423 327.834 680.903 328.714C680.397 329.581 679.697 330.247 678.803 330.714C677.923 331.181 676.937 331.414 675.843 331.414ZM675.843 328.454C676.497 328.454 677.05 328.214 677.503 327.734C677.97 327.254 678.203 326.567 678.203 325.674C678.203 324.781 677.977 324.094 677.523 323.614C677.083 323.134 676.537 322.894 675.883 322.894C675.217 322.894 674.663 323.134 674.223 323.614C673.783 324.081 673.563 324.767 673.563 325.674C673.563 326.567 673.777 327.254 674.203 327.734C674.643 328.214 675.19 328.454 675.843 328.454ZM688.578 331.414C687.484 331.414 686.498 331.181 685.618 330.714C684.751 330.247 684.064 329.581 683.558 328.714C683.064 327.847 682.818 326.834 682.818 325.674C682.818 324.527 683.071 323.521 683.578 322.654C684.084 321.774 684.778 321.101 685.658 320.634C686.538 320.167 687.524 319.934 688.618 319.934C689.711 319.934 690.698 320.167 691.578 320.634C692.458 321.101 693.151 321.774 693.658 322.654C694.164 323.521 694.418 324.527 694.418 325.674C694.418 326.821 694.158 327.834 693.638 328.714C693.131 329.581 692.431 330.247 691.538 330.714C690.658 331.181 689.671 331.414 688.578 331.414ZM688.578 328.454C689.231 328.454 689.784 328.214 690.238 327.734C690.704 327.254 690.938 326.567 690.938 325.674C690.938 324.781 690.711 324.094 690.258 323.614C689.818 323.134 689.271 322.894 688.618 322.894C687.951 322.894 687.398 323.134 686.958 323.614C686.518 324.081 686.298 324.767 686.298 325.674C686.298 326.567 686.511 327.254 686.938 327.734C687.378 328.214 687.924 328.454 688.578 328.454ZM699.652 316.454V331.254H696.232V316.454H699.652Z" fill="#F6F5D8"/>
<path d="M581.593 331.414C580.619 331.414 579.753 331.247 578.993 330.914C578.233 330.581 577.633 330.127 577.193 329.554C576.753 328.967 576.506 328.314 576.453 327.594H579.833C579.873 327.981 580.053 328.294 580.373 328.534C580.693 328.774 581.086 328.894 581.553 328.894C581.979 328.894 582.306 328.814 582.533 328.654C582.773 328.481 582.893 328.261 582.893 327.994C582.893 327.674 582.726 327.441 582.393 327.294C582.059 327.134 581.519 326.961 580.773 326.774C579.973 326.587 579.306 326.394 578.773 326.194C578.239 325.981 577.779 325.654 577.393 325.214C577.006 324.761 576.813 324.154 576.813 323.394C576.813 322.754 576.986 322.174 577.333 321.654C577.693 321.121 578.213 320.701 578.893 320.394C579.586 320.087 580.406 319.934 581.353 319.934C582.753 319.934 583.853 320.281 584.653 320.974C585.466 321.667 585.933 322.587 586.053 323.734H582.893C582.839 323.347 582.666 323.041 582.373 322.814C582.093 322.587 581.719 322.474 581.253 322.474C580.853 322.474 580.546 322.554 580.333 322.714C580.119 322.861 580.013 323.067 580.013 323.334C580.013 323.654 580.179 323.894 580.513 324.054C580.859 324.214 581.393 324.374 582.113 324.534C582.939 324.747 583.613 324.961 584.133 325.174C584.653 325.374 585.106 325.707 585.493 326.174C585.893 326.627 586.099 327.241 586.113 328.014C586.113 328.667 585.926 329.254 585.553 329.774C585.193 330.281 584.666 330.681 583.973 330.974C583.293 331.267 582.499 331.414 581.593 331.414ZM587.525 325.654C587.525 324.507 587.738 323.501 588.165 322.634C588.605 321.767 589.198 321.101 589.945 320.634C590.692 320.167 591.525 319.934 592.445 319.934C593.232 319.934 593.918 320.094 594.505 320.414C595.105 320.734 595.565 321.154 595.885 321.674V320.094H599.305V331.254H595.885V329.674C595.552 330.194 595.085 330.614 594.485 330.934C593.898 331.254 593.212 331.414 592.425 331.414C591.518 331.414 590.692 331.181 589.945 330.714C589.198 330.234 588.605 329.561 588.165 328.694C587.738 327.814 587.525 326.801 587.525 325.654ZM595.885 325.674C595.885 324.821 595.645 324.147 595.165 323.654C594.698 323.161 594.125 322.914 593.445 322.914C592.765 322.914 592.185 323.161 591.705 323.654C591.238 324.134 591.005 324.801 591.005 325.654C591.005 326.507 591.238 327.187 591.705 327.694C592.185 328.187 592.765 328.434 593.445 328.434C594.125 328.434 594.698 328.187 595.165 327.694C595.645 327.201 595.885 326.527 595.885 325.674ZM606.799 328.054L609.219 320.094H612.859L608.899 331.254H604.679L600.719 320.094H604.379L606.799 328.054ZM616.019 318.934C615.419 318.934 614.925 318.761 614.539 318.414C614.165 318.054 613.979 317.614 613.979 317.094C613.979 316.561 614.165 316.121 614.539 315.774C614.925 315.414 615.419 315.234 616.019 315.234C616.605 315.234 617.085 315.414 617.459 315.774C617.845 316.121 618.039 316.561 618.039 317.094C618.039 317.614 617.845 318.054 617.459 318.414C617.085 318.761 616.605 318.934 616.019 318.934ZM617.719 320.094V331.254H614.299V320.094H617.719ZM626.997 319.974C628.304 319.974 629.344 320.401 630.117 321.254C630.904 322.094 631.297 323.254 631.297 324.734V331.254H627.897V325.194C627.897 324.447 627.704 323.867 627.317 323.454C626.93 323.041 626.41 322.834 625.757 322.834C625.104 322.834 624.584 323.041 624.197 323.454C623.81 323.867 623.617 324.447 623.617 325.194V331.254H620.197V320.094H623.617V321.574C623.964 321.081 624.43 320.694 625.017 320.414C625.604 320.121 626.264 319.974 626.997 319.974ZM637.914 319.934C638.7 319.934 639.387 320.094 639.974 320.414C640.574 320.734 641.034 321.154 641.354 321.674V320.094H644.774V331.234C644.774 332.261 644.567 333.187 644.154 334.014C643.754 334.854 643.134 335.521 642.294 336.014C641.467 336.507 640.434 336.754 639.194 336.754C637.54 336.754 636.2 336.361 635.174 335.574C634.147 334.801 633.56 333.747 633.414 332.414H636.794C636.9 332.841 637.154 333.174 637.554 333.414C637.954 333.667 638.447 333.794 639.034 333.794C639.74 333.794 640.3 333.587 640.714 333.174C641.14 332.774 641.354 332.127 641.354 331.234V329.654C641.02 330.174 640.56 330.601 639.974 330.934C639.387 331.254 638.7 331.414 637.914 331.414C636.994 331.414 636.16 331.181 635.414 330.714C634.667 330.234 634.074 329.561 633.634 328.694C633.207 327.814 632.994 326.801 632.994 325.654C632.994 324.507 633.207 323.501 633.634 322.634C634.074 321.767 634.667 321.101 635.414 320.634C636.16 320.167 636.994 319.934 637.914 319.934ZM641.354 325.674C641.354 324.821 641.114 324.147 640.634 323.654C640.167 323.161 639.594 322.914 638.914 322.914C638.234 322.914 637.654 323.161 637.174 323.654C636.707 324.134 636.474 324.801 636.474 325.654C636.474 326.507 636.707 327.187 637.174 327.694C637.654 328.187 638.234 328.434 638.914 328.434C639.594 328.434 640.167 328.187 640.634 327.694C641.114 327.201 641.354 326.527 641.354 325.674ZM651.788 331.414C650.814 331.414 649.948 331.247 649.188 330.914C648.428 330.581 647.828 330.127 647.388 329.554C646.948 328.967 646.701 328.314 646.648 327.594H650.028C650.068 327.981 650.248 328.294 650.568 328.534C650.888 328.774 651.281 328.894 651.748 328.894C652.174 328.894 652.501 328.814 652.728 328.654C652.968 328.481 653.088 328.261 653.088 327.994C653.088 327.674 652.921 327.441 652.588 327.294C652.254 327.134 651.714 326.961 650.968 326.774C650.168 326.587 649.501 326.394 648.968 326.194C648.434 325.981 647.974 325.654 647.588 325.214C647.201 324.761 647.008 324.154 647.008 323.394C647.008 322.754 647.181 322.174 647.528 321.654C647.888 321.121 648.408 320.701 649.088 320.394C649.781 320.087 650.601 319.934 651.548 319.934C652.948 319.934 654.048 320.281 654.848 320.974C655.661 321.667 656.128 322.587 656.248 323.734H653.088C653.034 323.347 652.861 323.041 652.568 322.814C652.288 322.587 651.914 322.474 651.448 322.474C651.048 322.474 650.741 322.554 650.528 322.714C650.314 322.861 650.208 323.067 650.208 323.334C650.208 323.654 650.374 323.894 650.708 324.054C651.054 324.214 651.588 324.374 652.308 324.534C653.134 324.747 653.808 324.961 654.328 325.174C654.848 325.374 655.301 325.707 655.688 326.174C656.088 326.627 656.294 327.241 656.308 328.014C656.308 328.667 656.121 329.254 655.748 329.774C655.388 330.281 654.861 330.681 654.168 330.974C653.488 331.267 652.694 331.414 651.788 331.414Z" fill="#22F3B5"/>
<g filter="url(#filter1_d_3238_5666)">
<rect y="0.744141" width="383.464" height="410.513" rx="15.9114" fill="#181818"/>
<rect x="0.5" y="1.24414" width="382.464" height="409.513" rx="15.4114" stroke="#F6F5D8" stroke-opacity="0.46"/>
</g>
<path d="M73.9492 311.559V312.232C73.9492 313.313 73.8027 314.283 73.5098 315.143C73.2168 316.002 72.8034 316.734 72.2695 317.34C71.7357 317.939 71.0977 318.398 70.3555 318.717C69.6198 319.036 68.8027 319.195 67.9043 319.195C67.0124 319.195 66.1953 319.036 65.4531 318.717C64.7174 318.398 64.0794 317.939 63.5391 317.34C62.9987 316.734 62.5788 316.002 62.2793 315.143C61.9863 314.283 61.8398 313.313 61.8398 312.232V311.559C61.8398 310.471 61.9863 309.501 62.2793 308.648C62.5723 307.789 62.9857 307.057 63.5195 306.451C64.0599 305.846 64.6979 305.383 65.4336 305.064C66.1758 304.745 66.9928 304.586 67.8848 304.586C68.7832 304.586 69.6003 304.745 70.3359 305.064C71.0781 305.383 71.7161 305.846 72.25 306.451C72.7904 307.057 73.207 307.789 73.5 308.648C73.7995 309.501 73.9492 310.471 73.9492 311.559ZM70.9902 312.232V311.539C70.9902 310.784 70.9219 310.12 70.7852 309.547C70.6484 308.974 70.4466 308.492 70.1797 308.102C69.9128 307.711 69.5872 307.418 69.2031 307.223C68.819 307.021 68.3796 306.92 67.8848 306.92C67.39 306.92 66.9505 307.021 66.5664 307.223C66.1888 307.418 65.8665 307.711 65.5996 308.102C65.3392 308.492 65.1406 308.974 65.0039 309.547C64.8672 310.12 64.7988 310.784 64.7988 311.539V312.232C64.7988 312.981 64.8672 313.645 65.0039 314.225C65.1406 314.798 65.3424 315.283 65.6094 315.68C65.8763 316.07 66.2018 316.367 66.5859 316.568C66.9701 316.77 67.4095 316.871 67.9043 316.871C68.3991 316.871 68.8385 316.77 69.2227 316.568C69.6068 316.367 69.929 316.07 70.1895 315.68C70.4499 315.283 70.6484 314.798 70.7852 314.225C70.9219 313.645 70.9902 312.981 70.9902 312.232ZM78.6367 310.689V319H75.8242V308.434H78.4609L78.6367 310.689ZM78.2266 313.346H77.4648C77.4648 312.564 77.5658 311.861 77.7676 311.236C77.9694 310.605 78.2526 310.068 78.6172 309.625C78.9818 309.176 79.4147 308.834 79.916 308.6C80.4238 308.359 80.9902 308.238 81.6152 308.238C82.11 308.238 82.5625 308.31 82.9727 308.453C83.3828 308.596 83.7344 308.824 84.0273 309.137C84.3268 309.449 84.5547 309.863 84.7109 310.377C84.8737 310.891 84.9551 311.52 84.9551 312.262V319H82.123V312.252C82.123 311.783 82.0579 311.419 81.9277 311.158C81.7975 310.898 81.6055 310.715 81.3516 310.611C81.1042 310.501 80.7982 310.445 80.4336 310.445C80.056 310.445 79.7272 310.52 79.4473 310.67C79.1738 310.82 78.946 311.028 78.7637 311.295C78.5879 311.555 78.4544 311.861 78.3633 312.213C78.2721 312.564 78.2266 312.942 78.2266 313.346ZM91.957 319.195C91.1367 319.195 90.401 319.065 89.75 318.805C89.099 318.538 88.5456 318.17 88.0898 317.701C87.6406 317.232 87.2956 316.689 87.0547 316.07C86.8138 315.445 86.6934 314.781 86.6934 314.078V313.688C86.6934 312.887 86.8073 312.154 87.0352 311.49C87.263 310.826 87.5885 310.25 88.0117 309.762C88.4414 309.273 88.9622 308.899 89.5742 308.639C90.1862 308.372 90.8763 308.238 91.6445 308.238C92.3932 308.238 93.0573 308.362 93.6367 308.609C94.2161 308.857 94.7012 309.208 95.0918 309.664C95.4889 310.12 95.7884 310.667 95.9902 311.305C96.1921 311.936 96.293 312.639 96.293 313.414V314.586H87.8945V312.711H93.5293V312.496C93.5293 312.105 93.4577 311.757 93.3145 311.451C93.1777 311.139 92.9694 310.891 92.6895 310.709C92.4095 310.527 92.0514 310.436 91.6152 310.436C91.2441 310.436 90.9251 310.517 90.6582 310.68C90.3913 310.842 90.1732 311.07 90.0039 311.363C89.8411 311.656 89.7174 312.001 89.6328 312.398C89.5547 312.789 89.5156 313.219 89.5156 313.688V314.078C89.5156 314.501 89.5742 314.892 89.6914 315.25C89.8151 315.608 89.9876 315.917 90.209 316.178C90.4368 316.438 90.7103 316.64 91.0293 316.783C91.3548 316.926 91.7227 316.998 92.1328 316.998C92.6406 316.998 93.1126 316.9 93.5488 316.705C93.9915 316.503 94.3724 316.201 94.6914 315.797L96.0586 317.281C95.8372 317.6 95.5345 317.906 95.1504 318.199C94.7728 318.492 94.3171 318.733 93.7832 318.922C93.2493 319.104 92.6406 319.195 91.957 319.195ZM103.441 311.793V314H97.9238V311.793H103.441ZM114.203 314.283H117.123C117.064 315.24 116.801 316.09 116.332 316.832C115.87 317.574 115.222 318.154 114.389 318.57C113.562 318.987 112.566 319.195 111.4 319.195C110.489 319.195 109.672 319.039 108.949 318.727C108.227 318.408 107.608 317.952 107.094 317.359C106.586 316.767 106.199 316.051 105.932 315.211C105.665 314.371 105.531 313.43 105.531 312.389V311.402C105.531 310.361 105.668 309.42 105.941 308.58C106.221 307.734 106.618 307.014 107.133 306.422C107.654 305.829 108.275 305.374 108.998 305.055C109.721 304.736 110.528 304.576 111.42 304.576C112.605 304.576 113.604 304.791 114.418 305.221C115.238 305.65 115.873 306.243 116.322 306.998C116.778 307.753 117.051 308.613 117.143 309.576H114.213C114.18 309.003 114.066 308.518 113.871 308.121C113.676 307.717 113.38 307.415 112.982 307.213C112.592 307.005 112.071 306.9 111.42 306.9C110.932 306.9 110.505 306.992 110.141 307.174C109.776 307.356 109.47 307.633 109.223 308.004C108.975 308.375 108.79 308.844 108.666 309.41C108.549 309.97 108.49 310.628 108.49 311.383V312.389C108.49 313.124 108.546 313.772 108.656 314.332C108.767 314.885 108.936 315.354 109.164 315.738C109.398 316.116 109.698 316.402 110.062 316.598C110.434 316.786 110.88 316.881 111.4 316.881C112.012 316.881 112.517 316.783 112.914 316.588C113.311 316.393 113.614 316.103 113.822 315.719C114.037 315.335 114.164 314.856 114.203 314.283ZM121.84 304V319H119.018V304H121.84ZM127.133 308.434V319H124.311V308.434H127.133ZM124.135 305.68C124.135 305.27 124.278 304.931 124.564 304.664C124.851 304.397 125.235 304.264 125.717 304.264C126.192 304.264 126.573 304.397 126.859 304.664C127.152 304.931 127.299 305.27 127.299 305.68C127.299 306.09 127.152 306.428 126.859 306.695C126.573 306.962 126.192 307.096 125.717 307.096C125.235 307.096 124.851 306.962 124.564 306.695C124.278 306.428 124.135 306.09 124.135 305.68ZM133.822 316.998C134.167 316.998 134.473 316.933 134.74 316.803C135.007 316.666 135.215 316.477 135.365 316.236C135.521 315.989 135.603 315.699 135.609 315.367H138.256C138.249 316.109 138.051 316.77 137.66 317.35C137.27 317.923 136.745 318.375 136.088 318.707C135.43 319.033 134.695 319.195 133.881 319.195C133.061 319.195 132.344 319.059 131.732 318.785C131.127 318.512 130.622 318.134 130.219 317.652C129.815 317.164 129.512 316.598 129.311 315.953C129.109 315.302 129.008 314.605 129.008 313.863V313.58C129.008 312.831 129.109 312.135 129.311 311.49C129.512 310.839 129.815 310.273 130.219 309.791C130.622 309.303 131.127 308.922 131.732 308.648C132.338 308.375 133.048 308.238 133.861 308.238C134.727 308.238 135.486 308.404 136.137 308.736C136.794 309.068 137.309 309.544 137.68 310.162C138.057 310.774 138.249 311.5 138.256 312.34H135.609C135.603 311.988 135.528 311.669 135.385 311.383C135.248 311.096 135.046 310.868 134.779 310.699C134.519 310.523 134.197 310.436 133.812 310.436C133.402 310.436 133.067 310.523 132.807 310.699C132.546 310.868 132.344 311.103 132.201 311.402C132.058 311.695 131.957 312.031 131.898 312.408C131.846 312.779 131.82 313.17 131.82 313.58V313.863C131.82 314.273 131.846 314.667 131.898 315.045C131.951 315.423 132.048 315.758 132.191 316.051C132.341 316.344 132.546 316.575 132.807 316.744C133.067 316.913 133.406 316.998 133.822 316.998ZM142.699 303.99V319H139.887V303.99H142.699ZM149.359 308.434L144.77 313.668L142.309 316.158L141.283 314.127L143.236 311.646L145.98 308.434H149.359ZM146.439 319L143.314 314.117L145.258 312.418L149.682 319H146.439Z" fill="#FFA71B"/>
<path d="M166.996 311.568V317.203C166.775 317.47 166.433 317.76 165.971 318.072C165.508 318.378 164.913 318.642 164.184 318.863C163.454 319.085 162.572 319.195 161.537 319.195C160.619 319.195 159.783 319.046 159.027 318.746C158.272 318.44 157.621 317.994 157.074 317.408C156.534 316.822 156.117 316.106 155.824 315.26C155.531 314.407 155.385 313.434 155.385 312.34V311.451C155.385 310.357 155.525 309.384 155.805 308.531C156.091 307.678 156.498 306.959 157.025 306.373C157.553 305.787 158.181 305.341 158.91 305.035C159.639 304.729 160.45 304.576 161.342 304.576C162.579 304.576 163.594 304.778 164.389 305.182C165.183 305.579 165.788 306.132 166.205 306.842C166.628 307.545 166.889 308.352 166.986 309.264H164.145C164.073 308.782 163.936 308.362 163.734 308.004C163.533 307.646 163.243 307.366 162.865 307.164C162.494 306.962 162.012 306.861 161.42 306.861C160.932 306.861 160.495 306.962 160.111 307.164C159.734 307.359 159.415 307.649 159.154 308.033C158.894 308.417 158.695 308.893 158.559 309.459C158.422 310.025 158.354 310.683 158.354 311.432V312.34C158.354 313.082 158.425 313.74 158.568 314.312C158.712 314.879 158.923 315.357 159.203 315.748C159.49 316.132 159.841 316.422 160.258 316.617C160.674 316.812 161.16 316.91 161.713 316.91C162.175 316.91 162.559 316.871 162.865 316.793C163.178 316.715 163.428 316.62 163.617 316.51C163.812 316.393 163.962 316.282 164.066 316.178V313.658H161.391V311.568H166.996ZM171.996 310.738V319H169.184V308.434H171.83L171.996 310.738ZM175.18 308.365L175.131 310.973C174.994 310.953 174.828 310.937 174.633 310.924C174.444 310.904 174.271 310.895 174.115 310.895C173.718 310.895 173.373 310.947 173.08 311.051C172.794 311.148 172.553 311.295 172.357 311.49C172.169 311.686 172.025 311.923 171.928 312.203C171.837 312.483 171.785 312.802 171.771 313.16L171.205 312.984C171.205 312.301 171.273 311.673 171.41 311.1C171.547 310.52 171.745 310.016 172.006 309.586C172.273 309.156 172.598 308.824 172.982 308.59C173.367 308.355 173.806 308.238 174.301 308.238C174.457 308.238 174.617 308.251 174.779 308.277C174.942 308.297 175.076 308.326 175.18 308.365ZM175.766 313.824V313.619C175.766 312.844 175.876 312.132 176.098 311.48C176.319 310.823 176.641 310.253 177.064 309.771C177.488 309.29 178.008 308.915 178.627 308.648C179.245 308.375 179.955 308.238 180.756 308.238C181.557 308.238 182.27 308.375 182.895 308.648C183.52 308.915 184.044 309.29 184.467 309.771C184.896 310.253 185.222 310.823 185.443 311.48C185.665 312.132 185.775 312.844 185.775 313.619V313.824C185.775 314.592 185.665 315.305 185.443 315.963C185.222 316.614 184.896 317.184 184.467 317.672C184.044 318.154 183.523 318.528 182.904 318.795C182.286 319.062 181.576 319.195 180.775 319.195C179.975 319.195 179.262 319.062 178.637 318.795C178.018 318.528 177.494 318.154 177.064 317.672C176.641 317.184 176.319 316.614 176.098 315.963C175.876 315.305 175.766 314.592 175.766 313.824ZM178.578 313.619V313.824C178.578 314.267 178.617 314.68 178.695 315.064C178.773 315.449 178.897 315.787 179.066 316.08C179.242 316.367 179.47 316.591 179.75 316.754C180.03 316.917 180.372 316.998 180.775 316.998C181.166 316.998 181.501 316.917 181.781 316.754C182.061 316.591 182.286 316.367 182.455 316.08C182.624 315.787 182.748 315.449 182.826 315.064C182.911 314.68 182.953 314.267 182.953 313.824V313.619C182.953 313.189 182.911 312.786 182.826 312.408C182.748 312.024 182.621 311.686 182.445 311.393C182.276 311.093 182.051 310.859 181.771 310.689C181.492 310.52 181.153 310.436 180.756 310.436C180.359 310.436 180.02 310.52 179.74 310.689C179.467 310.859 179.242 311.093 179.066 311.393C178.897 311.686 178.773 312.024 178.695 312.408C178.617 312.786 178.578 313.189 178.578 313.619ZM193.754 316.471V308.434H196.566V319H193.92L193.754 316.471ZM194.066 314.303L194.896 314.283C194.896 314.986 194.815 315.641 194.652 316.246C194.49 316.845 194.245 317.366 193.92 317.809C193.594 318.245 193.184 318.587 192.689 318.834C192.195 319.075 191.612 319.195 190.941 319.195C190.427 319.195 189.952 319.124 189.516 318.98C189.086 318.831 188.715 318.6 188.402 318.287C188.096 317.968 187.855 317.561 187.68 317.066C187.51 316.565 187.426 315.963 187.426 315.26V308.434H190.238V315.279C190.238 315.592 190.274 315.855 190.346 316.07C190.424 316.285 190.531 316.461 190.668 316.598C190.805 316.734 190.964 316.832 191.146 316.891C191.335 316.949 191.544 316.979 191.771 316.979C192.351 316.979 192.807 316.861 193.139 316.627C193.477 316.393 193.715 316.074 193.852 315.67C193.995 315.26 194.066 314.804 194.066 314.303ZM201.527 310.465V323.062H198.715V308.434H201.322L201.527 310.465ZM208.217 313.6V313.805C208.217 314.573 208.126 315.286 207.943 315.943C207.768 316.601 207.507 317.174 207.162 317.662C206.817 318.144 206.387 318.521 205.873 318.795C205.365 319.062 204.779 319.195 204.115 319.195C203.471 319.195 202.911 319.065 202.436 318.805C201.96 318.544 201.56 318.18 201.234 317.711C200.915 317.236 200.658 316.686 200.463 316.061C200.268 315.436 200.118 314.765 200.014 314.049V313.512C200.118 312.743 200.268 312.04 200.463 311.402C200.658 310.758 200.915 310.201 201.234 309.732C201.56 309.257 201.957 308.889 202.426 308.629C202.901 308.368 203.458 308.238 204.096 308.238C204.766 308.238 205.355 308.365 205.863 308.619C206.378 308.873 206.807 309.238 207.152 309.713C207.504 310.188 207.768 310.755 207.943 311.412C208.126 312.07 208.217 312.799 208.217 313.6ZM205.395 313.805V313.6C205.395 313.15 205.355 312.737 205.277 312.359C205.206 311.975 205.089 311.64 204.926 311.354C204.77 311.067 204.561 310.846 204.301 310.689C204.047 310.527 203.738 310.445 203.373 310.445C202.989 310.445 202.66 310.507 202.387 310.631C202.12 310.755 201.902 310.934 201.732 311.168C201.563 311.402 201.436 311.682 201.352 312.008C201.267 312.333 201.215 312.701 201.195 313.111V314.469C201.228 314.951 201.319 315.383 201.469 315.768C201.618 316.145 201.85 316.445 202.162 316.666C202.475 316.887 202.885 316.998 203.393 316.998C203.764 316.998 204.076 316.917 204.33 316.754C204.584 316.585 204.789 316.354 204.945 316.061C205.108 315.768 205.222 315.429 205.287 315.045C205.359 314.661 205.395 314.247 205.395 313.805ZM220.658 313.932H217.035V311.646H220.658C221.218 311.646 221.674 311.555 222.025 311.373C222.377 311.184 222.634 310.924 222.797 310.592C222.96 310.26 223.041 309.885 223.041 309.469C223.041 309.046 222.96 308.652 222.797 308.287C222.634 307.923 222.377 307.63 222.025 307.408C221.674 307.187 221.218 307.076 220.658 307.076H218.051V319H215.121V304.781H220.658C221.771 304.781 222.725 304.983 223.52 305.387C224.32 305.784 224.932 306.334 225.355 307.037C225.779 307.74 225.99 308.544 225.99 309.449C225.99 310.367 225.779 311.161 225.355 311.832C224.932 312.503 224.32 313.02 223.52 313.385C222.725 313.749 221.771 313.932 220.658 313.932ZM233.422 316.617V311.91C233.422 311.572 233.367 311.282 233.256 311.041C233.145 310.794 232.973 310.602 232.738 310.465C232.51 310.328 232.214 310.26 231.85 310.26C231.537 310.26 231.267 310.315 231.039 310.426C230.811 310.53 230.635 310.683 230.512 310.885C230.388 311.08 230.326 311.311 230.326 311.578H227.514C227.514 311.129 227.618 310.702 227.826 310.299C228.035 309.895 228.337 309.54 228.734 309.234C229.132 308.922 229.604 308.678 230.15 308.502C230.704 308.326 231.322 308.238 232.006 308.238C232.826 308.238 233.555 308.375 234.193 308.648C234.831 308.922 235.333 309.332 235.697 309.879C236.068 310.426 236.254 311.109 236.254 311.93V316.451C236.254 317.031 236.29 317.506 236.361 317.877C236.433 318.242 236.537 318.561 236.674 318.834V319H233.832C233.695 318.714 233.591 318.355 233.52 317.926C233.454 317.49 233.422 317.053 233.422 316.617ZM233.793 312.564L233.812 314.156H232.24C231.869 314.156 231.547 314.199 231.273 314.283C231 314.368 230.775 314.488 230.6 314.645C230.424 314.794 230.294 314.97 230.209 315.172C230.131 315.374 230.092 315.595 230.092 315.836C230.092 316.077 230.147 316.295 230.258 316.49C230.368 316.679 230.528 316.829 230.736 316.939C230.945 317.044 231.189 317.096 231.469 317.096C231.892 317.096 232.26 317.011 232.572 316.842C232.885 316.673 233.126 316.464 233.295 316.217C233.471 315.969 233.562 315.735 233.568 315.514L234.311 316.705C234.206 316.972 234.063 317.249 233.881 317.535C233.705 317.822 233.48 318.092 233.207 318.346C232.934 318.593 232.605 318.798 232.221 318.961C231.837 319.117 231.381 319.195 230.854 319.195C230.183 319.195 229.574 319.062 229.027 318.795C228.487 318.521 228.057 318.147 227.738 317.672C227.426 317.19 227.27 316.643 227.27 316.031C227.27 315.478 227.374 314.986 227.582 314.557C227.79 314.127 228.096 313.766 228.5 313.473C228.91 313.173 229.421 312.949 230.033 312.799C230.645 312.643 231.355 312.564 232.162 312.564H233.793ZM241.4 317.809L244.203 308.434H247.221L242.973 320.592C242.882 320.859 242.758 321.145 242.602 321.451C242.452 321.757 242.247 322.047 241.986 322.32C241.732 322.6 241.41 322.828 241.02 323.004C240.635 323.18 240.163 323.268 239.604 323.268C239.337 323.268 239.118 323.251 238.949 323.219C238.78 323.186 238.578 323.141 238.344 323.082V321.021C238.415 321.021 238.49 321.021 238.568 321.021C238.646 321.028 238.721 321.031 238.793 321.031C239.164 321.031 239.467 320.989 239.701 320.904C239.936 320.82 240.124 320.689 240.268 320.514C240.411 320.344 240.525 320.123 240.609 319.85L241.4 317.809ZM240.229 308.434L242.523 316.09L242.924 319.068L241.01 319.273L237.211 308.434H240.229ZM251.156 310.621V319H248.334V308.434H250.98L251.156 310.621ZM250.766 313.346H249.984C249.984 312.61 250.072 311.933 250.248 311.314C250.43 310.689 250.694 310.149 251.039 309.693C251.391 309.231 251.824 308.873 252.338 308.619C252.852 308.365 253.448 308.238 254.125 308.238C254.594 308.238 255.023 308.31 255.414 308.453C255.805 308.59 256.14 308.808 256.42 309.107C256.706 309.4 256.928 309.785 257.084 310.26C257.24 310.729 257.318 311.292 257.318 311.949V319H254.506V312.262C254.506 311.78 254.441 311.409 254.311 311.148C254.18 310.888 253.995 310.706 253.754 310.602C253.52 310.497 253.236 310.445 252.904 310.445C252.54 310.445 252.221 310.52 251.947 310.67C251.68 310.82 251.459 311.028 251.283 311.295C251.107 311.555 250.977 311.861 250.893 312.213C250.808 312.564 250.766 312.942 250.766 313.346ZM257.055 313.023L256.049 313.15C256.049 312.46 256.133 311.819 256.303 311.227C256.479 310.634 256.736 310.113 257.074 309.664C257.419 309.215 257.846 308.867 258.354 308.619C258.861 308.365 259.447 308.238 260.111 308.238C260.619 308.238 261.081 308.313 261.498 308.463C261.915 308.606 262.27 308.837 262.562 309.156C262.862 309.469 263.09 309.879 263.246 310.387C263.409 310.895 263.49 311.516 263.49 312.252V319H260.668V312.252C260.668 311.764 260.603 311.393 260.473 311.139C260.349 310.878 260.167 310.699 259.926 310.602C259.691 310.497 259.411 310.445 259.086 310.445C258.747 310.445 258.451 310.514 258.197 310.65C257.943 310.781 257.732 310.963 257.562 311.197C257.393 311.432 257.266 311.705 257.182 312.018C257.097 312.324 257.055 312.659 257.055 313.023ZM270.531 319.195C269.711 319.195 268.975 319.065 268.324 318.805C267.673 318.538 267.12 318.17 266.664 317.701C266.215 317.232 265.87 316.689 265.629 316.07C265.388 315.445 265.268 314.781 265.268 314.078V313.688C265.268 312.887 265.382 312.154 265.609 311.49C265.837 310.826 266.163 310.25 266.586 309.762C267.016 309.273 267.536 308.899 268.148 308.639C268.76 308.372 269.451 308.238 270.219 308.238C270.967 308.238 271.632 308.362 272.211 308.609C272.79 308.857 273.275 309.208 273.666 309.664C274.063 310.12 274.363 310.667 274.564 311.305C274.766 311.936 274.867 312.639 274.867 313.414V314.586H266.469V312.711H272.104V312.496C272.104 312.105 272.032 311.757 271.889 311.451C271.752 311.139 271.544 310.891 271.264 310.709C270.984 310.527 270.626 310.436 270.189 310.436C269.818 310.436 269.499 310.517 269.232 310.68C268.965 310.842 268.747 311.07 268.578 311.363C268.415 311.656 268.292 312.001 268.207 312.398C268.129 312.789 268.09 313.219 268.09 313.688V314.078C268.09 314.501 268.148 314.892 268.266 315.25C268.389 315.608 268.562 315.917 268.783 316.178C269.011 316.438 269.285 316.64 269.604 316.783C269.929 316.926 270.297 316.998 270.707 316.998C271.215 316.998 271.687 316.9 272.123 316.705C272.566 316.503 272.947 316.201 273.266 315.797L274.633 317.281C274.411 317.6 274.109 317.906 273.725 318.199C273.347 318.492 272.891 318.733 272.357 318.922C271.824 319.104 271.215 319.195 270.531 319.195ZM279.223 310.689V319H276.41V308.434H279.047L279.223 310.689ZM278.812 313.346H278.051C278.051 312.564 278.152 311.861 278.354 311.236C278.555 310.605 278.839 310.068 279.203 309.625C279.568 309.176 280.001 308.834 280.502 308.6C281.01 308.359 281.576 308.238 282.201 308.238C282.696 308.238 283.148 308.31 283.559 308.453C283.969 308.596 284.32 308.824 284.613 309.137C284.913 309.449 285.141 309.863 285.297 310.377C285.46 310.891 285.541 311.52 285.541 312.262V319H282.709V312.252C282.709 311.783 282.644 311.419 282.514 311.158C282.383 310.898 282.191 310.715 281.938 310.611C281.69 310.501 281.384 310.445 281.02 310.445C280.642 310.445 280.313 310.52 280.033 310.67C279.76 310.82 279.532 311.028 279.35 311.295C279.174 311.555 279.04 311.861 278.949 312.213C278.858 312.564 278.812 312.942 278.812 313.346ZM292.855 308.434V310.426H286.703V308.434H292.855ZM288.227 305.826H291.039V315.816C291.039 316.122 291.078 316.357 291.156 316.52C291.241 316.682 291.365 316.796 291.527 316.861C291.69 316.92 291.895 316.949 292.143 316.949C292.318 316.949 292.475 316.943 292.611 316.93C292.755 316.91 292.875 316.891 292.973 316.871L292.982 318.941C292.742 319.02 292.481 319.081 292.201 319.127C291.921 319.173 291.612 319.195 291.273 319.195C290.655 319.195 290.115 319.094 289.652 318.893C289.197 318.684 288.845 318.352 288.598 317.896C288.35 317.441 288.227 316.842 288.227 316.1V305.826ZM300.17 316.08C300.17 315.878 300.111 315.696 299.994 315.533C299.877 315.37 299.659 315.221 299.34 315.084C299.027 314.941 298.575 314.811 297.982 314.693C297.449 314.576 296.951 314.43 296.488 314.254C296.033 314.072 295.635 313.854 295.297 313.6C294.965 313.346 294.704 313.046 294.516 312.701C294.327 312.35 294.232 311.949 294.232 311.5C294.232 311.057 294.327 310.641 294.516 310.25C294.711 309.859 294.988 309.514 295.346 309.215C295.71 308.909 296.153 308.671 296.674 308.502C297.201 308.326 297.794 308.238 298.451 308.238C299.369 308.238 300.157 308.385 300.814 308.678C301.479 308.971 301.986 309.374 302.338 309.889C302.696 310.396 302.875 310.976 302.875 311.627H300.062C300.062 311.354 300.004 311.109 299.887 310.895C299.776 310.673 299.6 310.501 299.359 310.377C299.125 310.247 298.819 310.182 298.441 310.182C298.129 310.182 297.859 310.237 297.631 310.348C297.403 310.452 297.227 310.595 297.104 310.777C296.986 310.953 296.928 311.148 296.928 311.363C296.928 311.526 296.96 311.673 297.025 311.803C297.097 311.926 297.211 312.04 297.367 312.145C297.523 312.249 297.725 312.346 297.973 312.438C298.227 312.522 298.539 312.6 298.91 312.672C299.672 312.828 300.352 313.033 300.951 313.287C301.55 313.535 302.025 313.873 302.377 314.303C302.729 314.726 302.904 315.283 302.904 315.973C302.904 316.441 302.8 316.871 302.592 317.262C302.383 317.652 302.084 317.994 301.693 318.287C301.303 318.574 300.834 318.798 300.287 318.961C299.747 319.117 299.138 319.195 298.461 319.195C297.478 319.195 296.645 319.02 295.961 318.668C295.284 318.316 294.77 317.87 294.418 317.33C294.073 316.783 293.9 316.223 293.9 315.65H296.566C296.579 316.035 296.677 316.344 296.859 316.578C297.048 316.812 297.286 316.982 297.572 317.086C297.865 317.19 298.181 317.242 298.52 317.242C298.884 317.242 299.187 317.193 299.428 317.096C299.669 316.992 299.851 316.855 299.975 316.686C300.105 316.51 300.17 316.308 300.17 316.08ZM67.8066 336.932H64.1836V334.646H67.8066C68.3665 334.646 68.8223 334.555 69.1738 334.373C69.5254 334.184 69.7826 333.924 69.9453 333.592C70.1081 333.26 70.1895 332.885 70.1895 332.469C70.1895 332.046 70.1081 331.652 69.9453 331.287C69.7826 330.923 69.5254 330.63 69.1738 330.408C68.8223 330.187 68.3665 330.076 67.8066 330.076H65.1992V342H62.2695V327.781H67.8066C68.9199 327.781 69.8737 327.983 70.668 328.387C71.4688 328.784 72.0807 329.334 72.5039 330.037C72.9271 330.74 73.1387 331.544 73.1387 332.449C73.1387 333.367 72.9271 334.161 72.5039 334.832C72.0807 335.503 71.4688 336.02 70.668 336.385C69.8737 336.749 68.9199 336.932 67.8066 336.932ZM77.9531 327V342H75.1309V327H77.9531ZM85.9805 339.617V334.91C85.9805 334.572 85.9251 334.282 85.8145 334.041C85.7038 333.794 85.5312 333.602 85.2969 333.465C85.069 333.328 84.7728 333.26 84.4082 333.26C84.0957 333.26 83.8255 333.315 83.5977 333.426C83.3698 333.53 83.194 333.683 83.0703 333.885C82.9466 334.08 82.8848 334.311 82.8848 334.578H80.0723C80.0723 334.129 80.1764 333.702 80.3848 333.299C80.5931 332.895 80.8958 332.54 81.293 332.234C81.6901 331.922 82.1621 331.678 82.709 331.502C83.2624 331.326 83.8809 331.238 84.5645 331.238C85.3848 331.238 86.1139 331.375 86.752 331.648C87.39 331.922 87.8913 332.332 88.2559 332.879C88.627 333.426 88.8125 334.109 88.8125 334.93V339.451C88.8125 340.031 88.8483 340.506 88.9199 340.877C88.9915 341.242 89.0957 341.561 89.2324 341.834V342H86.3906C86.2539 341.714 86.1497 341.355 86.0781 340.926C86.013 340.49 85.9805 340.053 85.9805 339.617ZM86.3516 335.564L86.3711 337.156H84.7988C84.4277 337.156 84.1055 337.199 83.832 337.283C83.5586 337.368 83.334 337.488 83.1582 337.645C82.9824 337.794 82.8522 337.97 82.7676 338.172C82.6895 338.374 82.6504 338.595 82.6504 338.836C82.6504 339.077 82.7057 339.295 82.8164 339.49C82.9271 339.679 83.0866 339.829 83.2949 339.939C83.5033 340.044 83.7474 340.096 84.0273 340.096C84.4505 340.096 84.8184 340.011 85.1309 339.842C85.4434 339.673 85.6842 339.464 85.8535 339.217C86.0293 338.969 86.1204 338.735 86.127 338.514L86.8691 339.705C86.765 339.972 86.6217 340.249 86.4395 340.535C86.2637 340.822 86.0391 341.092 85.7656 341.346C85.4922 341.593 85.1634 341.798 84.7793 341.961C84.3952 342.117 83.9395 342.195 83.4121 342.195C82.7415 342.195 82.1328 342.062 81.5859 341.795C81.0456 341.521 80.6159 341.147 80.2969 340.672C79.9844 340.19 79.8281 339.643 79.8281 339.031C79.8281 338.478 79.9323 337.986 80.1406 337.557C80.349 337.127 80.6549 336.766 81.0586 336.473C81.4688 336.173 81.9798 335.949 82.5918 335.799C83.2038 335.643 83.9134 335.564 84.7207 335.564H86.3516ZM96.1562 331.434V333.426H90.0039V331.434H96.1562ZM91.5273 328.826H94.3398V338.816C94.3398 339.122 94.3789 339.357 94.457 339.52C94.5417 339.682 94.6654 339.796 94.8281 339.861C94.9909 339.92 95.196 339.949 95.4434 339.949C95.6191 339.949 95.7754 339.943 95.9121 339.93C96.0553 339.91 96.1758 339.891 96.2734 339.871L96.2832 341.941C96.0423 342.02 95.7819 342.081 95.502 342.127C95.222 342.173 94.9128 342.195 94.5742 342.195C93.9557 342.195 93.4154 342.094 92.9531 341.893C92.4974 341.684 92.1458 341.352 91.8984 340.896C91.651 340.441 91.5273 339.842 91.5273 339.1V328.826ZM101.342 342H98.5098V330.496C98.5098 329.695 98.666 329.021 98.9785 328.475C99.2975 327.921 99.7435 327.505 100.316 327.225C100.896 326.938 101.583 326.795 102.377 326.795C102.637 326.795 102.888 326.814 103.129 326.854C103.37 326.886 103.604 326.928 103.832 326.98L103.803 329.1C103.679 329.067 103.549 329.044 103.412 329.031C103.275 329.018 103.116 329.012 102.934 329.012C102.595 329.012 102.305 329.07 102.064 329.188C101.83 329.298 101.651 329.464 101.527 329.686C101.404 329.907 101.342 330.177 101.342 330.496V342ZM103.451 331.434V333.426H96.9375V331.434H103.451ZM104.477 336.824V336.619C104.477 335.844 104.587 335.132 104.809 334.48C105.03 333.823 105.352 333.253 105.775 332.771C106.199 332.29 106.719 331.915 107.338 331.648C107.956 331.375 108.666 331.238 109.467 331.238C110.268 331.238 110.98 331.375 111.605 331.648C112.23 331.915 112.755 332.29 113.178 332.771C113.607 333.253 113.933 333.823 114.154 334.48C114.376 335.132 114.486 335.844 114.486 336.619V336.824C114.486 337.592 114.376 338.305 114.154 338.963C113.933 339.614 113.607 340.184 113.178 340.672C112.755 341.154 112.234 341.528 111.615 341.795C110.997 342.062 110.287 342.195 109.486 342.195C108.686 342.195 107.973 342.062 107.348 341.795C106.729 341.528 106.205 341.154 105.775 340.672C105.352 340.184 105.03 339.614 104.809 338.963C104.587 338.305 104.477 337.592 104.477 336.824ZM107.289 336.619V336.824C107.289 337.267 107.328 337.68 107.406 338.064C107.484 338.449 107.608 338.787 107.777 339.08C107.953 339.367 108.181 339.591 108.461 339.754C108.741 339.917 109.083 339.998 109.486 339.998C109.877 339.998 110.212 339.917 110.492 339.754C110.772 339.591 110.997 339.367 111.166 339.08C111.335 338.787 111.459 338.449 111.537 338.064C111.622 337.68 111.664 337.267 111.664 336.824V336.619C111.664 336.189 111.622 335.786 111.537 335.408C111.459 335.024 111.332 334.686 111.156 334.393C110.987 334.093 110.762 333.859 110.482 333.689C110.202 333.52 109.864 333.436 109.467 333.436C109.07 333.436 108.731 333.52 108.451 333.689C108.178 333.859 107.953 334.093 107.777 334.393C107.608 334.686 107.484 335.024 107.406 335.408C107.328 335.786 107.289 336.189 107.289 336.619ZM119.027 333.738V342H116.215V331.434H118.861L119.027 333.738ZM122.211 331.365L122.162 333.973C122.025 333.953 121.859 333.937 121.664 333.924C121.475 333.904 121.303 333.895 121.146 333.895C120.749 333.895 120.404 333.947 120.111 334.051C119.825 334.148 119.584 334.295 119.389 334.49C119.2 334.686 119.057 334.923 118.959 335.203C118.868 335.483 118.816 335.802 118.803 336.16L118.236 335.984C118.236 335.301 118.305 334.673 118.441 334.1C118.578 333.52 118.777 333.016 119.037 332.586C119.304 332.156 119.63 331.824 120.014 331.59C120.398 331.355 120.837 331.238 121.332 331.238C121.488 331.238 121.648 331.251 121.811 331.277C121.973 331.297 122.107 331.326 122.211 331.365ZM126.352 333.621V342H123.529V331.434H126.176L126.352 333.621ZM125.961 336.346H125.18C125.18 335.61 125.268 334.933 125.443 334.314C125.626 333.689 125.889 333.149 126.234 332.693C126.586 332.231 127.019 331.873 127.533 331.619C128.048 331.365 128.643 331.238 129.32 331.238C129.789 331.238 130.219 331.31 130.609 331.453C131 331.59 131.335 331.808 131.615 332.107C131.902 332.4 132.123 332.785 132.279 333.26C132.436 333.729 132.514 334.292 132.514 334.949V342H129.701V335.262C129.701 334.78 129.636 334.409 129.506 334.148C129.376 333.888 129.19 333.706 128.949 333.602C128.715 333.497 128.432 333.445 128.1 333.445C127.735 333.445 127.416 333.52 127.143 333.67C126.876 333.82 126.654 334.028 126.479 334.295C126.303 334.555 126.173 334.861 126.088 335.213C126.003 335.564 125.961 335.942 125.961 336.346ZM132.25 336.023L131.244 336.15C131.244 335.46 131.329 334.819 131.498 334.227C131.674 333.634 131.931 333.113 132.27 332.664C132.615 332.215 133.041 331.867 133.549 331.619C134.057 331.365 134.643 331.238 135.307 331.238C135.814 331.238 136.277 331.313 136.693 331.463C137.11 331.606 137.465 331.837 137.758 332.156C138.057 332.469 138.285 332.879 138.441 333.387C138.604 333.895 138.686 334.516 138.686 335.252V342H135.863V335.252C135.863 334.764 135.798 334.393 135.668 334.139C135.544 333.878 135.362 333.699 135.121 333.602C134.887 333.497 134.607 333.445 134.281 333.445C133.943 333.445 133.646 333.514 133.393 333.65C133.139 333.781 132.927 333.963 132.758 334.197C132.589 334.432 132.462 334.705 132.377 335.018C132.292 335.324 132.25 335.659 132.25 336.023Z" fill="#F6F5D8"/>
<g clip-path="url(#clip0_3238_5666)">
<path d="M255.645 102.593V105.378H80.0312V102.593C80.0312 92.0727 88.5513 83.543 99.0598 83.543H236.616C242.394 83.543 247.572 86.1234 251.062 90.1955C253.917 93.5302 255.645 97.8632 255.645 102.593Z" fill="#754FE4" stroke="black" stroke-width="0.385733" stroke-miterlimit="10"/>
<path d="M255.645 105.379V240.306C255.645 250.827 247.125 259.357 236.616 259.357H99.0598C95.3096 259.357 91.8087 258.268 88.8629 256.396C83.5549 253.01 80.0312 247.072 80.0312 240.306V105.379H255.645Z" fill="#8F6CF4" stroke="black" stroke-width="0.385733" stroke-miterlimit="10"/>
<path d="M259.898 106.279V243.991C259.898 254.512 251.378 263.042 240.869 263.042H103.313C97.5346 263.042 92.3625 260.461 88.8672 256.395C91.813 258.266 95.3139 259.355 99.0641 259.355H236.62C247.129 259.355 255.649 250.825 255.649 240.305V102.593C255.649 97.863 253.921 93.5301 251.066 90.1953C256.374 93.5754 259.898 99.5134 259.898 106.279Z" fill="#1D5A89" stroke="black" stroke-width="0.385733" stroke-miterlimit="10"/>
<path d="M88.8672 256.395V256.389" stroke="black" stroke-width="0.385733" stroke-miterlimit="10"/>
<path d="M100.145 99.1391C102.335 99.1391 104.111 97.3617 104.111 95.1692C104.111 92.9766 102.335 91.1992 100.145 91.1992C97.9551 91.1992 96.1797 92.9766 96.1797 95.1692C96.1797 97.3617 97.9551 99.1391 100.145 99.1391Z" fill="#1EDBA2" stroke="black" stroke-width="0.385733" stroke-miterlimit="10"/>
<path d="M114.301 99.1391C116.491 99.1391 118.267 97.3617 118.267 95.1692C118.267 92.9766 116.491 91.1992 114.301 91.1992C112.111 91.1992 110.336 92.9766 110.336 95.1692C110.336 97.3617 112.111 99.1391 114.301 99.1391Z" fill="#FFE275" stroke="black" stroke-width="0.385733" stroke-miterlimit="10"/>
<path d="M128.465 99.1391C130.656 99.1391 132.431 97.3617 132.431 95.1692C132.431 92.9766 130.656 91.1992 128.465 91.1992C126.275 91.1992 124.5 92.9766 124.5 95.1692C124.5 97.3617 126.275 99.1391 128.465 99.1391Z" fill="#EE7171" stroke="black" stroke-width="0.385733" stroke-miterlimit="10"/>
<path d="M194.182 159.824H106.375V247.73H194.182V159.824Z" fill="#C3AEFF" stroke="black" stroke-width="0.590172" stroke-miterlimit="10"/>
<path d="M237.232 121.258H180.016V178.539H237.232V121.258Z" fill="#3B1C96" stroke="black" stroke-width="0.385733" stroke-miterlimit="10"/>
<path d="M216.271 165.495C222.216 165.495 227.035 160.67 227.035 154.719C227.035 148.768 222.216 143.943 216.271 143.943C210.327 143.943 205.508 148.768 205.508 154.719C205.508 160.67 210.327 165.495 216.271 165.495Z" fill="#F6F5D8" stroke="black" stroke-width="0.385733" stroke-miterlimit="10"/>
<path d="M257.627 196.12L249.407 203.799L249.13 204.06L231.568 183.643L223.071 190.449L218.55 157.628L218.539 157.555L218.635 157.594L248.563 170.599L240.066 177.404L257.627 196.12Z" fill="#8965F2" stroke="black" stroke-width="0.385733" stroke-miterlimit="10"/>
<path d="M260.465 196.119L252.534 204.059L249.413 203.799L257.633 196.119L240.071 177.404L248.569 170.598L218.641 157.594L221.377 156.42L252.534 170.031L242.904 177.971L260.465 196.119Z" fill="#653ED7" stroke="black" stroke-width="0.385733" stroke-miterlimit="10"/>
<path d="M325.703 73.0918L325.617 73.126" stroke="black" stroke-width="0.385733" stroke-miterlimit="10"/>
<path d="M76.7294 83.7758C74.6787 93.264 66.2946 99.5025 58.0124 97.7047C57.3043 97.5516 56.6188 97.3418 55.956 97.0865C48.9088 94.3416 44.8471 85.9537 46.7222 77.2708C48.7729 67.7826 57.157 61.5441 65.4392 63.3419C67.0027 63.6822 68.4529 64.2777 69.7615 65.0944C75.3812 68.5993 78.3949 76.0741 76.7294 83.7758Z" fill="#E8920A" stroke="black" stroke-width="0.358732" stroke-miterlimit="10"/>
<path d="M78.9925 84.9095C76.9418 94.3977 68.5576 100.636 60.2755 98.8384C58.712 98.4981 57.2617 97.9026 55.9531 97.0859C56.6159 97.3411 57.3014 97.551 58.0095 97.7041C66.2917 99.5019 74.6758 93.2634 76.7265 83.7752C78.392 76.0735 75.3782 68.5987 69.7586 65.0938C76.8058 67.8387 80.8676 76.2266 78.9925 84.9095Z" fill="#9B6619" stroke="black" stroke-width="0.358732" stroke-miterlimit="10"/>
<path d="M111.043 66.0525C109.349 73.879 102.438 79.0229 95.6061 77.537C95.0226 77.4123 94.4561 77.2365 93.9123 77.0266C88.1 74.7637 84.752 67.8447 86.2986 60.6874C87.9924 52.8609 94.9036 47.717 101.736 49.2029C103.027 49.4808 104.222 49.9742 105.299 50.6491C109.933 53.5415 112.42 59.7063 111.043 66.0525Z" fill="#E8920A" stroke="black" stroke-width="0.297015" stroke-miterlimit="10"/>
<path d="M112.914 66.9896C111.22 74.8161 104.309 79.96 97.4773 78.4741C96.1857 78.1962 94.9904 77.7028 93.9141 77.0279C94.4579 77.2378 95.0244 77.4136 95.6079 77.5383C102.44 79.0186 109.351 73.8746 111.045 66.0538C112.416 59.7019 109.935 53.5371 105.301 50.6504C111.113 52.9133 114.461 59.8323 112.914 66.9896Z" fill="#9B6619" stroke="black" stroke-width="0.297015" stroke-miterlimit="10"/>
<path d="M334.764 82.7674C332.544 93.0496 323.457 99.8099 314.484 97.8589C313.719 97.6944 312.971 97.4676 312.258 97.1897C304.621 94.2179 300.22 85.1267 302.253 75.7179C304.474 65.4357 313.561 58.6754 322.534 60.6264C324.228 60.995 325.797 61.6416 327.219 62.5263C333.309 66.3261 336.572 74.4248 334.77 82.7674H334.764Z" fill="#E8920A" stroke="black" stroke-width="0.38959" stroke-miterlimit="10"/>
<path d="M337.223 83.9972C335.003 94.2794 325.916 101.04 316.943 99.0887C315.249 98.7201 313.68 98.0735 312.258 97.1888C312.977 97.4667 313.719 97.6935 314.484 97.858C323.457 99.809 332.544 93.0487 334.765 82.7665C336.572 74.4239 333.303 66.3195 327.213 62.5254C334.85 65.4972 339.251 74.5884 337.218 83.9972H337.223Z" fill="#9B6619" stroke="black" stroke-width="0.38959" stroke-miterlimit="10"/>
<path d="M316.834 103.024C315.134 110.896 308.178 116.074 301.306 114.582C300.717 114.458 300.151 114.282 299.601 114.072C293.755 111.792 290.384 104.833 291.942 97.6307C293.642 89.7588 300.598 84.5809 307.47 86.0724C308.767 86.356 309.968 86.8494 311.056 87.5243C315.718 90.4337 318.216 96.6325 316.84 103.024H316.834Z" fill="#E8920A" stroke="black" stroke-width="0.300872" stroke-miterlimit="10"/>
<path d="M318.715 103.967C317.016 111.839 310.059 117.016 303.187 115.525C301.89 115.241 300.689 114.748 299.602 114.073C300.151 114.283 300.718 114.459 301.307 114.583C308.178 116.075 315.135 110.897 316.834 103.025C318.217 96.6336 315.718 90.4348 311.05 87.5254C316.897 89.8053 320.267 96.764 318.709 103.967H318.715Z" fill="#9B6619" stroke="black" stroke-width="0.300872" stroke-miterlimit="10"/>
<path d="M232.217 128.92L234.406 132.031L248.49 122.1L246.301 118.988L232.217 128.92Z" fill="#9C7EF3" stroke="black" stroke-width="0.354875" stroke-miterlimit="10"/>
<path d="M236.103 146.213L233.914 149.324L247.998 159.256L250.187 156.145L236.103 146.213Z" fill="#9C7EF3" stroke="black" stroke-width="0.354875" stroke-miterlimit="10"/>
<path d="M234.843 136.73L235.133 140.689L256.63 139.113L256.341 135.153L234.843 136.73Z" fill="#9C7EF3" stroke="black" stroke-width="0.408877" stroke-miterlimit="10"/>
<path d="M276.888 56.5194V66.3309C276.888 72.5467 271.852 77.5885 265.643 77.5885H204.292C201.119 77.5885 198.247 76.2728 196.208 74.146C194.248 72.127 193.047 69.3707 193.047 66.3309V56.5194C193.047 50.3036 198.083 45.2617 204.292 45.2617H265.643C269.835 45.2617 273.495 47.5643 275.427 50.9728C276.356 52.6061 276.888 54.5004 276.888 56.5194Z" fill="#199E86" stroke="black" stroke-width="0.354875" stroke-miterlimit="10"/>
<path d="M278.591 58.7878V68.5993C278.591 74.8151 273.555 79.8569 267.346 79.8569H205.994C201.802 79.8569 198.143 77.5544 196.211 74.1459C198.25 76.2726 201.122 77.5884 204.295 77.5884H265.646C271.855 77.5884 276.891 72.5465 276.891 66.3307V56.5193C276.891 54.5002 276.359 52.606 275.43 50.9727C277.39 52.9917 278.591 55.7479 278.591 58.7878Z" fill="#108872" stroke="black" stroke-width="0.354875" stroke-miterlimit="10"/>
<path d="M227.716 59.4643C227.716 60.0447 227.582 60.5776 227.316 61.0628C227.05 61.5385 226.641 61.9239 226.089 62.2188C225.537 62.5138 224.852 62.6613 224.034 62.6613H222.521V66.2578H220.08V56.2389H224.034C224.833 56.2389 225.508 56.3768 226.06 56.6528C226.612 56.9287 227.026 57.3093 227.302 57.7945C227.578 58.2798 227.716 58.8364 227.716 59.4643ZM223.848 60.7203C224.314 60.7203 224.661 60.6109 224.89 60.392C225.118 60.1732 225.232 59.864 225.232 59.4643C225.232 59.0647 225.118 58.7555 224.89 58.5367C224.661 58.3178 224.314 58.2084 223.848 58.2084H222.521V60.7203H223.848ZM235.223 64.4881H231.484L230.884 66.2578H228.33L231.955 56.2389H234.781L238.406 66.2578H235.823L235.223 64.4881ZM234.595 62.6042L233.353 58.9363L232.126 62.6042H234.595ZM241.95 56.2389V66.2578H239.509V56.2389H241.95ZM247.472 56.2389C248.528 56.2389 249.451 56.4482 250.24 56.8668C251.03 57.2855 251.639 57.8754 252.067 58.6366C252.505 59.3882 252.724 60.2588 252.724 61.2483C252.724 62.2283 252.505 63.0989 252.067 63.8601C251.639 64.6213 251.025 65.2112 250.226 65.6298C249.437 66.0485 248.518 66.2578 247.472 66.2578H243.718V56.2389H247.472ZM247.315 64.1456C248.238 64.1456 248.956 63.8934 249.47 63.3891C249.984 62.8849 250.24 62.1713 250.24 61.2483C250.24 60.3254 249.984 59.6071 249.47 59.0933C248.956 58.5795 248.238 58.3226 247.315 58.3226H246.159V64.1456H247.315Z" fill="#F6F5D8"/>
</g>
<defs>
<filter id="filter0_d_3238_5666" x="413" y="1" width="386.461" height="413.514" filterUnits="userSpaceOnUse" color-interpolation-filters="sRGB">
<feFlood flood-opacity="0" result="BackgroundImageFix"/>
<feColorMatrix in="SourceAlpha" type="matrix" values="0 0 0 0 0 0 0 0 0 0 0 0 0 0 0 0 0 0 127 0" result="hardAlpha"/>
<feOffset dx="3" dy="3"/>
<feComposite in2="hardAlpha" operator="out"/>
<feColorMatrix type="matrix" values="0 0 0 0 0.808333 0 0 0 0 0.808333 0 0 0 0 0.808333 0 0 0 1 0"/>
<feBlend mode="normal" in2="BackgroundImageFix" result="effect1_dropShadow_3238_5666"/>
<feBlend mode="normal" in="SourceGraphic" in2="effect1_dropShadow_3238_5666" result="shape"/>
</filter>
<filter id="filter1_d_3238_5666" x="0" y="0.744141" width="386.461" height="413.514" filterUnits="userSpaceOnUse" color-interpolation-filters="sRGB">
<feFlood flood-opacity="0" result="BackgroundImageFix"/>
<feColorMatrix in="SourceAlpha" type="matrix" values="0 0 0 0 0 0 0 0 0 0 0 0 0 0 0 0 0 0 127 0" result="hardAlpha"/>
<feOffset dx="3" dy="3"/>
<feComposite in2="hardAlpha" operator="out"/>
<feColorMatrix type="matrix" values="0 0 0 0 0.808333 0 0 0 0 0.808333 0 0 0 0 0.808333 0 0 0 1 0"/>
<feBlend mode="normal" in2="BackgroundImageFix" result="effect1_dropShadow_3238_5666"/>
<feBlend mode="normal" in="SourceGraphic" in2="effect1_dropShadow_3238_5666" result="shape"/>
</filter>
<clipPath id="clip0_3238_5666">
<rect width="292" height="218.325" fill="white" transform="translate(46 45)"/>
</clipPath>
</defs>
</svg>
