<svg width="315" height="177" viewBox="0 0 315 177" fill="none" xmlns="http://www.w3.org/2000/svg">
<g filter="url(#filter0_d_3305_4754)">
<rect width="312" height="174" rx="6" fill="#17171D"/>
<rect x="0.5" y="0.5" width="311" height="173" rx="5.5" stroke="#F6F5D8" stroke-opacity="0.46"/>
</g>
<path d="M217.541 116.961C218.016 116.19 220.424 115.605 223.326 115.605C226.467 115.605 229.03 116.291 229.19 117.156V117.166L229.194 117.278C229.12 118.167 226.523 118.876 223.326 118.876C220.406 118.876 217.987 118.283 217.53 117.507C217.53 117.507 217.453 117.445 217.453 117.241C217.453 117.037 217.541 116.961 217.541 116.961Z" fill="#E8920A" stroke="black" stroke-width="0.3"/>
<path d="M229.2 118.464C229.2 119.368 226.673 119.999 223.429 119.999C220.184 119.999 217.556 119.267 217.556 118.363C217.556 118.28 217.535 117.903 217.531 117.504C217.987 118.282 220.407 118.874 223.327 118.874C226.524 118.874 229.123 118.165 229.195 117.277C229.216 117.807 229.198 118.355 229.198 118.466L229.2 118.464Z" fill="#9B6619" stroke="black" stroke-width="0.3"/>
<path d="M217.017 115.012C217.493 114.241 219.9 113.656 222.803 113.656C225.943 113.656 228.507 114.342 228.667 115.207V115.217L228.67 115.329C228.596 116.218 226 116.927 222.803 116.927C219.883 116.927 217.463 116.333 217.007 115.557C217.007 115.557 216.93 115.495 216.93 115.292C216.93 115.088 217.017 115.012 217.017 115.012Z" fill="#E8920A" stroke="black" stroke-width="0.3"/>
<path d="M228.676 116.517C228.676 117.421 226.15 118.051 222.905 118.051C219.661 118.051 217.032 117.32 217.032 116.416C217.032 116.333 217.011 115.956 217.008 115.557C217.464 116.335 219.884 116.926 222.803 116.926C226 116.926 228.599 116.218 228.671 115.33C228.692 115.86 228.675 116.407 228.675 116.519L228.676 116.517Z" fill="#9B6619" stroke="black" stroke-width="0.3"/>
<path d="M215.088 112.885C215.563 112.114 217.971 111.529 220.873 111.529C224.014 111.529 226.577 112.215 226.737 113.08V113.09L226.74 113.202C226.667 114.091 224.07 114.8 220.873 114.8C217.953 114.8 215.533 114.206 215.077 113.43C215.077 113.43 215 113.368 215 113.165C215 112.961 215.088 112.885 215.088 112.885Z" fill="#E8920A" stroke="black" stroke-width="0.3"/>
<path d="M226.745 114.392C226.745 115.296 224.218 115.926 220.974 115.926C217.729 115.926 215.103 115.193 215.103 114.289C215.103 114.206 215.082 113.829 215.078 113.43C215.534 114.208 217.954 114.799 220.874 114.799C224.071 114.799 226.669 114.091 226.741 113.203C226.762 113.733 226.745 114.28 226.745 114.392Z" fill="#9B6619" stroke="black" stroke-width="0.3"/>
<path d="M216.494 111.113C216.969 110.342 219.377 109.758 222.279 109.758C225.42 109.758 227.984 110.443 228.143 111.308V111.319L228.147 111.43C228.073 112.32 225.476 113.028 222.279 113.028C219.359 113.028 216.94 112.435 216.483 111.659C216.483 111.659 216.406 111.597 216.406 111.393C216.406 111.189 216.494 111.113 216.494 111.113Z" fill="#E8920A" stroke="black" stroke-width="0.3"/>
<path d="M228.145 112.619C228.145 113.522 225.618 114.153 222.374 114.153C219.13 114.153 216.501 113.421 216.501 112.518C216.501 112.434 216.48 112.057 216.477 111.658C216.933 112.436 219.352 113.028 222.272 113.028C225.469 113.028 228.068 112.319 228.14 111.432C228.161 111.961 228.143 112.509 228.143 112.62L228.145 112.619Z" fill="#9B6619" stroke="black" stroke-width="0.3"/>
<path d="M235.976 64.5H278.934C281.952 64.5 284.402 66.9709 284.402 70.0241V110.919C284.402 113.972 281.952 116.443 278.934 116.443H235.976C232.958 116.443 230.508 113.972 230.508 110.919V70.0241C230.508 66.9709 232.958 64.5 235.976 64.5Z" fill="#4D85F9" stroke="black" stroke-width="0.5"/>
<path d="M238.369 67.4238H276.54C279.205 67.4238 281.37 69.606 281.37 72.303V108.641C281.37 111.338 279.205 113.521 276.54 113.521H238.369C235.704 113.521 233.539 111.338 233.539 108.641V72.303C233.539 69.606 235.704 67.4238 238.369 67.4238Z" fill="#285BC6" stroke="black" stroke-width="0.5"/>
<path d="M238.957 68.1367H275.955C278.535 68.1367 280.631 70.2491 280.631 72.86V108.082C280.631 110.693 278.535 112.805 275.955 112.805H238.957C236.377 112.805 234.281 110.693 234.281 108.082V72.86C234.281 70.2491 236.377 68.1367 238.957 68.1367Z" fill="#4D85F9" stroke="black" stroke-width="0.5"/>
<path d="M263.334 90.3824C263.334 95.4194 259.405 99.5316 254.473 99.762C254.327 99.7691 254.181 99.7726 254.034 99.7726C248.898 99.7726 244.734 95.5683 244.734 90.3824C244.734 85.1965 248.898 80.9922 254.034 80.9922C254.181 80.9922 254.327 80.9957 254.473 81.0028C259.405 81.2331 263.334 85.3453 263.334 90.3824Z" fill="#6093FB" stroke="black" stroke-width="0.5"/>
<path d="M257.282 90.4734C257.282 92.433 255.911 94.0683 254.087 94.4581C254.069 94.4581 254.053 94.4581 254.036 94.4581C251.807 94.4581 250 92.6332 250 90.3831C250 88.4235 251.37 86.7882 253.195 86.3984C253.213 86.3984 253.229 86.3984 253.246 86.3984C255.475 86.3984 257.282 88.2233 257.282 90.4734Z" fill="#4D85F9" stroke="black" stroke-width="0.5"/>
<path d="M258.072 90.3834C258.072 92.6158 256.292 94.4301 254.087 94.4566C255.912 94.0668 257.282 92.4315 257.282 90.472C257.282 88.2219 255.475 86.397 253.246 86.397C253.229 86.397 253.213 86.397 253.195 86.397C253.466 86.3368 253.748 86.3066 254.036 86.3066C256.264 86.3066 258.072 88.1315 258.072 90.3816V90.3834Z" fill="#285BC6" stroke="black" stroke-width="0.5"/>
<path d="M264.215 90.3824C264.215 95.5683 260.051 99.7726 254.915 99.7726C254.768 99.7726 254.622 99.7691 254.477 99.762C259.409 99.5316 263.338 95.4194 263.338 90.3824C263.338 85.3453 259.409 81.2331 254.477 81.0028C254.622 80.9957 254.768 80.9922 254.915 80.9922C260.051 80.9922 264.215 85.1965 264.215 90.3824Z" fill="#285BC6" stroke="black" stroke-width="0.5"/>
<path d="M233.506 74.4219H233.685C234.174 74.4219 234.574 74.8225 234.574 75.3217V81.7035C234.574 82.2028 234.174 82.6034 233.685 82.6034H233.506C233.017 82.6034 232.617 82.2028 232.617 81.7035V75.3217C232.617 74.8225 233.017 74.4219 233.506 74.4219Z" fill="#285BC6" stroke="black" stroke-width="0.5"/>
<path d="M233.592 97.7207H233.771C234.259 97.7207 234.66 98.1213 234.66 98.6206V105.002C234.66 105.502 234.259 105.902 233.771 105.902H233.592C233.103 105.902 232.703 105.502 232.703 105.002V98.6206C232.703 98.1213 233.103 97.7207 233.592 97.7207Z" fill="#285BC6" stroke="black" stroke-width="0.5"/>
<path d="M265.664 56.4002L265.664 56.4002L265.637 56.3896L265.532 56.3495C265.442 56.3147 265.311 56.2647 265.147 56.2036C264.82 56.0815 264.363 55.9149 263.846 55.7372C262.815 55.3826 261.534 54.9807 260.557 54.8014C259.536 54.614 258.79 54.9908 258.304 55.4113C258.062 55.6206 257.884 55.841 257.767 56.009C257.708 56.0931 257.664 56.1645 257.634 56.2155C257.619 56.241 257.608 56.2614 257.6 56.2757L257.591 56.2926L257.589 56.2974L257.588 56.2989L257.588 56.2994L257.588 56.2996C257.588 56.2997 257.588 56.2997 257.722 56.366L257.588 56.2997L257.586 56.3025L252.209 67.7379H251.807L258.678 53.1841L268.589 56.4622L265.029 67.7379H264.492C265.368 65.1397 266.856 60.7167 267.34 59.2481C267.524 58.6906 267.516 58.2255 267.389 57.8419C267.263 57.4597 267.024 57.1717 266.767 56.9594C266.51 56.7474 266.232 56.6076 266.02 56.5209C265.914 56.4774 265.823 56.4469 265.759 56.427C265.726 56.4171 265.7 56.4099 265.682 56.405L265.664 56.4002Z" fill="#80DABE" stroke="black" stroke-width="0.3"/>
<path d="M265.619 56.5438C265.619 56.5438 262.461 55.3035 260.531 54.9492C258.6 54.5949 257.723 56.3666 257.723 56.3666L252.305 67.8882H254.405C254.394 67.7695 254.389 67.6508 254.389 67.5285C254.389 65.181 256.275 63.2764 258.6 63.2764C260.925 63.2764 262.812 65.181 262.812 67.5285C262.812 67.6508 262.806 67.7695 262.796 67.8882H264.284C265.149 65.3227 266.702 60.7073 267.198 59.2014C267.9 57.0753 265.619 56.5438 265.619 56.5438ZM262.11 61.1503C261.334 61.1503 260.706 60.4363 260.706 59.5557C260.706 58.6752 261.334 57.9612 262.11 57.9612C262.885 57.9612 263.513 58.6752 263.513 59.5557C263.513 60.4363 262.885 61.1503 262.11 61.1503Z" fill="#56BB99"/>
<path d="M262.107 61.1501C262.882 61.1501 263.511 60.4362 263.511 59.5555C263.511 58.6748 262.882 57.9609 262.107 57.9609C261.332 57.9609 260.703 58.6748 260.703 59.5555C260.703 60.4362 261.332 61.1501 262.107 61.1501Z" fill="#8DE0C6" stroke="black" stroke-width="0.3"/>
<path d="M262.813 67.5295C262.813 67.6518 262.808 67.7705 262.797 67.8892H254.406C254.396 67.7705 254.391 67.6518 254.391 67.5295C254.391 65.182 256.277 63.2773 258.602 63.2773C260.927 63.2773 262.813 65.182 262.813 67.5295Z" fill="#80DABE" stroke="black" stroke-width="0.3"/>
<path d="M284.127 66.4312L284.127 66.4312C284.636 67.2919 285.179 68.5303 285.594 69.5479C285.802 70.0579 285.978 70.5145 286.102 70.8436C286.164 71.0082 286.213 71.1409 286.247 71.2326L286.286 71.3382L286.296 71.3657L286.296 71.3661L286.304 71.3835C286.313 71.4005 286.324 71.425 286.338 71.4561C286.366 71.5183 286.403 71.6073 286.44 71.7167C286.515 71.9346 286.593 72.2376 286.604 72.5719C286.614 72.9067 286.557 73.2781 286.355 73.6256C286.152 73.9745 285.81 74.287 285.272 74.514L284.127 66.4312ZM284.127 66.4312C283.596 65.5337 282.824 65.2142 282.191 65.1214C281.875 65.0752 281.593 65.0848 281.391 65.1059C281.289 65.1164 281.207 65.1299 281.149 65.1409C281.12 65.1464 281.098 65.1513 281.082 65.1549L281.064 65.1593L281.058 65.1606L281.057 65.161L281.056 65.1611L281.056 65.1612C281.056 65.1612 281.056 65.1612 281.094 65.3063L281.056 65.1612M284.127 66.4312L281.056 65.1612M281.056 65.1612L281.053 65.162L272.01 67.7377M281.056 65.1612L272.01 67.7377M272.01 67.7377H270.674L284.093 63.9383L288.171 73.6334L281.03 76.7632V76.2901C282.8 75.5528 284.482 74.8486 285.272 74.514L272.01 67.7377Z" fill="#80DABE" stroke="black" stroke-width="0.3"/>
<path d="M282.525 71.807C282.017 72.2553 281.34 72.3527 280.823 72.1011C280.726 71.4686 280.512 70.8751 280.203 70.3471C280.3 70.1008 280.458 69.867 280.677 69.6738C281.333 69.0945 282.279 69.1016 282.79 69.6916C283.3 70.2798 283.181 71.2276 282.525 71.807Z" fill="#8DE0C6"/>
<path d="M281.033 89.9336V89.4217L289.482 89.8077C290.064 89.8314 290.505 89.6942 290.835 89.4645C291.164 89.2357 291.371 88.9234 291.502 88.6155C291.632 88.3081 291.688 88.0002 291.712 87.771C291.724 87.656 291.728 87.5596 291.729 87.4915C291.729 87.4574 291.729 87.4303 291.728 87.4114L291.728 87.3918L291.728 87.3914L291.73 87.3623L291.74 87.2502C291.748 87.1528 291.759 87.0115 291.771 86.8359C291.797 86.4847 291.829 85.9959 291.854 85.4452C291.905 84.3462 291.931 82.992 291.83 81.9942C291.726 80.9542 291.161 80.3353 290.626 79.9805C290.36 79.8039 290.101 79.6924 289.908 79.6248C289.812 79.591 289.732 79.5681 289.675 79.5534C289.647 79.5461 289.624 79.5409 289.608 79.5374L289.59 79.5335L289.584 79.5324L289.583 79.5321L289.582 79.532L289.582 79.532C289.582 79.532 289.582 79.5319 289.554 79.6794L289.582 79.5319L289.579 79.5314L281.033 78.1206V77.7552L292.846 79.7225L292.477 90.2497L281.033 89.9336Z" fill="#80DABE" stroke="black" stroke-width="0.3"/>
<path d="M291.681 82.0114C291.483 80.0412 289.554 79.6816 289.554 79.6816L280.883 78.25V79.7436C281.981 80.2361 282.864 81.1946 283.224 82.4508C283.815 84.5202 282.781 86.6728 280.883 87.5197V89.2667C283.624 89.396 288.005 89.5997 289.488 89.66C291.704 89.7503 291.578 87.3904 291.578 87.3904C291.578 87.3904 291.881 83.9833 291.681 82.0114ZM288.126 86.1838C287.289 86.4283 286.435 86.0173 286.221 85.2643C286.005 84.5131 286.51 83.7052 287.347 83.4607C288.186 83.2162 289.038 83.6272 289.254 84.3802C289.47 85.1314 288.965 85.9393 288.126 86.1838Z" fill="#56BB99"/>
<path d="M288.127 86.1824C287.29 86.4269 286.436 86.0159 286.222 85.2629C286.006 84.5117 286.511 83.7037 287.348 83.4592C288.187 83.2147 289.04 83.6258 289.256 84.3788C289.471 85.13 288.966 85.9379 288.127 86.1824Z" fill="#8DE0C6" stroke="black" stroke-width="0.3"/>
<path d="M280.883 87.5183V79.7422C281.981 80.2347 282.864 81.1932 283.224 82.4494C283.815 84.5188 282.781 86.6714 280.883 87.5183Z" fill="#80DABE" stroke="black" stroke-width="0.3"/>
<path d="M239.523 115.255C239.523 117.388 237.998 119.163 235.989 119.528H235.963C233.589 119.528 231.664 117.585 231.664 115.187C231.664 113.054 233.191 111.277 235.2 110.914H235.224C237.598 110.914 239.523 112.858 239.523 115.255Z" fill="#E8920A" stroke="black" stroke-width="0.3"/>
<path d="M240.264 115.188C240.264 117.577 238.353 119.515 235.991 119.529C238 119.164 239.525 117.391 239.525 115.256C239.525 112.859 237.6 110.915 235.226 110.915H235.203C235.451 110.871 235.705 110.848 235.965 110.848C238.339 110.848 240.264 112.791 240.264 115.188Z" fill="#9B6619" stroke="black" stroke-width="0.3"/>
<path d="M215.088 108.81C215.563 108.04 217.971 107.455 220.873 107.455C224.014 107.455 226.577 108.141 226.737 109.005V109.016L226.74 109.128C226.667 110.017 224.07 110.726 220.873 110.726C217.953 110.726 215.533 110.132 215.077 109.356C215.077 109.356 215 109.294 215 109.09C215 108.887 215.088 108.81 215.088 108.81Z" fill="#E8920A" stroke="black" stroke-width="0.3"/>
<path d="M226.745 110.316C226.745 111.219 224.218 111.85 220.974 111.85C217.729 111.85 215.103 111.117 215.103 110.213C215.103 110.13 215.082 109.752 215.078 109.354C215.534 110.132 217.954 110.723 220.874 110.723C224.071 110.723 226.669 110.015 226.741 109.127C226.762 109.657 226.745 110.204 226.745 110.316Z" fill="#9B6619" stroke="black" stroke-width="0.3"/>
<path d="M285.214 74.3758C284.41 74.7159 282.684 75.4388 280.88 76.19V72.8609C280.88 72.6023 280.861 72.3489 280.824 72.1009C281.342 72.3524 282.019 72.255 282.526 71.8068C283.182 71.2274 283.301 70.2795 282.791 69.6913C282.28 69.1013 281.334 69.0942 280.678 69.6736C280.459 69.8667 280.301 70.1006 280.204 70.3468C279.35 68.8745 277.765 67.8877 275.955 67.8877H272.031L281.094 65.3063C281.094 65.3063 282.993 64.8084 283.998 66.5075C285.003 68.2084 286.158 71.4258 286.158 71.4258C286.158 71.4258 287.262 73.5112 285.214 74.3758Z" fill="#56BB99" stroke="black" stroke-width="0.3"/>
<path d="M28.424 70.098C27.7053 70.098 27.0613 69.9813 26.492 69.748C25.9227 69.5147 25.4653 69.1693 25.12 68.712C24.784 68.2547 24.6067 67.704 24.588 67.06H27.136C27.1733 67.424 27.2993 67.704 27.514 67.9C27.7287 68.0867 28.0087 68.18 28.354 68.18C28.7087 68.18 28.9887 68.1007 29.194 67.942C29.3993 67.774 29.502 67.5453 29.502 67.256C29.502 67.0133 29.418 66.8127 29.25 66.654C29.0913 66.4953 28.8907 66.3647 28.648 66.262C28.4147 66.1593 28.0787 66.0427 27.64 65.912C27.0053 65.716 26.4873 65.52 26.086 65.324C25.6847 65.128 25.3393 64.8387 25.05 64.456C24.7607 64.0733 24.616 63.574 24.616 62.958C24.616 62.0433 24.9473 61.3293 25.61 60.816C26.2727 60.2933 27.136 60.032 28.2 60.032C29.2827 60.032 30.1553 60.2933 30.818 60.816C31.4807 61.3293 31.8353 62.048 31.882 62.972H29.292C29.2733 62.6547 29.1567 62.4073 28.942 62.23C28.7273 62.0433 28.452 61.95 28.116 61.95C27.8267 61.95 27.5933 62.0293 27.416 62.188C27.2387 62.3373 27.15 62.5567 27.15 62.846C27.15 63.1633 27.2993 63.4107 27.598 63.588C27.8967 63.7653 28.3633 63.9567 28.998 64.162C29.6327 64.3767 30.146 64.582 30.538 64.778C30.9393 64.974 31.2847 65.2587 31.574 65.632C31.8633 66.0053 32.008 66.486 32.008 67.074C32.008 67.634 31.8633 68.1427 31.574 68.6C31.294 69.0573 30.8833 69.4213 30.342 69.692C29.8007 69.9627 29.1613 70.098 28.424 70.098ZM38.2833 62.104C39.1793 62.104 39.8979 62.4027 40.4393 63C40.9806 63.588 41.2513 64.4 41.2513 65.436V70H38.8713V65.758C38.8713 65.2353 38.7359 64.8293 38.4653 64.54C38.1946 64.2507 37.8306 64.106 37.3733 64.106C36.9159 64.106 36.5519 64.2507 36.2813 64.54C36.0106 64.8293 35.8753 65.2353 35.8753 65.758V70H33.4813V59.64H35.8753V63.238C36.1179 62.8927 36.4493 62.6173 36.8693 62.412C37.2893 62.2067 37.7606 62.104 38.2833 62.104ZM42.4389 66.08C42.4389 65.2773 42.5882 64.5727 42.8869 63.966C43.1949 63.3593 43.6102 62.8927 44.1329 62.566C44.6555 62.2393 45.2389 62.076 45.8829 62.076C46.4335 62.076 46.9142 62.188 47.3249 62.412C47.7449 62.636 48.0669 62.93 48.2909 63.294V62.188H50.6849V70H48.2909V68.894C48.0575 69.258 47.7309 69.552 47.3109 69.776C46.9002 70 46.4195 70.112 45.8689 70.112C45.2342 70.112 44.6555 69.9487 44.1329 69.622C43.6102 69.286 43.1949 68.8147 42.8869 68.208C42.5882 67.592 42.4389 66.8827 42.4389 66.08ZM48.2909 66.094C48.2909 65.4967 48.1229 65.0253 47.7869 64.68C47.4602 64.3347 47.0589 64.162 46.5829 64.162C46.1069 64.162 45.7009 64.3347 45.3649 64.68C45.0382 65.016 44.8749 65.4827 44.8749 66.08C44.8749 66.6773 45.0382 67.1533 45.3649 67.508C45.7009 67.8533 46.1069 68.026 46.5829 68.026C47.0589 68.026 47.4602 67.8533 47.7869 67.508C48.1229 67.1627 48.2909 66.6913 48.2909 66.094ZM54.8108 63.49C55.0908 63.0607 55.4408 62.7247 55.8608 62.482C56.2808 62.23 56.7475 62.104 57.2608 62.104V64.638H56.6028C56.0055 64.638 55.5575 64.7687 55.2588 65.03C54.9602 65.282 54.8108 65.73 54.8108 66.374V70H52.4168V62.188H54.8108V63.49ZM65.7691 65.968C65.7691 66.192 65.7551 66.4253 65.7271 66.668H60.3091C60.3464 67.1533 60.5004 67.5267 60.7711 67.788C61.0511 68.04 61.3918 68.166 61.7931 68.166C62.3904 68.166 62.8058 67.914 63.0391 67.41H65.5871C65.4564 67.9233 65.2184 68.3853 64.8731 68.796C64.5371 69.2067 64.1124 69.5287 63.5991 69.762C63.0858 69.9953 62.5118 70.112 61.8771 70.112C61.1118 70.112 60.4304 69.9487 59.8331 69.622C59.2358 69.2953 58.7691 68.8287 58.4331 68.222C58.0971 67.6153 57.9291 66.906 57.9291 66.094C57.9291 65.282 58.0924 64.5727 58.4191 63.966C58.7551 63.3593 59.2218 62.8927 59.8191 62.566C60.4164 62.2393 61.1024 62.076 61.8771 62.076C62.6331 62.076 63.3051 62.2347 63.8931 62.552C64.4811 62.8693 64.9384 63.322 65.2651 63.91C65.6011 64.498 65.7691 65.184 65.7691 65.968ZM63.3191 65.338C63.3191 64.9273 63.1791 64.6007 62.8991 64.358C62.6191 64.1153 62.2691 63.994 61.8491 63.994C61.4478 63.994 61.1071 64.1107 60.8271 64.344C60.5564 64.5773 60.3884 64.9087 60.3231 65.338H63.3191ZM66.5561 66.08C66.5561 65.2773 66.7054 64.5727 67.0041 63.966C67.3121 63.3593 67.7274 62.8927 68.2501 62.566C68.7727 62.2393 69.3561 62.076 70.0001 62.076C70.5134 62.076 70.9801 62.1833 71.4001 62.398C71.8294 62.6127 72.1654 62.902 72.4081 63.266V59.64H74.8021V70H72.4081V68.88C72.1841 69.2533 71.8621 69.552 71.4421 69.776C71.0314 70 70.5507 70.112 70.0001 70.112C69.3561 70.112 68.7727 69.9487 68.2501 69.622C67.7274 69.286 67.3121 68.8147 67.0041 68.208C66.7054 67.592 66.5561 66.8827 66.5561 66.08ZM72.4081 66.094C72.4081 65.4967 72.2401 65.0253 71.9041 64.68C71.5774 64.3347 71.1761 64.162 70.7001 64.162C70.2241 64.162 69.8181 64.3347 69.4821 64.68C69.1554 65.016 68.9921 65.4827 68.9921 66.08C68.9921 66.6773 69.1554 67.1533 69.4821 67.508C69.8181 67.8533 70.2241 68.026 70.7001 68.026C71.1761 68.026 71.5774 67.8533 71.9041 67.508C72.2401 67.1627 72.4081 66.6913 72.4081 66.094ZM87.0188 70L86.1088 69.118C85.2035 69.8087 84.1208 70.154 82.8608 70.154C82.1048 70.154 81.4468 70.0327 80.8868 69.79C80.3268 69.538 79.8928 69.188 79.5848 68.74C79.2861 68.2827 79.1368 67.7507 79.1368 67.144C79.1368 66.528 79.3001 65.9727 79.6268 65.478C79.9628 64.974 80.4621 64.5633 81.1248 64.246C80.8821 63.9473 80.7095 63.6627 80.6068 63.392C80.5041 63.112 80.4528 62.8087 80.4528 62.482C80.4528 62.0153 80.5741 61.5907 80.8168 61.208C81.0595 60.8253 81.4095 60.5267 81.8668 60.312C82.3335 60.088 82.8841 59.976 83.5188 59.976C84.1628 59.976 84.7088 60.0927 85.1568 60.326C85.6048 60.5593 85.9408 60.872 86.1648 61.264C86.3888 61.656 86.4915 62.0853 86.4728 62.552H84.2188C84.2281 62.3 84.1628 62.1087 84.0228 61.978C83.8921 61.838 83.7148 61.768 83.4908 61.768C83.2668 61.768 83.0801 61.8333 82.9308 61.964C82.7815 62.0947 82.7068 62.2627 82.7068 62.468C82.7068 62.664 82.7675 62.8693 82.8888 63.084C83.0195 63.2987 83.2201 63.546 83.4908 63.826L85.8848 66.164C85.9035 66.1173 85.9268 66.0613 85.9548 65.996C85.9921 65.9307 86.0295 65.856 86.0668 65.772L86.5848 64.89H88.9788L88.3068 66.108C88.0548 66.6587 87.7655 67.1813 87.4388 67.676L89.8048 70H87.0188ZM82.9728 68.222C83.5981 68.222 84.1535 68.0447 84.6388 67.69L82.4548 65.576C81.7828 65.9213 81.4468 66.388 81.4468 66.976C81.4468 67.3307 81.5821 67.6293 81.8528 67.872C82.1328 68.1053 82.5061 68.222 82.9728 68.222ZM97.1935 70.098C96.4749 70.098 95.8309 69.9813 95.2615 69.748C94.6922 69.5147 94.2349 69.1693 93.8895 68.712C93.5535 68.2547 93.3762 67.704 93.3575 67.06H95.9055C95.9429 67.424 96.0689 67.704 96.2835 67.9C96.4982 68.0867 96.7782 68.18 97.1235 68.18C97.4782 68.18 97.7582 68.1007 97.9635 67.942C98.1689 67.774 98.2715 67.5453 98.2715 67.256C98.2715 67.0133 98.1875 66.8127 98.0195 66.654C97.8609 66.4953 97.6602 66.3647 97.4175 66.262C97.1842 66.1593 96.8482 66.0427 96.4095 65.912C95.7749 65.716 95.2569 65.52 94.8555 65.324C94.4542 65.128 94.1089 64.8387 93.8195 64.456C93.5302 64.0733 93.3855 63.574 93.3855 62.958C93.3855 62.0433 93.7169 61.3293 94.3795 60.816C95.0422 60.2933 95.9055 60.032 96.9695 60.032C98.0522 60.032 98.9249 60.2933 99.5875 60.816C100.25 61.3293 100.605 62.048 100.652 62.972H98.0615C98.0429 62.6547 97.9262 62.4073 97.7115 62.23C97.4969 62.0433 97.2215 61.95 96.8855 61.95C96.5962 61.95 96.3629 62.0293 96.1855 62.188C96.0082 62.3373 95.9195 62.5567 95.9195 62.846C95.9195 63.1633 96.0689 63.4107 96.3675 63.588C96.6662 63.7653 97.1329 63.9567 97.7675 64.162C98.4022 64.3767 98.9155 64.582 99.3075 64.778C99.7089 64.974 100.054 65.2587 100.344 65.632C100.633 66.0053 100.778 66.486 100.778 67.074C100.778 67.634 100.633 68.1427 100.344 68.6C100.064 69.0573 99.6529 69.4213 99.1115 69.692C98.5702 69.9627 97.9309 70.098 97.1935 70.098ZM101.775 66.08C101.775 65.2773 101.924 64.5727 102.223 63.966C102.531 63.3593 102.946 62.8927 103.469 62.566C103.991 62.2393 104.575 62.076 105.219 62.076C105.769 62.076 106.25 62.188 106.661 62.412C107.081 62.636 107.403 62.93 107.627 63.294V62.188H110.021V70H107.627V68.894C107.393 69.258 107.067 69.552 106.647 69.776C106.236 70 105.755 70.112 105.205 70.112C104.57 70.112 103.991 69.9487 103.469 69.622C102.946 69.286 102.531 68.8147 102.223 68.208C101.924 67.592 101.775 66.8827 101.775 66.08ZM107.627 66.094C107.627 65.4967 107.459 65.0253 107.123 64.68C106.796 64.3347 106.395 64.162 105.919 64.162C105.443 64.162 105.037 64.3347 104.701 64.68C104.374 65.016 104.211 65.4827 104.211 66.08C104.211 66.6773 104.374 67.1533 104.701 67.508C105.037 67.8533 105.443 68.026 105.919 68.026C106.395 68.026 106.796 67.8533 107.123 67.508C107.459 67.1627 107.627 66.6913 107.627 66.094ZM115.673 64.176H114.385V70H111.991V64.176H111.123V62.188H111.991V61.964C111.991 61.0027 112.266 60.2747 112.817 59.78C113.367 59.276 114.175 59.024 115.239 59.024C115.416 59.024 115.547 59.0287 115.631 59.038V61.068C115.173 61.04 114.851 61.1053 114.665 61.264C114.478 61.4227 114.385 61.7073 114.385 62.118V62.188H115.673V64.176ZM124.162 65.968C124.162 66.192 124.148 66.4253 124.12 66.668H118.702C118.739 67.1533 118.893 67.5267 119.164 67.788C119.444 68.04 119.784 68.166 120.186 68.166C120.783 68.166 121.198 67.914 121.432 67.41H123.98C123.849 67.9233 123.611 68.3853 123.266 68.796C122.93 69.2067 122.505 69.5287 121.992 69.762C121.478 69.9953 120.904 70.112 120.27 70.112C119.504 70.112 118.823 69.9487 118.226 69.622C117.628 69.2953 117.162 68.8287 116.826 68.222C116.49 67.6153 116.322 66.906 116.322 66.094C116.322 65.282 116.485 64.5727 116.812 63.966C117.148 63.3593 117.614 62.8927 118.212 62.566C118.809 62.2393 119.495 62.076 120.27 62.076C121.026 62.076 121.698 62.2347 122.286 62.552C122.874 62.8693 123.331 63.322 123.658 63.91C123.994 64.498 124.162 65.184 124.162 65.968ZM121.712 65.338C121.712 64.9273 121.572 64.6007 121.292 64.358C121.012 64.1153 120.662 63.994 120.242 63.994C119.84 63.994 119.5 64.1107 119.22 64.344C118.949 64.5773 118.781 64.9087 118.716 65.338H121.712ZM131.569 70.112C130.888 70.112 130.281 69.9953 129.749 69.762C129.217 69.5287 128.797 69.2113 128.489 68.81C128.181 68.3993 128.009 67.942 127.971 67.438H130.337C130.365 67.7087 130.491 67.928 130.715 68.096C130.939 68.264 131.215 68.348 131.541 68.348C131.84 68.348 132.069 68.292 132.227 68.18C132.395 68.0587 132.479 67.9047 132.479 67.718C132.479 67.494 132.363 67.3307 132.129 67.228C131.896 67.116 131.518 66.9947 130.995 66.864C130.435 66.7333 129.969 66.598 129.595 66.458C129.222 66.3087 128.9 66.08 128.629 65.772C128.359 65.4547 128.223 65.03 128.223 64.498C128.223 64.05 128.345 63.644 128.587 63.28C128.839 62.9067 129.203 62.6127 129.679 62.398C130.165 62.1833 130.739 62.076 131.401 62.076C132.381 62.076 133.151 62.3187 133.711 62.804C134.281 63.2893 134.607 63.9333 134.691 64.736H132.479C132.442 64.4653 132.321 64.2507 132.115 64.092C131.919 63.9333 131.658 63.854 131.331 63.854C131.051 63.854 130.837 63.91 130.687 64.022C130.538 64.1247 130.463 64.2693 130.463 64.456C130.463 64.68 130.58 64.848 130.813 64.96C131.056 65.072 131.429 65.184 131.933 65.296C132.512 65.4453 132.983 65.5947 133.347 65.744C133.711 65.884 134.029 66.1173 134.299 66.444C134.579 66.7613 134.724 67.1907 134.733 67.732C134.733 68.1893 134.603 68.6 134.341 68.964C134.089 69.3187 133.721 69.5987 133.235 69.804C132.759 70.0093 132.204 70.112 131.569 70.112ZM138.592 63.294C138.825 62.93 139.147 62.636 139.558 62.412C139.969 62.188 140.449 62.076 141 62.076C141.644 62.076 142.227 62.2393 142.75 62.566C143.273 62.8927 143.683 63.3593 143.982 63.966C144.29 64.5727 144.444 65.2773 144.444 66.08C144.444 66.8827 144.29 67.592 143.982 68.208C143.683 68.8147 143.273 69.286 142.75 69.622C142.227 69.9487 141.644 70.112 141 70.112C140.459 70.112 139.978 70 139.558 69.776C139.147 69.552 138.825 69.2627 138.592 68.908V73.724H136.198V62.188H138.592V63.294ZM142.008 66.08C142.008 65.4827 141.84 65.016 141.504 64.68C141.177 64.3347 140.771 64.162 140.286 64.162C139.81 64.162 139.404 64.3347 139.068 64.68C138.741 65.0253 138.578 65.4967 138.578 66.094C138.578 66.6913 138.741 67.1627 139.068 67.508C139.404 67.8533 139.81 68.026 140.286 68.026C140.762 68.026 141.168 67.8533 141.504 67.508C141.84 67.1533 142.008 66.6773 142.008 66.08ZM145.224 66.08C145.224 65.2773 145.373 64.5727 145.672 63.966C145.98 63.3593 146.395 62.8927 146.918 62.566C147.441 62.2393 148.024 62.076 148.668 62.076C149.219 62.076 149.699 62.188 150.11 62.412C150.53 62.636 150.852 62.93 151.076 63.294V62.188H153.47V70H151.076V68.894C150.843 69.258 150.516 69.552 150.096 69.776C149.685 70 149.205 70.112 148.654 70.112C148.019 70.112 147.441 69.9487 146.918 69.622C146.395 69.286 145.98 68.8147 145.672 68.208C145.373 67.592 145.224 66.8827 145.224 66.08ZM151.076 66.094C151.076 65.4967 150.908 65.0253 150.572 64.68C150.245 64.3347 149.844 64.162 149.368 64.162C148.892 64.162 148.486 64.3347 148.15 64.68C147.823 65.016 147.66 65.4827 147.66 66.08C147.66 66.6773 147.823 67.1533 148.15 67.508C148.486 67.8533 148.892 68.026 149.368 68.026C149.844 68.026 150.245 67.8533 150.572 67.508C150.908 67.1627 151.076 66.6913 151.076 66.094ZM154.726 66.094C154.726 65.282 154.889 64.5727 155.216 63.966C155.552 63.3593 156.014 62.8927 156.602 62.566C157.199 62.2393 157.881 62.076 158.646 62.076C159.626 62.076 160.443 62.3327 161.096 62.846C161.759 63.3593 162.193 64.0827 162.398 65.016H159.85C159.635 64.4187 159.22 64.12 158.604 64.12C158.165 64.12 157.815 64.2927 157.554 64.638C157.293 64.974 157.162 65.4593 157.162 66.094C157.162 66.7287 157.293 67.2187 157.554 67.564C157.815 67.9 158.165 68.068 158.604 68.068C159.22 68.068 159.635 67.7693 159.85 67.172H162.398C162.193 68.0867 161.759 68.8053 161.096 69.328C160.433 69.8507 159.617 70.112 158.646 70.112C157.881 70.112 157.199 69.9487 156.602 69.622C156.014 69.2953 155.552 68.8287 155.216 68.222C154.889 67.6153 154.726 66.906 154.726 66.094ZM171.043 65.968C171.043 66.192 171.029 66.4253 171.001 66.668H165.583C165.62 67.1533 165.774 67.5267 166.045 67.788C166.325 68.04 166.665 68.166 167.067 68.166C167.664 68.166 168.079 67.914 168.313 67.41H170.861C170.73 67.9233 170.492 68.3853 170.147 68.796C169.811 69.2067 169.386 69.5287 168.873 69.762C168.359 69.9953 167.785 70.112 167.151 70.112C166.385 70.112 165.704 69.9487 165.107 69.622C164.509 69.2953 164.043 68.8287 163.707 68.222C163.371 67.6153 163.203 66.906 163.203 66.094C163.203 65.282 163.366 64.5727 163.693 63.966C164.029 63.3593 164.495 62.8927 165.093 62.566C165.69 62.2393 166.376 62.076 167.151 62.076C167.907 62.076 168.579 62.2347 169.167 62.552C169.755 62.8693 170.212 63.322 170.539 63.91C170.875 64.498 171.043 65.184 171.043 65.968ZM168.593 65.338C168.593 64.9273 168.453 64.6007 168.173 64.358C167.893 64.1153 167.543 63.994 167.123 63.994C166.721 63.994 166.381 64.1107 166.101 64.344C165.83 64.5773 165.662 64.9087 165.597 65.338H168.593Z" fill="#6889FF"/>
<path d="M28.788 85.176H27.5V91H25.106V85.176H24.238V83.188H25.106V82.964C25.106 82.0027 25.3813 81.2747 25.932 80.78C26.4827 80.276 27.29 80.024 28.354 80.024C28.5313 80.024 28.662 80.0287 28.746 80.038V82.068C28.2887 82.04 27.9667 82.1053 27.78 82.264C27.5933 82.4227 27.5 82.7073 27.5 83.118V83.188H28.788V85.176ZM33.4689 91.112C32.7036 91.112 32.0129 90.9487 31.3969 90.622C30.7903 90.2953 30.3096 89.8287 29.9549 89.222C29.6096 88.6153 29.4369 87.906 29.4369 87.094C29.4369 86.2913 29.6143 85.5867 29.9689 84.98C30.3236 84.364 30.8089 83.8927 31.4249 83.566C32.0409 83.2393 32.7316 83.076 33.4969 83.076C34.2623 83.076 34.9529 83.2393 35.5689 83.566C36.1849 83.8927 36.6703 84.364 37.0249 84.98C37.3796 85.5867 37.5569 86.2913 37.5569 87.094C37.5569 87.8967 37.3749 88.606 37.0109 89.222C36.6563 89.8287 36.1663 90.2953 35.5409 90.622C34.9249 90.9487 34.2343 91.112 33.4689 91.112ZM33.4689 89.04C33.9263 89.04 34.3136 88.872 34.6309 88.536C34.9576 88.2 35.1209 87.7193 35.1209 87.094C35.1209 86.4687 34.9623 85.988 34.6449 85.652C34.3369 85.316 33.9543 85.148 33.4969 85.148C33.0303 85.148 32.6429 85.316 32.3349 85.652C32.0269 85.9787 31.8729 86.4593 31.8729 87.094C31.8729 87.7193 32.0223 88.2 32.3209 88.536C32.6289 88.872 33.0116 89.04 33.4689 89.04ZM41.221 84.49C41.501 84.0607 41.851 83.7247 42.271 83.482C42.691 83.23 43.1577 83.104 43.671 83.104V85.638H43.013C42.4157 85.638 41.9677 85.7687 41.669 86.03C41.3703 86.282 41.221 86.73 41.221 87.374V91H38.827V83.188H41.221V84.49ZM52.5561 91L50.1761 87.724V91H47.7821V80.64H50.1761V86.366L52.5421 83.188H55.4961L52.2481 87.108L55.5241 91H52.5561ZM63.8004 86.968C63.8004 87.192 63.7864 87.4253 63.7584 87.668H58.3404C58.3777 88.1533 58.5317 88.5267 58.8024 88.788C59.0824 89.04 59.423 89.166 59.8244 89.166C60.4217 89.166 60.837 88.914 61.0704 88.41H63.6184C63.4877 88.9233 63.2497 89.3853 62.9044 89.796C62.5684 90.2067 62.1437 90.5287 61.6304 90.762C61.117 90.9953 60.543 91.112 59.9084 91.112C59.143 91.112 58.4617 90.9487 57.8644 90.622C57.267 90.2953 56.8004 89.8287 56.4644 89.222C56.1284 88.6153 55.9604 87.906 55.9604 87.094C55.9604 86.282 56.1237 85.5727 56.4504 84.966C56.7864 84.3593 57.253 83.8927 57.8504 83.566C58.4477 83.2393 59.1337 83.076 59.9084 83.076C60.6644 83.076 61.3364 83.2347 61.9244 83.552C62.5124 83.8693 62.9697 84.322 63.2964 84.91C63.6324 85.498 63.8004 86.184 63.8004 86.968ZM61.3504 86.338C61.3504 85.9273 61.2104 85.6007 60.9304 85.358C60.6504 85.1153 60.3004 84.994 59.8804 84.994C59.479 84.994 59.1384 85.1107 58.8584 85.344C58.5877 85.5773 58.4197 85.9087 58.3544 86.338H61.3504ZM72.4273 86.968C72.4273 87.192 72.4133 87.4253 72.3853 87.668H66.9673C67.0046 88.1533 67.1586 88.5267 67.4293 88.788C67.7093 89.04 68.05 89.166 68.4513 89.166C69.0486 89.166 69.464 88.914 69.6973 88.41H72.2453C72.1146 88.9233 71.8766 89.3853 71.5313 89.796C71.1953 90.2067 70.7706 90.5287 70.2573 90.762C69.744 90.9953 69.17 91.112 68.5353 91.112C67.77 91.112 67.0886 90.9487 66.4913 90.622C65.894 90.2953 65.4273 89.8287 65.0913 89.222C64.7553 88.6153 64.5873 87.906 64.5873 87.094C64.5873 86.282 64.7506 85.5727 65.0773 84.966C65.4133 84.3593 65.88 83.8927 66.4773 83.566C67.0746 83.2393 67.7606 83.076 68.5353 83.076C69.2913 83.076 69.9633 83.2347 70.5513 83.552C71.1393 83.8693 71.5966 84.322 71.9233 84.91C72.2593 85.498 72.4273 86.184 72.4273 86.968ZM69.9773 86.338C69.9773 85.9273 69.8373 85.6007 69.5573 85.358C69.2773 85.1153 68.9273 84.994 68.5073 84.994C68.106 84.994 67.7653 85.1107 67.4853 85.344C67.2146 85.5773 67.0466 85.9087 66.9813 86.338H69.9773ZM76.0843 84.294C76.3176 83.93 76.6396 83.636 77.0503 83.412C77.4609 83.188 77.9416 83.076 78.4923 83.076C79.1363 83.076 79.7196 83.2393 80.2423 83.566C80.7649 83.8927 81.1756 84.3593 81.4743 84.966C81.7823 85.5727 81.9363 86.2773 81.9363 87.08C81.9363 87.8827 81.7823 88.592 81.4743 89.208C81.1756 89.8147 80.7649 90.286 80.2423 90.622C79.7196 90.9487 79.1363 91.112 78.4923 91.112C77.9509 91.112 77.4703 91 77.0503 90.776C76.6396 90.552 76.3176 90.2627 76.0843 89.908V94.724H73.6903V83.188H76.0843V84.294ZM79.5003 87.08C79.5003 86.4827 79.3323 86.016 78.9963 85.68C78.6696 85.3347 78.2636 85.162 77.7783 85.162C77.3023 85.162 76.8963 85.3347 76.5603 85.68C76.2336 86.0253 76.0703 86.4967 76.0703 87.094C76.0703 87.6913 76.2336 88.1627 76.5603 88.508C76.8963 88.8533 77.3023 89.026 77.7783 89.026C78.2543 89.026 78.6603 88.8533 78.9963 88.508C79.3323 88.1533 79.5003 87.6773 79.5003 87.08ZM84.3962 82.376C83.9762 82.376 83.6309 82.2547 83.3602 82.012C83.0989 81.76 82.9682 81.452 82.9682 81.088C82.9682 80.7147 83.0989 80.4067 83.3602 80.164C83.6309 79.912 83.9762 79.786 84.3962 79.786C84.8069 79.786 85.1429 79.912 85.4042 80.164C85.6749 80.4067 85.8102 80.7147 85.8102 81.088C85.8102 81.452 85.6749 81.76 85.4042 82.012C85.1429 82.2547 84.8069 82.376 84.3962 82.376ZM85.5862 83.188V91H83.1922V83.188H85.5862ZM92.0811 83.104C92.9958 83.104 93.7238 83.4027 94.2651 84C94.8158 84.588 95.0911 85.4 95.0911 86.436V91H92.7111V86.758C92.7111 86.2353 92.5758 85.8293 92.3051 85.54C92.0345 85.2507 91.6705 85.106 91.2131 85.106C90.7558 85.106 90.3918 85.2507 90.1211 85.54C89.8505 85.8293 89.7151 86.2353 89.7151 86.758V91H87.3211V83.188H89.7151V84.224C89.9578 83.8787 90.2845 83.608 90.6951 83.412C91.1058 83.2067 91.5678 83.104 92.0811 83.104ZM99.7227 83.076C100.273 83.076 100.754 83.188 101.165 83.412C101.585 83.636 101.907 83.93 102.131 84.294V83.188H104.525V90.986C104.525 91.7047 104.38 92.3533 104.091 92.932C103.811 93.52 103.377 93.9867 102.789 94.332C102.21 94.6773 101.487 94.85 100.619 94.85C99.4614 94.85 98.5234 94.5747 97.8047 94.024C97.0861 93.4827 96.6754 92.7453 96.5727 91.812H98.9387C99.0134 92.1107 99.1907 92.344 99.4707 92.512C99.7507 92.6893 100.096 92.778 100.507 92.778C101.001 92.778 101.393 92.6333 101.683 92.344C101.981 92.064 102.131 91.6113 102.131 90.986V89.88C101.897 90.244 101.575 90.5427 101.165 90.776C100.754 91 100.273 91.112 99.7227 91.112C99.0787 91.112 98.4954 90.9487 97.9727 90.622C97.4501 90.286 97.0347 89.8147 96.7267 89.208C96.4281 88.592 96.2787 87.8827 96.2787 87.08C96.2787 86.2773 96.4281 85.5727 96.7267 84.966C97.0347 84.3593 97.4501 83.8927 97.9727 83.566C98.4954 83.2393 99.0787 83.076 99.7227 83.076ZM102.131 87.094C102.131 86.4967 101.963 86.0253 101.627 85.68C101.3 85.3347 100.899 85.162 100.423 85.162C99.9467 85.162 99.5407 85.3347 99.2047 85.68C98.8781 86.016 98.7147 86.4827 98.7147 87.08C98.7147 87.6773 98.8781 88.1533 99.2047 88.508C99.5407 88.8533 99.9467 89.026 100.423 89.026C100.899 89.026 101.3 88.8533 101.627 88.508C101.963 88.1627 102.131 87.6913 102.131 87.094ZM119.191 83.104C120.162 83.104 120.932 83.398 121.501 83.986C122.08 84.574 122.369 85.3907 122.369 86.436V91H119.989V86.758C119.989 86.254 119.854 85.8667 119.583 85.596C119.322 85.316 118.958 85.176 118.491 85.176C118.025 85.176 117.656 85.316 117.385 85.596C117.124 85.8667 116.993 86.254 116.993 86.758V91H114.613V86.758C114.613 86.254 114.478 85.8667 114.207 85.596C113.946 85.316 113.582 85.176 113.115 85.176C112.649 85.176 112.28 85.316 112.009 85.596C111.748 85.8667 111.617 86.254 111.617 86.758V91H109.223V83.188H111.617V84.168C111.86 83.8413 112.177 83.5847 112.569 83.398C112.961 83.202 113.405 83.104 113.899 83.104C114.487 83.104 115.01 83.23 115.467 83.482C115.934 83.734 116.298 84.0933 116.559 84.56C116.83 84.1307 117.199 83.7807 117.665 83.51C118.132 83.2393 118.641 83.104 119.191 83.104ZM127.6 91.112C126.834 91.112 126.144 90.9487 125.528 90.622C124.921 90.2953 124.44 89.8287 124.086 89.222C123.74 88.6153 123.568 87.906 123.568 87.094C123.568 86.2913 123.745 85.5867 124.1 84.98C124.454 84.364 124.94 83.8927 125.556 83.566C126.172 83.2393 126.862 83.076 127.628 83.076C128.393 83.076 129.084 83.2393 129.7 83.566C130.316 83.8927 130.801 84.364 131.156 84.98C131.51 85.5867 131.688 86.2913 131.688 87.094C131.688 87.8967 131.506 88.606 131.142 89.222C130.787 89.8287 130.297 90.2953 129.672 90.622C129.056 90.9487 128.365 91.112 127.6 91.112ZM127.6 89.04C128.057 89.04 128.444 88.872 128.762 88.536C129.088 88.2 129.252 87.7193 129.252 87.094C129.252 86.4687 129.093 85.988 128.776 85.652C128.468 85.316 128.085 85.148 127.628 85.148C127.161 85.148 126.774 85.316 126.466 85.652C126.158 85.9787 126.004 86.4593 126.004 87.094C126.004 87.7193 126.153 88.2 126.452 88.536C126.76 88.872 127.142 89.04 127.6 89.04ZM137.718 83.104C138.633 83.104 139.361 83.4027 139.902 84C140.453 84.588 140.728 85.4 140.728 86.436V91H138.348V86.758C138.348 86.2353 138.213 85.8293 137.942 85.54C137.671 85.2507 137.307 85.106 136.85 85.106C136.393 85.106 136.029 85.2507 135.758 85.54C135.487 85.8293 135.352 86.2353 135.352 86.758V91H132.958V83.188H135.352V84.224C135.595 83.8787 135.921 83.608 136.332 83.412C136.743 83.2067 137.205 83.104 137.718 83.104ZM149.755 86.968C149.755 87.192 149.741 87.4253 149.713 87.668H144.295C144.333 88.1533 144.487 88.5267 144.757 88.788C145.037 89.04 145.378 89.166 145.779 89.166C146.377 89.166 146.792 88.914 147.025 88.41H149.573C149.443 88.9233 149.205 89.3853 148.859 89.796C148.523 90.2067 148.099 90.5287 147.585 90.762C147.072 90.9953 146.498 91.112 145.863 91.112C145.098 91.112 144.417 90.9487 143.819 90.622C143.222 90.2953 142.755 89.8287 142.419 89.222C142.083 88.6153 141.915 87.906 141.915 87.094C141.915 86.282 142.079 85.5727 142.405 84.966C142.741 84.3593 143.208 83.8927 143.805 83.566C144.403 83.2393 145.089 83.076 145.863 83.076C146.619 83.076 147.291 83.2347 147.879 83.552C148.467 83.8693 148.925 84.322 149.251 84.91C149.587 85.498 149.755 86.184 149.755 86.968ZM147.305 86.338C147.305 85.9273 147.165 85.6007 146.885 85.358C146.605 85.1153 146.255 84.994 145.835 84.994C145.434 84.994 145.093 85.1107 144.813 85.344C144.543 85.5773 144.375 85.9087 144.309 86.338H147.305ZM158.998 83.188L154.098 94.71H151.522L153.314 90.734L150.136 83.188H152.81L154.616 88.074L156.408 83.188H158.998ZM29.222 109.97V112H28.004C27.136 112 26.4593 111.79 25.974 111.37C25.4887 110.941 25.246 110.245 25.246 109.284V106.176H24.294V104.188H25.246V102.284H27.64V104.188H29.208V106.176H27.64V109.312C27.64 109.545 27.696 109.713 27.808 109.816C27.92 109.919 28.1067 109.97 28.368 109.97H29.222ZM34.1115 112.112C33.3462 112.112 32.6555 111.949 32.0395 111.622C31.4328 111.295 30.9522 110.829 30.5975 110.222C30.2522 109.615 30.0795 108.906 30.0795 108.094C30.0795 107.291 30.2568 106.587 30.6115 105.98C30.9662 105.364 31.4515 104.893 32.0675 104.566C32.6835 104.239 33.3742 104.076 34.1395 104.076C34.9048 104.076 35.5955 104.239 36.2115 104.566C36.8275 104.893 37.3128 105.364 37.6675 105.98C38.0222 106.587 38.1995 107.291 38.1995 108.094C38.1995 108.897 38.0175 109.606 37.6535 110.222C37.2988 110.829 36.8088 111.295 36.1835 111.622C35.5675 111.949 34.8768 112.112 34.1115 112.112ZM34.1115 110.04C34.5688 110.04 34.9562 109.872 35.2735 109.536C35.6002 109.2 35.7635 108.719 35.7635 108.094C35.7635 107.469 35.6048 106.988 35.2875 106.652C34.9795 106.316 34.5968 106.148 34.1395 106.148C33.6728 106.148 33.2855 106.316 32.9775 106.652C32.6695 106.979 32.5155 107.459 32.5155 108.094C32.5155 108.719 32.6648 109.2 32.9635 109.536C33.2715 109.872 33.6542 110.04 34.1115 110.04ZM42.4376 104.076C42.9882 104.076 43.4689 104.188 43.8796 104.412C44.2996 104.636 44.6216 104.93 44.8456 105.294V104.188H47.2396V111.986C47.2396 112.705 47.0949 113.353 46.8056 113.932C46.5256 114.52 46.0916 114.987 45.5036 115.332C44.9249 115.677 44.2016 115.85 43.3336 115.85C42.1762 115.85 41.2382 115.575 40.5196 115.024C39.8009 114.483 39.3902 113.745 39.2876 112.812H41.6536C41.7282 113.111 41.9056 113.344 42.1856 113.512C42.4656 113.689 42.8109 113.778 43.2216 113.778C43.7162 113.778 44.1082 113.633 44.3976 113.344C44.6962 113.064 44.8456 112.611 44.8456 111.986V110.88C44.6122 111.244 44.2902 111.543 43.8796 111.776C43.4689 112 42.9882 112.112 42.4376 112.112C41.7936 112.112 41.2102 111.949 40.6876 111.622C40.1649 111.286 39.7496 110.815 39.4416 110.208C39.1429 109.592 38.9936 108.883 38.9936 108.08C38.9936 107.277 39.1429 106.573 39.4416 105.966C39.7496 105.359 40.1649 104.893 40.6876 104.566C41.2102 104.239 41.7936 104.076 42.4376 104.076ZM44.8456 108.094C44.8456 107.497 44.6776 107.025 44.3416 106.68C44.0149 106.335 43.6136 106.162 43.1376 106.162C42.6616 106.162 42.2556 106.335 41.9196 106.68C41.5929 107.016 41.4296 107.483 41.4296 108.08C41.4296 108.677 41.5929 109.153 41.9196 109.508C42.2556 109.853 42.6616 110.026 43.1376 110.026C43.6136 110.026 44.0149 109.853 44.3416 109.508C44.6776 109.163 44.8456 108.691 44.8456 108.094ZM56.3355 107.968C56.3355 108.192 56.3215 108.425 56.2935 108.668H50.8755C50.9128 109.153 51.0668 109.527 51.3375 109.788C51.6175 110.04 51.9582 110.166 52.3595 110.166C52.9568 110.166 53.3722 109.914 53.6055 109.41H56.1535C56.0228 109.923 55.7848 110.385 55.4395 110.796C55.1035 111.207 54.6788 111.529 54.1655 111.762C53.6522 111.995 53.0782 112.112 52.4435 112.112C51.6782 112.112 50.9968 111.949 50.3995 111.622C49.8022 111.295 49.3355 110.829 48.9995 110.222C48.6635 109.615 48.4955 108.906 48.4955 108.094C48.4955 107.282 48.6588 106.573 48.9855 105.966C49.3215 105.359 49.7882 104.893 50.3855 104.566C50.9828 104.239 51.6688 104.076 52.4435 104.076C53.1995 104.076 53.8715 104.235 54.4595 104.552C55.0475 104.869 55.5048 105.322 55.8315 105.91C56.1675 106.498 56.3355 107.184 56.3355 107.968ZM53.8855 107.338C53.8855 106.927 53.7455 106.601 53.4655 106.358C53.1855 106.115 52.8355 105.994 52.4155 105.994C52.0142 105.994 51.6735 106.111 51.3935 106.344C51.1228 106.577 50.9548 106.909 50.8895 107.338H53.8855ZM61.9525 109.97V112H60.7345C59.8665 112 59.1898 111.79 58.7045 111.37C58.2191 110.941 57.9765 110.245 57.9765 109.284V106.176H57.0245V104.188H57.9765V102.284H60.3705V104.188H61.9385V106.176H60.3705V109.312C60.3705 109.545 60.4265 109.713 60.5385 109.816C60.6505 109.919 60.8371 109.97 61.0985 109.97H61.9525ZM68.088 104.104C68.984 104.104 69.7026 104.403 70.244 105C70.7853 105.588 71.056 106.4 71.056 107.436V112H68.676V107.758C68.676 107.235 68.5406 106.829 68.27 106.54C67.9993 106.251 67.6353 106.106 67.178 106.106C66.7206 106.106 66.3566 106.251 66.086 106.54C65.8153 106.829 65.68 107.235 65.68 107.758V112H63.286V101.64H65.68V105.238C65.9226 104.893 66.254 104.617 66.674 104.412C67.094 104.207 67.5653 104.104 68.088 104.104ZM80.0836 107.968C80.0836 108.192 80.0696 108.425 80.0416 108.668H74.6236C74.6609 109.153 74.8149 109.527 75.0856 109.788C75.3656 110.04 75.7062 110.166 76.1076 110.166C76.7049 110.166 77.1202 109.914 77.3536 109.41H79.9016C79.7709 109.923 79.5329 110.385 79.1876 110.796C78.8516 111.207 78.4269 111.529 77.9136 111.762C77.4002 111.995 76.8262 112.112 76.1916 112.112C75.4262 112.112 74.7449 111.949 74.1476 111.622C73.5502 111.295 73.0836 110.829 72.7476 110.222C72.4116 109.615 72.2436 108.906 72.2436 108.094C72.2436 107.282 72.4069 106.573 72.7336 105.966C73.0696 105.359 73.5362 104.893 74.1336 104.566C74.7309 104.239 75.4169 104.076 76.1916 104.076C76.9476 104.076 77.6196 104.235 78.2076 104.552C78.7956 104.869 79.2529 105.322 79.5796 105.91C79.9156 106.498 80.0836 107.184 80.0836 107.968ZM77.6336 107.338C77.6336 106.927 77.4936 106.601 77.2136 106.358C76.9336 106.115 76.5836 105.994 76.1636 105.994C75.7622 105.994 75.4216 106.111 75.1416 106.344C74.8709 106.577 74.7029 106.909 74.6376 107.338H77.6336ZM83.7405 105.49C84.0205 105.061 84.3705 104.725 84.7905 104.482C85.2105 104.23 85.6772 104.104 86.1905 104.104V106.638H85.5325C84.9352 106.638 84.4872 106.769 84.1885 107.03C83.8898 107.282 83.7405 107.73 83.7405 108.374V112H81.3465V104.188H83.7405V105.49Z" fill="#FCFCFC"/>
<defs>
<filter id="filter0_d_3305_4754" x="0" y="0" width="315" height="177" filterUnits="userSpaceOnUse" color-interpolation-filters="sRGB">
<feFlood flood-opacity="0" result="BackgroundImageFix"/>
<feColorMatrix in="SourceAlpha" type="matrix" values="0 0 0 0 0 0 0 0 0 0 0 0 0 0 0 0 0 0 127 0" result="hardAlpha"/>
<feOffset dx="3" dy="3"/>
<feComposite in2="hardAlpha" operator="out"/>
<feColorMatrix type="matrix" values="0 0 0 0 0.808333 0 0 0 0 0.808333 0 0 0 0 0.808333 0 0 0 1 0"/>
<feBlend mode="normal" in2="BackgroundImageFix" result="effect1_dropShadow_3305_4754"/>
<feBlend mode="normal" in="SourceGraphic" in2="effect1_dropShadow_3305_4754" result="shape"/>
</filter>
</defs>
</svg>
