<svg width="398" height="569" viewBox="0 0 398 569" fill="none" xmlns="http://www.w3.org/2000/svg">
<g filter="url(#filter0_d_3257_4568)">
<rect y="66" width="394" height="499" rx="30" fill="#1EDBA2"/>
</g>
<g filter="url(#filter1_d_3257_4568)">
<circle cx="185" cy="223" r="151" fill="#F6F5D8"/>
</g>
<path d="M65.6775 444V425.8H73.5555C75.1849 425.8 76.5889 426.069 77.7675 426.606C78.9462 427.126 79.8562 427.88 80.4975 428.868C81.1389 429.856 81.4595 431.035 81.4595 432.404C81.4595 433.756 81.1389 434.926 80.4975 435.914C79.8562 436.902 78.9462 437.665 77.7675 438.202C76.5889 438.722 75.1849 438.982 73.5555 438.982H68.0175L69.8895 437.084V444H65.6775ZM69.8895 437.552L68.0175 435.55H73.3215C74.6215 435.55 75.5922 435.273 76.2335 434.718C76.8749 434.163 77.1955 433.392 77.1955 432.404C77.1955 431.399 76.8749 430.619 76.2335 430.064C75.5922 429.509 74.6215 429.232 73.3215 429.232H68.0175L69.8895 427.23V437.552ZM92.6336 444V441.27L92.3736 440.672V435.784C92.3736 434.917 92.105 434.241 91.5676 433.756C91.0476 433.271 90.2416 433.028 89.1496 433.028C88.4043 433.028 87.6676 433.149 86.9396 433.392C86.229 433.617 85.6223 433.929 85.1196 434.328L83.6636 431.494C84.4263 430.957 85.345 430.541 86.4196 430.246C87.4943 429.951 88.5863 429.804 89.6956 429.804C91.8276 429.804 93.483 430.307 94.6616 431.312C95.8403 432.317 96.4296 433.886 96.4296 436.018V444H92.6336ZM88.3696 444.208C87.2776 444.208 86.3416 444.026 85.5616 443.662C84.7816 443.281 84.1836 442.769 83.7676 442.128C83.3516 441.487 83.1436 440.767 83.1436 439.97C83.1436 439.138 83.343 438.41 83.7416 437.786C84.1576 437.162 84.8076 436.677 85.6916 436.33C86.5756 435.966 87.7283 435.784 89.1496 435.784H92.8676V438.15H89.5916C88.6383 438.15 87.9796 438.306 87.6156 438.618C87.269 438.93 87.0956 439.32 87.0956 439.788C87.0956 440.308 87.295 440.724 87.6936 441.036C88.1096 441.331 88.673 441.478 89.3836 441.478C90.0596 441.478 90.6663 441.322 91.2036 441.01C91.741 440.681 92.131 440.204 92.3736 439.58L92.9976 441.452C92.703 442.353 92.1656 443.038 91.3856 443.506C90.6056 443.974 89.6003 444.208 88.3696 444.208ZM101.615 449.252C100.887 449.252 100.167 449.139 99.4566 448.914C98.7459 448.689 98.1653 448.377 97.7146 447.978L99.1966 445.092C99.5086 445.369 99.8639 445.586 100.263 445.742C100.679 445.898 101.086 445.976 101.485 445.976C102.057 445.976 102.507 445.837 102.837 445.56C103.183 445.3 103.495 444.858 103.773 444.234L104.501 442.518L104.813 442.076L109.831 430.012H113.731L107.413 444.858C106.962 445.985 106.442 446.869 105.853 447.51C105.281 448.151 104.639 448.602 103.929 448.862C103.235 449.122 102.464 449.252 101.615 449.252ZM104.007 444.546L97.7666 430.012H101.953L106.789 441.712L104.007 444.546ZM133.3 429.804C134.409 429.804 135.388 430.029 136.238 430.48C137.104 430.913 137.78 431.589 138.266 432.508C138.768 433.409 139.02 434.571 139.02 435.992V444H134.964V436.616C134.964 435.489 134.73 434.657 134.262 434.12C133.794 433.583 133.135 433.314 132.286 433.314C131.696 433.314 131.168 433.453 130.7 433.73C130.232 433.99 129.868 434.389 129.608 434.926C129.348 435.463 129.218 436.148 129.218 436.98V444H125.162V436.616C125.162 435.489 124.928 434.657 124.46 434.12C124.009 433.583 123.359 433.314 122.51 433.314C121.92 433.314 121.392 433.453 120.924 433.73C120.456 433.99 120.092 434.389 119.832 434.926C119.572 435.463 119.442 436.148 119.442 436.98V444H115.386V430.012H119.26V433.834L118.532 432.716C119.017 431.763 119.702 431.043 120.586 430.558C121.487 430.055 122.51 429.804 123.654 429.804C124.936 429.804 126.054 430.133 127.008 430.792C127.978 431.433 128.62 432.421 128.932 433.756L127.502 433.366C127.97 432.274 128.715 431.407 129.738 430.766C130.778 430.125 131.965 429.804 133.3 429.804ZM149.699 444.208C148.104 444.208 146.7 443.896 145.487 443.272C144.291 442.648 143.363 441.799 142.705 440.724C142.046 439.632 141.717 438.393 141.717 437.006C141.717 435.602 142.037 434.363 142.679 433.288C143.337 432.196 144.23 431.347 145.357 430.74C146.483 430.116 147.757 429.804 149.179 429.804C150.548 429.804 151.779 430.099 152.871 430.688C153.98 431.26 154.855 432.092 155.497 433.184C156.138 434.259 156.459 435.55 156.459 437.058C156.459 437.214 156.45 437.396 156.433 437.604C156.415 437.795 156.398 437.977 156.381 438.15H145.019V435.784H154.249L152.689 436.486C152.689 435.758 152.541 435.125 152.247 434.588C151.952 434.051 151.545 433.635 151.025 433.34C150.505 433.028 149.898 432.872 149.205 432.872C148.511 432.872 147.896 433.028 147.359 433.34C146.839 433.635 146.431 434.059 146.137 434.614C145.842 435.151 145.695 435.793 145.695 436.538V437.162C145.695 437.925 145.859 438.601 146.189 439.19C146.535 439.762 147.012 440.204 147.619 440.516C148.243 440.811 148.971 440.958 149.803 440.958C150.548 440.958 151.198 440.845 151.753 440.62C152.325 440.395 152.845 440.057 153.313 439.606L155.471 441.946C154.829 442.674 154.023 443.237 153.053 443.636C152.082 444.017 150.964 444.208 149.699 444.208ZM167.661 429.804C168.77 429.804 169.758 430.029 170.625 430.48C171.509 430.913 172.202 431.589 172.705 432.508C173.208 433.409 173.459 434.571 173.459 435.992V444H169.403V436.616C169.403 435.489 169.152 434.657 168.649 434.12C168.164 433.583 167.47 433.314 166.569 433.314C165.928 433.314 165.347 433.453 164.827 433.73C164.324 433.99 163.926 434.397 163.631 434.952C163.354 435.507 163.215 436.217 163.215 437.084V444H159.159V430.012H163.033V433.886L162.305 432.716C162.808 431.78 163.527 431.061 164.463 430.558C165.399 430.055 166.465 429.804 167.661 429.804ZM182.856 444.208C181.209 444.208 179.926 443.792 179.008 442.96C178.089 442.111 177.63 440.854 177.63 439.19V426.918H181.686V439.138C181.686 439.727 181.842 440.187 182.154 440.516C182.466 440.828 182.89 440.984 183.428 440.984C184.069 440.984 184.615 440.811 185.066 440.464L186.158 443.324C185.742 443.619 185.239 443.844 184.65 444C184.078 444.139 183.48 444.208 182.856 444.208ZM175.472 433.444V430.324H185.17V433.444H175.472ZM193.141 444.208C191.945 444.208 190.792 444.069 189.683 443.792C188.591 443.497 187.724 443.133 187.083 442.7L188.435 439.788C189.076 440.187 189.83 440.516 190.697 440.776C191.581 441.019 192.447 441.14 193.297 441.14C194.233 441.14 194.891 441.027 195.273 440.802C195.671 440.577 195.871 440.265 195.871 439.866C195.871 439.537 195.715 439.294 195.403 439.138C195.108 438.965 194.709 438.835 194.206 438.748C193.704 438.661 193.149 438.575 192.543 438.488C191.953 438.401 191.355 438.289 190.749 438.15C190.142 437.994 189.587 437.769 189.085 437.474C188.582 437.179 188.175 436.781 187.863 436.278C187.568 435.775 187.42 435.125 187.42 434.328C187.42 433.444 187.672 432.664 188.175 431.988C188.695 431.312 189.44 430.783 190.411 430.402C191.381 430.003 192.543 429.804 193.895 429.804C194.848 429.804 195.819 429.908 196.807 430.116C197.795 430.324 198.618 430.627 199.277 431.026L197.925 433.912C197.249 433.513 196.564 433.245 195.871 433.106C195.195 432.95 194.536 432.872 193.895 432.872C192.993 432.872 192.335 432.993 191.919 433.236C191.503 433.479 191.295 433.791 191.295 434.172C191.295 434.519 191.442 434.779 191.737 434.952C192.049 435.125 192.456 435.264 192.959 435.368C193.461 435.472 194.007 435.567 194.597 435.654C195.203 435.723 195.81 435.836 196.417 435.992C197.023 436.148 197.569 436.373 198.055 436.668C198.557 436.945 198.965 437.335 199.277 437.838C199.589 438.323 199.745 438.965 199.745 439.762C199.745 440.629 199.485 441.4 198.965 442.076C198.445 442.735 197.691 443.255 196.703 443.636C195.732 444.017 194.545 444.208 193.141 444.208ZM212.808 444L207.764 430.012H211.586L215.772 442.05H213.952L218.32 430.012H221.752L225.99 442.05H224.17L228.486 430.012H232.074L227.004 444H223.078L219.36 433.678H220.556L216.708 444H212.808ZM233.96 444V430.012H238.016V444H233.96ZM235.988 428.062C235.243 428.062 234.636 427.845 234.168 427.412C233.7 426.979 233.466 426.441 233.466 425.8C233.466 425.159 233.7 424.621 234.168 424.188C234.636 423.755 235.243 423.538 235.988 423.538C236.733 423.538 237.34 423.746 237.808 424.162C238.276 424.561 238.51 425.081 238.51 425.722C238.51 426.398 238.276 426.961 237.808 427.412C237.357 427.845 236.751 428.062 235.988 428.062ZM247.5 444.208C245.854 444.208 244.571 443.792 243.652 442.96C242.734 442.111 242.274 440.854 242.274 439.19V426.918H246.33V439.138C246.33 439.727 246.486 440.187 246.798 440.516C247.11 440.828 247.535 440.984 248.072 440.984C248.714 440.984 249.26 440.811 249.71 440.464L250.802 443.324C250.386 443.619 249.884 443.844 249.294 444C248.722 444.139 248.124 444.208 247.5 444.208ZM240.116 433.444V430.324H249.814V433.444H240.116ZM261.581 429.804C262.69 429.804 263.678 430.029 264.545 430.48C265.429 430.913 266.122 431.589 266.625 432.508C267.128 433.409 267.379 434.571 267.379 435.992V444H263.323V436.616C263.323 435.489 263.072 434.657 262.569 434.12C262.084 433.583 261.39 433.314 260.489 433.314C259.848 433.314 259.267 433.453 258.747 433.73C258.244 433.99 257.846 434.397 257.551 434.952C257.274 435.507 257.135 436.217 257.135 437.084V444H253.079V424.708H257.135V433.886L256.225 432.716C256.728 431.78 257.447 431.061 258.383 430.558C259.319 430.055 260.385 429.804 261.581 429.804ZM277.379 449.252C276.755 449.252 276.157 449.183 275.585 449.044C275.013 448.923 274.528 448.732 274.129 448.472L275.221 445.534C275.689 445.863 276.261 446.028 276.937 446.028C277.44 446.028 277.838 445.855 278.133 445.508C278.445 445.179 278.601 444.676 278.601 444V430.012H282.657V443.974C282.657 445.586 282.198 446.869 281.279 447.822C280.36 448.775 279.06 449.252 277.379 449.252ZM280.629 428.062C279.884 428.062 279.277 427.845 278.809 427.412C278.341 426.979 278.107 426.441 278.107 425.8C278.107 425.159 278.341 424.621 278.809 424.188C279.277 423.755 279.884 423.538 280.629 423.538C281.374 423.538 281.981 423.746 282.449 424.162C282.917 424.561 283.151 425.081 283.151 425.722C283.151 426.398 282.917 426.961 282.449 427.412C281.998 427.845 281.392 428.062 280.629 428.062ZM292.294 444.208C291.132 444.208 290.092 443.983 289.174 443.532C288.272 443.081 287.57 442.397 287.068 441.478C286.565 440.542 286.314 439.355 286.314 437.916V430.012H290.37V437.318C290.37 438.479 290.612 439.337 291.098 439.892C291.6 440.429 292.302 440.698 293.204 440.698C293.828 440.698 294.382 440.568 294.868 440.308C295.353 440.031 295.734 439.615 296.012 439.06C296.289 438.488 296.428 437.777 296.428 436.928V430.012H300.484V444H296.636V440.152L297.338 441.27C296.87 442.241 296.176 442.977 295.258 443.48C294.356 443.965 293.368 444.208 292.294 444.208ZM308.947 444.208C307.751 444.208 306.598 444.069 305.489 443.792C304.397 443.497 303.53 443.133 302.889 442.7L304.241 439.788C304.882 440.187 305.636 440.516 306.503 440.776C307.387 441.019 308.254 441.14 309.103 441.14C310.039 441.14 310.698 441.027 311.079 440.802C311.478 440.577 311.677 440.265 311.677 439.866C311.677 439.537 311.521 439.294 311.209 439.138C310.914 438.965 310.516 438.835 310.013 438.748C309.51 438.661 308.956 438.575 308.349 438.488C307.76 438.401 307.162 438.289 306.555 438.15C305.948 437.994 305.394 437.769 304.891 437.474C304.388 437.179 303.981 436.781 303.669 436.278C303.374 435.775 303.227 435.125 303.227 434.328C303.227 433.444 303.478 432.664 303.981 431.988C304.501 431.312 305.246 430.783 306.217 430.402C307.188 430.003 308.349 429.804 309.701 429.804C310.654 429.804 311.625 429.908 312.613 430.116C313.601 430.324 314.424 430.627 315.083 431.026L313.731 433.912C313.055 433.513 312.37 433.245 311.677 433.106C311.001 432.95 310.342 432.872 309.701 432.872C308.8 432.872 308.141 432.993 307.725 433.236C307.309 433.479 307.101 433.791 307.101 434.172C307.101 434.519 307.248 434.779 307.543 434.952C307.855 435.125 308.262 435.264 308.765 435.368C309.268 435.472 309.814 435.567 310.403 435.654C311.01 435.723 311.616 435.836 312.223 435.992C312.83 436.148 313.376 436.373 313.861 436.668C314.364 436.945 314.771 437.335 315.083 437.838C315.395 438.323 315.551 438.965 315.551 439.762C315.551 440.629 315.291 441.4 314.771 442.076C314.251 442.735 313.497 443.255 312.509 443.636C311.538 444.017 310.351 444.208 308.947 444.208ZM323.774 444.208C322.127 444.208 320.844 443.792 319.926 442.96C319.007 442.111 318.548 440.854 318.548 439.19V426.918H322.604V439.138C322.604 439.727 322.76 440.187 323.072 440.516C323.384 440.828 323.808 440.984 324.346 440.984C324.987 440.984 325.533 440.811 325.984 440.464L327.076 443.324C326.66 443.619 326.157 443.844 325.568 444C324.996 444.139 324.398 444.208 323.774 444.208ZM316.39 433.444V430.324H326.088V433.444H316.39ZM126.848 476V473.27L126.588 472.672V467.784C126.588 466.917 126.319 466.241 125.782 465.756C125.262 465.271 124.456 465.028 123.364 465.028C122.618 465.028 121.882 465.149 121.154 465.392C120.443 465.617 119.836 465.929 119.334 466.328L117.878 463.494C118.64 462.957 119.559 462.541 120.634 462.246C121.708 461.951 122.8 461.804 123.91 461.804C126.042 461.804 127.697 462.307 128.876 463.312C130.054 464.317 130.644 465.886 130.644 468.018V476H126.848ZM122.584 476.208C121.492 476.208 120.556 476.026 119.776 475.662C118.996 475.281 118.398 474.769 117.982 474.128C117.566 473.487 117.358 472.767 117.358 471.97C117.358 471.138 117.557 470.41 117.956 469.786C118.372 469.162 119.022 468.677 119.906 468.33C120.79 467.966 121.942 467.784 123.364 467.784H127.082V470.15H123.806C122.852 470.15 122.194 470.306 121.83 470.618C121.483 470.93 121.31 471.32 121.31 471.788C121.31 472.308 121.509 472.724 121.908 473.036C122.324 473.331 122.887 473.478 123.598 473.478C124.274 473.478 124.88 473.322 125.418 473.01C125.955 472.681 126.345 472.204 126.588 471.58L127.212 473.452C126.917 474.353 126.38 475.038 125.6 475.506C124.82 475.974 123.814 476.208 122.584 476.208Z" fill="black"/>
<path d="M146.384 476.208C145.188 476.208 144.035 476.069 142.926 475.792C141.834 475.497 140.967 475.133 140.326 474.7L141.678 471.788C142.319 472.187 143.073 472.516 143.94 472.776C144.824 473.019 145.69 473.14 146.54 473.14C147.476 473.14 148.134 473.027 148.516 472.802C148.914 472.577 149.114 472.265 149.114 471.866C149.114 471.537 148.958 471.294 148.646 471.138C148.351 470.965 147.952 470.835 147.45 470.748C146.947 470.661 146.392 470.575 145.786 470.488C145.196 470.401 144.598 470.289 143.992 470.15C143.385 469.994 142.83 469.769 142.328 469.474C141.825 469.179 141.418 468.781 141.106 468.278C140.811 467.775 140.664 467.125 140.664 466.328C140.664 465.444 140.915 464.664 141.418 463.988C141.938 463.312 142.683 462.783 143.654 462.402C144.624 462.003 145.786 461.804 147.138 461.804C148.091 461.804 149.062 461.908 150.05 462.116C151.038 462.324 151.861 462.627 152.52 463.026L151.168 465.912C150.492 465.513 149.807 465.245 149.114 465.106C148.438 464.95 147.779 464.872 147.138 464.872C146.236 464.872 145.578 464.993 145.162 465.236C144.746 465.479 144.538 465.791 144.538 466.172C144.538 466.519 144.685 466.779 144.98 466.952C145.292 467.125 145.699 467.264 146.202 467.368C146.704 467.472 147.25 467.567 147.84 467.654C148.446 467.723 149.053 467.836 149.66 467.992C150.266 468.148 150.812 468.373 151.298 468.668C151.8 468.945 152.208 469.335 152.52 469.838C152.832 470.323 152.988 470.965 152.988 471.762C152.988 472.629 152.728 473.4 152.208 474.076C151.688 474.735 150.934 475.255 149.946 475.636C148.975 476.017 147.788 476.208 146.384 476.208ZM155.49 476V462.012H159.546V476H155.49ZM157.518 460.062C156.773 460.062 156.166 459.845 155.698 459.412C155.23 458.979 154.996 458.441 154.996 457.8C154.996 457.159 155.23 456.621 155.698 456.188C156.166 455.755 156.773 455.538 157.518 455.538C158.263 455.538 158.87 455.746 159.338 456.162C159.806 456.561 160.04 457.081 160.04 457.722C160.04 458.398 159.806 458.961 159.338 459.412C158.887 459.845 158.281 460.062 157.518 460.062ZM171.812 461.804C172.922 461.804 173.91 462.029 174.776 462.48C175.66 462.913 176.354 463.589 176.856 464.508C177.359 465.409 177.61 466.571 177.61 467.992V476H173.554V468.616C173.554 467.489 173.303 466.657 172.8 466.12C172.315 465.583 171.622 465.314 170.72 465.314C170.079 465.314 169.498 465.453 168.978 465.73C168.476 465.99 168.077 466.397 167.782 466.952C167.505 467.507 167.366 468.217 167.366 469.084V476H163.31V462.012H167.184V465.886L166.456 464.716C166.959 463.78 167.678 463.061 168.614 462.558C169.55 462.055 170.616 461.804 171.812 461.804ZM187.967 481.252C186.649 481.252 185.375 481.087 184.145 480.758C182.931 480.446 181.917 479.969 181.103 479.328L182.715 476.416C183.304 476.901 184.049 477.283 184.951 477.56C185.869 477.855 186.771 478.002 187.655 478.002C189.093 478.002 190.133 477.681 190.775 477.04C191.433 476.399 191.763 475.445 191.763 474.18V472.074L192.023 468.564L191.971 465.028V462.012H195.819V473.66C195.819 476.26 195.143 478.175 193.791 479.406C192.439 480.637 190.497 481.252 187.967 481.252ZM187.343 475.324C186.043 475.324 184.864 475.047 183.807 474.492C182.767 473.92 181.926 473.131 181.285 472.126C180.661 471.103 180.349 469.916 180.349 468.564C180.349 467.195 180.661 466.007 181.285 465.002C181.926 463.979 182.767 463.191 183.807 462.636C184.864 462.081 186.043 461.804 187.343 461.804C188.521 461.804 189.561 462.047 190.463 462.532C191.364 463 192.066 463.737 192.569 464.742C193.071 465.73 193.323 467.004 193.323 468.564C193.323 470.107 193.071 471.381 192.569 472.386C192.066 473.374 191.364 474.111 190.463 474.596C189.561 475.081 188.521 475.324 187.343 475.324ZM188.149 471.996C188.859 471.996 189.492 471.857 190.047 471.58C190.601 471.285 191.035 470.878 191.347 470.358C191.659 469.838 191.815 469.24 191.815 468.564C191.815 467.871 191.659 467.273 191.347 466.77C191.035 466.25 190.601 465.851 190.047 465.574C189.492 465.279 188.859 465.132 188.149 465.132C187.438 465.132 186.805 465.279 186.251 465.574C185.696 465.851 185.254 466.25 184.925 466.77C184.613 467.273 184.457 467.871 184.457 468.564C184.457 469.24 184.613 469.838 184.925 470.358C185.254 470.878 185.696 471.285 186.251 471.58C186.805 471.857 187.438 471.996 188.149 471.996ZM199.594 476V456.708H203.65V476H199.594ZM214.356 476.208C212.761 476.208 211.357 475.896 210.144 475.272C208.948 474.648 208.021 473.799 207.362 472.724C206.703 471.632 206.374 470.393 206.374 469.006C206.374 467.602 206.695 466.363 207.336 465.288C207.995 464.196 208.887 463.347 210.014 462.74C211.141 462.116 212.415 461.804 213.836 461.804C215.205 461.804 216.436 462.099 217.528 462.688C218.637 463.26 219.513 464.092 220.154 465.184C220.795 466.259 221.116 467.55 221.116 469.058C221.116 469.214 221.107 469.396 221.09 469.604C221.073 469.795 221.055 469.977 221.038 470.15H209.676V467.784H218.906L217.346 468.486C217.346 467.758 217.199 467.125 216.904 466.588C216.609 466.051 216.202 465.635 215.682 465.34C215.162 465.028 214.555 464.872 213.862 464.872C213.169 464.872 212.553 465.028 212.016 465.34C211.496 465.635 211.089 466.059 210.794 466.614C210.499 467.151 210.352 467.793 210.352 468.538V469.162C210.352 469.925 210.517 470.601 210.846 471.19C211.193 471.762 211.669 472.204 212.276 472.516C212.9 472.811 213.628 472.958 214.46 472.958C215.205 472.958 215.855 472.845 216.41 472.62C216.982 472.395 217.502 472.057 217.97 471.606L220.128 473.946C219.487 474.674 218.681 475.237 217.71 475.636C216.739 476.017 215.621 476.208 214.356 476.208ZM236.9 476.208C235.253 476.208 233.97 475.792 233.052 474.96C232.133 474.111 231.674 472.854 231.674 471.19V458.918H235.73V471.138C235.73 471.727 235.886 472.187 236.198 472.516C236.51 472.828 236.934 472.984 237.472 472.984C238.113 472.984 238.659 472.811 239.11 472.464L240.202 475.324C239.786 475.619 239.283 475.844 238.694 476C238.122 476.139 237.524 476.208 236.9 476.208ZM229.516 465.444V462.324H239.214V465.444H229.516ZM251.058 476V473.27L250.798 472.672V467.784C250.798 466.917 250.53 466.241 249.992 465.756C249.472 465.271 248.666 465.028 247.574 465.028C246.829 465.028 246.092 465.149 245.364 465.392C244.654 465.617 244.047 465.929 243.544 466.328L242.088 463.494C242.851 462.957 243.77 462.541 244.844 462.246C245.919 461.951 247.011 461.804 248.12 461.804C250.252 461.804 251.908 462.307 253.086 463.312C254.265 464.317 254.854 465.886 254.854 468.018V476H251.058ZM246.794 476.208C245.702 476.208 244.766 476.026 243.986 475.662C243.206 475.281 242.608 474.769 242.192 474.128C241.776 473.487 241.568 472.767 241.568 471.97C241.568 471.138 241.768 470.41 242.166 469.786C242.582 469.162 243.232 468.677 244.116 468.33C245 467.966 246.153 467.784 247.574 467.784H251.292V470.15H248.016C247.063 470.15 246.404 470.306 246.04 470.618C245.694 470.93 245.52 471.32 245.52 471.788C245.52 472.308 245.72 472.724 246.118 473.036C246.534 473.331 247.098 473.478 247.808 473.478C248.484 473.478 249.091 473.322 249.628 473.01C250.166 472.681 250.556 472.204 250.798 471.58L251.422 473.452C251.128 474.353 250.59 475.038 249.81 475.506C249.03 475.974 248.025 476.208 246.794 476.208ZM266.793 476.208C265.615 476.208 264.583 475.948 263.699 475.428C262.815 474.908 262.122 474.119 261.619 473.062C261.134 471.987 260.891 470.635 260.891 469.006C260.891 467.359 261.125 466.007 261.593 464.95C262.061 463.893 262.737 463.104 263.621 462.584C264.505 462.064 265.563 461.804 266.793 461.804C268.111 461.804 269.289 462.107 270.329 462.714C271.387 463.303 272.219 464.135 272.825 465.21C273.449 466.285 273.761 467.55 273.761 469.006C273.761 470.479 273.449 471.753 272.825 472.828C272.219 473.903 271.387 474.735 270.329 475.324C269.289 475.913 268.111 476.208 266.793 476.208ZM258.525 481.044V462.012H262.399V464.872L262.321 469.032L262.581 473.166V481.044H258.525ZM266.091 472.88C266.767 472.88 267.365 472.724 267.885 472.412C268.423 472.1 268.847 471.658 269.159 471.086C269.489 470.497 269.653 469.803 269.653 469.006C269.653 468.191 269.489 467.498 269.159 466.926C268.847 466.354 268.423 465.912 267.885 465.6C267.365 465.288 266.767 465.132 266.091 465.132C265.415 465.132 264.809 465.288 264.271 465.6C263.734 465.912 263.309 466.354 262.997 466.926C262.685 467.498 262.529 468.191 262.529 469.006C262.529 469.803 262.685 470.497 262.997 471.086C263.309 471.658 263.734 472.1 264.271 472.412C264.809 472.724 265.415 472.88 266.091 472.88Z" fill="white"/>
<path d="M256.477 9.82635V270.509C256.477 275.935 252.079 280.336 246.649 280.336H109.828C107.226 280.336 104.864 279.329 103.108 277.672C102.851 277.437 102.608 277.184 102.381 276.916C100.896 275.196 100 272.956 100 270.509V9.82635C100 4.40073 104.401 0 109.828 0H246.649C249.151 0 251.436 0.936714 253.17 2.47587H253.174C253.993 3.20688 254.691 4.07014 255.231 5.03624C256.025 6.45417 256.477 8.08515 256.477 9.82635Z" fill="#1EDBA2"/>
<path d="M153.577 5.45898H156.741C158.291 5.45898 159.544 6.71529 159.544 8.26179V15.4139C159.544 17.7722 161.454 19.6824 163.813 19.6824H196.771C199.13 19.6824 201.04 17.7722 201.04 15.4139V8.40138V8.26179C201.04 6.71162 202.296 5.45898 203.843 5.45898H207.006H243.337C248.763 5.45898 253.165 9.85972 253.165 15.2853V266.708C253.165 272.133 248.763 276.534 243.337 276.534H112.14C106.714 276.534 102.312 272.133 102.312 266.708V15.2853C102.312 9.85972 106.714 5.45898 112.14 5.45898H156.741" fill="#F6F5D8"/>
<path d="M187.343 11.7422H164.349C163.435 11.7422 162.695 12.4823 162.695 13.3952C162.695 14.3082 163.435 15.0482 164.349 15.0482H187.343C188.256 15.0482 188.996 14.3082 188.996 13.3952C188.996 12.4823 188.256 11.7422 187.343 11.7422Z" fill="white" stroke="black" stroke-width="0.87" stroke-miterlimit="10"/>
<path d="M194.953 15.0493C196.048 15.0493 196.937 14.1612 196.937 13.0657C196.937 11.9701 196.048 11.082 194.953 11.082C193.857 11.082 192.969 11.9701 192.969 13.0657C192.969 14.1612 193.857 15.0493 194.953 15.0493Z" fill="white" stroke="black" stroke-width="0.87" stroke-miterlimit="10"/>
<path d="M123.787 60.7745L125.444 62.7104C125.818 63.1475 126.483 63.1916 126.913 62.8059L133.442 56.9432C133.875 56.5538 134.547 56.6015 134.919 57.0497L135.26 57.4611C135.613 57.8835 135.569 58.508 135.165 58.879L126.722 66.6189C126.303 67.0009 125.653 66.9752 125.267 66.5564L121.645 62.6039C121.237 62.1594 121.3 61.4614 121.777 61.0941L122.38 60.6312C122.813 60.3006 123.43 60.3631 123.787 60.7782V60.7745Z" fill="#0DA08B" stroke="black" stroke-miterlimit="10"/>
<path d="M123.787 187.632L125.444 189.568C125.818 190.005 126.483 190.049 126.913 189.663L133.442 183.801C133.875 183.411 134.547 183.459 134.919 183.907L135.26 184.319C135.613 184.741 135.569 185.365 135.165 185.736L126.722 193.476C126.303 193.858 125.653 193.833 125.267 193.414L121.645 189.461C121.237 189.017 121.3 188.319 121.777 187.952L122.38 187.489C122.813 187.158 123.43 187.221 123.787 187.636V187.632Z" fill="#0DA08B" stroke="black" stroke-miterlimit="10"/>
<path d="M229.601 54.084H158.972C156.916 54.084 155.25 55.75 155.25 57.8051C155.25 59.8603 156.916 61.5263 158.972 61.5263H229.601C231.657 61.5263 233.323 59.8603 233.323 57.8051C233.323 55.75 231.657 54.084 229.601 54.084Z" fill="#BFCDFF"/>
<path d="M205.703 179.943H157.565C156.286 179.943 155.25 180.979 155.25 182.258V182.261C155.25 183.539 156.286 184.576 157.565 184.576H205.703C206.981 184.576 208.018 183.539 208.018 182.261V182.258C208.018 180.979 206.981 179.943 205.703 179.943Z" fill="#BFCDFF"/>
<path d="M187.411 188.293H157.635C156.357 188.293 155.32 189.329 155.32 190.607V190.611C155.32 191.889 156.357 192.925 157.635 192.925H187.411C188.69 192.925 189.726 191.889 189.726 190.611V190.607C189.726 189.329 188.69 188.293 187.411 188.293Z" fill="#BFCDFF"/>
<path d="M198.674 196.734H156.986C155.708 196.734 154.672 197.77 154.672 199.049V199.052C154.672 200.33 155.708 201.367 156.986 201.367H198.674C199.952 201.367 200.988 200.33 200.988 199.052V199.049C200.988 197.77 199.952 196.734 198.674 196.734Z" fill="#BFCDFF"/>
<path d="M215.909 218.809H122.865C121.792 218.809 120.922 219.679 120.922 220.752C120.922 221.825 121.792 222.695 122.865 222.695H215.909C216.983 222.695 217.853 221.825 217.853 220.752C217.853 219.679 216.983 218.809 215.909 218.809Z" fill="#BFCDFF"/>
<path d="M178.774 228.57H122.865C121.792 228.57 120.922 229.44 120.922 230.514C120.922 231.587 121.792 232.457 122.865 232.457H178.774C179.847 232.457 180.717 231.587 180.717 230.514C180.717 229.44 179.847 228.57 178.774 228.57Z" fill="#BFCDFF"/>
<path d="M205.123 64.9961H158.972C156.916 64.9961 155.25 66.6621 155.25 68.7173C155.25 70.7724 156.916 72.4384 158.972 72.4384H205.123C207.178 72.4384 208.844 70.7724 208.844 68.7173C208.844 66.6621 207.178 64.9961 205.123 64.9961Z" fill="#BFCDFF"/>
<path d="M262.675 18.8802V273.296C262.675 281.018 256.411 287.281 248.689 287.281H116.948C113.991 287.281 111.158 286.072 109.108 283.938L103.102 277.671C104.858 279.328 107.22 280.334 109.821 280.334H246.643C252.073 280.334 256.47 275.934 256.47 270.508V9.82526C256.47 8.08407 256.018 6.45309 255.225 5.03516L259.81 10.7399C261.661 13.0468 262.675 15.9194 262.675 18.8802Z" fill="#0C8863"/>
<path d="M230.204 96.1738H123.633C120.768 96.1738 118.445 98.4961 118.445 101.361V164.418C118.445 167.283 120.768 169.605 123.633 169.605H230.204C233.069 169.605 235.391 167.283 235.391 164.418V101.361C235.391 98.4961 233.069 96.1738 230.204 96.1738Z" fill="#1EDBA2"/>
<path d="M297.363 247.92C296.738 253.763 294.216 261.246 285.924 266.702C277.634 272.16 269.447 272.054 266.929 271.949C266.549 271.933 266.188 271.76 265.836 271.452C268.692 264.698 276.537 251.607 296.055 244.652C297.039 245.303 297.583 245.877 297.363 247.92Z" fill="#DD7272" stroke="black" stroke-width="0.45" stroke-miterlimit="10"/>
<path d="M296.049 244.653C276.531 251.608 268.686 264.7 265.83 271.453C263.854 269.713 262.272 263.662 260.311 257.154C258.657 251.666 252.044 242.136 248.431 237.173C246.518 236.608 244.947 235.909 244.148 235.642C242.261 235.012 236.278 231.55 230.926 232.391C225.573 233.229 219.067 231.027 214.238 231.131C212.095 231.177 210.657 231.863 209.499 232.75C209.566 232.127 209.492 231.485 209.251 230.911C209.1 230.559 208.848 230.235 208.496 230.084C208.016 229.881 207.463 230.029 206.977 230.221C204.57 231.166 202.923 233.072 201.32 235.003C201.161 234.556 201.056 234.031 201.015 233.44C200.806 230.397 202.801 227.773 207.417 223.996C212.035 220.216 218.069 220.059 223.84 217.961C229.615 215.863 227.829 211.036 227.474 206.747C227.12 202.458 220.693 181.444 219.959 178.297C219.224 175.147 210.933 148.283 216.6 147.13C216.739 147.102 216.876 147.077 217.008 147.061C217.179 149.145 217.452 151.231 217.99 153.249C218.342 154.573 219.597 155.4 220.913 155.555C221.761 155.657 222.509 155.435 223.25 155.104C223.884 157.67 224.561 160.803 225.52 164.443C226.504 168.181 228.318 172.607 230.346 176.926C231.375 176.905 232.936 176.942 234.18 177.299C236.382 177.929 237.432 179.189 238.902 180.131C239.511 180.522 241.487 182.192 243.595 184.012H244.463C248.459 183.904 251.528 184.73 253.656 185.641C254.71 184.767 256.836 183.885 260.521 185.694C266.293 188.526 272.38 206.787 273.848 209.515C275.319 212.243 277.103 223.366 279.935 229.033C282.77 234.698 292.635 242.15 294.525 243.618C295.099 244.065 295.616 244.366 296.049 244.653Z" fill="#FF9F9F" stroke="black" stroke-width="0.45" stroke-miterlimit="10"/>
<path d="M209.499 232.75C208.044 233.864 207.034 235.293 205.633 236.168C203.602 237.435 201.983 236.865 201.32 235.003C202.923 233.072 204.57 231.166 206.976 230.221C207.463 230.029 208.016 229.88 208.496 230.084C208.848 230.235 209.1 230.559 209.251 230.911C209.492 231.485 209.566 232.127 209.499 232.75Z" fill="white" stroke="black" stroke-width="0.45" stroke-miterlimit="10"/>
<path d="M223.258 155.103C222.516 155.434 221.768 155.657 220.921 155.555C219.605 155.4 218.35 154.573 217.998 153.248C217.46 151.231 217.187 149.145 217.016 147.06C220.64 146.537 221.852 149.439 223.258 155.103Z" fill="white" stroke="black" stroke-width="0.45" stroke-miterlimit="10"/>
<path d="M230.344 176.926C234.809 186.423 240.315 195.399 240.315 195.399" stroke="black" stroke-width="0.45" stroke-miterlimit="10"/>
<path d="M257.259 187.792C257.259 187.792 256.05 186.664 253.648 185.641" stroke="black" stroke-width="0.45" stroke-miterlimit="10"/>
<path d="M243.586 184.012C246.565 186.589 249.807 189.47 249.807 189.47" stroke="black" stroke-width="0.45" stroke-miterlimit="10"/>
<path d="M133.053 53.1699H123.04C120.334 53.1699 118.141 55.3625 118.141 58.0671V68.0765C118.141 70.7811 120.334 72.9737 123.04 72.9737H133.053C135.759 72.9737 137.952 70.7811 137.952 68.0765V58.0671C137.952 55.3625 135.759 53.1699 133.053 53.1699Z" fill="black" stroke="black" stroke-miterlimit="10"/>
<path d="M133.053 179.668H123.04C120.334 179.668 118.141 181.861 118.141 184.565V194.575C118.141 197.279 120.334 199.472 123.04 199.472H133.053C135.759 199.472 137.952 197.279 137.952 194.575V184.565C137.952 181.861 135.759 179.668 133.053 179.668Z" fill="black" stroke="black" stroke-miterlimit="10"/>
<path d="M132.688 52.5469H122.155C119.593 52.5469 117.516 54.6231 117.516 57.1842V67.7134C117.516 70.2745 119.593 72.3507 122.155 72.3507H132.688C135.25 72.3507 137.327 70.2745 137.327 67.7134V57.1842C137.327 54.6231 135.25 52.5469 132.688 52.5469Z" fill="#F6F5D8" stroke="black" stroke-width="0.5" stroke-miterlimit="10"/>
<path d="M132.688 179.045H122.155C119.593 179.045 117.516 181.121 117.516 183.682V194.211C117.516 196.773 119.593 198.849 122.155 198.849H132.688C135.25 198.849 137.327 196.773 137.327 194.211V183.682C137.327 181.121 135.25 179.045 132.688 179.045Z" fill="#F6F5D8" stroke="black" stroke-width="0.5" stroke-miterlimit="10"/>
<path d="M123.425 61.0377L124.988 62.8607C125.342 63.2732 125.966 63.3148 126.372 62.9509L132.529 57.4263C132.939 57.0589 133.57 57.104 133.923 57.5268L134.246 57.915C134.579 58.3136 134.537 58.8993 134.156 59.2493L126.191 66.5449C125.796 66.9054 125.182 66.8811 124.822 66.486L121.403 62.7568C121.018 62.3374 121.077 61.6789 121.528 61.3323L122.097 60.8991C122.506 60.5872 123.088 60.6461 123.425 61.0377Z" fill="#0DA08B" stroke="black" stroke-width="0.5" stroke-miterlimit="10"/>
<path d="M123.425 187.536L124.988 189.359C125.342 189.771 125.966 189.813 126.372 189.449L132.529 183.924C132.939 183.557 133.57 183.602 133.923 184.025L134.246 184.413C134.579 184.812 134.537 185.397 134.156 185.747L126.191 193.043C125.796 193.403 125.182 193.379 124.822 192.984L121.403 189.255C121.018 188.835 121.077 188.177 121.528 187.83L122.097 187.397C122.506 187.085 123.088 187.144 123.425 187.536Z" fill="#0DA08B" stroke="black" stroke-width="0.5" stroke-miterlimit="10"/>
<defs>
<filter id="filter0_d_3257_4568" x="0" y="66" width="398" height="503" filterUnits="userSpaceOnUse" color-interpolation-filters="sRGB">
<feFlood flood-opacity="0" result="BackgroundImageFix"/>
<feColorMatrix in="SourceAlpha" type="matrix" values="0 0 0 0 0 0 0 0 0 0 0 0 0 0 0 0 0 0 127 0" result="hardAlpha"/>
<feOffset dx="4" dy="4"/>
<feComposite in2="hardAlpha" operator="out"/>
<feColorMatrix type="matrix" values="0 0 0 0 0.0488889 0 0 0 0 0.533333 0 0 0 0 0.387231 0 0 0 1 0"/>
<feBlend mode="normal" in2="BackgroundImageFix" result="effect1_dropShadow_3257_4568"/>
<feBlend mode="normal" in="SourceGraphic" in2="effect1_dropShadow_3257_4568" result="shape"/>
</filter>
<filter id="filter1_d_3257_4568" x="34" y="72" width="306" height="306" filterUnits="userSpaceOnUse" color-interpolation-filters="sRGB">
<feFlood flood-opacity="0" result="BackgroundImageFix"/>
<feColorMatrix in="SourceAlpha" type="matrix" values="0 0 0 0 0 0 0 0 0 0 0 0 0 0 0 0 0 0 127 0" result="hardAlpha"/>
<feOffset dx="4" dy="4"/>
<feComposite in2="hardAlpha" operator="out"/>
<feColorMatrix type="matrix" values="0 0 0 0 0.0470588 0 0 0 0 0.533333 0 0 0 0 0.388235 0 0 0 1 0"/>
<feBlend mode="normal" in2="BackgroundImageFix" result="effect1_dropShadow_3257_4568"/>
<feBlend mode="normal" in="SourceGraphic" in2="effect1_dropShadow_3257_4568" result="shape"/>
</filter>
</defs>
</svg>
