<svg width="315" height="177" viewBox="0 0 315 177" fill="none" xmlns="http://www.w3.org/2000/svg">
<g filter="url(#filter0_d_3305_4863)">
<rect width="312" height="174" rx="6" fill="#17171D"/>
<rect x="0.5" y="0.5" width="311" height="173" rx="5.5" stroke="#F6F5D8" stroke-opacity="0.46"/>
</g>
<path d="M28.424 80.098C27.7053 80.098 27.0613 79.9813 26.492 79.748C25.9227 79.5147 25.4653 79.1693 25.12 78.712C24.784 78.2547 24.6067 77.704 24.588 77.06H27.136C27.1733 77.424 27.2993 77.704 27.514 77.9C27.7287 78.0867 28.0087 78.18 28.354 78.18C28.7087 78.18 28.9887 78.1007 29.194 77.942C29.3993 77.774 29.502 77.5453 29.502 77.256C29.502 77.0133 29.418 76.8127 29.25 76.654C29.0913 76.4953 28.8907 76.3647 28.648 76.262C28.4147 76.1593 28.0787 76.0427 27.64 75.912C27.0053 75.716 26.4873 75.52 26.086 75.324C25.6847 75.128 25.3393 74.8387 25.05 74.456C24.7607 74.0733 24.616 73.574 24.616 72.958C24.616 72.0433 24.9473 71.3293 25.61 70.816C26.2727 70.2933 27.136 70.032 28.2 70.032C29.2827 70.032 30.1553 70.2933 30.818 70.816C31.4807 71.3293 31.8353 72.048 31.882 72.972H29.292C29.2733 72.6547 29.1567 72.4073 28.942 72.23C28.7273 72.0433 28.452 71.95 28.116 71.95C27.8267 71.95 27.5933 72.0293 27.416 72.188C27.2387 72.3373 27.15 72.5567 27.15 72.846C27.15 73.1633 27.2993 73.4107 27.598 73.588C27.8967 73.7653 28.3633 73.9567 28.998 74.162C29.6327 74.3767 30.146 74.582 30.538 74.778C30.9393 74.974 31.2847 75.2587 31.574 75.632C31.8633 76.0053 32.008 76.486 32.008 77.074C32.008 77.634 31.8633 78.1427 31.574 78.6C31.294 79.0573 30.8833 79.4213 30.342 79.692C29.8007 79.9627 29.1613 80.098 28.424 80.098ZM34.6853 71.376C34.2653 71.376 33.9199 71.2547 33.6493 71.012C33.3879 70.76 33.2573 70.452 33.2573 70.088C33.2573 69.7147 33.3879 69.4067 33.6493 69.164C33.9199 68.912 34.2653 68.786 34.6853 68.786C35.0959 68.786 35.4319 68.912 35.6933 69.164C35.9639 69.4067 36.0993 69.7147 36.0993 70.088C36.0993 70.452 35.9639 70.76 35.6933 71.012C35.4319 71.2547 35.0959 71.376 34.6853 71.376ZM35.8753 72.188V80H33.4813V72.188H35.8753ZM47.5782 72.104C48.5489 72.104 49.3189 72.398 49.8882 72.986C50.4669 73.574 50.7562 74.3907 50.7562 75.436V80H48.3762V75.758C48.3762 75.254 48.2409 74.8667 47.9702 74.596C47.7089 74.316 47.3449 74.176 46.8782 74.176C46.4115 74.176 46.0429 74.316 45.7722 74.596C45.5109 74.8667 45.3802 75.254 45.3802 75.758V80H43.0002V75.758C43.0002 75.254 42.8649 74.8667 42.5942 74.596C42.3329 74.316 41.9689 74.176 41.5022 74.176C41.0355 74.176 40.6669 74.316 40.3962 74.596C40.1349 74.8667 40.0042 75.254 40.0042 75.758V80H37.6102V72.188H40.0042V73.168C40.2469 72.8413 40.5642 72.5847 40.9562 72.398C41.3482 72.202 41.7915 72.104 42.2862 72.104C42.8742 72.104 43.3969 72.23 43.8542 72.482C44.3209 72.734 44.6849 73.0933 44.9462 73.56C45.2169 73.1307 45.5855 72.7807 46.0522 72.51C46.5189 72.2393 47.0275 72.104 47.5782 72.104ZM54.8245 73.294C55.0578 72.93 55.3798 72.636 55.7905 72.412C56.2012 72.188 56.6818 72.076 57.2325 72.076C57.8765 72.076 58.4598 72.2393 58.9825 72.566C59.5052 72.8927 59.9158 73.3593 60.2145 73.966C60.5225 74.5727 60.6765 75.2773 60.6765 76.08C60.6765 76.8827 60.5225 77.592 60.2145 78.208C59.9158 78.8147 59.5052 79.286 58.9825 79.622C58.4598 79.9487 57.8765 80.112 57.2325 80.112C56.6912 80.112 56.2105 80 55.7905 79.776C55.3798 79.552 55.0578 79.2627 54.8245 78.908V83.724H52.4305V72.188H54.8245V73.294ZM58.2405 76.08C58.2405 75.4827 58.0725 75.016 57.7365 74.68C57.4098 74.3347 57.0038 74.162 56.5185 74.162C56.0425 74.162 55.6365 74.3347 55.3005 74.68C54.9738 75.0253 54.8105 75.4967 54.8105 76.094C54.8105 76.6913 54.9738 77.1627 55.3005 77.508C55.6365 77.8533 56.0425 78.026 56.5185 78.026C56.9945 78.026 57.4005 77.8533 57.7365 77.508C58.0725 77.1533 58.2405 76.6773 58.2405 76.08ZM64.3265 69.64V80H61.9325V69.64H64.3265ZM73.4254 75.968C73.4254 76.192 73.4114 76.4253 73.3834 76.668H67.9654C68.0027 77.1533 68.1567 77.5267 68.4274 77.788C68.7074 78.04 69.048 78.166 69.4494 78.166C70.0467 78.166 70.462 77.914 70.6954 77.41H73.2434C73.1127 77.9233 72.8747 78.3853 72.5294 78.796C72.1934 79.2067 71.7687 79.5287 71.2554 79.762C70.742 79.9953 70.168 80.112 69.5334 80.112C68.768 80.112 68.0867 79.9487 67.4894 79.622C66.892 79.2953 66.4254 78.8287 66.0894 78.222C65.7534 77.6153 65.5854 76.906 65.5854 76.094C65.5854 75.282 65.7487 74.5727 66.0754 73.966C66.4114 73.3593 66.878 72.8927 67.4754 72.566C68.0727 72.2393 68.7587 72.076 69.5334 72.076C70.2894 72.076 70.9614 72.2347 71.5494 72.552C72.1374 72.8693 72.5947 73.322 72.9214 73.91C73.2574 74.498 73.4254 75.184 73.4254 75.968ZM70.9754 75.338C70.9754 74.9273 70.8354 74.6007 70.5554 74.358C70.2754 74.1153 69.9254 73.994 69.5054 73.994C69.104 73.994 68.7634 74.1107 68.4834 74.344C68.2127 74.5773 68.0447 74.9087 67.9794 75.338H70.9754ZM77.8663 80.112C77.185 80.112 76.5783 79.9953 76.0463 79.762C75.5143 79.5287 75.0943 79.2113 74.7863 78.81C74.4783 78.3993 74.3056 77.942 74.2683 77.438H76.6343C76.6623 77.7087 76.7883 77.928 77.0123 78.096C77.2363 78.264 77.5116 78.348 77.8383 78.348C78.137 78.348 78.3656 78.292 78.5243 78.18C78.6923 78.0587 78.7763 77.9047 78.7763 77.718C78.7763 77.494 78.6596 77.3307 78.4263 77.228C78.193 77.116 77.815 76.9947 77.2923 76.864C76.7323 76.7333 76.2656 76.598 75.8923 76.458C75.519 76.3087 75.197 76.08 74.9263 75.772C74.6556 75.4547 74.5203 75.03 74.5203 74.498C74.5203 74.05 74.6416 73.644 74.8843 73.28C75.1363 72.9067 75.5003 72.6127 75.9763 72.398C76.4616 72.1833 77.0356 72.076 77.6983 72.076C78.6783 72.076 79.4483 72.3187 80.0083 72.804C80.5776 73.2893 80.9043 73.9333 80.9883 74.736H78.7763C78.739 74.4653 78.6176 74.2507 78.4123 74.092C78.2163 73.9333 77.955 73.854 77.6283 73.854C77.3483 73.854 77.1336 73.91 76.9843 74.022C76.835 74.1247 76.7603 74.2693 76.7603 74.456C76.7603 74.68 76.877 74.848 77.1103 74.96C77.353 75.072 77.7263 75.184 78.2303 75.296C78.809 75.4453 79.2803 75.5947 79.6443 75.744C80.0083 75.884 80.3256 76.1173 80.5963 76.444C80.8763 76.7613 81.021 77.1907 81.0303 77.732C81.0303 78.1893 80.8996 78.6 80.6383 78.964C80.3863 79.3187 80.0176 79.5987 79.5323 79.804C79.0563 80.0093 78.501 80.112 77.8663 80.112ZM86.849 77.97V80H85.631C84.763 80 84.0863 79.79 83.601 79.37C83.1156 78.9407 82.873 78.2453 82.873 77.284V74.176H81.921V72.188H82.873V70.284H85.267V72.188H86.835V74.176H85.267V77.312C85.267 77.5453 85.323 77.7133 85.435 77.816C85.547 77.9187 85.7336 77.97 85.995 77.97H86.849ZM97.6732 73.28C97.4959 72.9533 97.2393 72.706 96.9033 72.538C96.5766 72.3607 96.1893 72.272 95.7413 72.272C94.9666 72.272 94.3459 72.5287 93.8792 73.042C93.4126 73.546 93.1793 74.2227 93.1793 75.072C93.1793 75.9773 93.4219 76.6867 93.9073 77.2C94.4019 77.704 95.0786 77.956 95.9373 77.956C96.5253 77.956 97.0199 77.8067 97.4213 77.508C97.8319 77.2093 98.1306 76.78 98.3173 76.22H95.2793V74.456H100.487V76.682C100.31 77.2793 100.007 77.8347 99.5773 78.348C99.1573 78.8613 98.6206 79.2767 97.9673 79.594C97.3139 79.9113 96.5766 80.07 95.7553 80.07C94.7846 80.07 93.9166 79.86 93.1513 79.44C92.3953 79.0107 91.8026 78.418 91.3733 77.662C90.9533 76.906 90.7432 76.0427 90.7432 75.072C90.7432 74.1013 90.9533 73.238 91.3733 72.482C91.8026 71.7167 92.3953 71.124 93.1513 70.704C93.9073 70.2747 94.7706 70.06 95.7413 70.06C96.9173 70.06 97.9066 70.3447 98.7093 70.914C99.5213 71.4833 100.058 72.272 100.319 73.28H97.6732ZM104.207 73.49C104.487 73.0607 104.837 72.7247 105.257 72.482C105.677 72.23 106.144 72.104 106.657 72.104V74.638H105.999C105.402 74.638 104.954 74.7687 104.655 75.03C104.357 75.282 104.207 75.73 104.207 76.374V80H101.813V72.188H104.207V73.49ZM111.358 80.112C110.592 80.112 109.902 79.9487 109.286 79.622C108.679 79.2953 108.198 78.8287 107.844 78.222C107.498 77.6153 107.326 76.906 107.326 76.094C107.326 75.2913 107.503 74.5867 107.858 73.98C108.212 73.364 108.698 72.8927 109.314 72.566C109.93 72.2393 110.62 72.076 111.386 72.076C112.151 72.076 112.842 72.2393 113.458 72.566C114.074 72.8927 114.559 73.364 114.914 73.98C115.268 74.5867 115.446 75.2913 115.446 76.094C115.446 76.8967 115.264 77.606 114.9 78.222C114.545 78.8287 114.055 79.2953 113.43 79.622C112.814 79.9487 112.123 80.112 111.358 80.112ZM111.358 78.04C111.815 78.04 112.202 77.872 112.52 77.536C112.846 77.2 113.01 76.7193 113.01 76.094C113.01 75.4687 112.851 74.988 112.534 74.652C112.226 74.316 111.843 74.148 111.386 74.148C110.919 74.148 110.532 74.316 110.224 74.652C109.916 74.9787 109.762 75.4593 109.762 76.094C109.762 76.7193 109.911 77.2 110.21 77.536C110.518 77.872 110.9 78.04 111.358 78.04ZM124.43 72.188V80H122.036V78.936C121.793 79.2813 121.462 79.5613 121.042 79.776C120.631 79.9813 120.174 80.084 119.67 80.084C119.072 80.084 118.545 79.9533 118.088 79.692C117.63 79.4213 117.276 79.034 117.024 78.53C116.772 78.026 116.646 77.4333 116.646 76.752V72.188H119.026V76.43C119.026 76.9527 119.161 77.3587 119.432 77.648C119.702 77.9373 120.066 78.082 120.524 78.082C120.99 78.082 121.359 77.9373 121.63 77.648C121.9 77.3587 122.036 76.9527 122.036 76.43V72.188H124.43ZM128.543 73.294C128.777 72.93 129.099 72.636 129.509 72.412C129.92 72.188 130.401 72.076 130.951 72.076C131.595 72.076 132.179 72.2393 132.701 72.566C133.224 72.8927 133.635 73.3593 133.933 73.966C134.241 74.5727 134.395 75.2773 134.395 76.08C134.395 76.8827 134.241 77.592 133.933 78.208C133.635 78.8147 133.224 79.286 132.701 79.622C132.179 79.9487 131.595 80.112 130.951 80.112C130.41 80.112 129.929 80 129.509 79.776C129.099 79.552 128.777 79.2627 128.543 78.908V83.724H126.149V72.188H128.543V73.294ZM131.959 76.08C131.959 75.4827 131.791 75.016 131.455 74.68C131.129 74.3347 130.723 74.162 130.237 74.162C129.761 74.162 129.355 74.3347 129.019 74.68C128.693 75.0253 128.529 75.4967 128.529 76.094C128.529 76.6913 128.693 77.1627 129.019 77.508C129.355 77.8533 129.761 78.026 130.237 78.026C130.713 78.026 131.119 77.8533 131.455 77.508C131.791 77.1533 131.959 76.6773 131.959 76.08Z" fill="white"/>
<path d="M27.262 93.09V95.078H30.468V96.926H27.262V99.082H30.888V101H24.868V91.172H30.888V93.09H27.262ZM37.0622 101L35.5642 98.83L34.3042 101H31.7142L34.2902 97.01L31.6442 93.188H34.3322L35.8302 95.344L37.0902 93.188H39.6802L37.0622 97.122L39.7502 101H37.0622ZM43.0667 94.294C43.3 93.93 43.622 93.636 44.0327 93.412C44.4434 93.188 44.924 93.076 45.4747 93.076C46.1187 93.076 46.702 93.2393 47.2247 93.566C47.7474 93.8927 48.158 94.3593 48.4567 94.966C48.7647 95.5727 48.9187 96.2773 48.9187 97.08C48.9187 97.8827 48.7647 98.592 48.4567 99.208C48.158 99.8147 47.7474 100.286 47.2247 100.622C46.702 100.949 46.1187 101.112 45.4747 101.112C44.9334 101.112 44.4527 101 44.0327 100.776C43.622 100.552 43.3 100.263 43.0667 99.908V104.724H40.6727V93.188H43.0667V94.294ZM46.4827 97.08C46.4827 96.4827 46.3147 96.016 45.9787 95.68C45.652 95.3347 45.246 95.162 44.7607 95.162C44.2847 95.162 43.8787 95.3347 43.5427 95.68C43.216 96.0253 43.0527 96.4967 43.0527 97.094C43.0527 97.6913 43.216 98.1627 43.5427 98.508C43.8787 98.8533 44.2847 99.026 44.7607 99.026C45.2367 99.026 45.6427 98.8533 45.9787 98.508C46.3147 98.1533 46.4827 97.6773 46.4827 97.08ZM57.5386 96.968C57.5386 97.192 57.5246 97.4253 57.4966 97.668H52.0786C52.116 98.1533 52.27 98.5267 52.5406 98.788C52.8206 99.04 53.1613 99.166 53.5626 99.166C54.16 99.166 54.5753 98.914 54.8086 98.41H57.3566C57.226 98.9233 56.988 99.3853 56.6426 99.796C56.3066 100.207 55.882 100.529 55.3686 100.762C54.8553 100.995 54.2813 101.112 53.6466 101.112C52.8813 101.112 52.2 100.949 51.6026 100.622C51.0053 100.295 50.5386 99.8287 50.2026 99.222C49.8666 98.6153 49.6986 97.906 49.6986 97.094C49.6986 96.282 49.862 95.5727 50.1886 94.966C50.5246 94.3593 50.9913 93.8927 51.5886 93.566C52.186 93.2393 52.872 93.076 53.6466 93.076C54.4026 93.076 55.0746 93.2347 55.6626 93.552C56.2506 93.8693 56.708 94.322 57.0346 94.91C57.3706 95.498 57.5386 96.184 57.5386 96.968ZM55.0886 96.338C55.0886 95.9273 54.9486 95.6007 54.6686 95.358C54.3886 95.1153 54.0386 94.994 53.6186 94.994C53.2173 94.994 52.8766 95.1107 52.5966 95.344C52.326 95.5773 52.158 95.9087 52.0926 96.338H55.0886ZM63.5616 93.104C64.4763 93.104 65.2043 93.4027 65.7456 94C66.2963 94.588 66.5716 95.4 66.5716 96.436V101H64.1916V96.758C64.1916 96.2353 64.0563 95.8293 63.7856 95.54C63.5149 95.2507 63.1509 95.106 62.6936 95.106C62.2363 95.106 61.8723 95.2507 61.6016 95.54C61.3309 95.8293 61.1956 96.2353 61.1956 96.758V101H58.8016V93.188H61.1956V94.224C61.4383 93.8787 61.7649 93.608 62.1756 93.412C62.5863 93.2067 63.0483 93.104 63.5616 93.104ZM71.4132 101.112C70.7319 101.112 70.1252 100.995 69.5932 100.762C69.0612 100.529 68.6412 100.211 68.3332 99.81C68.0252 99.3993 67.8525 98.942 67.8152 98.438H70.1812C70.2092 98.7087 70.3352 98.928 70.5592 99.096C70.7832 99.264 71.0585 99.348 71.3852 99.348C71.6839 99.348 71.9125 99.292 72.0712 99.18C72.2392 99.0587 72.3232 98.9047 72.3232 98.718C72.3232 98.494 72.2065 98.3307 71.9732 98.228C71.7399 98.116 71.3619 97.9947 70.8392 97.864C70.2792 97.7333 69.8125 97.598 69.4392 97.458C69.0659 97.3087 68.7439 97.08 68.4732 96.772C68.2025 96.4547 68.0672 96.03 68.0672 95.498C68.0672 95.05 68.1885 94.644 68.4312 94.28C68.6832 93.9067 69.0472 93.6127 69.5232 93.398C70.0085 93.1833 70.5825 93.076 71.2452 93.076C72.2252 93.076 72.9952 93.3187 73.5552 93.804C74.1245 94.2893 74.4512 94.9333 74.5352 95.736H72.3232C72.2859 95.4653 72.1645 95.2507 71.9592 95.092C71.7632 94.9333 71.5019 94.854 71.1752 94.854C70.8952 94.854 70.6805 94.91 70.5312 95.022C70.3819 95.1247 70.3072 95.2693 70.3072 95.456C70.3072 95.68 70.4239 95.848 70.6572 95.96C70.8999 96.072 71.2732 96.184 71.7772 96.296C72.3559 96.4453 72.8272 96.5947 73.1912 96.744C73.5552 96.884 73.8725 97.1173 74.1432 97.444C74.4232 97.7613 74.5679 98.1907 74.5772 98.732C74.5772 99.1893 74.4465 99.6 74.1852 99.964C73.9332 100.319 73.5645 100.599 73.0792 100.804C72.6032 101.009 72.0479 101.112 71.4132 101.112ZM83.4058 96.968C83.4058 97.192 83.3918 97.4253 83.3638 97.668H77.9458C77.9832 98.1533 78.1372 98.5267 78.4078 98.788C78.6878 99.04 79.0285 99.166 79.4298 99.166C80.0272 99.166 80.4425 98.914 80.6758 98.41H83.2238C83.0932 98.9233 82.8552 99.3853 82.5098 99.796C82.1738 100.207 81.7492 100.529 81.2358 100.762C80.7225 100.995 80.1485 101.112 79.5138 101.112C78.7485 101.112 78.0672 100.949 77.4698 100.622C76.8725 100.295 76.4058 99.8287 76.0698 99.222C75.7338 98.6153 75.5658 97.906 75.5658 97.094C75.5658 96.282 75.7292 95.5727 76.0558 94.966C76.3918 94.3593 76.8585 93.8927 77.4558 93.566C78.0532 93.2393 78.7392 93.076 79.5138 93.076C80.2698 93.076 80.9418 93.2347 81.5298 93.552C82.1178 93.8693 82.5752 94.322 82.9018 94.91C83.2378 95.498 83.4058 96.184 83.4058 96.968ZM80.9558 96.338C80.9558 95.9273 80.8158 95.6007 80.5358 95.358C80.2558 95.1153 79.9058 94.994 79.4858 94.994C79.0845 94.994 78.7438 95.1107 78.4638 95.344C78.1932 95.5773 78.0252 95.9087 77.9598 96.338H80.9558ZM98.7656 91.172V101H96.3716V95.106L94.1736 101H92.2416L90.0296 95.092V101H87.6356V91.172H90.4636L93.2216 97.976L95.9516 91.172H98.7656ZM100.011 97.08C100.011 96.2773 100.16 95.5727 100.459 94.966C100.767 94.3593 101.182 93.8927 101.705 93.566C102.228 93.2393 102.811 93.076 103.455 93.076C104.006 93.076 104.486 93.188 104.897 93.412C105.317 93.636 105.639 93.93 105.863 94.294V93.188H108.257V101H105.863V99.894C105.63 100.258 105.303 100.552 104.883 100.776C104.472 101 103.992 101.112 103.441 101.112C102.806 101.112 102.228 100.949 101.705 100.622C101.182 100.286 100.767 99.8147 100.459 99.208C100.16 98.592 100.011 97.8827 100.011 97.08ZM105.863 97.094C105.863 96.4967 105.695 96.0253 105.359 95.68C105.032 95.3347 104.631 95.162 104.155 95.162C103.679 95.162 103.273 95.3347 102.937 95.68C102.61 96.016 102.447 96.4827 102.447 97.08C102.447 97.6773 102.61 98.1533 102.937 98.508C103.273 98.8533 103.679 99.026 104.155 99.026C104.631 99.026 105.032 98.8533 105.359 98.508C105.695 98.1627 105.863 97.6913 105.863 97.094ZM114.749 93.104C115.664 93.104 116.392 93.4027 116.933 94C117.484 94.588 117.759 95.4 117.759 96.436V101H115.379V96.758C115.379 96.2353 115.244 95.8293 114.973 95.54C114.702 95.2507 114.338 95.106 113.881 95.106C113.424 95.106 113.06 95.2507 112.789 95.54C112.518 95.8293 112.383 96.2353 112.383 96.758V101H109.989V93.188H112.383V94.224C112.626 93.8787 112.952 93.608 113.363 93.412C113.774 93.2067 114.236 93.104 114.749 93.104ZM118.947 97.08C118.947 96.2773 119.096 95.5727 119.395 94.966C119.703 94.3593 120.118 93.8927 120.641 93.566C121.163 93.2393 121.747 93.076 122.391 93.076C122.941 93.076 123.422 93.188 123.833 93.412C124.253 93.636 124.575 93.93 124.799 94.294V93.188H127.193V101H124.799V99.894C124.565 100.258 124.239 100.552 123.819 100.776C123.408 101 122.927 101.112 122.377 101.112C121.742 101.112 121.163 100.949 120.641 100.622C120.118 100.286 119.703 99.8147 119.395 99.208C119.096 98.592 118.947 97.8827 118.947 97.08ZM124.799 97.094C124.799 96.4967 124.631 96.0253 124.295 95.68C123.968 95.3347 123.567 95.162 123.091 95.162C122.615 95.162 122.209 95.3347 121.873 95.68C121.546 96.016 121.383 96.4827 121.383 97.08C121.383 97.6773 121.546 98.1533 121.873 98.508C122.209 98.8533 122.615 99.026 123.091 99.026C123.567 99.026 123.968 98.8533 124.295 98.508C124.631 98.1627 124.799 97.6913 124.799 97.094ZM131.893 93.076C132.443 93.076 132.924 93.188 133.335 93.412C133.755 93.636 134.077 93.93 134.301 94.294V93.188H136.695V100.986C136.695 101.705 136.55 102.353 136.261 102.932C135.981 103.52 135.547 103.987 134.959 104.332C134.38 104.677 133.657 104.85 132.789 104.85C131.631 104.85 130.693 104.575 129.975 104.024C129.256 103.483 128.845 102.745 128.743 101.812H131.109C131.183 102.111 131.361 102.344 131.641 102.512C131.921 102.689 132.266 102.778 132.677 102.778C133.171 102.778 133.563 102.633 133.853 102.344C134.151 102.064 134.301 101.611 134.301 100.986V99.88C134.067 100.244 133.745 100.543 133.335 100.776C132.924 101 132.443 101.112 131.893 101.112C131.249 101.112 130.665 100.949 130.143 100.622C129.62 100.286 129.205 99.8147 128.897 99.208C128.598 98.592 128.449 97.8827 128.449 97.08C128.449 96.2773 128.598 95.5727 128.897 94.966C129.205 94.3593 129.62 93.8927 130.143 93.566C130.665 93.2393 131.249 93.076 131.893 93.076ZM134.301 97.094C134.301 96.4967 134.133 96.0253 133.797 95.68C133.47 95.3347 133.069 95.162 132.593 95.162C132.117 95.162 131.711 95.3347 131.375 95.68C131.048 96.016 130.885 96.4827 130.885 97.08C130.885 97.6773 131.048 98.1533 131.375 98.508C131.711 98.8533 132.117 99.026 132.593 99.026C133.069 99.026 133.47 98.8533 133.797 98.508C134.133 98.1627 134.301 97.6913 134.301 97.094ZM145.791 96.968C145.791 97.192 145.777 97.4253 145.749 97.668H140.331C140.368 98.1533 140.522 98.5267 140.793 98.788C141.073 99.04 141.413 99.166 141.815 99.166C142.412 99.166 142.827 98.914 143.061 98.41H145.609C145.478 98.9233 145.24 99.3853 144.895 99.796C144.559 100.207 144.134 100.529 143.621 100.762C143.107 100.995 142.533 101.112 141.899 101.112C141.133 101.112 140.452 100.949 139.855 100.622C139.257 100.295 138.791 99.8287 138.455 99.222C138.119 98.6153 137.951 97.906 137.951 97.094C137.951 96.282 138.114 95.5727 138.441 94.966C138.777 94.3593 139.243 93.8927 139.841 93.566C140.438 93.2393 141.124 93.076 141.899 93.076C142.655 93.076 143.327 93.2347 143.915 93.552C144.503 93.8693 144.96 94.322 145.287 94.91C145.623 95.498 145.791 96.184 145.791 96.968ZM143.341 96.338C143.341 95.9273 143.201 95.6007 142.921 95.358C142.641 95.1153 142.291 94.994 141.871 94.994C141.469 94.994 141.129 95.1107 140.849 95.344C140.578 95.5773 140.41 95.9087 140.345 96.338H143.341ZM149.448 94.49C149.728 94.0607 150.078 93.7247 150.498 93.482C150.918 93.23 151.384 93.104 151.898 93.104V95.638H151.24C150.642 95.638 150.194 95.7687 149.896 96.03C149.597 96.282 149.448 96.73 149.448 97.374V101H147.054V93.188H149.448V94.49Z" fill="#FF9393"/>
<g clip-path="url(#clip0_3305_4863)">
<path d="M277.026 51.9154V53.3569H197.078V51.9154C197.078 49.7971 198.797 48.0801 200.918 48.0801H273.186C275.307 48.0801 277.026 49.7971 277.026 51.9154Z" fill="#101B23" stroke="black" stroke-width="0.295597" stroke-miterlimit="10"/>
<path d="M197.078 53.3574V106.579C197.078 108.697 198.797 110.416 200.918 110.416H273.186C275.307 110.416 277.026 108.697 277.026 106.579V53.3574H197.078Z" fill="#F27750" stroke="black" stroke-width="0.295597" stroke-miterlimit="10"/>
<path d="M263.571 51.7627C264.011 51.7627 264.368 51.4061 264.368 50.9663C264.368 50.5265 264.011 50.1699 263.571 50.1699C263.13 50.1699 262.773 50.5265 262.773 50.9663C262.773 51.4061 263.13 51.7627 263.571 51.7627Z" fill="#25BA48"/>
<path d="M267.758 51.7627C268.198 51.7627 268.555 51.4061 268.555 50.9663C268.555 50.5265 268.198 50.1699 267.758 50.1699C267.318 50.1699 266.961 50.5265 266.961 50.9663C266.961 51.4061 267.318 51.7627 267.758 51.7627Z" fill="#DBAD2C"/>
<path d="M271.946 51.7627C272.386 51.7627 272.743 51.4061 272.743 50.9663C272.743 50.5265 272.386 50.1699 271.946 50.1699C271.505 50.1699 271.148 50.5265 271.148 50.9663C271.148 51.4061 271.505 51.7627 271.946 51.7627Z" fill="#E03D3D"/>
<path d="M256.023 61.3867H205.437C203.953 61.3867 202.75 62.5874 202.75 64.0684V102.303C202.75 103.784 203.953 104.985 205.437 104.985H256.023C257.507 104.985 258.71 103.784 258.71 102.303V64.0684C258.71 62.5874 257.507 61.3867 256.023 61.3867Z" stroke="#F6F5D8" stroke-width="0.369497" stroke-miterlimit="10"/>
<path d="M243.885 99.2387V97.2452L246.062 99.2482H208.883V71.3301L210.664 73.8994L208.984 73.9248" stroke="#F6F5D8" stroke-width="0.369497" stroke-miterlimit="10"/>
<path d="M213.484 96.5692L225.342 80.596L233.247 92.9735L243.524 71.811L251.43 69.416" stroke="#F6F5D8" stroke-width="0.369497" stroke-miterlimit="10"/>
<path d="M251.423 70.1801C251.846 70.1801 252.189 69.8377 252.189 69.4153C252.189 68.9928 251.846 68.6504 251.423 68.6504C250.999 68.6504 250.656 68.9928 250.656 69.4153C250.656 69.8377 250.999 70.1801 251.423 70.1801Z" fill="#F6F5D8" stroke="#F6F5D8" stroke-width="0.369497" stroke-miterlimit="10"/>
<path d="M243.759 72.477C244.182 72.477 244.525 72.1346 244.525 71.7121C244.525 71.2897 244.182 70.9473 243.759 70.9473C243.335 70.9473 242.992 71.2897 242.992 71.7121C242.992 72.1346 243.335 72.477 243.759 72.477Z" fill="#F6F5D8" stroke="#F6F5D8" stroke-width="0.369497" stroke-miterlimit="10"/>
<path d="M233.415 93.5102C233.838 93.5102 234.182 93.1678 234.182 92.7453C234.182 92.3229 233.838 91.9805 233.415 91.9805C232.992 91.9805 232.648 92.3229 232.648 92.7453C232.648 93.1678 232.992 93.5102 233.415 93.5102Z" fill="#F6F5D8" stroke="#F6F5D8" stroke-width="0.369497" stroke-miterlimit="10"/>
<path d="M225.36 81.2739C225.784 81.2739 226.127 80.9315 226.127 80.509C226.127 80.0866 225.784 79.7441 225.36 79.7441C224.937 79.7441 224.594 80.0866 224.594 80.509C224.594 80.9315 224.937 81.2739 225.36 81.2739Z" fill="#F6F5D8" stroke="#F6F5D8" stroke-width="0.369497" stroke-miterlimit="10"/>
<path d="M213.485 97.3364C213.909 97.3364 214.252 96.994 214.252 96.5715C214.252 96.1491 213.909 95.8066 213.485 95.8066C213.062 95.8066 212.719 96.1491 212.719 96.5715C212.719 96.994 213.062 97.3364 213.485 97.3364Z" fill="#F6F5D8" stroke="#F6F5D8" stroke-width="0.369497" stroke-miterlimit="10"/>
<g clip-path="url(#clip1_3305_4863)">
<path d="M220.749 112.372C219.185 112.626 218.979 112.832 218.726 114.395C218.472 112.832 218.267 112.626 216.703 112.372C218.267 112.119 218.472 111.913 218.726 110.35C218.979 111.913 219.185 112.119 220.749 112.372Z" fill="#F6F5D8" stroke="black" stroke-width="0.21283" stroke-miterlimit="10"/>
</g>
</g>
<rect x="237.351" y="80.9583" width="51.7296" height="41.9748" rx="3.69497" fill="#F6F5D8" stroke="black" stroke-width="0.295597"/>
<path d="M254.689 97.8075H253.384C252.69 97.8075 252.128 97.245 252.128 96.5512C252.128 95.8574 252.69 95.2949 253.384 95.2949H259.404C260.523 95.2949 261.236 96.4909 260.704 97.4757L259.542 99.626C259.189 100.277 259.378 101.084 259.924 101.584C260.951 102.525 262.057 103.853 261.882 104.902C261.587 106.675 260.996 108.301 256.857 109.04C254.234 109.509 252.52 109.08 251.554 108.49C251.137 108.235 251.009 107.72 251.115 107.244L251.279 106.502C251.43 105.826 251.923 105.65 252.544 105.955C253.043 106.201 253.821 106.473 255.084 106.675C258.779 107.267 259.37 105.05 258.927 103.719C258.738 103.154 257.845 102.758 256.842 102.496C255.773 102.217 255.182 100.937 255.83 100.043C256.505 99.1111 255.839 97.8075 254.689 97.8075Z" fill="#EE7171" stroke="black" stroke-width="0.295597"/>
<mask id="path-20-inside-1_3305_4863" fill="white">
<rect x="242.227" y="84.9492" width="41.9748" height="33.9937" rx="0.591195"/>
</mask>
<rect x="242.227" y="84.9492" width="41.9748" height="33.9937" rx="0.591195" stroke="#8DF1FF" stroke-width="2.36478" mask="url(#path-20-inside-1_3305_4863)"/>
<rect x="248.438" y="75.4922" width="2.95597" height="10.6415" rx="1.47799" fill="#003B54"/>
<rect x="261.734" y="75.4922" width="2.95597" height="10.6415" rx="1.47799" fill="#003B54"/>
<rect x="275.633" y="75.4922" width="2.95597" height="10.6415" rx="1.47799" fill="#003B54"/>
<mask id="path-24-inside-2_3305_4863" fill="white">
<path fill-rule="evenodd" clip-rule="evenodd" d="M269.128 109.189C272.72 109.189 275.631 105.748 275.631 101.504C275.631 97.2593 272.72 93.8184 269.128 93.8184C265.537 93.8184 262.625 97.2593 262.625 101.504C262.625 105.748 265.537 109.189 269.128 109.189ZM269.126 106.234C271.411 106.234 273.264 104.116 273.264 101.504C273.264 98.8919 271.411 96.7744 269.126 96.7744C266.84 96.7744 264.987 98.8919 264.987 101.504C264.987 104.116 266.84 106.234 269.126 106.234Z"/>
</mask>
<path fill-rule="evenodd" clip-rule="evenodd" d="M269.128 109.189C272.72 109.189 275.631 105.748 275.631 101.504C275.631 97.2593 272.72 93.8184 269.128 93.8184C265.537 93.8184 262.625 97.2593 262.625 101.504C262.625 105.748 265.537 109.189 269.128 109.189ZM269.126 106.234C271.411 106.234 273.264 104.116 273.264 101.504C273.264 98.8919 271.411 96.7744 269.126 96.7744C266.84 96.7744 264.987 98.8919 264.987 101.504C264.987 104.116 266.84 106.234 269.126 106.234Z" fill="#EE7171"/>
<path d="M275.336 101.504C275.336 105.633 272.512 108.894 269.128 108.894V109.485C272.927 109.485 275.927 105.864 275.927 101.504H275.336ZM269.128 94.114C272.512 94.114 275.336 97.3743 275.336 101.504H275.927C275.927 97.1443 272.927 93.5228 269.128 93.5228V94.114ZM262.921 101.504C262.921 97.3743 265.744 94.114 269.128 94.114V93.5228C265.329 93.5228 262.329 97.1443 262.329 101.504H262.921ZM269.128 108.894C265.744 108.894 262.921 105.633 262.921 101.504H262.329C262.329 105.864 265.329 109.485 269.128 109.485V108.894ZM272.968 101.504C272.968 103.991 271.212 105.938 269.126 105.938V106.529C271.61 106.529 273.56 104.241 273.56 101.504H272.968ZM269.126 97.07C271.212 97.07 272.968 99.0169 272.968 101.504H273.56C273.56 98.767 271.61 96.4788 269.126 96.4788V97.07ZM265.283 101.504C265.283 99.0169 267.039 97.07 269.126 97.07V96.4788C266.641 96.4788 264.692 98.767 264.692 101.504H265.283ZM269.126 105.938C267.039 105.938 265.283 103.991 265.283 101.504H264.692C264.692 104.241 266.641 106.529 269.126 106.529V105.938Z" fill="black" mask="url(#path-24-inside-2_3305_4863)"/>
<g clip-path="url(#clip2_3305_4863)">
<path d="M297.403 77.561C294.053 78.1044 293.612 78.5449 293.069 81.8955C292.525 78.5449 292.085 78.1044 288.734 77.561C292.085 77.0177 292.525 76.5771 293.069 73.2266C293.612 76.5771 294.053 77.0177 297.403 77.561Z" fill="white" stroke="black" stroke-width="0.21283" stroke-miterlimit="10"/>
</g>
<defs>
<filter id="filter0_d_3305_4863" x="0" y="0" width="315" height="177" filterUnits="userSpaceOnUse" color-interpolation-filters="sRGB">
<feFlood flood-opacity="0" result="BackgroundImageFix"/>
<feColorMatrix in="SourceAlpha" type="matrix" values="0 0 0 0 0 0 0 0 0 0 0 0 0 0 0 0 0 0 127 0" result="hardAlpha"/>
<feOffset dx="3" dy="3"/>
<feComposite in2="hardAlpha" operator="out"/>
<feColorMatrix type="matrix" values="0 0 0 0 0.808333 0 0 0 0 0.808333 0 0 0 0 0.808333 0 0 0 1 0"/>
<feBlend mode="normal" in2="BackgroundImageFix" result="effect1_dropShadow_3305_4863"/>
<feBlend mode="normal" in="SourceGraphic" in2="effect1_dropShadow_3305_4863" result="shape"/>
</filter>
<clipPath id="clip0_3305_4863">
<rect width="80.1069" height="67.6918" fill="white" transform="translate(197 48)"/>
</clipPath>
<clipPath id="clip1_3305_4863">
<rect width="4.13836" height="4.13836" fill="white" transform="translate(216.656 110.305)"/>
</clipPath>
<clipPath id="clip2_3305_4863">
<rect width="8.86792" height="8.86792" fill="white" transform="translate(288.633 73.125)"/>
</clipPath>
</defs>
</svg>
