<svg width="315" height="177" viewBox="0 0 315 177" fill="none" xmlns="http://www.w3.org/2000/svg">
<g filter="url(#filter0_d_3305_4876)">
<rect width="312" height="174" rx="6" fill="#17171D"/>
<rect x="0.5" y="0.5" width="311" height="173" rx="5.5" stroke="#F6F5D8" stroke-opacity="0.46"/>
</g>
<path d="M28.424 39.098C27.7053 39.098 27.0613 38.9813 26.492 38.748C25.9227 38.5147 25.4653 38.1693 25.12 37.712C24.784 37.2547 24.6067 36.704 24.588 36.06H27.136C27.1733 36.424 27.2993 36.704 27.514 36.9C27.7287 37.0867 28.0087 37.18 28.354 37.18C28.7087 37.18 28.9887 37.1007 29.194 36.942C29.3993 36.774 29.502 36.5453 29.502 36.256C29.502 36.0133 29.418 35.8127 29.25 35.654C29.0913 35.4953 28.8907 35.3647 28.648 35.262C28.4147 35.1593 28.0787 35.0427 27.64 34.912C27.0053 34.716 26.4873 34.52 26.086 34.324C25.6847 34.128 25.3393 33.8387 25.05 33.456C24.7607 33.0733 24.616 32.574 24.616 31.958C24.616 31.0433 24.9473 30.3293 25.61 29.816C26.2727 29.2933 27.136 29.032 28.2 29.032C29.2827 29.032 30.1553 29.2933 30.818 29.816C31.4807 30.3293 31.8353 31.048 31.882 31.972H29.292C29.2733 31.6547 29.1567 31.4073 28.942 31.23C28.7273 31.0433 28.452 30.95 28.116 30.95C27.8267 30.95 27.5933 31.0293 27.416 31.188C27.2387 31.3373 27.15 31.5567 27.15 31.846C27.15 32.1633 27.2993 32.4107 27.598 32.588C27.8967 32.7653 28.3633 32.9567 28.998 33.162C29.6327 33.3767 30.146 33.582 30.538 33.778C30.9393 33.974 31.2847 34.2587 31.574 34.632C31.8633 35.0053 32.008 35.486 32.008 36.074C32.008 36.634 31.8633 37.1427 31.574 37.6C31.294 38.0573 30.8833 38.4213 30.342 38.692C29.8007 38.9627 29.1613 39.098 28.424 39.098ZM33.0053 35.08C33.0053 34.2773 33.1546 33.5727 33.4533 32.966C33.7613 32.3593 34.1766 31.8927 34.6993 31.566C35.2219 31.2393 35.8053 31.076 36.4493 31.076C36.9999 31.076 37.4806 31.188 37.8913 31.412C38.3113 31.636 38.6333 31.93 38.8573 32.294V31.188H41.2513V39H38.8573V37.894C38.6239 38.258 38.2973 38.552 37.8773 38.776C37.4666 39 36.9859 39.112 36.4353 39.112C35.8006 39.112 35.2219 38.9487 34.6993 38.622C34.1766 38.286 33.7613 37.8147 33.4533 37.208C33.1546 36.592 33.0053 35.8827 33.0053 35.08ZM38.8573 35.094C38.8573 34.4967 38.6893 34.0253 38.3533 33.68C38.0266 33.3347 37.6253 33.162 37.1493 33.162C36.6733 33.162 36.2673 33.3347 35.9313 33.68C35.6046 34.016 35.4413 34.4827 35.4413 35.08C35.4413 35.6773 35.6046 36.1533 35.9313 36.508C36.2673 36.8533 36.6733 37.026 37.1493 37.026C37.6253 37.026 38.0266 36.8533 38.3533 36.508C38.6893 36.1627 38.8573 35.6913 38.8573 35.094ZM50.9632 31.188L46.0632 42.71H43.4872L45.2792 38.734L42.1012 31.188H44.7752L46.5812 36.074L48.3732 31.188H50.9632ZM57.7637 31.076C58.3144 31.076 58.7951 31.188 59.2057 31.412C59.6257 31.636 59.9477 31.93 60.1717 32.294V31.188H62.5657V38.986C62.5657 39.7047 62.4211 40.3533 62.1317 40.932C61.8517 41.52 61.4177 41.9867 60.8297 42.332C60.2511 42.6773 59.5277 42.85 58.6597 42.85C57.5024 42.85 56.5644 42.5747 55.8457 42.024C55.1271 41.4827 54.7164 40.7453 54.6137 39.812H56.9797C57.0544 40.1107 57.2317 40.344 57.5117 40.512C57.7917 40.6893 58.1371 40.778 58.5477 40.778C59.0424 40.778 59.4344 40.6333 59.7237 40.344C60.0224 40.064 60.1717 39.6113 60.1717 38.986V37.88C59.9384 38.244 59.6164 38.5427 59.2057 38.776C58.7951 39 58.3144 39.112 57.7637 39.112C57.1197 39.112 56.5364 38.9487 56.0137 38.622C55.4911 38.286 55.0757 37.8147 54.7677 37.208C54.4691 36.592 54.3197 35.8827 54.3197 35.08C54.3197 34.2773 54.4691 33.5727 54.7677 32.966C55.0757 32.3593 55.4911 31.8927 56.0137 31.566C56.5364 31.2393 57.1197 31.076 57.7637 31.076ZM60.1717 35.094C60.1717 34.4967 60.0037 34.0253 59.6677 33.68C59.3411 33.3347 58.9397 33.162 58.4637 33.162C57.9877 33.162 57.5817 33.3347 57.2457 33.68C56.9191 34.016 56.7557 34.4827 56.7557 35.08C56.7557 35.6773 56.9191 36.1533 57.2457 36.508C57.5817 36.8533 57.9877 37.026 58.4637 37.026C58.9397 37.026 59.3411 36.8533 59.6677 36.508C60.0037 36.1627 60.1717 35.6913 60.1717 35.094ZM67.8537 39.112C67.0884 39.112 66.3977 38.9487 65.7817 38.622C65.175 38.2953 64.6944 37.8287 64.3397 37.222C63.9944 36.6153 63.8217 35.906 63.8217 35.094C63.8217 34.2913 63.999 33.5867 64.3537 32.98C64.7084 32.364 65.1937 31.8927 65.8097 31.566C66.4257 31.2393 67.1164 31.076 67.8817 31.076C68.647 31.076 69.3377 31.2393 69.9537 31.566C70.5697 31.8927 71.055 32.364 71.4097 32.98C71.7644 33.5867 71.9417 34.2913 71.9417 35.094C71.9417 35.8967 71.7597 36.606 71.3957 37.222C71.041 37.8287 70.551 38.2953 69.9257 38.622C69.3097 38.9487 68.619 39.112 67.8537 39.112ZM67.8537 37.04C68.311 37.04 68.6984 36.872 69.0157 36.536C69.3424 36.2 69.5057 35.7193 69.5057 35.094C69.5057 34.4687 69.347 33.988 69.0297 33.652C68.7217 33.316 68.339 33.148 67.8817 33.148C67.415 33.148 67.0277 33.316 66.7197 33.652C66.4117 33.9787 66.2577 34.4593 66.2577 35.094C66.2577 35.7193 66.407 36.2 66.7057 36.536C67.0137 36.872 67.3964 37.04 67.8537 37.04ZM76.7678 39.112C76.0024 39.112 75.3118 38.9487 74.6958 38.622C74.0891 38.2953 73.6084 37.8287 73.2538 37.222C72.9084 36.6153 72.7358 35.906 72.7358 35.094C72.7358 34.2913 72.9131 33.5867 73.2677 32.98C73.6224 32.364 74.1078 31.8927 74.7238 31.566C75.3398 31.2393 76.0304 31.076 76.7958 31.076C77.5611 31.076 78.2518 31.2393 78.8678 31.566C79.4838 31.8927 79.9691 32.364 80.3238 32.98C80.6784 33.5867 80.8558 34.2913 80.8558 35.094C80.8558 35.8967 80.6738 36.606 80.3098 37.222C79.9551 37.8287 79.4651 38.2953 78.8398 38.622C78.2238 38.9487 77.5331 39.112 76.7678 39.112ZM76.7678 37.04C77.2251 37.04 77.6124 36.872 77.9298 36.536C78.2564 36.2 78.4198 35.7193 78.4198 35.094C78.4198 34.4687 78.2611 33.988 77.9438 33.652C77.6358 33.316 77.2531 33.148 76.7958 33.148C76.3291 33.148 75.9418 33.316 75.6338 33.652C75.3258 33.9787 75.1718 34.4593 75.1718 35.094C75.1718 35.7193 75.3211 36.2 75.6198 36.536C75.9278 36.872 76.3104 37.04 76.7678 37.04ZM81.6498 35.08C81.6498 34.2773 81.7991 33.5727 82.0978 32.966C82.4058 32.3593 82.8211 31.8927 83.3438 31.566C83.8665 31.2393 84.4498 31.076 85.0938 31.076C85.6071 31.076 86.0738 31.1833 86.4938 31.398C86.9231 31.6127 87.2591 31.902 87.5018 32.266V28.64H89.8958V39H87.5018V37.88C87.2778 38.2533 86.9558 38.552 86.5358 38.776C86.1251 39 85.6445 39.112 85.0938 39.112C84.4498 39.112 83.8665 38.9487 83.3438 38.622C82.8211 38.286 82.4058 37.8147 82.0978 37.208C81.7991 36.592 81.6498 35.8827 81.6498 35.08ZM87.5018 35.094C87.5018 34.4967 87.3338 34.0253 86.9978 33.68C86.6711 33.3347 86.2698 33.162 85.7938 33.162C85.3178 33.162 84.9118 33.3347 84.5758 33.68C84.2491 34.016 84.0858 34.4827 84.0858 35.08C84.0858 35.6773 84.2491 36.1533 84.5758 36.508C84.9118 36.8533 85.3178 37.026 85.7938 37.026C86.2698 37.026 86.6711 36.8533 86.9978 36.508C87.3338 36.1627 87.5018 35.6913 87.5018 35.094ZM94.0218 32.294C94.2458 31.93 94.5678 31.636 94.9878 31.412C95.4078 31.188 95.8884 31.076 96.4298 31.076C97.0738 31.076 97.6571 31.2393 98.1798 31.566C98.7024 31.8927 99.1131 32.3593 99.4118 32.966C99.7198 33.5727 99.8738 34.2773 99.8738 35.08C99.8738 35.8827 99.7198 36.592 99.4118 37.208C99.1131 37.8147 98.7024 38.286 98.1798 38.622C97.6571 38.9487 97.0738 39.112 96.4298 39.112C95.8791 39.112 95.3984 39.0047 94.9878 38.79C94.5771 38.566 94.2551 38.272 94.0218 37.908V39H91.6278V28.64H94.0218V32.294ZM97.4378 35.08C97.4378 34.4827 97.2698 34.016 96.9338 33.68C96.6071 33.3347 96.2011 33.162 95.7158 33.162C95.2398 33.162 94.8338 33.3347 94.4978 33.68C94.1711 34.0253 94.0078 34.4967 94.0078 35.094C94.0078 35.6913 94.1711 36.1627 94.4978 36.508C94.8338 36.8533 95.2398 37.026 95.7158 37.026C96.1918 37.026 96.5978 36.8533 96.9338 36.508C97.2698 36.1533 97.4378 35.6773 97.4378 35.08ZM109.11 31.188L104.21 42.71H101.634L103.426 38.734L100.248 31.188H102.922L104.728 36.074L106.52 31.188H109.11ZM117.339 34.968C117.339 35.192 117.325 35.4253 117.297 35.668H111.879C111.917 36.1533 112.071 36.5267 112.341 36.788C112.621 37.04 112.962 37.166 113.363 37.166C113.961 37.166 114.376 36.914 114.609 36.41H117.157C117.027 36.9233 116.789 37.3853 116.443 37.796C116.107 38.2067 115.683 38.5287 115.169 38.762C114.656 38.9953 114.082 39.112 113.447 39.112C112.682 39.112 112.001 38.9487 111.403 38.622C110.806 38.2953 110.339 37.8287 110.003 37.222C109.667 36.6153 109.499 35.906 109.499 35.094C109.499 34.282 109.663 33.5727 109.989 32.966C110.325 32.3593 110.792 31.8927 111.389 31.566C111.987 31.2393 112.673 31.076 113.447 31.076C114.203 31.076 114.875 31.2347 115.463 31.552C116.051 31.8693 116.509 32.322 116.835 32.91C117.171 33.498 117.339 34.184 117.339 34.968ZM114.889 34.338C114.889 33.9273 114.749 33.6007 114.469 33.358C114.189 33.1153 113.839 32.994 113.419 32.994C113.018 32.994 112.677 33.1107 112.397 33.344C112.127 33.5773 111.959 33.9087 111.893 34.338H114.889ZM125.923 36.97V39H124.705C123.837 39 123.161 38.79 122.675 38.37C122.19 37.9407 121.947 37.2453 121.947 36.284V33.176H120.995V31.188H121.947V29.284H124.341V31.188H125.909V33.176H124.341V36.312C124.341 36.5453 124.397 36.7133 124.509 36.816C124.621 36.9187 124.808 36.97 125.069 36.97H125.923ZM130.813 39.112C130.047 39.112 129.357 38.9487 128.741 38.622C128.134 38.2953 127.653 37.8287 127.299 37.222C126.953 36.6153 126.781 35.906 126.781 35.094C126.781 34.2913 126.958 33.5867 127.313 32.98C127.667 32.364 128.153 31.8927 128.769 31.566C129.385 31.2393 130.075 31.076 130.841 31.076C131.606 31.076 132.297 31.2393 132.913 31.566C133.529 31.8927 134.014 32.364 134.369 32.98C134.723 33.5867 134.901 34.2913 134.901 35.094C134.901 35.8967 134.719 36.606 134.355 37.222C134 37.8287 133.51 38.2953 132.885 38.622C132.269 38.9487 131.578 39.112 130.813 39.112ZM130.813 37.04C131.27 37.04 131.657 36.872 131.975 36.536C132.301 36.2 132.465 35.7193 132.465 35.094C132.465 34.4687 132.306 33.988 131.989 33.652C131.681 33.316 131.298 33.148 130.841 33.148C130.374 33.148 129.987 33.316 129.679 33.652C129.371 33.9787 129.217 34.4593 129.217 35.094C129.217 35.7193 129.366 36.2 129.665 36.536C129.973 36.872 130.355 37.04 130.813 37.04ZM143.492 36.97V39H142.274C141.406 39 140.729 38.79 140.244 38.37C139.758 37.9407 139.516 37.2453 139.516 36.284V33.176H138.564V31.188H139.516V29.284H141.91V31.188H143.478V33.176H141.91V36.312C141.91 36.5453 141.966 36.7133 142.078 36.816C142.19 36.9187 142.376 36.97 142.638 36.97H143.492ZM149.627 31.104C150.523 31.104 151.242 31.4027 151.783 32C152.324 32.588 152.595 33.4 152.595 34.436V39H150.215V34.758C150.215 34.2353 150.08 33.8293 149.809 33.54C149.538 33.2507 149.174 33.106 148.717 33.106C148.26 33.106 147.896 33.2507 147.625 33.54C147.354 33.8293 147.219 34.2353 147.219 34.758V39H144.825V28.64H147.219V32.238C147.462 31.8927 147.793 31.6173 148.213 31.412C148.633 31.2067 149.104 31.104 149.627 31.104ZM161.623 34.968C161.623 35.192 161.609 35.4253 161.581 35.668H156.163C156.2 36.1533 156.354 36.5267 156.625 36.788C156.905 37.04 157.245 37.166 157.647 37.166C158.244 37.166 158.659 36.914 158.893 36.41H161.441C161.31 36.9233 161.072 37.3853 160.727 37.796C160.391 38.2067 159.966 38.5287 159.453 38.762C158.939 38.9953 158.365 39.112 157.731 39.112C156.965 39.112 156.284 38.9487 155.687 38.622C155.089 38.2953 154.623 37.8287 154.287 37.222C153.951 36.6153 153.783 35.906 153.783 35.094C153.783 34.282 153.946 33.5727 154.273 32.966C154.609 32.3593 155.075 31.8927 155.673 31.566C156.27 31.2393 156.956 31.076 157.731 31.076C158.487 31.076 159.159 31.2347 159.747 31.552C160.335 31.8693 160.792 32.322 161.119 32.91C161.455 33.498 161.623 34.184 161.623 34.968ZM159.173 34.338C159.173 33.9273 159.033 33.6007 158.753 33.358C158.473 33.1153 158.123 32.994 157.703 32.994C157.301 32.994 156.961 33.1107 156.681 33.344C156.41 33.5773 156.242 33.9087 156.177 34.338H159.173ZM164.324 52.188L162.21 60H159.564L158.332 54.932L157.058 60H154.426L152.298 52.188H154.692L155.798 57.774L157.114 52.188H159.648L160.978 57.746L162.07 52.188H164.324ZM170.039 52.104C170.935 52.104 171.654 52.4027 172.195 53C172.736 53.588 173.007 54.4 173.007 55.436V60H170.627V55.758C170.627 55.2353 170.492 54.8293 170.221 54.54C169.95 54.2507 169.586 54.106 169.129 54.106C168.672 54.106 168.308 54.2507 168.037 54.54C167.766 54.8293 167.631 55.2353 167.631 55.758V60H165.237V49.64H167.631V53.238C167.874 52.8927 168.205 52.6173 168.625 52.412C169.045 52.2067 169.516 52.104 170.039 52.104ZM182.035 55.968C182.035 56.192 182.021 56.4253 181.993 56.668H176.575C176.612 57.1533 176.766 57.5267 177.037 57.788C177.317 58.04 177.657 58.166 178.059 58.166C178.656 58.166 179.071 57.914 179.305 57.41H181.853C181.722 57.9233 181.484 58.3853 181.139 58.796C180.803 59.2067 180.378 59.5287 179.865 59.762C179.351 59.9953 178.777 60.112 178.143 60.112C177.377 60.112 176.696 59.9487 176.099 59.622C175.501 59.2953 175.035 58.8287 174.699 58.222C174.363 57.6153 174.195 56.906 174.195 56.094C174.195 55.282 174.358 54.5727 174.685 53.966C175.021 53.3593 175.487 52.8927 176.085 52.566C176.682 52.2393 177.368 52.076 178.143 52.076C178.899 52.076 179.571 52.2347 180.159 52.552C180.747 52.8693 181.204 53.322 181.531 53.91C181.867 54.498 182.035 55.184 182.035 55.968ZM179.585 55.338C179.585 54.9273 179.445 54.6007 179.165 54.358C178.885 54.1153 178.535 53.994 178.115 53.994C177.713 53.994 177.373 54.1107 177.093 54.344C176.822 54.5773 176.654 54.9087 176.589 55.338H179.585ZM188.058 52.104C188.972 52.104 189.7 52.4027 190.242 53C190.792 53.588 191.068 54.4 191.068 55.436V60H188.688V55.758C188.688 55.2353 188.552 54.8293 188.282 54.54C188.011 54.2507 187.647 54.106 187.19 54.106C186.732 54.106 186.368 54.2507 186.098 54.54C185.827 54.8293 185.692 55.2353 185.692 55.758V60H183.298V52.188H185.692V53.224C185.934 52.8787 186.261 52.608 186.672 52.412C187.082 52.2067 187.544 52.104 188.058 52.104ZM32.232 76.968C32.232 77.192 32.218 77.4253 32.19 77.668H26.772C26.8093 78.1533 26.9633 78.5267 27.234 78.788C27.514 79.04 27.8547 79.166 28.256 79.166C28.8533 79.166 29.2687 78.914 29.502 78.41H32.05C31.9193 78.9233 31.6813 79.3853 31.336 79.796C31 80.2067 30.5753 80.5287 30.062 80.762C29.5487 80.9953 28.9747 81.112 28.34 81.112C27.5747 81.112 26.8933 80.9487 26.296 80.622C25.6987 80.2953 25.232 79.8287 24.896 79.222C24.56 78.6153 24.392 77.906 24.392 77.094C24.392 76.282 24.5553 75.5727 24.882 74.966C25.218 74.3593 25.6847 73.8927 26.282 73.566C26.8793 73.2393 27.5653 73.076 28.34 73.076C29.096 73.076 29.768 73.2347 30.356 73.552C30.944 73.8693 31.4013 74.322 31.728 74.91C32.064 75.498 32.232 76.184 32.232 76.968ZM29.782 76.338C29.782 75.9273 29.642 75.6007 29.362 75.358C29.082 75.1153 28.732 74.994 28.312 74.994C27.9107 74.994 27.57 75.1107 27.29 75.344C27.0193 75.5773 26.8513 75.9087 26.786 76.338H29.782ZM38.255 73.104C39.1696 73.104 39.8976 73.4027 40.439 74C40.9896 74.588 41.265 75.4 41.265 76.436V81H38.885V76.758C38.885 76.2353 38.7496 75.8293 38.479 75.54C38.2083 75.2507 37.8443 75.106 37.387 75.106C36.9296 75.106 36.5656 75.2507 36.295 75.54C36.0243 75.8293 35.889 76.2353 35.889 76.758V81H33.495V73.188H35.889V74.224C36.1316 73.8787 36.4583 73.608 36.869 73.412C37.2796 73.2067 37.7416 73.104 38.255 73.104ZM44.1185 72.376C43.6985 72.376 43.3532 72.2547 43.0825 72.012C42.8212 71.76 42.6905 71.452 42.6905 71.088C42.6905 70.7147 42.8212 70.4067 43.0825 70.164C43.3532 69.912 43.6985 69.786 44.1185 69.786C44.5292 69.786 44.8652 69.912 45.1265 70.164C45.3972 70.4067 45.5325 70.7147 45.5325 71.088C45.5325 71.452 45.3972 71.76 45.1265 72.012C44.8652 72.2547 44.5292 72.376 44.1185 72.376ZM45.3225 82.008C45.3225 82.9693 45.0799 83.66 44.5945 84.08C44.1092 84.5093 43.4325 84.724 42.5645 84.724H41.6265V82.694H42.2005C42.4619 82.694 42.6485 82.6427 42.7605 82.54C42.8725 82.4373 42.9285 82.2693 42.9285 82.036V73.188H45.3225V82.008ZM50.5998 81.112C49.8344 81.112 49.1438 80.9487 48.5278 80.622C47.9211 80.2953 47.4404 79.8287 47.0858 79.222C46.7404 78.6153 46.5678 77.906 46.5678 77.094C46.5678 76.2913 46.7451 75.5867 47.0998 74.98C47.4544 74.364 47.9398 73.8927 48.5558 73.566C49.1718 73.2393 49.8624 73.076 50.6278 73.076C51.3931 73.076 52.0838 73.2393 52.6998 73.566C53.3158 73.8927 53.8011 74.364 54.1558 74.98C54.5104 75.5867 54.6878 76.2913 54.6878 77.094C54.6878 77.8967 54.5058 78.606 54.1418 79.222C53.7871 79.8287 53.2971 80.2953 52.6718 80.622C52.0558 80.9487 51.3651 81.112 50.5998 81.112ZM50.5998 79.04C51.0571 79.04 51.4444 78.872 51.7618 78.536C52.0884 78.2 52.2518 77.7193 52.2518 77.094C52.2518 76.4687 52.0931 75.988 51.7758 75.652C51.4678 75.316 51.0851 75.148 50.6278 75.148C50.1611 75.148 49.7738 75.316 49.4658 75.652C49.1578 75.9787 49.0038 76.4593 49.0038 77.094C49.0038 77.7193 49.1531 78.2 49.4518 78.536C49.7598 78.872 50.1424 79.04 50.5998 79.04ZM63.9378 73.188L59.0378 84.71H56.4618L58.2538 80.734L55.0758 73.188H57.7498L59.5558 78.074L61.3478 73.188H63.9378ZM66.0075 72.376C65.5875 72.376 65.2422 72.2547 64.9715 72.012C64.7102 71.76 64.5795 71.452 64.5795 71.088C64.5795 70.7147 64.7102 70.4067 64.9715 70.164C65.2422 69.912 65.5875 69.786 66.0075 69.786C66.4182 69.786 66.7542 69.912 67.0155 70.164C67.2862 70.4067 67.4215 70.7147 67.4215 71.088C67.4215 71.452 67.2862 71.76 67.0155 72.012C66.7542 72.2547 66.4182 72.376 66.0075 72.376ZM67.1975 73.188V81H64.8035V73.188H67.1975ZM73.6925 73.104C74.6071 73.104 75.3351 73.4027 75.8765 74C76.4271 74.588 76.7025 75.4 76.7025 76.436V81H74.3225V76.758C74.3225 76.2353 74.1871 75.8293 73.9165 75.54C73.6458 75.2507 73.2818 75.106 72.8245 75.106C72.3671 75.106 72.0031 75.2507 71.7325 75.54C71.4618 75.8293 71.3265 76.2353 71.3265 76.758V81H68.9325V73.188H71.3265V74.224C71.5691 73.8787 71.8958 73.608 72.3065 73.412C72.7171 73.2067 73.1791 73.104 73.6925 73.104ZM81.334 73.076C81.8847 73.076 82.3654 73.188 82.776 73.412C83.196 73.636 83.518 73.93 83.742 74.294V73.188H86.136V80.986C86.136 81.7047 85.9914 82.3533 85.702 82.932C85.422 83.52 84.988 83.9867 84.4 84.332C83.8214 84.6773 83.098 84.85 82.23 84.85C81.0727 84.85 80.1347 84.5747 79.416 84.024C78.6974 83.4827 78.2867 82.7453 78.184 81.812H80.55C80.6247 82.1107 80.802 82.344 81.082 82.512C81.362 82.6893 81.7074 82.778 82.118 82.778C82.6127 82.778 83.0047 82.6333 83.294 82.344C83.5927 82.064 83.742 81.6113 83.742 80.986V79.88C83.5087 80.244 83.1867 80.5427 82.776 80.776C82.3654 81 81.8847 81.112 81.334 81.112C80.69 81.112 80.1067 80.9487 79.584 80.622C79.0614 80.286 78.646 79.8147 78.338 79.208C78.0394 78.592 77.89 77.8827 77.89 77.08C77.89 76.2773 78.0394 75.5727 78.338 74.966C78.646 74.3593 79.0614 73.8927 79.584 73.566C80.1067 73.2393 80.69 73.076 81.334 73.076ZM83.742 77.094C83.742 76.4967 83.574 76.0253 83.238 75.68C82.9114 75.3347 82.51 75.162 82.034 75.162C81.558 75.162 81.152 75.3347 80.816 75.68C80.4894 76.016 80.326 76.4827 80.326 77.08C80.326 77.6773 80.4894 78.1533 80.816 78.508C81.152 78.8533 81.558 79.026 82.034 79.026C82.51 79.026 82.9114 78.8533 83.238 78.508C83.574 78.1627 83.742 77.6913 83.742 77.094ZM102.049 73.188L99.9348 81H97.2888L96.0568 75.932L94.7828 81H92.1508L90.0228 73.188H92.4168L93.5228 78.774L94.8388 73.188H97.3728L98.7028 78.746L99.7948 73.188H102.049ZM104.166 72.376C103.746 72.376 103.4 72.2547 103.13 72.012C102.868 71.76 102.738 71.452 102.738 71.088C102.738 70.7147 102.868 70.4067 103.13 70.164C103.4 69.912 103.746 69.786 104.166 69.786C104.576 69.786 104.912 69.912 105.174 70.164C105.444 70.4067 105.58 70.7147 105.58 71.088C105.58 71.452 105.444 71.76 105.174 72.012C104.912 72.2547 104.576 72.376 104.166 72.376ZM105.356 73.188V81H102.962V73.188H105.356ZM111.445 78.97V81H110.227C109.359 81 108.682 80.79 108.197 80.37C107.711 79.9407 107.469 79.2453 107.469 78.284V75.176H106.517V73.188H107.469V71.284H109.863V73.188H111.431V75.176H109.863V78.312C109.863 78.5453 109.919 78.7133 110.031 78.816C110.143 78.9187 110.329 78.97 110.591 78.97H111.445ZM117.58 73.104C118.476 73.104 119.195 73.4027 119.736 74C120.277 74.588 120.548 75.4 120.548 76.436V81H118.168V76.758C118.168 76.2353 118.033 75.8293 117.762 75.54C117.491 75.2507 117.127 75.106 116.67 75.106C116.213 75.106 115.849 75.2507 115.578 75.54C115.307 75.8293 115.172 76.2353 115.172 76.758V81H112.778V70.64H115.172V74.238C115.415 73.8927 115.746 73.6173 116.166 73.412C116.586 73.2067 117.057 73.104 117.58 73.104Z" fill="#FCFCFC"/>
<path d="M31.266 50.172V52.09H27.262V54.162H30.258V56.024H27.262V60H24.868V50.172H31.266ZM33.7283 51.376C33.3083 51.376 32.9629 51.2547 32.6923 51.012C32.4309 50.76 32.3003 50.452 32.3003 50.088C32.3003 49.7147 32.4309 49.4067 32.6923 49.164C32.9629 48.912 33.3083 48.786 33.7283 48.786C34.1389 48.786 34.4749 48.912 34.7363 49.164C35.0069 49.4067 35.1423 49.7147 35.1423 50.088C35.1423 50.452 35.0069 50.76 34.7363 51.012C34.4749 51.2547 34.1389 51.376 33.7283 51.376ZM34.9183 52.188V60H32.5243V52.188H34.9183ZM41.4132 52.104C42.3278 52.104 43.0558 52.4027 43.5972 53C44.1478 53.588 44.4232 54.4 44.4232 55.436V60H42.0432V55.758C42.0432 55.2353 41.9078 54.8293 41.6372 54.54C41.3665 54.2507 41.0025 54.106 40.5452 54.106C40.0878 54.106 39.7238 54.2507 39.4532 54.54C39.1825 54.8293 39.0472 55.2353 39.0472 55.758V60H36.6532V52.188H39.0472V53.224C39.2898 52.8787 39.6165 52.608 40.0272 52.412C40.4378 52.2067 40.8998 52.104 41.4132 52.104ZM45.6108 56.08C45.6108 55.2773 45.7601 54.5727 46.0588 53.966C46.3668 53.3593 46.7821 52.8927 47.3048 52.566C47.8274 52.2393 48.4108 52.076 49.0548 52.076C49.6054 52.076 50.0861 52.188 50.4968 52.412C50.9168 52.636 51.2388 52.93 51.4628 53.294V52.188H53.8568V60H51.4628V58.894C51.2294 59.258 50.9028 59.552 50.4828 59.776C50.0721 60 49.5914 60.112 49.0408 60.112C48.4061 60.112 47.8274 59.9487 47.3048 59.622C46.7821 59.286 46.3668 58.8147 46.0588 58.208C45.7601 57.592 45.6108 56.8827 45.6108 56.08ZM51.4628 56.094C51.4628 55.4967 51.2948 55.0253 50.9588 54.68C50.6321 54.3347 50.2308 54.162 49.7548 54.162C49.2788 54.162 48.8728 54.3347 48.5368 54.68C48.2101 55.016 48.0468 55.4827 48.0468 56.08C48.0468 56.6773 48.2101 57.1533 48.5368 57.508C48.8728 57.8533 49.2788 58.026 49.7548 58.026C50.2308 58.026 50.6321 57.8533 50.9588 57.508C51.2948 57.1627 51.4628 56.6913 51.4628 56.094ZM60.3487 52.104C61.2634 52.104 61.9914 52.4027 62.5327 53C63.0834 53.588 63.3587 54.4 63.3587 55.436V60H60.9787V55.758C60.9787 55.2353 60.8434 54.8293 60.5727 54.54C60.302 54.2507 59.938 54.106 59.4807 54.106C59.0234 54.106 58.6594 54.2507 58.3887 54.54C58.118 54.8293 57.9827 55.2353 57.9827 55.758V60H55.5887V52.188H57.9827V53.224C58.2254 52.8787 58.552 52.608 58.9627 52.412C59.3734 52.2067 59.8354 52.104 60.3487 52.104ZM64.5463 56.094C64.5463 55.282 64.7096 54.5727 65.0363 53.966C65.3723 53.3593 65.8343 52.8927 66.4223 52.566C67.0196 52.2393 67.701 52.076 68.4663 52.076C69.4463 52.076 70.263 52.3327 70.9163 52.846C71.579 53.3593 72.013 54.0827 72.2183 55.016H69.6703C69.4556 54.4187 69.0403 54.12 68.4243 54.12C67.9856 54.12 67.6356 54.2927 67.3743 54.638C67.113 54.974 66.9823 55.4593 66.9823 56.094C66.9823 56.7287 67.113 57.2187 67.3743 57.564C67.6356 57.9 67.9856 58.068 68.4243 58.068C69.0403 58.068 69.4556 57.7693 69.6703 57.172H72.2183C72.013 58.0867 71.579 58.8053 70.9163 59.328C70.2536 59.8507 69.437 60.112 68.4663 60.112C67.701 60.112 67.0196 59.9487 66.4223 59.622C65.8343 59.2953 65.3723 58.8287 65.0363 58.222C64.7096 57.6153 64.5463 56.906 64.5463 56.094ZM74.7029 51.376C74.2829 51.376 73.9375 51.2547 73.6669 51.012C73.4055 50.76 73.2749 50.452 73.2749 50.088C73.2749 49.7147 73.4055 49.4067 73.6669 49.164C73.9375 48.912 74.2829 48.786 74.7029 48.786C75.1135 48.786 75.4495 48.912 75.7109 49.164C75.9815 49.4067 76.1169 49.7147 76.1169 50.088C76.1169 50.452 75.9815 50.76 75.7109 51.012C75.4495 51.2547 75.1135 51.376 74.7029 51.376ZM75.8929 52.188V60H73.4989V52.188H75.8929ZM77.1518 56.08C77.1518 55.2773 77.3011 54.5727 77.5998 53.966C77.9078 53.3593 78.3231 52.8927 78.8458 52.566C79.3684 52.2393 79.9518 52.076 80.5958 52.076C81.1464 52.076 81.6271 52.188 82.0378 52.412C82.4578 52.636 82.7798 52.93 83.0038 53.294V52.188H85.3978V60H83.0038V58.894C82.7704 59.258 82.4438 59.552 82.0238 59.776C81.6131 60 81.1324 60.112 80.5818 60.112C79.9471 60.112 79.3684 59.9487 78.8458 59.622C78.3231 59.286 77.9078 58.8147 77.5998 58.208C77.3011 57.592 77.1518 56.8827 77.1518 56.08ZM83.0038 56.094C83.0038 55.4967 82.8358 55.0253 82.4998 54.68C82.1731 54.3347 81.7718 54.162 81.2958 54.162C80.8198 54.162 80.4138 54.3347 80.0778 54.68C79.7511 55.016 79.5878 55.4827 79.5878 56.08C79.5878 56.6773 79.7511 57.1533 80.0778 57.508C80.4138 57.8533 80.8198 58.026 81.2958 58.026C81.7718 58.026 82.1731 57.8533 82.4998 57.508C82.8358 57.1627 83.0038 56.6913 83.0038 56.094ZM89.5237 49.64V60H87.1297V49.64H89.5237ZM102.737 50.172V60H100.343V55.954H96.6194V60H94.2254V50.172H96.6194V54.022H100.343V50.172H102.737ZM103.99 56.08C103.99 55.2773 104.139 54.5727 104.438 53.966C104.746 53.3593 105.161 52.8927 105.684 52.566C106.206 52.2393 106.79 52.076 107.434 52.076C107.984 52.076 108.465 52.188 108.876 52.412C109.296 52.636 109.618 52.93 109.842 53.294V52.188H112.236V60H109.842V58.894C109.608 59.258 109.282 59.552 108.862 59.776C108.451 60 107.97 60.112 107.42 60.112C106.785 60.112 106.206 59.9487 105.684 59.622C105.161 59.286 104.746 58.8147 104.438 58.208C104.139 57.592 103.99 56.8827 103.99 56.08ZM109.842 56.094C109.842 55.4967 109.674 55.0253 109.338 54.68C109.011 54.3347 108.61 54.162 108.134 54.162C107.658 54.162 107.252 54.3347 106.916 54.68C106.589 55.016 106.426 55.4827 106.426 56.08C106.426 56.6773 106.589 57.1533 106.916 57.508C107.252 57.8533 107.658 58.026 108.134 58.026C108.61 58.026 109.011 57.8533 109.338 57.508C109.674 57.1627 109.842 56.6913 109.842 56.094ZM117.146 60.112C116.464 60.112 115.858 59.9953 115.326 59.762C114.794 59.5287 114.374 59.2113 114.066 58.81C113.758 58.3993 113.585 57.942 113.548 57.438H115.914C115.942 57.7087 116.068 57.928 116.292 58.096C116.516 58.264 116.791 58.348 117.118 58.348C117.416 58.348 117.645 58.292 117.804 58.18C117.972 58.0587 118.056 57.9047 118.056 57.718C118.056 57.494 117.939 57.3307 117.706 57.228C117.472 57.116 117.094 56.9947 116.572 56.864C116.012 56.7333 115.545 56.598 115.172 56.458C114.798 56.3087 114.476 56.08 114.206 55.772C113.935 55.4547 113.8 55.03 113.8 54.498C113.8 54.05 113.921 53.644 114.164 53.28C114.416 52.9067 114.78 52.6127 115.256 52.398C115.741 52.1833 116.315 52.076 116.978 52.076C117.958 52.076 118.728 52.3187 119.288 52.804C119.857 53.2893 120.184 53.9333 120.268 54.736H118.056C118.018 54.4653 117.897 54.2507 117.692 54.092C117.496 53.9333 117.234 53.854 116.908 53.854C116.628 53.854 116.413 53.91 116.264 54.022C116.114 54.1247 116.04 54.2693 116.04 54.456C116.04 54.68 116.156 54.848 116.39 54.96C116.632 55.072 117.006 55.184 117.51 55.296C118.088 55.4453 118.56 55.5947 118.924 55.744C119.288 55.884 119.605 56.1173 119.876 56.444C120.156 56.7613 120.3 57.1907 120.31 57.732C120.31 58.1893 120.179 58.6 119.918 58.964C119.666 59.3187 119.297 59.5987 118.812 59.804C118.336 60.0093 117.78 60.112 117.146 60.112ZM124.952 60.112C124.271 60.112 123.664 59.9953 123.132 59.762C122.6 59.5287 122.18 59.2113 121.872 58.81C121.564 58.3993 121.392 57.942 121.354 57.438H123.72C123.748 57.7087 123.874 57.928 124.098 58.096C124.322 58.264 124.598 58.348 124.924 58.348C125.223 58.348 125.452 58.292 125.61 58.18C125.778 58.0587 125.862 57.9047 125.862 57.718C125.862 57.494 125.746 57.3307 125.512 57.228C125.279 57.116 124.901 56.9947 124.378 56.864C123.818 56.7333 123.352 56.598 122.978 56.458C122.605 56.3087 122.283 56.08 122.012 55.772C121.742 55.4547 121.606 55.03 121.606 54.498C121.606 54.05 121.728 53.644 121.97 53.28C122.222 52.9067 122.586 52.6127 123.062 52.398C123.548 52.1833 124.122 52.076 124.784 52.076C125.764 52.076 126.534 52.3187 127.094 52.804C127.664 53.2893 127.99 53.9333 128.074 54.736H125.862C125.825 54.4653 125.704 54.2507 125.498 54.092C125.302 53.9333 125.041 53.854 124.714 53.854C124.434 53.854 124.22 53.91 124.07 54.022C123.921 54.1247 123.846 54.2693 123.846 54.456C123.846 54.68 123.963 54.848 124.196 54.96C124.439 55.072 124.812 55.184 125.316 55.296C125.895 55.4453 126.366 55.5947 126.73 55.744C127.094 55.884 127.412 56.1173 127.682 56.444C127.962 56.7613 128.107 57.1907 128.116 57.732C128.116 58.1893 127.986 58.6 127.724 58.964C127.472 59.3187 127.104 59.5987 126.618 59.804C126.142 60.0093 125.587 60.112 124.952 60.112ZM131.975 49.64V60H129.581V49.64H131.975ZM141.074 55.968C141.074 56.192 141.06 56.4253 141.032 56.668H135.614C135.651 57.1533 135.805 57.5267 136.076 57.788C136.356 58.04 136.696 58.166 137.098 58.166C137.695 58.166 138.11 57.914 138.344 57.41H140.892C140.761 57.9233 140.523 58.3853 140.178 58.796C139.842 59.2067 139.417 59.5287 138.904 59.762C138.39 59.9953 137.816 60.112 137.182 60.112C136.416 60.112 135.735 59.9487 135.138 59.622C134.54 59.2953 134.074 58.8287 133.738 58.222C133.402 57.6153 133.234 56.906 133.234 56.094C133.234 55.282 133.397 54.5727 133.724 53.966C134.06 53.3593 134.526 52.8927 135.124 52.566C135.721 52.2393 136.407 52.076 137.182 52.076C137.938 52.076 138.61 52.2347 139.198 52.552C139.786 52.8693 140.243 53.322 140.57 53.91C140.906 54.498 141.074 55.184 141.074 55.968ZM138.624 55.338C138.624 54.9273 138.484 54.6007 138.204 54.358C137.924 54.1153 137.574 53.994 137.154 53.994C136.752 53.994 136.412 54.1107 136.132 54.344C135.861 54.5773 135.693 54.9087 135.628 55.338H138.624ZM145.515 60.112C144.833 60.112 144.227 59.9953 143.695 59.762C143.163 59.5287 142.743 59.2113 142.435 58.81C142.127 58.3993 141.954 57.942 141.917 57.438H144.283C144.311 57.7087 144.437 57.928 144.661 58.096C144.885 58.264 145.16 58.348 145.487 58.348C145.785 58.348 146.014 58.292 146.173 58.18C146.341 58.0587 146.425 57.9047 146.425 57.718C146.425 57.494 146.308 57.3307 146.075 57.228C145.841 57.116 145.463 56.9947 144.941 56.864C144.381 56.7333 143.914 56.598 143.541 56.458C143.167 56.3087 142.845 56.08 142.575 55.772C142.304 55.4547 142.169 55.03 142.169 54.498C142.169 54.05 142.29 53.644 142.533 53.28C142.785 52.9067 143.149 52.6127 143.625 52.398C144.11 52.1833 144.684 52.076 145.347 52.076C146.327 52.076 147.097 52.3187 147.657 52.804C148.226 53.2893 148.553 53.9333 148.637 54.736H146.425C146.387 54.4653 146.266 54.2507 146.061 54.092C145.865 53.9333 145.603 53.854 145.277 53.854C144.997 53.854 144.782 53.91 144.633 54.022C144.483 54.1247 144.409 54.2693 144.409 54.456C144.409 54.68 144.525 54.848 144.759 54.96C145.001 55.072 145.375 55.184 145.879 55.296C146.457 55.4453 146.929 55.5947 147.293 55.744C147.657 55.884 147.974 56.1173 148.245 56.444C148.525 56.7613 148.669 57.1907 148.679 57.732C148.679 58.1893 148.548 58.6 148.287 58.964C148.035 59.3187 147.666 59.5987 147.181 59.804C146.705 60.0093 146.149 60.112 145.515 60.112ZM131.577 71.172V73.09H127.573V75.162H130.569V77.024H127.573V81H125.179V71.172H131.577ZM135.229 74.49C135.509 74.0607 135.859 73.7247 136.279 73.482C136.699 73.23 137.165 73.104 137.679 73.104V75.638H137.021C136.423 75.638 135.975 75.7687 135.677 76.03C135.378 76.282 135.229 76.73 135.229 77.374V81H132.835V73.188H135.229V74.49ZM140.027 72.376C139.607 72.376 139.262 72.2547 138.991 72.012C138.73 71.76 138.599 71.452 138.599 71.088C138.599 70.7147 138.73 70.4067 138.991 70.164C139.262 69.912 139.607 69.786 140.027 69.786C140.438 69.786 140.774 69.912 141.035 70.164C141.306 70.4067 141.441 70.7147 141.441 71.088C141.441 71.452 141.306 71.76 141.035 72.012C140.774 72.2547 140.438 72.376 140.027 72.376ZM141.217 73.188V81H138.823V73.188H141.217ZM150.316 76.968C150.316 77.192 150.302 77.4253 150.274 77.668H144.856C144.893 78.1533 145.047 78.5267 145.318 78.788C145.598 79.04 145.939 79.166 146.34 79.166C146.937 79.166 147.353 78.914 147.586 78.41H150.134C150.003 78.9233 149.765 79.3853 149.42 79.796C149.084 80.2067 148.659 80.5287 148.146 80.762C147.633 80.9953 147.059 81.112 146.424 81.112C145.659 81.112 144.977 80.9487 144.38 80.622C143.783 80.2953 143.316 79.8287 142.98 79.222C142.644 78.6153 142.476 77.906 142.476 77.094C142.476 76.282 142.639 75.5727 142.966 74.966C143.302 74.3593 143.769 73.8927 144.366 73.566C144.963 73.2393 145.649 73.076 146.424 73.076C147.18 73.076 147.852 73.2347 148.44 73.552C149.028 73.8693 149.485 74.322 149.812 74.91C150.148 75.498 150.316 76.184 150.316 76.968ZM147.866 76.338C147.866 75.9273 147.726 75.6007 147.446 75.358C147.166 75.1153 146.816 74.994 146.396 74.994C145.995 74.994 145.654 75.1107 145.374 75.344C145.103 75.5773 144.935 75.9087 144.87 76.338H147.866ZM156.339 73.104C157.254 73.104 157.982 73.4027 158.523 74C159.074 74.588 159.349 75.4 159.349 76.436V81H156.969V76.758C156.969 76.2353 156.834 75.8293 156.563 75.54C156.292 75.2507 155.928 75.106 155.471 75.106C155.014 75.106 154.65 75.2507 154.379 75.54C154.108 75.8293 153.973 76.2353 153.973 76.758V81H151.579V73.188H153.973V74.224C154.216 73.8787 154.542 73.608 154.953 73.412C155.364 73.2067 155.826 73.104 156.339 73.104ZM160.537 77.08C160.537 76.2773 160.686 75.5727 160.985 74.966C161.293 74.3593 161.708 73.8927 162.231 73.566C162.753 73.2393 163.337 73.076 163.981 73.076C164.494 73.076 164.961 73.1833 165.381 73.398C165.81 73.6127 166.146 73.902 166.389 74.266V70.64H168.783V81H166.389V79.88C166.165 80.2533 165.843 80.552 165.423 80.776C165.012 81 164.531 81.112 163.981 81.112C163.337 81.112 162.753 80.9487 162.231 80.622C161.708 80.286 161.293 79.8147 160.985 79.208C160.686 78.592 160.537 77.8827 160.537 77.08ZM166.389 77.094C166.389 76.4967 166.221 76.0253 165.885 75.68C165.558 75.3347 165.157 75.162 164.681 75.162C164.205 75.162 163.799 75.3347 163.463 75.68C163.136 76.016 162.973 76.4827 162.973 77.08C162.973 77.6773 163.136 78.1533 163.463 78.508C163.799 78.8533 164.205 79.026 164.681 79.026C165.157 79.026 165.558 78.8533 165.885 78.508C166.221 78.1627 166.389 77.6913 166.389 77.094ZM173.692 81.112C173.011 81.112 172.404 80.9953 171.872 80.762C171.34 80.5287 170.92 80.2113 170.612 79.81C170.304 79.3993 170.132 78.942 170.094 78.438H172.46C172.488 78.7087 172.614 78.928 172.838 79.096C173.062 79.264 173.338 79.348 173.664 79.348C173.963 79.348 174.192 79.292 174.35 79.18C174.518 79.0587 174.602 78.9047 174.602 78.718C174.602 78.494 174.486 78.3307 174.252 78.228C174.019 78.116 173.641 77.9947 173.118 77.864C172.558 77.7333 172.092 77.598 171.718 77.458C171.345 77.3087 171.023 77.08 170.752 76.772C170.482 76.4547 170.346 76.03 170.346 75.498C170.346 75.05 170.468 74.644 170.71 74.28C170.962 73.9067 171.326 73.6127 171.802 73.398C172.288 73.1833 172.862 73.076 173.524 73.076C174.504 73.076 175.274 73.3187 175.834 73.804C176.404 74.2893 176.73 74.9333 176.814 75.736H174.602C174.565 75.4653 174.444 75.2507 174.238 75.092C174.042 74.9333 173.781 74.854 173.454 74.854C173.174 74.854 172.96 74.91 172.81 75.022C172.661 75.1247 172.586 75.2693 172.586 75.456C172.586 75.68 172.703 75.848 172.936 75.96C173.179 76.072 173.552 76.184 174.056 76.296C174.635 76.4453 175.106 76.5947 175.47 76.744C175.834 76.884 176.152 77.1173 176.422 77.444C176.702 77.7613 176.847 78.1907 176.856 78.732C176.856 79.1893 176.726 79.6 176.464 79.964C176.212 80.3187 175.844 80.5987 175.358 80.804C174.882 81.0093 174.327 81.112 173.692 81.112Z" fill="#4E57E7"/>
<path opacity="0.5" d="M29.808 107.66V108.776H26.268V111.236H29.028V112.352H26.268V116H24.9V107.66H29.808ZM33.9438 116.108C33.3198 116.108 32.7558 115.968 32.2518 115.688C31.7478 115.4 31.3518 115 31.0638 114.488C30.7758 113.968 30.6318 113.368 30.6318 112.688C30.6318 112.016 30.7798 111.42 31.0758 110.9C31.3718 110.38 31.7758 109.98 32.2878 109.7C32.7998 109.42 33.3718 109.28 34.0038 109.28C34.6358 109.28 35.2078 109.42 35.7198 109.7C36.2318 109.98 36.6358 110.38 36.9318 110.9C37.2278 111.42 37.3758 112.016 37.3758 112.688C37.3758 113.36 37.2238 113.956 36.9198 114.476C36.6158 114.996 36.1998 115.4 35.6718 115.688C35.1518 115.968 34.5758 116.108 33.9438 116.108ZM33.9438 114.92C34.2958 114.92 34.6238 114.836 34.9278 114.668C35.2398 114.5 35.4918 114.248 35.6838 113.912C35.8758 113.576 35.9718 113.168 35.9718 112.688C35.9718 112.208 35.8798 111.804 35.6958 111.476C35.5118 111.14 35.2678 110.888 34.9638 110.72C34.6598 110.552 34.3318 110.468 33.9798 110.468C33.6278 110.468 33.2998 110.552 32.9958 110.72C32.6998 110.888 32.4638 111.14 32.2878 111.476C32.1118 111.804 32.0238 112.208 32.0238 112.688C32.0238 113.4 32.2038 113.952 32.5638 114.344C32.9318 114.728 33.3918 114.92 33.9438 114.92ZM38.2721 112.688C38.2721 112.008 38.4081 111.412 38.6801 110.9C38.9601 110.38 39.3441 109.98 39.8321 109.7C40.3201 109.42 40.8801 109.28 41.5121 109.28C42.3121 109.28 42.9721 109.472 43.4921 109.856C44.0201 110.232 44.3761 110.772 44.5601 111.476H43.0841C42.9641 111.148 42.7721 110.892 42.5081 110.708C42.2441 110.524 41.9121 110.432 41.5121 110.432C40.9521 110.432 40.5041 110.632 40.1681 111.032C39.8401 111.424 39.6761 111.976 39.6761 112.688C39.6761 113.4 39.8401 113.956 40.1681 114.356C40.5041 114.756 40.9521 114.956 41.5121 114.956C42.3041 114.956 42.8281 114.608 43.0841 113.912H44.5601C44.3681 114.584 44.0081 115.12 43.4801 115.52C42.9521 115.912 42.2961 116.108 41.5121 116.108C40.8801 116.108 40.3201 115.968 39.8321 115.688C39.3441 115.4 38.9601 115 38.6801 114.488C38.4081 113.968 38.2721 113.368 38.2721 112.688ZM51.9114 109.388V116H50.5434V115.22C50.3274 115.492 50.0434 115.708 49.6914 115.868C49.3474 116.02 48.9794 116.096 48.5874 116.096C48.0674 116.096 47.5994 115.988 47.1834 115.772C46.7754 115.556 46.4514 115.236 46.2114 114.812C45.9794 114.388 45.8634 113.876 45.8634 113.276V109.388H47.2194V113.072C47.2194 113.664 47.3674 114.12 47.6634 114.44C47.9594 114.752 48.3634 114.908 48.8754 114.908C49.3874 114.908 49.7914 114.752 50.0874 114.44C50.3914 114.12 50.5434 113.664 50.5434 113.072V109.388H51.9114ZM56.1164 116.108C55.5964 116.108 55.1284 116.016 54.7124 115.832C54.3044 115.64 53.9804 115.384 53.7404 115.064C53.5004 114.736 53.3724 114.372 53.3564 113.972H54.7724C54.7964 114.252 54.9284 114.488 55.1684 114.68C55.4164 114.864 55.7244 114.956 56.0924 114.956C56.4764 114.956 56.7724 114.884 56.9804 114.74C57.1964 114.588 57.3044 114.396 57.3044 114.164C57.3044 113.916 57.1844 113.732 56.9444 113.612C56.7124 113.492 56.3404 113.36 55.8284 113.216C55.3324 113.08 54.9284 112.948 54.6164 112.82C54.3044 112.692 54.0324 112.496 53.8004 112.232C53.5764 111.968 53.4644 111.62 53.4644 111.188C53.4644 110.836 53.5684 110.516 53.7764 110.228C53.9844 109.932 54.2804 109.7 54.6644 109.532C55.0564 109.364 55.5044 109.28 56.0084 109.28C56.7604 109.28 57.3644 109.472 57.8204 109.856C58.2844 110.232 58.5324 110.748 58.5644 111.404H57.1964C57.1724 111.108 57.0524 110.872 56.8364 110.696C56.6204 110.52 56.3284 110.432 55.9604 110.432C55.6004 110.432 55.3244 110.5 55.1324 110.636C54.9404 110.772 54.8444 110.952 54.8444 111.176C54.8444 111.352 54.9084 111.5 55.0364 111.62C55.1644 111.74 55.3204 111.836 55.5044 111.908C55.6884 111.972 55.9604 112.056 56.3204 112.16C56.8004 112.288 57.1924 112.42 57.4964 112.556C57.8084 112.684 58.0764 112.876 58.3004 113.132C58.5244 113.388 58.6404 113.728 58.6484 114.152C58.6484 114.528 58.5444 114.864 58.3364 115.16C58.1284 115.456 57.8324 115.688 57.4484 115.856C57.0724 116.024 56.6284 116.108 56.1164 116.108ZM66.1118 116.108C65.4878 116.108 64.9238 115.968 64.4198 115.688C63.9158 115.4 63.5198 115 63.2318 114.488C62.9438 113.968 62.7998 113.368 62.7998 112.688C62.7998 112.016 62.9478 111.42 63.2438 110.9C63.5398 110.38 63.9438 109.98 64.4558 109.7C64.9678 109.42 65.5398 109.28 66.1718 109.28C66.8038 109.28 67.3758 109.42 67.8878 109.7C68.3998 109.98 68.8038 110.38 69.0998 110.9C69.3958 111.42 69.5438 112.016 69.5438 112.688C69.5438 113.36 69.3918 113.956 69.0878 114.476C68.7838 114.996 68.3678 115.4 67.8398 115.688C67.3198 115.968 66.7438 116.108 66.1118 116.108ZM66.1118 114.92C66.4638 114.92 66.7918 114.836 67.0958 114.668C67.4078 114.5 67.6598 114.248 67.8518 113.912C68.0438 113.576 68.1398 113.168 68.1398 112.688C68.1398 112.208 68.0478 111.804 67.8638 111.476C67.6798 111.14 67.4358 110.888 67.1318 110.72C66.8278 110.552 66.4998 110.468 66.1478 110.468C65.7958 110.468 65.4678 110.552 65.1638 110.72C64.8678 110.888 64.6318 111.14 64.4558 111.476C64.2798 111.804 64.1918 112.208 64.1918 112.688C64.1918 113.4 64.3718 113.952 64.7318 114.344C65.0998 114.728 65.5598 114.92 66.1118 114.92ZM74.2321 109.28C74.7521 109.28 75.2161 109.388 75.6241 109.604C76.0401 109.82 76.3641 110.14 76.5961 110.564C76.8281 110.988 76.9441 111.5 76.9441 112.1V116H75.5881V112.304C75.5881 111.712 75.4401 111.26 75.1441 110.948C74.8481 110.628 74.4441 110.468 73.9321 110.468C73.4201 110.468 73.0121 110.628 72.7081 110.948C72.4121 111.26 72.2641 111.712 72.2641 112.304V116H70.8961V109.388H72.2641V110.144C72.4881 109.872 72.7721 109.66 73.1161 109.508C73.4681 109.356 73.8401 109.28 74.2321 109.28ZM84.2063 116.108C83.6863 116.108 83.2183 116.016 82.8023 115.832C82.3943 115.64 82.0703 115.384 81.8303 115.064C81.5903 114.736 81.4623 114.372 81.4463 113.972H82.8623C82.8863 114.252 83.0183 114.488 83.2583 114.68C83.5063 114.864 83.8143 114.956 84.1823 114.956C84.5663 114.956 84.8623 114.884 85.0703 114.74C85.2863 114.588 85.3943 114.396 85.3943 114.164C85.3943 113.916 85.2743 113.732 85.0343 113.612C84.8023 113.492 84.4303 113.36 83.9183 113.216C83.4223 113.08 83.0183 112.948 82.7063 112.82C82.3943 112.692 82.1223 112.496 81.8903 112.232C81.6663 111.968 81.5543 111.62 81.5543 111.188C81.5543 110.836 81.6583 110.516 81.8663 110.228C82.0743 109.932 82.3703 109.7 82.7543 109.532C83.1463 109.364 83.5943 109.28 84.0983 109.28C84.8503 109.28 85.4543 109.472 85.9103 109.856C86.3743 110.232 86.6223 110.748 86.6543 111.404H85.2863C85.2623 111.108 85.1423 110.872 84.9263 110.696C84.7103 110.52 84.4183 110.432 84.0503 110.432C83.6903 110.432 83.4143 110.5 83.2223 110.636C83.0303 110.772 82.9343 110.952 82.9343 111.176C82.9343 111.352 82.9983 111.5 83.1263 111.62C83.2543 111.74 83.4103 111.836 83.5943 111.908C83.7783 111.972 84.0503 112.056 84.4103 112.16C84.8903 112.288 85.2823 112.42 85.5863 112.556C85.8983 112.684 86.1663 112.876 86.3903 113.132C86.6143 113.388 86.7303 113.728 86.7383 114.152C86.7383 114.528 86.6343 114.864 86.4263 115.16C86.2183 115.456 85.9223 115.688 85.5383 115.856C85.1623 116.024 84.7183 116.108 84.2063 116.108ZM89.5844 110.36C89.8164 110.056 90.1324 109.8 90.5324 109.592C90.9324 109.384 91.3844 109.28 91.8884 109.28C92.4644 109.28 92.9884 109.424 93.4604 109.712C93.9404 109.992 94.3164 110.388 94.5884 110.9C94.8604 111.412 94.9964 112 94.9964 112.664C94.9964 113.328 94.8604 113.924 94.5884 114.452C94.3164 114.972 93.9404 115.38 93.4604 115.676C92.9884 115.964 92.4644 116.108 91.8884 116.108C91.3844 116.108 90.9364 116.008 90.5444 115.808C90.1524 115.6 89.8324 115.344 89.5844 115.04V119.144H88.2164V109.388H89.5844V110.36ZM93.6044 112.664C93.6044 112.208 93.5084 111.816 93.3164 111.488C93.1324 111.152 92.8844 110.9 92.5724 110.732C92.2684 110.556 91.9404 110.468 91.5884 110.468C91.2444 110.468 90.9164 110.556 90.6044 110.732C90.3004 110.908 90.0524 111.164 89.8604 111.5C89.6764 111.836 89.5844 112.232 89.5844 112.688C89.5844 113.144 89.6764 113.544 89.8604 113.888C90.0524 114.224 90.3004 114.48 90.6044 114.656C90.9164 114.832 91.2444 114.92 91.5884 114.92C91.9404 114.92 92.2684 114.832 92.5724 114.656C92.8844 114.472 93.1324 114.208 93.3164 113.864C93.5084 113.52 93.6044 113.12 93.6044 112.664ZM102.409 112.532C102.409 112.78 102.393 113.004 102.361 113.204H97.3092C97.3492 113.732 97.5452 114.156 97.8972 114.476C98.2492 114.796 98.6812 114.956 99.1932 114.956C99.9292 114.956 100.449 114.648 100.753 114.032H102.229C102.029 114.64 101.665 115.14 101.137 115.532C100.617 115.916 99.9692 116.108 99.1932 116.108C98.5612 116.108 97.9932 115.968 97.4892 115.688C96.9932 115.4 96.6012 115 96.3132 114.488C96.0332 113.968 95.8932 113.368 95.8932 112.688C95.8932 112.008 96.0292 111.412 96.3012 110.9C96.5812 110.38 96.9692 109.98 97.4652 109.7C97.9692 109.42 98.5452 109.28 99.1932 109.28C99.8172 109.28 100.373 109.416 100.861 109.688C101.349 109.96 101.729 110.344 102.001 110.84C102.273 111.328 102.409 111.892 102.409 112.532ZM100.981 112.1C100.973 111.596 100.793 111.192 100.441 110.888C100.089 110.584 99.6532 110.432 99.1332 110.432C98.6612 110.432 98.2572 110.584 97.9212 110.888C97.5852 111.184 97.3852 111.588 97.3212 112.1H100.981ZM107.091 109.28C107.611 109.28 108.075 109.388 108.483 109.604C108.899 109.82 109.223 110.14 109.455 110.564C109.687 110.988 109.803 111.5 109.803 112.1V116H108.447V112.304C108.447 111.712 108.299 111.26 108.003 110.948C107.707 110.628 107.303 110.468 106.791 110.468C106.279 110.468 105.871 110.628 105.567 110.948C105.271 111.26 105.123 111.712 105.123 112.304V116H103.755V109.388H105.123V110.144C105.347 109.872 105.631 109.66 105.975 109.508C106.327 109.356 106.699 109.28 107.091 109.28ZM111.092 112.664C111.092 112 111.228 111.412 111.5 110.9C111.78 110.388 112.156 109.992 112.628 109.712C113.108 109.424 113.64 109.28 114.224 109.28C114.656 109.28 115.08 109.376 115.496 109.568C115.92 109.752 116.256 110 116.504 110.312V107.12H117.884V116H116.504V115.004C116.28 115.324 115.968 115.588 115.568 115.796C115.176 116.004 114.724 116.108 114.212 116.108C113.636 116.108 113.108 115.964 112.628 115.676C112.156 115.38 111.78 114.972 111.5 114.452C111.228 113.924 111.092 113.328 111.092 112.664ZM116.504 112.688C116.504 112.232 116.408 111.836 116.216 111.5C116.032 111.164 115.788 110.908 115.484 110.732C115.18 110.556 114.852 110.468 114.5 110.468C114.148 110.468 113.82 110.556 113.516 110.732C113.212 110.9 112.964 111.152 112.772 111.488C112.588 111.816 112.496 112.208 112.496 112.664C112.496 113.12 112.588 113.52 112.772 113.864C112.964 114.208 113.212 114.472 113.516 114.656C113.828 114.832 114.156 114.92 114.5 114.92C114.852 114.92 115.18 114.832 115.484 114.656C115.788 114.48 116.032 114.224 116.216 113.888C116.408 113.544 116.504 113.144 116.504 112.688ZM120.377 108.512C120.129 108.512 119.921 108.428 119.753 108.26C119.585 108.092 119.501 107.884 119.501 107.636C119.501 107.388 119.585 107.18 119.753 107.012C119.921 106.844 120.129 106.76 120.377 106.76C120.617 106.76 120.821 106.844 120.989 107.012C121.157 107.18 121.241 107.388 121.241 107.636C121.241 107.884 121.157 108.092 120.989 108.26C120.821 108.428 120.617 108.512 120.377 108.512ZM121.049 109.388V116H119.681V109.388H121.049ZM126.181 109.28C126.701 109.28 127.165 109.388 127.573 109.604C127.989 109.82 128.313 110.14 128.545 110.564C128.777 110.988 128.893 111.5 128.893 112.1V116H127.537V112.304C127.537 111.712 127.389 111.26 127.093 110.948C126.797 110.628 126.393 110.468 125.881 110.468C125.369 110.468 124.961 110.628 124.657 110.948C124.361 111.26 124.213 111.712 124.213 112.304V116H122.845V109.388H124.213V110.144C124.437 109.872 124.721 109.66 125.065 109.508C125.417 109.356 125.789 109.28 126.181 109.28ZM133.302 109.28C133.814 109.28 134.266 109.384 134.658 109.592C135.058 109.792 135.37 110.044 135.594 110.348V109.388H136.974V116.108C136.974 116.716 136.846 117.256 136.59 117.728C136.334 118.208 135.962 118.584 135.474 118.856C134.994 119.128 134.418 119.264 133.746 119.264C132.85 119.264 132.106 119.052 131.514 118.628C130.922 118.212 130.586 117.644 130.506 116.924H131.862C131.966 117.268 132.186 117.544 132.522 117.752C132.866 117.968 133.274 118.076 133.746 118.076C134.298 118.076 134.742 117.908 135.078 117.572C135.422 117.236 135.594 116.748 135.594 116.108V115.004C135.362 115.316 135.046 115.58 134.646 115.796C134.254 116.004 133.806 116.108 133.302 116.108C132.726 116.108 132.198 115.964 131.718 115.676C131.246 115.38 130.87 114.972 130.59 114.452C130.318 113.924 130.182 113.328 130.182 112.664C130.182 112 130.318 111.412 130.59 110.9C130.87 110.388 131.246 109.992 131.718 109.712C132.198 109.424 132.726 109.28 133.302 109.28ZM135.594 112.688C135.594 112.232 135.498 111.836 135.306 111.5C135.122 111.164 134.878 110.908 134.574 110.732C134.27 110.556 133.942 110.468 133.59 110.468C133.238 110.468 132.91 110.556 132.606 110.732C132.302 110.9 132.054 111.152 131.862 111.488C131.678 111.816 131.586 112.208 131.586 112.664C131.586 113.12 131.678 113.52 131.862 113.864C132.054 114.208 132.302 114.472 132.606 114.656C132.918 114.832 133.246 114.92 133.59 114.92C133.942 114.92 134.27 114.832 134.574 114.656C134.878 114.48 135.122 114.224 135.306 113.888C135.498 113.544 135.594 113.144 135.594 112.688ZM143.484 110.504V114.164C143.484 114.412 143.54 114.592 143.652 114.704C143.772 114.808 143.972 114.86 144.252 114.86H145.092V116H144.012C143.396 116 142.924 115.856 142.596 115.568C142.268 115.28 142.104 114.812 142.104 114.164V110.504H141.324V109.388H142.104V107.744H143.484V109.388H145.092V110.504H143.484ZM147.049 108.512C146.801 108.512 146.593 108.428 146.425 108.26C146.257 108.092 146.173 107.884 146.173 107.636C146.173 107.388 146.257 107.18 146.425 107.012C146.593 106.844 146.801 106.76 147.049 106.76C147.289 106.76 147.493 106.844 147.661 107.012C147.829 107.18 147.913 107.388 147.913 107.636C147.913 107.884 147.829 108.092 147.661 108.26C147.493 108.428 147.289 108.512 147.049 108.512ZM147.721 109.388V116H146.353V109.388H147.721ZM157.521 109.28C158.041 109.28 158.505 109.388 158.913 109.604C159.329 109.82 159.653 110.14 159.885 110.564C160.125 110.988 160.245 111.5 160.245 112.1V116H158.889V112.304C158.889 111.712 158.741 111.26 158.445 110.948C158.149 110.628 157.745 110.468 157.233 110.468C156.721 110.468 156.313 110.628 156.009 110.948C155.713 111.26 155.565 111.712 155.565 112.304V116H154.209V112.304C154.209 111.712 154.061 111.26 153.765 110.948C153.469 110.628 153.065 110.468 152.553 110.468C152.041 110.468 151.633 110.628 151.329 110.948C151.033 111.26 150.885 111.712 150.885 112.304V116H149.517V109.388H150.885V110.144C151.109 109.872 151.393 109.66 151.737 109.508C152.081 109.356 152.449 109.28 152.841 109.28C153.369 109.28 153.841 109.392 154.257 109.616C154.673 109.84 154.993 110.164 155.217 110.588C155.417 110.188 155.729 109.872 156.153 109.64C156.577 109.4 157.033 109.28 157.521 109.28ZM168.046 112.532C168.046 112.78 168.03 113.004 167.998 113.204H162.946C162.986 113.732 163.182 114.156 163.534 114.476C163.886 114.796 164.318 114.956 164.83 114.956C165.566 114.956 166.086 114.648 166.39 114.032H167.866C167.666 114.64 167.302 115.14 166.774 115.532C166.254 115.916 165.606 116.108 164.83 116.108C164.198 116.108 163.63 115.968 163.126 115.688C162.63 115.4 162.238 115 161.95 114.488C161.67 113.968 161.53 113.368 161.53 112.688C161.53 112.008 161.666 111.412 161.938 110.9C162.218 110.38 162.606 109.98 163.102 109.7C163.606 109.42 164.182 109.28 164.83 109.28C165.454 109.28 166.01 109.416 166.498 109.688C166.986 109.96 167.366 110.344 167.638 110.84C167.91 111.328 168.046 111.892 168.046 112.532ZM166.618 112.1C166.61 111.596 166.43 111.192 166.078 110.888C165.726 110.584 165.29 110.432 164.77 110.432C164.298 110.432 163.894 110.584 163.558 110.888C163.222 111.184 163.022 111.588 162.958 112.1H166.618ZM181.389 109.388L179.337 116H177.897L176.565 111.116L175.233 116H173.793L171.729 109.388H173.121L174.501 114.704L175.905 109.388H177.333L178.677 114.68L180.045 109.388H181.389ZM183.108 108.512C182.86 108.512 182.652 108.428 182.484 108.26C182.316 108.092 182.232 107.884 182.232 107.636C182.232 107.388 182.316 107.18 182.484 107.012C182.652 106.844 182.86 106.76 183.108 106.76C183.348 106.76 183.552 106.844 183.72 107.012C183.888 107.18 183.972 107.388 183.972 107.636C183.972 107.884 183.888 108.092 183.72 108.26C183.552 108.428 183.348 108.512 183.108 108.512ZM183.78 109.388V116H182.412V109.388H183.78ZM187.172 110.504V114.164C187.172 114.412 187.228 114.592 187.34 114.704C187.46 114.808 187.66 114.86 187.94 114.86H188.78V116H187.7C187.084 116 186.612 115.856 186.284 115.568C185.956 115.28 185.792 114.812 185.792 114.164V110.504H185.012V109.388H185.792V107.744H187.172V109.388H188.78V110.504H187.172ZM193.461 109.28C193.965 109.28 194.413 109.388 194.805 109.604C195.205 109.82 195.517 110.14 195.741 110.564C195.973 110.988 196.089 111.5 196.089 112.1V116H194.733V112.304C194.733 111.712 194.585 111.26 194.289 110.948C193.993 110.628 193.589 110.468 193.077 110.468C192.565 110.468 192.157 110.628 191.853 110.948C191.557 111.26 191.409 111.712 191.409 112.304V116H190.041V107.12H191.409V110.156C191.641 109.876 191.933 109.66 192.285 109.508C192.645 109.356 193.037 109.28 193.461 109.28ZM30.852 127.388L26.796 137.108H25.38L26.724 133.892L24.12 127.388H25.644L27.504 132.428L29.436 127.388H30.852ZM34.7524 134.108C34.1284 134.108 33.5644 133.968 33.0604 133.688C32.5564 133.4 32.1604 133 31.8724 132.488C31.5844 131.968 31.4404 131.368 31.4404 130.688C31.4404 130.016 31.5884 129.42 31.8844 128.9C32.1804 128.38 32.5844 127.98 33.0964 127.7C33.6084 127.42 34.1804 127.28 34.8124 127.28C35.4444 127.28 36.0164 127.42 36.5284 127.7C37.0404 127.98 37.4444 128.38 37.7404 128.9C38.0364 129.42 38.1844 130.016 38.1844 130.688C38.1844 131.36 38.0324 131.956 37.7284 132.476C37.4244 132.996 37.0084 133.4 36.4804 133.688C35.9604 133.968 35.3844 134.108 34.7524 134.108ZM34.7524 132.92C35.1044 132.92 35.4324 132.836 35.7364 132.668C36.0484 132.5 36.3004 132.248 36.4924 131.912C36.6844 131.576 36.7804 131.168 36.7804 130.688C36.7804 130.208 36.6884 129.804 36.5044 129.476C36.3204 129.14 36.0764 128.888 35.7724 128.72C35.4684 128.552 35.1404 128.468 34.7884 128.468C34.4364 128.468 34.1084 128.552 33.8044 128.72C33.5084 128.888 33.2724 129.14 33.0964 129.476C32.9204 129.804 32.8324 130.208 32.8324 130.688C32.8324 131.4 33.0124 131.952 33.3724 132.344C33.7404 132.728 34.2004 132.92 34.7524 132.92ZM45.5247 127.388V134H44.1567V133.22C43.9407 133.492 43.6567 133.708 43.3047 133.868C42.9607 134.02 42.5927 134.096 42.2007 134.096C41.6807 134.096 41.2127 133.988 40.7967 133.772C40.3887 133.556 40.0647 133.236 39.8247 132.812C39.5927 132.388 39.4767 131.876 39.4767 131.276V127.388H40.8327V131.072C40.8327 131.664 40.9807 132.12 41.2767 132.44C41.5727 132.752 41.9767 132.908 42.4887 132.908C43.0007 132.908 43.4047 132.752 43.7007 132.44C44.0047 132.12 44.1567 131.664 44.1567 131.072V127.388H45.5247ZM48.6977 128.348C48.8977 128.012 49.1617 127.752 49.4897 127.568C49.8257 127.376 50.2217 127.28 50.6777 127.28V128.696H50.3297C49.7937 128.696 49.3857 128.832 49.1057 129.104C48.8337 129.376 48.6977 129.848 48.6977 130.52V134H47.3297V127.388H48.6977V128.348ZM54.5963 130.688C54.5963 130.008 54.7323 129.412 55.0043 128.9C55.2843 128.38 55.6683 127.98 56.1563 127.7C56.6443 127.42 57.2043 127.28 57.8363 127.28C58.6363 127.28 59.2963 127.472 59.8163 127.856C60.3443 128.232 60.7003 128.772 60.8843 129.476H59.4083C59.2883 129.148 59.0963 128.892 58.8323 128.708C58.5683 128.524 58.2363 128.432 57.8363 128.432C57.2763 128.432 56.8283 128.632 56.4923 129.032C56.1643 129.424 56.0003 129.976 56.0003 130.688C56.0003 131.4 56.1643 131.956 56.4923 132.356C56.8283 132.756 57.2763 132.956 57.8363 132.956C58.6283 132.956 59.1523 132.608 59.4083 131.912H60.8843C60.6923 132.584 60.3323 133.12 59.8043 133.52C59.2763 133.912 58.6203 134.108 57.8363 134.108C57.2043 134.108 56.6443 133.968 56.1563 133.688C55.6683 133.4 55.2843 133 55.0043 132.488C54.7323 131.968 54.5963 131.368 54.5963 130.688ZM63.6157 125.12V134H62.2477V125.12H63.6157ZM68.2797 134.108C67.6557 134.108 67.0917 133.968 66.5877 133.688C66.0837 133.4 65.6877 133 65.3997 132.488C65.1117 131.968 64.9677 131.368 64.9677 130.688C64.9677 130.016 65.1157 129.42 65.4117 128.9C65.7077 128.38 66.1117 127.98 66.6237 127.7C67.1357 127.42 67.7077 127.28 68.3397 127.28C68.9717 127.28 69.5437 127.42 70.0557 127.7C70.5677 127.98 70.9717 128.38 71.2677 128.9C71.5637 129.42 71.7117 130.016 71.7117 130.688C71.7117 131.36 71.5597 131.956 71.2557 132.476C70.9517 132.996 70.5357 133.4 70.0077 133.688C69.4877 133.968 68.9117 134.108 68.2797 134.108ZM68.2797 132.92C68.6317 132.92 68.9597 132.836 69.2637 132.668C69.5757 132.5 69.8277 132.248 70.0197 131.912C70.2117 131.576 70.3077 131.168 70.3077 130.688C70.3077 130.208 70.2157 129.804 70.0317 129.476C69.8477 129.14 69.6037 128.888 69.2997 128.72C68.9957 128.552 68.6677 128.468 68.3157 128.468C67.9637 128.468 67.6357 128.552 67.3317 128.72C67.0357 128.888 66.7997 129.14 66.6237 129.476C66.4477 129.804 66.3597 130.208 66.3597 130.688C66.3597 131.4 66.5397 131.952 66.8997 132.344C67.2677 132.728 67.7277 132.92 68.2797 132.92ZM75.4641 134.108C74.9441 134.108 74.4761 134.016 74.0601 133.832C73.6521 133.64 73.3281 133.384 73.0881 133.064C72.8481 132.736 72.7201 132.372 72.7041 131.972H74.1201C74.1441 132.252 74.2761 132.488 74.5161 132.68C74.7641 132.864 75.0721 132.956 75.4401 132.956C75.8241 132.956 76.1201 132.884 76.3281 132.74C76.5441 132.588 76.6521 132.396 76.6521 132.164C76.6521 131.916 76.5321 131.732 76.2921 131.612C76.0601 131.492 75.6881 131.36 75.1761 131.216C74.6801 131.08 74.2761 130.948 73.9641 130.82C73.6521 130.692 73.3801 130.496 73.1481 130.232C72.9241 129.968 72.8121 129.62 72.8121 129.188C72.8121 128.836 72.9161 128.516 73.1241 128.228C73.3321 127.932 73.6281 127.7 74.0121 127.532C74.4041 127.364 74.8521 127.28 75.3561 127.28C76.1081 127.28 76.7121 127.472 77.1681 127.856C77.6321 128.232 77.8801 128.748 77.9121 129.404H76.5441C76.5201 129.108 76.4001 128.872 76.1841 128.696C75.9681 128.52 75.6761 128.432 75.3081 128.432C74.9481 128.432 74.6721 128.5 74.4801 128.636C74.2881 128.772 74.1921 128.952 74.1921 129.176C74.1921 129.352 74.2561 129.5 74.3841 129.62C74.5121 129.74 74.6681 129.836 74.8521 129.908C75.0361 129.972 75.3081 130.056 75.6681 130.16C76.1481 130.288 76.5401 130.42 76.8441 130.556C77.1561 130.684 77.4241 130.876 77.6481 131.132C77.8721 131.388 77.9881 131.728 77.9961 132.152C77.9961 132.528 77.8921 132.864 77.6841 133.16C77.4761 133.456 77.1801 133.688 76.7961 133.856C76.4201 134.024 75.9761 134.108 75.4641 134.108ZM85.5342 130.532C85.5342 130.78 85.5182 131.004 85.4862 131.204H80.4342C80.4742 131.732 80.6702 132.156 81.0222 132.476C81.3742 132.796 81.8062 132.956 82.3182 132.956C83.0542 132.956 83.5742 132.648 83.8782 132.032H85.3542C85.1542 132.64 84.7902 133.14 84.2622 133.532C83.7422 133.916 83.0942 134.108 82.3182 134.108C81.6862 134.108 81.1182 133.968 80.6142 133.688C80.1182 133.4 79.7262 133 79.4382 132.488C79.1582 131.968 79.0182 131.368 79.0182 130.688C79.0182 130.008 79.1542 129.412 79.4262 128.9C79.7062 128.38 80.0942 127.98 80.5902 127.7C81.0942 127.42 81.6702 127.28 82.3182 127.28C82.9422 127.28 83.4982 127.416 83.9862 127.688C84.4742 127.96 84.8542 128.344 85.1262 128.84C85.3982 129.328 85.5342 129.892 85.5342 130.532ZM84.1062 130.1C84.0982 129.596 83.9182 129.192 83.5662 128.888C83.2142 128.584 82.7782 128.432 82.2582 128.432C81.7862 128.432 81.3822 128.584 81.0462 128.888C80.7102 129.184 80.5102 129.588 80.4462 130.1H84.1062ZM92.8657 134.108C92.2417 134.108 91.6777 133.968 91.1737 133.688C90.6697 133.4 90.2737 133 89.9857 132.488C89.6977 131.968 89.5537 131.368 89.5537 130.688C89.5537 130.016 89.7017 129.42 89.9977 128.9C90.2937 128.38 90.6977 127.98 91.2097 127.7C91.7217 127.42 92.2937 127.28 92.9257 127.28C93.5577 127.28 94.1297 127.42 94.6417 127.7C95.1537 127.98 95.5577 128.38 95.8537 128.9C96.1497 129.42 96.2977 130.016 96.2977 130.688C96.2977 131.36 96.1457 131.956 95.8417 132.476C95.5377 132.996 95.1217 133.4 94.5937 133.688C94.0737 133.968 93.4977 134.108 92.8657 134.108ZM92.8657 132.92C93.2177 132.92 93.5457 132.836 93.8497 132.668C94.1617 132.5 94.4137 132.248 94.6057 131.912C94.7977 131.576 94.8937 131.168 94.8937 130.688C94.8937 130.208 94.8017 129.804 94.6177 129.476C94.4337 129.14 94.1897 128.888 93.8857 128.72C93.5817 128.552 93.2537 128.468 92.9017 128.468C92.5497 128.468 92.2217 128.552 91.9177 128.72C91.6217 128.888 91.3857 129.14 91.2097 129.476C91.0337 129.804 90.9457 130.208 90.9457 130.688C90.9457 131.4 91.1257 131.952 91.4857 132.344C91.8537 132.728 92.3137 132.92 92.8657 132.92ZM100.986 127.28C101.506 127.28 101.97 127.388 102.378 127.604C102.794 127.82 103.118 128.14 103.35 128.564C103.582 128.988 103.698 129.5 103.698 130.1V134H102.342V130.304C102.342 129.712 102.194 129.26 101.898 128.948C101.602 128.628 101.198 128.468 100.686 128.468C100.174 128.468 99.766 128.628 99.462 128.948C99.166 129.26 99.018 129.712 99.018 130.304V134H97.65V127.388H99.018V128.144C99.242 127.872 99.526 127.66 99.87 127.508C100.222 127.356 100.594 127.28 100.986 127.28ZM111.503 130.532C111.503 130.78 111.487 131.004 111.455 131.204H106.403C106.443 131.732 106.639 132.156 106.991 132.476C107.343 132.796 107.775 132.956 108.287 132.956C109.023 132.956 109.543 132.648 109.847 132.032H111.323C111.123 132.64 110.759 133.14 110.231 133.532C109.711 133.916 109.063 134.108 108.287 134.108C107.655 134.108 107.087 133.968 106.583 133.688C106.087 133.4 105.695 133 105.407 132.488C105.127 131.968 104.987 131.368 104.987 130.688C104.987 130.008 105.123 129.412 105.395 128.9C105.675 128.38 106.063 127.98 106.559 127.7C107.063 127.42 107.639 127.28 108.287 127.28C108.911 127.28 109.467 127.416 109.955 127.688C110.443 127.96 110.823 128.344 111.095 128.84C111.367 129.328 111.503 129.892 111.503 130.532ZM110.075 130.1C110.067 129.596 109.887 129.192 109.535 128.888C109.183 128.584 108.747 128.432 108.227 128.432C107.755 128.432 107.351 128.584 107.015 128.888C106.679 129.184 106.479 129.588 106.415 130.1H110.075ZM115.249 134.108C114.729 134.108 114.261 134.016 113.845 133.832C113.437 133.64 113.113 133.384 112.873 133.064C112.633 132.736 112.505 132.372 112.489 131.972H113.905C113.929 132.252 114.061 132.488 114.301 132.68C114.549 132.864 114.857 132.956 115.225 132.956C115.609 132.956 115.905 132.884 116.113 132.74C116.329 132.588 116.437 132.396 116.437 132.164C116.437 131.916 116.317 131.732 116.077 131.612C115.845 131.492 115.473 131.36 114.961 131.216C114.465 131.08 114.061 130.948 113.749 130.82C113.437 130.692 113.165 130.496 112.933 130.232C112.709 129.968 112.597 129.62 112.597 129.188C112.597 128.836 112.701 128.516 112.909 128.228C113.117 127.932 113.413 127.7 113.797 127.532C114.189 127.364 114.637 127.28 115.141 127.28C115.893 127.28 116.497 127.472 116.953 127.856C117.417 128.232 117.665 128.748 117.697 129.404H116.329C116.305 129.108 116.185 128.872 115.969 128.696C115.753 128.52 115.461 128.432 115.093 128.432C114.733 128.432 114.457 128.5 114.265 128.636C114.073 128.772 113.977 128.952 113.977 129.176C113.977 129.352 114.041 129.5 114.169 129.62C114.297 129.74 114.453 129.836 114.637 129.908C114.821 129.972 115.093 130.056 115.453 130.16C115.933 130.288 116.325 130.42 116.629 130.556C116.941 130.684 117.209 130.876 117.433 131.132C117.657 131.388 117.773 131.728 117.781 132.152C117.781 132.528 117.677 132.864 117.469 133.16C117.261 133.456 116.965 133.688 116.581 133.856C116.205 134.024 115.761 134.108 115.249 134.108ZM120.975 125.66L120.819 131.48H119.679L119.523 125.66H120.975ZM120.291 134.084C120.043 134.084 119.835 134 119.667 133.832C119.499 133.664 119.415 133.456 119.415 133.208C119.415 132.96 119.499 132.752 119.667 132.584C119.835 132.416 120.043 132.332 120.291 132.332C120.531 132.332 120.735 132.416 120.903 132.584C121.071 132.752 121.155 132.96 121.155 133.208C121.155 133.456 121.071 133.664 120.903 133.832C120.735 134 120.531 134.084 120.291 134.084Z" fill="#FCFCFC"/>
<g clip-path="url(#clip0_3305_4876)">
<path d="M264.042 34.2992C262.924 32.8784 261.095 31.663 258.892 30.8763C256.627 30.0676 254.195 29.8071 252.045 30.143C249.736 30.5033 247.088 31.58 244.778 33.0965C242.178 34.8039 240.148 36.9307 238.909 39.2479C237.604 41.6874 236.946 44.8695 237.004 48.4496C237.061 52.0297 237.837 56.002 239.247 59.9378C240.736 64.0963 244.209 67.8255 246.861 70.2215C248.935 72.096 250.845 73.4698 251.753 74.0929C251.116 74.5639 250.098 75.6332 249.45 77.9091L249.408 78.057H252.255V137H252.485V78.057H254.712L254.675 77.912C254.641 77.7803 253.946 75.0739 252.912 74.0807C254.135 73.0985 257.682 70.2203 262.994 65.6726C269.131 60.4181 269.541 54.4356 269.872 49.6285C269.905 49.1476 269.936 48.6933 269.972 48.2466C270.411 42.8581 265.544 36.209 264.042 34.2992ZM254.414 77.825H249.714C250.367 75.6413 251.382 74.6463 251.962 74.2344C252.18 74.3823 252.303 74.4612 252.309 74.4647L252.377 74.5082L252.44 74.4583C252.446 74.4537 252.545 74.3748 252.734 74.2234C253.593 75.0077 254.251 77.2344 254.414 77.825ZM269.744 48.228C269.707 48.6759 269.676 49.1307 269.643 49.6123C269.316 54.3759 268.909 60.3044 262.846 65.495C257.481 70.0881 253.918 72.9778 252.733 73.9287C252.662 73.9855 252.599 74.0354 252.546 74.0784C252.466 74.1427 252.404 74.1915 252.363 74.2245C252.319 74.1955 252.255 74.1532 252.171 74.0975C252.11 74.0563 252.038 74.0081 251.957 73.9525C251.089 73.3601 249.138 71.9678 247.011 70.0457C244.38 67.6677 240.935 63.9704 239.462 59.8589C236.62 51.9236 236.49 44.2598 239.111 39.3581C241.779 34.3711 247.654 31.0631 252.08 30.3721C252.685 30.2776 253.309 30.2323 253.939 30.2323C257.771 30.2323 261.868 31.9095 263.863 34.4442C265.351 36.3367 270.176 42.9243 269.744 48.228Z" fill="white"/>
<path d="M254.411 77.8242H249.711C250.364 75.6405 251.379 74.6456 251.959 74.2337C252.177 74.3816 252.3 74.4605 252.305 74.464L252.374 74.5075L252.437 74.4576C252.443 74.453 252.542 74.3741 252.731 74.2227C253.59 75.007 254.248 77.2336 254.411 77.8242V77.8242Z" fill="#FFDA56"/>
<path d="M263.863 34.4443C261.869 31.9096 257.771 30.2324 253.94 30.2324C253.309 30.2324 252.686 30.2777 252.08 30.3722C247.654 31.0632 241.779 34.3712 239.112 39.3582C236.49 44.2599 236.621 51.9237 239.462 59.859C240.935 63.9705 244.38 67.6678 247.011 70.0458C249.138 71.9678 251.089 73.3602 251.957 73.9525C252.038 74.0082 252.11 74.0564 252.171 74.0976C252.255 74.1533 252.319 74.1956 252.363 74.2246C252.405 74.1916 252.466 74.1428 252.546 74.0784C252.6 74.0355 252.662 73.9856 252.733 73.9288C253.918 72.9779 257.481 70.0882 262.846 65.4951C268.909 60.3045 269.316 54.376 269.643 49.6123C269.676 49.1308 269.707 48.676 269.744 48.2281C270.176 42.9244 265.351 36.3368 263.863 34.4443V34.4443ZM245.92 56.5915C245.619 56.5915 245.375 56.345 245.375 56.0404C245.375 55.7358 245.619 55.4893 245.92 55.4893C246.221 55.4893 246.465 55.7358 246.465 56.0404C246.465 56.345 246.221 56.5915 245.92 56.5915ZM254.892 58.1736C254.887 58.2084 254.769 59.0276 253.952 59.6315C253.395 60.044 252.659 60.2517 251.758 60.2517C251.357 60.2517 250.924 60.2105 250.459 60.1287C250.396 60.1177 250.354 60.0579 250.365 59.9947C250.376 59.9315 250.435 59.8891 250.498 59.9001C251.944 60.1548 253.059 60.0022 253.812 59.4476C254.551 58.9034 254.664 58.1498 254.665 58.1417C254.674 58.0785 254.731 58.035 254.794 58.0431C254.857 58.0518 254.901 58.1104 254.892 58.1736V58.1736ZM260.656 56.1854C260.323 56.1854 260.054 55.9128 260.054 55.5763C260.054 55.2398 260.323 54.9671 260.656 54.9671C260.988 54.9671 261.258 55.2398 261.258 55.5763C261.258 55.9128 260.988 56.1854 260.656 56.1854Z" fill="#FFDA56"/>
<path d="M245.92 56.5906C246.221 56.5906 246.464 56.3438 246.464 56.0394C246.464 55.735 246.221 55.4883 245.92 55.4883C245.619 55.4883 245.375 55.735 245.375 56.0394C245.375 56.3438 245.619 56.5906 245.92 56.5906Z" fill="black"/>
<path d="M260.657 56.1851C260.989 56.1851 261.259 55.9124 261.259 55.576C261.259 55.2395 260.989 54.9668 260.657 54.9668C260.324 54.9668 260.055 55.2395 260.055 55.576C260.055 55.9124 260.324 56.1851 260.657 56.1851Z" fill="black"/>
<path d="M254.888 58.1745C254.883 58.2093 254.765 59.0285 253.948 59.6324C253.391 60.0449 252.655 60.2526 251.754 60.2526C251.353 60.2526 250.92 60.2114 250.455 60.1296C250.392 60.1186 250.35 60.0588 250.361 59.9956C250.372 59.9323 250.431 59.89 250.494 59.901C251.94 60.1557 253.055 60.0031 253.808 59.4485C254.547 58.9043 254.66 58.1507 254.661 58.1426C254.669 58.0793 254.727 58.0358 254.79 58.0439C254.853 58.0526 254.896 58.1112 254.888 58.1745V58.1745Z" fill="black"/>
</g>
<ellipse cx="253" cy="143" rx="35" ry="2" fill="white" fill-opacity="0.08"/>
<defs>
<filter id="filter0_d_3305_4876" x="0" y="0" width="315" height="177" filterUnits="userSpaceOnUse" color-interpolation-filters="sRGB">
<feFlood flood-opacity="0" result="BackgroundImageFix"/>
<feColorMatrix in="SourceAlpha" type="matrix" values="0 0 0 0 0 0 0 0 0 0 0 0 0 0 0 0 0 0 127 0" result="hardAlpha"/>
<feOffset dx="3" dy="3"/>
<feComposite in2="hardAlpha" operator="out"/>
<feColorMatrix type="matrix" values="0 0 0 0 0.808333 0 0 0 0 0.808333 0 0 0 0 0.808333 0 0 0 1 0"/>
<feBlend mode="normal" in2="BackgroundImageFix" result="effect1_dropShadow_3305_4876"/>
<feBlend mode="normal" in="SourceGraphic" in2="effect1_dropShadow_3305_4876" result="shape"/>
</filter>
<clipPath id="clip0_3305_4876">
<rect width="33" height="107" fill="white" transform="translate(237 30)"/>
</clipPath>
</defs>
</svg>
