<svg width="387" height="415" viewBox="0 0 387 415" fill="none" xmlns="http://www.w3.org/2000/svg">
<g filter="url(#filter0_d_3355_5125)">
<rect y="0.744141" width="383.464" height="410.513" rx="15.9114" fill="#17171D"/>
<rect x="0.5" y="1.24414" width="382.464" height="409.513" rx="15.4114" stroke="#F6F5D8" stroke-opacity="0.46"/>
</g>
<path d="M83.1309 311.559V312.232C83.1309 313.313 82.9844 314.283 82.6914 315.143C82.3984 316.002 81.985 316.734 81.4512 317.34C80.9173 317.939 80.2793 318.398 79.5371 318.717C78.8014 319.036 77.9844 319.195 77.0859 319.195C76.194 319.195 75.377 319.036 74.6348 318.717C73.8991 318.398 73.2611 317.939 72.7207 317.34C72.1803 316.734 71.7604 316.002 71.4609 315.143C71.168 314.283 71.0215 313.313 71.0215 312.232V311.559C71.0215 310.471 71.168 309.501 71.4609 308.648C71.7539 307.789 72.1673 307.057 72.7012 306.451C73.2415 305.846 73.8796 305.383 74.6152 305.064C75.3574 304.745 76.1745 304.586 77.0664 304.586C77.9648 304.586 78.7819 304.745 79.5176 305.064C80.2598 305.383 80.8978 305.846 81.4316 306.451C81.972 307.057 82.3887 307.789 82.6816 308.648C82.9811 309.501 83.1309 310.471 83.1309 311.559ZM80.1719 312.232V311.539C80.1719 310.784 80.1035 310.12 79.9668 309.547C79.8301 308.974 79.6283 308.492 79.3613 308.102C79.0944 307.711 78.7689 307.418 78.3848 307.223C78.0007 307.021 77.5612 306.92 77.0664 306.92C76.5716 306.92 76.1322 307.021 75.748 307.223C75.3704 307.418 75.0482 307.711 74.7812 308.102C74.5208 308.492 74.3223 308.974 74.1855 309.547C74.0488 310.12 73.9805 310.784 73.9805 311.539V312.232C73.9805 312.981 74.0488 313.645 74.1855 314.225C74.3223 314.798 74.5241 315.283 74.791 315.68C75.0579 316.07 75.3835 316.367 75.7676 316.568C76.1517 316.77 76.5911 316.871 77.0859 316.871C77.5807 316.871 78.0202 316.77 78.4043 316.568C78.7884 316.367 79.1107 316.07 79.3711 315.68C79.6315 315.283 79.8301 314.798 79.9668 314.225C80.1035 313.645 80.1719 312.981 80.1719 312.232ZM87.8184 310.689V319H85.0059V308.434H87.6426L87.8184 310.689ZM87.4082 313.346H86.6465C86.6465 312.564 86.7474 311.861 86.9492 311.236C87.151 310.605 87.4342 310.068 87.7988 309.625C88.1634 309.176 88.5964 308.834 89.0977 308.6C89.6055 308.359 90.1719 308.238 90.7969 308.238C91.2917 308.238 91.7441 308.31 92.1543 308.453C92.5645 308.596 92.916 308.824 93.209 309.137C93.5085 309.449 93.7363 309.863 93.8926 310.377C94.0553 310.891 94.1367 311.52 94.1367 312.262V319H91.3047V312.252C91.3047 311.783 91.2396 311.419 91.1094 311.158C90.9792 310.898 90.7871 310.715 90.5332 310.611C90.2858 310.501 89.9798 310.445 89.6152 310.445C89.2376 310.445 88.9089 310.52 88.6289 310.67C88.3555 310.82 88.1276 311.028 87.9453 311.295C87.7695 311.555 87.6361 311.861 87.5449 312.213C87.4538 312.564 87.4082 312.942 87.4082 313.346ZM101.139 319.195C100.318 319.195 99.5827 319.065 98.9316 318.805C98.2806 318.538 97.7272 318.17 97.2715 317.701C96.8223 317.232 96.4772 316.689 96.2363 316.07C95.9954 315.445 95.875 314.781 95.875 314.078V313.688C95.875 312.887 95.9889 312.154 96.2168 311.49C96.4447 310.826 96.7702 310.25 97.1934 309.762C97.623 309.273 98.1439 308.899 98.7559 308.639C99.3678 308.372 100.058 308.238 100.826 308.238C101.575 308.238 102.239 308.362 102.818 308.609C103.398 308.857 103.883 309.208 104.273 309.664C104.671 310.12 104.97 310.667 105.172 311.305C105.374 311.936 105.475 312.639 105.475 313.414V314.586H97.0762V312.711H102.711V312.496C102.711 312.105 102.639 311.757 102.496 311.451C102.359 311.139 102.151 310.891 101.871 310.709C101.591 310.527 101.233 310.436 100.797 310.436C100.426 310.436 100.107 310.517 99.8398 310.68C99.5729 310.842 99.3548 311.07 99.1855 311.363C99.0228 311.656 98.8991 312.001 98.8145 312.398C98.7363 312.789 98.6973 313.219 98.6973 313.688V314.078C98.6973 314.501 98.7559 314.892 98.873 315.25C98.9967 315.608 99.1693 315.917 99.3906 316.178C99.6185 316.438 99.8919 316.64 100.211 316.783C100.536 316.926 100.904 316.998 101.314 316.998C101.822 316.998 102.294 316.9 102.73 316.705C103.173 316.503 103.554 316.201 103.873 315.797L105.24 317.281C105.019 317.6 104.716 317.906 104.332 318.199C103.954 318.492 103.499 318.733 102.965 318.922C102.431 319.104 101.822 319.195 101.139 319.195ZM112.623 311.793V314H107.105V311.793H112.623ZM123.385 314.283H126.305C126.246 315.24 125.982 316.09 125.514 316.832C125.051 317.574 124.404 318.154 123.57 318.57C122.743 318.987 121.747 319.195 120.582 319.195C119.671 319.195 118.854 319.039 118.131 318.727C117.408 318.408 116.79 317.952 116.275 317.359C115.768 316.767 115.38 316.051 115.113 315.211C114.846 314.371 114.713 313.43 114.713 312.389V311.402C114.713 310.361 114.85 309.42 115.123 308.58C115.403 307.734 115.8 307.014 116.314 306.422C116.835 305.829 117.457 305.374 118.18 305.055C118.902 304.736 119.71 304.576 120.602 304.576C121.786 304.576 122.786 304.791 123.6 305.221C124.42 305.65 125.055 306.243 125.504 306.998C125.96 307.753 126.233 308.613 126.324 309.576H123.395C123.362 309.003 123.248 308.518 123.053 308.121C122.857 307.717 122.561 307.415 122.164 307.213C121.773 307.005 121.253 306.9 120.602 306.9C120.113 306.9 119.687 306.992 119.322 307.174C118.958 307.356 118.652 307.633 118.404 308.004C118.157 308.375 117.971 308.844 117.848 309.41C117.73 309.97 117.672 310.628 117.672 311.383V312.389C117.672 313.124 117.727 313.772 117.838 314.332C117.949 314.885 118.118 315.354 118.346 315.738C118.58 316.116 118.88 316.402 119.244 316.598C119.615 316.786 120.061 316.881 120.582 316.881C121.194 316.881 121.699 316.783 122.096 316.588C122.493 316.393 122.796 316.103 123.004 315.719C123.219 315.335 123.346 314.856 123.385 314.283ZM131.021 304V319H128.199V304H131.021ZM136.314 308.434V319H133.492V308.434H136.314ZM133.316 305.68C133.316 305.27 133.46 304.931 133.746 304.664C134.033 304.397 134.417 304.264 134.898 304.264C135.374 304.264 135.755 304.397 136.041 304.664C136.334 304.931 136.48 305.27 136.48 305.68C136.48 306.09 136.334 306.428 136.041 306.695C135.755 306.962 135.374 307.096 134.898 307.096C134.417 307.096 134.033 306.962 133.746 306.695C133.46 306.428 133.316 306.09 133.316 305.68ZM143.004 316.998C143.349 316.998 143.655 316.933 143.922 316.803C144.189 316.666 144.397 316.477 144.547 316.236C144.703 315.989 144.785 315.699 144.791 315.367H147.438C147.431 316.109 147.232 316.77 146.842 317.35C146.451 317.923 145.927 318.375 145.27 318.707C144.612 319.033 143.876 319.195 143.062 319.195C142.242 319.195 141.526 319.059 140.914 318.785C140.309 318.512 139.804 318.134 139.4 317.652C138.997 317.164 138.694 316.598 138.492 315.953C138.29 315.302 138.189 314.605 138.189 313.863V313.58C138.189 312.831 138.29 312.135 138.492 311.49C138.694 310.839 138.997 310.273 139.4 309.791C139.804 309.303 140.309 308.922 140.914 308.648C141.52 308.375 142.229 308.238 143.043 308.238C143.909 308.238 144.667 308.404 145.318 308.736C145.976 309.068 146.49 309.544 146.861 310.162C147.239 310.774 147.431 311.5 147.438 312.34H144.791C144.785 311.988 144.71 311.669 144.566 311.383C144.43 311.096 144.228 310.868 143.961 310.699C143.701 310.523 143.378 310.436 142.994 310.436C142.584 310.436 142.249 310.523 141.988 310.699C141.728 310.868 141.526 311.103 141.383 311.402C141.24 311.695 141.139 312.031 141.08 312.408C141.028 312.779 141.002 313.17 141.002 313.58V313.863C141.002 314.273 141.028 314.667 141.08 315.045C141.132 315.423 141.23 315.758 141.373 316.051C141.523 316.344 141.728 316.575 141.988 316.744C142.249 316.913 142.587 316.998 143.004 316.998ZM151.881 303.99V319H149.068V303.99H151.881ZM158.541 308.434L153.951 313.668L151.49 316.158L150.465 314.127L152.418 311.646L155.162 308.434H158.541ZM155.621 319L152.496 314.117L154.439 312.418L158.863 319H155.621Z" fill="#FFA71B"/>
<path d="M176.178 311.568V317.203C175.956 317.47 175.615 317.76 175.152 318.072C174.69 318.378 174.094 318.642 173.365 318.863C172.636 319.085 171.754 319.195 170.719 319.195C169.801 319.195 168.964 319.046 168.209 318.746C167.454 318.44 166.803 317.994 166.256 317.408C165.715 316.822 165.299 316.106 165.006 315.26C164.713 314.407 164.566 313.434 164.566 312.34V311.451C164.566 310.357 164.706 309.384 164.986 308.531C165.273 307.678 165.68 306.959 166.207 306.373C166.734 305.787 167.363 305.341 168.092 305.035C168.821 304.729 169.632 304.576 170.523 304.576C171.76 304.576 172.776 304.778 173.57 305.182C174.365 305.579 174.97 306.132 175.387 306.842C175.81 307.545 176.07 308.352 176.168 309.264H173.326C173.255 308.782 173.118 308.362 172.916 308.004C172.714 307.646 172.424 307.366 172.047 307.164C171.676 306.962 171.194 306.861 170.602 306.861C170.113 306.861 169.677 306.962 169.293 307.164C168.915 307.359 168.596 307.649 168.336 308.033C168.076 308.417 167.877 308.893 167.74 309.459C167.604 310.025 167.535 310.683 167.535 311.432V312.34C167.535 313.082 167.607 313.74 167.75 314.312C167.893 314.879 168.105 315.357 168.385 315.748C168.671 316.132 169.023 316.422 169.439 316.617C169.856 316.812 170.341 316.91 170.895 316.91C171.357 316.91 171.741 316.871 172.047 316.793C172.359 316.715 172.61 316.62 172.799 316.51C172.994 316.393 173.144 316.282 173.248 316.178V313.658H170.572V311.568H176.178ZM181.178 310.738V319H178.365V308.434H181.012L181.178 310.738ZM184.361 308.365L184.312 310.973C184.176 310.953 184.01 310.937 183.814 310.924C183.626 310.904 183.453 310.895 183.297 310.895C182.9 310.895 182.555 310.947 182.262 311.051C181.975 311.148 181.734 311.295 181.539 311.49C181.35 311.686 181.207 311.923 181.109 312.203C181.018 312.483 180.966 312.802 180.953 313.16L180.387 312.984C180.387 312.301 180.455 311.673 180.592 311.1C180.729 310.52 180.927 310.016 181.188 309.586C181.454 309.156 181.78 308.824 182.164 308.59C182.548 308.355 182.988 308.238 183.482 308.238C183.639 308.238 183.798 308.251 183.961 308.277C184.124 308.297 184.257 308.326 184.361 308.365ZM184.947 313.824V313.619C184.947 312.844 185.058 312.132 185.279 311.48C185.501 310.823 185.823 310.253 186.246 309.771C186.669 309.29 187.19 308.915 187.809 308.648C188.427 308.375 189.137 308.238 189.938 308.238C190.738 308.238 191.451 308.375 192.076 308.648C192.701 308.915 193.225 309.29 193.648 309.771C194.078 310.253 194.404 310.823 194.625 311.48C194.846 312.132 194.957 312.844 194.957 313.619V313.824C194.957 314.592 194.846 315.305 194.625 315.963C194.404 316.614 194.078 317.184 193.648 317.672C193.225 318.154 192.704 318.528 192.086 318.795C191.467 319.062 190.758 319.195 189.957 319.195C189.156 319.195 188.443 319.062 187.818 318.795C187.2 318.528 186.676 318.154 186.246 317.672C185.823 317.184 185.501 316.614 185.279 315.963C185.058 315.305 184.947 314.592 184.947 313.824ZM187.76 313.619V313.824C187.76 314.267 187.799 314.68 187.877 315.064C187.955 315.449 188.079 315.787 188.248 316.08C188.424 316.367 188.652 316.591 188.932 316.754C189.212 316.917 189.553 316.998 189.957 316.998C190.348 316.998 190.683 316.917 190.963 316.754C191.243 316.591 191.467 316.367 191.637 316.08C191.806 315.787 191.93 315.449 192.008 315.064C192.092 314.68 192.135 314.267 192.135 313.824V313.619C192.135 313.189 192.092 312.786 192.008 312.408C191.93 312.024 191.803 311.686 191.627 311.393C191.458 311.093 191.233 310.859 190.953 310.689C190.673 310.52 190.335 310.436 189.938 310.436C189.54 310.436 189.202 310.52 188.922 310.689C188.648 310.859 188.424 311.093 188.248 311.393C188.079 311.686 187.955 312.024 187.877 312.408C187.799 312.786 187.76 313.189 187.76 313.619ZM202.936 316.471V308.434H205.748V319H203.102L202.936 316.471ZM203.248 314.303L204.078 314.283C204.078 314.986 203.997 315.641 203.834 316.246C203.671 316.845 203.427 317.366 203.102 317.809C202.776 318.245 202.366 318.587 201.871 318.834C201.376 319.075 200.794 319.195 200.123 319.195C199.609 319.195 199.133 319.124 198.697 318.98C198.268 318.831 197.896 318.6 197.584 318.287C197.278 317.968 197.037 317.561 196.861 317.066C196.692 316.565 196.607 315.963 196.607 315.26V308.434H199.42V315.279C199.42 315.592 199.456 315.855 199.527 316.07C199.605 316.285 199.713 316.461 199.85 316.598C199.986 316.734 200.146 316.832 200.328 316.891C200.517 316.949 200.725 316.979 200.953 316.979C201.533 316.979 201.988 316.861 202.32 316.627C202.659 316.393 202.896 316.074 203.033 315.67C203.176 315.26 203.248 314.804 203.248 314.303ZM210.709 310.465V323.062H207.896V308.434H210.504L210.709 310.465ZM217.398 313.6V313.805C217.398 314.573 217.307 315.286 217.125 315.943C216.949 316.601 216.689 317.174 216.344 317.662C215.999 318.144 215.569 318.521 215.055 318.795C214.547 319.062 213.961 319.195 213.297 319.195C212.652 319.195 212.092 319.065 211.617 318.805C211.142 318.544 210.742 318.18 210.416 317.711C210.097 317.236 209.84 316.686 209.645 316.061C209.449 315.436 209.299 314.765 209.195 314.049V313.512C209.299 312.743 209.449 312.04 209.645 311.402C209.84 310.758 210.097 310.201 210.416 309.732C210.742 309.257 211.139 308.889 211.607 308.629C212.083 308.368 212.639 308.238 213.277 308.238C213.948 308.238 214.537 308.365 215.045 308.619C215.559 308.873 215.989 309.238 216.334 309.713C216.686 310.188 216.949 310.755 217.125 311.412C217.307 312.07 217.398 312.799 217.398 313.6ZM214.576 313.805V313.6C214.576 313.15 214.537 312.737 214.459 312.359C214.387 311.975 214.27 311.64 214.107 311.354C213.951 311.067 213.743 310.846 213.482 310.689C213.229 310.527 212.919 310.445 212.555 310.445C212.171 310.445 211.842 310.507 211.568 310.631C211.301 310.755 211.083 310.934 210.914 311.168C210.745 311.402 210.618 311.682 210.533 312.008C210.449 312.333 210.396 312.701 210.377 313.111V314.469C210.41 314.951 210.501 315.383 210.65 315.768C210.8 316.145 211.031 316.445 211.344 316.666C211.656 316.887 212.066 316.998 212.574 316.998C212.945 316.998 213.258 316.917 213.512 316.754C213.766 316.585 213.971 316.354 214.127 316.061C214.29 315.768 214.404 315.429 214.469 315.045C214.54 314.661 214.576 314.247 214.576 313.805ZM229.84 313.932H226.217V311.646H229.84C230.4 311.646 230.855 311.555 231.207 311.373C231.559 311.184 231.816 310.924 231.979 310.592C232.141 310.26 232.223 309.885 232.223 309.469C232.223 309.046 232.141 308.652 231.979 308.287C231.816 307.923 231.559 307.63 231.207 307.408C230.855 307.187 230.4 307.076 229.84 307.076H227.232V319H224.303V304.781H229.84C230.953 304.781 231.907 304.983 232.701 305.387C233.502 305.784 234.114 306.334 234.537 307.037C234.96 307.74 235.172 308.544 235.172 309.449C235.172 310.367 234.96 311.161 234.537 311.832C234.114 312.503 233.502 313.02 232.701 313.385C231.907 313.749 230.953 313.932 229.84 313.932ZM242.604 316.617V311.91C242.604 311.572 242.548 311.282 242.438 311.041C242.327 310.794 242.154 310.602 241.92 310.465C241.692 310.328 241.396 310.26 241.031 310.26C240.719 310.26 240.449 310.315 240.221 310.426C239.993 310.53 239.817 310.683 239.693 310.885C239.57 311.08 239.508 311.311 239.508 311.578H236.695C236.695 311.129 236.799 310.702 237.008 310.299C237.216 309.895 237.519 309.54 237.916 309.234C238.313 308.922 238.785 308.678 239.332 308.502C239.885 308.326 240.504 308.238 241.188 308.238C242.008 308.238 242.737 308.375 243.375 308.648C244.013 308.922 244.514 309.332 244.879 309.879C245.25 310.426 245.436 311.109 245.436 311.93V316.451C245.436 317.031 245.471 317.506 245.543 317.877C245.615 318.242 245.719 318.561 245.855 318.834V319H243.014C242.877 318.714 242.773 318.355 242.701 317.926C242.636 317.49 242.604 317.053 242.604 316.617ZM242.975 312.564L242.994 314.156H241.422C241.051 314.156 240.729 314.199 240.455 314.283C240.182 314.368 239.957 314.488 239.781 314.645C239.605 314.794 239.475 314.97 239.391 315.172C239.312 315.374 239.273 315.595 239.273 315.836C239.273 316.077 239.329 316.295 239.439 316.49C239.55 316.679 239.71 316.829 239.918 316.939C240.126 317.044 240.37 317.096 240.65 317.096C241.074 317.096 241.441 317.011 241.754 316.842C242.066 316.673 242.307 316.464 242.477 316.217C242.652 315.969 242.743 315.735 242.75 315.514L243.492 316.705C243.388 316.972 243.245 317.249 243.062 317.535C242.887 317.822 242.662 318.092 242.389 318.346C242.115 318.593 241.786 318.798 241.402 318.961C241.018 319.117 240.562 319.195 240.035 319.195C239.365 319.195 238.756 319.062 238.209 318.795C237.669 318.521 237.239 318.147 236.92 317.672C236.607 317.19 236.451 316.643 236.451 316.031C236.451 315.478 236.555 314.986 236.764 314.557C236.972 314.127 237.278 313.766 237.682 313.473C238.092 313.173 238.603 312.949 239.215 312.799C239.827 312.643 240.536 312.564 241.344 312.564H242.975ZM250.582 317.809L253.385 308.434H256.402L252.154 320.592C252.063 320.859 251.939 321.145 251.783 321.451C251.633 321.757 251.428 322.047 251.168 322.32C250.914 322.6 250.592 322.828 250.201 323.004C249.817 323.18 249.345 323.268 248.785 323.268C248.518 323.268 248.3 323.251 248.131 323.219C247.962 323.186 247.76 323.141 247.525 323.082V321.021C247.597 321.021 247.672 321.021 247.75 321.021C247.828 321.028 247.903 321.031 247.975 321.031C248.346 321.031 248.648 320.989 248.883 320.904C249.117 320.82 249.306 320.689 249.449 320.514C249.592 320.344 249.706 320.123 249.791 319.85L250.582 317.809ZM249.41 308.434L251.705 316.09L252.105 319.068L250.191 319.273L246.393 308.434H249.41ZM260.338 310.621V319H257.516V308.434H260.162L260.338 310.621ZM259.947 313.346H259.166C259.166 312.61 259.254 311.933 259.43 311.314C259.612 310.689 259.876 310.149 260.221 309.693C260.572 309.231 261.005 308.873 261.52 308.619C262.034 308.365 262.63 308.238 263.307 308.238C263.775 308.238 264.205 308.31 264.596 308.453C264.986 308.59 265.322 308.808 265.602 309.107C265.888 309.4 266.109 309.785 266.266 310.26C266.422 310.729 266.5 311.292 266.5 311.949V319H263.688V312.262C263.688 311.78 263.622 311.409 263.492 311.148C263.362 310.888 263.176 310.706 262.936 310.602C262.701 310.497 262.418 310.445 262.086 310.445C261.721 310.445 261.402 310.52 261.129 310.67C260.862 310.82 260.641 311.028 260.465 311.295C260.289 311.555 260.159 311.861 260.074 312.213C259.99 312.564 259.947 312.942 259.947 313.346ZM266.236 313.023L265.23 313.15C265.23 312.46 265.315 311.819 265.484 311.227C265.66 310.634 265.917 310.113 266.256 309.664C266.601 309.215 267.027 308.867 267.535 308.619C268.043 308.365 268.629 308.238 269.293 308.238C269.801 308.238 270.263 308.313 270.68 308.463C271.096 308.606 271.451 308.837 271.744 309.156C272.044 309.469 272.271 309.879 272.428 310.387C272.59 310.895 272.672 311.516 272.672 312.252V319H269.85V312.252C269.85 311.764 269.785 311.393 269.654 311.139C269.531 310.878 269.348 310.699 269.107 310.602C268.873 310.497 268.593 310.445 268.268 310.445C267.929 310.445 267.633 310.514 267.379 310.65C267.125 310.781 266.913 310.963 266.744 311.197C266.575 311.432 266.448 311.705 266.363 312.018C266.279 312.324 266.236 312.659 266.236 313.023ZM279.713 319.195C278.893 319.195 278.157 319.065 277.506 318.805C276.855 318.538 276.301 318.17 275.846 317.701C275.396 317.232 275.051 316.689 274.811 316.07C274.57 315.445 274.449 314.781 274.449 314.078V313.688C274.449 312.887 274.563 312.154 274.791 311.49C275.019 310.826 275.344 310.25 275.768 309.762C276.197 309.273 276.718 308.899 277.33 308.639C277.942 308.372 278.632 308.238 279.4 308.238C280.149 308.238 280.813 308.362 281.393 308.609C281.972 308.857 282.457 309.208 282.848 309.664C283.245 310.12 283.544 310.667 283.746 311.305C283.948 311.936 284.049 312.639 284.049 313.414V314.586H275.65V312.711H281.285V312.496C281.285 312.105 281.214 311.757 281.07 311.451C280.934 311.139 280.725 310.891 280.445 310.709C280.165 310.527 279.807 310.436 279.371 310.436C279 310.436 278.681 310.517 278.414 310.68C278.147 310.842 277.929 311.07 277.76 311.363C277.597 311.656 277.473 312.001 277.389 312.398C277.311 312.789 277.271 313.219 277.271 313.688V314.078C277.271 314.501 277.33 314.892 277.447 315.25C277.571 315.608 277.743 315.917 277.965 316.178C278.193 316.438 278.466 316.64 278.785 316.783C279.111 316.926 279.479 316.998 279.889 316.998C280.396 316.998 280.868 316.9 281.305 316.705C281.747 316.503 282.128 316.201 282.447 315.797L283.814 317.281C283.593 317.6 283.29 317.906 282.906 318.199C282.529 318.492 282.073 318.733 281.539 318.922C281.005 319.104 280.396 319.195 279.713 319.195ZM288.404 310.689V319H285.592V308.434H288.229L288.404 310.689ZM287.994 313.346H287.232C287.232 312.564 287.333 311.861 287.535 311.236C287.737 310.605 288.02 310.068 288.385 309.625C288.749 309.176 289.182 308.834 289.684 308.6C290.191 308.359 290.758 308.238 291.383 308.238C291.878 308.238 292.33 308.31 292.74 308.453C293.15 308.596 293.502 308.824 293.795 309.137C294.094 309.449 294.322 309.863 294.479 310.377C294.641 310.891 294.723 311.52 294.723 312.262V319H291.891V312.252C291.891 311.783 291.826 311.419 291.695 311.158C291.565 310.898 291.373 310.715 291.119 310.611C290.872 310.501 290.566 310.445 290.201 310.445C289.824 310.445 289.495 310.52 289.215 310.67C288.941 310.82 288.714 311.028 288.531 311.295C288.355 311.555 288.222 311.861 288.131 312.213C288.04 312.564 287.994 312.942 287.994 313.346ZM302.037 308.434V310.426H295.885V308.434H302.037ZM297.408 305.826H300.221V315.816C300.221 316.122 300.26 316.357 300.338 316.52C300.423 316.682 300.546 316.796 300.709 316.861C300.872 316.92 301.077 316.949 301.324 316.949C301.5 316.949 301.656 316.943 301.793 316.93C301.936 316.91 302.057 316.891 302.154 316.871L302.164 318.941C301.923 319.02 301.663 319.081 301.383 319.127C301.103 319.173 300.794 319.195 300.455 319.195C299.837 319.195 299.296 319.094 298.834 318.893C298.378 318.684 298.027 318.352 297.779 317.896C297.532 317.441 297.408 316.842 297.408 316.1V305.826ZM309.352 316.08C309.352 315.878 309.293 315.696 309.176 315.533C309.059 315.37 308.84 315.221 308.521 315.084C308.209 314.941 307.757 314.811 307.164 314.693C306.63 314.576 306.132 314.43 305.67 314.254C305.214 314.072 304.817 313.854 304.479 313.6C304.146 313.346 303.886 313.046 303.697 312.701C303.508 312.35 303.414 311.949 303.414 311.5C303.414 311.057 303.508 310.641 303.697 310.25C303.893 309.859 304.169 309.514 304.527 309.215C304.892 308.909 305.335 308.671 305.855 308.502C306.383 308.326 306.975 308.238 307.633 308.238C308.551 308.238 309.339 308.385 309.996 308.678C310.66 308.971 311.168 309.374 311.52 309.889C311.878 310.396 312.057 310.976 312.057 311.627H309.244C309.244 311.354 309.186 311.109 309.068 310.895C308.958 310.673 308.782 310.501 308.541 310.377C308.307 310.247 308.001 310.182 307.623 310.182C307.311 310.182 307.04 310.237 306.812 310.348C306.585 310.452 306.409 310.595 306.285 310.777C306.168 310.953 306.109 311.148 306.109 311.363C306.109 311.526 306.142 311.673 306.207 311.803C306.279 311.926 306.393 312.04 306.549 312.145C306.705 312.249 306.907 312.346 307.154 312.438C307.408 312.522 307.721 312.6 308.092 312.672C308.854 312.828 309.534 313.033 310.133 313.287C310.732 313.535 311.207 313.873 311.559 314.303C311.91 314.726 312.086 315.283 312.086 315.973C312.086 316.441 311.982 316.871 311.773 317.262C311.565 317.652 311.266 317.994 310.875 318.287C310.484 318.574 310.016 318.798 309.469 318.961C308.928 319.117 308.32 319.195 307.643 319.195C306.66 319.195 305.826 319.02 305.143 318.668C304.465 318.316 303.951 317.87 303.6 317.33C303.255 316.783 303.082 316.223 303.082 315.65H305.748C305.761 316.035 305.859 316.344 306.041 316.578C306.23 316.812 306.467 316.982 306.754 317.086C307.047 317.19 307.363 317.242 307.701 317.242C308.066 317.242 308.368 317.193 308.609 317.096C308.85 316.992 309.033 316.855 309.156 316.686C309.286 316.51 309.352 316.308 309.352 316.08ZM158.922 336.932H155.299V334.646H158.922C159.482 334.646 159.938 334.555 160.289 334.373C160.641 334.184 160.898 333.924 161.061 333.592C161.223 333.26 161.305 332.885 161.305 332.469C161.305 332.046 161.223 331.652 161.061 331.287C160.898 330.923 160.641 330.63 160.289 330.408C159.938 330.187 159.482 330.076 158.922 330.076H156.314V342H153.385V327.781H158.922C160.035 327.781 160.989 327.983 161.783 328.387C162.584 328.784 163.196 329.334 163.619 330.037C164.042 330.74 164.254 331.544 164.254 332.449C164.254 333.367 164.042 334.161 163.619 334.832C163.196 335.503 162.584 336.02 161.783 336.385C160.989 336.749 160.035 336.932 158.922 336.932ZM169.068 327V342H166.246V327H169.068ZM177.096 339.617V334.91C177.096 334.572 177.04 334.282 176.93 334.041C176.819 333.794 176.646 333.602 176.412 333.465C176.184 333.328 175.888 333.26 175.523 333.26C175.211 333.26 174.941 333.315 174.713 333.426C174.485 333.53 174.309 333.683 174.186 333.885C174.062 334.08 174 334.311 174 334.578H171.188C171.188 334.129 171.292 333.702 171.5 333.299C171.708 332.895 172.011 332.54 172.408 332.234C172.805 331.922 173.277 331.678 173.824 331.502C174.378 331.326 174.996 331.238 175.68 331.238C176.5 331.238 177.229 331.375 177.867 331.648C178.505 331.922 179.007 332.332 179.371 332.879C179.742 333.426 179.928 334.109 179.928 334.93V339.451C179.928 340.031 179.964 340.506 180.035 340.877C180.107 341.242 180.211 341.561 180.348 341.834V342H177.506C177.369 341.714 177.265 341.355 177.193 340.926C177.128 340.49 177.096 340.053 177.096 339.617ZM177.467 335.564L177.486 337.156H175.914C175.543 337.156 175.221 337.199 174.947 337.283C174.674 337.368 174.449 337.488 174.273 337.645C174.098 337.794 173.967 337.97 173.883 338.172C173.805 338.374 173.766 338.595 173.766 338.836C173.766 339.077 173.821 339.295 173.932 339.49C174.042 339.679 174.202 339.829 174.41 339.939C174.618 340.044 174.863 340.096 175.143 340.096C175.566 340.096 175.934 340.011 176.246 339.842C176.559 339.673 176.799 339.464 176.969 339.217C177.145 338.969 177.236 338.735 177.242 338.514L177.984 339.705C177.88 339.972 177.737 340.249 177.555 340.535C177.379 340.822 177.154 341.092 176.881 341.346C176.607 341.593 176.279 341.798 175.895 341.961C175.51 342.117 175.055 342.195 174.527 342.195C173.857 342.195 173.248 342.062 172.701 341.795C172.161 341.521 171.731 341.147 171.412 340.672C171.1 340.19 170.943 339.643 170.943 339.031C170.943 338.478 171.048 337.986 171.256 337.557C171.464 337.127 171.77 336.766 172.174 336.473C172.584 336.173 173.095 335.949 173.707 335.799C174.319 335.643 175.029 335.564 175.836 335.564H177.467ZM187.271 331.434V333.426H181.119V331.434H187.271ZM182.643 328.826H185.455V338.816C185.455 339.122 185.494 339.357 185.572 339.52C185.657 339.682 185.781 339.796 185.943 339.861C186.106 339.92 186.311 339.949 186.559 339.949C186.734 339.949 186.891 339.943 187.027 339.93C187.171 339.91 187.291 339.891 187.389 339.871L187.398 341.941C187.158 342.02 186.897 342.081 186.617 342.127C186.337 342.173 186.028 342.195 185.689 342.195C185.071 342.195 184.531 342.094 184.068 341.893C183.613 341.684 183.261 341.352 183.014 340.896C182.766 340.441 182.643 339.842 182.643 339.1V328.826ZM192.457 342H189.625V330.496C189.625 329.695 189.781 329.021 190.094 328.475C190.413 327.921 190.859 327.505 191.432 327.225C192.011 326.938 192.698 326.795 193.492 326.795C193.753 326.795 194.003 326.814 194.244 326.854C194.485 326.886 194.719 326.928 194.947 326.98L194.918 329.1C194.794 329.067 194.664 329.044 194.527 329.031C194.391 329.018 194.231 329.012 194.049 329.012C193.71 329.012 193.421 329.07 193.18 329.188C192.945 329.298 192.766 329.464 192.643 329.686C192.519 329.907 192.457 330.177 192.457 330.496V342ZM194.566 331.434V333.426H188.053V331.434H194.566ZM195.592 336.824V336.619C195.592 335.844 195.702 335.132 195.924 334.48C196.145 333.823 196.467 333.253 196.891 332.771C197.314 332.29 197.835 331.915 198.453 331.648C199.072 331.375 199.781 331.238 200.582 331.238C201.383 331.238 202.096 331.375 202.721 331.648C203.346 331.915 203.87 332.29 204.293 332.771C204.723 333.253 205.048 333.823 205.27 334.48C205.491 335.132 205.602 335.844 205.602 336.619V336.824C205.602 337.592 205.491 338.305 205.27 338.963C205.048 339.614 204.723 340.184 204.293 340.672C203.87 341.154 203.349 341.528 202.73 341.795C202.112 342.062 201.402 342.195 200.602 342.195C199.801 342.195 199.088 342.062 198.463 341.795C197.844 341.528 197.32 341.154 196.891 340.672C196.467 340.184 196.145 339.614 195.924 338.963C195.702 338.305 195.592 337.592 195.592 336.824ZM198.404 336.619V336.824C198.404 337.267 198.443 337.68 198.521 338.064C198.6 338.449 198.723 338.787 198.893 339.08C199.068 339.367 199.296 339.591 199.576 339.754C199.856 339.917 200.198 339.998 200.602 339.998C200.992 339.998 201.327 339.917 201.607 339.754C201.887 339.591 202.112 339.367 202.281 339.08C202.451 338.787 202.574 338.449 202.652 338.064C202.737 337.68 202.779 337.267 202.779 336.824V336.619C202.779 336.189 202.737 335.786 202.652 335.408C202.574 335.024 202.447 334.686 202.271 334.393C202.102 334.093 201.878 333.859 201.598 333.689C201.318 333.52 200.979 333.436 200.582 333.436C200.185 333.436 199.846 333.52 199.566 333.689C199.293 333.859 199.068 334.093 198.893 334.393C198.723 334.686 198.6 335.024 198.521 335.408C198.443 335.786 198.404 336.189 198.404 336.619ZM210.143 333.738V342H207.33V331.434H209.977L210.143 333.738ZM213.326 331.365L213.277 333.973C213.141 333.953 212.975 333.937 212.779 333.924C212.59 333.904 212.418 333.895 212.262 333.895C211.865 333.895 211.52 333.947 211.227 334.051C210.94 334.148 210.699 334.295 210.504 334.49C210.315 334.686 210.172 334.923 210.074 335.203C209.983 335.483 209.931 335.802 209.918 336.16L209.352 335.984C209.352 335.301 209.42 334.673 209.557 334.1C209.693 333.52 209.892 333.016 210.152 332.586C210.419 332.156 210.745 331.824 211.129 331.59C211.513 331.355 211.952 331.238 212.447 331.238C212.604 331.238 212.763 331.251 212.926 331.277C213.089 331.297 213.222 331.326 213.326 331.365ZM217.467 333.621V342H214.645V331.434H217.291L217.467 333.621ZM217.076 336.346H216.295C216.295 335.61 216.383 334.933 216.559 334.314C216.741 333.689 217.005 333.149 217.35 332.693C217.701 332.231 218.134 331.873 218.648 331.619C219.163 331.365 219.758 331.238 220.436 331.238C220.904 331.238 221.334 331.31 221.725 331.453C222.115 331.59 222.451 331.808 222.73 332.107C223.017 332.4 223.238 332.785 223.395 333.26C223.551 333.729 223.629 334.292 223.629 334.949V342H220.816V335.262C220.816 334.78 220.751 334.409 220.621 334.148C220.491 333.888 220.305 333.706 220.064 333.602C219.83 333.497 219.547 333.445 219.215 333.445C218.85 333.445 218.531 333.52 218.258 333.67C217.991 333.82 217.77 334.028 217.594 334.295C217.418 334.555 217.288 334.861 217.203 335.213C217.118 335.564 217.076 335.942 217.076 336.346ZM223.365 336.023L222.359 336.15C222.359 335.46 222.444 334.819 222.613 334.227C222.789 333.634 223.046 333.113 223.385 332.664C223.73 332.215 224.156 331.867 224.664 331.619C225.172 331.365 225.758 331.238 226.422 331.238C226.93 331.238 227.392 331.313 227.809 331.463C228.225 331.606 228.58 331.837 228.873 332.156C229.173 332.469 229.4 332.879 229.557 333.387C229.719 333.895 229.801 334.516 229.801 335.252V342H226.979V335.252C226.979 334.764 226.913 334.393 226.783 334.139C226.66 333.878 226.477 333.699 226.236 333.602C226.002 333.497 225.722 333.445 225.396 333.445C225.058 333.445 224.762 333.514 224.508 333.65C224.254 333.781 224.042 333.963 223.873 334.197C223.704 334.432 223.577 334.705 223.492 335.018C223.408 335.324 223.365 335.659 223.365 336.023Z" fill="#F6F5D8"/>
<g clip-path="url(#clip0_3355_5125)">
<path d="M255.645 102.593V105.378H80.0312V102.593C80.0312 92.0727 88.5513 83.543 99.0598 83.543H236.616C242.394 83.543 247.572 86.1234 251.062 90.1955C253.917 93.5302 255.645 97.8632 255.645 102.593Z" fill="#754FE4" stroke="black" stroke-width="0.385733" stroke-miterlimit="10"/>
<path d="M255.645 105.379V240.306C255.645 250.827 247.125 259.357 236.616 259.357H99.0598C95.3096 259.357 91.8087 258.268 88.8629 256.396C83.5549 253.01 80.0312 247.072 80.0312 240.306V105.379H255.645Z" fill="#8F6CF4" stroke="black" stroke-width="0.385733" stroke-miterlimit="10"/>
<path d="M259.898 106.279V243.991C259.898 254.512 251.378 263.042 240.869 263.042H103.313C97.5346 263.042 92.3625 260.461 88.8672 256.395C91.813 258.266 95.3139 259.355 99.0641 259.355H236.62C247.129 259.355 255.649 250.825 255.649 240.305V102.593C255.649 97.863 253.921 93.5301 251.066 90.1953C256.374 93.5754 259.898 99.5134 259.898 106.279Z" fill="#1D5A89" stroke="black" stroke-width="0.385733" stroke-miterlimit="10"/>
<path d="M88.8672 256.395V256.389" stroke="black" stroke-width="0.385733" stroke-miterlimit="10"/>
<path d="M100.145 99.1391C102.335 99.1391 104.111 97.3617 104.111 95.1692C104.111 92.9766 102.335 91.1992 100.145 91.1992C97.9551 91.1992 96.1797 92.9766 96.1797 95.1692C96.1797 97.3617 97.9551 99.1391 100.145 99.1391Z" fill="#1EDBA2" stroke="black" stroke-width="0.385733" stroke-miterlimit="10"/>
<path d="M114.301 99.1391C116.491 99.1391 118.267 97.3617 118.267 95.1692C118.267 92.9766 116.491 91.1992 114.301 91.1992C112.111 91.1992 110.336 92.9766 110.336 95.1692C110.336 97.3617 112.111 99.1391 114.301 99.1391Z" fill="#FFE275" stroke="black" stroke-width="0.385733" stroke-miterlimit="10"/>
<path d="M128.465 99.1391C130.656 99.1391 132.431 97.3617 132.431 95.1692C132.431 92.9766 130.656 91.1992 128.465 91.1992C126.275 91.1992 124.5 92.9766 124.5 95.1692C124.5 97.3617 126.275 99.1391 128.465 99.1391Z" fill="#EE7171" stroke="black" stroke-width="0.385733" stroke-miterlimit="10"/>
<path d="M194.182 159.824H106.375V247.73H194.182V159.824Z" fill="#C3AEFF" stroke="black" stroke-width="0.590172" stroke-miterlimit="10"/>
<path d="M237.232 121.258H180.016V178.539H237.232V121.258Z" fill="#3B1C96" stroke="black" stroke-width="0.385733" stroke-miterlimit="10"/>
<path d="M216.271 165.495C222.216 165.495 227.035 160.67 227.035 154.719C227.035 148.768 222.216 143.943 216.271 143.943C210.327 143.943 205.508 148.768 205.508 154.719C205.508 160.67 210.327 165.495 216.271 165.495Z" fill="#F6F5D8" stroke="black" stroke-width="0.385733" stroke-miterlimit="10"/>
<path d="M257.627 196.12L249.407 203.799L249.13 204.06L231.568 183.643L223.071 190.449L218.55 157.628L218.539 157.555L218.635 157.594L248.563 170.599L240.066 177.404L257.627 196.12Z" fill="#8965F2" stroke="black" stroke-width="0.385733" stroke-miterlimit="10"/>
<path d="M260.465 196.119L252.534 204.059L249.413 203.799L257.633 196.119L240.071 177.404L248.569 170.598L218.641 157.594L221.377 156.42L252.534 170.031L242.904 177.971L260.465 196.119Z" fill="#653ED7" stroke="black" stroke-width="0.385733" stroke-miterlimit="10"/>
<path d="M325.703 73.0918L325.617 73.126" stroke="black" stroke-width="0.385733" stroke-miterlimit="10"/>
<path d="M76.7294 83.7758C74.6787 93.264 66.2946 99.5025 58.0124 97.7047C57.3043 97.5516 56.6188 97.3418 55.956 97.0865C48.9088 94.3416 44.8471 85.9537 46.7222 77.2708C48.7729 67.7826 57.157 61.5441 65.4392 63.3419C67.0027 63.6822 68.4529 64.2777 69.7615 65.0944C75.3812 68.5993 78.3949 76.0741 76.7294 83.7758Z" fill="#E8920A" stroke="black" stroke-width="0.358732" stroke-miterlimit="10"/>
<path d="M78.9925 84.9095C76.9418 94.3977 68.5576 100.636 60.2755 98.8384C58.712 98.4981 57.2617 97.9026 55.9531 97.0859C56.6159 97.3411 57.3014 97.551 58.0095 97.7041C66.2917 99.5019 74.6758 93.2634 76.7265 83.7752C78.392 76.0735 75.3782 68.5987 69.7586 65.0938C76.8058 67.8387 80.8676 76.2266 78.9925 84.9095Z" fill="#9B6619" stroke="black" stroke-width="0.358732" stroke-miterlimit="10"/>
<path d="M111.043 66.0525C109.349 73.879 102.438 79.0229 95.6061 77.537C95.0226 77.4123 94.4561 77.2365 93.9123 77.0266C88.1 74.7637 84.752 67.8447 86.2986 60.6874C87.9924 52.8609 94.9036 47.717 101.736 49.2029C103.027 49.4808 104.222 49.9742 105.299 50.6491C109.933 53.5415 112.42 59.7063 111.043 66.0525Z" fill="#E8920A" stroke="black" stroke-width="0.297015" stroke-miterlimit="10"/>
<path d="M112.914 66.9896C111.22 74.8161 104.309 79.96 97.4773 78.4741C96.1857 78.1962 94.9904 77.7028 93.9141 77.0279C94.4579 77.2378 95.0244 77.4136 95.6079 77.5383C102.44 79.0186 109.351 73.8746 111.045 66.0538C112.416 59.7019 109.935 53.5371 105.301 50.6504C111.113 52.9133 114.461 59.8323 112.914 66.9896Z" fill="#9B6619" stroke="black" stroke-width="0.297015" stroke-miterlimit="10"/>
<path d="M334.764 82.7674C332.544 93.0496 323.457 99.8099 314.484 97.8589C313.719 97.6944 312.971 97.4676 312.258 97.1897C304.621 94.2179 300.22 85.1267 302.253 75.7179C304.474 65.4357 313.561 58.6754 322.534 60.6264C324.228 60.995 325.797 61.6416 327.219 62.5263C333.309 66.3261 336.572 74.4248 334.77 82.7674H334.764Z" fill="#E8920A" stroke="black" stroke-width="0.38959" stroke-miterlimit="10"/>
<path d="M337.223 83.9972C335.003 94.2794 325.916 101.04 316.943 99.0887C315.249 98.7201 313.68 98.0735 312.258 97.1888C312.977 97.4667 313.719 97.6935 314.484 97.858C323.457 99.809 332.544 93.0487 334.765 82.7665C336.572 74.4239 333.303 66.3195 327.213 62.5254C334.85 65.4972 339.251 74.5884 337.218 83.9972H337.223Z" fill="#9B6619" stroke="black" stroke-width="0.38959" stroke-miterlimit="10"/>
<path d="M316.834 103.024C315.134 110.896 308.178 116.074 301.306 114.582C300.717 114.458 300.151 114.282 299.601 114.072C293.755 111.792 290.384 104.833 291.942 97.6307C293.642 89.7588 300.598 84.5809 307.47 86.0724C308.767 86.356 309.968 86.8494 311.056 87.5243C315.718 90.4337 318.216 96.6325 316.84 103.024H316.834Z" fill="#E8920A" stroke="black" stroke-width="0.300872" stroke-miterlimit="10"/>
<path d="M318.715 103.967C317.016 111.839 310.059 117.016 303.187 115.525C301.89 115.241 300.689 114.748 299.602 114.073C300.151 114.283 300.718 114.459 301.307 114.583C308.178 116.075 315.135 110.897 316.834 103.025C318.217 96.6336 315.718 90.4348 311.05 87.5254C316.897 89.8053 320.267 96.764 318.709 103.967H318.715Z" fill="#9B6619" stroke="black" stroke-width="0.300872" stroke-miterlimit="10"/>
<path d="M232.217 128.92L234.406 132.031L248.49 122.1L246.301 118.988L232.217 128.92Z" fill="#9C7EF3" stroke="black" stroke-width="0.354875" stroke-miterlimit="10"/>
<path d="M236.103 146.213L233.914 149.324L247.998 159.256L250.187 156.145L236.103 146.213Z" fill="#9C7EF3" stroke="black" stroke-width="0.354875" stroke-miterlimit="10"/>
<path d="M234.843 136.73L235.133 140.689L256.63 139.113L256.341 135.153L234.843 136.73Z" fill="#9C7EF3" stroke="black" stroke-width="0.408877" stroke-miterlimit="10"/>
<path d="M276.888 56.5194V66.3309C276.888 72.5467 271.852 77.5885 265.643 77.5885H204.292C201.119 77.5885 198.247 76.2728 196.208 74.146C194.248 72.127 193.047 69.3707 193.047 66.3309V56.5194C193.047 50.3036 198.083 45.2617 204.292 45.2617H265.643C269.835 45.2617 273.495 47.5643 275.427 50.9728C276.356 52.6061 276.888 54.5004 276.888 56.5194Z" fill="#199E86" stroke="black" stroke-width="0.354875" stroke-miterlimit="10"/>
<path d="M278.591 58.7878V68.5993C278.591 74.8151 273.555 79.8569 267.346 79.8569H205.994C201.802 79.8569 198.143 77.5544 196.211 74.1459C198.25 76.2726 201.122 77.5884 204.295 77.5884H265.646C271.855 77.5884 276.891 72.5465 276.891 66.3307V56.5193C276.891 54.5002 276.359 52.606 275.43 50.9727C277.39 52.9917 278.591 55.7479 278.591 58.7878Z" fill="#108872" stroke="black" stroke-width="0.354875" stroke-miterlimit="10"/>
<path d="M227.716 59.4643C227.716 60.0447 227.582 60.5776 227.316 61.0628C227.05 61.5385 226.641 61.9239 226.089 62.2188C225.537 62.5138 224.852 62.6613 224.034 62.6613H222.521V66.2578H220.08V56.2389H224.034C224.833 56.2389 225.508 56.3768 226.06 56.6528C226.612 56.9287 227.026 57.3093 227.302 57.7945C227.578 58.2798 227.716 58.8364 227.716 59.4643ZM223.848 60.7203C224.314 60.7203 224.661 60.6109 224.89 60.392C225.118 60.1732 225.232 59.864 225.232 59.4643C225.232 59.0647 225.118 58.7555 224.89 58.5367C224.661 58.3178 224.314 58.2084 223.848 58.2084H222.521V60.7203H223.848ZM235.223 64.4881H231.484L230.884 66.2578H228.33L231.955 56.2389H234.781L238.406 66.2578H235.823L235.223 64.4881ZM234.595 62.6042L233.353 58.9363L232.126 62.6042H234.595ZM241.95 56.2389V66.2578H239.509V56.2389H241.95ZM247.472 56.2389C248.528 56.2389 249.451 56.4482 250.24 56.8668C251.03 57.2855 251.639 57.8754 252.067 58.6366C252.505 59.3882 252.724 60.2588 252.724 61.2483C252.724 62.2283 252.505 63.0989 252.067 63.8601C251.639 64.6213 251.025 65.2112 250.226 65.6298C249.437 66.0485 248.518 66.2578 247.472 66.2578H243.718V56.2389H247.472ZM247.315 64.1456C248.238 64.1456 248.956 63.8934 249.47 63.3891C249.984 62.8849 250.24 62.1713 250.24 61.2483C250.24 60.3254 249.984 59.6071 249.47 59.0933C248.956 58.5795 248.238 58.3226 247.315 58.3226H246.159V64.1456H247.315Z" fill="#F6F5D8"/>
</g>
<defs>
<filter id="filter0_d_3355_5125" x="0" y="0.744141" width="386.461" height="413.514" filterUnits="userSpaceOnUse" color-interpolation-filters="sRGB">
<feFlood flood-opacity="0" result="BackgroundImageFix"/>
<feColorMatrix in="SourceAlpha" type="matrix" values="0 0 0 0 0 0 0 0 0 0 0 0 0 0 0 0 0 0 127 0" result="hardAlpha"/>
<feOffset dx="3" dy="3"/>
<feComposite in2="hardAlpha" operator="out"/>
<feColorMatrix type="matrix" values="0 0 0 0 0.808333 0 0 0 0 0.808333 0 0 0 0 0.808333 0 0 0 1 0"/>
<feBlend mode="normal" in2="BackgroundImageFix" result="effect1_dropShadow_3355_5125"/>
<feBlend mode="normal" in="SourceGraphic" in2="effect1_dropShadow_3355_5125" result="shape"/>
</filter>
<clipPath id="clip0_3355_5125">
<rect width="292" height="218.325" fill="white" transform="translate(46 45)"/>
</clipPath>
</defs>
</svg>
