<svg width="387" height="415" viewBox="0 0 387 415" fill="none" xmlns="http://www.w3.org/2000/svg">
<g filter="url(#filter0_d_3355_5126)">
<rect y="0.746094" width="383.464" height="410.513" rx="15.9114" fill="#17171D"/>
<rect x="0.5" y="1.24609" width="382.464" height="409.513" rx="15.4114" stroke="#F6F5D8" stroke-opacity="0.46"/>
</g>
<g clip-path="url(#clip0_3355_5126)">
<path d="M277.127 86.3167L228.845 55.145C226.269 53.4814 222.833 54.2247 221.172 56.8051L166.83 141.215C165.168 143.795 165.911 147.236 168.487 148.899L216.769 180.071C219.346 181.735 222.782 180.991 224.443 178.411L278.785 94.0012C280.446 91.4207 279.704 87.9803 277.127 86.3167Z" fill="#19CAAA" stroke="black" stroke-width="0.92" stroke-linecap="round" stroke-linejoin="round"/>
<path d="M267.884 101.028L226.468 165.345L210.496 170.298L180.893 151.182L177.078 135.176L218.098 71.4707L237.116 66.2441L265.047 84.2806L267.884 101.028Z" fill="#199E86" stroke="black" stroke-width="0.92" stroke-linecap="round" stroke-linejoin="round"/>
<path d="M244.298 91.5614C247.255 91.5614 249.652 89.1613 249.652 86.2006C249.652 83.2399 247.255 80.8398 244.298 80.8398C241.342 80.8398 238.945 83.2399 238.945 86.2006C238.945 89.1613 241.342 91.5614 244.298 91.5614Z" fill="#19CAAA" stroke="black" stroke-width="0.92" stroke-linecap="round" stroke-linejoin="round"/>
<path d="M204.83 152.856C207.786 152.856 210.183 150.456 210.183 147.496C210.183 144.535 207.786 142.135 204.83 142.135C201.873 142.135 199.477 144.535 199.477 147.496C199.477 150.456 201.873 152.856 204.83 152.856Z" fill="#19CAAA" stroke="black" stroke-width="0.92" stroke-linecap="round" stroke-linejoin="round"/>
<path d="M224.065 129.92C230.573 129.92 235.849 124.636 235.849 118.119C235.849 111.602 230.573 106.318 224.065 106.318C217.557 106.318 212.281 111.602 212.281 118.119C212.281 124.636 217.557 129.92 224.065 129.92Z" fill="#19CAAA" stroke="black" stroke-width="0.92" stroke-linecap="round" stroke-linejoin="round"/>
<path d="M324.949 125.456L295.552 76.0319C293.983 73.3942 290.576 72.5295 287.942 74.1007L201.78 125.496C199.146 127.067 198.282 130.479 199.851 133.117L229.249 182.541C230.818 185.179 234.225 186.043 236.859 184.472L323.021 133.077C325.655 131.506 326.518 128.094 324.949 125.456Z" fill="#19CAAA" stroke="black" stroke-width="0.92" stroke-linecap="round" stroke-linejoin="round"/>
<path d="M310.159 134.505L244.499 173.669L227.997 170.992L209.969 140.688L213.668 124.653L278.692 85.8613L298.048 89.6529L315.057 118.242L310.159 134.505Z" fill="#199E86" stroke="black" stroke-width="0.92" stroke-linecap="round" stroke-linejoin="round"/>
<path d="M295.619 116.077C298.575 116.077 300.972 113.677 300.972 110.716C300.972 107.756 298.575 105.355 295.619 105.355C292.662 105.355 290.266 107.756 290.266 110.716C290.266 113.677 292.662 116.077 295.619 116.077Z" fill="#19CAAA" stroke="black" stroke-width="0.92" stroke-linecap="round" stroke-linejoin="round"/>
<path d="M233.048 153.405C236.005 153.405 238.402 151.005 238.402 148.044C238.402 145.084 236.005 142.684 233.048 142.684C230.092 142.684 227.695 145.084 227.695 148.044C227.695 151.005 230.092 153.405 233.048 153.405Z" fill="#19CAAA" stroke="black" stroke-width="0.92" stroke-linecap="round" stroke-linejoin="round"/>
<path d="M263.315 142.099C269.823 142.099 275.099 136.816 275.099 130.299C275.099 123.781 269.823 118.498 263.315 118.498C256.807 118.498 251.531 123.781 251.531 130.299C251.531 136.816 256.807 142.099 263.315 142.099Z" fill="#19CAAA" stroke="black" stroke-width="0.92" stroke-linecap="round" stroke-linejoin="round"/>
<path d="M267.211 127.26H135.566C128.971 127.26 123.625 132.614 123.625 139.218V229.634C123.625 236.238 128.971 241.592 135.566 241.592H267.211C273.806 241.592 279.152 236.238 279.152 229.634V139.218C279.152 132.614 273.806 127.26 267.211 127.26Z" fill="#2BC0CA" stroke="black" stroke-miterlimit="10"/>
<path d="M263.66 131.635H139.704C133.559 131.635 128.578 136.623 128.578 142.776V226.075C128.578 232.229 133.559 237.217 139.704 237.217H263.66C269.804 237.217 274.785 232.229 274.785 226.075V142.776C274.785 136.623 269.804 131.635 263.66 131.635Z" stroke="#299097" stroke-width="0.93" stroke-linecap="round" stroke-linejoin="round" stroke-dasharray="5 5"/>
<path d="M276.373 170.719H240.573C236.947 170.719 234.008 173.662 234.008 177.293V194.478C234.008 198.108 236.947 201.052 240.573 201.052H276.373C279.999 201.052 282.938 198.108 282.938 194.478V177.293C282.938 173.662 279.999 170.719 276.373 170.719Z" fill="#2BC0CA" stroke="black" stroke-width="0.98" stroke-linecap="round" stroke-linejoin="round"/>
<path d="M247.99 192.885C251.85 192.885 254.98 189.751 254.98 185.885C254.98 182.019 251.85 178.885 247.99 178.885C244.13 178.885 241 182.019 241 185.885C241 189.751 244.13 192.885 247.99 192.885Z" stroke="black" stroke-width="0.93" stroke-linecap="round" stroke-linejoin="round"/>
<path d="M113.139 240.542C113.139 240.717 113.098 240.892 113.011 241.067C111.677 243.884 99.7237 246.083 85.1787 246.083C70.6337 246.083 58.2847 243.808 57.2886 240.927C57.242 240.798 57.2188 240.67 57.2188 240.542C57.2188 237.479 69.7367 235 85.1787 235C100.621 235 113.139 237.479 113.139 240.542Z" fill="#E8920A" stroke="black" stroke-width="0.72" stroke-miterlimit="10"/>
<path d="M109.139 231.542C109.139 231.717 109.098 231.892 109.011 232.067C107.677 234.884 95.7237 237.083 81.1787 237.083C66.6337 237.083 54.2847 234.808 53.2886 231.927C53.242 231.798 53.2188 231.67 53.2188 231.542C53.2188 228.479 65.7367 226 81.1787 226C96.6208 226 109.139 228.479 109.139 231.542Z" fill="#E8920A" stroke="black" stroke-width="0.72" stroke-miterlimit="10"/>
<path d="M113.139 223.542C113.139 223.717 113.098 223.892 113.011 224.067C111.677 226.884 99.7237 229.083 85.1787 229.083C70.6337 229.083 58.2847 226.808 57.2886 223.927C57.242 223.798 57.2188 223.67 57.2188 223.542C57.2188 220.479 69.7367 218 85.1787 218C100.621 218 113.139 220.479 113.139 223.542Z" fill="#E8920A" stroke="black" stroke-width="0.72" stroke-miterlimit="10"/>
<path d="M109.357 215.926C109.357 216.101 109.317 216.276 109.229 216.451C107.895 219.269 95.9425 221.468 81.3975 221.468C66.8525 221.468 54.5035 219.193 53.5074 216.311C53.4608 216.183 53.4375 216.055 53.4375 215.926C53.4375 212.864 65.9554 210.385 81.3975 210.385C96.8395 210.385 109.357 212.864 109.357 215.926Z" fill="#E8920A" stroke="black" stroke-width="0.72" stroke-miterlimit="10"/>
<path d="M113.141 245.207C113.141 248.27 100.623 250.749 85.1813 250.749C69.7392 250.749 57.2213 248.27 57.2213 245.207C57.2213 244.385 56.6796 242.442 57.2912 240.926C58.2873 243.807 70.3916 246.082 85.1813 246.082C99.971 246.082 111.679 243.883 113.013 241.066C113.427 242.617 113.141 244.56 113.141 245.207Z" fill="#9B6619" stroke="black" stroke-width="0.72" stroke-miterlimit="10"/>
<path d="M109.141 236.207C109.141 239.27 96.6234 241.749 81.1813 241.749C65.7392 241.749 53.2213 239.27 53.2213 236.207C53.2213 235.385 52.6796 233.442 53.2912 231.926C54.2873 234.807 66.3916 237.082 81.1813 237.082C95.971 237.082 107.679 234.883 109.013 232.066C109.427 233.617 109.141 235.56 109.141 236.207Z" fill="#9B6619" stroke="black" stroke-width="0.72" stroke-miterlimit="10"/>
<path d="M113.141 228.207C113.141 231.27 100.623 233.749 85.1813 233.749C69.7392 233.749 57.2213 231.27 57.2213 228.207C57.2213 227.385 56.6796 225.442 57.2912 223.926C58.2873 226.807 70.3916 229.082 85.1813 229.082C99.971 229.082 111.679 226.883 113.013 224.066C113.427 225.617 113.141 227.56 113.141 228.207Z" fill="#9B6619" stroke="black" stroke-width="0.72" stroke-miterlimit="10"/>
<path d="M109.352 220.592C109.352 223.655 96.8343 226.134 81.3922 226.134C65.9502 226.134 53.4323 223.655 53.4323 220.592C53.4323 219.77 52.8905 217.827 53.5022 216.311C54.4982 219.192 66.6026 221.467 81.3922 221.467C96.1819 221.467 107.89 219.268 109.224 216.451C109.638 218.002 109.352 219.945 109.352 220.592Z" fill="#9B6619" stroke="black" stroke-width="0.72" stroke-miterlimit="10"/>
</g>
<path d="M105.56 321.4C105.307 320.933 104.94 320.58 104.46 320.34C103.993 320.087 103.44 319.96 102.8 319.96C101.693 319.96 100.807 320.327 100.14 321.06C99.4733 321.78 99.14 322.747 99.14 323.96C99.14 325.253 99.4867 326.267 100.18 327C100.887 327.72 101.853 328.08 103.08 328.08C103.92 328.08 104.627 327.867 105.2 327.44C105.787 327.013 106.213 326.4 106.48 325.6H102.14V323.08H109.58V326.26C109.327 327.113 108.893 327.907 108.28 328.64C107.68 329.373 106.913 329.967 105.98 330.42C105.047 330.873 103.993 331.1 102.82 331.1C101.433 331.1 100.193 330.8 99.1 330.2C98.02 329.587 97.1733 328.74 96.56 327.66C95.96 326.58 95.66 325.347 95.66 323.96C95.66 322.573 95.96 321.34 96.56 320.26C97.1733 319.167 98.02 318.32 99.1 317.72C100.18 317.107 101.413 316.8 102.8 316.8C104.48 316.8 105.893 317.207 107.04 318.02C108.2 318.833 108.967 319.96 109.34 321.4H105.56ZM114.894 321.7C115.294 321.087 115.794 320.607 116.394 320.26C116.994 319.9 117.661 319.72 118.394 319.72V323.34H117.454C116.601 323.34 115.961 323.527 115.534 323.9C115.108 324.26 114.894 324.9 114.894 325.82V331H111.474V319.84H114.894V321.7ZM125.109 331.16C124.016 331.16 123.029 330.927 122.149 330.46C121.282 329.993 120.596 329.327 120.089 328.46C119.596 327.593 119.349 326.58 119.349 325.42C119.349 324.273 119.602 323.267 120.109 322.4C120.616 321.52 121.309 320.847 122.189 320.38C123.069 319.913 124.056 319.68 125.149 319.68C126.242 319.68 127.229 319.913 128.109 320.38C128.989 320.847 129.682 321.52 130.189 322.4C130.696 323.267 130.949 324.273 130.949 325.42C130.949 326.567 130.689 327.58 130.169 328.46C129.662 329.327 128.962 329.993 128.069 330.46C127.189 330.927 126.202 331.16 125.109 331.16ZM125.109 328.2C125.762 328.2 126.316 327.96 126.769 327.48C127.236 327 127.469 326.313 127.469 325.42C127.469 324.527 127.242 323.84 126.789 323.36C126.349 322.88 125.802 322.64 125.149 322.64C124.482 322.64 123.929 322.88 123.489 323.36C123.049 323.827 122.829 324.513 122.829 325.42C122.829 326.313 123.042 327 123.469 327.48C123.909 327.96 124.456 328.2 125.109 328.2ZM143.783 319.84V331H140.363V329.48C140.017 329.973 139.543 330.373 138.943 330.68C138.357 330.973 137.703 331.12 136.983 331.12C136.13 331.12 135.377 330.933 134.723 330.56C134.07 330.173 133.563 329.62 133.203 328.9C132.843 328.18 132.663 327.333 132.663 326.36V319.84H136.063V325.9C136.063 326.647 136.257 327.227 136.643 327.64C137.03 328.053 137.55 328.26 138.203 328.26C138.87 328.26 139.397 328.053 139.783 327.64C140.17 327.227 140.363 326.647 140.363 325.9V319.84H143.783ZM149.66 321.42C149.993 320.9 150.453 320.48 151.04 320.16C151.627 319.84 152.313 319.68 153.1 319.68C154.02 319.68 154.853 319.913 155.6 320.38C156.347 320.847 156.933 321.513 157.36 322.38C157.8 323.247 158.02 324.253 158.02 325.4C158.02 326.547 157.8 327.56 157.36 328.44C156.933 329.307 156.347 329.98 155.6 330.46C154.853 330.927 154.02 331.16 153.1 331.16C152.327 331.16 151.64 331 151.04 330.68C150.453 330.36 149.993 329.947 149.66 329.44V336.32H146.24V319.84H149.66V321.42ZM154.54 325.4C154.54 324.547 154.3 323.88 153.82 323.4C153.353 322.907 152.773 322.66 152.08 322.66C151.4 322.66 150.82 322.907 150.34 323.4C149.873 323.893 149.64 324.567 149.64 325.42C149.64 326.273 149.873 326.947 150.34 327.44C150.82 327.933 151.4 328.18 152.08 328.18C152.76 328.18 153.34 327.933 153.82 327.44C154.3 326.933 154.54 326.253 154.54 325.4ZM255.858 328.1V331H254.118C252.878 331 251.912 330.7 251.218 330.1C250.525 329.487 250.178 328.493 250.178 327.12V322.68H248.818V319.84H250.178V317.12H253.598V319.84H255.838V322.68H253.598V327.16C253.598 327.493 253.678 327.733 253.838 327.88C253.998 328.027 254.265 328.1 254.638 328.1H255.858ZM262.843 331.16C261.75 331.16 260.763 330.927 259.883 330.46C259.017 329.993 258.33 329.327 257.823 328.46C257.33 327.593 257.083 326.58 257.083 325.42C257.083 324.273 257.337 323.267 257.843 322.4C258.35 321.52 259.043 320.847 259.923 320.38C260.803 319.913 261.79 319.68 262.883 319.68C263.977 319.68 264.963 319.913 265.843 320.38C266.723 320.847 267.417 321.52 267.923 322.4C268.43 323.267 268.683 324.273 268.683 325.42C268.683 326.567 268.423 327.58 267.903 328.46C267.397 329.327 266.697 329.993 265.803 330.46C264.923 330.927 263.937 331.16 262.843 331.16ZM262.843 328.2C263.497 328.2 264.05 327.96 264.503 327.48C264.97 327 265.203 326.313 265.203 325.42C265.203 324.527 264.977 323.84 264.523 323.36C264.083 322.88 263.537 322.64 262.883 322.64C262.217 322.64 261.663 322.88 261.223 323.36C260.783 323.827 260.563 324.513 260.563 325.42C260.563 326.313 260.777 327 261.203 327.48C261.643 327.96 262.19 328.2 262.843 328.2ZM275.578 331.16C274.484 331.16 273.498 330.927 272.618 330.46C271.751 329.993 271.064 329.327 270.558 328.46C270.064 327.593 269.818 326.58 269.818 325.42C269.818 324.273 270.071 323.267 270.578 322.4C271.084 321.52 271.778 320.847 272.658 320.38C273.538 319.913 274.524 319.68 275.618 319.68C276.711 319.68 277.698 319.913 278.578 320.38C279.458 320.847 280.151 321.52 280.658 322.4C281.164 323.267 281.418 324.273 281.418 325.42C281.418 326.567 281.158 327.58 280.638 328.46C280.131 329.327 279.431 329.993 278.538 330.46C277.658 330.927 276.671 331.16 275.578 331.16ZM275.578 328.2C276.231 328.2 276.784 327.96 277.238 327.48C277.704 327 277.938 326.313 277.938 325.42C277.938 324.527 277.711 323.84 277.258 323.36C276.818 322.88 276.271 322.64 275.618 322.64C274.951 322.64 274.398 322.88 273.958 323.36C273.518 323.827 273.298 324.513 273.298 325.42C273.298 326.313 273.511 327 273.938 327.48C274.378 327.96 274.924 328.2 275.578 328.2ZM286.652 316.2V331H283.232V316.2H286.652Z" fill="#F6F5D8"/>
<path d="M168.593 331.16C167.619 331.16 166.753 330.993 165.993 330.66C165.233 330.327 164.633 329.873 164.193 329.3C163.753 328.713 163.506 328.06 163.453 327.34H166.833C166.873 327.727 167.053 328.04 167.373 328.28C167.693 328.52 168.086 328.64 168.553 328.64C168.979 328.64 169.306 328.56 169.533 328.4C169.773 328.227 169.893 328.007 169.893 327.74C169.893 327.42 169.726 327.187 169.393 327.04C169.059 326.88 168.519 326.707 167.773 326.52C166.973 326.333 166.306 326.14 165.773 325.94C165.239 325.727 164.779 325.4 164.393 324.96C164.006 324.507 163.813 323.9 163.813 323.14C163.813 322.5 163.986 321.92 164.333 321.4C164.693 320.867 165.213 320.447 165.893 320.14C166.586 319.833 167.406 319.68 168.353 319.68C169.753 319.68 170.853 320.027 171.653 320.72C172.466 321.413 172.933 322.333 173.053 323.48H169.893C169.839 323.093 169.666 322.787 169.373 322.56C169.093 322.333 168.719 322.22 168.253 322.22C167.853 322.22 167.546 322.3 167.333 322.46C167.119 322.607 167.013 322.813 167.013 323.08C167.013 323.4 167.179 323.64 167.513 323.8C167.859 323.96 168.393 324.12 169.113 324.28C169.939 324.493 170.613 324.707 171.133 324.92C171.653 325.12 172.106 325.453 172.493 325.92C172.893 326.373 173.099 326.987 173.113 327.76C173.113 328.413 172.926 329 172.553 329.52C172.193 330.027 171.666 330.427 170.973 330.72C170.293 331.013 169.499 331.16 168.593 331.16ZM174.525 325.4C174.525 324.253 174.738 323.247 175.165 322.38C175.605 321.513 176.198 320.847 176.945 320.38C177.692 319.913 178.525 319.68 179.445 319.68C180.232 319.68 180.918 319.84 181.505 320.16C182.105 320.48 182.565 320.9 182.885 321.42V319.84H186.305V331H182.885V329.42C182.552 329.94 182.085 330.36 181.485 330.68C180.898 331 180.212 331.16 179.425 331.16C178.518 331.16 177.692 330.927 176.945 330.46C176.198 329.98 175.605 329.307 175.165 328.44C174.738 327.56 174.525 326.547 174.525 325.4ZM182.885 325.42C182.885 324.567 182.645 323.893 182.165 323.4C181.698 322.907 181.125 322.66 180.445 322.66C179.765 322.66 179.185 322.907 178.705 323.4C178.238 323.88 178.005 324.547 178.005 325.4C178.005 326.253 178.238 326.933 178.705 327.44C179.185 327.933 179.765 328.18 180.445 328.18C181.125 328.18 181.698 327.933 182.165 327.44C182.645 326.947 182.885 326.273 182.885 325.42ZM193.799 327.8L196.219 319.84H199.859L195.899 331H191.679L187.719 319.84H191.379L193.799 327.8ZM203.019 318.68C202.419 318.68 201.925 318.507 201.539 318.16C201.165 317.8 200.979 317.36 200.979 316.84C200.979 316.307 201.165 315.867 201.539 315.52C201.925 315.16 202.419 314.98 203.019 314.98C203.605 314.98 204.085 315.16 204.459 315.52C204.845 315.867 205.039 316.307 205.039 316.84C205.039 317.36 204.845 317.8 204.459 318.16C204.085 318.507 203.605 318.68 203.019 318.68ZM204.719 319.84V331H201.299V319.84H204.719ZM213.997 319.72C215.304 319.72 216.344 320.147 217.117 321C217.904 321.84 218.297 323 218.297 324.48V331H214.897V324.94C214.897 324.193 214.704 323.613 214.317 323.2C213.93 322.787 213.41 322.58 212.757 322.58C212.104 322.58 211.584 322.787 211.197 323.2C210.81 323.613 210.617 324.193 210.617 324.94V331H207.197V319.84H210.617V321.32C210.964 320.827 211.43 320.44 212.017 320.16C212.604 319.867 213.264 319.72 213.997 319.72ZM224.914 319.68C225.7 319.68 226.387 319.84 226.974 320.16C227.574 320.48 228.034 320.9 228.354 321.42V319.84H231.774V330.98C231.774 332.007 231.567 332.933 231.154 333.76C230.754 334.6 230.134 335.267 229.294 335.76C228.467 336.253 227.434 336.5 226.194 336.5C224.54 336.5 223.2 336.107 222.174 335.32C221.147 334.547 220.56 333.493 220.414 332.16H223.794C223.9 332.587 224.154 332.92 224.554 333.16C224.954 333.413 225.447 333.54 226.034 333.54C226.74 333.54 227.3 333.333 227.714 332.92C228.14 332.52 228.354 331.873 228.354 330.98V329.4C228.02 329.92 227.56 330.347 226.974 330.68C226.387 331 225.7 331.16 224.914 331.16C223.994 331.16 223.16 330.927 222.414 330.46C221.667 329.98 221.074 329.307 220.634 328.44C220.207 327.56 219.994 326.547 219.994 325.4C219.994 324.253 220.207 323.247 220.634 322.38C221.074 321.513 221.667 320.847 222.414 320.38C223.16 319.913 223.994 319.68 224.914 319.68ZM228.354 325.42C228.354 324.567 228.114 323.893 227.634 323.4C227.167 322.907 226.594 322.66 225.914 322.66C225.234 322.66 224.654 322.907 224.174 323.4C223.707 323.88 223.474 324.547 223.474 325.4C223.474 326.253 223.707 326.933 224.174 327.44C224.654 327.933 225.234 328.18 225.914 328.18C226.594 328.18 227.167 327.933 227.634 327.44C228.114 326.947 228.354 326.273 228.354 325.42ZM238.788 331.16C237.814 331.16 236.948 330.993 236.188 330.66C235.428 330.327 234.828 329.873 234.388 329.3C233.948 328.713 233.701 328.06 233.648 327.34H237.028C237.068 327.727 237.248 328.04 237.568 328.28C237.888 328.52 238.281 328.64 238.748 328.64C239.174 328.64 239.501 328.56 239.728 328.4C239.968 328.227 240.088 328.007 240.088 327.74C240.088 327.42 239.921 327.187 239.588 327.04C239.254 326.88 238.714 326.707 237.968 326.52C237.168 326.333 236.501 326.14 235.968 325.94C235.434 325.727 234.974 325.4 234.588 324.96C234.201 324.507 234.008 323.9 234.008 323.14C234.008 322.5 234.181 321.92 234.528 321.4C234.888 320.867 235.408 320.447 236.088 320.14C236.781 319.833 237.601 319.68 238.548 319.68C239.948 319.68 241.048 320.027 241.848 320.72C242.661 321.413 243.128 322.333 243.248 323.48H240.088C240.034 323.093 239.861 322.787 239.568 322.56C239.288 322.333 238.914 322.22 238.448 322.22C238.048 322.22 237.741 322.3 237.528 322.46C237.314 322.607 237.208 322.813 237.208 323.08C237.208 323.4 237.374 323.64 237.708 323.8C238.054 323.96 238.588 324.12 239.308 324.28C240.134 324.493 240.808 324.707 241.328 324.92C241.848 325.12 242.301 325.453 242.688 325.92C243.088 326.373 243.294 326.987 243.308 327.76C243.308 328.413 243.121 329 242.748 329.52C242.388 330.027 241.861 330.427 241.168 330.72C240.488 331.013 239.694 331.16 238.788 331.16Z" fill="#22F3B5"/>
<defs>
<filter id="filter0_d_3355_5126" x="0" y="0.746094" width="386.461" height="413.514" filterUnits="userSpaceOnUse" color-interpolation-filters="sRGB">
<feFlood flood-opacity="0" result="BackgroundImageFix"/>
<feColorMatrix in="SourceAlpha" type="matrix" values="0 0 0 0 0 0 0 0 0 0 0 0 0 0 0 0 0 0 127 0" result="hardAlpha"/>
<feOffset dx="3" dy="3"/>
<feComposite in2="hardAlpha" operator="out"/>
<feColorMatrix type="matrix" values="0 0 0 0 0.808333 0 0 0 0 0.808333 0 0 0 0 0.808333 0 0 0 1 0"/>
<feBlend mode="normal" in2="BackgroundImageFix" result="effect1_dropShadow_3355_5126"/>
<feBlend mode="normal" in="SourceGraphic" in2="effect1_dropShadow_3355_5126" result="shape"/>
</filter>
<clipPath id="clip0_3355_5126">
<rect width="273" height="209" fill="white" transform="translate(53 54)"/>
</clipPath>
</defs>
</svg>
