<svg width="341" height="126" viewBox="0 0 341 126" fill="none" xmlns="http://www.w3.org/2000/svg">
<rect x="1.5" y="1.5" width="338" height="123" rx="15.5" fill="#FCFCFC" stroke="black" stroke-width="3"/>
<g clip-path="url(#clip0_3353_4877)">
<path fill-rule="evenodd" clip-rule="evenodd" d="M33 90H87.8628V35H33V90Z" fill="#F05F22"/>
<path fill-rule="evenodd" clip-rule="evenodd" d="M62.6605 65.2328V77.4531H58.0314V65.2328L46.2188 47.5469H51.8593L60.3631 60.6094L68.8325 47.5469H74.4731L62.6605 65.2328Z" fill="white"/>
<path fill-rule="evenodd" clip-rule="evenodd" d="M120.032 53.4449C114.957 53.4449 111.151 57.3809 111.151 62.4684C111.151 67.5559 114.957 71.5262 120.032 71.5262C123.29 71.5262 126.118 69.8418 127.644 67.0059L131.999 69.6012C129.565 73.7777 125.004 76.4934 120.032 76.4934C112.214 76.4762 106.008 70.2543 106.008 62.4684C106.008 54.6652 112.214 48.4434 120.032 48.4434C125.056 48.4434 129.565 51.1246 131.999 55.3355L127.644 57.9309C126.101 55.0949 123.29 53.4449 120.032 53.4449Z" fill="#F05F22"/>
<path fill-rule="evenodd" clip-rule="evenodd" d="M148.733 66.009C148.733 62.8293 146.418 60.423 143.435 60.423C140.366 60.423 138.052 62.8293 138.052 66.009C138.052 69.1887 140.366 71.5949 143.435 71.5949C146.367 71.5949 148.733 69.1887 148.733 66.009ZM133.062 66.009C133.062 60.2684 137.657 55.6621 143.435 55.6621C149.127 55.6621 153.722 60.2684 153.722 66.009C153.722 71.7496 149.127 76.3559 143.435 76.3559C137.657 76.3559 133.062 71.7496 133.062 66.009Z" fill="#F05F22"/>
<path fill-rule="evenodd" clip-rule="evenodd" d="M186.089 64.3594V75.9094H181.118V65.2359C181.118 62.2453 179.66 60.3547 177.466 60.3547C175.22 60.3547 173.574 62.2453 173.574 65.2359V75.9094H168.773V65.2359C168.773 62.2453 167.265 60.3547 165.053 60.3547C162.841 60.3547 161.23 62.2453 161.23 65.2359V75.9094H156.258V56.1438H161.23V58.6703C162.447 56.7797 164.333 55.5938 166.647 55.5938C169.168 55.5938 171.157 57.0203 172.374 59.2375C173.625 57.2609 175.94 55.5938 178.854 55.5938C183.226 55.5938 186.089 59.4609 186.089 64.3594Z" fill="#F05F22"/>
<path fill-rule="evenodd" clip-rule="evenodd" d="M203.769 66.2145C203.769 62.9145 201.729 60.5426 198.866 60.5426C196.071 60.5426 193.963 62.7941 193.963 66.1629C193.963 69.5145 196.123 71.7832 198.952 71.7832C201.729 71.766 203.769 69.4457 203.769 66.2145ZM199.912 76.4238C197.169 76.4238 195.146 75.1691 193.98 73.4332V75.9082H189.008V48.4082H193.98V58.5488C195.18 56.9332 197.203 55.7645 199.826 55.7645C204.918 55.7645 208.81 60.1645 208.896 66.0941C208.981 72.0926 205.004 76.4238 199.912 76.4238Z" fill="#F05F22"/>
<path fill-rule="evenodd" clip-rule="evenodd" d="M210.947 75.909H215.919V56.1434H210.947V75.909ZM210.312 50.5402C210.312 48.8559 211.718 47.584 213.416 47.584C215.062 47.584 216.433 48.8387 216.433 50.5402C216.433 52.2246 215.062 53.4965 213.416 53.4965C211.736 53.4793 210.312 52.2246 210.312 50.5402Z" fill="#F05F22"/>
<path fill-rule="evenodd" clip-rule="evenodd" d="M237.353 64.4453V75.9094H232.553V65.5109C232.553 62.3313 230.889 60.3547 228.489 60.3547C225.849 60.3547 223.98 62.7609 223.98 65.5969V75.9094H219.18V56.1438H223.98V58.6359C225.317 56.7797 227.461 55.5938 229.964 55.5938C234.387 55.5938 237.353 59.375 237.353 64.4453Z" fill="#F05F22"/>
<path fill-rule="evenodd" clip-rule="evenodd" d="M252.44 67.1436V66.7139L247.417 67.6936C245.737 68.0889 244.708 68.9483 244.708 70.0999C244.708 71.3202 245.823 72.2311 247.657 72.1796C250.297 72.0936 252.44 69.7905 252.44 67.1436ZM257.241 63.9811V75.9092H252.44V73.6233C250.983 75.2046 248.703 76.3733 246.183 76.4249C242.839 76.4249 239.891 74.2249 239.891 70.4436C239.891 66.8686 242.565 64.8233 246.543 64.0327L252.32 62.9327C251.926 61.2827 250.675 60.028 248.772 60.028C246.886 60.028 245.12 61.2139 244.057 62.7092L240.439 60.0796C242.291 57.4842 245.548 55.7483 248.789 55.7483C253.623 55.7139 257.241 59.0655 257.241 63.9811Z" fill="#F05F22"/>
<path fill-rule="evenodd" clip-rule="evenodd" d="M267.354 60.6121V68.8965C267.354 70.5121 268.057 71.2512 269.514 71.2512H271.983V75.8918H268.828C264.628 75.8918 262.553 73.8293 262.553 69.498V60.6121H258.953V56.1434H262.382V51.2621L267.354 49.7324V56.1434H271.983V60.6121H267.354Z" fill="#F05F22"/>
<path fill-rule="evenodd" clip-rule="evenodd" d="M289.287 66.009C289.287 62.8293 286.973 60.423 283.99 60.423C280.921 60.423 278.606 62.8293 278.606 66.009C278.606 69.1887 280.921 71.5949 283.99 71.5949C286.921 71.5949 289.287 69.1887 289.287 66.009ZM273.617 66.009C273.617 60.2684 278.212 55.6621 283.99 55.6621C289.682 55.6621 294.276 60.2684 294.276 66.009C294.276 71.7496 289.682 76.3559 283.99 76.3559C278.212 76.3559 273.617 71.7496 273.617 66.009Z" fill="#F05F22"/>
<path fill-rule="evenodd" clip-rule="evenodd" d="M307.988 55.7129V60.5082C303.547 60.5082 301.644 62.6738 301.644 65.5098V75.9082H296.844V56.1426H301.644V58.6176C302.999 56.8473 305.176 55.7129 307.988 55.7129Z" fill="#F05F22"/>
</g>
<defs>
<clipPath id="clip0_3353_4877">
<rect width="275" height="55" fill="white" transform="translate(33 35)"/>
</clipPath>
</defs>
</svg>
