<svg width="398" height="567" viewBox="0 0 398 567" fill="none" xmlns="http://www.w3.org/2000/svg">
<g filter="url(#filter0_d_3266_4487)">
<rect y="64" width="394" height="499" rx="30" fill="#F27750"/>
</g>
<g filter="url(#filter1_d_3266_4487)">
<circle cx="185" cy="221" r="151" fill="#F6F5D8"/>
</g>
<path d="M84.5614 417.529C84.4876 416.784 84.1706 416.206 83.6104 415.793C83.0503 415.381 82.2901 415.175 81.3299 415.175C80.6774 415.175 80.1265 415.267 79.6772 415.452C79.2279 415.63 78.8832 415.879 78.6431 416.2C78.4092 416.52 78.2923 416.883 78.2923 417.289C78.2799 417.628 78.3507 417.923 78.5046 418.175C78.6647 418.428 78.8832 418.646 79.1602 418.831C79.4371 419.009 79.7572 419.166 80.1204 419.302C80.4835 419.431 80.8713 419.542 81.2837 419.634L82.9826 420.04C83.8074 420.225 84.5645 420.471 85.2539 420.779C85.9433 421.087 86.5404 421.465 87.0451 421.915C87.5498 422.364 87.9407 422.893 88.2177 423.503C88.5008 424.112 88.6455 424.811 88.6516 425.599C88.6455 426.756 88.35 427.759 87.7653 428.609C87.1867 429.452 86.3496 430.107 85.2539 430.575C84.1644 431.037 82.8503 431.268 81.3114 431.268C79.7849 431.268 78.4554 431.034 77.3228 430.566C76.1964 430.098 75.3162 429.406 74.6822 428.489C74.0543 427.565 73.725 426.424 73.6942 425.063H77.5629C77.6059 425.697 77.7875 426.227 78.1076 426.651C78.4338 427.07 78.8678 427.387 79.4094 427.602C79.9573 427.812 80.5759 427.916 81.2653 427.916C81.9424 427.916 82.5302 427.818 83.0288 427.621C83.5335 427.424 83.9244 427.15 84.2013 426.799C84.4783 426.448 84.6168 426.045 84.6168 425.589C84.6168 425.165 84.4906 424.808 84.2383 424.518C83.9921 424.229 83.6289 423.983 83.1488 423.78C82.6748 423.577 82.0932 423.392 81.4038 423.226L79.3448 422.709C77.7506 422.321 76.4918 421.715 75.5685 420.89C74.6452 420.065 74.1867 418.954 74.1928 417.557C74.1867 416.412 74.4914 415.412 75.1069 414.556C75.7286 413.701 76.5811 413.033 77.6644 412.553C78.7478 412.072 79.9788 411.832 81.3576 411.832C82.761 411.832 83.9859 412.072 85.0323 412.553C86.0849 413.033 86.9035 413.701 87.4883 414.556C88.073 415.412 88.3746 416.403 88.3931 417.529H84.5614ZM95.2001 422.801V431H91.2669V412.091H95.0893V419.32H95.2555C95.5756 418.483 96.0926 417.828 96.8066 417.354C97.5207 416.874 98.4163 416.634 99.4934 416.634C100.478 416.634 101.337 416.849 102.069 417.28C102.808 417.705 103.381 418.317 103.787 419.117C104.199 419.911 104.402 420.862 104.396 421.97V431H100.463V422.672C100.469 421.798 100.247 421.118 99.7981 420.631C99.3549 420.145 98.7333 419.902 97.9331 419.902C97.3976 419.902 96.9236 420.016 96.5112 420.244C96.1049 420.471 95.7849 420.804 95.551 421.241C95.3232 421.672 95.2063 422.192 95.2001 422.801ZM113.955 431.277C112.496 431.277 111.24 430.982 110.188 430.391C109.141 429.794 108.335 428.95 107.768 427.861C107.202 426.765 106.919 425.469 106.919 423.974C106.919 422.515 107.202 421.235 107.768 420.133C108.335 419.031 109.132 418.172 110.16 417.557C111.194 416.941 112.406 416.634 113.798 416.634C114.733 416.634 115.604 416.784 116.411 417.086C117.223 417.381 117.931 417.828 118.534 418.425C119.143 419.022 119.617 419.773 119.956 420.678C120.295 421.576 120.464 422.629 120.464 423.835V424.915H108.489V422.478H116.761C116.761 421.912 116.638 421.41 116.392 420.973C116.146 420.536 115.804 420.194 115.367 419.948C114.936 419.696 114.435 419.57 113.862 419.57C113.265 419.57 112.736 419.708 112.274 419.985C111.819 420.256 111.462 420.622 111.203 421.084C110.945 421.539 110.812 422.047 110.806 422.607V424.925C110.806 425.626 110.935 426.233 111.194 426.744C111.459 427.254 111.831 427.648 112.311 427.925C112.791 428.202 113.361 428.341 114.019 428.341C114.456 428.341 114.856 428.279 115.219 428.156C115.583 428.033 115.893 427.848 116.152 427.602C116.411 427.356 116.607 427.054 116.743 426.697L120.381 426.938C120.196 427.812 119.817 428.575 119.245 429.227C118.679 429.874 117.946 430.378 117.048 430.741C116.155 431.098 115.124 431.277 113.955 431.277ZM126.964 412.091V431H123.031V412.091H126.964ZM137.741 416.818V419.773H128.988V416.818H137.741ZM130.992 431V415.793C130.992 414.765 131.192 413.913 131.592 413.236C131.998 412.559 132.552 412.051 133.254 411.712C133.955 411.374 134.753 411.205 135.645 411.205C136.248 411.205 136.799 411.251 137.298 411.343C137.802 411.435 138.178 411.518 138.424 411.592L137.722 414.547C137.569 414.498 137.378 414.451 137.15 414.408C136.928 414.365 136.701 414.344 136.467 414.344C135.888 414.344 135.485 414.479 135.257 414.75C135.03 415.015 134.916 415.387 134.916 415.867V431H130.992ZM152.569 431.277C151.116 431.277 149.867 430.969 148.82 430.354C147.78 429.732 146.98 428.87 146.42 427.768C145.866 426.667 145.589 425.399 145.589 423.964C145.589 422.512 145.869 421.238 146.429 420.142C146.995 419.04 147.799 418.182 148.839 417.566C149.879 416.944 151.116 416.634 152.551 416.634C153.788 416.634 154.871 416.858 155.801 417.308C156.73 417.757 157.466 418.388 158.007 419.2C158.549 420.013 158.847 420.967 158.903 422.062H155.191C155.087 421.355 154.81 420.785 154.36 420.354C153.917 419.917 153.335 419.699 152.615 419.699C152.006 419.699 151.473 419.865 151.018 420.197C150.569 420.524 150.218 421.001 149.965 421.629C149.713 422.256 149.587 423.017 149.587 423.909C149.587 424.814 149.71 425.583 149.956 426.217C150.209 426.851 150.562 427.335 151.018 427.667C151.473 427.999 152.006 428.165 152.615 428.165C153.065 428.165 153.468 428.073 153.825 427.888C154.188 427.704 154.486 427.436 154.72 427.085C154.96 426.728 155.117 426.3 155.191 425.802H158.903C158.841 426.885 158.546 427.839 158.017 428.664C157.493 429.483 156.77 430.123 155.847 430.585C154.923 431.046 153.831 431.277 152.569 431.277ZM167.829 431.277C166.395 431.277 165.154 430.972 164.108 430.363C163.068 429.747 162.264 428.892 161.698 427.796C161.132 426.694 160.849 425.417 160.849 423.964C160.849 422.5 161.132 421.219 161.698 420.124C162.264 419.022 163.068 418.166 164.108 417.557C165.154 416.941 166.395 416.634 167.829 416.634C169.263 416.634 170.5 416.941 171.54 417.557C172.587 418.166 173.393 419.022 173.96 420.124C174.526 421.219 174.809 422.5 174.809 423.964C174.809 425.417 174.526 426.694 173.96 427.796C173.393 428.892 172.587 429.747 171.54 430.363C170.5 430.972 169.263 431.277 167.829 431.277ZM167.847 428.23C168.5 428.23 169.045 428.045 169.482 427.676C169.919 427.301 170.248 426.79 170.469 426.143C170.697 425.497 170.811 424.762 170.811 423.937C170.811 423.112 170.697 422.376 170.469 421.73C170.248 421.084 169.919 420.573 169.482 420.197C169.045 419.822 168.5 419.634 167.847 419.634C167.189 419.634 166.635 419.822 166.185 420.197C165.742 420.573 165.407 421.084 165.179 421.73C164.957 422.376 164.847 423.112 164.847 423.937C164.847 424.762 164.957 425.497 165.179 426.143C165.407 426.79 165.742 427.301 166.185 427.676C166.635 428.045 167.189 428.23 167.847 428.23ZM177.366 431V416.818H181.115V419.32H181.281C181.577 418.489 182.069 417.834 182.759 417.354C183.448 416.874 184.273 416.634 185.233 416.634C186.205 416.634 187.033 416.877 187.717 417.363C188.4 417.843 188.855 418.496 189.083 419.32H189.231C189.52 418.508 190.043 417.858 190.8 417.372C191.564 416.88 192.465 416.634 193.506 416.634C194.829 416.634 195.903 417.055 196.728 417.898C197.559 418.736 197.974 419.924 197.974 421.462V431H194.05V422.238C194.05 421.45 193.841 420.859 193.423 420.465C193.004 420.071 192.481 419.874 191.853 419.874C191.139 419.874 190.582 420.102 190.182 420.558C189.782 421.007 189.582 421.601 189.582 422.339V431H185.768V422.155C185.768 421.459 185.568 420.905 185.168 420.493C184.774 420.08 184.254 419.874 183.608 419.874C183.171 419.874 182.777 419.985 182.426 420.207C182.081 420.422 181.808 420.727 181.604 421.121C181.401 421.509 181.3 421.964 181.3 422.487V431H177.366ZM201.081 436.318V416.818H204.959V419.2H205.135C205.307 418.819 205.556 418.431 205.882 418.037C206.215 417.637 206.646 417.304 207.175 417.04C207.711 416.769 208.375 416.634 209.169 416.634C210.203 416.634 211.158 416.904 212.032 417.446C212.906 417.982 213.604 418.791 214.127 419.874C214.651 420.951 214.912 422.303 214.912 423.928C214.912 425.509 214.657 426.845 214.146 427.935C213.641 429.018 212.952 429.84 212.078 430.4C211.21 430.954 210.237 431.231 209.16 431.231C208.397 431.231 207.748 431.105 207.212 430.852C206.683 430.6 206.249 430.283 205.91 429.901C205.572 429.513 205.313 429.123 205.135 428.729H205.015V436.318H201.081ZM204.931 423.909C204.931 424.752 205.048 425.488 205.282 426.116C205.516 426.744 205.855 427.233 206.298 427.584C206.741 427.929 207.28 428.101 207.914 428.101C208.554 428.101 209.096 427.925 209.539 427.575C209.982 427.218 210.317 426.725 210.545 426.097C210.779 425.463 210.896 424.734 210.896 423.909C210.896 423.09 210.782 422.37 210.554 421.749C210.327 421.127 209.991 420.641 209.548 420.29C209.105 419.939 208.56 419.763 207.914 419.763C207.274 419.763 206.732 419.933 206.289 420.271C205.852 420.61 205.516 421.09 205.282 421.712C205.048 422.333 204.931 423.066 204.931 423.909ZM221.578 431.268C220.674 431.268 219.867 431.111 219.159 430.797C218.452 430.477 217.891 430.006 217.479 429.384C217.073 428.756 216.87 427.975 216.87 427.039C216.87 426.251 217.014 425.589 217.304 425.054C217.593 424.518 217.987 424.088 218.485 423.761C218.984 423.435 219.55 423.189 220.184 423.023C220.824 422.857 221.495 422.74 222.197 422.672C223.022 422.586 223.687 422.506 224.191 422.432C224.696 422.352 225.062 422.235 225.29 422.081C225.518 421.927 225.632 421.699 225.632 421.398V421.342C225.632 420.758 225.447 420.305 225.078 419.985C224.715 419.665 224.198 419.505 223.527 419.505C222.819 419.505 222.256 419.662 221.837 419.976C221.418 420.284 221.141 420.671 221.006 421.139L217.368 420.844C217.553 419.982 217.916 419.237 218.458 418.609C218.999 417.975 219.698 417.489 220.554 417.151C221.415 416.806 222.413 416.634 223.545 416.634C224.333 416.634 225.087 416.726 225.807 416.911C226.533 417.095 227.177 417.381 227.737 417.769C228.303 418.157 228.749 418.656 229.076 419.265C229.402 419.868 229.565 420.591 229.565 421.435V431H225.835V429.033H225.724C225.496 429.477 225.192 429.867 224.81 430.206C224.428 430.538 223.97 430.8 223.434 430.991C222.899 431.175 222.28 431.268 221.578 431.268ZM222.705 428.553C223.283 428.553 223.794 428.439 224.238 428.212C224.681 427.978 225.029 427.664 225.281 427.27C225.533 426.876 225.659 426.43 225.659 425.931V424.426C225.536 424.506 225.367 424.58 225.152 424.648C224.942 424.709 224.705 424.768 224.441 424.823C224.176 424.872 223.911 424.919 223.647 424.962C223.382 424.999 223.142 425.032 222.926 425.063C222.465 425.131 222.062 425.239 221.717 425.386C221.372 425.534 221.105 425.734 220.914 425.987C220.723 426.233 220.627 426.54 220.627 426.91C220.627 427.445 220.821 427.855 221.209 428.138C221.603 428.415 222.102 428.553 222.705 428.553ZM236.55 422.801V431H232.616V416.818H236.365V419.32H236.531C236.845 418.496 237.371 417.843 238.11 417.363C238.849 416.877 239.744 416.634 240.797 416.634C241.782 416.634 242.64 416.849 243.373 417.28C244.105 417.711 244.675 418.326 245.081 419.126C245.487 419.92 245.69 420.868 245.69 421.97V431H241.757V422.672C241.763 421.804 241.542 421.127 241.092 420.641C240.643 420.148 240.024 419.902 239.237 419.902C238.707 419.902 238.239 420.016 237.833 420.244C237.433 420.471 237.119 420.804 236.891 421.241C236.67 421.672 236.556 422.192 236.55 422.801ZM248.79 431V416.818H252.724V431H248.79ZM250.766 414.99C250.181 414.99 249.68 414.796 249.261 414.408C248.849 414.014 248.643 413.544 248.643 412.996C248.643 412.454 248.849 411.989 249.261 411.602C249.68 411.208 250.181 411.011 250.766 411.011C251.351 411.011 251.849 411.208 252.262 411.602C252.68 411.989 252.89 412.454 252.89 412.996C252.89 413.544 252.68 414.014 252.262 414.408C251.849 414.796 251.351 414.99 250.766 414.99ZM262.282 431.277C260.848 431.277 259.607 430.972 258.561 430.363C257.521 429.747 256.718 428.892 256.151 427.796C255.585 426.694 255.302 425.417 255.302 423.964C255.302 422.5 255.585 421.219 256.151 420.124C256.718 419.022 257.521 418.166 258.561 417.557C259.607 416.941 260.848 416.634 262.282 416.634C263.716 416.634 264.953 416.941 265.994 417.557C267.04 418.166 267.846 419.022 268.413 420.124C268.979 421.219 269.262 422.5 269.262 423.964C269.262 425.417 268.979 426.694 268.413 427.796C267.846 428.892 267.04 429.747 265.994 430.363C264.953 430.972 263.716 431.277 262.282 431.277ZM262.3 428.23C262.953 428.23 263.498 428.045 263.935 427.676C264.372 427.301 264.701 426.79 264.923 426.143C265.15 425.497 265.264 424.762 265.264 423.937C265.264 423.112 265.15 422.376 264.923 421.73C264.701 421.084 264.372 420.573 263.935 420.197C263.498 419.822 262.953 419.634 262.3 419.634C261.642 419.634 261.088 419.822 260.638 420.197C260.195 420.573 259.86 421.084 259.632 421.73C259.411 422.376 259.3 423.112 259.3 423.937C259.3 424.762 259.411 425.497 259.632 426.143C259.86 426.79 260.195 427.301 260.638 427.676C261.088 428.045 261.642 428.23 262.3 428.23ZM275.753 422.801V431H271.82V416.818H275.568V419.32H275.734C276.048 418.496 276.575 417.843 277.313 417.363C278.052 416.877 278.947 416.634 280 416.634C280.985 416.634 281.844 416.849 282.576 417.28C283.308 417.711 283.878 418.326 284.284 419.126C284.69 419.92 284.893 420.868 284.893 421.97V431H280.96V422.672C280.966 421.804 280.745 421.127 280.295 420.641C279.846 420.148 279.228 419.902 278.44 419.902C277.91 419.902 277.442 420.016 277.036 420.244C276.636 420.471 276.322 420.804 276.094 421.241C275.873 421.672 275.759 422.192 275.753 422.801ZM301.554 416.818V419.773H293.014V416.818H301.554ZM294.953 413.42H298.886V426.642C298.886 427.005 298.941 427.288 299.052 427.491C299.163 427.688 299.317 427.827 299.514 427.907C299.717 427.987 299.951 428.027 300.216 428.027C300.4 428.027 300.585 428.012 300.77 427.981C300.954 427.944 301.096 427.916 301.194 427.898L301.813 430.825C301.616 430.886 301.339 430.957 300.982 431.037C300.625 431.123 300.191 431.175 299.68 431.194C298.732 431.231 297.901 431.105 297.187 430.815C296.479 430.526 295.928 430.077 295.534 429.467C295.141 428.858 294.947 428.089 294.953 427.159V413.42ZM310.372 431.277C308.938 431.277 307.697 430.972 306.651 430.363C305.611 429.747 304.807 428.892 304.241 427.796C303.675 426.694 303.392 425.417 303.392 423.964C303.392 422.5 303.675 421.219 304.241 420.124C304.807 419.022 305.611 418.166 306.651 417.557C307.697 416.941 308.938 416.634 310.372 416.634C311.806 416.634 313.043 416.941 314.083 417.557C315.13 418.166 315.936 419.022 316.502 420.124C317.069 421.219 317.352 422.5 317.352 423.964C317.352 425.417 317.069 426.694 316.502 427.796C315.936 428.892 315.13 429.747 314.083 430.363C313.043 430.972 311.806 431.277 310.372 431.277ZM310.39 428.23C311.043 428.23 311.587 428.045 312.025 427.676C312.462 427.301 312.791 426.79 313.012 426.143C313.24 425.497 313.354 424.762 313.354 423.937C313.354 423.112 313.24 422.376 313.012 421.73C312.791 421.084 312.462 420.573 312.025 420.197C311.587 419.822 311.043 419.634 310.39 419.634C309.732 419.634 309.178 419.822 308.728 420.197C308.285 420.573 307.95 421.084 307.722 421.73C307.5 422.376 307.39 423.112 307.39 423.937C307.39 424.762 307.5 425.497 307.722 426.143C307.95 426.79 308.285 427.301 308.728 427.676C309.178 428.045 309.732 428.23 310.39 428.23ZM55.8666 462.268C54.9617 462.268 54.1554 462.111 53.4475 461.797C52.7397 461.477 52.1795 461.006 51.7671 460.384C51.3609 459.756 51.1578 458.975 51.1578 458.039C51.1578 457.251 51.3024 456.589 51.5917 456.054C51.881 455.518 52.2749 455.088 52.7735 454.761C53.2721 454.435 53.8384 454.189 54.4724 454.023C55.1125 453.857 55.7835 453.74 56.4852 453.672C57.31 453.586 57.9748 453.506 58.4795 453.432C58.9842 453.352 59.3505 453.235 59.5782 453.081C59.806 452.927 59.9198 452.699 59.9198 452.398V452.342C59.9198 451.758 59.7352 451.305 59.3659 450.985C59.0027 450.665 58.4856 450.505 57.8147 450.505C57.1069 450.505 56.5436 450.662 56.1251 450.976C55.7065 451.284 55.4295 451.671 55.2941 452.139L51.6563 451.844C51.841 450.982 52.2042 450.237 52.7458 449.609C53.2875 448.975 53.9861 448.489 54.8417 448.151C55.7035 447.806 56.7006 447.634 57.8332 447.634C58.6211 447.634 59.3751 447.726 60.0953 447.911C60.8216 448.095 61.4648 448.381 62.0249 448.769C62.5912 449.157 63.0375 449.656 63.3637 450.265C63.69 450.868 63.8531 451.591 63.8531 452.435V462H60.123V460.033H60.0122C59.7844 460.477 59.4797 460.867 59.0981 461.206C58.7165 461.538 58.2579 461.8 57.7224 461.991C57.1869 462.175 56.5683 462.268 55.8666 462.268ZM56.993 459.553C57.5716 459.553 58.0825 459.439 58.5257 459.212C58.9688 458.978 59.3166 458.664 59.569 458.27C59.8213 457.876 59.9475 457.43 59.9475 456.931V455.426C59.8244 455.506 59.6552 455.58 59.4397 455.648C59.2304 455.709 58.9935 455.768 58.7288 455.823C58.4641 455.872 58.1994 455.919 57.9347 455.962C57.6701 455.999 57.43 456.032 57.2146 456.063C56.7529 456.131 56.3498 456.239 56.0051 456.386C55.6604 456.534 55.3926 456.734 55.2018 456.987C55.011 457.233 54.9156 457.54 54.9156 457.91C54.9156 458.445 55.1095 458.855 55.4972 459.138C55.8912 459.415 56.3898 459.553 56.993 459.553ZM78.7043 451.862L75.1034 452.084C75.0419 451.776 74.9095 451.499 74.7064 451.253C74.5033 451 74.2355 450.8 73.9031 450.653C73.5769 450.499 73.1861 450.422 72.7306 450.422C72.1212 450.422 71.6072 450.551 71.1887 450.81C70.7701 451.062 70.5608 451.401 70.5608 451.825C70.5608 452.164 70.6962 452.45 70.9671 452.684C71.2379 452.918 71.7026 453.106 72.3612 453.247L74.928 453.764C76.3068 454.047 77.3347 454.503 78.0118 455.131C78.6889 455.759 79.0274 456.583 79.0274 457.605C79.0274 458.535 78.7535 459.35 78.2057 460.052C77.664 460.754 76.9192 461.301 75.9713 461.695C75.0296 462.083 73.9432 462.277 72.7121 462.277C70.8347 462.277 69.339 461.886 68.2249 461.104C67.1169 460.317 66.4675 459.246 66.2767 457.891L70.1453 457.688C70.2623 458.261 70.5454 458.698 70.9948 458.999C71.4441 459.295 72.0196 459.442 72.7213 459.442C73.4107 459.442 73.9647 459.31 74.3833 459.045C74.808 458.775 75.0234 458.427 75.0296 458.002C75.0234 457.645 74.8726 457.353 74.5771 457.125C74.2817 456.891 73.8262 456.713 73.2107 456.589L70.7547 456.1C69.3698 455.823 68.3387 455.343 67.6617 454.66C66.9907 453.977 66.6553 453.106 66.6553 452.047C66.6553 451.136 66.9015 450.351 67.3939 449.692C67.8925 449.034 68.5911 448.526 69.4898 448.169C70.3946 447.812 71.4533 447.634 72.6659 447.634C74.4571 447.634 75.8667 448.012 76.8946 448.769C77.9287 449.526 78.5319 450.557 78.7043 451.862ZM93.3039 451.862L89.703 452.084C89.6415 451.776 89.5091 451.499 89.306 451.253C89.1029 451 88.8351 450.8 88.5028 450.653C88.1765 450.499 87.7857 450.422 87.3302 450.422C86.7208 450.422 86.2068 450.551 85.7883 450.81C85.3697 451.062 85.1604 451.401 85.1604 451.825C85.1604 452.164 85.2958 452.45 85.5667 452.684C85.8375 452.918 86.3022 453.106 86.9608 453.247L89.5276 453.764C90.9064 454.047 91.9343 454.503 92.6114 455.131C93.2885 455.759 93.627 456.583 93.627 457.605C93.627 458.535 93.3531 459.35 92.8053 460.052C92.2636 460.754 91.5189 461.301 90.5709 461.695C89.6292 462.083 88.5428 462.277 87.3117 462.277C85.4343 462.277 83.9386 461.886 82.8245 461.104C81.7165 460.317 81.0671 459.246 80.8763 457.891L84.7449 457.688C84.8619 458.261 85.145 458.698 85.5944 458.999C86.0437 459.295 86.6192 459.442 87.3209 459.442C88.0103 459.442 88.5643 459.31 88.9829 459.045C89.4076 458.775 89.623 458.427 89.6292 458.002C89.623 457.645 89.4722 457.353 89.1768 457.125C88.8813 456.891 88.4258 456.713 87.8103 456.589L85.3543 456.1C83.9694 455.823 82.9384 455.343 82.2613 454.66C81.5903 453.977 81.2549 453.106 81.2549 452.047C81.2549 451.136 81.5011 450.351 81.9935 449.692C82.4921 449.034 83.1907 448.526 84.0894 448.169C84.9942 447.812 86.0529 447.634 87.2655 447.634C89.0567 447.634 90.4663 448.012 91.4942 448.769C92.5283 449.526 93.1315 450.557 93.3039 451.862ZM96.1038 462V447.818H100.037V462H96.1038ZM98.0796 445.99C97.4949 445.99 96.9932 445.796 96.5747 445.408C96.1623 445.014 95.9561 444.544 95.9561 443.996C95.9561 443.454 96.1623 442.989 96.5747 442.602C96.9932 442.208 97.4949 442.011 98.0796 442.011C98.6644 442.011 99.163 442.208 99.5754 442.602C99.9939 442.989 100.203 443.454 100.203 443.996C100.203 444.544 99.9939 445.014 99.5754 445.408C99.163 445.796 98.6644 445.99 98.0796 445.99ZM114.987 451.862L111.387 452.084C111.325 451.776 111.193 451.499 110.99 451.253C110.786 451 110.519 450.8 110.186 450.653C109.86 450.499 109.469 450.422 109.014 450.422C108.404 450.422 107.89 450.551 107.472 450.81C107.053 451.062 106.844 451.401 106.844 451.825C106.844 452.164 106.979 452.45 107.25 452.684C107.521 452.918 107.986 453.106 108.644 453.247L111.211 453.764C112.59 454.047 113.618 454.503 114.295 455.131C114.972 455.759 115.311 456.583 115.311 457.605C115.311 458.535 115.037 459.35 114.489 460.052C113.947 460.754 113.202 461.301 112.255 461.695C111.313 462.083 110.226 462.277 108.995 462.277C107.118 462.277 105.622 461.886 104.508 461.104C103.4 460.317 102.751 459.246 102.56 457.891L106.429 457.688C106.545 458.261 106.829 458.698 107.278 458.999C107.727 459.295 108.303 459.442 109.005 459.442C109.694 459.442 110.248 459.31 110.666 459.045C111.091 458.775 111.307 458.427 111.313 458.002C111.307 457.645 111.156 457.353 110.86 457.125C110.565 456.891 110.109 456.713 109.494 456.589L107.038 456.1C105.653 455.823 104.622 455.343 103.945 454.66C103.274 453.977 102.938 453.106 102.938 452.047C102.938 451.136 103.185 450.351 103.677 449.692C104.176 449.034 104.874 448.526 105.773 448.169C106.678 447.812 107.737 447.634 108.949 447.634C110.74 447.634 112.15 448.012 113.178 448.769C114.212 449.526 114.815 450.557 114.987 451.862ZM125.331 447.818V450.773H116.79V447.818H125.331ZM118.729 444.42H122.662V457.642C122.662 458.005 122.718 458.288 122.829 458.491C122.939 458.688 123.093 458.827 123.29 458.907C123.493 458.987 123.727 459.027 123.992 459.027C124.177 459.027 124.361 459.012 124.546 458.981C124.731 458.944 124.872 458.916 124.971 458.898L125.589 461.825C125.392 461.886 125.115 461.957 124.758 462.037C124.401 462.123 123.967 462.175 123.456 462.194C122.508 462.231 121.678 462.105 120.964 461.815C120.256 461.526 119.705 461.077 119.311 460.467C118.917 459.858 118.723 459.089 118.729 458.159V444.42ZM136.339 467.318C135.84 467.318 135.372 467.278 134.935 467.198C134.504 467.124 134.147 467.029 133.864 466.912L134.751 463.976C135.212 464.117 135.628 464.194 135.997 464.207C136.373 464.219 136.696 464.133 136.967 463.948C137.244 463.763 137.468 463.45 137.641 463.006L137.871 462.406L132.784 447.818H136.92L139.856 458.233H140.004L142.968 447.818H147.132L141.62 463.533C141.355 464.296 140.995 464.961 140.54 465.527C140.09 466.099 139.521 466.54 138.832 466.847C138.142 467.161 137.311 467.318 136.339 467.318ZM155.095 462.277C153.661 462.277 152.421 461.972 151.375 461.363C150.334 460.747 149.531 459.892 148.965 458.796C148.398 457.694 148.115 456.417 148.115 454.964C148.115 453.5 148.398 452.219 148.965 451.124C149.531 450.022 150.334 449.166 151.375 448.557C152.421 447.941 153.661 447.634 155.095 447.634C156.53 447.634 157.767 447.941 158.807 448.557C159.853 449.166 160.66 450.022 161.226 451.124C161.792 452.219 162.076 453.5 162.076 454.964C162.076 456.417 161.792 457.694 161.226 458.796C160.66 459.892 159.853 460.747 158.807 461.363C157.767 461.972 156.53 462.277 155.095 462.277ZM155.114 459.23C155.766 459.23 156.311 459.045 156.748 458.676C157.185 458.301 157.514 457.79 157.736 457.143C157.964 456.497 158.078 455.762 158.078 454.937C158.078 454.112 157.964 453.376 157.736 452.73C157.514 452.084 157.185 451.573 156.748 451.197C156.311 450.822 155.766 450.634 155.114 450.634C154.455 450.634 153.901 450.822 153.452 451.197C153.009 451.573 152.673 452.084 152.446 452.73C152.224 453.376 152.113 454.112 152.113 454.937C152.113 455.762 152.224 456.497 152.446 457.143C152.673 457.79 153.009 458.301 153.452 458.676C153.901 459.045 154.455 459.23 155.114 459.23ZM173.728 455.962V447.818H177.661V462H173.884V459.424H173.737C173.417 460.255 172.884 460.923 172.139 461.428C171.401 461.932 170.499 462.185 169.434 462.185C168.486 462.185 167.652 461.969 166.932 461.538C166.212 461.107 165.649 460.495 165.242 459.701C164.842 458.907 164.639 457.956 164.633 456.848V447.818H168.566V456.146C168.572 456.983 168.797 457.645 169.24 458.131C169.684 458.618 170.277 458.861 171.022 458.861C171.496 458.861 171.939 458.753 172.352 458.538C172.764 458.316 173.097 457.99 173.349 457.559C173.608 457.128 173.734 456.596 173.728 455.962ZM186.824 462V447.818H190.758V462H186.824ZM188.8 445.99C188.216 445.99 187.714 445.796 187.295 445.408C186.883 445.014 186.677 444.544 186.677 443.996C186.677 443.454 186.883 442.989 187.295 442.602C187.714 442.208 188.216 442.011 188.8 442.011C189.385 442.011 189.884 442.208 190.296 442.602C190.715 442.989 190.924 443.454 190.924 443.996C190.924 444.544 190.715 445.014 190.296 445.408C189.884 445.796 189.385 445.99 188.8 445.99ZM197.842 453.801V462H193.908V447.818H197.657V450.32H197.823C198.137 449.496 198.663 448.843 199.402 448.363C200.141 447.877 201.036 447.634 202.089 447.634C203.074 447.634 203.932 447.849 204.665 448.28C205.397 448.711 205.967 449.326 206.373 450.126C206.779 450.92 206.982 451.868 206.982 452.97V462H203.049V453.672C203.055 452.804 202.834 452.127 202.384 451.641C201.935 451.148 201.316 450.902 200.528 450.902C199.999 450.902 199.531 451.016 199.125 451.244C198.725 451.471 198.411 451.804 198.183 452.241C197.962 452.672 197.848 453.192 197.842 453.801Z" fill="black"/>
<path d="M216.1 462V447.818H219.848V450.32H220.015C220.31 449.489 220.803 448.834 221.492 448.354C222.181 447.874 223.006 447.634 223.966 447.634C224.939 447.634 225.767 447.877 226.45 448.363C227.133 448.843 227.589 449.496 227.816 450.32H227.964C228.254 449.508 228.777 448.858 229.534 448.372C230.297 447.88 231.199 447.634 232.239 447.634C233.562 447.634 234.637 448.055 235.461 448.898C236.292 449.736 236.708 450.924 236.708 452.462V462H232.784V453.238C232.784 452.45 232.575 451.859 232.156 451.465C231.737 451.071 231.214 450.874 230.586 450.874C229.872 450.874 229.315 451.102 228.915 451.558C228.515 452.007 228.315 452.601 228.315 453.339V462H224.502V453.155C224.502 452.459 224.302 451.905 223.902 451.493C223.508 451.08 222.988 450.874 222.341 450.874C221.904 450.874 221.51 450.985 221.16 451.207C220.815 451.422 220.541 451.727 220.338 452.121C220.135 452.509 220.033 452.964 220.033 453.487V462H216.1ZM243.859 462.268C242.954 462.268 242.148 462.111 241.44 461.797C240.732 461.477 240.172 461.006 239.759 460.384C239.353 459.756 239.15 458.975 239.15 458.039C239.15 457.251 239.295 456.589 239.584 456.054C239.873 455.518 240.267 455.088 240.766 454.761C241.264 454.435 241.831 454.189 242.465 454.023C243.105 453.857 243.776 453.74 244.477 453.672C245.302 453.586 245.967 453.506 246.472 453.432C246.976 453.352 247.343 453.235 247.57 453.081C247.798 452.927 247.912 452.699 247.912 452.398V452.342C247.912 451.758 247.727 451.305 247.358 450.985C246.995 450.665 246.478 450.505 245.807 450.505C245.099 450.505 244.536 450.662 244.117 450.976C243.699 451.284 243.422 451.671 243.286 452.139L239.649 451.844C239.833 450.982 240.196 450.237 240.738 449.609C241.28 448.975 241.978 448.489 242.834 448.151C243.696 447.806 244.693 447.634 245.825 447.634C246.613 447.634 247.367 447.726 248.087 447.911C248.814 448.095 249.457 448.381 250.017 448.769C250.583 449.157 251.03 449.656 251.356 450.265C251.682 450.868 251.845 451.591 251.845 452.435V462H248.115V460.033H248.004C247.777 460.477 247.472 460.867 247.09 461.206C246.709 461.538 246.25 461.8 245.715 461.991C245.179 462.175 244.56 462.268 243.859 462.268ZM244.985 459.553C245.564 459.553 246.075 459.439 246.518 459.212C246.961 458.978 247.309 458.664 247.561 458.27C247.814 457.876 247.94 457.43 247.94 456.931V455.426C247.817 455.506 247.647 455.58 247.432 455.648C247.223 455.709 246.986 455.768 246.721 455.823C246.456 455.872 246.192 455.919 245.927 455.962C245.662 455.999 245.422 456.032 245.207 456.063C244.745 456.131 244.342 456.239 243.997 456.386C243.653 456.534 243.385 456.734 243.194 456.987C243.003 457.233 242.908 457.54 242.908 457.91C242.908 458.445 243.102 458.855 243.489 459.138C243.883 459.415 244.382 459.553 244.985 459.553ZM258.83 453.801V462H254.897V447.818H258.645V450.32H258.812C259.125 449.496 259.652 448.843 260.39 448.363C261.129 447.877 262.025 447.634 263.077 447.634C264.062 447.634 264.921 447.849 265.653 448.28C266.386 448.711 266.955 449.326 267.361 450.126C267.767 450.92 267.971 451.868 267.971 452.97V462H264.037V453.672C264.044 452.804 263.822 452.127 263.373 451.641C262.923 451.148 262.305 450.902 261.517 450.902C260.987 450.902 260.52 451.016 260.113 451.244C259.713 451.471 259.399 451.804 259.172 452.241C258.95 452.672 258.836 453.192 258.83 453.801ZM275.115 462.268C274.21 462.268 273.403 462.111 272.696 461.797C271.988 461.477 271.428 461.006 271.015 460.384C270.609 459.756 270.406 458.975 270.406 458.039C270.406 457.251 270.55 456.589 270.84 456.054C271.129 455.518 271.523 455.088 272.022 454.761C272.52 454.435 273.086 454.189 273.72 454.023C274.361 453.857 275.032 453.74 275.733 453.672C276.558 453.586 277.223 453.506 277.728 453.432C278.232 453.352 278.599 453.235 278.826 453.081C279.054 452.927 279.168 452.699 279.168 452.398V452.342C279.168 451.758 278.983 451.305 278.614 450.985C278.251 450.665 277.734 450.505 277.063 450.505C276.355 450.505 275.792 450.662 275.373 450.976C274.955 451.284 274.678 451.671 274.542 452.139L270.904 451.844C271.089 450.982 271.452 450.237 271.994 449.609C272.536 448.975 273.234 448.489 274.09 448.151C274.951 447.806 275.949 447.634 277.081 447.634C277.869 447.634 278.623 447.726 279.343 447.911C280.07 448.095 280.713 448.381 281.273 448.769C281.839 449.157 282.286 449.656 282.612 450.265C282.938 450.868 283.101 451.591 283.101 452.435V462H279.371V460.033H279.26C279.032 460.477 278.728 460.867 278.346 461.206C277.965 461.538 277.506 461.8 276.97 461.991C276.435 462.175 275.816 462.268 275.115 462.268ZM276.241 459.553C276.82 459.553 277.331 459.439 277.774 459.212C278.217 458.978 278.565 458.664 278.817 458.27C279.069 457.876 279.196 457.43 279.196 456.931V455.426C279.072 455.506 278.903 455.58 278.688 455.648C278.478 455.709 278.242 455.768 277.977 455.823C277.712 455.872 277.447 455.919 277.183 455.962C276.918 455.999 276.678 456.032 276.463 456.063C276.001 456.131 275.598 456.239 275.253 456.386C274.908 456.534 274.641 456.734 274.45 456.987C274.259 457.233 274.164 457.54 274.164 457.91C274.164 458.445 274.358 458.855 274.745 459.138C275.139 459.415 275.638 459.553 276.241 459.553ZM292.542 467.614C291.268 467.614 290.175 467.438 289.264 467.087C288.359 466.743 287.639 466.272 287.104 465.675C286.568 465.078 286.22 464.407 286.06 463.662L289.698 463.173C289.809 463.456 289.984 463.72 290.224 463.967C290.464 464.213 290.781 464.41 291.175 464.558C291.575 464.711 292.062 464.788 292.634 464.788C293.49 464.788 294.195 464.579 294.748 464.161C295.309 463.748 295.589 463.056 295.589 462.083V459.489H295.422C295.25 459.883 294.992 460.255 294.647 460.606C294.302 460.957 293.859 461.243 293.317 461.464C292.776 461.686 292.129 461.797 291.378 461.797C290.314 461.797 289.344 461.551 288.47 461.058C287.602 460.56 286.91 459.799 286.393 458.778C285.882 457.75 285.626 456.451 285.626 454.881C285.626 453.275 285.888 451.933 286.411 450.856C286.934 449.779 287.63 448.972 288.498 448.437C289.372 447.901 290.329 447.634 291.369 447.634C292.163 447.634 292.828 447.769 293.364 448.04C293.899 448.304 294.33 448.637 294.656 449.037C294.989 449.431 295.244 449.819 295.422 450.2H295.57V447.818H299.476V462.138C299.476 463.345 299.18 464.354 298.589 465.167C297.998 465.979 297.18 466.589 296.133 466.995C295.093 467.407 293.896 467.614 292.542 467.614ZM292.625 458.842C293.259 458.842 293.794 458.685 294.231 458.371C294.675 458.051 295.013 457.596 295.247 457.005C295.487 456.408 295.607 455.694 295.607 454.863C295.607 454.032 295.49 453.312 295.256 452.702C295.022 452.087 294.684 451.61 294.241 451.271C293.797 450.933 293.259 450.763 292.625 450.763C291.979 450.763 291.434 450.939 290.991 451.29C290.547 451.634 290.212 452.115 289.984 452.73C289.757 453.346 289.643 454.057 289.643 454.863C289.643 455.682 289.757 456.389 289.984 456.987C290.218 457.577 290.554 458.036 290.991 458.362C291.434 458.682 291.979 458.842 292.625 458.842ZM302.606 462V447.818H306.539V462H302.606ZM304.582 445.99C303.997 445.99 303.495 445.796 303.077 445.408C302.664 445.014 302.458 444.544 302.458 443.996C302.458 443.454 302.664 442.989 303.077 442.602C303.495 442.208 303.997 442.011 304.582 442.011C305.166 442.011 305.665 442.208 306.077 442.602C306.496 442.989 306.705 443.454 306.705 443.996C306.705 444.544 306.496 445.014 306.077 445.408C305.665 445.796 305.166 445.99 304.582 445.99ZM313.623 453.801V462H309.69V447.818H313.438V450.32H313.604C313.918 449.496 314.445 448.843 315.183 448.363C315.922 447.877 316.818 447.634 317.87 447.634C318.855 447.634 319.714 447.849 320.446 448.28C321.179 448.711 321.748 449.326 322.154 450.126C322.56 450.92 322.764 451.868 322.764 452.97V462H318.83V453.672C318.837 452.804 318.615 452.127 318.166 451.641C317.716 451.148 317.098 450.902 316.31 450.902C315.78 450.902 315.313 451.016 314.906 451.244C314.506 451.471 314.192 451.804 313.965 452.241C313.743 452.672 313.629 453.192 313.623 453.801ZM332.253 467.614C330.979 467.614 329.886 467.438 328.975 467.087C328.07 466.743 327.35 466.272 326.815 465.675C326.279 465.078 325.931 464.407 325.771 463.662L329.409 463.173C329.52 463.456 329.695 463.72 329.935 463.967C330.175 464.213 330.492 464.41 330.886 464.558C331.286 464.711 331.773 464.788 332.345 464.788C333.201 464.788 333.905 464.579 334.459 464.161C335.02 463.748 335.3 463.056 335.3 462.083V459.489H335.133C334.961 459.883 334.703 460.255 334.358 460.606C334.013 460.957 333.57 461.243 333.028 461.464C332.487 461.686 331.84 461.797 331.089 461.797C330.025 461.797 329.055 461.551 328.181 461.058C327.313 460.56 326.621 459.799 326.104 458.778C325.593 457.75 325.337 456.451 325.337 454.881C325.337 453.275 325.599 451.933 326.122 450.856C326.645 449.779 327.341 448.972 328.209 448.437C329.083 447.901 330.04 447.634 331.08 447.634C331.874 447.634 332.539 447.769 333.074 448.04C333.61 448.304 334.041 448.637 334.367 449.037C334.699 449.431 334.955 449.819 335.133 450.2H335.281V447.818H339.187V462.138C339.187 463.345 338.891 464.354 338.3 465.167C337.709 465.979 336.891 466.589 335.844 466.995C334.804 467.407 333.607 467.614 332.253 467.614ZM332.336 458.842C332.97 458.842 333.505 458.685 333.942 458.371C334.386 458.051 334.724 457.596 334.958 457.005C335.198 456.408 335.318 455.694 335.318 454.863C335.318 454.032 335.201 453.312 334.967 452.702C334.733 452.087 334.395 451.61 333.952 451.271C333.508 450.933 332.97 450.763 332.336 450.763C331.69 450.763 331.145 450.939 330.702 451.29C330.258 451.634 329.923 452.115 329.695 452.73C329.467 453.346 329.354 454.057 329.354 454.863C329.354 455.682 329.467 456.389 329.695 456.987C329.929 457.577 330.265 458.036 330.702 458.362C331.145 458.682 331.69 458.842 332.336 458.842ZM102.29 498.318C101.791 498.318 101.323 498.278 100.886 498.198C100.456 498.124 100.099 498.029 99.8154 497.912L100.702 494.976C101.163 495.117 101.579 495.194 101.948 495.207C102.324 495.219 102.647 495.133 102.918 494.948C103.195 494.763 103.419 494.45 103.592 494.006L103.823 493.406L98.7352 478.818H102.872L105.808 489.233H105.955L108.919 478.818H113.083L107.571 494.533C107.306 495.296 106.946 495.961 106.491 496.527C106.042 497.099 105.472 497.54 104.783 497.847C104.093 498.161 103.262 498.318 102.29 498.318ZM121.047 493.277C119.612 493.277 118.372 492.972 117.326 492.363C116.285 491.747 115.482 490.892 114.916 489.796C114.35 488.694 114.066 487.417 114.066 485.964C114.066 484.5 114.35 483.219 114.916 482.124C115.482 481.022 116.285 480.166 117.326 479.557C118.372 478.941 119.612 478.634 121.047 478.634C122.481 478.634 123.718 478.941 124.758 479.557C125.805 480.166 126.611 481.022 127.177 482.124C127.744 483.219 128.027 484.5 128.027 485.964C128.027 487.417 127.744 488.694 127.177 489.796C126.611 490.892 125.805 491.747 124.758 492.363C123.718 492.972 122.481 493.277 121.047 493.277ZM121.065 490.23C121.718 490.23 122.262 490.045 122.699 489.676C123.136 489.301 123.466 488.79 123.687 488.143C123.915 487.497 124.029 486.762 124.029 485.937C124.029 485.112 123.915 484.376 123.687 483.73C123.466 483.084 123.136 482.573 122.699 482.197C122.262 481.822 121.718 481.634 121.065 481.634C120.406 481.634 119.852 481.822 119.403 482.197C118.96 482.573 118.624 483.084 118.397 483.73C118.175 484.376 118.064 485.112 118.064 485.937C118.064 486.762 118.175 487.497 118.397 488.143C118.624 488.79 118.96 489.301 119.403 489.676C119.852 490.045 120.406 490.23 121.065 490.23ZM139.679 486.962V478.818H143.612V493H139.836V490.424H139.688C139.368 491.255 138.835 491.923 138.091 492.428C137.352 492.932 136.45 493.185 135.385 493.185C134.437 493.185 133.603 492.969 132.883 492.538C132.163 492.107 131.6 491.495 131.194 490.701C130.794 489.907 130.59 488.956 130.584 487.848V478.818H134.517V487.146C134.524 487.983 134.748 488.645 135.191 489.131C135.635 489.618 136.229 489.861 136.973 489.861C137.447 489.861 137.891 489.753 138.303 489.538C138.715 489.316 139.048 488.99 139.3 488.559C139.559 488.128 139.685 487.596 139.679 486.962ZM146.758 493V478.818H150.571V481.293H150.719C150.978 480.412 151.411 479.748 152.021 479.298C152.63 478.843 153.332 478.615 154.126 478.615C154.323 478.615 154.535 478.627 154.763 478.652C154.991 478.677 155.191 478.71 155.363 478.754V482.244C155.179 482.188 154.923 482.139 154.597 482.096C154.271 482.053 153.972 482.031 153.701 482.031C153.123 482.031 152.606 482.157 152.15 482.41C151.701 482.656 151.344 483.001 151.079 483.444C150.821 483.887 150.691 484.398 150.691 484.977V493H146.758ZM169.877 493.277C168.419 493.277 167.163 492.982 166.11 492.391C165.064 491.794 164.258 490.95 163.691 489.861C163.125 488.765 162.842 487.469 162.842 485.974C162.842 484.515 163.125 483.235 163.691 482.133C164.258 481.031 165.055 480.172 166.083 479.557C167.117 478.941 168.329 478.634 169.72 478.634C170.656 478.634 171.527 478.784 172.333 479.086C173.146 479.381 173.854 479.828 174.457 480.425C175.066 481.022 175.54 481.773 175.879 482.678C176.217 483.576 176.387 484.629 176.387 485.835V486.915H164.411V484.478H172.684C172.684 483.912 172.561 483.41 172.315 482.973C172.069 482.536 171.727 482.194 171.29 481.948C170.859 481.696 170.358 481.57 169.785 481.57C169.188 481.57 168.659 481.708 168.197 481.985C167.742 482.256 167.384 482.622 167.126 483.084C166.867 483.539 166.735 484.047 166.729 484.607V486.925C166.729 487.626 166.858 488.233 167.117 488.744C167.381 489.254 167.754 489.648 168.234 489.925C168.714 490.202 169.283 490.341 169.942 490.341C170.379 490.341 170.779 490.279 171.142 490.156C171.505 490.033 171.816 489.848 172.075 489.602C172.333 489.356 172.53 489.054 172.666 488.697L176.304 488.938C176.119 489.812 175.74 490.575 175.168 491.227C174.602 491.874 173.869 492.378 172.97 492.741C172.078 493.098 171.047 493.277 169.877 493.277ZM181.986 478.818L184.59 483.776L187.258 478.818H191.293L187.185 485.909L191.404 493H187.388L184.59 488.097L181.839 493H177.776L181.986 485.909L177.924 478.818H181.986ZM193.629 498.318V478.818H197.507V481.2H197.682C197.855 480.819 198.104 480.431 198.43 480.037C198.763 479.637 199.194 479.304 199.723 479.04C200.258 478.769 200.923 478.634 201.717 478.634C202.751 478.634 203.705 478.904 204.579 479.446C205.454 479.982 206.152 480.791 206.675 481.874C207.199 482.951 207.46 484.303 207.46 485.928C207.46 487.509 207.205 488.845 206.694 489.935C206.189 491.018 205.5 491.84 204.626 492.4C203.758 492.954 202.785 493.231 201.708 493.231C200.945 493.231 200.295 493.105 199.76 492.852C199.23 492.6 198.797 492.283 198.458 491.901C198.119 491.513 197.861 491.123 197.682 490.729H197.562V498.318H193.629ZM197.479 485.909C197.479 486.752 197.596 487.488 197.83 488.116C198.064 488.744 198.403 489.233 198.846 489.584C199.289 489.929 199.828 490.101 200.462 490.101C201.102 490.101 201.643 489.925 202.087 489.575C202.53 489.218 202.865 488.725 203.093 488.097C203.327 487.463 203.444 486.734 203.444 485.909C203.444 485.09 203.33 484.37 203.102 483.749C202.874 483.127 202.539 482.641 202.096 482.29C201.653 481.939 201.108 481.763 200.462 481.763C199.821 481.763 199.28 481.933 198.837 482.271C198.4 482.61 198.064 483.09 197.83 483.712C197.596 484.333 197.479 485.066 197.479 485.909ZM216.545 493.277C215.087 493.277 213.831 492.982 212.778 492.391C211.732 491.794 210.926 490.95 210.359 489.861C209.793 488.765 209.51 487.469 209.51 485.974C209.51 484.515 209.793 483.235 210.359 482.133C210.926 481.031 211.723 480.172 212.751 479.557C213.785 478.941 214.997 478.634 216.388 478.634C217.324 478.634 218.195 478.784 219.001 479.086C219.814 479.381 220.522 479.828 221.125 480.425C221.734 481.022 222.208 481.773 222.547 482.678C222.885 483.576 223.055 484.629 223.055 485.835V486.915H211.079V484.478H219.352C219.352 483.912 219.229 483.41 218.983 482.973C218.737 482.536 218.395 482.194 217.958 481.948C217.527 481.696 217.025 481.57 216.453 481.57C215.856 481.57 215.327 481.708 214.865 481.985C214.409 482.256 214.052 482.622 213.794 483.084C213.535 483.539 213.403 484.047 213.397 484.607V486.925C213.397 487.626 213.526 488.233 213.785 488.744C214.049 489.254 214.422 489.648 214.902 489.925C215.382 490.202 215.951 490.341 216.61 490.341C217.047 490.341 217.447 490.279 217.81 490.156C218.173 490.033 218.484 489.848 218.743 489.602C219.001 489.356 219.198 489.054 219.334 488.697L222.972 488.938C222.787 489.812 222.408 490.575 221.836 491.227C221.27 491.874 220.537 492.378 219.638 492.741C218.746 493.098 217.715 493.277 216.545 493.277ZM229.555 484.801V493H225.621V478.818H229.37V481.32H229.536C229.85 480.496 230.376 479.843 231.115 479.363C231.854 478.877 232.749 478.634 233.802 478.634C234.787 478.634 235.645 478.849 236.378 479.28C237.11 479.711 237.68 480.326 238.086 481.126C238.492 481.92 238.695 482.868 238.695 483.97V493H234.762V484.672C234.768 483.804 234.547 483.127 234.097 482.641C233.648 482.148 233.029 481.902 232.241 481.902C231.712 481.902 231.244 482.016 230.838 482.244C230.438 482.471 230.124 482.804 229.896 483.241C229.675 483.672 229.561 484.192 229.555 484.801ZM253.595 482.862L249.994 483.084C249.932 482.776 249.8 482.499 249.597 482.253C249.394 482 249.126 481.8 248.794 481.653C248.468 481.499 248.077 481.422 247.621 481.422C247.012 481.422 246.498 481.551 246.079 481.81C245.661 482.062 245.451 482.401 245.451 482.825C245.451 483.164 245.587 483.45 245.858 483.684C246.129 483.918 246.593 484.106 247.252 484.247L249.819 484.764C251.197 485.047 252.225 485.503 252.902 486.131C253.58 486.759 253.918 487.583 253.918 488.605C253.918 489.535 253.644 490.35 253.096 491.052C252.555 491.754 251.81 492.301 250.862 492.695C249.92 493.083 248.834 493.277 247.603 493.277C245.725 493.277 244.23 492.886 243.116 492.104C242.008 491.317 241.358 490.246 241.167 488.891L245.036 488.688C245.153 489.261 245.436 489.698 245.885 489.999C246.335 490.295 246.91 490.442 247.612 490.442C248.301 490.442 248.855 490.31 249.274 490.045C249.699 489.775 249.914 489.427 249.92 489.002C249.914 488.645 249.763 488.353 249.468 488.125C249.172 487.891 248.717 487.713 248.101 487.589L245.645 487.1C244.26 486.823 243.229 486.343 242.552 485.66C241.881 484.977 241.546 484.106 241.546 483.047C241.546 482.136 241.792 481.351 242.285 480.692C242.783 480.034 243.482 479.526 244.38 479.169C245.285 478.812 246.344 478.634 247.557 478.634C249.348 478.634 250.757 479.012 251.785 479.769C252.819 480.526 253.423 481.557 253.595 482.862ZM262.858 493.277C261.399 493.277 260.143 492.982 259.091 492.391C258.044 491.794 257.238 490.95 256.672 489.861C256.105 488.765 255.822 487.469 255.822 485.974C255.822 484.515 256.105 483.235 256.672 482.133C257.238 481.031 258.035 480.172 259.063 479.557C260.097 478.941 261.31 478.634 262.701 478.634C263.637 478.634 264.507 478.784 265.314 479.086C266.126 479.381 266.834 479.828 267.437 480.425C268.047 481.022 268.521 481.773 268.859 482.678C269.198 483.576 269.367 484.629 269.367 485.835V486.915H257.392V484.478H265.665C265.665 483.912 265.542 483.41 265.295 482.973C265.049 482.536 264.708 482.194 264.271 481.948C263.84 481.696 263.338 481.57 262.766 481.57C262.168 481.57 261.639 481.708 261.177 481.985C260.722 482.256 260.365 482.622 260.106 483.084C259.848 483.539 259.716 484.047 259.709 484.607V486.925C259.709 487.626 259.839 488.233 260.097 488.744C260.362 489.254 260.734 489.648 261.214 489.925C261.695 490.202 262.264 490.341 262.922 490.341C263.36 490.341 263.76 490.279 264.123 490.156C264.486 490.033 264.797 489.848 265.055 489.602C265.314 489.356 265.511 489.054 265.646 488.697L269.284 488.938C269.099 489.812 268.721 490.575 268.148 491.227C267.582 491.874 266.85 492.378 265.951 492.741C265.058 493.098 264.027 493.277 262.858 493.277ZM283.734 482.862L280.133 483.084C280.071 482.776 279.939 482.499 279.736 482.253C279.533 482 279.265 481.8 278.932 481.653C278.606 481.499 278.215 481.422 277.76 481.422C277.15 481.422 276.637 481.551 276.218 481.81C275.799 482.062 275.59 482.401 275.59 482.825C275.59 483.164 275.726 483.45 275.996 483.684C276.267 483.918 276.732 484.106 277.391 484.247L279.957 484.764C281.336 485.047 282.364 485.503 283.041 486.131C283.718 486.759 284.057 487.583 284.057 488.605C284.057 489.535 283.783 490.35 283.235 491.052C282.693 491.754 281.949 492.301 281.001 492.695C280.059 493.083 278.972 493.277 277.741 493.277C275.864 493.277 274.368 492.886 273.254 492.104C272.146 491.317 271.497 490.246 271.306 488.891L275.175 488.688C275.292 489.261 275.575 489.698 276.024 489.999C276.473 490.295 277.049 490.442 277.751 490.442C278.44 490.442 278.994 490.31 279.413 490.045C279.837 489.775 280.053 489.427 280.059 489.002C280.053 488.645 279.902 488.353 279.606 488.125C279.311 487.891 278.855 487.713 278.24 487.589L275.784 487.1C274.399 486.823 273.368 486.343 272.691 485.66C272.02 484.977 271.685 484.106 271.685 483.047C271.685 482.136 271.931 481.351 272.423 480.692C272.922 480.034 273.62 479.526 274.519 479.169C275.424 478.812 276.483 478.634 277.695 478.634C279.486 478.634 280.896 479.012 281.924 479.769C282.958 480.526 283.561 481.557 283.734 482.862ZM288.832 493.24C288.223 493.24 287.7 493.025 287.263 492.594C286.832 492.157 286.617 491.634 286.617 491.024C286.617 490.421 286.832 489.904 287.263 489.473C287.7 489.042 288.223 488.827 288.832 488.827C289.423 488.827 289.94 489.042 290.384 489.473C290.827 489.904 291.048 490.421 291.048 491.024C291.048 491.43 290.944 491.803 290.734 492.141C290.531 492.474 290.264 492.741 289.931 492.945C289.599 493.142 289.233 493.24 288.832 493.24Z" fill="white"/>
<g clip-path="url(#clip0_3266_4487)">
<path d="M264.785 22.7477V281.36C264.785 286.744 260.377 291.108 254.939 291.108H117.846C115.267 291.108 112.919 290.128 111.164 288.515C110.874 288.256 110.601 287.972 110.351 287.677L110.322 287.648C108.876 285.954 108 283.757 108 281.36V22.7477C108 17.3639 112.408 13 117.846 13H254.939C257.445 13 259.733 13.9252 261.47 15.4551C262.298 16.1837 263.001 17.047 263.542 18.0086C264.333 19.411 264.782 21.0284 264.782 22.7477H264.785Z" fill="#F27750"/>
<path d="M161.682 18.416H164.854C166.406 18.416 167.665 19.6618 167.665 21.199V28.2949C167.665 30.6334 169.578 32.5276 171.94 32.5276H204.963C207.326 32.5276 209.239 30.6334 209.239 28.2949V21.3374V21.199C209.239 19.6618 210.497 18.416 212.05 18.416H215.222H251.623C257.061 18.416 261.469 22.7799 261.469 28.1637V277.586C261.469 282.97 257.061 287.334 251.623 287.334H120.167C114.728 287.334 110.32 282.97 110.32 277.586V28.1637C110.32 22.7799 114.728 18.416 120.167 18.416H164.854" fill="#F6F5D8"/>
<path d="M195.509 24.6484H172.468C171.554 24.6484 170.812 25.3823 170.812 26.2876V26.2913C170.812 27.1966 171.554 27.9305 172.468 27.9305H195.509C196.423 27.9305 197.165 27.1966 197.165 26.2913V26.2876C197.165 25.3823 196.423 24.6484 195.509 24.6484Z" fill="#F6F5D8" stroke="black" stroke-width="0.79" stroke-miterlimit="10"/>
<path d="M203.131 27.9355C204.231 27.9355 205.122 27.0532 205.122 25.9648C205.122 24.8764 204.231 23.9941 203.131 23.9941C202.032 23.9941 201.141 24.8764 201.141 25.9648C201.141 27.0532 202.032 27.9355 203.131 27.9355Z" fill="#F6F5D8" stroke="black" stroke-width="0.79" stroke-miterlimit="10"/>
<path d="M212.248 45.6523H128.886C127.512 45.6523 126.398 46.754 126.398 48.1129C126.398 49.4719 127.512 50.5735 128.886 50.5735H212.248C213.621 50.5735 214.735 49.4719 214.735 48.1129C214.735 46.754 213.621 45.6523 212.248 45.6523Z" fill="#BFCDFF"/>
<path d="M181.421 55.168H128.886C127.512 55.168 126.398 56.2696 126.398 57.6286C126.398 58.9875 127.512 60.0892 128.886 60.0892H181.421C182.795 60.0892 183.908 58.9875 183.908 57.6286C183.908 56.2696 182.795 55.168 181.421 55.168Z" fill="#BFCDFF"/>
<path d="M199.4 64.7656H128.964C127.59 64.7656 126.477 65.8673 126.477 67.2262C126.477 68.5852 127.59 69.6868 128.964 69.6868H199.4C200.773 69.6868 201.887 68.5852 201.887 67.2262C201.887 65.8673 200.773 64.7656 199.4 64.7656Z" fill="#BFCDFF"/>
<path d="M182.082 205.299H129.05C127.676 205.299 126.562 206.4 126.562 207.759C126.562 209.118 127.676 210.22 129.05 210.22H182.082C183.456 210.22 184.569 209.118 184.569 207.759C184.569 206.4 183.456 205.299 182.082 205.299Z" fill="#BFCDFF"/>
<path d="M146.031 213.582H129.128C127.754 213.582 126.641 214.684 126.641 216.043C126.641 217.402 127.754 218.503 129.128 218.503H146.031C147.405 218.503 148.519 217.402 148.519 216.043C148.519 214.684 147.405 213.582 146.031 213.582Z" fill="#BFCDFF"/>
<path d="M198.737 223.92H136.338C130.891 223.92 126.477 228.291 126.477 233.682C126.477 239.074 130.891 243.444 136.338 243.444H198.737C204.183 243.444 208.598 239.074 208.598 233.682C208.598 228.291 204.183 223.92 198.737 223.92Z" fill="#BFCDFF"/>
<path d="M205.614 248.041H129.461C127.813 248.041 126.477 249.364 126.477 250.995C126.477 252.627 127.813 253.949 129.461 253.949H205.614C207.262 253.949 208.598 252.627 208.598 250.995C208.598 249.364 207.262 248.041 205.614 248.041Z" fill="#BFCDFF"/>
<path d="M271 31.7296V284.128C271 291.789 264.726 297.999 256.985 297.999H124.988C122.022 297.999 119.185 296.801 117.136 294.681L111.164 288.514C112.919 290.127 115.267 291.107 117.846 291.107H254.939C260.377 291.107 264.785 286.743 264.785 281.36V22.7469C264.785 21.0276 264.336 19.4102 263.545 18.0078L268.13 23.6539C269.988 25.9451 271 28.7937 271 31.7296Z" fill="#A04A2E"/>
<path d="M110.32 287.648L110.35 287.678L111.163 288.515" stroke="black" stroke-width="0.79" stroke-miterlimit="10"/>
<path d="M263.544 18.0086L261.472 15.4587L261.469 15.4551" stroke="black" stroke-width="0.79" stroke-miterlimit="10"/>
<path d="M253.393 108.305V181.362C253.393 184.207 251.064 186.509 248.194 186.509H124.527C121.654 186.509 119.328 184.207 119.328 181.362V108.305C119.328 105.464 121.654 103.158 124.527 103.158H248.194C251.064 103.158 253.393 105.464 253.393 108.305Z" fill="#1EDBA2"/>
<path d="M248.194 89.4219H124.527C121.656 89.4219 119.328 91.7263 119.328 94.5689C119.328 97.4116 121.656 99.716 124.527 99.716H248.194C251.065 99.716 253.393 97.4116 253.393 94.5689C253.393 91.7263 251.065 89.4219 248.194 89.4219Z" fill="#BFCDFF"/>
<path opacity="0.19" d="M226.472 170.39C226.472 176.113 225.287 181.562 223.145 186.509H147.014C144.869 181.562 143.688 176.113 143.688 170.39C143.688 147.762 162.221 129.414 185.078 129.414C207.935 129.414 226.468 147.762 226.468 170.39H226.472Z" fill="#8B9B29"/>
<path d="M217.688 168.515C214.369 177.68 208.081 183.224 202.448 186.509H161.164C155.071 178.51 153.125 167.637 156.892 157.678C157.474 156.148 158.173 154.669 158.997 153.256C162.349 150.855 169.2 146.24 171.183 144.834C173.836 142.954 174.414 138.339 172.574 136.154C171.492 134.868 167.603 135.348 164.59 135.96C165.951 135.192 167.931 134.35 170.322 134.074C176.831 133.323 183.635 133.534 189.938 135.429C196.303 137.345 202.378 141.366 207.411 145.595C214.071 151.19 217.423 159.863 217.688 168.515V168.515Z" fill="#EEC139" stroke="black" stroke-width="0.5" stroke-miterlimit="10"/>
<path d="M202.122 148.724C196.32 147.249 188.802 145.872 186.392 146.003C182.735 146.204 178.647 147.264 171.288 150.542C166.347 152.746 162.075 159.426 159.805 163.575C160.964 159.718 163.723 154.636 167.2 151.194C172.304 146.142 181.396 143.942 182.971 143.847C190.168 143.421 194.013 144.717 202.122 148.724V148.724Z" fill="#B9BAAB" stroke="black" stroke-width="0.5" stroke-miterlimit="10"/>
<path d="M212.96 167.722C212.651 170.016 210.175 170.322 206.775 168.946C203.375 167.569 193.79 167.11 188.841 167.263C183.896 167.416 166.426 170.322 163.49 170.475C160.553 170.628 160.09 170.934 159.317 167.875C159.071 166.902 159.262 165.376 159.803 163.576C160.874 161.617 162.047 159.708 163.357 157.894C164.086 156.885 164.855 155.905 165.683 154.976C166.404 154.167 167.191 153.231 168.037 152.561C169.071 151.745 170.278 151.213 171.423 150.583C172.567 149.953 173.807 149.352 175.043 148.831C177.516 147.789 180.099 146.995 182.737 146.474C185.577 145.913 188.495 146.037 191.343 146.449C194.191 146.86 197.098 147.377 199.85 148.124C200.601 148.328 201.362 148.525 202.12 148.718C202.72 149.017 203.342 149.326 203.993 149.654C213.424 154.4 213.269 165.419 212.96 167.714V167.722Z" fill="#F6F5D8" stroke="black" stroke-width="0.5" stroke-miterlimit="10"/>
<path d="M176.043 156.527C175.568 156.632 175.109 156.789 174.671 156.997C173.192 157.703 171.65 159.091 171.845 160.869C171.863 161.022 171.896 161.182 172.018 161.28C172.22 161.444 172.518 161.331 172.75 161.211C174.17 160.483 175.285 159.896 176.915 159.78C178.144 159.692 179.384 159.787 180.584 160.06C181.445 160.257 182.607 160.789 182.902 159.546C183.034 158.985 182.806 158.384 182.416 157.958C181.61 157.077 180.286 156.771 179.163 156.527C178.151 156.305 177.07 156.294 176.043 156.523V156.527Z" fill="black" stroke="black" stroke-width="0.74" stroke-miterlimit="10"/>
<path opacity="0.19" d="M137.917 130.873H123.347C122.391 130.873 121.617 131.64 121.617 132.585V133.168C121.617 134.113 122.391 134.88 123.347 134.88H137.917C138.872 134.88 139.647 134.113 139.647 133.168V132.585C139.647 131.64 138.872 130.873 137.917 130.873Z" fill="#8B9B29"/>
<path opacity="0.19" d="M144.902 136.701H130.331C129.376 136.701 128.602 137.468 128.602 138.413V138.996C128.602 139.942 129.376 140.708 130.331 140.708H144.902C145.857 140.708 146.631 139.942 146.631 138.996V138.413C146.631 137.468 145.857 136.701 144.902 136.701Z" fill="#8B9B29"/>
<path d="M201.146 155.609C201.621 155.714 202.081 155.871 202.519 156.079C203.998 156.785 205.54 158.173 205.345 159.951C205.326 160.104 205.293 160.264 205.172 160.362C204.969 160.526 204.671 160.413 204.439 160.293C203.019 159.565 201.904 158.978 200.274 158.862C199.045 158.774 197.805 158.869 196.606 159.142C195.745 159.339 194.582 159.871 194.288 158.628C194.155 158.068 194.383 157.466 194.774 157.04C195.579 156.159 196.904 155.853 198.026 155.609C199.038 155.387 200.12 155.376 201.146 155.605V155.609Z" fill="black" stroke="black" stroke-width="0.74" stroke-miterlimit="10"/>
<path d="M217.667 167.932C222.164 161.539 235.642 142.459 238.464 139.41C241.864 135.735 245.521 132.985 246.088 133.669C246.658 134.358 243.254 137.418 243.563 138.03C243.876 138.642 250.521 137.265 252.685 139.716C254.852 142.164 255.934 144.459 253.767 144.459C251.599 144.459 247.276 141.705 244.185 141.858C241.091 142.011 235.373 148.743 234.291 150.735C233.504 152.185 223.341 165.113 217.531 173.196" fill="black"/>
<path d="M217.667 167.932C222.164 161.539 235.642 142.459 238.464 139.41C241.864 135.735 245.521 132.985 246.088 133.669C246.658 134.358 243.254 137.418 243.563 138.03C243.876 138.642 250.521 137.265 252.685 139.716C254.852 142.164 255.934 144.459 253.767 144.459C251.599 144.459 247.276 141.705 244.185 141.858C241.091 142.011 235.373 148.743 234.291 150.735C233.504 152.185 223.341 165.113 217.531 173.196" stroke="black" stroke-width="0.74" stroke-miterlimit="10"/>
<path d="M155.261 164.017C150.853 157.93 137.78 139.975 134.579 136.806C130.715 132.981 127.47 130.533 127.47 132.063C127.47 133.593 129.943 135.276 129.17 135.888C128.397 136.5 120.821 136.5 119.894 139.564C118.967 142.623 121.594 143.388 123.912 142.623C126.234 141.858 129.634 139.717 131.643 140.482C133.457 141.174 149.79 160.108 154.97 167.703" fill="black"/>
<path d="M155.261 164.017C150.853 157.93 137.78 139.975 134.579 136.806C130.715 132.981 127.47 130.533 127.47 132.063C127.47 133.593 129.943 135.276 129.17 135.888C128.397 136.5 120.821 136.5 119.894 139.564C118.967 142.623 121.594 143.388 123.912 142.623C126.234 141.858 129.634 139.717 131.643 140.482C133.457 141.174 149.79 160.108 154.97 167.703" stroke="black" stroke-width="0.74" stroke-miterlimit="10"/>
<path d="M217.119 176.14C216.379 180.132 214.543 183.571 212.027 186.511H202.445C208.079 183.225 214.367 177.681 217.686 168.52C217.77 171.088 217.579 173.656 217.119 176.14V176.14Z" fill="#D38F18" stroke="black" stroke-width="0.5" stroke-miterlimit="10"/>
<path d="M171.186 144.834C169.203 146.24 162.352 150.856 159 153.256C159.121 153.045 159.247 152.837 159.375 152.63C161.267 149.552 163.732 146.776 166.668 144.638C168.552 143.268 172.011 140.008 169.291 137.8C167.588 136.424 162.805 137.363 162.569 137.429C162.451 137.462 163.198 136.748 164.593 135.961C167.606 135.349 171.495 134.868 172.577 136.154C174.417 138.34 173.839 142.955 171.186 144.834V144.834Z" fill="#D38F18" stroke="black" stroke-width="0.3" stroke-miterlimit="10"/>
<path opacity="0.19" d="M241.569 113.752H207.718C205.889 113.752 204.406 115.22 204.406 117.03C204.406 118.841 205.889 120.309 207.718 120.309H241.569C243.398 120.309 244.88 118.841 244.88 117.03C244.88 115.22 243.398 113.752 241.569 113.752Z" fill="#8B9B29"/>
<path opacity="0.19" d="M246.416 122.268H224.567C223.387 122.268 222.43 123.215 222.43 124.384C222.43 125.553 223.387 126.5 224.567 126.5H246.416C247.597 126.5 248.554 125.553 248.554 124.384C248.554 123.215 247.597 122.268 246.416 122.268Z" fill="#8B9B29"/>
</g>
<defs>
<filter id="filter0_d_3266_4487" x="0" y="64" width="398" height="503" filterUnits="userSpaceOnUse" color-interpolation-filters="sRGB">
<feFlood flood-opacity="0" result="BackgroundImageFix"/>
<feColorMatrix in="SourceAlpha" type="matrix" values="0 0 0 0 0 0 0 0 0 0 0 0 0 0 0 0 0 0 127 0" result="hardAlpha"/>
<feOffset dx="4" dy="4"/>
<feComposite in2="hardAlpha" operator="out"/>
<feColorMatrix type="matrix" values="0 0 0 0 0.627451 0 0 0 0 0.290196 0 0 0 0 0.180392 0 0 0 1 0"/>
<feBlend mode="normal" in2="BackgroundImageFix" result="effect1_dropShadow_3266_4487"/>
<feBlend mode="normal" in="SourceGraphic" in2="effect1_dropShadow_3266_4487" result="shape"/>
</filter>
<filter id="filter1_d_3266_4487" x="34" y="70" width="306" height="306" filterUnits="userSpaceOnUse" color-interpolation-filters="sRGB">
<feFlood flood-opacity="0" result="BackgroundImageFix"/>
<feColorMatrix in="SourceAlpha" type="matrix" values="0 0 0 0 0 0 0 0 0 0 0 0 0 0 0 0 0 0 127 0" result="hardAlpha"/>
<feOffset dx="4" dy="4"/>
<feComposite in2="hardAlpha" operator="out"/>
<feColorMatrix type="matrix" values="0 0 0 0 0.627451 0 0 0 0 0.290196 0 0 0 0 0.180392 0 0 0 1 0"/>
<feBlend mode="normal" in2="BackgroundImageFix" result="effect1_dropShadow_3266_4487"/>
<feBlend mode="normal" in="SourceGraphic" in2="effect1_dropShadow_3266_4487" result="shape"/>
</filter>
<clipPath id="clip0_3266_4487">
<rect width="163" height="285" fill="white" transform="translate(108 13)"/>
</clipPath>
</defs>
</svg>
