<svg width="154" height="182" viewBox="0 0 154 182" fill="none" xmlns="http://www.w3.org/2000/svg">
<g filter="url(#filter0_d_3354_5008)">
<rect width="151" height="179" rx="6" fill="#17171D"/>
<rect x="0.5" y="0.5" width="150" height="178" rx="5.5" stroke="#F6F5D8" stroke-opacity="0.46"/>
</g>
<path d="M37.088 123.24C36.936 122.96 36.716 122.748 36.428 122.604C36.148 122.452 35.816 122.376 35.432 122.376C34.768 122.376 34.236 122.596 33.836 123.036C33.436 123.468 33.236 124.048 33.236 124.776C33.236 125.552 33.444 126.16 33.86 126.6C34.284 127.032 34.864 127.248 35.6 127.248C36.104 127.248 36.528 127.12 36.872 126.864C37.224 126.608 37.48 126.24 37.64 125.76H35.036V124.248H39.5V126.156C39.348 126.668 39.088 127.144 38.72 127.584C38.36 128.024 37.9 128.38 37.34 128.652C36.78 128.924 36.148 129.06 35.444 129.06C34.612 129.06 33.868 128.88 33.212 128.52C32.564 128.152 32.056 127.644 31.688 126.996C31.328 126.348 31.148 125.608 31.148 124.776C31.148 123.944 31.328 123.204 31.688 122.556C32.056 121.9 32.564 121.392 33.212 121.032C33.86 120.664 34.6 120.48 35.432 120.48C36.44 120.48 37.288 120.724 37.976 121.212C38.672 121.7 39.132 122.376 39.356 123.24H37.088ZM42.6886 123.42C42.9286 123.052 43.2286 122.764 43.5886 122.556C43.9486 122.34 44.3486 122.232 44.7886 122.232V124.404H44.2246C43.7126 124.404 43.3286 124.516 43.0726 124.74C42.8166 124.956 42.6886 125.34 42.6886 125.892V129H40.6366V122.304H42.6886V123.42ZM48.8174 129.096C48.1614 129.096 47.5694 128.956 47.0414 128.676C46.5214 128.396 46.1094 127.996 45.8054 127.476C45.5094 126.956 45.3614 126.348 45.3614 125.652C45.3614 124.964 45.5134 124.36 45.8174 123.84C46.1214 123.312 46.5374 122.908 47.0654 122.628C47.5934 122.348 48.1854 122.208 48.8414 122.208C49.4974 122.208 50.0894 122.348 50.6174 122.628C51.1454 122.908 51.5614 123.312 51.8654 123.84C52.1694 124.36 52.3214 124.964 52.3214 125.652C52.3214 126.34 52.1654 126.948 51.8534 127.476C51.5494 127.996 51.1294 128.396 50.5934 128.676C50.0654 128.956 49.4734 129.096 48.8174 129.096ZM48.8174 127.32C49.2094 127.32 49.5414 127.176 49.8134 126.888C50.0934 126.6 50.2334 126.188 50.2334 125.652C50.2334 125.116 50.0974 124.704 49.8254 124.416C49.5614 124.128 49.2334 123.984 48.8414 123.984C48.4414 123.984 48.1094 124.128 47.8454 124.416C47.5814 124.696 47.4494 125.108 47.4494 125.652C47.4494 126.188 47.5774 126.6 47.8334 126.888C48.0974 127.176 48.4254 127.32 48.8174 127.32ZM60.022 122.304V129H57.97V128.088C57.762 128.384 57.478 128.624 57.118 128.808C56.766 128.984 56.374 129.072 55.942 129.072C55.43 129.072 54.978 128.96 54.586 128.736C54.194 128.504 53.89 128.172 53.674 127.74C53.458 127.308 53.35 126.8 53.35 126.216V122.304H55.39V125.94C55.39 126.388 55.506 126.736 55.738 126.984C55.97 127.232 56.282 127.356 56.674 127.356C57.074 127.356 57.39 127.232 57.622 126.984C57.854 126.736 57.97 126.388 57.97 125.94V122.304H60.022ZM63.548 123.252C63.748 122.94 64.024 122.688 64.376 122.496C64.728 122.304 65.14 122.208 65.612 122.208C66.164 122.208 66.664 122.348 67.112 122.628C67.56 122.908 67.912 123.308 68.168 123.828C68.432 124.348 68.564 124.952 68.564 125.64C68.564 126.328 68.432 126.936 68.168 127.464C67.912 127.984 67.56 128.388 67.112 128.676C66.664 128.956 66.164 129.096 65.612 129.096C65.148 129.096 64.736 129 64.376 128.808C64.024 128.616 63.748 128.368 63.548 128.064V132.192H61.496V122.304H63.548V123.252ZM66.476 125.64C66.476 125.128 66.332 124.728 66.044 124.44C65.764 124.144 65.416 123.996 65 123.996C64.592 123.996 64.244 124.144 63.956 124.44C63.676 124.736 63.536 125.14 63.536 125.652C63.536 126.164 63.676 126.568 63.956 126.864C64.244 127.16 64.592 127.308 65 127.308C65.408 127.308 65.756 127.16 66.044 126.864C66.332 126.56 66.476 126.152 66.476 125.64ZM68.1283 145.26V147H67.0843C66.3403 147 65.7603 146.82 65.3443 146.46C64.9283 146.092 64.7203 145.496 64.7203 144.672V142.008H63.9043V140.304H64.7203V138.672H66.7723V140.304H68.1163V142.008H66.7723V144.696C66.7723 144.896 66.8203 145.04 66.9163 145.128C67.0123 145.216 67.1723 145.26 67.3963 145.26H68.1283ZM72.3193 147.096C71.6633 147.096 71.0713 146.956 70.5433 146.676C70.0233 146.396 69.6113 145.996 69.3073 145.476C69.0113 144.956 68.8633 144.348 68.8633 143.652C68.8633 142.964 69.0153 142.36 69.3193 141.84C69.6233 141.312 70.0393 140.908 70.5673 140.628C71.0953 140.348 71.6873 140.208 72.3433 140.208C72.9993 140.208 73.5913 140.348 74.1193 140.628C74.6473 140.908 75.0633 141.312 75.3673 141.84C75.6713 142.36 75.8233 142.964 75.8233 143.652C75.8233 144.34 75.6673 144.948 75.3553 145.476C75.0513 145.996 74.6313 146.396 74.0953 146.676C73.5673 146.956 72.9753 147.096 72.3193 147.096ZM72.3193 145.32C72.7113 145.32 73.0433 145.176 73.3153 144.888C73.5953 144.6 73.7353 144.188 73.7353 143.652C73.7353 143.116 73.5993 142.704 73.3273 142.416C73.0633 142.128 72.7353 141.984 72.3433 141.984C71.9433 141.984 71.6113 142.128 71.3473 142.416C71.0833 142.696 70.9513 143.108 70.9513 143.652C70.9513 144.188 71.0793 144.6 71.3353 144.888C71.5993 145.176 71.9273 145.32 72.3193 145.32ZM79.96 147.096C79.304 147.096 78.712 146.956 78.184 146.676C77.664 146.396 77.252 145.996 76.948 145.476C76.652 144.956 76.504 144.348 76.504 143.652C76.504 142.964 76.656 142.36 76.96 141.84C77.264 141.312 77.68 140.908 78.208 140.628C78.736 140.348 79.328 140.208 79.984 140.208C80.64 140.208 81.232 140.348 81.76 140.628C82.288 140.908 82.704 141.312 83.008 141.84C83.312 142.36 83.464 142.964 83.464 143.652C83.464 144.34 83.308 144.948 82.996 145.476C82.692 145.996 82.272 146.396 81.736 146.676C81.208 146.956 80.616 147.096 79.96 147.096ZM79.96 145.32C80.352 145.32 80.684 145.176 80.956 144.888C81.236 144.6 81.376 144.188 81.376 143.652C81.376 143.116 81.24 142.704 80.968 142.416C80.704 142.128 80.376 141.984 79.984 141.984C79.584 141.984 79.252 142.128 78.988 142.416C78.724 142.696 78.592 143.108 78.592 143.652C78.592 144.188 78.72 144.6 78.976 144.888C79.24 145.176 79.568 145.32 79.96 145.32ZM86.6046 138.12V147H84.5526V138.12H86.6046Z" fill="#FCFCFC"/>
<path d="M74.9075 129.096C74.3235 129.096 73.8035 128.996 73.3475 128.796C72.8915 128.596 72.5315 128.324 72.2675 127.98C72.0035 127.628 71.8555 127.236 71.8235 126.804H73.8515C73.8755 127.036 73.9835 127.224 74.1755 127.368C74.3675 127.512 74.6035 127.584 74.8835 127.584C75.1395 127.584 75.3355 127.536 75.4715 127.44C75.6155 127.336 75.6875 127.204 75.6875 127.044C75.6875 126.852 75.5875 126.712 75.3875 126.624C75.1875 126.528 74.8635 126.424 74.4155 126.312C73.9355 126.2 73.5355 126.084 73.2155 125.964C72.8955 125.836 72.6195 125.64 72.3875 125.376C72.1555 125.104 72.0395 124.74 72.0395 124.284C72.0395 123.9 72.1435 123.552 72.3515 123.24C72.5675 122.92 72.8795 122.668 73.2875 122.484C73.7035 122.3 74.1955 122.208 74.7635 122.208C75.6035 122.208 76.2635 122.416 76.7435 122.832C77.2315 123.248 77.5115 123.8 77.5835 124.488H75.6875C75.6555 124.256 75.5515 124.072 75.3755 123.936C75.2075 123.8 74.9835 123.732 74.7035 123.732C74.4635 123.732 74.2795 123.78 74.1515 123.876C74.0235 123.964 73.9595 124.088 73.9595 124.248C73.9595 124.44 74.0595 124.584 74.2595 124.68C74.4675 124.776 74.7875 124.872 75.2195 124.968C75.7155 125.096 76.1195 125.224 76.4315 125.352C76.7435 125.472 77.0155 125.672 77.2475 125.952C77.4875 126.224 77.6115 126.592 77.6195 127.056C77.6195 127.448 77.5075 127.8 77.2835 128.112C77.0675 128.416 76.7515 128.656 76.3355 128.832C75.9275 129.008 75.4515 129.096 74.9075 129.096ZM78.4669 125.64C78.4669 124.952 78.5949 124.348 78.8509 123.828C79.1149 123.308 79.4709 122.908 79.9189 122.628C80.3669 122.348 80.8669 122.208 81.4189 122.208C81.8909 122.208 82.3029 122.304 82.6549 122.496C83.0149 122.688 83.2909 122.94 83.4829 123.252V122.304H85.5349V129H83.4829V128.052C83.2829 128.364 83.0029 128.616 82.6429 128.808C82.2909 129 81.8789 129.096 81.4069 129.096C80.8629 129.096 80.3669 128.956 79.9189 128.676C79.4709 128.388 79.1149 127.984 78.8509 127.464C78.5949 126.936 78.4669 126.328 78.4669 125.64ZM83.4829 125.652C83.4829 125.14 83.3389 124.736 83.0509 124.44C82.7709 124.144 82.4269 123.996 82.0189 123.996C81.6109 123.996 81.2629 124.144 80.9749 124.44C80.6949 124.728 80.5549 125.128 80.5549 125.64C80.5549 126.152 80.6949 126.56 80.9749 126.864C81.2629 127.16 81.6109 127.308 82.0189 127.308C82.4269 127.308 82.7709 127.16 83.0509 126.864C83.3389 126.568 83.4829 126.164 83.4829 125.652ZM90.0314 127.08L91.4834 122.304H93.6674L91.2914 129H88.7594L86.3834 122.304H88.5794L90.0314 127.08ZM95.5631 121.608C95.2031 121.608 94.9071 121.504 94.6751 121.296C94.4511 121.08 94.3391 120.816 94.3391 120.504C94.3391 120.184 94.4511 119.92 94.6751 119.712C94.9071 119.496 95.2031 119.388 95.5631 119.388C95.9151 119.388 96.2031 119.496 96.4271 119.712C96.6591 119.92 96.7751 120.184 96.7751 120.504C96.7751 120.816 96.6591 121.08 96.4271 121.296C96.2031 121.504 95.9151 121.608 95.5631 121.608ZM96.5831 122.304V129H94.5311V122.304H96.5831ZM102.15 122.232C102.934 122.232 103.558 122.488 104.022 123C104.494 123.504 104.73 124.2 104.73 125.088V129H102.69V125.364C102.69 124.916 102.574 124.568 102.342 124.32C102.11 124.072 101.798 123.948 101.406 123.948C101.014 123.948 100.702 124.072 100.47 124.32C100.238 124.568 100.122 124.916 100.122 125.364V129H98.0702V122.304H100.122V123.192C100.33 122.896 100.61 122.664 100.962 122.496C101.314 122.32 101.71 122.232 102.15 122.232ZM108.7 122.208C109.172 122.208 109.584 122.304 109.936 122.496C110.296 122.688 110.572 122.94 110.764 123.252V122.304H112.816V128.988C112.816 129.604 112.692 130.16 112.444 130.656C112.204 131.16 111.832 131.56 111.328 131.856C110.832 132.152 110.212 132.3 109.468 132.3C108.476 132.3 107.672 132.064 107.056 131.592C106.44 131.128 106.088 130.496 106 129.696H108.028C108.092 129.952 108.244 130.152 108.484 130.296C108.724 130.448 109.02 130.524 109.372 130.524C109.796 130.524 110.132 130.4 110.38 130.152C110.636 129.912 110.764 129.524 110.764 128.988V128.04C110.564 128.352 110.288 128.608 109.936 128.808C109.584 129 109.172 129.096 108.7 129.096C108.148 129.096 107.648 128.956 107.2 128.676C106.752 128.388 106.396 127.984 106.132 127.464C105.876 126.936 105.748 126.328 105.748 125.64C105.748 124.952 105.876 124.348 106.132 123.828C106.396 123.308 106.752 122.908 107.2 122.628C107.648 122.348 108.148 122.208 108.7 122.208ZM110.764 125.652C110.764 125.14 110.62 124.736 110.332 124.44C110.052 124.144 109.708 123.996 109.3 123.996C108.892 123.996 108.544 124.144 108.256 124.44C107.976 124.728 107.836 125.128 107.836 125.64C107.836 126.152 107.976 126.56 108.256 126.864C108.544 127.16 108.892 127.308 109.3 127.308C109.708 127.308 110.052 127.16 110.332 126.864C110.62 126.568 110.764 126.164 110.764 125.652ZM117.025 129.096C116.441 129.096 115.921 128.996 115.465 128.796C115.009 128.596 114.649 128.324 114.385 127.98C114.121 127.628 113.973 127.236 113.941 126.804H115.969C115.993 127.036 116.101 127.224 116.293 127.368C116.485 127.512 116.721 127.584 117.001 127.584C117.257 127.584 117.453 127.536 117.589 127.44C117.733 127.336 117.805 127.204 117.805 127.044C117.805 126.852 117.705 126.712 117.505 126.624C117.305 126.528 116.981 126.424 116.533 126.312C116.053 126.2 115.653 126.084 115.333 125.964C115.013 125.836 114.737 125.64 114.505 125.376C114.273 125.104 114.157 124.74 114.157 124.284C114.157 123.9 114.261 123.552 114.469 123.24C114.685 122.92 114.997 122.668 115.405 122.484C115.821 122.3 116.313 122.208 116.881 122.208C117.721 122.208 118.381 122.416 118.861 122.832C119.349 123.248 119.629 123.8 119.701 124.488H117.805C117.773 124.256 117.669 124.072 117.493 123.936C117.325 123.8 117.101 123.732 116.821 123.732C116.581 123.732 116.397 123.78 116.269 123.876C116.141 123.964 116.077 124.088 116.077 124.248C116.077 124.44 116.177 124.584 116.377 124.68C116.585 124.776 116.905 124.872 117.337 124.968C117.833 125.096 118.237 125.224 118.549 125.352C118.861 125.472 119.133 125.672 119.365 125.952C119.605 126.224 119.729 126.592 119.737 127.056C119.737 127.448 119.625 127.8 119.401 128.112C119.185 128.416 118.869 128.656 118.453 128.832C118.045 129.008 117.569 129.096 117.025 129.096Z" fill="#22F3B5"/>
<g clip-path="url(#clip0_3354_5008)">
<path d="M109.917 32.9066L92.0542 21.4223C91.1009 20.8094 89.8299 21.0832 89.2153 22.0339L69.1107 53.1322C68.4961 54.0829 68.7707 55.3504 69.724 55.9633L87.5865 67.4476C88.5398 68.0605 89.8109 67.7867 90.4255 66.836L110.53 35.7377C111.145 34.787 110.87 33.5195 109.917 32.9066Z" fill="#19CAAA" stroke="black" stroke-width="0.92" stroke-linecap="round" stroke-linejoin="round"/>
<path d="M106.501 38.3268L91.1788 62.0227L85.2697 63.8473L74.3178 56.8047L72.9062 50.9076L88.082 27.4373L95.1182 25.5117L105.452 32.1567L106.501 38.3268Z" fill="#199E86" stroke="black" stroke-width="0.92" stroke-linecap="round" stroke-linejoin="round"/>
<path d="M97.7774 34.8387C98.8711 34.8387 99.7578 33.9545 99.7578 32.8637C99.7578 31.7729 98.8711 30.8887 97.7774 30.8887C96.6836 30.8887 95.7969 31.7729 95.7969 32.8637C95.7969 33.9545 96.6836 34.8387 97.7774 34.8387Z" fill="#19CAAA" stroke="black" stroke-width="0.92" stroke-linecap="round" stroke-linejoin="round"/>
<path d="M83.168 57.4207C84.2618 57.4207 85.1485 56.5365 85.1485 55.4457C85.1485 54.355 84.2618 53.4707 83.168 53.4707C82.0742 53.4707 81.1875 54.355 81.1875 55.4457C81.1875 56.5365 82.0742 57.4207 83.168 57.4207Z" fill="#19CAAA" stroke="black" stroke-width="0.92" stroke-linecap="round" stroke-linejoin="round"/>
<path d="M90.2893 48.9706C92.6971 48.9706 94.649 47.0241 94.649 44.623C94.649 42.2219 92.6971 40.2754 90.2893 40.2754C87.8816 40.2754 85.9297 42.2219 85.9297 44.623C85.9297 47.0241 87.8816 48.9706 90.2893 48.9706Z" fill="#19CAAA" stroke="black" stroke-width="0.92" stroke-linecap="round" stroke-linejoin="round"/>
<path d="M127.607 47.3259L116.731 29.117C116.15 28.1452 114.89 27.8267 113.915 28.4055L82.0384 47.3405C81.0639 47.9194 80.7445 49.1764 81.325 50.1482L92.201 68.3571C92.7815 69.3289 94.042 69.6475 95.0165 69.0686L126.893 50.1336C127.868 49.5548 128.187 48.2977 127.607 47.3259Z" fill="#19CAAA" stroke="black" stroke-width="0.92" stroke-linecap="round" stroke-linejoin="round"/>
<path d="M122.137 50.6596L97.8454 65.0886L91.7401 64.1022L85.0703 52.9376L86.4388 47.0298L110.495 32.7383L117.657 34.1352L123.949 44.6679L122.137 50.6596Z" fill="#199E86" stroke="black" stroke-width="0.92" stroke-linecap="round" stroke-linejoin="round"/>
<path d="M116.762 43.8719C117.856 43.8719 118.742 42.9877 118.742 41.8969C118.742 40.8061 117.856 39.9219 116.762 39.9219C115.668 39.9219 114.781 40.8061 114.781 41.8969C114.781 42.9877 115.668 43.8719 116.762 43.8719Z" fill="#19CAAA" stroke="black" stroke-width="0.92" stroke-linecap="round" stroke-linejoin="round"/>
<path d="M93.6133 57.6239C94.7071 57.6239 95.5938 56.7396 95.5938 55.6488C95.5938 54.5581 94.7071 53.6738 93.6133 53.6738C92.5195 53.6738 91.6328 54.5581 91.6328 55.6488C91.6328 56.7396 92.5195 57.6239 93.6133 57.6239Z" fill="#19CAAA" stroke="black" stroke-width="0.92" stroke-linecap="round" stroke-linejoin="round"/>
<path d="M104.813 53.4589C107.221 53.4589 109.172 51.5124 109.172 49.1113C109.172 46.7102 107.221 44.7637 104.813 44.7637C102.405 44.7637 100.453 46.7102 100.453 49.1113C100.453 51.5124 102.405 53.4589 104.813 53.4589Z" fill="#19CAAA" stroke="black" stroke-width="0.92" stroke-linecap="round" stroke-linejoin="round"/>
<path d="M106.247 47.9902H57.5428C55.1029 47.9902 53.125 49.9627 53.125 52.3959V85.7069C53.125 88.1401 55.1029 90.1125 57.5428 90.1125H106.247C108.686 90.1125 110.664 88.1401 110.664 85.7069V52.3959C110.664 49.9627 108.686 47.9902 106.247 47.9902Z" fill="#2BC0CA" stroke="black" stroke-miterlimit="10"/>
<path d="M104.936 49.6035H59.0771C56.8038 49.6035 54.9609 51.4413 54.9609 53.7083V84.3974C54.9609 86.6644 56.8038 88.5022 59.0771 88.5022H104.936C107.209 88.5022 109.052 86.6644 109.052 84.3974V53.7083C109.052 51.4413 107.209 49.6035 104.936 49.6035Z" stroke="#299097" stroke-width="0.93" stroke-linecap="round" stroke-linejoin="round" stroke-dasharray="5 5"/>
<path d="M109.642 64.002H96.3975C95.0561 64.002 93.9688 65.0863 93.9688 66.424V72.7552C93.9688 74.0929 95.0561 75.1773 96.3975 75.1773H109.642C110.984 75.1773 112.071 74.0929 112.071 72.7552V66.424C112.071 65.0863 110.984 64.002 109.642 64.002Z" fill="#2BC0CA" stroke="black" stroke-width="0.98" stroke-linecap="round" stroke-linejoin="round"/>
<path d="M99.1407 72.1676C100.569 72.1676 101.727 71.013 101.727 69.5887C101.727 68.1644 100.569 67.0098 99.1407 67.0098C97.7125 67.0098 96.5547 68.1644 96.5547 69.5887C96.5547 71.013 97.7125 72.1676 99.1407 72.1676Z" stroke="black" stroke-width="0.93" stroke-linecap="round" stroke-linejoin="round"/>
<path d="M49.2508 89.7272C49.2508 89.7917 49.2357 89.8561 49.2034 89.9206C48.7099 90.9586 44.2878 91.7688 38.9067 91.7688C33.5255 91.7688 28.9569 90.9307 28.5884 89.869C28.5711 89.8218 28.5625 89.7745 28.5625 89.7272C28.5625 88.5989 33.1937 87.6855 38.9067 87.6855C44.6197 87.6855 49.2508 88.5989 49.2508 89.7272Z" fill="#E8920A" stroke="black" stroke-width="0.72" stroke-miterlimit="10"/>
<path d="M47.7743 86.4108C47.7743 86.4753 47.7592 86.5397 47.7269 86.6042C47.2334 87.6422 42.8112 88.4524 37.4301 88.4524C32.049 88.4524 27.4803 87.6143 27.1118 86.5526C27.0946 86.5053 27.0859 86.4581 27.0859 86.4108C27.0859 85.2825 31.7171 84.3691 37.4301 84.3691C43.1431 84.3691 47.7743 85.2825 47.7743 86.4108Z" fill="#E8920A" stroke="black" stroke-width="0.72" stroke-miterlimit="10"/>
<path d="M49.2508 83.4635C49.2508 83.528 49.2357 83.5925 49.2034 83.6569C48.7099 84.6949 44.2878 85.5052 38.9067 85.5052C33.5255 85.5052 28.9569 84.667 28.5884 83.6054C28.5711 83.5581 28.5625 83.5108 28.5625 83.4635C28.5625 82.3352 33.1937 81.4219 38.9067 81.4219C44.6197 81.4219 49.2508 82.3352 49.2508 83.4635Z" fill="#E8920A" stroke="black" stroke-width="0.72" stroke-miterlimit="10"/>
<path d="M47.8524 80.6569C47.8524 80.7213 47.8373 80.7858 47.805 80.8503C47.3115 81.8883 42.8893 82.6985 37.5082 82.6985C32.1271 82.6985 27.5584 81.8604 27.1899 80.7987C27.1727 80.7514 27.1641 80.7042 27.1641 80.6569C27.1641 79.5286 31.7952 78.6152 37.5082 78.6152C43.2212 78.6152 47.8524 79.5286 47.8524 80.6569Z" fill="#E8920A" stroke="black" stroke-width="0.72" stroke-miterlimit="10"/>
<path d="M49.2468 91.4446C49.2468 92.5729 44.6156 93.4863 38.9026 93.4863C33.1896 93.4863 28.5584 92.5729 28.5584 91.4446C28.5584 91.1416 28.358 90.426 28.5843 89.8672C28.9528 90.9288 33.431 91.767 38.9026 91.767C44.3742 91.767 48.7059 90.9568 49.1994 89.9188C49.3524 90.4904 49.2468 91.2061 49.2468 91.4446Z" fill="#9B6619" stroke="black" stroke-width="0.72" stroke-miterlimit="10"/>
<path d="M47.7702 88.1302C47.7702 89.2584 43.139 90.1718 37.426 90.1718C31.713 90.1718 27.0819 89.2584 27.0819 88.1302C27.0819 87.8271 26.8815 87.1115 27.1077 86.5527C27.4763 87.6144 31.9544 88.4525 37.426 88.4525C42.8977 88.4525 47.2293 87.6423 47.7228 86.6043C47.8758 87.176 47.7702 87.8916 47.7702 88.1302Z" fill="#9B6619" stroke="black" stroke-width="0.72" stroke-miterlimit="10"/>
<path d="M49.2468 85.1829C49.2468 86.3112 44.6156 87.2245 38.9026 87.2245C33.1896 87.2245 28.5584 86.3112 28.5584 85.1829C28.5584 84.8799 28.358 84.1642 28.5843 83.6055C28.9528 84.6671 33.431 85.5053 38.9026 85.5053C44.3742 85.5053 48.7059 84.6951 49.1994 83.657C49.3524 84.2287 49.2468 84.9444 49.2468 85.1829Z" fill="#9B6619" stroke="black" stroke-width="0.72" stroke-miterlimit="10"/>
<path d="M47.8483 82.3763C47.8483 83.5045 43.2172 84.4179 37.5042 84.4179C31.7912 84.4179 27.16 83.5045 27.16 82.3763C27.16 82.0732 26.9596 81.3576 27.1859 80.7988C27.5544 81.8605 32.0325 82.6986 37.5042 82.6986C42.9758 82.6986 47.3074 81.8884 47.8009 80.8504C47.9539 81.4221 47.8483 82.1377 47.8483 82.3763Z" fill="#9B6619" stroke="black" stroke-width="0.72" stroke-miterlimit="10"/>
</g>
<defs>
<filter id="filter0_d_3354_5008" x="0" y="0" width="154" height="182" filterUnits="userSpaceOnUse" color-interpolation-filters="sRGB">
<feFlood flood-opacity="0" result="BackgroundImageFix"/>
<feColorMatrix in="SourceAlpha" type="matrix" values="0 0 0 0 0 0 0 0 0 0 0 0 0 0 0 0 0 0 127 0" result="hardAlpha"/>
<feOffset dx="3" dy="3"/>
<feComposite in2="hardAlpha" operator="out"/>
<feColorMatrix type="matrix" values="0 0 0 0 0.808333 0 0 0 0 0.808333 0 0 0 0 0.808333 0 0 0 1 0"/>
<feBlend mode="normal" in2="BackgroundImageFix" result="effect1_dropShadow_3354_5008"/>
<feBlend mode="normal" in="SourceGraphic" in2="effect1_dropShadow_3354_5008" result="shape"/>
</filter>
<clipPath id="clip0_3354_5008">
<rect width="101" height="77" fill="white" transform="translate(27 21)"/>
</clipPath>
</defs>
</svg>
