<svg width="398" height="567" viewBox="0 0 398 567" fill="none" xmlns="http://www.w3.org/2000/svg">
<g filter="url(#filter0_d_3257_4456)">
<rect y="64" width="394" height="499" rx="30" fill="#4E57E7"/>
</g>
<g filter="url(#filter1_d_3257_4456)">
<circle cx="185" cy="221" r="151" fill="#F6F5D8"/>
</g>
<path d="M57.0999 439.166V442H43.4499V423.8H56.7359V426.634H46.8299V431.366H55.6179V434.148H46.8299V439.166H57.0999ZM66.1978 425.152C64.8285 425.152 64.1438 425.897 64.1438 427.388V428.22H67.9658V430.82H64.2478V442H60.9978V430.82H58.7098V428.22H60.9978V427.336C60.9978 425.845 61.4312 424.675 62.2978 423.826C63.1645 422.959 64.3865 422.526 65.9638 422.526C67.2118 422.526 68.1912 422.777 68.9018 423.28L67.9918 425.724C67.4372 425.343 66.8392 425.152 66.1978 425.152ZM75.7955 425.152C74.4262 425.152 73.7415 425.897 73.7415 427.388V428.22H77.5635V430.82H73.8455V442H70.5955V430.82H68.3075V428.22H70.5955V427.336C70.5955 425.845 71.0288 424.675 71.8955 423.826C72.7622 422.959 73.9842 422.526 75.5615 422.526C76.8095 422.526 77.7888 422.777 78.4995 423.28L77.5895 425.724C77.0348 425.343 76.4368 425.152 75.7955 425.152ZM85.788 442.182C84.384 442.182 83.1187 441.879 81.992 441.272C80.8653 440.665 79.9813 439.825 79.34 438.75C78.716 437.658 78.404 436.427 78.404 435.058C78.404 433.689 78.716 432.467 79.34 431.392C79.9813 430.317 80.8653 429.477 81.992 428.87C83.1187 428.263 84.384 427.96 85.788 427.96C87.2093 427.96 88.4833 428.263 89.61 428.87C90.7367 429.477 91.612 430.317 92.236 431.392C92.8774 432.467 93.198 433.689 93.198 435.058C93.198 436.427 92.8774 437.658 92.236 438.75C91.612 439.825 90.7367 440.665 89.61 441.272C88.4833 441.879 87.2093 442.182 85.788 442.182ZM85.788 439.4C86.984 439.4 87.972 439.001 88.752 438.204C89.532 437.407 89.922 436.358 89.922 435.058C89.922 433.758 89.532 432.709 88.752 431.912C87.972 431.115 86.984 430.716 85.788 430.716C84.592 430.716 83.604 431.115 82.824 431.912C82.0613 432.709 81.68 433.758 81.68 435.058C81.68 436.358 82.0613 437.407 82.824 438.204C83.604 439.001 84.592 439.4 85.788 439.4ZM99.3998 430.144C100.336 428.688 101.982 427.96 104.34 427.96V431.054C104.062 431.002 103.811 430.976 103.586 430.976C102.32 430.976 101.332 431.349 100.622 432.094C99.9112 432.822 99.5558 433.879 99.5558 435.266V442H96.3058V428.116H99.3998V430.144ZM115.951 441.246C115.569 441.558 115.101 441.792 114.547 441.948C114.009 442.104 113.437 442.182 112.831 442.182C111.305 442.182 110.127 441.783 109.295 440.986C108.463 440.189 108.047 439.027 108.047 437.502V430.82H105.759V428.22H108.047V425.048H111.297V428.22H115.015V430.82H111.297V437.424C111.297 438.1 111.461 438.62 111.791 438.984C112.12 439.331 112.597 439.504 113.221 439.504C113.949 439.504 114.555 439.313 115.041 438.932L115.951 441.246ZM118.624 422.708H121.874V442H118.624V422.708ZM139.192 435.136C139.192 435.361 139.174 435.682 139.14 436.098H128.246C128.436 437.121 128.93 437.935 129.728 438.542C130.542 439.131 131.548 439.426 132.744 439.426C134.269 439.426 135.526 438.923 136.514 437.918L138.256 439.92C137.632 440.665 136.843 441.229 135.89 441.61C134.936 441.991 133.862 442.182 132.666 442.182C131.14 442.182 129.797 441.879 128.636 441.272C127.474 440.665 126.573 439.825 125.932 438.75C125.308 437.658 124.996 436.427 124.996 435.058C124.996 433.706 125.299 432.493 125.906 431.418C126.53 430.326 127.388 429.477 128.48 428.87C129.572 428.263 130.802 427.96 132.172 427.96C133.524 427.96 134.728 428.263 135.786 428.87C136.86 429.459 137.692 430.3 138.282 431.392C138.888 432.467 139.192 433.715 139.192 435.136ZM132.172 430.56C131.132 430.56 130.248 430.872 129.52 431.496C128.809 432.103 128.376 432.917 128.22 433.94H136.098C135.959 432.935 135.534 432.12 134.824 431.496C134.113 430.872 133.229 430.56 132.172 430.56ZM146.604 442.182C145.477 442.182 144.376 442.035 143.302 441.74C142.227 441.445 141.369 441.073 140.728 440.622L141.976 438.152C142.6 438.568 143.345 438.906 144.212 439.166C145.096 439.409 145.962 439.53 146.812 439.53C148.753 439.53 149.724 439.019 149.724 437.996C149.724 437.511 149.472 437.173 148.97 436.982C148.484 436.791 147.696 436.609 146.604 436.436C145.46 436.263 144.524 436.063 143.796 435.838C143.085 435.613 142.461 435.223 141.924 434.668C141.404 434.096 141.144 433.307 141.144 432.302C141.144 430.985 141.69 429.936 142.782 429.156C143.891 428.359 145.382 427.96 147.254 427.96C148.207 427.96 149.16 428.073 150.114 428.298C151.067 428.506 151.847 428.792 152.454 429.156L151.206 431.626C150.027 430.933 148.701 430.586 147.228 430.586C146.274 430.586 145.546 430.733 145.044 431.028C144.558 431.305 144.316 431.678 144.316 432.146C144.316 432.666 144.576 433.039 145.096 433.264C145.633 433.472 146.456 433.671 147.566 433.862C148.675 434.035 149.585 434.235 150.296 434.46C151.006 434.685 151.613 435.067 152.116 435.604C152.636 436.141 152.896 436.904 152.896 437.892C152.896 439.192 152.332 440.232 151.206 441.012C150.079 441.792 148.545 442.182 146.604 442.182ZM159.985 442.182C158.858 442.182 157.757 442.035 156.683 441.74C155.608 441.445 154.75 441.073 154.109 440.622L155.357 438.152C155.981 438.568 156.726 438.906 157.593 439.166C158.477 439.409 159.343 439.53 160.193 439.53C162.134 439.53 163.105 439.019 163.105 437.996C163.105 437.511 162.853 437.173 162.351 436.982C161.865 436.791 161.077 436.609 159.985 436.436C158.841 436.263 157.905 436.063 157.177 435.838C156.466 435.613 155.842 435.223 155.305 434.668C154.785 434.096 154.525 433.307 154.525 432.302C154.525 430.985 155.071 429.936 156.163 429.156C157.272 428.359 158.763 427.96 160.635 427.96C161.588 427.96 162.541 428.073 163.495 428.298C164.448 428.506 165.228 428.792 165.835 429.156L164.587 431.626C163.408 430.933 162.082 430.586 160.609 430.586C159.655 430.586 158.927 430.733 158.425 431.028C157.939 431.305 157.697 431.678 157.697 432.146C157.697 432.666 157.957 433.039 158.477 433.264C159.014 433.472 159.837 433.671 160.947 433.862C162.056 434.035 162.966 434.235 163.677 434.46C164.387 434.685 164.994 435.067 165.497 435.604C166.017 436.141 166.277 436.904 166.277 437.892C166.277 439.192 165.713 440.232 164.587 441.012C163.46 441.792 161.926 442.182 159.985 442.182ZM79.4182 474.286L77.1302 472.076C75.4316 473.532 73.3949 474.26 71.0202 474.26C69.7549 474.26 68.6196 474.052 67.6142 473.636C66.6089 473.22 65.8202 472.648 65.2482 471.92C64.6762 471.175 64.3902 470.334 64.3902 469.398C64.3902 468.271 64.7196 467.283 65.3782 466.434C66.0369 465.567 67.1116 464.718 68.6022 463.886C67.8742 463.158 67.3542 462.482 67.0422 461.858C66.7302 461.217 66.5742 460.558 66.5742 459.882C66.5742 458.599 67.0509 457.568 68.0042 456.788C68.9749 455.991 70.2576 455.592 71.8522 455.592C73.3256 455.592 74.5042 455.956 75.3882 456.684C76.2722 457.395 76.7142 458.365 76.7142 459.596C76.7142 460.532 76.4196 461.364 75.8302 462.092C75.2582 462.82 74.3136 463.557 72.9962 464.302L76.9222 468.046C77.3556 467.197 77.6936 466.174 77.9362 464.978L80.5622 465.836C80.2156 467.448 79.6696 468.835 78.9242 469.996L81.2122 472.18L79.4182 474.286ZM71.8522 457.906C71.1416 457.906 70.5782 458.088 70.1622 458.452C69.7462 458.799 69.5382 459.258 69.5382 459.83C69.5382 460.246 69.6509 460.645 69.8762 461.026C70.1016 461.39 70.5349 461.893 71.1762 462.534C72.2162 461.962 72.9356 461.468 73.3342 461.052C73.7502 460.619 73.9582 460.151 73.9582 459.648C73.9582 459.111 73.7676 458.686 73.3862 458.374C73.0222 458.062 72.5109 457.906 71.8522 457.906ZM71.2542 471.608C72.7622 471.608 74.0796 471.149 75.2062 470.23L70.3962 465.628C69.3562 466.2 68.6196 466.755 68.1862 467.292C67.7702 467.812 67.5622 468.401 67.5622 469.06C67.5622 469.823 67.9002 470.438 68.5762 470.906C69.2522 471.374 70.1449 471.608 71.2542 471.608Z" fill="#17171D"/>
<path d="M189.829 432.536C190.869 432.865 191.683 433.42 192.273 434.2C192.862 434.963 193.157 435.907 193.157 437.034C193.157 438.629 192.533 439.859 191.285 440.726C190.054 441.575 188.251 442 185.877 442H176.465V423.8H185.357C187.575 423.8 189.274 424.225 190.453 425.074C191.649 425.923 192.247 427.076 192.247 428.532C192.247 429.416 192.03 430.205 191.597 430.898C191.181 431.591 190.591 432.137 189.829 432.536ZM180.651 426.972V431.262H184.837C185.877 431.262 186.665 431.08 187.203 430.716C187.74 430.352 188.009 429.815 188.009 429.104C188.009 428.393 187.74 427.865 187.203 427.518C186.665 427.154 185.877 426.972 184.837 426.972H180.651ZM185.565 438.828C186.674 438.828 187.506 438.646 188.061 438.282C188.633 437.918 188.919 437.355 188.919 436.592C188.919 435.084 187.801 434.33 185.565 434.33H180.651V438.828H185.565ZM196.06 428.012H200.116V442H196.06V428.012ZM198.088 426.062C197.342 426.062 196.736 425.845 196.268 425.412C195.8 424.979 195.566 424.441 195.566 423.8C195.566 423.159 195.8 422.621 196.268 422.188C196.736 421.755 197.342 421.538 198.088 421.538C198.833 421.538 199.44 421.746 199.908 422.162C200.376 422.578 200.61 423.098 200.61 423.722C200.61 424.398 200.376 424.961 199.908 425.412C199.44 425.845 198.833 426.062 198.088 426.062ZM203.88 422.708H207.936V442H203.88V422.708ZM211.7 422.708H215.756V442H211.7V422.708ZM233.15 442.312C231.711 442.312 230.316 442.121 228.964 441.74C227.629 441.341 226.554 440.83 225.74 440.206L227.17 437.034C227.95 437.606 228.877 438.065 229.952 438.412C231.026 438.759 232.101 438.932 233.176 438.932C234.372 438.932 235.256 438.759 235.828 438.412C236.4 438.048 236.686 437.571 236.686 436.982C236.686 436.549 236.512 436.193 236.166 435.916C235.836 435.621 235.403 435.387 234.866 435.214C234.346 435.041 233.635 434.85 232.734 434.642C231.347 434.313 230.212 433.983 229.328 433.654C228.444 433.325 227.681 432.796 227.04 432.068C226.416 431.34 226.104 430.369 226.104 429.156C226.104 428.099 226.39 427.145 226.962 426.296C227.534 425.429 228.392 424.745 229.536 424.242C230.697 423.739 232.11 423.488 233.774 423.488C234.935 423.488 236.07 423.627 237.18 423.904C238.289 424.181 239.26 424.58 240.092 425.1L238.792 428.298C237.11 427.345 235.429 426.868 233.748 426.868C232.569 426.868 231.694 427.059 231.122 427.44C230.567 427.821 230.29 428.324 230.29 428.948C230.29 429.572 230.61 430.04 231.252 430.352C231.91 430.647 232.907 430.941 234.242 431.236C235.628 431.565 236.764 431.895 237.648 432.224C238.532 432.553 239.286 433.073 239.91 433.784C240.551 434.495 240.872 435.457 240.872 436.67C240.872 437.71 240.577 438.663 239.988 439.53C239.416 440.379 238.549 441.055 237.388 441.558C236.226 442.061 234.814 442.312 233.15 442.312ZM251.732 427.804C253.032 427.804 254.21 428.107 255.268 428.714C256.342 429.303 257.183 430.144 257.79 431.236C258.396 432.311 258.7 433.567 258.7 435.006C258.7 436.445 258.396 437.71 257.79 438.802C257.183 439.877 256.342 440.717 255.268 441.324C254.21 441.913 253.032 442.208 251.732 442.208C249.946 442.208 248.542 441.645 247.52 440.518V447.044H243.464V428.012H247.338V429.624C248.343 428.411 249.808 427.804 251.732 427.804ZM251.03 438.88C252.07 438.88 252.919 438.533 253.578 437.84C254.254 437.129 254.592 436.185 254.592 435.006C254.592 433.827 254.254 432.891 253.578 432.198C252.919 431.487 252.07 431.132 251.03 431.132C249.99 431.132 249.132 431.487 248.456 432.198C247.797 432.891 247.468 433.827 247.468 435.006C247.468 436.185 247.797 437.129 248.456 437.84C249.132 438.533 249.99 438.88 251.03 438.88ZM261.415 422.708H265.471V442H261.415V422.708ZM269.235 428.012H273.291V442H269.235V428.012ZM271.263 426.062C270.518 426.062 269.911 425.845 269.443 425.412C268.975 424.979 268.741 424.441 268.741 423.8C268.741 423.159 268.975 422.621 269.443 422.188C269.911 421.755 270.518 421.538 271.263 421.538C272.009 421.538 272.615 421.746 273.083 422.162C273.551 422.578 273.785 423.098 273.785 423.722C273.785 424.398 273.551 424.961 273.083 425.412C272.615 425.845 272.009 426.062 271.263 426.062ZM286.078 441.324C285.679 441.619 285.185 441.844 284.596 442C284.024 442.139 283.417 442.208 282.776 442.208C281.112 442.208 279.82 441.783 278.902 440.934C278 440.085 277.55 438.837 277.55 437.19V431.444H275.392V428.324H277.55V424.918H281.606V428.324H285.09V431.444H281.606V437.138C281.606 437.727 281.753 438.187 282.048 438.516C282.36 438.828 282.793 438.984 283.348 438.984C283.989 438.984 284.535 438.811 284.986 438.464L286.078 441.324ZM297.072 441.324C296.673 441.619 296.179 441.844 295.59 442C295.018 442.139 294.411 442.208 293.77 442.208C292.106 442.208 290.814 441.783 289.896 440.934C288.994 440.085 288.544 438.837 288.544 437.19V431.444H286.386V428.324H288.544V424.918H292.6V428.324H296.084V431.444H292.6V437.138C292.6 437.727 292.747 438.187 293.042 438.516C293.354 438.828 293.787 438.984 294.342 438.984C294.983 438.984 295.529 438.811 295.98 438.464L297.072 441.324ZM299.349 428.012H303.405V442H299.349V428.012ZM301.377 426.062C300.631 426.062 300.025 425.845 299.557 425.412C299.089 424.979 298.855 424.441 298.855 423.8C298.855 423.159 299.089 422.621 299.557 422.188C300.025 421.755 300.631 421.538 301.377 421.538C302.122 421.538 302.729 421.746 303.197 422.162C303.665 422.578 303.899 423.098 303.899 423.722C303.899 424.398 303.665 424.961 303.197 425.412C302.729 425.845 302.122 426.062 301.377 426.062ZM315.671 427.804C317.404 427.804 318.8 428.324 319.857 429.364C320.932 430.404 321.469 431.947 321.469 433.992V442H317.413V434.616C317.413 433.507 317.17 432.683 316.685 432.146C316.2 431.591 315.498 431.314 314.579 431.314C313.556 431.314 312.742 431.635 312.135 432.276C311.528 432.9 311.225 433.836 311.225 435.084V442H307.169V428.012H311.043V429.65C311.58 429.061 312.248 428.61 313.045 428.298C313.842 427.969 314.718 427.804 315.671 427.804ZM339.728 428.012V439.66C339.728 442.225 339.06 444.132 337.726 445.38C336.391 446.628 334.441 447.252 331.876 447.252C330.524 447.252 329.241 447.087 328.028 446.758C326.814 446.429 325.809 445.952 325.012 445.328L326.624 442.416C327.213 442.901 327.958 443.283 328.86 443.56C329.761 443.855 330.662 444.002 331.564 444.002C332.968 444.002 333.999 443.681 334.658 443.04C335.334 442.416 335.672 441.463 335.672 440.18V439.582C334.614 440.743 333.141 441.324 331.252 441.324C329.969 441.324 328.79 441.047 327.716 440.492C326.658 439.92 325.818 439.123 325.194 438.1C324.57 437.077 324.258 435.899 324.258 434.564C324.258 433.229 324.57 432.051 325.194 431.028C325.818 430.005 326.658 429.217 327.716 428.662C328.79 428.09 329.969 427.804 331.252 427.804C333.28 427.804 334.822 428.471 335.88 429.806V428.012H339.728ZM332.058 437.996C333.132 437.996 334.008 437.684 334.684 437.06C335.377 436.419 335.724 435.587 335.724 434.564C335.724 433.541 335.377 432.718 334.684 432.094C334.008 431.453 333.132 431.132 332.058 431.132C330.983 431.132 330.099 431.453 329.406 432.094C328.712 432.718 328.366 433.541 328.366 434.564C328.366 435.587 328.712 436.419 329.406 437.06C330.099 437.684 330.983 437.996 332.058 437.996ZM105.295 470.62V474H91.2029V455.8H104.957V459.18H95.3889V463.132H103.839V466.408H95.3889V470.62H105.295ZM117.075 474L114.007 469.71L110.835 474H106.415L111.797 466.954L106.597 460.012H111.147L114.111 464.094L117.153 460.012H121.469L116.269 466.85L121.677 474H117.075ZM131.913 459.804C133.213 459.804 134.392 460.107 135.449 460.714C136.524 461.303 137.365 462.144 137.971 463.236C138.578 464.311 138.881 465.567 138.881 467.006C138.881 468.445 138.578 469.71 137.971 470.802C137.365 471.877 136.524 472.717 135.449 473.324C134.392 473.913 133.213 474.208 131.913 474.208C130.128 474.208 128.724 473.645 127.701 472.518V479.044H123.645V460.012H127.519V461.624C128.525 460.411 129.989 459.804 131.913 459.804ZM131.211 470.88C132.251 470.88 133.101 470.533 133.759 469.84C134.435 469.129 134.773 468.185 134.773 467.006C134.773 465.827 134.435 464.891 133.759 464.198C133.101 463.487 132.251 463.132 131.211 463.132C130.171 463.132 129.313 463.487 128.637 464.198C127.979 464.891 127.649 465.827 127.649 467.006C127.649 468.185 127.979 469.129 128.637 469.84C129.313 470.533 130.171 470.88 131.211 470.88ZM155.299 467.058C155.299 467.11 155.273 467.474 155.221 468.15H144.639C144.829 469.017 145.28 469.701 145.991 470.204C146.701 470.707 147.585 470.958 148.643 470.958C149.371 470.958 150.012 470.854 150.567 470.646C151.139 470.421 151.667 470.074 152.153 469.606L154.311 471.946C152.993 473.454 151.069 474.208 148.539 474.208C146.961 474.208 145.566 473.905 144.353 473.298C143.139 472.674 142.203 471.816 141.545 470.724C140.886 469.632 140.557 468.393 140.557 467.006C140.557 465.637 140.877 464.406 141.519 463.314C142.177 462.205 143.07 461.347 144.197 460.74C145.341 460.116 146.615 459.804 148.019 459.804C149.388 459.804 150.627 460.099 151.737 460.688C152.846 461.277 153.713 462.127 154.337 463.236C154.978 464.328 155.299 465.602 155.299 467.058ZM148.045 462.872C147.126 462.872 146.355 463.132 145.731 463.652C145.107 464.172 144.725 464.883 144.587 465.784H151.477C151.338 464.9 150.957 464.198 150.333 463.678C149.709 463.141 148.946 462.872 148.045 462.872ZM166.501 459.804C168.234 459.804 169.63 460.324 170.687 461.364C171.762 462.404 172.299 463.947 172.299 465.992V474H168.243V466.616C168.243 465.507 168 464.683 167.515 464.146C167.03 463.591 166.328 463.314 165.409 463.314C164.386 463.314 163.572 463.635 162.965 464.276C162.358 464.9 162.055 465.836 162.055 467.084V474H157.999V460.012H161.873V461.65C162.41 461.061 163.078 460.61 163.875 460.298C164.672 459.969 165.548 459.804 166.501 459.804ZM180.682 474.208C179.52 474.208 178.385 474.069 177.276 473.792C176.166 473.497 175.282 473.133 174.624 472.7L175.976 469.788C176.6 470.187 177.354 470.516 178.238 470.776C179.122 471.019 179.988 471.14 180.838 471.14C182.554 471.14 183.412 470.715 183.412 469.866C183.412 469.467 183.178 469.181 182.71 469.008C182.242 468.835 181.522 468.687 180.552 468.566C179.408 468.393 178.463 468.193 177.718 467.968C176.972 467.743 176.322 467.344 175.768 466.772C175.23 466.2 174.962 465.385 174.962 464.328C174.962 463.444 175.213 462.664 175.716 461.988C176.236 461.295 176.981 460.757 177.952 460.376C178.94 459.995 180.101 459.804 181.436 459.804C182.424 459.804 183.403 459.917 184.374 460.142C185.362 460.35 186.176 460.645 186.818 461.026L185.466 463.912C184.235 463.219 182.892 462.872 181.436 462.872C180.569 462.872 179.919 462.993 179.486 463.236C179.052 463.479 178.836 463.791 178.836 464.172C178.836 464.605 179.07 464.909 179.538 465.082C180.006 465.255 180.751 465.42 181.774 465.576C182.918 465.767 183.854 465.975 184.582 466.2C185.31 466.408 185.942 466.798 186.48 467.37C187.017 467.942 187.286 468.739 187.286 469.762C187.286 470.629 187.026 471.4 186.506 472.076C185.986 472.752 185.223 473.281 184.218 473.662C183.23 474.026 182.051 474.208 180.682 474.208ZM203.49 467.058C203.49 467.11 203.464 467.474 203.412 468.15H192.83C193.021 469.017 193.471 469.701 194.182 470.204C194.893 470.707 195.777 470.958 196.834 470.958C197.562 470.958 198.203 470.854 198.758 470.646C199.33 470.421 199.859 470.074 200.344 469.606L202.502 471.946C201.185 473.454 199.261 474.208 196.73 474.208C195.153 474.208 193.757 473.905 192.544 473.298C191.331 472.674 190.395 471.816 189.736 470.724C189.077 469.632 188.748 468.393 188.748 467.006C188.748 465.637 189.069 464.406 189.71 463.314C190.369 462.205 191.261 461.347 192.388 460.74C193.532 460.116 194.806 459.804 196.21 459.804C197.579 459.804 198.819 460.099 199.928 460.688C201.037 461.277 201.904 462.127 202.528 463.236C203.169 464.328 203.49 465.602 203.49 467.058ZM196.236 462.872C195.317 462.872 194.546 463.132 193.922 463.652C193.298 464.172 192.917 464.883 192.778 465.784H199.668C199.529 464.9 199.148 464.198 198.524 463.678C197.9 463.141 197.137 462.872 196.236 462.872ZM222.576 473.324C222.177 473.619 221.683 473.844 221.094 474C220.522 474.139 219.915 474.208 219.274 474.208C217.61 474.208 216.318 473.783 215.4 472.934C214.498 472.085 214.048 470.837 214.048 469.19V463.444H211.89V460.324H214.048V456.918H218.104V460.324H221.588V463.444H218.104V469.138C218.104 469.727 218.251 470.187 218.546 470.516C218.858 470.828 219.291 470.984 219.846 470.984C220.487 470.984 221.033 470.811 221.484 470.464L222.576 473.324ZM228.726 461.858C229.212 461.182 229.862 460.671 230.676 460.324C231.508 459.977 232.462 459.804 233.536 459.804V463.548C233.086 463.513 232.782 463.496 232.626 463.496C231.465 463.496 230.555 463.825 229.896 464.484C229.238 465.125 228.908 466.096 228.908 467.396V474H224.852V460.012H228.726V461.858ZM241.514 459.804C243.681 459.804 245.345 460.324 246.506 461.364C247.667 462.387 248.248 463.938 248.248 466.018V474H244.452V472.258C243.689 473.558 242.268 474.208 240.188 474.208C239.113 474.208 238.177 474.026 237.38 473.662C236.6 473.298 236.002 472.795 235.586 472.154C235.17 471.513 234.962 470.785 234.962 469.97C234.962 468.67 235.447 467.647 236.418 466.902C237.406 466.157 238.923 465.784 240.968 465.784H244.192C244.192 464.9 243.923 464.224 243.386 463.756C242.849 463.271 242.043 463.028 240.968 463.028C240.223 463.028 239.486 463.149 238.758 463.392C238.047 463.617 237.441 463.929 236.938 464.328L235.482 461.494C236.245 460.957 237.155 460.541 238.212 460.246C239.287 459.951 240.387 459.804 241.514 459.804ZM241.202 471.478C241.895 471.478 242.511 471.322 243.048 471.01C243.585 470.681 243.967 470.204 244.192 469.58V468.15H241.41C239.746 468.15 238.914 468.696 238.914 469.788C238.914 470.308 239.113 470.724 239.512 471.036C239.928 471.331 240.491 471.478 241.202 471.478ZM258.831 474.208C257.341 474.208 255.997 473.905 254.801 473.298C253.623 472.674 252.695 471.816 252.019 470.724C251.361 469.632 251.031 468.393 251.031 467.006C251.031 465.619 251.361 464.38 252.019 463.288C252.695 462.196 253.623 461.347 254.801 460.74C255.997 460.116 257.341 459.804 258.831 459.804C260.305 459.804 261.587 460.116 262.679 460.74C263.789 461.347 264.595 462.222 265.097 463.366L261.951 465.056C261.223 463.773 260.175 463.132 258.805 463.132C257.748 463.132 256.873 463.479 256.179 464.172C255.486 464.865 255.139 465.81 255.139 467.006C255.139 468.202 255.486 469.147 256.179 469.84C256.873 470.533 257.748 470.88 258.805 470.88C260.192 470.88 261.241 470.239 261.951 468.956L265.097 470.672C264.595 471.781 263.789 472.648 262.679 473.272C261.587 473.896 260.305 474.208 258.831 474.208ZM273.337 468.514L271.387 470.438V474H267.331V454.708H271.387V465.628L277.315 460.012H282.151L276.327 465.94L282.671 474H277.757L273.337 468.514ZM284.393 460.012H288.449V474H284.393V460.012ZM286.421 458.062C285.676 458.062 285.069 457.845 284.601 457.412C284.133 456.979 283.899 456.441 283.899 455.8C283.899 455.159 284.133 454.621 284.601 454.188C285.069 453.755 285.676 453.538 286.421 453.538C287.167 453.538 287.773 453.746 288.241 454.162C288.709 454.578 288.943 455.098 288.943 455.722C288.943 456.398 288.709 456.961 288.241 457.412C287.773 457.845 287.167 458.062 286.421 458.062ZM300.716 459.804C302.449 459.804 303.844 460.324 304.902 461.364C305.976 462.404 306.514 463.947 306.514 465.992V474H302.458V466.616C302.458 465.507 302.215 464.683 301.73 464.146C301.244 463.591 300.542 463.314 299.624 463.314C298.601 463.314 297.786 463.635 297.18 464.276C296.573 464.9 296.27 465.836 296.27 467.084V474H292.214V460.012H296.088V461.65C296.625 461.061 297.292 460.61 298.09 460.298C298.887 459.969 299.762 459.804 300.716 459.804ZM324.773 460.012V471.66C324.773 474.225 324.105 476.132 322.771 477.38C321.436 478.628 319.486 479.252 316.921 479.252C315.569 479.252 314.286 479.087 313.073 478.758C311.859 478.429 310.854 477.952 310.057 477.328L311.669 474.416C312.258 474.901 313.003 475.283 313.905 475.56C314.806 475.855 315.707 476.002 316.609 476.002C318.013 476.002 319.044 475.681 319.703 475.04C320.379 474.416 320.717 473.463 320.717 472.18V471.582C319.659 472.743 318.186 473.324 316.297 473.324C315.014 473.324 313.835 473.047 312.761 472.492C311.703 471.92 310.863 471.123 310.239 470.1C309.615 469.077 309.303 467.899 309.303 466.564C309.303 465.229 309.615 464.051 310.239 463.028C310.863 462.005 311.703 461.217 312.761 460.662C313.835 460.09 315.014 459.804 316.297 459.804C318.325 459.804 319.867 460.471 320.925 461.806V460.012H324.773ZM317.103 469.996C318.177 469.996 319.053 469.684 319.729 469.06C320.422 468.419 320.769 467.587 320.769 466.564C320.769 465.541 320.422 464.718 319.729 464.094C319.053 463.453 318.177 463.132 317.103 463.132C316.028 463.132 315.144 463.453 314.451 464.094C313.757 464.718 313.411 465.541 313.411 466.564C313.411 467.587 313.757 468.419 314.451 469.06C315.144 469.684 316.028 469.996 317.103 469.996Z" fill="#F6F5D8"/>
<g clip-path="url(#clip0_3257_4456)">
<path d="M269.835 29.167V281.748C269.835 287.005 265.57 291.268 260.312 291.268H127.718C125.242 291.268 122.987 290.324 121.291 288.775C120.988 288.497 120.703 288.198 120.44 287.885C119.04 286.228 118.195 284.088 118.195 281.748V29.167C118.195 23.9099 122.46 19.6465 127.718 19.6465H260.312C262.738 19.6465 264.95 20.5512 266.628 22.0435C267.43 22.7523 268.11 23.5965 268.634 24.5403C269.4 25.908 269.835 27.4859 269.835 29.167Z" fill="#4E57E7"/>
<path d="M170.116 24.9355H173.183C174.683 24.9355 175.902 26.1537 175.902 27.6532V34.5807C175.902 36.8638 177.754 38.7159 180.038 38.7159H211.978C214.261 38.7159 216.114 36.8638 216.114 34.5807V27.7885V27.6532C216.114 26.1537 217.332 24.9355 218.832 24.9355H221.9H257.106C262.365 24.9355 266.63 29.1989 266.63 34.4561V278.065C266.63 283.322 262.365 287.585 257.106 287.585H129.961C124.702 287.585 120.438 283.322 120.438 278.065V34.4561C120.438 29.1989 124.702 24.9355 129.961 24.9355H173.18" fill="#F6F5D8"/>
<path d="M202.83 31.0273H180.549C179.663 31.0273 178.945 31.7449 178.945 32.6301C178.945 33.5153 179.663 34.2329 180.549 34.2329H202.83C203.715 34.2329 204.433 33.5153 204.433 32.6301C204.433 31.7449 203.715 31.0273 202.83 31.0273Z" fill="#F6F5D8" stroke="black" stroke-miterlimit="10"/>
<path d="M210.205 34.2314C211.268 34.2314 212.129 33.3703 212.129 32.3081C212.129 31.2459 211.268 30.3848 210.205 30.3848C209.143 30.3848 208.281 31.2459 208.281 32.3081C208.281 33.3703 209.143 34.2314 210.205 34.2314Z" fill="#F6F5D8" stroke="black" stroke-miterlimit="10"/>
<path d="M151.151 70.4473H140.862C138.082 70.4473 135.828 72.7005 135.828 75.48V85.7663C135.828 88.5458 138.082 90.799 140.862 90.799H151.151C153.932 90.799 156.185 88.5458 156.185 85.7663V75.48C156.185 72.7005 153.932 70.4473 151.151 70.4473Z" fill="black" stroke="black" stroke-miterlimit="10"/>
<path d="M150.778 69.8066H139.954C137.322 69.8066 135.188 71.9403 135.188 74.5722V85.3928C135.188 88.0248 137.322 90.1584 139.954 90.1584H150.778C153.411 90.1584 155.545 88.0248 155.545 85.3928V74.5722C155.545 71.9403 153.411 69.8066 150.778 69.8066Z" fill="#F6F5D8" stroke="black" stroke-width="0.5" stroke-miterlimit="10"/>
<path d="M141.253 78.5332L142.86 80.4067C143.223 80.8305 143.864 80.8733 144.281 80.4993L150.609 74.8219C151.029 74.4443 151.677 74.4906 152.041 74.9252L152.372 75.3241C152.714 75.7337 152.671 76.3356 152.279 76.6953L144.096 84.1928C143.69 84.5632 143.059 84.5383 142.689 84.1323L139.176 80.2998C138.78 79.8689 138.841 79.1921 139.304 78.8359L139.888 78.3907C140.309 78.0702 140.907 78.1307 141.253 78.5332Z" fill="#0DA08B" stroke="black" stroke-width="0.5" stroke-miterlimit="10"/>
<path d="M151.037 193.355H141.289C138.359 193.355 135.984 195.73 135.984 198.659V208.404C135.984 211.333 138.359 213.707 141.289 213.707H151.037C153.967 213.707 156.342 211.333 156.342 208.404V198.659C156.342 195.73 153.967 193.355 151.037 193.355Z" fill="black" stroke="black" stroke-miterlimit="10"/>
<path d="M150.856 192.715H139.876C137.287 192.715 135.188 194.813 135.188 197.402V208.379C135.188 210.968 137.287 213.067 139.876 213.067H150.856C153.446 213.067 155.545 210.968 155.545 208.379V197.402C155.545 194.813 153.446 192.715 150.856 192.715Z" fill="#F6F5D8" stroke="black" stroke-width="0.5" stroke-miterlimit="10"/>
<path d="M141.253 201.445L142.86 203.319C143.223 203.743 143.864 203.785 144.281 203.411L150.609 197.734C151.029 197.356 151.677 197.403 152.041 197.837L152.372 198.236C152.714 198.646 152.671 199.248 152.279 199.607L144.096 207.105C143.69 207.475 143.059 207.45 142.689 207.044L139.176 203.212C138.78 202.781 138.841 202.104 139.304 201.748L139.888 201.303C140.309 200.982 140.907 201.043 141.253 201.445Z" fill="#0DA08B" stroke="black" stroke-width="0.5" stroke-miterlimit="10"/>
<path d="M243.787 72.0508H175.34C173.349 72.0508 171.734 73.6646 171.734 75.6553V75.6588C171.734 77.6495 173.349 79.2633 175.34 79.2633H243.787C245.778 79.2633 247.392 77.6495 247.392 75.6588V75.6553C247.392 73.6646 245.778 72.0508 243.787 72.0508Z" fill="#BFCDFF"/>
<path d="M220.622 193.998H173.979C172.739 193.998 171.734 195.003 171.734 196.242C171.734 197.481 172.739 198.486 173.979 198.486H220.622C221.861 198.486 222.866 197.481 222.866 196.242C222.866 195.003 221.861 193.998 220.622 193.998Z" fill="#BFCDFF"/>
<path d="M202.908 202.09H174.057C172.817 202.09 171.812 203.094 171.812 204.334C171.812 205.573 172.817 206.578 174.057 206.578H202.908C204.147 206.578 205.152 205.573 205.152 204.334C205.152 203.094 204.147 202.09 202.908 202.09Z" fill="#BFCDFF"/>
<path d="M213.81 210.264H173.416C172.177 210.264 171.172 211.268 171.172 212.508C171.172 213.747 172.177 214.751 173.416 214.751H213.81C215.05 214.751 216.055 213.747 216.055 212.508C216.055 211.268 215.05 210.264 213.81 210.264Z" fill="#BFCDFF"/>
<path d="M230.515 231.656H140.353C139.313 231.656 138.469 232.499 138.469 233.539C138.469 234.578 139.313 235.421 140.353 235.421H230.515C231.556 235.421 232.4 234.578 232.4 233.539C232.4 232.499 231.556 231.656 230.515 231.656Z" fill="#BFCDFF"/>
<path d="M194.532 241.111H140.353C139.313 241.111 138.469 241.954 138.469 242.994C138.469 244.033 139.313 244.876 140.353 244.876H194.532C195.572 244.876 196.416 244.033 196.416 242.994C196.416 241.954 195.572 241.111 194.532 241.111Z" fill="#BFCDFF"/>
<path d="M220.062 82.625H175.34C173.349 82.625 171.734 84.2388 171.734 86.2295V86.233C171.734 88.2237 173.349 89.8375 175.34 89.8375H220.062C222.054 89.8375 223.668 88.2237 223.668 86.233V86.2295C223.668 84.2388 222.054 82.625 220.062 82.625Z" fill="#BFCDFF"/>
<path d="M275.847 37.9403V284.452C275.847 291.935 269.78 298.001 262.295 298.001H134.632C131.764 298.001 129.021 296.832 127.036 294.759L121.297 288.776C122.993 290.325 125.248 291.269 127.724 291.269H260.314C265.572 291.269 269.837 287.006 269.837 281.748V29.1677C269.837 27.4866 269.402 25.9087 268.636 24.541L273.068 30.0546C274.867 32.2914 275.847 35.0731 275.847 37.9438V37.9403Z" fill="#203FB0"/>
<path d="M121.293 288.776L120.438 287.889" stroke="black" stroke-miterlimit="10"/>
<path d="M239.017 113.473H148.043C141.871 113.473 136.867 118.475 136.867 124.646V173.449C136.867 179.62 141.871 184.622 148.043 184.622H239.017C245.19 184.622 250.193 179.62 250.193 173.449V124.646C250.193 118.475 245.19 113.473 239.017 113.473Z" fill="black" stroke="black" stroke-miterlimit="10"/>
<path d="M238.212 112.832H147.239C141.066 112.832 136.062 117.834 136.062 124.005V172.808C136.062 178.979 141.066 183.981 147.239 183.981H238.212C244.385 183.981 249.389 178.979 249.389 172.808V124.005C249.389 117.834 244.385 112.832 238.212 112.832Z" fill="#1EDBA2"/>
<path d="M186.71 147.325L188.513 149.427C188.923 149.904 189.642 149.95 190.106 149.53L197.195 143.165C197.666 142.741 198.396 142.795 198.799 143.283L199.169 143.728C199.55 144.187 199.504 144.864 199.066 145.266L189.899 153.669C189.443 154.085 188.737 154.053 188.321 153.601L184.387 149.309C183.946 148.825 184.01 148.066 184.53 147.667L185.182 147.165C185.652 146.805 186.322 146.873 186.71 147.325Z" fill="#F6F5D8" stroke="black" stroke-miterlimit="10"/>
<path d="M191.688 132.621C182.967 132.621 175.898 139.688 175.898 148.407C175.898 157.126 182.967 164.192 191.688 164.192C200.41 164.192 207.478 157.126 207.478 148.407C207.478 139.688 200.41 132.621 191.688 132.621ZM191.688 161.877C184.246 161.877 178.214 155.847 178.214 148.407C178.214 140.966 184.246 134.936 191.688 134.936C199.131 134.936 205.163 140.966 205.163 148.407C205.163 155.847 199.131 161.877 191.688 161.877Z" fill="#F6F5D8" stroke="#F6F5D8" stroke-miterlimit="10"/>
<path d="M191.685 161.878C199.127 161.878 205.159 155.848 205.159 148.408C205.159 140.968 199.127 134.938 191.685 134.938C184.244 134.938 178.211 140.968 178.211 148.408C178.211 155.848 184.244 161.878 191.685 161.878Z" stroke="black" stroke-miterlimit="10"/>
<path d="M191.685 161.878C199.127 161.878 205.159 155.848 205.159 148.408C205.159 140.968 199.127 134.938 191.685 134.938C184.244 134.938 178.211 140.968 178.211 148.408C178.211 155.848 184.244 161.878 191.685 161.878Z" stroke="#F6F5D8" stroke-miterlimit="10"/>
<path d="M244.426 112.031L244.191 112.045H244.188" stroke="black" stroke-miterlimit="10"/>
<path d="M233.065 124.961V124.965L233.047 125.331" stroke="black" stroke-miterlimit="10"/>
<path d="M261.383 124.075V124.07" stroke="black" stroke-miterlimit="10"/>
<path d="M250.515 112.113H250.511H250.508" stroke="black" stroke-miterlimit="10"/>
<path d="M119.285 47.6374H116.589C112.285 47.6374 108.797 44.1505 108.797 39.8479V8.91062C108.797 4.60804 112.285 1.12109 116.589 1.12109H231.974C236.278 1.12109 239.766 4.60804 239.766 8.91062V39.8479C239.766 44.1505 236.278 47.6374 231.974 47.6374H144.798L140.519 47.7906C139.383 47.8297 138.307 48.3284 137.544 49.1725L132.129 55.1562C131.32 56.0502 129.888 55.9683 129.186 54.9853L125.046 49.1903C124.444 48.3462 123.486 47.8262 122.449 47.7799L119.285 47.6374Z" fill="#C1C1C1" stroke="#C1C1C1" stroke-miterlimit="10"/>
<path d="M118.489 46.5163H115.792C111.488 46.5163 108 43.0294 108 38.7268V7.78952C108 3.48694 111.488 0 115.792 0H231.177C235.481 0 238.969 3.48694 238.969 7.78952V38.7268C238.969 43.0294 235.481 46.5163 231.177 46.5163H144.001L139.722 46.6695C138.586 46.7086 137.51 47.2073 136.747 48.0514L131.332 54.0351C130.523 54.9291 129.091 54.8472 128.389 53.8642L124.25 48.0692C123.647 47.2251 122.689 46.7051 121.652 46.6588L118.489 46.5163Z" fill="#F6F5D8"/>
<path d="M148.055 30.809V30.8047" stroke="black" stroke-miterlimit="10"/>
<path d="M137.187 18.8496H137.183H137.18" stroke="black" stroke-miterlimit="10"/>
<path d="M207.468 22H164.532C163.686 22 163 22.6716 163 23.5C163 24.3284 163.686 25 164.532 25H207.468C208.314 25 209 24.3284 209 23.5C209 22.6716 208.314 22 207.468 22Z" fill="#E1E1E1"/>
<path d="M177.487 26H164.513C163.677 26 163 26.4477 163 27C163 27.5523 163.677 28 164.513 28H177.487C178.323 28 179 27.5523 179 27C179 26.4477 178.323 26 177.487 26Z" fill="#CDCDCD"/>
<path d="M210.449 31H167.551C165.038 31 163 32.567 163 34.5C163 36.433 165.038 38 167.551 38H210.449C212.962 38 215 36.433 215 34.5C215 32.567 212.962 31 210.449 31Z" fill="#D7D7D7"/>
<path d="M169.689 14.6289C169.689 15.0618 169.577 15.4508 169.353 15.7959C169.131 16.141 168.806 16.4111 168.376 16.6064C167.946 16.8018 167.437 16.8994 166.848 16.8994C166.141 16.8994 165.559 16.766 165.1 16.499C164.774 16.307 164.509 16.0514 164.304 15.7324C164.102 15.4102 164.001 15.0977 164.001 14.7949C164.001 14.6191 164.061 14.4694 164.182 14.3457C164.305 14.2188 164.462 14.1553 164.65 14.1553C164.803 14.1553 164.932 14.2041 165.036 14.3018C165.144 14.3994 165.235 14.5443 165.31 14.7363C165.401 14.9642 165.498 15.1546 165.603 15.3076C165.71 15.4606 165.86 15.5876 166.052 15.6885C166.244 15.7861 166.496 15.835 166.809 15.835C167.238 15.835 167.587 15.7357 167.854 15.5371C168.124 15.3353 168.259 15.0846 168.259 14.7852C168.259 14.5475 168.186 14.3555 168.039 14.209C167.896 14.0592 167.709 13.9453 167.478 13.8672C167.25 13.7891 166.944 13.7061 166.56 13.6182C166.045 13.4977 165.614 13.3577 165.266 13.1982C164.921 13.0355 164.646 12.8158 164.44 12.5391C164.239 12.2591 164.138 11.9124 164.138 11.499C164.138 11.1051 164.245 10.7552 164.46 10.4492C164.675 10.1432 164.986 9.90885 165.393 9.74609C165.799 9.58008 166.278 9.49707 166.828 9.49707C167.268 9.49707 167.647 9.55241 167.966 9.66309C168.288 9.77051 168.555 9.91536 168.767 10.0977C168.978 10.2767 169.133 10.4655 169.23 10.6641C169.328 10.8626 169.377 11.0563 169.377 11.2451C169.377 11.4176 169.315 11.5739 169.191 11.7139C169.071 11.8506 168.92 11.9189 168.737 11.9189C168.571 11.9189 168.444 11.8783 168.356 11.7969C168.272 11.7122 168.179 11.5755 168.078 11.3867C167.948 11.1165 167.792 10.9066 167.609 10.7568C167.427 10.6038 167.134 10.5273 166.73 10.5273C166.356 10.5273 166.053 10.6104 165.822 10.7764C165.594 10.9391 165.48 11.1361 165.48 11.3672C165.48 11.5104 165.52 11.6341 165.598 11.7383C165.676 11.8424 165.783 11.932 165.92 12.0068C166.057 12.0817 166.195 12.1403 166.335 12.1826C166.475 12.2249 166.706 12.2868 167.028 12.3682C167.432 12.4626 167.797 12.5667 168.122 12.6807C168.451 12.7946 168.729 12.9329 168.957 13.0957C169.188 13.2585 169.367 13.4652 169.494 13.7158C169.624 13.9632 169.689 14.2676 169.689 14.6289ZM173.698 13.9893H172.37V16.0156C172.37 16.3053 172.302 16.5251 172.165 16.6748C172.028 16.8245 171.856 16.8994 171.647 16.8994C171.429 16.8994 171.254 16.8262 171.12 16.6797C170.987 16.5299 170.92 16.3118 170.92 16.0254V10.5078C170.92 10.1888 170.993 9.96094 171.14 9.82422C171.286 9.6875 171.519 9.61914 171.838 9.61914H173.698C174.248 9.61914 174.672 9.66146 174.968 9.74609C175.261 9.82747 175.513 9.96257 175.725 10.1514C175.939 10.3402 176.102 10.5713 176.213 10.8447C176.324 11.1182 176.379 11.4258 176.379 11.7676C176.379 12.4967 176.154 13.0501 175.705 13.4277C175.256 13.8021 174.587 13.9893 173.698 13.9893ZM173.347 10.708H172.37V12.8955H173.347C173.688 12.8955 173.973 12.8597 174.201 12.7881C174.432 12.7165 174.608 12.5993 174.729 12.4365C174.849 12.2738 174.909 12.0605 174.909 11.7969C174.909 11.4811 174.816 11.224 174.631 11.0254C174.423 10.8138 173.994 10.708 173.347 10.708ZM179.011 10.376V15.5859H181.95C182.185 15.5859 182.364 15.6429 182.487 15.7568C182.614 15.8708 182.678 16.014 182.678 16.1865C182.678 16.3623 182.616 16.5055 182.492 16.6162C182.368 16.7236 182.188 16.7773 181.95 16.7773H178.449C178.133 16.7773 177.906 16.7074 177.766 16.5674C177.629 16.4274 177.561 16.2012 177.561 15.8887V10.376C177.561 10.083 177.626 9.86328 177.756 9.7168C177.889 9.57031 178.063 9.49707 178.278 9.49707C178.496 9.49707 178.672 9.57031 178.806 9.7168C178.942 9.86003 179.011 10.0798 179.011 10.376ZM183.693 16.0156V10.376C183.693 10.083 183.76 9.86328 183.894 9.7168C184.027 9.57031 184.2 9.49707 184.411 9.49707C184.629 9.49707 184.805 9.57031 184.938 9.7168C185.075 9.86003 185.144 10.0798 185.144 10.376V16.0156C185.144 16.3118 185.075 16.5332 184.938 16.6797C184.805 16.8262 184.629 16.8994 184.411 16.8994C184.203 16.8994 184.03 16.8262 183.894 16.6797C183.76 16.5299 183.693 16.3086 183.693 16.0156ZM191.418 10.8154H189.836V16.0156C189.836 16.3151 189.769 16.5381 189.636 16.6846C189.502 16.8278 189.33 16.8994 189.118 16.8994C188.903 16.8994 188.728 16.8262 188.591 16.6797C188.457 16.5332 188.391 16.3118 188.391 16.0156V10.8154H186.809C186.561 10.8154 186.377 10.7617 186.257 10.6543C186.136 10.5436 186.076 10.3988 186.076 10.2197C186.076 10.0342 186.138 9.8877 186.262 9.78027C186.389 9.67285 186.571 9.61914 186.809 9.61914H191.418C191.669 9.61914 191.854 9.67448 191.975 9.78516C192.098 9.89583 192.16 10.0407 192.16 10.2197C192.16 10.3988 192.098 10.5436 191.975 10.6543C191.851 10.7617 191.665 10.8154 191.418 10.8154ZM197.561 16.1084V11.665C196.734 12.2998 196.177 12.6172 195.891 12.6172C195.754 12.6172 195.632 12.5635 195.524 12.4561C195.42 12.3454 195.368 12.2184 195.368 12.0752C195.368 11.9092 195.42 11.7871 195.524 11.709C195.629 11.6309 195.812 11.5299 196.076 11.4062C196.47 11.2207 196.784 11.0254 197.019 10.8203C197.256 10.6152 197.466 10.3857 197.648 10.1318C197.831 9.87793 197.95 9.72168 198.005 9.66309C198.06 9.60449 198.164 9.5752 198.317 9.5752C198.49 9.5752 198.628 9.64193 198.732 9.77539C198.837 9.90885 198.889 10.0928 198.889 10.3271V15.918C198.889 16.5723 198.666 16.8994 198.22 16.8994C198.021 16.8994 197.862 16.8327 197.741 16.6992C197.621 16.5658 197.561 16.3688 197.561 16.1084Z" fill="#7195A3"/>
<path d="M235.34 144.749H232.643C228.339 144.749 224.852 141.262 224.852 136.959V106.022C224.852 101.719 228.339 98.2324 232.643 98.2324H348.029C352.332 98.2324 355.82 101.719 355.82 106.022V136.959C355.82 141.262 352.332 144.749 348.029 144.749H260.853L256.574 144.902C255.437 144.941 254.361 145.44 253.599 146.284L248.184 152.268C247.375 153.162 245.943 153.08 245.241 152.097L241.101 146.302C240.499 145.458 239.541 144.938 238.504 144.891L235.34 144.749Z" fill="#C1C1C1" stroke="#C1C1C1" stroke-miterlimit="10"/>
<path d="M234.535 143.628H231.839C227.535 143.628 224.047 140.141 224.047 135.838V104.901C224.047 100.598 227.535 97.1113 231.839 97.1113H347.224C351.528 97.1113 355.016 100.598 355.016 104.901V135.838C355.016 140.141 351.528 143.628 347.224 143.628H260.048L255.769 143.781C254.633 143.82 253.557 144.319 252.794 145.163L247.379 151.146C246.57 152.04 245.138 151.959 244.436 150.976L240.296 145.181C239.694 144.336 238.736 143.816 237.699 143.77L234.535 143.628Z" fill="#F6F5D8"/>
<path d="M324.468 120H281.532C280.686 120 280 120.672 280 121.5C280 122.328 280.686 123 281.532 123H324.468C325.314 123 326 122.328 326 121.5C326 120.672 325.314 120 324.468 120Z" fill="#E1E1E1"/>
<path d="M294.487 124H281.513C280.677 124 280 124.448 280 125C280 125.552 280.677 126 281.513 126H294.487C295.323 126 296 125.552 296 125C296 124.448 295.323 124 294.487 124Z" fill="#CDCDCD"/>
<path d="M327.449 129H284.551C282.038 129 280 130.567 280 132.5C280 134.433 282.038 136 284.551 136H327.449C329.962 136 332 134.433 332 132.5C332 130.567 329.962 129 327.449 129Z" fill="#D7D7D7"/>
<path d="M264.108 127.916C264.116 127.735 264.123 127.553 264.123 127.371C264.123 121.836 259.488 117.196 253.242 115.963C254.984 114.528 256.149 111.928 256.149 108.961C256.149 107.433 255.839 106.001 255.301 104.779C261.575 107.073 266.057 113.092 266.057 120.159C266.057 122.966 265.352 125.612 264.105 127.92L264.108 127.916Z" fill="#F6F5D8"/>
<path d="M245.385 104.338L245.086 104.441" stroke="black" stroke-miterlimit="10"/>
<path d="M264.121 127.368C264.121 127.553 264.118 127.735 264.107 127.913C261.335 133.038 255.92 136.518 249.689 136.518C243.825 136.518 238.68 133.437 235.791 128.807C235.723 128.329 235.688 127.856 235.688 127.364C235.688 121.726 240.494 117.017 246.917 115.885C247.847 116.675 248.941 117.131 250.116 117.131C251.292 117.131 252.325 116.7 253.237 115.952C259.479 117.188 264.118 121.826 264.118 127.361L264.121 127.368Z" fill="#4E57E7" stroke="black" stroke-width="0.5" stroke-miterlimit="10"/>
<path d="M256.15 108.956C256.15 111.923 254.985 114.523 253.243 115.959C252.331 116.707 251.265 117.138 250.122 117.138C248.978 117.138 247.849 116.682 246.923 115.891C245.223 114.445 244.094 111.881 244.094 108.956C244.094 107.286 244.461 105.733 245.095 104.44C246.174 102.228 248.023 100.771 250.125 100.771C252.331 100.771 254.258 102.374 255.309 104.771C255.847 105.993 256.157 107.425 256.157 108.953L256.15 108.956Z" fill="#4E57E7" stroke="black" stroke-width="0.5" stroke-miterlimit="10"/>
<path d="M147.434 32.5963C147.434 32.7815 147.43 32.9632 147.42 33.1413C144.648 38.2666 139.233 41.7464 133.001 41.7464C127.137 41.7464 121.993 38.6655 119.103 34.0353C119.036 33.558 119 33.0843 119 32.5928C119 26.9545 123.806 22.2459 130.23 21.1133C131.16 21.904 132.253 22.3599 133.429 22.3599C134.605 22.3599 135.638 21.9289 136.55 21.181C142.792 22.4169 147.43 27.0543 147.43 32.5892L147.434 32.5963Z" fill="#4E57E7" stroke="black" stroke-width="0.5" stroke-miterlimit="10"/>
<path d="M139.462 14.1849C139.462 17.1518 138.297 19.7519 136.555 21.1873C135.643 21.9352 134.578 22.3662 133.434 22.3662C132.291 22.3662 131.161 21.9103 130.235 21.1196C128.536 19.6735 127.406 17.1091 127.406 14.1849C127.406 12.5144 127.773 10.9615 128.407 9.6686C129.487 7.45676 131.336 6 133.438 6C135.643 6 137.571 7.60279 138.622 9.99984C139.16 11.2215 139.47 12.6533 139.47 14.1813L139.462 14.1849Z" fill="#4E57E7" stroke="black" stroke-width="0.5" stroke-miterlimit="10"/>
<path d="M247.149 115.877L246.918 115.888H246.914" stroke="black" stroke-miterlimit="10"/>
<path d="M264.109 127.92V127.916" stroke="black" stroke-miterlimit="10"/>
<path d="M253.242 115.959H253.238H253.234" stroke="black" stroke-miterlimit="10"/>
<path d="M285.744 111.74C285.744 112.173 285.632 112.562 285.407 112.907C285.186 113.252 284.86 113.522 284.431 113.718C284.001 113.913 283.492 114.011 282.902 114.011C282.196 114.011 281.613 113.877 281.154 113.61C280.829 113.418 280.563 113.163 280.358 112.844C280.157 112.521 280.056 112.209 280.056 111.906C280.056 111.73 280.116 111.581 280.236 111.457C280.36 111.33 280.516 111.267 280.705 111.267C280.858 111.267 280.987 111.315 281.091 111.413C281.198 111.511 281.289 111.656 281.364 111.848C281.455 112.076 281.553 112.266 281.657 112.419C281.765 112.572 281.914 112.699 282.106 112.8C282.299 112.897 282.551 112.946 282.863 112.946C283.293 112.946 283.641 112.847 283.908 112.648C284.178 112.447 284.313 112.196 284.313 111.896C284.313 111.659 284.24 111.467 284.094 111.32C283.951 111.171 283.763 111.057 283.532 110.979C283.304 110.9 282.998 110.817 282.614 110.729C282.1 110.609 281.669 110.469 281.32 110.31C280.975 110.147 280.7 109.927 280.495 109.65C280.293 109.37 280.192 109.024 280.192 108.61C280.192 108.216 280.3 107.867 280.515 107.561C280.729 107.255 281.04 107.02 281.447 106.857C281.854 106.691 282.333 106.608 282.883 106.608C283.322 106.608 283.701 106.664 284.021 106.774C284.343 106.882 284.61 107.027 284.821 107.209C285.033 107.388 285.188 107.577 285.285 107.775C285.383 107.974 285.432 108.168 285.432 108.356C285.432 108.529 285.37 108.685 285.246 108.825C285.126 108.962 284.974 109.03 284.792 109.03C284.626 109.03 284.499 108.99 284.411 108.908C284.326 108.824 284.234 108.687 284.133 108.498C284.003 108.228 283.846 108.018 283.664 107.868C283.482 107.715 283.189 107.639 282.785 107.639C282.411 107.639 282.108 107.722 281.877 107.888C281.649 108.05 281.535 108.247 281.535 108.479C281.535 108.622 281.574 108.745 281.652 108.85C281.73 108.954 281.838 109.043 281.975 109.118C282.111 109.193 282.25 109.252 282.39 109.294C282.53 109.336 282.761 109.398 283.083 109.479C283.487 109.574 283.851 109.678 284.177 109.792C284.506 109.906 284.784 110.044 285.012 110.207C285.243 110.37 285.422 110.576 285.549 110.827C285.679 111.075 285.744 111.379 285.744 111.74ZM289.753 111.101H288.425V113.127C288.425 113.417 288.356 113.636 288.22 113.786C288.083 113.936 287.91 114.011 287.702 114.011C287.484 114.011 287.308 113.938 287.175 113.791C287.041 113.641 286.975 113.423 286.975 113.137V107.619C286.975 107.3 287.048 107.072 287.194 106.936C287.341 106.799 287.574 106.73 287.893 106.73H289.753C290.303 106.73 290.726 106.773 291.022 106.857C291.315 106.939 291.568 107.074 291.779 107.263C291.994 107.451 292.157 107.683 292.268 107.956C292.378 108.229 292.434 108.537 292.434 108.879C292.434 109.608 292.209 110.161 291.76 110.539C291.311 110.913 290.642 111.101 289.753 111.101ZM289.401 107.819H288.425V110.007H289.401C289.743 110.007 290.028 109.971 290.256 109.899C290.487 109.828 290.663 109.711 290.783 109.548C290.904 109.385 290.964 109.172 290.964 108.908C290.964 108.592 290.871 108.335 290.686 108.137C290.477 107.925 290.049 107.819 289.401 107.819ZM295.065 107.487V112.697H298.005C298.239 112.697 298.418 112.754 298.542 112.868C298.669 112.982 298.732 113.125 298.732 113.298C298.732 113.474 298.671 113.617 298.547 113.728C298.423 113.835 298.243 113.889 298.005 113.889H294.504C294.188 113.889 293.96 113.819 293.82 113.679C293.684 113.539 293.615 113.312 293.615 113V107.487C293.615 107.194 293.68 106.975 293.811 106.828C293.944 106.682 294.118 106.608 294.333 106.608C294.551 106.608 294.727 106.682 294.86 106.828C294.997 106.971 295.065 107.191 295.065 107.487ZM299.748 113.127V107.487C299.748 107.194 299.815 106.975 299.948 106.828C300.082 106.682 300.254 106.608 300.466 106.608C300.684 106.608 300.86 106.682 300.993 106.828C301.13 106.971 301.198 107.191 301.198 107.487V113.127C301.198 113.423 301.13 113.645 300.993 113.791C300.86 113.938 300.684 114.011 300.466 114.011C300.257 114.011 300.085 113.938 299.948 113.791C299.815 113.641 299.748 113.42 299.748 113.127ZM307.473 107.927H305.891V113.127C305.891 113.426 305.824 113.649 305.69 113.796C305.557 113.939 305.384 114.011 305.173 114.011C304.958 114.011 304.782 113.938 304.646 113.791C304.512 113.645 304.445 113.423 304.445 113.127V107.927H302.863C302.616 107.927 302.432 107.873 302.312 107.766C302.191 107.655 302.131 107.51 302.131 107.331C302.131 107.146 302.193 106.999 302.316 106.892C302.443 106.784 302.626 106.73 302.863 106.73H307.473C307.723 106.73 307.909 106.786 308.029 106.896C308.153 107.007 308.215 107.152 308.215 107.331C308.215 107.51 308.153 107.655 308.029 107.766C307.906 107.873 307.72 107.927 307.473 107.927ZM313.024 112.736H315.573C315.827 112.736 316.021 112.788 316.154 112.893C316.288 112.997 316.354 113.138 316.354 113.317C316.354 113.477 316.301 113.612 316.193 113.723C316.089 113.833 315.93 113.889 315.715 113.889H312.121C311.877 113.889 311.687 113.822 311.55 113.688C311.413 113.552 311.345 113.392 311.345 113.21C311.345 113.093 311.389 112.938 311.477 112.746C311.564 112.551 311.66 112.398 311.765 112.287C312.198 111.838 312.588 111.454 312.937 111.135C313.285 110.812 313.534 110.601 313.684 110.5C313.951 110.311 314.172 110.122 314.348 109.934C314.527 109.742 314.662 109.546 314.753 109.348C314.847 109.146 314.895 108.949 314.895 108.757C314.895 108.549 314.844 108.363 314.743 108.2C314.646 108.034 314.51 107.906 314.338 107.814C314.169 107.723 313.983 107.678 313.781 107.678C313.355 107.678 313.02 107.865 312.775 108.239C312.743 108.288 312.688 108.422 312.609 108.64C312.535 108.858 312.448 109.025 312.351 109.143C312.256 109.26 312.116 109.318 311.931 109.318C311.768 109.318 311.633 109.265 311.525 109.157C311.418 109.05 311.364 108.903 311.364 108.718C311.364 108.493 311.415 108.259 311.516 108.015C311.617 107.771 311.766 107.549 311.965 107.351C312.167 107.152 312.421 106.993 312.727 106.872C313.036 106.748 313.397 106.687 313.811 106.687C314.309 106.687 314.733 106.765 315.085 106.921C315.313 107.025 315.513 107.168 315.686 107.351C315.858 107.533 315.992 107.744 316.086 107.985C316.184 108.223 316.232 108.47 316.232 108.728C316.232 109.131 316.132 109.499 315.93 109.831C315.731 110.16 315.528 110.419 315.319 110.607C315.111 110.793 314.761 111.086 314.27 111.486C313.781 111.887 313.446 112.198 313.264 112.419C313.186 112.507 313.106 112.613 313.024 112.736Z" fill="#7195A3"/>
<path d="M198.637 267.341H195.94C191.636 267.341 188.148 263.854 188.148 259.551V228.614C188.148 224.311 191.636 220.824 195.94 220.824H311.325C315.629 220.824 319.117 224.311 319.117 228.614V259.551C319.117 263.854 315.629 267.341 311.325 267.341H224.15L219.871 267.494C218.734 267.533 217.658 268.032 216.896 268.876L211.481 274.859C210.672 275.753 209.24 275.671 208.538 274.688L204.398 268.893C203.796 268.049 202.837 267.529 201.801 267.483L198.637 267.341Z" fill="#C1C1C1" stroke="#C1C1C1" stroke-miterlimit="10"/>
<path d="M197.832 266.219H195.135C190.832 266.219 187.344 262.732 187.344 258.43V227.493C187.344 223.19 190.832 219.703 195.135 219.703H310.521C314.825 219.703 318.312 223.19 318.312 227.493V258.43C318.312 262.732 314.825 266.219 310.521 266.219H223.345L219.066 266.373C217.93 266.412 216.854 266.91 216.091 267.755L210.676 273.738C209.867 274.632 208.435 274.55 207.733 273.567L203.593 267.772C202.991 266.928 202.033 266.408 200.996 266.362L197.832 266.219Z" fill="#F6F5D8"/>
<path d="M227.398 250.511V250.504" stroke="black" stroke-miterlimit="10"/>
<path d="M216.528 238.547H216.523" stroke="black" stroke-miterlimit="10"/>
<path d="M249.033 234.332C249.033 234.765 248.921 235.154 248.696 235.499C248.475 235.844 248.149 236.114 247.72 236.31C247.29 236.505 246.781 236.603 246.191 236.603C245.485 236.603 244.902 236.469 244.443 236.202C244.118 236.01 243.853 235.755 243.647 235.436C243.446 235.113 243.345 234.801 243.345 234.498C243.345 234.322 243.405 234.173 243.525 234.049C243.649 233.922 243.805 233.858 243.994 233.858C244.147 233.858 244.276 233.907 244.38 234.005C244.487 234.103 244.578 234.247 244.653 234.439C244.744 234.667 244.842 234.858 244.946 235.011C245.054 235.164 245.203 235.291 245.396 235.392C245.588 235.489 245.84 235.538 246.152 235.538C246.582 235.538 246.93 235.439 247.197 235.24C247.467 235.038 247.603 234.788 247.603 234.488C247.603 234.251 247.529 234.059 247.383 233.912C247.24 233.762 247.052 233.648 246.821 233.57C246.593 233.492 246.287 233.409 245.903 233.321C245.389 233.201 244.958 233.061 244.609 232.901C244.264 232.739 243.989 232.519 243.784 232.242C243.582 231.962 243.481 231.616 243.481 231.202C243.481 230.808 243.589 230.458 243.804 230.152C244.019 229.846 244.329 229.612 244.736 229.449C245.143 229.283 245.622 229.2 246.172 229.2C246.611 229.2 246.991 229.256 247.31 229.366C247.632 229.474 247.899 229.618 248.11 229.801C248.322 229.98 248.477 230.169 248.574 230.367C248.672 230.566 248.721 230.759 248.721 230.948C248.721 231.121 248.659 231.277 248.535 231.417C248.415 231.554 248.263 231.622 248.081 231.622C247.915 231.622 247.788 231.581 247.7 231.5C247.616 231.415 247.523 231.279 247.422 231.09C247.292 230.82 247.135 230.61 246.953 230.46C246.771 230.307 246.478 230.23 246.074 230.23C245.7 230.23 245.397 230.313 245.166 230.479C244.938 230.642 244.824 230.839 244.824 231.07C244.824 231.214 244.863 231.337 244.941 231.441C245.02 231.546 245.127 231.635 245.264 231.71C245.4 231.785 245.539 231.843 245.679 231.886C245.819 231.928 246.05 231.99 246.372 232.071C246.776 232.166 247.14 232.27 247.466 232.384C247.795 232.498 248.073 232.636 248.301 232.799C248.532 232.962 248.711 233.168 248.838 233.419C248.968 233.666 249.033 233.971 249.033 234.332ZM253.042 233.692H251.714V235.719C251.714 236.008 251.646 236.228 251.509 236.378C251.372 236.528 251.2 236.603 250.991 236.603C250.773 236.603 250.597 236.529 250.464 236.383C250.33 236.233 250.264 236.015 250.264 235.729V230.211C250.264 229.892 250.337 229.664 250.483 229.527C250.63 229.391 250.863 229.322 251.182 229.322H253.042C253.592 229.322 254.015 229.365 254.312 229.449C254.604 229.531 254.857 229.666 255.068 229.854C255.283 230.043 255.446 230.274 255.557 230.548C255.667 230.821 255.723 231.129 255.723 231.471C255.723 232.2 255.498 232.753 255.049 233.131C254.6 233.505 253.931 233.692 253.042 233.692ZM252.69 230.411H251.714V232.599H252.69C253.032 232.599 253.317 232.563 253.545 232.491C253.776 232.42 253.952 232.302 254.072 232.14C254.193 231.977 254.253 231.764 254.253 231.5C254.253 231.184 254.16 230.927 253.975 230.729C253.766 230.517 253.338 230.411 252.69 230.411ZM258.354 230.079V235.289H261.294C261.528 235.289 261.707 235.346 261.831 235.46C261.958 235.574 262.021 235.717 262.021 235.89C262.021 236.065 261.96 236.209 261.836 236.319C261.712 236.427 261.532 236.48 261.294 236.48H257.793C257.477 236.48 257.249 236.41 257.109 236.271C256.973 236.131 256.904 235.904 256.904 235.592V230.079C256.904 229.786 256.969 229.566 257.1 229.42C257.233 229.273 257.407 229.2 257.622 229.2C257.84 229.2 258.016 229.273 258.149 229.42C258.286 229.563 258.354 229.783 258.354 230.079ZM263.037 235.719V230.079C263.037 229.786 263.104 229.566 263.237 229.42C263.371 229.273 263.543 229.2 263.755 229.2C263.973 229.2 264.149 229.273 264.282 229.42C264.419 229.563 264.487 229.783 264.487 230.079V235.719C264.487 236.015 264.419 236.236 264.282 236.383C264.149 236.529 263.973 236.603 263.755 236.603C263.547 236.603 263.374 236.529 263.237 236.383C263.104 236.233 263.037 236.012 263.037 235.719ZM270.762 230.519H269.18V235.719C269.18 236.018 269.113 236.241 268.979 236.388C268.846 236.531 268.674 236.603 268.462 236.603C268.247 236.603 268.071 236.529 267.935 236.383C267.801 236.236 267.734 236.015 267.734 235.719V230.519H266.152C265.905 230.519 265.721 230.465 265.601 230.357C265.48 230.247 265.42 230.102 265.42 229.923C265.42 229.737 265.482 229.591 265.605 229.483C265.732 229.376 265.915 229.322 266.152 229.322H270.762C271.012 229.322 271.198 229.378 271.318 229.488C271.442 229.599 271.504 229.744 271.504 229.923C271.504 230.102 271.442 230.247 271.318 230.357C271.195 230.465 271.009 230.519 270.762 230.519ZM276.821 232.159C277.121 232.159 277.378 232.071 277.593 231.896C277.811 231.72 277.92 231.467 277.92 231.139C277.92 230.888 277.834 230.673 277.661 230.494C277.489 230.312 277.256 230.221 276.963 230.221C276.764 230.221 276.6 230.248 276.47 230.304C276.343 230.359 276.242 230.432 276.167 230.523C276.092 230.615 276.021 230.732 275.952 230.875C275.887 231.018 275.827 231.153 275.771 231.28C275.739 231.349 275.68 231.402 275.596 231.441C275.511 231.48 275.413 231.5 275.303 231.5C275.173 231.5 275.052 231.448 274.941 231.344C274.834 231.236 274.78 231.095 274.78 230.919C274.78 230.75 274.831 230.572 274.932 230.387C275.036 230.198 275.186 230.019 275.381 229.85C275.579 229.68 275.825 229.545 276.118 229.444C276.411 229.34 276.738 229.288 277.1 229.288C277.415 229.288 277.703 229.332 277.964 229.42C278.224 229.505 278.451 229.628 278.643 229.791C278.835 229.954 278.979 230.143 279.077 230.357C279.175 230.572 279.224 230.803 279.224 231.051C279.224 231.376 279.152 231.656 279.009 231.891C278.869 232.122 278.667 232.348 278.403 232.569C278.657 232.706 278.87 232.862 279.043 233.038C279.219 233.214 279.351 233.409 279.438 233.624C279.526 233.836 279.57 234.065 279.57 234.312C279.57 234.609 279.51 234.895 279.39 235.172C279.272 235.449 279.098 235.696 278.867 235.914C278.636 236.129 278.361 236.298 278.042 236.422C277.726 236.542 277.376 236.603 276.992 236.603C276.602 236.603 276.252 236.533 275.942 236.393C275.633 236.253 275.378 236.078 275.176 235.87C274.977 235.659 274.826 235.44 274.722 235.216C274.621 234.991 274.57 234.806 274.57 234.659C274.57 234.47 274.631 234.319 274.751 234.205C274.875 234.088 275.028 234.029 275.21 234.029C275.301 234.029 275.389 234.057 275.474 234.112C275.558 234.164 275.614 234.228 275.64 234.303C275.809 234.755 275.99 235.092 276.182 235.313C276.377 235.532 276.65 235.641 277.002 235.641C277.204 235.641 277.397 235.592 277.583 235.494C277.772 235.393 277.926 235.245 278.047 235.05C278.171 234.854 278.232 234.628 278.232 234.371C278.232 233.99 278.128 233.692 277.92 233.478C277.712 233.259 277.422 233.15 277.051 233.15C276.986 233.15 276.885 233.157 276.748 233.17C276.611 233.183 276.523 233.189 276.484 233.189C276.305 233.189 276.167 233.146 276.069 233.058C275.972 232.966 275.923 232.841 275.923 232.682C275.923 232.525 275.981 232.4 276.099 232.306C276.216 232.208 276.39 232.159 276.621 232.159H276.821Z" fill="#7195A3"/>
<path d="M242.789 253.073V253.068" stroke="black" stroke-miterlimit="10"/>
<path d="M231.921 241.111H231.918H231.914" stroke="black" stroke-miterlimit="10"/>
<path d="M287.468 242H244.532C243.686 242 243 242.672 243 243.5C243 244.328 243.686 245 244.532 245H287.468C288.314 245 289 244.328 289 243.5C289 242.672 288.314 242 287.468 242Z" fill="#E1E1E1"/>
<path d="M257.487 246H244.513C243.677 246 243 246.448 243 247C243 247.552 243.677 248 244.513 248H257.487C258.323 248 259 247.552 259 247C259 246.448 258.323 246 257.487 246Z" fill="#CDCDCD"/>
<path d="M290.449 251H247.551C245.038 251 243 252.567 243 254.5C243 256.433 245.038 258 247.551 258H290.449C292.962 258 295 256.433 295 254.5C295 252.567 292.962 251 290.449 251Z" fill="#D7D7D7"/>
<path d="M226.434 252.596C226.434 252.782 226.43 252.963 226.42 253.141C223.648 258.267 218.233 261.746 212.001 261.746C206.137 261.746 200.993 258.666 198.103 254.035C198.036 253.558 198 253.084 198 252.593C198 246.955 202.806 242.246 209.23 241.113C210.16 241.904 211.253 242.36 212.429 242.36C213.605 242.36 214.638 241.929 215.55 241.181C221.792 242.417 226.43 247.054 226.43 252.589L226.434 252.596Z" fill="#4E57E7" stroke="black" stroke-width="0.5" stroke-miterlimit="10"/>
<path d="M218.462 234.185C218.462 237.152 217.297 239.752 215.555 241.187C214.643 241.935 213.578 242.366 212.434 242.366C211.291 242.366 210.161 241.91 209.235 241.12C207.536 239.674 206.406 237.109 206.406 234.185C206.406 232.514 206.773 230.962 207.407 229.669C208.487 227.457 210.336 226 212.438 226C214.643 226 216.571 227.603 217.622 230C218.16 231.222 218.47 232.653 218.47 234.181L218.462 234.185Z" fill="#4E57E7" stroke="black" stroke-width="0.5" stroke-miterlimit="10"/>
</g>
<defs>
<filter id="filter0_d_3257_4456" x="0" y="64" width="398" height="503" filterUnits="userSpaceOnUse" color-interpolation-filters="sRGB">
<feFlood flood-opacity="0" result="BackgroundImageFix"/>
<feColorMatrix in="SourceAlpha" type="matrix" values="0 0 0 0 0 0 0 0 0 0 0 0 0 0 0 0 0 0 127 0" result="hardAlpha"/>
<feOffset dx="4" dy="4"/>
<feComposite in2="hardAlpha" operator="out"/>
<feColorMatrix type="matrix" values="0 0 0 0 0.157344 0 0 0 0 0.281833 0 0 0 0 0.7125 0 0 0 1 0"/>
<feBlend mode="normal" in2="BackgroundImageFix" result="effect1_dropShadow_3257_4456"/>
<feBlend mode="normal" in="SourceGraphic" in2="effect1_dropShadow_3257_4456" result="shape"/>
</filter>
<filter id="filter1_d_3257_4456" x="34" y="70" width="306" height="306" filterUnits="userSpaceOnUse" color-interpolation-filters="sRGB">
<feFlood flood-opacity="0" result="BackgroundImageFix"/>
<feColorMatrix in="SourceAlpha" type="matrix" values="0 0 0 0 0 0 0 0 0 0 0 0 0 0 0 0 0 0 127 0" result="hardAlpha"/>
<feOffset dx="4" dy="4"/>
<feComposite in2="hardAlpha" operator="out"/>
<feColorMatrix type="matrix" values="0 0 0 0 0.0470588 0 0 0 0 0.0862745 0 0 0 0 0.247059 0 0 0 1 0"/>
<feBlend mode="normal" in2="BackgroundImageFix" result="effect1_dropShadow_3257_4456"/>
<feBlend mode="normal" in="SourceGraphic" in2="effect1_dropShadow_3257_4456" result="shape"/>
</filter>
<clipPath id="clip0_3257_4456">
<rect width="248" height="298" fill="white" transform="translate(108)"/>
</clipPath>
</defs>
</svg>
