<svg width="154" height="182" viewBox="0 0 154 182" fill="none" xmlns="http://www.w3.org/2000/svg">
<g filter="url(#filter0_d_3354_5009)">
<rect width="151" height="179" rx="6" fill="#17171D"/>
<rect x="0.5" y="0.5" width="150" height="178" rx="5.5" stroke="#F6F5D8" stroke-opacity="0.46"/>
</g>
<path d="M38.9082 126.535V126.939C38.9082 127.588 38.8203 128.17 38.6445 128.686C38.4688 129.201 38.2207 129.641 37.9004 130.004C37.5801 130.363 37.1973 130.639 36.752 130.83C36.3105 131.021 35.8203 131.117 35.2812 131.117C34.7461 131.117 34.2559 131.021 33.8105 130.83C33.3691 130.639 32.9863 130.363 32.6621 130.004C32.3379 129.641 32.0859 129.201 31.9062 128.686C31.7305 128.17 31.6426 127.588 31.6426 126.939V126.535C31.6426 125.883 31.7305 125.301 31.9062 124.789C32.082 124.273 32.3301 123.834 32.6504 123.471C32.9746 123.107 33.3574 122.83 33.7988 122.639C34.2441 122.447 34.7344 122.352 35.2695 122.352C35.8086 122.352 36.2988 122.447 36.7402 122.639C37.1855 122.83 37.5684 123.107 37.8887 123.471C38.2129 123.834 38.4629 124.273 38.6387 124.789C38.8184 125.301 38.9082 125.883 38.9082 126.535ZM37.1328 126.939V126.523C37.1328 126.07 37.0918 125.672 37.0098 125.328C36.9277 124.984 36.8066 124.695 36.6465 124.461C36.4863 124.227 36.291 124.051 36.0605 123.934C35.8301 123.812 35.5664 123.752 35.2695 123.752C34.9727 123.752 34.709 123.812 34.4785 123.934C34.252 124.051 34.0586 124.227 33.8984 124.461C33.7422 124.695 33.623 124.984 33.541 125.328C33.459 125.672 33.418 126.07 33.418 126.523V126.939C33.418 127.389 33.459 127.787 33.541 128.135C33.623 128.479 33.7441 128.77 33.9043 129.008C34.0645 129.242 34.2598 129.42 34.4902 129.541C34.7207 129.662 34.9844 129.723 35.2812 129.723C35.5781 129.723 35.8418 129.662 36.0723 129.541C36.3027 129.42 36.4961 129.242 36.6523 129.008C36.8086 128.77 36.9277 128.479 37.0098 128.135C37.0918 127.787 37.1328 127.389 37.1328 126.939ZM41.7207 126.014V131H40.0332V124.66H41.6152L41.7207 126.014ZM41.4746 127.607H41.0176C41.0176 127.139 41.0781 126.717 41.1992 126.342C41.3203 125.963 41.4902 125.641 41.709 125.375C41.9277 125.105 42.1875 124.9 42.4883 124.76C42.793 124.615 43.1328 124.543 43.5078 124.543C43.8047 124.543 44.0762 124.586 44.3223 124.672C44.5684 124.758 44.7793 124.895 44.9551 125.082C45.1348 125.27 45.2715 125.518 45.3652 125.826C45.4629 126.135 45.5117 126.512 45.5117 126.957V131H43.8125V126.951C43.8125 126.67 43.7734 126.451 43.6953 126.295C43.6172 126.139 43.502 126.029 43.3496 125.967C43.2012 125.9 43.0176 125.867 42.7988 125.867C42.5723 125.867 42.375 125.912 42.207 126.002C42.043 126.092 41.9062 126.217 41.7969 126.377C41.6914 126.533 41.6113 126.717 41.5566 126.928C41.502 127.139 41.4746 127.365 41.4746 127.607ZM49.7129 131.117C49.2207 131.117 48.7793 131.039 48.3887 130.883C47.998 130.723 47.666 130.502 47.3926 130.221C47.123 129.939 46.916 129.613 46.7715 129.242C46.627 128.867 46.5547 128.469 46.5547 128.047V127.812C46.5547 127.332 46.623 126.893 46.7598 126.494C46.8965 126.096 47.0918 125.75 47.3457 125.457C47.6035 125.164 47.916 124.939 48.2832 124.783C48.6504 124.623 49.0645 124.543 49.5254 124.543C49.9746 124.543 50.373 124.617 50.7207 124.766C51.0684 124.914 51.3594 125.125 51.5938 125.398C51.832 125.672 52.0117 126 52.1328 126.383C52.2539 126.762 52.3145 127.184 52.3145 127.648V128.352H47.2754V127.227H50.6562V127.098C50.6562 126.863 50.6133 126.654 50.5273 126.471C50.4453 126.283 50.3203 126.135 50.1523 126.025C49.9844 125.916 49.7695 125.861 49.5078 125.861C49.2852 125.861 49.0938 125.91 48.9336 126.008C48.7734 126.105 48.6426 126.242 48.541 126.418C48.4434 126.594 48.3691 126.801 48.3184 127.039C48.2715 127.273 48.248 127.531 48.248 127.812V128.047C48.248 128.301 48.2832 128.535 48.3535 128.75C48.4277 128.965 48.5312 129.15 48.6641 129.307C48.8008 129.463 48.9648 129.584 49.1562 129.67C49.3516 129.756 49.5723 129.799 49.8184 129.799C50.123 129.799 50.4062 129.74 50.668 129.623C50.9336 129.502 51.1621 129.32 51.3535 129.078L52.1738 129.969C52.041 130.16 51.8594 130.344 51.6289 130.52C51.4023 130.695 51.1289 130.84 50.8086 130.953C50.4883 131.062 50.123 131.117 49.7129 131.117ZM56.6035 126.676V128H53.293V126.676H56.6035ZM63.0605 128.17H64.8125C64.7773 128.744 64.6191 129.254 64.3379 129.699C64.0605 130.145 63.6719 130.492 63.1719 130.742C62.6758 130.992 62.0781 131.117 61.3789 131.117C60.832 131.117 60.3418 131.023 59.9082 130.836C59.4746 130.645 59.1035 130.371 58.7949 130.016C58.4902 129.66 58.2578 129.23 58.0977 128.727C57.9375 128.223 57.8574 127.658 57.8574 127.033V126.441C57.8574 125.816 57.9395 125.252 58.1035 124.748C58.2715 124.24 58.5098 123.809 58.8184 123.453C59.1309 123.098 59.5039 122.824 59.9375 122.633C60.3711 122.441 60.8555 122.346 61.3906 122.346C62.1016 122.346 62.7012 122.475 63.1895 122.732C63.6816 122.99 64.0625 123.346 64.332 123.799C64.6055 124.252 64.7695 124.768 64.8242 125.346H63.0664C63.0469 125.002 62.9785 124.711 62.8613 124.473C62.7441 124.23 62.5664 124.049 62.3281 123.928C62.0938 123.803 61.7812 123.74 61.3906 123.74C61.0977 123.74 60.8418 123.795 60.623 123.904C60.4043 124.014 60.2207 124.18 60.0723 124.402C59.9238 124.625 59.8125 124.906 59.7383 125.246C59.668 125.582 59.6328 125.977 59.6328 126.43V127.033C59.6328 127.475 59.666 127.863 59.7324 128.199C59.7988 128.531 59.9004 128.812 60.0371 129.043C60.1777 129.27 60.3574 129.441 60.5762 129.559C60.7988 129.672 61.0664 129.729 61.3789 129.729C61.7461 129.729 62.0488 129.67 62.2871 129.553C62.5254 129.436 62.707 129.262 62.832 129.031C62.9609 128.801 63.0371 128.514 63.0605 128.17ZM67.6426 122V131H65.9492V122H67.6426ZM70.8184 124.66V131H69.125V124.66H70.8184ZM69.0195 123.008C69.0195 122.762 69.1055 122.559 69.2773 122.398C69.4492 122.238 69.6797 122.158 69.9688 122.158C70.2539 122.158 70.4824 122.238 70.6543 122.398C70.8301 122.559 70.918 122.762 70.918 123.008C70.918 123.254 70.8301 123.457 70.6543 123.617C70.4824 123.777 70.2539 123.857 69.9688 123.857C69.6797 123.857 69.4492 123.777 69.2773 123.617C69.1055 123.457 69.0195 123.254 69.0195 123.008ZM74.832 129.799C75.0391 129.799 75.2227 129.76 75.3828 129.682C75.543 129.6 75.668 129.486 75.7578 129.342C75.8516 129.193 75.9004 129.02 75.9043 128.82H77.4922C77.4883 129.266 77.3691 129.662 77.1348 130.01C76.9004 130.354 76.5859 130.625 76.1914 130.824C75.7969 131.02 75.3555 131.117 74.8672 131.117C74.375 131.117 73.9453 131.035 73.5781 130.871C73.2148 130.707 72.9121 130.48 72.6699 130.191C72.4277 129.898 72.2461 129.559 72.125 129.172C72.0039 128.781 71.9434 128.363 71.9434 127.918V127.748C71.9434 127.299 72.0039 126.881 72.125 126.494C72.2461 126.104 72.4277 125.764 72.6699 125.475C72.9121 125.182 73.2148 124.953 73.5781 124.789C73.9414 124.625 74.3672 124.543 74.8555 124.543C75.375 124.543 75.8301 124.643 76.2207 124.842C76.6152 125.041 76.9238 125.326 77.1465 125.697C77.373 126.064 77.4883 126.5 77.4922 127.004H75.9043C75.9004 126.793 75.8555 126.602 75.7695 126.43C75.6875 126.258 75.5664 126.121 75.4062 126.02C75.25 125.914 75.0566 125.861 74.8262 125.861C74.5801 125.861 74.3789 125.914 74.2227 126.02C74.0664 126.121 73.9453 126.262 73.8594 126.441C73.7734 126.617 73.7129 126.818 73.6777 127.045C73.6465 127.268 73.6309 127.502 73.6309 127.748V127.918C73.6309 128.164 73.6465 128.4 73.6777 128.627C73.709 128.854 73.7676 129.055 73.8535 129.23C73.9434 129.406 74.0664 129.545 74.2227 129.646C74.3789 129.748 74.582 129.799 74.832 129.799ZM80.1582 121.994V131H78.4707V121.994H80.1582ZM84.1543 124.66L81.4004 127.801L79.9238 129.295L79.3086 128.076L80.4805 126.588L82.127 124.66H84.1543ZM82.4023 131L80.5273 128.07L81.6934 127.051L84.3477 131H82.4023Z" fill="#FFA71B"/>
<path d="M94.7363 126.541V129.922C94.6035 130.082 94.3984 130.256 94.1211 130.443C93.8438 130.627 93.4863 130.785 93.0488 130.918C92.6113 131.051 92.082 131.117 91.4609 131.117C90.9102 131.117 90.4082 131.027 89.9551 130.848C89.502 130.664 89.1113 130.396 88.7832 130.045C88.459 129.693 88.209 129.264 88.0332 128.756C87.8574 128.244 87.7695 127.66 87.7695 127.004V126.471C87.7695 125.814 87.8535 125.23 88.0215 124.719C88.1934 124.207 88.4375 123.775 88.7539 123.424C89.0703 123.072 89.4473 122.805 89.8848 122.621C90.3223 122.438 90.8086 122.346 91.3438 122.346C92.0859 122.346 92.6953 122.467 93.1719 122.709C93.6484 122.947 94.0117 123.279 94.2617 123.705C94.5156 124.127 94.6719 124.611 94.7305 125.158H93.0254C92.9824 124.869 92.9004 124.617 92.7793 124.402C92.6582 124.188 92.4844 124.02 92.2578 123.898C92.0352 123.777 91.7461 123.717 91.3906 123.717C91.0977 123.717 90.8359 123.777 90.6055 123.898C90.3789 124.016 90.1875 124.189 90.0312 124.42C89.875 124.65 89.7559 124.936 89.6738 125.275C89.5918 125.615 89.5508 126.01 89.5508 126.459V127.004C89.5508 127.449 89.5938 127.844 89.6797 128.188C89.7656 128.527 89.8926 128.814 90.0605 129.049C90.2324 129.279 90.4434 129.453 90.6934 129.57C90.9434 129.688 91.2344 129.746 91.5664 129.746C91.8438 129.746 92.0742 129.723 92.2578 129.676C92.4453 129.629 92.5957 129.572 92.709 129.506C92.8262 129.436 92.916 129.369 92.9785 129.307V127.795H91.373V126.541H94.7363ZM97.7363 126.043V131H96.0488V124.66H97.6367L97.7363 126.043ZM99.6465 124.619L99.6172 126.184C99.5352 126.172 99.4355 126.162 99.3184 126.154C99.2051 126.143 99.1016 126.137 99.0078 126.137C98.7695 126.137 98.5625 126.168 98.3867 126.23C98.2148 126.289 98.0703 126.377 97.9531 126.494C97.8398 126.611 97.7539 126.754 97.6953 126.922C97.6406 127.09 97.6094 127.281 97.6016 127.496L97.2617 127.391C97.2617 126.98 97.3027 126.604 97.3848 126.26C97.4668 125.912 97.5859 125.609 97.7422 125.352C97.9023 125.094 98.0977 124.895 98.3281 124.754C98.5586 124.613 98.8223 124.543 99.1191 124.543C99.2129 124.543 99.3086 124.551 99.4062 124.566C99.5039 124.578 99.584 124.596 99.6465 124.619ZM99.998 127.895V127.771C99.998 127.307 100.064 126.879 100.197 126.488C100.33 126.094 100.523 125.752 100.777 125.463C101.031 125.174 101.344 124.949 101.715 124.789C102.086 124.625 102.512 124.543 102.992 124.543C103.473 124.543 103.9 124.625 104.275 124.789C104.65 124.949 104.965 125.174 105.219 125.463C105.477 125.752 105.672 126.094 105.805 126.488C105.938 126.879 106.004 127.307 106.004 127.771V127.895C106.004 128.355 105.938 128.783 105.805 129.178C105.672 129.568 105.477 129.91 105.219 130.203C104.965 130.492 104.652 130.717 104.281 130.877C103.91 131.037 103.484 131.117 103.004 131.117C102.523 131.117 102.096 131.037 101.721 130.877C101.35 130.717 101.035 130.492 100.777 130.203C100.523 129.91 100.33 129.568 100.197 129.178C100.064 128.783 99.998 128.355 99.998 127.895ZM101.686 127.771V127.895C101.686 128.16 101.709 128.408 101.756 128.639C101.803 128.869 101.877 129.072 101.979 129.248C102.084 129.42 102.221 129.555 102.389 129.652C102.557 129.75 102.762 129.799 103.004 129.799C103.238 129.799 103.439 129.75 103.607 129.652C103.775 129.555 103.91 129.42 104.012 129.248C104.113 129.072 104.188 128.869 104.234 128.639C104.285 128.408 104.311 128.16 104.311 127.895V127.771C104.311 127.514 104.285 127.271 104.234 127.045C104.188 126.814 104.111 126.611 104.006 126.436C103.904 126.256 103.77 126.115 103.602 126.014C103.434 125.912 103.23 125.861 102.992 125.861C102.754 125.861 102.551 125.912 102.383 126.014C102.219 126.115 102.084 126.256 101.979 126.436C101.877 126.611 101.803 126.814 101.756 127.045C101.709 127.271 101.686 127.514 101.686 127.771ZM110.791 129.482V124.66H112.479V131H110.891L110.791 129.482ZM110.979 128.182L111.477 128.17C111.477 128.592 111.428 128.984 111.33 129.348C111.232 129.707 111.086 130.02 110.891 130.285C110.695 130.547 110.449 130.752 110.152 130.9C109.855 131.045 109.506 131.117 109.104 131.117C108.795 131.117 108.51 131.074 108.248 130.988C107.99 130.898 107.768 130.76 107.58 130.572C107.396 130.381 107.252 130.137 107.146 129.84C107.045 129.539 106.994 129.178 106.994 128.756V124.66H108.682V128.768C108.682 128.955 108.703 129.113 108.746 129.242C108.793 129.371 108.857 129.477 108.939 129.559C109.021 129.641 109.117 129.699 109.227 129.734C109.34 129.77 109.465 129.787 109.602 129.787C109.949 129.787 110.223 129.717 110.422 129.576C110.625 129.436 110.768 129.244 110.85 129.002C110.936 128.756 110.979 128.482 110.979 128.182ZM115.455 125.879V133.438H113.768V124.66H115.332L115.455 125.879ZM119.469 127.76V127.883C119.469 128.344 119.414 128.771 119.305 129.166C119.199 129.561 119.043 129.904 118.836 130.197C118.629 130.486 118.371 130.713 118.062 130.877C117.758 131.037 117.406 131.117 117.008 131.117C116.621 131.117 116.285 131.039 116 130.883C115.715 130.727 115.475 130.508 115.279 130.227C115.088 129.941 114.934 129.611 114.816 129.236C114.699 128.861 114.609 128.459 114.547 128.029V127.707C114.609 127.246 114.699 126.824 114.816 126.441C114.934 126.055 115.088 125.721 115.279 125.439C115.475 125.154 115.713 124.934 115.994 124.777C116.279 124.621 116.613 124.543 116.996 124.543C117.398 124.543 117.752 124.619 118.057 124.771C118.365 124.924 118.623 125.143 118.83 125.428C119.041 125.713 119.199 126.053 119.305 126.447C119.414 126.842 119.469 127.279 119.469 127.76ZM117.775 127.883V127.76C117.775 127.49 117.752 127.242 117.705 127.016C117.662 126.785 117.592 126.584 117.494 126.412C117.4 126.24 117.275 126.107 117.119 126.014C116.967 125.916 116.781 125.867 116.562 125.867C116.332 125.867 116.135 125.904 115.971 125.979C115.811 126.053 115.68 126.16 115.578 126.301C115.477 126.441 115.4 126.609 115.35 126.805C115.299 127 115.268 127.221 115.256 127.467V128.281C115.275 128.57 115.33 128.83 115.42 129.061C115.51 129.287 115.648 129.467 115.836 129.6C116.023 129.732 116.27 129.799 116.574 129.799C116.797 129.799 116.984 129.75 117.137 129.652C117.289 129.551 117.412 129.412 117.506 129.236C117.604 129.061 117.672 128.857 117.711 128.627C117.754 128.396 117.775 128.148 117.775 127.883ZM27.5234 141.959H25.3496V140.588H27.5234C27.8594 140.588 28.1328 140.533 28.3438 140.424C28.5547 140.311 28.709 140.154 28.8066 139.955C28.9043 139.756 28.9531 139.531 28.9531 139.281C28.9531 139.027 28.9043 138.791 28.8066 138.572C28.709 138.354 28.5547 138.178 28.3438 138.045C28.1328 137.912 27.8594 137.846 27.5234 137.846H25.959V145H24.2012V136.469H27.5234C28.1914 136.469 28.7637 136.59 29.2402 136.832C29.7207 137.07 30.0879 137.4 30.3418 137.822C30.5957 138.244 30.7227 138.727 30.7227 139.27C30.7227 139.82 30.5957 140.297 30.3418 140.699C30.0879 141.102 29.7207 141.412 29.2402 141.631C28.7637 141.85 28.1914 141.959 27.5234 141.959ZM35.1816 143.57V140.746C35.1816 140.543 35.1484 140.369 35.082 140.225C35.0156 140.076 34.9121 139.961 34.7715 139.879C34.6348 139.797 34.457 139.756 34.2383 139.756C34.0508 139.756 33.8887 139.789 33.752 139.855C33.6152 139.918 33.5098 140.01 33.4355 140.131C33.3613 140.248 33.3242 140.387 33.3242 140.547H31.6367C31.6367 140.277 31.6992 140.021 31.8242 139.779C31.9492 139.537 32.1309 139.324 32.3691 139.141C32.6074 138.953 32.8906 138.807 33.2188 138.701C33.5508 138.596 33.9219 138.543 34.332 138.543C34.8242 138.543 35.2617 138.625 35.6445 138.789C36.0273 138.953 36.3281 139.199 36.5469 139.527C36.7695 139.855 36.8809 140.266 36.8809 140.758V143.471C36.8809 143.818 36.9023 144.104 36.9453 144.326C36.9883 144.545 37.0508 144.736 37.1328 144.9V145H35.4277C35.3457 144.828 35.2832 144.613 35.2402 144.355C35.2012 144.094 35.1816 143.832 35.1816 143.57ZM35.4043 141.139L35.416 142.094H34.4727C34.25 142.094 34.0566 142.119 33.8926 142.17C33.7285 142.221 33.5938 142.293 33.4883 142.387C33.3828 142.477 33.3047 142.582 33.2539 142.703C33.207 142.824 33.1836 142.957 33.1836 143.102C33.1836 143.246 33.2168 143.377 33.2832 143.494C33.3496 143.607 33.4453 143.697 33.5703 143.764C33.6953 143.826 33.8418 143.857 34.0098 143.857C34.2637 143.857 34.4844 143.807 34.6719 143.705C34.8594 143.604 35.0039 143.479 35.1055 143.33C35.2109 143.182 35.2656 143.041 35.2695 142.908L35.7148 143.623C35.6523 143.783 35.5664 143.949 35.457 144.121C35.3516 144.293 35.2168 144.455 35.0527 144.607C34.8887 144.756 34.6914 144.879 34.4609 144.977C34.2305 145.07 33.957 145.117 33.6406 145.117C33.2383 145.117 32.873 145.037 32.5449 144.877C32.2207 144.713 31.9629 144.488 31.7715 144.203C31.584 143.914 31.4902 143.586 31.4902 143.219C31.4902 142.887 31.5527 142.592 31.6777 142.334C31.8027 142.076 31.9863 141.859 32.2285 141.684C32.4746 141.504 32.7812 141.369 33.1484 141.279C33.5156 141.186 33.9414 141.139 34.4258 141.139H35.4043ZM39.9688 144.285L41.6504 138.66H43.4609L40.9121 145.955C40.8574 146.115 40.7832 146.287 40.6895 146.471C40.5996 146.654 40.4766 146.828 40.3203 146.992C40.168 147.16 39.9746 147.297 39.7402 147.402C39.5098 147.508 39.2266 147.561 38.8906 147.561C38.7305 147.561 38.5996 147.551 38.498 147.531C38.3965 147.512 38.2754 147.484 38.1348 147.449V146.213C38.1777 146.213 38.2227 146.213 38.2695 146.213C38.3164 146.217 38.3613 146.219 38.4043 146.219C38.627 146.219 38.8086 146.193 38.9492 146.143C39.0898 146.092 39.2031 146.014 39.2891 145.908C39.375 145.807 39.4434 145.674 39.4941 145.51L39.9688 144.285ZM39.2656 138.66L40.6426 143.254L40.8828 145.041L39.7344 145.164L37.4551 138.66H39.2656ZM45.8223 139.973V145H44.1289V138.66H45.7168L45.8223 139.973ZM45.5879 141.607H45.1191C45.1191 141.166 45.1719 140.76 45.2773 140.389C45.3867 140.014 45.5449 139.689 45.752 139.416C45.9629 139.139 46.2227 138.924 46.5312 138.771C46.8398 138.619 47.1973 138.543 47.6035 138.543C47.8848 138.543 48.1426 138.586 48.377 138.672C48.6113 138.754 48.8125 138.885 48.9805 139.064C49.1523 139.24 49.2852 139.471 49.3789 139.756C49.4727 140.037 49.5195 140.375 49.5195 140.77V145H47.832V140.957C47.832 140.668 47.793 140.445 47.7148 140.289C47.6367 140.133 47.5254 140.023 47.3809 139.961C47.2402 139.898 47.0703 139.867 46.8711 139.867C46.6523 139.867 46.4609 139.912 46.2969 140.002C46.1367 140.092 46.0039 140.217 45.8984 140.377C45.793 140.533 45.7148 140.717 45.6641 140.928C45.6133 141.139 45.5879 141.365 45.5879 141.607ZM49.3613 141.414L48.7578 141.49C48.7578 141.076 48.8086 140.691 48.9102 140.336C49.0156 139.98 49.1699 139.668 49.373 139.398C49.5801 139.129 49.8359 138.92 50.1406 138.771C50.4453 138.619 50.7969 138.543 51.1953 138.543C51.5 138.543 51.7773 138.588 52.0273 138.678C52.2773 138.764 52.4902 138.902 52.666 139.094C52.8457 139.281 52.9824 139.527 53.0762 139.832C53.1738 140.137 53.2227 140.51 53.2227 140.951V145H51.5293V140.951C51.5293 140.658 51.4902 140.436 51.4121 140.283C51.3379 140.127 51.2285 140.02 51.084 139.961C50.9434 139.898 50.7754 139.867 50.5801 139.867C50.377 139.867 50.1992 139.908 50.0469 139.99C49.8945 140.068 49.7676 140.178 49.666 140.318C49.5645 140.459 49.4883 140.623 49.4375 140.811C49.3867 140.994 49.3613 141.195 49.3613 141.414ZM57.4473 145.117C56.9551 145.117 56.5137 145.039 56.123 144.883C55.7324 144.723 55.4004 144.502 55.127 144.221C54.8574 143.939 54.6504 143.613 54.5059 143.242C54.3613 142.867 54.2891 142.469 54.2891 142.047V141.812C54.2891 141.332 54.3574 140.893 54.4941 140.494C54.6309 140.096 54.8262 139.75 55.0801 139.457C55.3379 139.164 55.6504 138.939 56.0176 138.783C56.3848 138.623 56.7988 138.543 57.2598 138.543C57.709 138.543 58.1074 138.617 58.4551 138.766C58.8027 138.914 59.0938 139.125 59.3281 139.398C59.5664 139.672 59.7461 140 59.8672 140.383C59.9883 140.762 60.0488 141.184 60.0488 141.648V142.352H55.0098V141.227H58.3906V141.098C58.3906 140.863 58.3477 140.654 58.2617 140.471C58.1797 140.283 58.0547 140.135 57.8867 140.025C57.7188 139.916 57.5039 139.861 57.2422 139.861C57.0195 139.861 56.8281 139.91 56.668 140.008C56.5078 140.105 56.377 140.242 56.2754 140.418C56.1777 140.594 56.1035 140.801 56.0527 141.039C56.0059 141.273 55.9824 141.531 55.9824 141.812V142.047C55.9824 142.301 56.0176 142.535 56.0879 142.75C56.1621 142.965 56.2656 143.15 56.3984 143.307C56.5352 143.463 56.6992 143.584 56.8906 143.67C57.0859 143.756 57.3066 143.799 57.5527 143.799C57.8574 143.799 58.1406 143.74 58.4023 143.623C58.668 143.502 58.8965 143.32 59.0879 143.078L59.9082 143.969C59.7754 144.16 59.5938 144.344 59.3633 144.52C59.1367 144.695 58.8633 144.84 58.543 144.953C58.2227 145.062 57.8574 145.117 57.4473 145.117ZM62.6621 140.014V145H60.9746V138.66H62.5566L62.6621 140.014ZM62.416 141.607H61.959C61.959 141.139 62.0195 140.717 62.1406 140.342C62.2617 139.963 62.4316 139.641 62.6504 139.375C62.8691 139.105 63.1289 138.9 63.4297 138.76C63.7344 138.615 64.0742 138.543 64.4492 138.543C64.7461 138.543 65.0176 138.586 65.2637 138.672C65.5098 138.758 65.7207 138.895 65.8965 139.082C66.0762 139.27 66.2129 139.518 66.3066 139.826C66.4043 140.135 66.4531 140.512 66.4531 140.957V145H64.7539V140.951C64.7539 140.67 64.7148 140.451 64.6367 140.295C64.5586 140.139 64.4434 140.029 64.291 139.967C64.1426 139.9 63.959 139.867 63.7402 139.867C63.5137 139.867 63.3164 139.912 63.1484 140.002C62.9844 140.092 62.8477 140.217 62.7383 140.377C62.6328 140.533 62.5527 140.717 62.498 140.928C62.4434 141.139 62.416 141.365 62.416 141.607ZM70.8418 138.66V139.855H67.1504V138.66H70.8418ZM68.0645 137.096H69.752V143.09C69.752 143.273 69.7754 143.414 69.8223 143.512C69.873 143.609 69.9473 143.678 70.0449 143.717C70.1426 143.752 70.2656 143.77 70.4141 143.77C70.5195 143.77 70.6133 143.766 70.6953 143.758C70.7812 143.746 70.8535 143.734 70.9121 143.723L70.918 144.965C70.7734 145.012 70.6172 145.049 70.4492 145.076C70.2812 145.104 70.0957 145.117 69.8926 145.117C69.5215 145.117 69.1973 145.057 68.9199 144.936C68.6465 144.811 68.4355 144.611 68.2871 144.338C68.1387 144.064 68.0645 143.705 68.0645 143.26V137.096ZM75.2305 143.248C75.2305 143.127 75.1953 143.018 75.125 142.92C75.0547 142.822 74.9238 142.732 74.7324 142.65C74.5449 142.564 74.2734 142.486 73.918 142.416C73.5977 142.346 73.2988 142.258 73.0215 142.152C72.748 142.043 72.5098 141.912 72.3066 141.76C72.1074 141.607 71.9512 141.428 71.8379 141.221C71.7246 141.01 71.668 140.77 71.668 140.5C71.668 140.234 71.7246 139.984 71.8379 139.75C71.9551 139.516 72.1211 139.309 72.3359 139.129C72.5547 138.945 72.8203 138.803 73.1328 138.701C73.4492 138.596 73.8047 138.543 74.1992 138.543C74.75 138.543 75.2227 138.631 75.6172 138.807C76.0156 138.982 76.3203 139.225 76.5312 139.533C76.7461 139.838 76.8535 140.186 76.8535 140.576H75.166C75.166 140.412 75.1309 140.266 75.0605 140.137C74.9941 140.004 74.8887 139.9 74.7441 139.826C74.6035 139.748 74.4199 139.709 74.1934 139.709C74.0059 139.709 73.8438 139.742 73.707 139.809C73.5703 139.871 73.4648 139.957 73.3906 140.066C73.3203 140.172 73.2852 140.289 73.2852 140.418C73.2852 140.516 73.3047 140.604 73.3438 140.682C73.3867 140.756 73.4551 140.824 73.5488 140.887C73.6426 140.949 73.7637 141.008 73.9121 141.062C74.0645 141.113 74.252 141.16 74.4746 141.203C74.9316 141.297 75.3398 141.42 75.6992 141.572C76.0586 141.721 76.3438 141.924 76.5547 142.182C76.7656 142.436 76.8711 142.77 76.8711 143.184C76.8711 143.465 76.8086 143.723 76.6836 143.957C76.5586 144.191 76.3789 144.396 76.1445 144.572C75.9102 144.744 75.6289 144.879 75.3008 144.977C74.9766 145.07 74.6113 145.117 74.2051 145.117C73.6152 145.117 73.1152 145.012 72.7051 144.801C72.2988 144.59 71.9902 144.322 71.7793 143.998C71.5723 143.67 71.4688 143.334 71.4688 142.99H73.0684C73.0762 143.221 73.1348 143.406 73.2441 143.547C73.3574 143.688 73.5 143.789 73.6719 143.852C73.8477 143.914 74.0371 143.945 74.2402 143.945C74.459 143.945 74.6406 143.916 74.7852 143.857C74.9297 143.795 75.0391 143.713 75.1133 143.611C75.1914 143.506 75.2305 143.385 75.2305 143.248ZM84.3828 141.959H82.209V140.588H84.3828C84.7188 140.588 84.9922 140.533 85.2031 140.424C85.4141 140.311 85.5684 140.154 85.666 139.955C85.7637 139.756 85.8125 139.531 85.8125 139.281C85.8125 139.027 85.7637 138.791 85.666 138.572C85.5684 138.354 85.4141 138.178 85.2031 138.045C84.9922 137.912 84.7188 137.846 84.3828 137.846H82.8184V145H81.0605V136.469H84.3828C85.0508 136.469 85.623 136.59 86.0996 136.832C86.5801 137.07 86.9473 137.4 87.2012 137.822C87.4551 138.244 87.582 138.727 87.582 139.27C87.582 139.82 87.4551 140.297 87.2012 140.699C86.9473 141.102 86.5801 141.412 86.0996 141.631C85.623 141.85 85.0508 141.959 84.3828 141.959ZM90.4707 136V145H88.7773V136H90.4707ZM95.2871 143.57V140.746C95.2871 140.543 95.2539 140.369 95.1875 140.225C95.1211 140.076 95.0176 139.961 94.877 139.879C94.7402 139.797 94.5625 139.756 94.3438 139.756C94.1562 139.756 93.9941 139.789 93.8574 139.855C93.7207 139.918 93.6152 140.01 93.541 140.131C93.4668 140.248 93.4297 140.387 93.4297 140.547H91.7422C91.7422 140.277 91.8047 140.021 91.9297 139.779C92.0547 139.537 92.2363 139.324 92.4746 139.141C92.7129 138.953 92.9961 138.807 93.3242 138.701C93.6562 138.596 94.0273 138.543 94.4375 138.543C94.9297 138.543 95.3672 138.625 95.75 138.789C96.1328 138.953 96.4336 139.199 96.6523 139.527C96.875 139.855 96.9863 140.266 96.9863 140.758V143.471C96.9863 143.818 97.0078 144.104 97.0508 144.326C97.0938 144.545 97.1562 144.736 97.2383 144.9V145H95.5332C95.4512 144.828 95.3887 144.613 95.3457 144.355C95.3066 144.094 95.2871 143.832 95.2871 143.57ZM95.5098 141.139L95.5215 142.094H94.5781C94.3555 142.094 94.1621 142.119 93.998 142.17C93.834 142.221 93.6992 142.293 93.5938 142.387C93.4883 142.477 93.4102 142.582 93.3594 142.703C93.3125 142.824 93.2891 142.957 93.2891 143.102C93.2891 143.246 93.3223 143.377 93.3887 143.494C93.4551 143.607 93.5508 143.697 93.6758 143.764C93.8008 143.826 93.9473 143.857 94.1152 143.857C94.3691 143.857 94.5898 143.807 94.7773 143.705C94.9648 143.604 95.1094 143.479 95.2109 143.33C95.3164 143.182 95.3711 143.041 95.375 142.908L95.8203 143.623C95.7578 143.783 95.6719 143.949 95.5625 144.121C95.457 144.293 95.3223 144.455 95.1582 144.607C94.9941 144.756 94.7969 144.879 94.5664 144.977C94.3359 145.07 94.0625 145.117 93.7461 145.117C93.3438 145.117 92.9785 145.037 92.6504 144.877C92.3262 144.713 92.0684 144.488 91.877 144.203C91.6895 143.914 91.5957 143.586 91.5957 143.219C91.5957 142.887 91.6582 142.592 91.7832 142.334C91.9082 142.076 92.0918 141.859 92.334 141.684C92.5801 141.504 92.8867 141.369 93.2539 141.279C93.6211 141.186 94.0469 141.139 94.5312 141.139H95.5098ZM101.393 138.66V139.855H97.7012V138.66H101.393ZM98.6152 137.096H100.303V143.09C100.303 143.273 100.326 143.414 100.373 143.512C100.424 143.609 100.498 143.678 100.596 143.717C100.693 143.752 100.816 143.77 100.965 143.77C101.07 143.77 101.164 143.766 101.246 143.758C101.332 143.746 101.404 143.734 101.463 143.723L101.469 144.965C101.324 145.012 101.168 145.049 101 145.076C100.832 145.104 100.646 145.117 100.443 145.117C100.072 145.117 99.748 145.057 99.4707 144.936C99.1973 144.811 98.9863 144.611 98.8379 144.338C98.6895 144.064 98.6152 143.705 98.6152 143.26V137.096ZM104.504 145H102.805V138.098C102.805 137.617 102.898 137.213 103.086 136.885C103.277 136.553 103.545 136.303 103.889 136.135C104.236 135.963 104.648 135.877 105.125 135.877C105.281 135.877 105.432 135.889 105.576 135.912C105.721 135.932 105.861 135.957 105.998 135.988L105.98 137.26C105.906 137.24 105.828 137.227 105.746 137.219C105.664 137.211 105.568 137.207 105.459 137.207C105.256 137.207 105.082 137.242 104.938 137.312C104.797 137.379 104.689 137.479 104.615 137.611C104.541 137.744 104.504 137.906 104.504 138.098V145ZM105.77 138.66V139.855H101.861V138.66H105.77ZM106.385 141.895V141.771C106.385 141.307 106.451 140.879 106.584 140.488C106.717 140.094 106.91 139.752 107.164 139.463C107.418 139.174 107.73 138.949 108.102 138.789C108.473 138.625 108.898 138.543 109.379 138.543C109.859 138.543 110.287 138.625 110.662 138.789C111.037 138.949 111.352 139.174 111.605 139.463C111.863 139.752 112.059 140.094 112.191 140.488C112.324 140.879 112.391 141.307 112.391 141.771V141.895C112.391 142.355 112.324 142.783 112.191 143.178C112.059 143.568 111.863 143.91 111.605 144.203C111.352 144.492 111.039 144.717 110.668 144.877C110.297 145.037 109.871 145.117 109.391 145.117C108.91 145.117 108.482 145.037 108.107 144.877C107.736 144.717 107.422 144.492 107.164 144.203C106.91 143.91 106.717 143.568 106.584 143.178C106.451 142.783 106.385 142.355 106.385 141.895ZM108.072 141.771V141.895C108.072 142.16 108.096 142.408 108.143 142.639C108.189 142.869 108.264 143.072 108.365 143.248C108.471 143.42 108.607 143.555 108.775 143.652C108.943 143.75 109.148 143.799 109.391 143.799C109.625 143.799 109.826 143.75 109.994 143.652C110.162 143.555 110.297 143.42 110.398 143.248C110.5 143.072 110.574 142.869 110.621 142.639C110.672 142.408 110.697 142.16 110.697 141.895V141.771C110.697 141.514 110.672 141.271 110.621 141.045C110.574 140.814 110.498 140.611 110.393 140.436C110.291 140.256 110.156 140.115 109.988 140.014C109.82 139.912 109.617 139.861 109.379 139.861C109.141 139.861 108.938 139.912 108.77 140.014C108.605 140.115 108.471 140.256 108.365 140.436C108.264 140.611 108.189 140.814 108.143 141.045C108.096 141.271 108.072 141.514 108.072 141.771ZM115.115 140.043V145H113.428V138.66H115.016L115.115 140.043ZM117.025 138.619L116.996 140.184C116.914 140.172 116.814 140.162 116.697 140.154C116.584 140.143 116.48 140.137 116.387 140.137C116.148 140.137 115.941 140.168 115.766 140.23C115.594 140.289 115.449 140.377 115.332 140.494C115.219 140.611 115.133 140.754 115.074 140.922C115.02 141.09 114.988 141.281 114.98 141.496L114.641 141.391C114.641 140.98 114.682 140.604 114.764 140.26C114.846 139.912 114.965 139.609 115.121 139.352C115.281 139.094 115.477 138.895 115.707 138.754C115.938 138.613 116.201 138.543 116.498 138.543C116.592 138.543 116.688 138.551 116.785 138.566C116.883 138.578 116.963 138.596 117.025 138.619ZM119.51 139.973V145H117.816V138.66H119.404L119.51 139.973ZM119.275 141.607H118.807C118.807 141.166 118.859 140.76 118.965 140.389C119.074 140.014 119.232 139.689 119.439 139.416C119.65 139.139 119.91 138.924 120.219 138.771C120.527 138.619 120.885 138.543 121.291 138.543C121.572 138.543 121.83 138.586 122.064 138.672C122.299 138.754 122.5 138.885 122.668 139.064C122.84 139.24 122.973 139.471 123.066 139.756C123.16 140.037 123.207 140.375 123.207 140.77V145H121.52V140.957C121.52 140.668 121.48 140.445 121.402 140.289C121.324 140.133 121.213 140.023 121.068 139.961C120.928 139.898 120.758 139.867 120.559 139.867C120.34 139.867 120.148 139.912 119.984 140.002C119.824 140.092 119.691 140.217 119.586 140.377C119.48 140.533 119.402 140.717 119.352 140.928C119.301 141.139 119.275 141.365 119.275 141.607ZM123.049 141.414L122.445 141.49C122.445 141.076 122.496 140.691 122.598 140.336C122.703 139.98 122.857 139.668 123.061 139.398C123.268 139.129 123.523 138.92 123.828 138.771C124.133 138.619 124.484 138.543 124.883 138.543C125.188 138.543 125.465 138.588 125.715 138.678C125.965 138.764 126.178 138.902 126.354 139.094C126.533 139.281 126.67 139.527 126.764 139.832C126.861 140.137 126.91 140.51 126.91 140.951V145H125.217V140.951C125.217 140.658 125.178 140.436 125.1 140.283C125.025 140.127 124.916 140.02 124.771 139.961C124.631 139.898 124.463 139.867 124.268 139.867C124.064 139.867 123.887 139.908 123.734 139.99C123.582 140.068 123.455 140.178 123.354 140.318C123.252 140.459 123.176 140.623 123.125 140.811C123.074 140.994 123.049 141.195 123.049 141.414Z" fill="#F6F5D8"/>
<g clip-path="url(#clip0_3354_5009)">
<path d="M98.4337 43.0784V44.0008H40.2578V43.0784C40.2578 39.5932 43.0803 36.7676 46.5614 36.7676H92.13C94.0442 36.7676 95.7595 37.6224 96.9155 38.9714C97.8613 40.0761 98.4337 41.5115 98.4337 43.0784Z" fill="#754FE4" stroke="black" stroke-width="0.127783" stroke-miterlimit="10"/>
<path d="M98.4337 44.002V88.6997C98.4337 92.1848 95.6112 95.0104 92.13 95.0104H46.5614C45.3191 95.0104 44.1593 94.6497 43.1835 94.0297C41.4251 92.9081 40.2578 90.941 40.2578 88.6997V44.002H98.4337Z" fill="#8F6CF4" stroke="black" stroke-width="0.127783" stroke-miterlimit="10"/>
<path d="M99.8452 44.2989V89.9191C99.8452 93.4042 97.0227 96.2298 93.5415 96.2298H47.9729C46.0588 96.2298 44.3454 95.375 43.1875 94.0279C44.1634 94.6479 45.3231 95.0086 46.5655 95.0086H92.134C95.6152 95.0086 98.4377 92.183 98.4377 88.6979V43.0777C98.4377 41.5108 97.8653 40.0754 96.9195 38.9707C98.6779 40.0904 99.8452 42.0575 99.8452 44.2989Z" fill="#1D5A89" stroke="black" stroke-width="0.127783" stroke-miterlimit="10"/>
<path d="M43.1875 94.0278V94.0254" stroke="black" stroke-width="0.127783" stroke-miterlimit="10"/>
<path d="M46.923 41.935C47.6485 41.935 48.2367 41.3462 48.2367 40.6198C48.2367 39.8935 47.6485 39.3047 46.923 39.3047C46.1975 39.3047 45.6094 39.8935 45.6094 40.6198C45.6094 41.3462 46.1975 41.935 46.923 41.935Z" fill="#1EDBA2" stroke="black" stroke-width="0.127783" stroke-miterlimit="10"/>
<path d="M51.6183 41.935C52.3438 41.935 52.932 41.3462 52.932 40.6198C52.932 39.8935 52.3438 39.3047 51.6183 39.3047C50.8928 39.3047 50.3047 39.8935 50.3047 40.6198C50.3047 41.3462 50.8928 41.935 51.6183 41.935Z" fill="#FFE275" stroke="black" stroke-width="0.127783" stroke-miterlimit="10"/>
<path d="M56.3136 41.935C57.0392 41.935 57.6273 41.3462 57.6273 40.6198C57.6273 39.8935 57.0392 39.3047 56.3136 39.3047C55.5881 39.3047 55 39.8935 55 40.6198C55 41.3462 55.5881 41.935 56.3136 41.935Z" fill="#EE7171" stroke="black" stroke-width="0.127783" stroke-miterlimit="10"/>
<path d="M78.0801 62.0371H48.9922V91.158H78.0801V62.0371Z" fill="#C3AEFF" stroke="black" stroke-width="0.195507" stroke-miterlimit="10"/>
<path d="M92.3369 49.2598H73.3828V68.2353H92.3369V49.2598Z" fill="#3B1C96" stroke="black" stroke-width="0.127783" stroke-miterlimit="10"/>
<path d="M85.4016 63.9147C87.3708 63.9147 88.9672 62.3165 88.9672 60.345C88.9672 58.3736 87.3708 56.7754 85.4016 56.7754C83.4323 56.7754 81.8359 58.3736 81.8359 60.345C81.8359 62.3165 83.4323 63.9147 85.4016 63.9147Z" fill="#F6F5D8" stroke="black" stroke-width="0.127783" stroke-miterlimit="10"/>
<path d="M99.0973 74.0608L96.3743 76.6046L96.2823 76.691L90.4647 69.9275L87.6498 72.182L86.1522 61.3096L86.1484 61.2852L86.1803 61.2983L96.0946 65.6063L93.2797 67.8608L99.0973 74.0608Z" fill="#8965F2" stroke="black" stroke-width="0.127783" stroke-miterlimit="10"/>
<path d="M100.043 74.0615L97.4154 76.6918L96.3814 76.6054L99.1044 74.0615L93.2868 67.8616L96.1018 65.6071L86.1875 61.2991L87.0939 60.9102L97.4154 65.4192L94.2252 68.0495L100.043 74.0615Z" fill="#653ED7" stroke="black" stroke-width="0.127783" stroke-miterlimit="10"/>
<path d="M121.652 33.3047L121.625 33.3154" stroke="black" stroke-width="0.127783" stroke-miterlimit="10"/>
<path d="M39.1699 36.8441C38.4906 39.9873 35.7132 42.0539 32.9695 41.4584C32.7349 41.4076 32.5079 41.3381 32.2883 41.2536C29.9537 40.3443 28.6082 37.5656 29.2294 34.6892C29.9087 31.546 32.6861 29.4794 35.4298 30.0749C35.9477 30.1876 36.4282 30.3849 36.8617 30.6555C38.7233 31.8165 39.7217 34.2928 39.1699 36.8441Z" fill="#E8920A" stroke="black" stroke-width="0.118838" stroke-miterlimit="10"/>
<path d="M39.9214 37.2187C39.242 40.3619 36.4646 42.4285 33.7209 41.833C33.203 41.7202 32.7226 41.523 32.2891 41.2524C32.5086 41.337 32.7357 41.4065 32.9703 41.4572C35.7139 42.0528 38.4914 39.9861 39.1707 36.843C39.7224 34.2916 38.7241 31.8154 36.8624 30.6543C39.197 31.5636 40.5425 34.3423 39.9214 37.2187Z" fill="#9B6619" stroke="black" stroke-width="0.118838" stroke-miterlimit="10"/>
<path d="M50.5329 30.9731C49.9718 33.5658 47.6823 35.2699 45.419 34.7776C45.2258 34.7363 45.0381 34.6781 44.8579 34.6085C42.9325 33.8589 41.8234 31.5668 42.3357 29.1958C42.8968 26.6031 45.1863 24.8991 47.4496 25.3913C47.8774 25.4834 48.2734 25.6468 48.63 25.8704C50.1651 26.8286 50.9889 28.8708 50.5329 30.9731Z" fill="#E8920A" stroke="black" stroke-width="0.0983926" stroke-miterlimit="10"/>
<path d="M51.1458 31.2838C50.5847 33.8765 48.2952 35.5806 46.032 35.0883C45.6041 34.9963 45.2081 34.8328 44.8516 34.6092C45.0317 34.6787 45.2194 34.737 45.4127 34.7783C47.6759 35.2687 49.9654 33.5646 50.5265 30.9738C50.9807 28.8696 50.1587 26.8274 48.6236 25.8711C50.549 26.6207 51.6581 28.9128 51.1458 31.2838Z" fill="#9B6619" stroke="black" stroke-width="0.0983926" stroke-miterlimit="10"/>
<path d="M124.645 36.5103C123.909 39.9165 120.899 42.1559 117.927 41.5097C117.673 41.4552 117.426 41.38 117.189 41.288C114.66 40.3035 113.201 37.2918 113.875 34.175C114.611 30.7687 117.621 28.5293 120.593 29.1756C121.155 29.2977 121.674 29.5119 122.145 29.8049C124.163 31.0637 125.244 33.7466 124.647 36.5103H124.645Z" fill="#E8920A" stroke="black" stroke-width="0.12906" stroke-miterlimit="10"/>
<path d="M125.458 36.9196C124.722 40.3259 121.712 42.5653 118.739 41.919C118.178 41.7969 117.659 41.5827 117.188 41.2897C117.426 41.3817 117.672 41.4569 117.925 41.5114C120.898 42.1576 123.908 39.9182 124.643 36.512C125.242 33.7483 124.159 31.0635 122.142 29.8066C124.672 30.7911 126.13 33.8028 125.456 36.9196H125.458Z" fill="#9B6619" stroke="black" stroke-width="0.12906" stroke-miterlimit="10"/>
<path d="M118.708 43.22C118.145 45.8277 115.84 47.543 113.564 47.0489C113.369 47.0076 113.181 46.9493 112.999 46.8798C111.062 46.1246 109.946 43.8193 110.462 41.4333C111.025 38.8255 113.329 37.1102 115.606 37.6043C116.035 37.6983 116.433 37.8617 116.793 38.0853C118.338 39.0491 119.166 41.1026 118.71 43.22H118.708Z" fill="#E8920A" stroke="black" stroke-width="0.0996704" stroke-miterlimit="10"/>
<path d="M119.332 43.5325C118.769 46.1402 116.464 47.8555 114.188 47.3614C113.758 47.2675 113.36 47.104 113 46.8804C113.182 46.95 113.37 47.0082 113.565 47.0495C115.841 47.5436 118.146 45.8283 118.709 43.2206C119.167 41.1032 118.339 39.0497 116.793 38.0859C118.729 38.8412 119.846 41.1464 119.33 43.5325H119.332Z" fill="#9B6619" stroke="black" stroke-width="0.0996704" stroke-miterlimit="10"/>
<path d="M90.6811 51.8014L91.4062 52.832L96.0719 49.5419L95.3467 48.5113L90.6811 51.8014Z" fill="#9C7EF3" stroke="black" stroke-width="0.11756" stroke-miterlimit="10"/>
<path d="M91.9673 57.528L91.2422 58.5586L95.9078 61.8487L96.633 60.818L91.9673 57.528Z" fill="#9C7EF3" stroke="black" stroke-width="0.11756" stroke-miterlimit="10"/>
<path d="M91.5525 54.3856L91.6484 55.6973L98.77 55.175L98.674 53.8633L91.5525 54.3856Z" fill="#9C7EF3" stroke="black" stroke-width="0.13545" stroke-miterlimit="10"/>
<path d="M105.485 27.8153V31.0656C105.485 33.1247 103.817 34.7949 101.76 34.7949H81.4361C80.3852 34.7949 79.4337 34.359 78.7581 33.6545C78.1088 32.9857 77.7109 32.0726 77.7109 31.0656V27.8153C77.7109 25.7562 79.3793 24.0859 81.4361 24.0859H101.76C103.149 24.0859 104.361 24.8487 105.001 25.9779C105.309 26.5189 105.485 27.1464 105.485 27.8153Z" fill="#199E86" stroke="black" stroke-width="0.11756" stroke-miterlimit="10"/>
<path d="M106.048 28.5675V31.8177C106.048 33.8768 104.38 35.5471 102.323 35.5471H81.9988C80.6101 35.5471 79.3977 34.7843 78.7578 33.6552C79.4334 34.3597 80.3849 34.7956 81.4358 34.7956H101.76C103.817 34.7956 105.485 33.1253 105.485 31.0662V27.8159C105.485 27.1471 105.309 26.5196 105.001 25.9785C105.65 26.6474 106.048 27.5604 106.048 28.5675Z" fill="#108872" stroke="black" stroke-width="0.11756" stroke-miterlimit="10"/>
<path d="M89.1898 28.814C89.1898 29.0062 89.1456 29.1827 89.0574 29.3435C88.9691 29.5011 88.8336 29.6287 88.6508 29.7265C88.468 29.8242 88.241 29.873 87.97 29.873H87.4688V31.0645H86.6603V27.7455H87.97C88.2347 27.7455 88.4585 27.7912 88.6413 27.8826C88.8241 27.974 88.9612 28.1 89.0526 28.2608C89.1441 28.4215 89.1898 28.6059 89.1898 28.814ZM87.9085 29.23C88.0629 29.23 88.178 29.1938 88.2536 29.1213C88.3293 29.0488 88.3671 28.9463 88.3671 28.814C88.3671 28.6816 88.3293 28.5791 88.2536 28.5066C88.178 28.4342 88.0629 28.3979 87.9085 28.3979H87.4688V29.23H87.9085ZM91.6767 30.4782H90.438L90.2395 31.0645H89.3932L90.5941 27.7455H91.5302L92.7311 31.0645H91.8753L91.6767 30.4782ZM91.4687 29.8541L91.0574 28.639L90.6508 29.8541H91.4687ZM93.905 27.7455V31.0645H93.0966V27.7455H93.905ZM95.7344 27.7455C96.0842 27.7455 96.39 27.8148 96.6516 27.9535C96.9132 28.0922 97.1149 28.2876 97.2568 28.5397C97.4018 28.7887 97.4742 29.0772 97.4742 29.405C97.4742 29.7296 97.4018 30.018 97.2568 30.2702C97.1149 30.5223 96.9116 30.7177 96.6469 30.8564C96.3852 30.9951 96.0811 31.0645 95.7344 31.0645H94.4909V27.7455H95.7344ZM95.6824 30.3647C95.9881 30.3647 96.2261 30.2812 96.3963 30.1141C96.5665 29.9471 96.6516 29.7107 96.6516 29.405C96.6516 29.0992 96.5665 28.8612 96.3963 28.691C96.2261 28.5208 95.9881 28.4357 95.6824 28.4357H95.2994V30.3647H95.6824Z" fill="#F6F5D8"/>
</g>
<defs>
<filter id="filter0_d_3354_5009" x="0" y="0" width="154" height="182" filterUnits="userSpaceOnUse" color-interpolation-filters="sRGB">
<feFlood flood-opacity="0" result="BackgroundImageFix"/>
<feColorMatrix in="SourceAlpha" type="matrix" values="0 0 0 0 0 0 0 0 0 0 0 0 0 0 0 0 0 0 127 0" result="hardAlpha"/>
<feOffset dx="3" dy="3"/>
<feComposite in2="hardAlpha" operator="out"/>
<feColorMatrix type="matrix" values="0 0 0 0 0.808333 0 0 0 0 0.808333 0 0 0 0 0.808333 0 0 0 1 0"/>
<feBlend mode="normal" in2="BackgroundImageFix" result="effect1_dropShadow_3354_5009"/>
<feBlend mode="normal" in="SourceGraphic" in2="effect1_dropShadow_3354_5009" result="shape"/>
</filter>
<clipPath id="clip0_3354_5009">
<rect width="96.7314" height="72.325" fill="white" transform="translate(29 24)"/>
</clipPath>
</defs>
</svg>
