<svg width="387" height="415" viewBox="0 0 387 415" fill="none" xmlns="http://www.w3.org/2000/svg">
<g filter="url(#filter0_d_3238_5665)">
<path d="M0 16.6555C0 7.86791 7.12376 0.744141 15.9114 0.744141H367.552C376.34 0.744141 383.464 7.8679 383.464 16.6555V395.346C383.464 404.134 376.34 411.257 367.552 411.257H15.9113C7.12374 411.257 0 404.134 0 395.346V16.6555Z" fill="#181818"/>
<path d="M0.5 16.6555C0.5 8.14405 7.3999 1.24414 15.9114 1.24414H367.552C376.064 1.24414 382.964 8.14404 382.964 16.6555V395.346C382.964 403.857 376.064 410.757 367.552 410.757H15.9113C7.39988 410.757 0.5 403.857 0.5 395.346V16.6555Z" stroke="#F6F5D8" stroke-opacity="0.46"/>
</g>
<path d="M90.4355 315.279C90.4355 315.025 90.3965 314.798 90.3184 314.596C90.2467 314.387 90.11 314.199 89.9082 314.029C89.7064 313.854 89.4232 313.681 89.0586 313.512C88.694 313.342 88.222 313.167 87.6426 312.984C86.998 312.776 86.3861 312.542 85.8066 312.281C85.2337 312.021 84.7259 311.718 84.2832 311.373C83.847 311.021 83.502 310.615 83.248 310.152C83.0007 309.69 82.877 309.153 82.877 308.541C82.877 307.949 83.0072 307.411 83.2676 306.93C83.528 306.441 83.8926 306.025 84.3613 305.68C84.8301 305.328 85.3835 305.058 86.0215 304.869C86.666 304.68 87.3724 304.586 88.1406 304.586C89.1888 304.586 90.1035 304.775 90.8848 305.152C91.666 305.53 92.2715 306.048 92.7012 306.705C93.1374 307.363 93.3555 308.115 93.3555 308.961H90.4453C90.4453 308.544 90.3574 308.18 90.1816 307.867C90.0124 307.548 89.752 307.298 89.4004 307.115C89.0553 306.933 88.6191 306.842 88.0918 306.842C87.584 306.842 87.1608 306.92 86.8223 307.076C86.4837 307.226 86.2298 307.431 86.0605 307.691C85.8913 307.945 85.8066 308.232 85.8066 308.551C85.8066 308.792 85.8652 309.01 85.9824 309.205C86.1061 309.4 86.2884 309.583 86.5293 309.752C86.7702 309.921 87.0664 310.081 87.418 310.23C87.7695 310.38 88.1764 310.527 88.6387 310.67C89.4134 310.904 90.0938 311.168 90.6797 311.461C91.2721 311.754 91.7669 312.083 92.1641 312.447C92.5612 312.812 92.8607 313.225 93.0625 313.688C93.2643 314.15 93.3652 314.674 93.3652 315.26C93.3652 315.878 93.2448 316.432 93.0039 316.92C92.763 317.408 92.4147 317.822 91.959 318.16C91.5033 318.499 90.9596 318.756 90.3281 318.932C89.6966 319.107 88.9902 319.195 88.209 319.195C87.5059 319.195 86.8125 319.104 86.1289 318.922C85.4453 318.733 84.8236 318.45 84.2637 318.072C83.7103 317.695 83.2676 317.213 82.9355 316.627C82.6035 316.041 82.4375 315.348 82.4375 314.547H85.377C85.377 314.99 85.4453 315.364 85.582 315.67C85.7188 315.976 85.9108 316.223 86.1582 316.412C86.4121 316.601 86.7116 316.738 87.0566 316.822C87.4082 316.907 87.7923 316.949 88.209 316.949C88.7168 316.949 89.1335 316.878 89.459 316.734C89.791 316.591 90.0352 316.393 90.1914 316.139C90.3542 315.885 90.4355 315.598 90.4355 315.279ZM98.1504 308.434V319H95.3281V308.434H98.1504ZM95.1523 305.68C95.1523 305.27 95.2956 304.931 95.582 304.664C95.8685 304.397 96.2526 304.264 96.7344 304.264C97.2096 304.264 97.5905 304.397 97.877 304.664C98.1699 304.931 98.3164 305.27 98.3164 305.68C98.3164 306.09 98.1699 306.428 97.877 306.695C97.5905 306.962 97.2096 307.096 96.7344 307.096C96.2526 307.096 95.8685 306.962 95.582 306.695C95.2956 306.428 95.1523 306.09 95.1523 305.68ZM103.287 310.621V319H100.465V308.434H103.111L103.287 310.621ZM102.896 313.346H102.115C102.115 312.61 102.203 311.933 102.379 311.314C102.561 310.689 102.825 310.149 103.17 309.693C103.521 309.231 103.954 308.873 104.469 308.619C104.983 308.365 105.579 308.238 106.256 308.238C106.725 308.238 107.154 308.31 107.545 308.453C107.936 308.59 108.271 308.808 108.551 309.107C108.837 309.4 109.059 309.785 109.215 310.26C109.371 310.729 109.449 311.292 109.449 311.949V319H106.637V312.262C106.637 311.78 106.572 311.409 106.441 311.148C106.311 310.888 106.126 310.706 105.885 310.602C105.65 310.497 105.367 310.445 105.035 310.445C104.671 310.445 104.352 310.52 104.078 310.67C103.811 310.82 103.59 311.028 103.414 311.295C103.238 311.555 103.108 311.861 103.023 312.213C102.939 312.564 102.896 312.942 102.896 313.346ZM109.186 313.023L108.18 313.15C108.18 312.46 108.264 311.819 108.434 311.227C108.609 310.634 108.867 310.113 109.205 309.664C109.55 309.215 109.977 308.867 110.484 308.619C110.992 308.365 111.578 308.238 112.242 308.238C112.75 308.238 113.212 308.313 113.629 308.463C114.046 308.606 114.4 308.837 114.693 309.156C114.993 309.469 115.221 309.879 115.377 310.387C115.54 310.895 115.621 311.516 115.621 312.252V319H112.799V312.252C112.799 311.764 112.734 311.393 112.604 311.139C112.48 310.878 112.298 310.699 112.057 310.602C111.822 310.497 111.542 310.445 111.217 310.445C110.878 310.445 110.582 310.514 110.328 310.65C110.074 310.781 109.863 310.963 109.693 311.197C109.524 311.432 109.397 311.705 109.312 312.018C109.228 312.324 109.186 312.659 109.186 313.023ZM120.611 310.465V323.062H117.799V308.434H120.406L120.611 310.465ZM127.301 313.6V313.805C127.301 314.573 127.21 315.286 127.027 315.943C126.852 316.601 126.591 317.174 126.246 317.662C125.901 318.144 125.471 318.521 124.957 318.795C124.449 319.062 123.863 319.195 123.199 319.195C122.555 319.195 121.995 319.065 121.52 318.805C121.044 318.544 120.644 318.18 120.318 317.711C119.999 317.236 119.742 316.686 119.547 316.061C119.352 315.436 119.202 314.765 119.098 314.049V313.512C119.202 312.743 119.352 312.04 119.547 311.402C119.742 310.758 119.999 310.201 120.318 309.732C120.644 309.257 121.041 308.889 121.51 308.629C121.985 308.368 122.542 308.238 123.18 308.238C123.85 308.238 124.439 308.365 124.947 308.619C125.462 308.873 125.891 309.238 126.236 309.713C126.588 310.188 126.852 310.755 127.027 311.412C127.21 312.07 127.301 312.799 127.301 313.6ZM124.479 313.805V313.6C124.479 313.15 124.439 312.737 124.361 312.359C124.29 311.975 124.173 311.64 124.01 311.354C123.854 311.067 123.645 310.846 123.385 310.689C123.131 310.527 122.822 310.445 122.457 310.445C122.073 310.445 121.744 310.507 121.471 310.631C121.204 310.755 120.986 310.934 120.816 311.168C120.647 311.402 120.52 311.682 120.436 312.008C120.351 312.333 120.299 312.701 120.279 313.111V314.469C120.312 314.951 120.403 315.383 120.553 315.768C120.702 316.145 120.934 316.445 121.246 316.666C121.559 316.887 121.969 316.998 122.477 316.998C122.848 316.998 123.16 316.917 123.414 316.754C123.668 316.585 123.873 316.354 124.029 316.061C124.192 315.768 124.306 315.429 124.371 315.045C124.443 314.661 124.479 314.247 124.479 313.805ZM132.018 304V319H129.195V304H132.018ZM139.205 319.195C138.385 319.195 137.649 319.065 136.998 318.805C136.347 318.538 135.794 318.17 135.338 317.701C134.889 317.232 134.544 316.689 134.303 316.07C134.062 315.445 133.941 314.781 133.941 314.078V313.688C133.941 312.887 134.055 312.154 134.283 311.49C134.511 310.826 134.837 310.25 135.26 309.762C135.689 309.273 136.21 308.899 136.822 308.639C137.434 308.372 138.124 308.238 138.893 308.238C139.641 308.238 140.305 308.362 140.885 308.609C141.464 308.857 141.949 309.208 142.34 309.664C142.737 310.12 143.036 310.667 143.238 311.305C143.44 311.936 143.541 312.639 143.541 313.414V314.586H135.143V312.711H140.777V312.496C140.777 312.105 140.706 311.757 140.562 311.451C140.426 311.139 140.217 310.891 139.938 310.709C139.658 310.527 139.299 310.436 138.863 310.436C138.492 310.436 138.173 310.517 137.906 310.68C137.639 310.842 137.421 311.07 137.252 311.363C137.089 311.656 136.965 312.001 136.881 312.398C136.803 312.789 136.764 313.219 136.764 313.688V314.078C136.764 314.501 136.822 314.892 136.939 315.25C137.063 315.608 137.236 315.917 137.457 316.178C137.685 316.438 137.958 316.64 138.277 316.783C138.603 316.926 138.971 316.998 139.381 316.998C139.889 316.998 140.361 316.9 140.797 316.705C141.24 316.503 141.62 316.201 141.939 315.797L143.307 317.281C143.085 317.6 142.783 317.906 142.398 318.199C142.021 318.492 141.565 318.733 141.031 318.922C140.497 319.104 139.889 319.195 139.205 319.195ZM150.855 316.08C150.855 315.878 150.797 315.696 150.68 315.533C150.562 315.37 150.344 315.221 150.025 315.084C149.713 314.941 149.26 314.811 148.668 314.693C148.134 314.576 147.636 314.43 147.174 314.254C146.718 314.072 146.321 313.854 145.982 313.6C145.65 313.346 145.39 313.046 145.201 312.701C145.012 312.35 144.918 311.949 144.918 311.5C144.918 311.057 145.012 310.641 145.201 310.25C145.396 309.859 145.673 309.514 146.031 309.215C146.396 308.909 146.839 308.671 147.359 308.502C147.887 308.326 148.479 308.238 149.137 308.238C150.055 308.238 150.842 308.385 151.5 308.678C152.164 308.971 152.672 309.374 153.023 309.889C153.382 310.396 153.561 310.976 153.561 311.627H150.748C150.748 311.354 150.689 311.109 150.572 310.895C150.462 310.673 150.286 310.501 150.045 310.377C149.811 310.247 149.505 310.182 149.127 310.182C148.814 310.182 148.544 310.237 148.316 310.348C148.089 310.452 147.913 310.595 147.789 310.777C147.672 310.953 147.613 311.148 147.613 311.363C147.613 311.526 147.646 311.673 147.711 311.803C147.783 311.926 147.896 312.04 148.053 312.145C148.209 312.249 148.411 312.346 148.658 312.438C148.912 312.522 149.225 312.6 149.596 312.672C150.357 312.828 151.038 313.033 151.637 313.287C152.236 313.535 152.711 313.873 153.062 314.303C153.414 314.726 153.59 315.283 153.59 315.973C153.59 316.441 153.486 316.871 153.277 317.262C153.069 317.652 152.77 317.994 152.379 318.287C151.988 318.574 151.52 318.798 150.973 318.961C150.432 319.117 149.824 319.195 149.146 319.195C148.163 319.195 147.33 319.02 146.646 318.668C145.969 318.316 145.455 317.87 145.104 317.33C144.758 316.783 144.586 316.223 144.586 315.65H147.252C147.265 316.035 147.363 316.344 147.545 316.578C147.734 316.812 147.971 316.982 148.258 317.086C148.551 317.19 148.867 317.242 149.205 317.242C149.57 317.242 149.872 317.193 150.113 317.096C150.354 316.992 150.536 316.855 150.66 316.686C150.79 316.51 150.855 316.308 150.855 316.08ZM160.592 308.434V310.426H154.439V308.434H160.592ZM155.963 305.826H158.775V315.816C158.775 316.122 158.814 316.357 158.893 316.52C158.977 316.682 159.101 316.796 159.264 316.861C159.426 316.92 159.632 316.949 159.879 316.949C160.055 316.949 160.211 316.943 160.348 316.93C160.491 316.91 160.611 316.891 160.709 316.871L160.719 318.941C160.478 319.02 160.217 319.081 159.938 319.127C159.658 319.173 159.348 319.195 159.01 319.195C158.391 319.195 157.851 319.094 157.389 318.893C156.933 318.684 156.581 318.352 156.334 317.896C156.087 317.441 155.963 316.842 155.963 316.1V305.826ZM178.619 311.568V317.203C178.398 317.47 178.056 317.76 177.594 318.072C177.132 318.378 176.536 318.642 175.807 318.863C175.077 319.085 174.195 319.195 173.16 319.195C172.242 319.195 171.406 319.046 170.65 318.746C169.895 318.44 169.244 317.994 168.697 317.408C168.157 316.822 167.74 316.106 167.447 315.26C167.154 314.407 167.008 313.434 167.008 312.34V311.451C167.008 310.357 167.148 309.384 167.428 308.531C167.714 307.678 168.121 306.959 168.648 306.373C169.176 305.787 169.804 305.341 170.533 305.035C171.262 304.729 172.073 304.576 172.965 304.576C174.202 304.576 175.217 304.778 176.012 305.182C176.806 305.579 177.411 306.132 177.828 306.842C178.251 307.545 178.512 308.352 178.609 309.264H175.768C175.696 308.782 175.559 308.362 175.357 308.004C175.156 307.646 174.866 307.366 174.488 307.164C174.117 306.962 173.635 306.861 173.043 306.861C172.555 306.861 172.118 306.962 171.734 307.164C171.357 307.359 171.038 307.649 170.777 308.033C170.517 308.417 170.318 308.893 170.182 309.459C170.045 310.025 169.977 310.683 169.977 311.432V312.34C169.977 313.082 170.048 313.74 170.191 314.312C170.335 314.879 170.546 315.357 170.826 315.748C171.113 316.132 171.464 316.422 171.881 316.617C172.298 316.812 172.783 316.91 173.336 316.91C173.798 316.91 174.182 316.871 174.488 316.793C174.801 316.715 175.051 316.62 175.24 316.51C175.436 316.393 175.585 316.282 175.689 316.178V313.658H173.014V311.568H178.619ZM183.619 310.738V319H180.807V308.434H183.453L183.619 310.738ZM186.803 308.365L186.754 310.973C186.617 310.953 186.451 310.937 186.256 310.924C186.067 310.904 185.895 310.895 185.738 310.895C185.341 310.895 184.996 310.947 184.703 311.051C184.417 311.148 184.176 311.295 183.98 311.49C183.792 311.686 183.648 311.923 183.551 312.203C183.46 312.483 183.408 312.802 183.395 313.16L182.828 312.984C182.828 312.301 182.896 311.673 183.033 311.1C183.17 310.52 183.368 310.016 183.629 309.586C183.896 309.156 184.221 308.824 184.605 308.59C184.99 308.355 185.429 308.238 185.924 308.238C186.08 308.238 186.24 308.251 186.402 308.277C186.565 308.297 186.699 308.326 186.803 308.365ZM187.389 313.824V313.619C187.389 312.844 187.499 312.132 187.721 311.48C187.942 310.823 188.264 310.253 188.688 309.771C189.111 309.29 189.632 308.915 190.25 308.648C190.868 308.375 191.578 308.238 192.379 308.238C193.18 308.238 193.893 308.375 194.518 308.648C195.143 308.915 195.667 309.29 196.09 309.771C196.52 310.253 196.845 310.823 197.066 311.48C197.288 312.132 197.398 312.844 197.398 313.619V313.824C197.398 314.592 197.288 315.305 197.066 315.963C196.845 316.614 196.52 317.184 196.09 317.672C195.667 318.154 195.146 318.528 194.527 318.795C193.909 319.062 193.199 319.195 192.398 319.195C191.598 319.195 190.885 319.062 190.26 318.795C189.641 318.528 189.117 318.154 188.688 317.672C188.264 317.184 187.942 316.614 187.721 315.963C187.499 315.305 187.389 314.592 187.389 313.824ZM190.201 313.619V313.824C190.201 314.267 190.24 314.68 190.318 315.064C190.396 315.449 190.52 315.787 190.689 316.08C190.865 316.367 191.093 316.591 191.373 316.754C191.653 316.917 191.995 316.998 192.398 316.998C192.789 316.998 193.124 316.917 193.404 316.754C193.684 316.591 193.909 316.367 194.078 316.08C194.247 315.787 194.371 315.449 194.449 315.064C194.534 314.68 194.576 314.267 194.576 313.824V313.619C194.576 313.189 194.534 312.786 194.449 312.408C194.371 312.024 194.244 311.686 194.068 311.393C193.899 311.093 193.674 310.859 193.395 310.689C193.115 310.52 192.776 310.436 192.379 310.436C191.982 310.436 191.643 310.52 191.363 310.689C191.09 310.859 190.865 311.093 190.689 311.393C190.52 311.686 190.396 312.024 190.318 312.408C190.24 312.786 190.201 313.189 190.201 313.619ZM205.377 316.471V308.434H208.189V319H205.543L205.377 316.471ZM205.689 314.303L206.52 314.283C206.52 314.986 206.438 315.641 206.275 316.246C206.113 316.845 205.868 317.366 205.543 317.809C205.217 318.245 204.807 318.587 204.312 318.834C203.818 319.075 203.235 319.195 202.564 319.195C202.05 319.195 201.575 319.124 201.139 318.98C200.709 318.831 200.338 318.6 200.025 318.287C199.719 317.968 199.479 317.561 199.303 317.066C199.133 316.565 199.049 315.963 199.049 315.26V308.434H201.861V315.279C201.861 315.592 201.897 315.855 201.969 316.07C202.047 316.285 202.154 316.461 202.291 316.598C202.428 316.734 202.587 316.832 202.77 316.891C202.958 316.949 203.167 316.979 203.395 316.979C203.974 316.979 204.43 316.861 204.762 316.627C205.1 316.393 205.338 316.074 205.475 315.67C205.618 315.26 205.689 314.804 205.689 314.303ZM213.15 310.465V323.062H210.338V308.434H212.945L213.15 310.465ZM219.84 313.6V313.805C219.84 314.573 219.749 315.286 219.566 315.943C219.391 316.601 219.13 317.174 218.785 317.662C218.44 318.144 218.01 318.521 217.496 318.795C216.988 319.062 216.402 319.195 215.738 319.195C215.094 319.195 214.534 319.065 214.059 318.805C213.583 318.544 213.183 318.18 212.857 317.711C212.538 317.236 212.281 316.686 212.086 316.061C211.891 315.436 211.741 314.765 211.637 314.049V313.512C211.741 312.743 211.891 312.04 212.086 311.402C212.281 310.758 212.538 310.201 212.857 309.732C213.183 309.257 213.58 308.889 214.049 308.629C214.524 308.368 215.081 308.238 215.719 308.238C216.389 308.238 216.979 308.365 217.486 308.619C218.001 308.873 218.43 309.238 218.775 309.713C219.127 310.188 219.391 310.755 219.566 311.412C219.749 312.07 219.84 312.799 219.84 313.6ZM217.018 313.805V313.6C217.018 313.15 216.979 312.737 216.9 312.359C216.829 311.975 216.712 311.64 216.549 311.354C216.393 311.067 216.184 310.846 215.924 310.689C215.67 310.527 215.361 310.445 214.996 310.445C214.612 310.445 214.283 310.507 214.01 310.631C213.743 310.755 213.525 310.934 213.355 311.168C213.186 311.402 213.059 311.682 212.975 312.008C212.89 312.333 212.838 312.701 212.818 313.111V314.469C212.851 314.951 212.942 315.383 213.092 315.768C213.242 316.145 213.473 316.445 213.785 316.666C214.098 316.887 214.508 316.998 215.016 316.998C215.387 316.998 215.699 316.917 215.953 316.754C216.207 316.585 216.412 316.354 216.568 316.061C216.731 315.768 216.845 315.429 216.91 315.045C216.982 314.661 217.018 314.247 217.018 313.805Z" fill="#F6F5D8"/>
<path d="M236.285 316.715V319H228.717V316.715H236.285ZM229.674 304.781V319H226.744V304.781H229.674ZM235.299 310.572V312.799H228.717V310.572H235.299ZM236.275 304.781V307.076H228.717V304.781H236.275ZM240.084 308.434L241.832 311.646L243.629 308.434H246.627L243.639 313.6L246.764 319H243.756L241.852 315.602L239.947 319H236.939L240.064 313.6L237.076 308.434H240.084ZM250.807 310.465V323.062H247.994V308.434H250.602L250.807 310.465ZM257.496 313.6V313.805C257.496 314.573 257.405 315.286 257.223 315.943C257.047 316.601 256.786 317.174 256.441 317.662C256.096 318.144 255.667 318.521 255.152 318.795C254.645 319.062 254.059 319.195 253.395 319.195C252.75 319.195 252.19 319.065 251.715 318.805C251.24 318.544 250.839 318.18 250.514 317.711C250.195 317.236 249.938 316.686 249.742 316.061C249.547 315.436 249.397 314.765 249.293 314.049V313.512C249.397 312.743 249.547 312.04 249.742 311.402C249.938 310.758 250.195 310.201 250.514 309.732C250.839 309.257 251.236 308.889 251.705 308.629C252.18 308.368 252.737 308.238 253.375 308.238C254.046 308.238 254.635 308.365 255.143 308.619C255.657 308.873 256.087 309.238 256.432 309.713C256.783 310.188 257.047 310.755 257.223 311.412C257.405 312.07 257.496 312.799 257.496 313.6ZM254.674 313.805V313.6C254.674 313.15 254.635 312.737 254.557 312.359C254.485 311.975 254.368 311.64 254.205 311.354C254.049 311.067 253.84 310.846 253.58 310.689C253.326 310.527 253.017 310.445 252.652 310.445C252.268 310.445 251.939 310.507 251.666 310.631C251.399 310.755 251.181 310.934 251.012 311.168C250.842 311.402 250.715 311.682 250.631 312.008C250.546 312.333 250.494 312.701 250.475 313.111V314.469C250.507 314.951 250.598 315.383 250.748 315.768C250.898 316.145 251.129 316.445 251.441 316.666C251.754 316.887 252.164 316.998 252.672 316.998C253.043 316.998 253.355 316.917 253.609 316.754C253.863 316.585 254.068 316.354 254.225 316.061C254.387 315.768 254.501 315.429 254.566 315.045C254.638 314.661 254.674 314.247 254.674 313.805ZM264.107 319.195C263.287 319.195 262.551 319.065 261.9 318.805C261.249 318.538 260.696 318.17 260.24 317.701C259.791 317.232 259.446 316.689 259.205 316.07C258.964 315.445 258.844 314.781 258.844 314.078V313.688C258.844 312.887 258.958 312.154 259.186 311.49C259.413 310.826 259.739 310.25 260.162 309.762C260.592 309.273 261.113 308.899 261.725 308.639C262.337 308.372 263.027 308.238 263.795 308.238C264.544 308.238 265.208 308.362 265.787 308.609C266.367 308.857 266.852 309.208 267.242 309.664C267.639 310.12 267.939 310.667 268.141 311.305C268.342 311.936 268.443 312.639 268.443 313.414V314.586H260.045V312.711H265.68V312.496C265.68 312.105 265.608 311.757 265.465 311.451C265.328 311.139 265.12 310.891 264.84 310.709C264.56 310.527 264.202 310.436 263.766 310.436C263.395 310.436 263.076 310.517 262.809 310.68C262.542 310.842 262.324 311.07 262.154 311.363C261.992 311.656 261.868 312.001 261.783 312.398C261.705 312.789 261.666 313.219 261.666 313.688V314.078C261.666 314.501 261.725 314.892 261.842 315.25C261.965 315.608 262.138 315.917 262.359 316.178C262.587 316.438 262.861 316.64 263.18 316.783C263.505 316.926 263.873 316.998 264.283 316.998C264.791 316.998 265.263 316.9 265.699 316.705C266.142 316.503 266.523 316.201 266.842 315.797L268.209 317.281C267.988 317.6 267.685 317.906 267.301 318.199C266.923 318.492 266.467 318.733 265.934 318.922C265.4 319.104 264.791 319.195 264.107 319.195ZM272.799 310.689V319H269.986V308.434H272.623L272.799 310.689ZM272.389 313.346H271.627C271.627 312.564 271.728 311.861 271.93 311.236C272.132 310.605 272.415 310.068 272.779 309.625C273.144 309.176 273.577 308.834 274.078 308.6C274.586 308.359 275.152 308.238 275.777 308.238C276.272 308.238 276.725 308.31 277.135 308.453C277.545 308.596 277.896 308.824 278.189 309.137C278.489 309.449 278.717 309.863 278.873 310.377C279.036 310.891 279.117 311.52 279.117 312.262V319H276.285V312.252C276.285 311.783 276.22 311.419 276.09 311.158C275.96 310.898 275.768 310.715 275.514 310.611C275.266 310.501 274.96 310.445 274.596 310.445C274.218 310.445 273.889 310.52 273.609 310.67C273.336 310.82 273.108 311.028 272.926 311.295C272.75 311.555 272.617 311.861 272.525 312.213C272.434 312.564 272.389 312.942 272.389 313.346ZM286.969 316.08C286.969 315.878 286.91 315.696 286.793 315.533C286.676 315.37 286.458 315.221 286.139 315.084C285.826 314.941 285.374 314.811 284.781 314.693C284.247 314.576 283.749 314.43 283.287 314.254C282.831 314.072 282.434 313.854 282.096 313.6C281.764 313.346 281.503 313.046 281.314 312.701C281.126 312.35 281.031 311.949 281.031 311.5C281.031 311.057 281.126 310.641 281.314 310.25C281.51 309.859 281.786 309.514 282.145 309.215C282.509 308.909 282.952 308.671 283.473 308.502C284 308.326 284.592 308.238 285.25 308.238C286.168 308.238 286.956 308.385 287.613 308.678C288.277 308.971 288.785 309.374 289.137 309.889C289.495 310.396 289.674 310.976 289.674 311.627H286.861C286.861 311.354 286.803 311.109 286.686 310.895C286.575 310.673 286.399 310.501 286.158 310.377C285.924 310.247 285.618 310.182 285.24 310.182C284.928 310.182 284.658 310.237 284.43 310.348C284.202 310.452 284.026 310.595 283.902 310.777C283.785 310.953 283.727 311.148 283.727 311.363C283.727 311.526 283.759 311.673 283.824 311.803C283.896 311.926 284.01 312.04 284.166 312.145C284.322 312.249 284.524 312.346 284.771 312.438C285.025 312.522 285.338 312.6 285.709 312.672C286.471 312.828 287.151 313.033 287.75 313.287C288.349 313.535 288.824 313.873 289.176 314.303C289.527 314.726 289.703 315.283 289.703 315.973C289.703 316.441 289.599 316.871 289.391 317.262C289.182 317.652 288.883 317.994 288.492 318.287C288.102 318.574 287.633 318.798 287.086 318.961C286.546 319.117 285.937 319.195 285.26 319.195C284.277 319.195 283.443 319.02 282.76 318.668C282.083 318.316 281.568 317.87 281.217 317.33C280.872 316.783 280.699 316.223 280.699 315.65H283.365C283.378 316.035 283.476 316.344 283.658 316.578C283.847 316.812 284.085 316.982 284.371 317.086C284.664 317.19 284.98 317.242 285.318 317.242C285.683 317.242 285.986 317.193 286.227 317.096C286.467 316.992 286.65 316.855 286.773 316.686C286.904 316.51 286.969 316.308 286.969 316.08ZM296.393 319.195C295.572 319.195 294.837 319.065 294.186 318.805C293.535 318.538 292.981 318.17 292.525 317.701C292.076 317.232 291.731 316.689 291.49 316.07C291.249 315.445 291.129 314.781 291.129 314.078V313.688C291.129 312.887 291.243 312.154 291.471 311.49C291.699 310.826 292.024 310.25 292.447 309.762C292.877 309.273 293.398 308.899 294.01 308.639C294.622 308.372 295.312 308.238 296.08 308.238C296.829 308.238 297.493 308.362 298.072 308.609C298.652 308.857 299.137 309.208 299.527 309.664C299.924 310.12 300.224 310.667 300.426 311.305C300.628 311.936 300.729 312.639 300.729 313.414V314.586H292.33V312.711H297.965V312.496C297.965 312.105 297.893 311.757 297.75 311.451C297.613 311.139 297.405 310.891 297.125 310.709C296.845 310.527 296.487 310.436 296.051 310.436C295.68 310.436 295.361 310.517 295.094 310.68C294.827 310.842 294.609 311.07 294.439 311.363C294.277 311.656 294.153 312.001 294.068 312.398C293.99 312.789 293.951 313.219 293.951 313.688V314.078C293.951 314.501 294.01 314.892 294.127 315.25C294.251 315.608 294.423 315.917 294.645 316.178C294.872 316.438 295.146 316.64 295.465 316.783C295.79 316.926 296.158 316.998 296.568 316.998C297.076 316.998 297.548 316.9 297.984 316.705C298.427 316.503 298.808 316.201 299.127 315.797L300.494 317.281C300.273 317.6 299.97 317.906 299.586 318.199C299.208 318.492 298.753 318.733 298.219 318.922C297.685 319.104 297.076 319.195 296.393 319.195ZM154.264 327.781H156.744L160.396 338.221L164.049 327.781H166.529L161.393 342H159.4L154.264 327.781ZM152.926 327.781H155.396L155.846 337.957V342H152.926V327.781ZM165.396 327.781H167.877V342H164.947V337.957L165.396 327.781ZM175.973 339.617V334.91C175.973 334.572 175.917 334.282 175.807 334.041C175.696 333.794 175.523 333.602 175.289 333.465C175.061 333.328 174.765 333.26 174.4 333.26C174.088 333.26 173.818 333.315 173.59 333.426C173.362 333.53 173.186 333.683 173.062 333.885C172.939 334.08 172.877 334.311 172.877 334.578H170.064C170.064 334.129 170.169 333.702 170.377 333.299C170.585 332.895 170.888 332.54 171.285 332.234C171.682 331.922 172.154 331.678 172.701 331.502C173.255 331.326 173.873 331.238 174.557 331.238C175.377 331.238 176.106 331.375 176.744 331.648C177.382 331.922 177.883 332.332 178.248 332.879C178.619 333.426 178.805 334.109 178.805 334.93V339.451C178.805 340.031 178.84 340.506 178.912 340.877C178.984 341.242 179.088 341.561 179.225 341.834V342H176.383C176.246 341.714 176.142 341.355 176.07 340.926C176.005 340.49 175.973 340.053 175.973 339.617ZM176.344 335.564L176.363 337.156H174.791C174.42 337.156 174.098 337.199 173.824 337.283C173.551 337.368 173.326 337.488 173.15 337.645C172.975 337.794 172.844 337.97 172.76 338.172C172.682 338.374 172.643 338.595 172.643 338.836C172.643 339.077 172.698 339.295 172.809 339.49C172.919 339.679 173.079 339.829 173.287 339.939C173.495 340.044 173.74 340.096 174.02 340.096C174.443 340.096 174.811 340.011 175.123 339.842C175.436 339.673 175.676 339.464 175.846 339.217C176.021 338.969 176.113 338.735 176.119 338.514L176.861 339.705C176.757 339.972 176.614 340.249 176.432 340.535C176.256 340.822 176.031 341.092 175.758 341.346C175.484 341.593 175.156 341.798 174.771 341.961C174.387 342.117 173.932 342.195 173.404 342.195C172.734 342.195 172.125 342.062 171.578 341.795C171.038 341.521 170.608 341.147 170.289 340.672C169.977 340.19 169.82 339.643 169.82 339.031C169.82 338.478 169.924 337.986 170.133 337.557C170.341 337.127 170.647 336.766 171.051 336.473C171.461 336.173 171.972 335.949 172.584 335.799C173.196 335.643 173.906 335.564 174.713 335.564H176.344ZM183.727 333.689V342H180.914V331.434H183.551L183.727 333.689ZM183.316 336.346H182.555C182.555 335.564 182.656 334.861 182.857 334.236C183.059 333.605 183.342 333.068 183.707 332.625C184.072 332.176 184.505 331.834 185.006 331.6C185.514 331.359 186.08 331.238 186.705 331.238C187.2 331.238 187.652 331.31 188.062 331.453C188.473 331.596 188.824 331.824 189.117 332.137C189.417 332.449 189.645 332.863 189.801 333.377C189.964 333.891 190.045 334.52 190.045 335.262V342H187.213V335.252C187.213 334.783 187.148 334.419 187.018 334.158C186.887 333.898 186.695 333.715 186.441 333.611C186.194 333.501 185.888 333.445 185.523 333.445C185.146 333.445 184.817 333.52 184.537 333.67C184.264 333.82 184.036 334.028 183.854 334.295C183.678 334.555 183.544 334.861 183.453 335.213C183.362 335.564 183.316 335.942 183.316 336.346ZM197.887 339.617V334.91C197.887 334.572 197.831 334.282 197.721 334.041C197.61 333.794 197.438 333.602 197.203 333.465C196.975 333.328 196.679 333.26 196.314 333.26C196.002 333.26 195.732 333.315 195.504 333.426C195.276 333.53 195.1 333.683 194.977 333.885C194.853 334.08 194.791 334.311 194.791 334.578H191.979C191.979 334.129 192.083 333.702 192.291 333.299C192.499 332.895 192.802 332.54 193.199 332.234C193.596 331.922 194.068 331.678 194.615 331.502C195.169 331.326 195.787 331.238 196.471 331.238C197.291 331.238 198.02 331.375 198.658 331.648C199.296 331.922 199.798 332.332 200.162 332.879C200.533 333.426 200.719 334.109 200.719 334.93V339.451C200.719 340.031 200.755 340.506 200.826 340.877C200.898 341.242 201.002 341.561 201.139 341.834V342H198.297C198.16 341.714 198.056 341.355 197.984 340.926C197.919 340.49 197.887 340.053 197.887 339.617ZM198.258 335.564L198.277 337.156H196.705C196.334 337.156 196.012 337.199 195.738 337.283C195.465 337.368 195.24 337.488 195.064 337.645C194.889 337.794 194.758 337.97 194.674 338.172C194.596 338.374 194.557 338.595 194.557 338.836C194.557 339.077 194.612 339.295 194.723 339.49C194.833 339.679 194.993 339.829 195.201 339.939C195.41 340.044 195.654 340.096 195.934 340.096C196.357 340.096 196.725 340.011 197.037 339.842C197.35 339.673 197.59 339.464 197.76 339.217C197.936 338.969 198.027 338.735 198.033 338.514L198.775 339.705C198.671 339.972 198.528 340.249 198.346 340.535C198.17 340.822 197.945 341.092 197.672 341.346C197.398 341.593 197.07 341.798 196.686 341.961C196.301 342.117 195.846 342.195 195.318 342.195C194.648 342.195 194.039 342.062 193.492 341.795C192.952 341.521 192.522 341.147 192.203 340.672C191.891 340.19 191.734 339.643 191.734 339.031C191.734 338.478 191.839 337.986 192.047 337.557C192.255 337.127 192.561 336.766 192.965 336.473C193.375 336.173 193.886 335.949 194.498 335.799C195.11 335.643 195.82 335.564 196.627 335.564H198.258ZM209.576 331.434H212.125V341.648C212.125 342.612 211.91 343.429 211.48 344.1C211.057 344.777 210.465 345.288 209.703 345.633C208.941 345.984 208.056 346.16 207.047 346.16C206.604 346.16 206.135 346.102 205.641 345.984C205.152 345.867 204.684 345.685 204.234 345.438C203.792 345.19 203.421 344.878 203.121 344.5L204.361 342.84C204.687 343.217 205.064 343.51 205.494 343.719C205.924 343.934 206.399 344.041 206.92 344.041C207.428 344.041 207.857 343.947 208.209 343.758C208.561 343.576 208.831 343.305 209.02 342.947C209.208 342.596 209.303 342.169 209.303 341.668V333.875L209.576 331.434ZM202.467 336.844V336.639C202.467 335.831 202.564 335.099 202.76 334.441C202.962 333.777 203.245 333.208 203.609 332.732C203.98 332.257 204.43 331.889 204.957 331.629C205.484 331.368 206.08 331.238 206.744 331.238C207.447 331.238 208.036 331.368 208.512 331.629C208.987 331.889 209.378 332.26 209.684 332.742C209.99 333.217 210.227 333.781 210.396 334.432C210.572 335.076 210.709 335.783 210.807 336.551V337C210.709 337.736 210.562 338.419 210.367 339.051C210.172 339.682 209.915 340.236 209.596 340.711C209.277 341.18 208.88 341.544 208.404 341.805C207.936 342.065 207.376 342.195 206.725 342.195C206.074 342.195 205.484 342.062 204.957 341.795C204.436 341.528 203.99 341.154 203.619 340.672C203.248 340.19 202.962 339.624 202.76 338.973C202.564 338.322 202.467 337.612 202.467 336.844ZM205.279 336.639V336.844C205.279 337.28 205.322 337.687 205.406 338.064C205.491 338.442 205.621 338.777 205.797 339.07C205.979 339.357 206.204 339.581 206.471 339.744C206.744 339.9 207.066 339.979 207.438 339.979C207.952 339.979 208.372 339.871 208.697 339.656C209.023 339.435 209.267 339.132 209.43 338.748C209.592 338.364 209.687 337.921 209.713 337.42V336.141C209.7 335.73 209.645 335.363 209.547 335.037C209.449 334.705 209.312 334.422 209.137 334.188C208.961 333.953 208.733 333.771 208.453 333.641C208.173 333.51 207.841 333.445 207.457 333.445C207.086 333.445 206.764 333.53 206.49 333.699C206.223 333.862 205.999 334.087 205.816 334.373C205.641 334.66 205.507 334.998 205.416 335.389C205.325 335.773 205.279 336.189 205.279 336.639ZM219.176 342.195C218.355 342.195 217.62 342.065 216.969 341.805C216.318 341.538 215.764 341.17 215.309 340.701C214.859 340.232 214.514 339.689 214.273 339.07C214.033 338.445 213.912 337.781 213.912 337.078V336.688C213.912 335.887 214.026 335.154 214.254 334.49C214.482 333.826 214.807 333.25 215.23 332.762C215.66 332.273 216.181 331.899 216.793 331.639C217.405 331.372 218.095 331.238 218.863 331.238C219.612 331.238 220.276 331.362 220.855 331.609C221.435 331.857 221.92 332.208 222.311 332.664C222.708 333.12 223.007 333.667 223.209 334.305C223.411 334.936 223.512 335.639 223.512 336.414V337.586H215.113V335.711H220.748V335.496C220.748 335.105 220.676 334.757 220.533 334.451C220.396 334.139 220.188 333.891 219.908 333.709C219.628 333.527 219.27 333.436 218.834 333.436C218.463 333.436 218.144 333.517 217.877 333.68C217.61 333.842 217.392 334.07 217.223 334.363C217.06 334.656 216.936 335.001 216.852 335.398C216.773 335.789 216.734 336.219 216.734 336.688V337.078C216.734 337.501 216.793 337.892 216.91 338.25C217.034 338.608 217.206 338.917 217.428 339.178C217.656 339.438 217.929 339.64 218.248 339.783C218.574 339.926 218.941 339.998 219.352 339.998C219.859 339.998 220.331 339.9 220.768 339.705C221.21 339.503 221.591 339.201 221.91 338.797L223.277 340.281C223.056 340.6 222.753 340.906 222.369 341.199C221.992 341.492 221.536 341.733 221.002 341.922C220.468 342.104 219.859 342.195 219.176 342.195ZM227.926 333.738V342H225.113V331.434H227.76L227.926 333.738ZM231.109 331.365L231.061 333.973C230.924 333.953 230.758 333.937 230.562 333.924C230.374 333.904 230.201 333.895 230.045 333.895C229.648 333.895 229.303 333.947 229.01 334.051C228.723 334.148 228.482 334.295 228.287 334.49C228.098 334.686 227.955 334.923 227.857 335.203C227.766 335.483 227.714 335.802 227.701 336.16L227.135 335.984C227.135 335.301 227.203 334.673 227.34 334.1C227.477 333.52 227.675 333.016 227.936 332.586C228.202 332.156 228.528 331.824 228.912 331.59C229.296 331.355 229.736 331.238 230.23 331.238C230.387 331.238 230.546 331.251 230.709 331.277C230.872 331.297 231.005 331.326 231.109 331.365Z" fill="#FF9393"/>
<g clip-path="url(#clip0_3238_5665)">
<path d="M275.784 69.5566V73.4433H60.2109V69.5566C60.2109 63.8446 64.8457 59.2148 70.5639 59.2148H265.431C271.149 59.2148 275.784 63.8446 275.784 69.5566Z" fill="#101B23" stroke="black" stroke-width="0.797059" stroke-miterlimit="10"/>
<path d="M60.2109 73.4434V216.952C60.2109 222.664 64.8457 227.298 70.5639 227.298H265.431C271.149 227.298 275.784 222.664 275.784 216.952V73.4434H60.2109Z" fill="#F27750" stroke="black" stroke-width="0.797059" stroke-miterlimit="10"/>
<path d="M239.501 69.1483C240.689 69.1483 241.651 68.1868 241.651 67.0009C241.651 65.8149 240.689 64.8535 239.501 64.8535C238.314 64.8535 237.352 65.8149 237.352 67.0009C237.352 68.1868 238.314 69.1483 239.501 69.1483Z" fill="#25BA48"/>
<path d="M250.79 69.1483C251.978 69.1483 252.94 68.1868 252.94 67.0009C252.94 65.8149 251.978 64.8535 250.79 64.8535C249.603 64.8535 248.641 65.8149 248.641 67.0009C248.641 68.1868 249.603 69.1483 250.79 69.1483Z" fill="#DBAD2C"/>
<path d="M262.079 69.1483C263.267 69.1483 264.229 68.1868 264.229 67.0009C264.229 65.8149 263.267 64.8535 262.079 64.8535C260.892 64.8535 259.93 65.8149 259.93 67.0009C259.93 68.1868 260.892 69.1483 262.079 69.1483Z" fill="#E03D3D"/>
<path d="M219.155 95.0938H82.7523C78.7513 95.0938 75.5078 98.3312 75.5078 102.325V205.422C75.5078 209.416 78.7513 212.653 82.7523 212.653H219.155C223.156 212.653 226.4 209.416 226.4 205.422V102.325C226.4 98.3312 223.156 95.0938 219.155 95.0938Z" stroke="#F6F5D8" stroke-width="0.996324" stroke-miterlimit="10"/>
<path d="M186.421 197.158V191.783L192.289 197.184H92.0391V121.904L96.8409 128.832L92.312 128.901" stroke="#F6F5D8" stroke-width="0.996324" stroke-miterlimit="10"/>
<path d="M104.438 189.965L136.409 146.894L157.727 180.269L185.437 123.206L206.755 116.748" stroke="#F6F5D8" stroke-width="0.996324" stroke-miterlimit="10"/>
<path d="M206.755 118.81C207.896 118.81 208.822 117.887 208.822 116.748C208.822 115.609 207.896 114.686 206.755 114.686C205.613 114.686 204.688 115.609 204.688 116.748C204.688 117.887 205.613 118.81 206.755 118.81Z" fill="#F6F5D8" stroke="#F6F5D8" stroke-width="0.996324" stroke-miterlimit="10"/>
<path d="M186.09 124.998C187.232 124.998 188.157 124.075 188.157 122.935C188.157 121.796 187.232 120.873 186.09 120.873C184.949 120.873 184.023 121.796 184.023 122.935C184.023 124.075 184.949 124.998 186.09 124.998Z" fill="#F6F5D8" stroke="#F6F5D8" stroke-width="0.996324" stroke-miterlimit="10"/>
<path d="M158.184 181.715C159.326 181.715 160.251 180.791 160.251 179.652C160.251 178.513 159.326 177.59 158.184 177.59C157.043 177.59 156.117 178.513 156.117 179.652C156.117 180.791 157.043 181.715 158.184 181.715Z" fill="#F6F5D8" stroke="#F6F5D8" stroke-width="0.996324" stroke-miterlimit="10"/>
<path d="M136.481 148.717C137.623 148.717 138.548 147.793 138.548 146.654C138.548 145.515 137.623 144.592 136.481 144.592C135.339 144.592 134.414 145.515 134.414 146.654C134.414 147.793 135.339 148.717 136.481 148.717Z" fill="#F6F5D8" stroke="#F6F5D8" stroke-width="0.996324" stroke-miterlimit="10"/>
<path d="M104.442 192.029C105.584 192.029 106.509 191.106 106.509 189.967C106.509 188.828 105.584 187.904 104.442 187.904C103.3 187.904 102.375 188.828 102.375 189.967C102.375 191.106 103.3 192.029 104.442 192.029Z" fill="#F6F5D8" stroke="#F6F5D8" stroke-width="0.996324" stroke-miterlimit="10"/>
<g clip-path="url(#clip1_3238_5665)">
<path d="M124.033 232.579C119.817 233.263 119.263 233.817 118.579 238.033C117.895 233.817 117.341 233.263 113.125 232.579C117.341 231.895 117.895 231.341 118.579 227.125C119.263 231.341 119.817 231.895 124.033 232.579Z" fill="#F6F5D8" stroke="black" stroke-width="0.573882" stroke-miterlimit="10"/>
</g>
</g>
<rect x="168.797" y="147.873" width="139.485" height="113.182" rx="9.96324" fill="#F6F5D8" stroke="black" stroke-width="0.797059"/>
<path d="M215.556 193.304H212.037C210.167 193.304 208.65 191.788 208.65 189.917C208.65 188.046 210.167 186.529 212.037 186.529H228.268C231.286 186.529 233.209 189.754 231.774 192.41L228.64 198.208C227.691 199.964 228.2 202.14 229.672 203.488C232.441 206.023 235.423 209.606 234.952 212.434C234.155 217.216 232.561 221.6 221.402 223.593C214.329 224.856 209.708 223.7 207.102 222.109C205.978 221.422 205.632 220.034 205.918 218.748L206.362 216.75C206.767 214.926 208.096 214.45 209.772 215.275C211.118 215.937 213.214 216.671 216.62 217.216C226.584 218.81 228.178 212.832 226.982 209.245C226.474 207.72 224.065 206.652 221.361 205.947C218.479 205.195 216.886 201.743 218.633 199.331C220.452 196.819 218.657 193.304 215.556 193.304Z" fill="#EE7171" stroke="black" stroke-width="0.797059"/>
<mask id="path-20-inside-1_3238_5665" fill="white">
<rect x="181.945" y="158.633" width="113.182" height="91.6618" rx="1.59412"/>
</mask>
<rect x="181.945" y="158.633" width="113.182" height="91.6618" rx="1.59412" stroke="#8DF1FF" stroke-width="6.37647" mask="url(#path-20-inside-1_3238_5665)"/>
<rect x="198.688" y="133.127" width="7.97059" height="28.6941" rx="3.98529" fill="#003B54"/>
<rect x="234.555" y="133.127" width="7.97059" height="28.6941" rx="3.98529" fill="#003B54"/>
<rect x="272.016" y="133.127" width="7.97059" height="28.6941" rx="3.98529" fill="#003B54"/>
<mask id="path-24-inside-2_3238_5665" fill="white">
<path fill-rule="evenodd" clip-rule="evenodd" d="M254.488 223.99C264.173 223.99 272.024 214.712 272.024 203.266C272.024 191.821 264.173 182.543 254.488 182.543C244.804 182.543 236.953 191.821 236.953 203.266C236.953 214.712 244.804 223.99 254.488 223.99ZM254.488 216.019C260.651 216.019 265.647 210.31 265.647 203.266C265.647 196.223 260.651 190.513 254.488 190.513C248.325 190.513 243.329 196.223 243.329 203.266C243.329 210.31 248.325 216.019 254.488 216.019Z"/>
</mask>
<path fill-rule="evenodd" clip-rule="evenodd" d="M254.488 223.99C264.173 223.99 272.024 214.712 272.024 203.266C272.024 191.821 264.173 182.543 254.488 182.543C244.804 182.543 236.953 191.821 236.953 203.266C236.953 214.712 244.804 223.99 254.488 223.99ZM254.488 216.019C260.651 216.019 265.647 210.31 265.647 203.266C265.647 196.223 260.651 190.513 254.488 190.513C248.325 190.513 243.329 196.223 243.329 203.266C243.329 210.31 248.325 216.019 254.488 216.019Z" fill="#EE7171"/>
<path d="M271.227 203.266C271.227 214.402 263.613 223.193 254.488 223.193V224.787C264.733 224.787 272.821 215.022 272.821 203.266H271.227ZM254.488 183.34C263.613 183.34 271.227 192.131 271.227 203.266H272.821C272.821 191.511 264.733 181.746 254.488 181.746V183.34ZM237.75 203.266C237.75 192.131 245.364 183.34 254.488 183.34V181.746C244.244 181.746 236.156 191.511 236.156 203.266H237.75ZM254.488 223.193C245.364 223.193 237.75 214.402 237.75 203.266H236.156C236.156 215.022 244.244 224.787 254.488 224.787V223.193ZM264.85 203.266C264.85 209.973 260.114 215.222 254.488 215.222V216.816C261.188 216.816 266.444 210.646 266.444 203.266H264.85ZM254.488 191.31C260.114 191.31 264.85 196.56 264.85 203.266H266.444C266.444 195.886 261.188 189.716 254.488 189.716V191.31ZM244.126 203.266C244.126 196.56 248.862 191.31 254.488 191.31V189.716C247.789 189.716 242.532 195.886 242.532 203.266H244.126ZM254.488 215.222C248.862 215.222 244.126 209.973 244.126 203.266H242.532C242.532 210.646 247.789 216.816 254.488 216.816V215.222Z" fill="black" mask="url(#path-24-inside-2_3238_5665)"/>
<g clip-path="url(#clip2_3238_5665)">
<path d="M330.727 138.707C321.692 140.172 320.504 141.36 319.039 150.395C317.574 141.36 316.386 140.172 307.352 138.707C316.386 137.242 317.574 136.054 319.039 127.02C320.504 136.054 321.692 137.242 330.727 138.707Z" fill="white" stroke="black" stroke-width="0.573882" stroke-miterlimit="10"/>
</g>
<defs>
<filter id="filter0_d_3238_5665" x="0" y="0.744141" width="386.461" height="413.514" filterUnits="userSpaceOnUse" color-interpolation-filters="sRGB">
<feFlood flood-opacity="0" result="BackgroundImageFix"/>
<feColorMatrix in="SourceAlpha" type="matrix" values="0 0 0 0 0 0 0 0 0 0 0 0 0 0 0 0 0 0 127 0" result="hardAlpha"/>
<feOffset dx="3" dy="3"/>
<feComposite in2="hardAlpha" operator="out"/>
<feColorMatrix type="matrix" values="0 0 0 0 0.808333 0 0 0 0 0.808333 0 0 0 0 0.808333 0 0 0 1 0"/>
<feBlend mode="normal" in2="BackgroundImageFix" result="effect1_dropShadow_3238_5665"/>
<feBlend mode="normal" in="SourceGraphic" in2="effect1_dropShadow_3238_5665" result="shape"/>
</filter>
<clipPath id="clip0_3238_5665">
<rect width="216.003" height="182.526" fill="white" transform="translate(60 59)"/>
</clipPath>
<clipPath id="clip1_3238_5665">
<rect width="11.1588" height="11.1588" fill="white" transform="translate(113 227)"/>
</clipPath>
<clipPath id="clip2_3238_5665">
<rect width="23.9118" height="23.9118" fill="white" transform="translate(307.086 126.75)"/>
</clipPath>
</defs>
</svg>
