<svg width="120" height="111" viewBox="0 0 120 111" fill="none" xmlns="http://www.w3.org/2000/svg">
<path d="M119.055 26.5993V94.5541C119.055 98.813 117.363 102.898 114.352 105.909C111.341 108.921 107.257 110.614 102.998 110.615H4.75779C3.81457 107.67 3.07235 104.665 2.53622 101.62C1.60634 95.877 2.53622 89.5585 6.35688 85.1542C6.98028 84.4466 7.6651 83.7956 8.40336 83.2089C12.5197 79.8784 18.0912 78.4817 23.2542 76.8943C29.3353 75.0267 35.8756 72.0815 38.2761 66.1949C39.5717 63.0201 39.4433 59.4756 39.2838 56.0557C38.9959 49.7061 38.708 43.3513 38.4201 36.9913C38.0933 29.7118 37.8559 22.0083 41.3692 15.6198C46.5905 6.11868 58.3871 2.50423 69.1643 1.32535C76.4827 0.54721 85.015 0.792324 91.5125 4.66745C94.8642 6.58138 97.4418 9.60628 98.7997 13.2192C100.274 17.1644 98.3445 23.5451 103.628 25.0586C106.021 25.7433 108.565 25.1986 111.048 25.1364C113.792 25.0277 116.526 25.5273 119.055 26.5993Z" fill="#E8F0F9"/>
<path d="M17.3635 61.5572C16.5854 63.3508 17.2546 65.6813 18.9198 66.689C20.087 67.4088 21.5849 67.436 22.9584 67.2609C24.3318 67.0859 25.6818 66.7396 27.0864 66.7824C27.4055 66.8234 27.7298 66.7929 28.0357 66.6929C28.3044 66.554 28.5324 66.3475 28.6971 66.0937C33.1909 60.106 20.0209 55.371 17.3635 61.5572Z" fill="#E8F0F9"/>
<path d="M4.62144 17.7674C3.96064 17.8495 3.31406 18.0209 2.69943 18.2771C-0.0240499 19.526 -0.681579 23.405 0.703508 26.0585C2.08859 28.7119 4.87043 30.3383 7.65228 31.4666C9.89332 32.3731 12.2861 33.089 14.1303 34.653C15.7994 36.0615 16.8771 38.0457 18.4101 39.6137C18.9278 40.2222 19.623 40.6534 20.3982 40.847C21.7599 41.0805 23.0205 40.0455 23.7987 38.9017C25.3822 36.5945 25.8452 33.6415 25.4794 30.8635C24.1838 21.0006 13.8541 16.3318 4.62144 17.7674Z" fill="#E8F0F9"/>
<path d="M40.4978 2.13072C40.0349 1.5121 40.5368 0.574446 41.2293 0.239846C41.6879 0.0498948 42.1849 -0.0290265 42.6799 0.00951187C43.1748 0.0480502 43.6536 0.202958 44.0773 0.461616C44.9181 0.987151 45.6695 1.64391 46.3028 2.40696C46.4899 2.58041 46.6246 2.8028 46.6918 3.04893C46.7657 3.51581 46.3494 3.90877 45.937 4.13443C45.0197 4.59544 43.9683 4.71552 42.9706 4.47322C41.9729 4.23092 41.0938 3.64202 40.4901 2.81159" fill="#E8F0F9"/>
<path d="M105.577 13.0792C105.117 13.8524 104.937 14.7606 105.068 15.6509C105.104 16.0322 105.231 16.3993 105.439 16.7209C105.647 17.0426 105.929 17.3095 106.262 17.499C107.309 17.9931 108.597 17.2383 109.102 16.2034C109.608 15.1685 109.542 13.9507 109.464 12.799L106.581 12.087" fill="#E8F0F9"/>
<path d="M67.5613 103.966C84.195 103.966 97.6792 103.147 97.6792 102.137C97.6792 101.127 84.195 100.308 67.5613 100.308C50.9277 100.308 37.4435 101.127 37.4435 102.137C37.4435 103.147 50.9277 103.966 67.5613 103.966Z" fill="#DFE4EA"/>
<path d="M73.6503 81.252C73.3642 77.3867 73.4502 73.5028 73.9071 69.6539C74.2348 66.2747 74.8135 62.9247 75.6384 59.6314C75.8719 58.8533 76.2026 57.6083 76.4983 56.8418L76.9924 55.4684C78.6546 50.9633 79.4685 46.1894 79.393 41.388C79.4837 39.4632 79.4499 37.5346 79.2918 35.6142C80.0686 39.4294 80.1883 43.3491 79.6459 47.2046C79.2934 50.1064 78.5892 52.9546 77.5488 55.6863L77.0663 57.0402C76.7745 57.7911 76.4477 59.0089 76.2181 59.7832C74.3973 66.7864 74.1522 74.0659 73.6503 81.252Z" fill="#964546"/>
<path d="M81.4862 100.83H66.9428C66.5816 100.831 66.2311 100.707 65.9514 100.479C65.6718 100.25 65.4803 99.9313 65.4099 99.5771L61.278 79.2054H87.5168L82.9997 99.616C82.9221 99.9598 82.7302 100.267 82.4553 100.488C82.1803 100.708 81.8386 100.829 81.4862 100.83Z" fill="#AE514F"/>
<path d="M83.3653 54.5656C83.3653 54.5656 90.3686 64.0239 91.9248 70.642L84.5092 73.0308C84.5092 73.0308 79.2179 60.5145 76.7823 58.7559L83.3653 54.5656Z" fill="#4C813C" stroke="#78AD60" stroke-width="0.95322" stroke-miterlimit="10"/>
<path d="M85.7257 65.7715C86.6 65.3436 86.8202 63.9985 86.2175 62.7671C85.6148 61.5358 84.4175 60.8845 83.5432 61.3125C82.6689 61.7404 82.4488 63.0855 83.0515 64.3168C83.6542 65.5481 84.8515 66.1994 85.7257 65.7715Z" fill="#81C562"/>
<path d="M64.6783 51.7798C64.6783 51.7798 72.7632 49.4104 75.0509 47.3755L77.7744 52.9159C77.7744 52.9159 68.8491 57.7948 66.7482 57.4836L64.6783 51.7798Z" fill="#4C813C" stroke="#78AD60" stroke-width="0.56026" stroke-miterlimit="10"/>
<path d="M71.688 53.7862C72.5594 53.4728 73.0855 52.7171 72.863 52.0984C72.6405 51.4797 71.7536 51.2321 70.8822 51.5456C70.0107 51.859 69.4846 52.6146 69.7071 53.2333C69.9296 53.8521 70.8165 54.0996 71.688 53.7862Z" fill="#81C562"/>
<path d="M76.7743 31.019C76.7743 31.019 84.8631 28.6496 87.1469 26.6147L89.8704 32.1551C89.8704 32.1551 80.9451 37.034 78.848 36.7228L76.7743 31.019Z" fill="#4C813C" stroke="#78AD60" stroke-width="0.56026" stroke-miterlimit="10"/>
<path d="M83.7873 33.0245C84.6588 32.7111 85.1849 31.9554 84.9624 31.3367C84.7398 30.7179 83.853 30.4704 82.9815 30.7839C82.11 31.0973 81.5839 31.8529 81.8065 32.4716C82.029 33.0904 82.9158 33.3379 83.7873 33.0245Z" fill="#81C562"/>
<path d="M88.3531 74.3032H60.3596C59.5624 74.3032 58.9161 74.9495 58.9161 75.7467V78.8281C58.9161 79.6253 59.5624 80.2715 60.3596 80.2715H88.3531C89.1503 80.2715 89.7966 79.6253 89.7966 78.8281V75.7467C89.7966 74.9495 89.1503 74.3032 88.3531 74.3032Z" fill="#E96E6E"/>
<path d="M79.1244 48.7256C80.1508 47.4538 81.4747 46.4545 82.9792 45.8159C84.4836 45.1774 86.1222 44.9193 87.75 45.0645L93.4927 45.4808C93.4927 45.4808 88.4621 52.1806 79.1244 48.7256Z" fill="#4C813C"/>
<path d="M74.4363 67.6889C74.4363 67.6889 70.3082 57.9232 62.0599 57.9232C62.0599 57.9077 64.7757 69.0856 74.4363 67.6889Z" fill="#4C813C"/>
<path d="M60.1184 75.9216C60.1184 75.9216 57.6128 77.6452 57.924 79.8901C58.2353 82.1351 59.0212 83.0766 60.9549 84.8508C64.6005 88.2007 67.0672 92.8189 65.9505 97.8768C65.8729 98.1597 65.8311 98.4512 65.8261 98.7444C65.8261 99.2308 67.0166 100.25 66.6042 100.69C66.2929 101.001 64.8806 101.161 63.9936 101.106C62.9042 101.044 61.7175 101.557 60.6475 101.752C57.4467 102.337 54.1617 102.28 50.9831 101.585C49.3684 101.238 47.746 100.826 46.0847 101.161C45.824 101.211 45.5633 100.69 46.0847 99.9583C46.4971 99.3825 46.3065 98.3398 46.2481 97.6823C46.1469 96.5579 45.859 95.4724 45.859 94.3324C45.8357 92.4182 46.4699 90.8308 47.4503 89.2045C48.5273 87.4172 49.9009 85.8265 51.5122 84.5006C53.5198 82.8626 55.827 79.7734 53.6132 77.3729C53.4731 77.2172 53.3253 77.0733 53.1813 76.9254C52.8156 76.5597 50.38 74.377 51.2126 73.9374C51.6841 73.7676 52.1967 73.7485 52.6794 73.8829C53.1899 73.9783 53.654 74.2411 53.9984 74.6299C54.1851 74.8478 54.547 75.7971 54.8543 75.7971C55.364 75.7971 54.7882 73.9102 55.6052 73.7078C55.7227 73.6836 55.8441 73.6842 55.9613 73.7097C56.0786 73.7352 56.1892 73.7849 56.2861 73.8557C56.7958 74.202 56.9825 74.8361 57.3132 75.3225C57.394 75.4672 57.5148 75.5856 57.661 75.6635C57.8073 75.7415 57.9729 75.7757 58.1381 75.7621C58.4532 75.6843 60.6903 74.8906 60.1184 75.9216Z" fill="#4961AD"/>
<path d="M58.3407 93.1205V93.5864H59.0008V94.3941H58.2941C58.2112 94.8548 58.0093 95.2069 57.6883 95.4502C57.3673 95.6884 56.8988 95.8075 56.2827 95.8075V96.1181C56.2827 96.32 56.3215 96.4779 56.3992 96.5918C56.4769 96.7005 56.6115 96.7549 56.803 96.7549C56.9842 96.7549 57.1137 96.7005 57.1913 96.5918C57.269 96.4831 57.3078 96.32 57.3078 96.1026H58.5348C58.5141 96.6255 58.3588 97.0319 58.0689 97.3218C57.7841 97.6117 57.3725 97.7567 56.8341 97.7567C56.2542 97.7567 55.809 97.6065 55.4984 97.3063C55.1929 97.0008 55.0402 96.5452 55.0402 95.9395V94.9377C55.5786 94.9377 55.9747 94.9273 56.2284 94.9066C56.4872 94.8807 56.6788 94.8315 56.803 94.7591C56.9325 94.6814 57.0179 94.5597 57.0593 94.3941H54.8926V93.5864H57.0981V93.1205H54.8926V92.2274H59.0008V93.1205H58.3407Z" fill="#2C4277"/>
<path d="M54.0568 80.571C54.0568 80.571 57.7374 80.9873 58.1031 80.7772C58.4688 80.5671 58.6517 82.0339 58.1031 82.1623C57.5545 82.2907 54.4458 82.4502 54.0568 82.1623C53.6677 81.8744 53.905 80.5516 54.0568 80.571Z" fill="#7089C5"/>
<path d="M84.0849 75.9216C84.0849 75.9216 81.5793 77.6452 81.8905 79.8901C82.2018 82.135 82.9877 83.0766 84.9213 84.8507C88.5669 88.2006 91.0337 92.8189 89.917 97.8768C89.8393 98.1596 89.7975 98.4511 89.7925 98.7444C89.812 99.2307 90.983 100.25 90.5706 100.69C90.2594 101.001 88.8471 101.161 87.96 101.106C86.8706 101.044 85.6839 101.557 84.614 101.752C81.4145 102.337 78.1307 102.28 74.9534 101.585C73.3349 101.238 71.7125 100.826 70.0511 101.161C69.7904 101.211 69.5298 100.69 70.0511 99.9583C70.4635 99.3825 70.2729 98.3398 70.2146 97.6822C70.1134 96.5578 69.8255 95.4723 69.8255 94.3324C69.8021 92.4181 70.4363 90.8307 71.4168 89.2044C72.4853 87.4134 73.851 85.8175 75.4553 84.485C77.4629 82.847 79.7701 79.7578 77.5563 77.3573C77.4162 77.2016 77.2684 77.0577 77.1244 76.9098C76.7587 76.5441 74.3231 74.3614 75.1557 73.9218C75.6272 73.752 76.1398 73.7329 76.6225 73.8673C77.133 73.9627 77.5971 74.2256 77.9415 74.6143C78.1321 74.8322 78.49 75.7815 78.7974 75.7815C79.3071 75.7815 78.7313 73.8946 79.5483 73.6922C79.6658 73.6678 79.7872 73.6683 79.9045 73.6937C80.0218 73.7192 80.1324 73.7691 80.2292 73.8401C80.7389 74.1864 80.9256 74.8205 81.2563 75.3069C81.3372 75.4516 81.4579 75.57 81.6041 75.6479C81.7504 75.7259 81.916 75.7601 82.0812 75.7465C82.4197 75.6843 84.6568 74.8906 84.0849 75.9216Z" fill="#4961AD"/>
<path d="M82.3073 93.1205V93.5864H82.9674V94.3941H82.2607C82.1779 94.8548 81.976 95.2069 81.655 95.4502C81.334 95.6884 80.8655 95.8075 80.2494 95.8075V96.1181C80.2494 96.32 80.2882 96.4779 80.3659 96.5918C80.4435 96.7005 80.5781 96.7549 80.7697 96.7549C80.9509 96.7549 81.0803 96.7005 81.158 96.5918C81.2357 96.4831 81.2745 96.32 81.2745 96.1026H82.5015C82.4808 96.6255 82.3255 97.0319 82.0355 97.3218C81.7508 97.6117 81.3392 97.7567 80.8008 97.7567C80.2209 97.7567 79.7757 97.6065 79.465 97.3063C79.1596 97.0008 79.0069 96.5452 79.0069 95.9395V94.9377C79.5453 94.9377 79.9413 94.9273 80.195 94.9066C80.4539 94.8807 80.6454 94.8315 80.7697 94.7591C80.8991 94.6814 80.9846 94.5597 81.026 94.3941H78.8593V93.5864H81.0648V93.1205H78.8593V92.2274H82.9674V93.1205H82.3073Z" fill="#2C4277"/>
<path d="M78.0233 80.571C78.0233 80.571 81.7039 80.9873 82.0696 80.7772C82.4354 80.5671 82.6182 82.0339 82.0696 82.1623C81.5211 82.2907 78.4124 82.4502 78.0233 82.1623C77.6342 81.8744 77.8716 80.5516 78.0233 80.571Z" fill="#7089C5"/>
</svg>
