<svg width="120" height="110" viewBox="0 0 120 110" fill="none" xmlns="http://www.w3.org/2000/svg">
<path d="M116.483 101.564C115.95 104.61 115.209 107.616 114.265 110.56H19.3873C14.2455 110.56 9.31425 108.517 5.67842 104.882C2.04259 101.246 0 96.3145 0 91.1727L0 26.5778C2.52786 25.4979 5.2639 24.9925 8.01075 25.098C10.4896 25.1587 13.0338 25.7049 15.424 25.0186C20.7085 23.5061 18.7805 17.1246 20.2556 13.1799C21.6145 9.56981 24.1921 6.54802 27.5428 4.63696C34.0364 0.762296 42.5653 0.496205 49.8852 1.29448C60.6595 2.47088 72.4516 6.08879 77.6707 15.5841C81.1812 21.9703 80.9385 29.6729 80.6164 36.9507C80.327 43.3058 80.0391 49.6578 79.7527 56.0066C79.6034 59.4238 79.468 62.967 80.7611 66.1414C83.1606 72.0281 89.7008 74.9691 95.7789 76.8364C100.942 78.4237 106.516 79.8241 110.629 83.1526C111.367 83.7444 112.05 84.4022 112.669 85.1179C116.483 89.4968 117.416 95.8223 116.483 101.564Z" fill="#E8F0F9"/>
<path d="M101.666 61.515C102.038 62.4198 102.086 63.4259 101.801 64.362C101.516 65.2982 100.916 66.1068 100.102 66.6501C98.9159 67.3643 97.4361 67.3924 96.059 67.2196C94.6818 67.0469 93.3187 66.7015 91.9322 66.7528C91.6182 66.7904 91.2998 66.7602 90.9985 66.6641C90.729 66.5244 90.5005 66.3169 90.3357 66.0619C85.8401 60.0678 99.0093 55.3342 101.666 61.515Z" fill="#E8F0F9"/>
<path d="M114.4 17.7408C115.056 17.822 115.697 17.9932 116.305 18.2496C119.031 19.5007 119.685 23.3847 118.303 26.0363C116.921 28.6879 114.134 30.3124 111.357 31.4422C109.116 32.3758 106.726 33.0667 104.877 34.6259C103.211 36.0264 102.132 38.0197 100.61 39.5883C100.092 40.1956 99.3965 40.6264 98.6217 40.8207C97.2633 41.0541 96.0028 40.0178 95.2232 38.8787C93.6407 36.5679 93.1785 33.6176 93.5427 30.8399C94.8451 20.9759 105.171 16.3076 114.4 17.7408Z" fill="#E8F0F9"/>
<path d="M78.5343 2.10674C79.0012 1.49053 78.497 0.556871 77.8061 0.239429C77.3474 0.049474 76.8503 -0.0292482 76.3554 0.00969669C75.8604 0.0486415 75.3818 0.204148 74.9584 0.463506C74.1161 0.988137 73.3642 1.64551 72.7317 2.41018C72.5523 2.57685 72.423 2.79025 72.3582 3.02639C72.2788 3.49321 72.6943 3.88535 73.1098 4.10943C74.0281 4.57019 75.0807 4.68841 76.0784 4.44284C77.076 4.19727 77.9534 3.60401 78.553 2.76963" fill="#E8F0F9"/>
<path d="M13.4771 13.0401C13.948 13.8147 14.1345 14.7291 14.0046 15.6263C13.9727 16.0108 13.8476 16.3818 13.6402 16.7071C13.4328 17.0324 13.1493 17.3024 12.8142 17.4936C11.7685 17.9604 10.4801 17.2322 9.97589 16.1958C9.47172 15.1595 9.53708 13.9457 9.61177 12.7926L12.4874 12.0831" fill="#E8F0F9"/>
<path d="M70.6029 93.6841C90.5609 93.6841 106.74 92.7017 106.74 91.49C106.74 90.2782 90.5609 89.2959 70.6029 89.2959C50.6449 89.2959 34.4658 90.2782 34.4658 91.49C34.4658 92.7017 50.6449 93.6841 70.6029 93.6841Z" fill="#DFE4EA"/>
<path d="M36.6273 84.0398C36.6273 84.0398 36.5853 87.9518 36.8327 88.8061C36.8327 88.8061 42.0425 91.5044 43.3683 92.8488L43.9519 90.5147L43.6811 88.8295L43.387 87.9518L42.7801 86.2432L41.2769 85.9071L39.3443 85.1882L38.1072 84.7214L36.73 83.9978L36.6273 84.0398Z" fill="#4C813C"/>
<path d="M61.3922 82.7372C61.3922 82.7372 60.4586 85.3654 61.3922 87.1674C61.3922 87.1674 44.4931 91.8357 43.3494 92.8487V87.9517C43.3494 87.9517 44.9412 85.8229 45.7769 85.7062C46.6125 85.5895 54.6466 84.0723 54.6466 84.0723L55.8743 83.4141L58.7267 82.5972L61.3922 82.7372Z" fill="#447538"/>
<path d="M36.6273 84.0397C36.6273 84.0397 54.4274 79.9082 56.4021 78.8719C56.4021 78.8719 60.851 81.7942 61.3925 82.7372C61.3925 82.7372 45.1236 86.7846 43.3683 87.9517C43.3683 87.9517 37.3042 85.076 36.6273 84.0397Z" fill="#78AD60"/>
<path d="M50.0857 85.7202L50.2444 90.3978L54.7866 89.044L54.8567 84.4224L50.0857 85.7202Z" fill="#E39A45"/>
<path d="M43.3494 81.7055V82.4384L44.2223 82.2284L43.3494 81.7055Z" fill="#C98532"/>
<path d="M38.3217 84.1611C38.3217 84.1611 54.2918 80.7159 56.2105 79.6375C56.2105 79.6375 60.0104 82.1957 60.1645 82.4385C60.1645 82.4385 45.4081 85.6596 43.3587 87.1067C43.3494 87.0974 38.443 84.8193 38.3217 84.1611Z" fill="#4C813C"/>
<path d="M49.2412 84.4224C51.6235 84.4224 53.5547 83.9501 53.5547 83.3674C53.5547 82.7847 51.6235 82.3124 49.2412 82.3124C46.8589 82.3124 44.9277 82.7847 44.9277 83.3674C44.9277 83.9501 46.8589 84.4224 49.2412 84.4224Z" fill="#81C562"/>
<path d="M43.3494 81.7052L50.0857 85.72L54.8567 84.4222C54.8567 84.4222 49.2547 80.8043 49.012 80.7156C49.0166 80.7296 43.9329 81.4578 43.3494 81.7052Z" fill="#FBB047"/>
<path d="M54.8615 85.2768C54.8615 85.2768 54.8149 89.1888 55.0623 90.0431C55.0623 90.0431 60.2767 92.7367 61.5979 94.0858L62.1814 91.7517L61.9153 90.0665L61.6212 89.1935L61.0143 87.4849L59.5065 87.1488L57.5785 86.4299L56.3414 85.9631L54.9782 85.2441L54.8615 85.2768Z" fill="#4C813C"/>
<path d="M79.6221 83.9979C79.6221 83.9979 78.6884 86.6261 79.6221 88.4234C79.6221 88.4234 62.7276 93.0917 61.5792 94.1093L61.6026 89.2123C61.6026 89.2123 63.1898 87.0836 64.0301 86.9622C64.8704 86.8408 72.8998 85.333 72.8998 85.333L74.1275 84.6701L76.9565 83.8625L79.6221 83.9979Z" fill="#447538"/>
<path d="M54.8615 85.2768C54.8615 85.2768 72.6569 81.1407 74.6362 80.109C74.6362 80.109 79.0851 83.0313 79.622 83.9743C79.622 83.9743 63.353 88.0171 61.6024 89.1888C61.6211 89.1888 55.5524 86.3318 54.8615 85.2768Z" fill="#78AD60"/>
<path d="M68.3201 86.9574L68.4788 91.6303L73.0163 90.2812L73.091 85.6549L68.3201 86.9574Z" fill="#E39A45"/>
<path d="M61.5792 82.9426V83.6755L62.4569 83.4608L61.5792 82.9426Z" fill="#C98532"/>
<path d="M56.556 85.3979C56.556 85.3979 72.5215 81.9527 74.4402 80.8743C74.4402 80.8743 78.2401 83.4325 78.3942 83.6753C78.3942 83.6753 63.6378 86.8964 61.5884 88.3436C61.5791 88.3342 56.6727 86.0561 56.556 85.3979Z" fill="#4C813C"/>
<path d="M67.4751 85.6595C69.8574 85.6595 71.7886 85.1871 71.7886 84.6045C71.7886 84.0218 69.8574 83.5494 67.4751 83.5494C65.0928 83.5494 63.1616 84.0218 63.1616 84.6045C63.1616 85.1871 65.0928 85.6595 67.4751 85.6595Z" fill="#81C562"/>
<path d="M61.5792 82.9427L68.3202 86.9574L73.0912 85.6549C73.0912 85.6549 67.4892 82.0417 67.2418 81.953C67.2232 81.953 62.1628 82.6953 61.5792 82.9427Z" fill="#FBB047"/>
<path d="M54.8615 78.2882C54.8615 78.2882 54.8195 82.2002 55.0669 83.0545C55.0669 83.0545 60.2767 85.7481 61.6025 87.0973L62.1907 84.7631L61.9199 83.0779L61.6258 82.2049L61.0189 80.4963L59.5157 80.1602L57.5831 79.4413L56.346 78.9745L54.9875 78.2556L54.8615 78.2882Z" fill="#4C813C"/>
<path d="M79.6268 76.9953C79.6268 76.9953 78.6931 79.6235 79.6268 81.4208C79.6268 81.4208 62.7276 86.0891 61.5792 87.1068L61.6026 82.2098C61.6026 82.2098 63.1898 80.081 64.0301 79.9597C64.8704 79.8383 72.8998 78.3304 72.8998 78.3304L74.1275 77.6675L76.9612 76.8599L79.6268 76.9953Z" fill="#447538"/>
<path d="M54.8615 78.2882C54.8615 78.2882 72.6616 74.1521 74.6362 73.1204C74.6362 73.1204 79.0851 76.0428 79.6266 76.9858C79.6266 76.9858 63.3577 81.0285 61.6024 82.2002C61.6211 82.2002 55.5524 79.3292 54.8615 78.2882Z" fill="#78AD60"/>
<path d="M68.3201 79.969L68.4788 84.642L73.021 83.2928L73.091 78.6666L68.3201 79.969Z" fill="#E39A45"/>
<path d="M61.5792 75.9543V76.6872L62.4569 76.4725L61.5792 75.9543Z" fill="#C98532"/>
<path d="M56.556 78.3956C56.556 78.3956 72.5262 74.9504 74.4402 73.8721C74.4402 73.8721 78.2448 76.4303 78.3989 76.673C78.3989 76.673 63.6425 79.8941 61.5931 81.3413C61.5791 81.346 56.6774 79.0679 56.556 78.3956Z" fill="#4C813C"/>
<path d="M67.4751 78.6712C69.8574 78.6712 71.7886 78.1989 71.7886 77.6162C71.7886 77.0335 69.8574 76.5612 67.4751 76.5612C65.0928 76.5612 63.1616 77.0335 63.1616 77.6162C63.1616 78.1989 65.0928 78.6712 67.4751 78.6712Z" fill="#81C562"/>
<path d="M61.5792 75.9543L68.3202 79.969L73.0912 78.6666C73.0912 78.6666 67.4892 75.0534 67.2418 74.9647C67.2232 74.9647 62.1674 75.7069 61.5792 75.9543Z" fill="#FBB047"/>
<path d="M49.0168 73.1438C49.0168 73.1438 48.9701 77.0511 49.2175 77.9054C49.2175 77.9054 54.432 80.6037 55.7531 81.9528L56.3367 79.6187L56.0706 77.9334L55.7765 77.0558L55.1696 75.3519L53.6664 75.0111L51.7337 74.2922L50.4967 73.8254L49.1335 73.1064L49.0168 73.1438Z" fill="#4C813C"/>
<path d="M73.7586 71.8602C73.7586 71.8602 72.8249 74.4884 73.7586 76.2857C73.7586 76.2857 56.8641 80.954 55.7157 81.9716L55.739 77.07C55.739 77.07 57.3263 74.9459 58.1665 74.8245C59.0068 74.7031 67.0363 73.1906 67.0363 73.1906L68.264 72.5324L71.093 71.7248L73.7586 71.8602Z" fill="#447538"/>
<path d="M49.017 73.1439C49.017 73.1439 66.8124 69.0078 68.7918 67.9761C68.7918 67.9761 73.2406 70.8985 73.7775 71.8415C73.7775 71.8415 57.5086 75.8842 55.758 77.0513C55.7533 77.0513 49.6845 74.1943 49.017 73.1439Z" fill="#78AD60"/>
<path d="M62.4706 74.8197L62.6293 79.4973L67.1669 78.1482L67.2415 73.5219L62.4706 74.8197Z" fill="#E39A45"/>
<path d="M55.7297 70.8052V71.5428L56.6074 71.3281L55.7297 70.8052Z" fill="#C98532"/>
<path d="M50.707 73.2604C50.707 73.2604 66.6725 69.8105 68.5912 68.7322C68.5912 68.7322 72.3911 71.2951 72.5452 71.5331C72.5452 71.5331 57.7888 74.7496 55.7394 76.2014C55.7301 76.2014 50.8237 73.9233 50.707 73.2604Z" fill="#4C813C"/>
<path d="M61.6261 73.5219C64.0084 73.5219 65.9396 73.0496 65.9396 72.4669C65.9396 71.8842 64.0084 71.4119 61.6261 71.4119C59.2438 71.4119 57.3126 71.8842 57.3126 72.4669C57.3126 73.0496 59.2438 73.5219 61.6261 73.5219Z" fill="#81C562"/>
<path d="M55.7297 70.8052L62.4707 74.8199L67.223 73.5222C67.223 73.5222 61.6211 69.9089 61.3737 69.8156C61.3924 69.8156 56.3133 70.5578 55.7297 70.8052Z" fill="#FBB047"/>
<path d="M73.5812 85.1367C73.5812 85.1367 73.5392 89.044 73.7866 89.8983C73.7866 89.8983 79.0011 92.5965 80.3222 93.9457L80.9057 91.6115L80.6349 89.9263L80.3455 89.0487L79.7386 87.3401L78.2308 87.004L76.2981 86.285L75.061 85.8182L73.7026 85.0993L73.5812 85.1367Z" fill="#4C813C"/>
<path d="M98.3462 83.8341C98.3462 83.8341 97.4126 86.4623 98.3462 88.2596C98.3462 88.2596 81.4471 92.9279 80.3033 93.9456V89.0439C80.3033 89.0439 81.8906 86.9198 82.7262 86.7985C83.5618 86.6771 91.5959 85.1646 91.5959 85.1646L92.8236 84.5063L95.6573 83.6987L98.3462 83.8341Z" fill="#447538"/>
<path d="M73.5813 85.1365C73.5813 85.1365 91.3814 81.0004 93.3561 79.9687C93.3561 79.9687 97.805 82.8864 98.3465 83.834C98.3465 83.834 82.0776 87.8767 80.327 89.0438C80.327 89.0438 74.2582 86.1682 73.5813 85.1365Z" fill="#78AD60"/>
<path d="M87.0399 86.8125L87.1986 91.4902L91.7409 90.141L91.8109 85.5148L87.0399 86.8125Z" fill="#E39A45"/>
<path d="M80.3033 82.7978V83.5354L81.1763 83.3206L80.3033 82.7978Z" fill="#C98532"/>
<path d="M75.2756 85.2536C75.2756 85.2536 91.2458 81.8084 93.1645 80.73C93.1645 80.73 96.9644 83.2929 97.1185 83.531C97.1185 83.531 82.3621 86.7474 80.3127 88.1993C80.294 88.1993 75.397 85.9165 75.2756 85.2536Z" fill="#4C813C"/>
<path d="M86.195 85.5149C88.5772 85.5149 90.5084 85.0426 90.5084 84.4599C90.5084 83.8772 88.5772 83.4048 86.195 83.4048C83.8127 83.4048 81.8815 83.8772 81.8815 84.4599C81.8815 85.0426 83.8127 85.5149 86.195 85.5149Z" fill="#81C562"/>
<path d="M80.2941 82.7978L87.0304 86.8126L91.8014 85.5148C91.8014 85.5148 86.1994 81.9015 85.9567 81.8082C85.966 81.8082 80.8869 82.5504 80.2941 82.7978Z" fill="#FBB047"/>
<path d="M74.6599 77.6769C74.6599 77.6769 74.6179 81.5889 74.8653 82.4432C74.8653 82.4432 80.0751 85.1368 81.4009 86.4859L81.9844 84.1518L81.7137 82.4665L81.4196 81.5889L80.8127 79.8803L79.3095 79.5442L77.3769 78.8253L76.1398 78.3584L74.7813 77.6395L74.6599 77.6769Z" fill="#4C813C"/>
<path d="M99.4341 76.3743C99.4341 76.3743 98.5004 79.0025 99.4341 80.7998C99.4341 80.7998 82.535 85.4681 81.3912 86.4857V81.5887C81.3912 81.5887 82.9831 79.46 83.8187 79.3386C84.6544 79.2172 92.6884 77.7094 92.6884 77.7094L93.9162 77.0465L96.7498 76.2389L99.4341 76.3743Z" fill="#447538"/>
<path d="M74.6599 77.6767C74.6599 77.6767 92.46 73.5453 94.4347 72.5089C94.4347 72.5089 98.8836 75.4312 99.4251 76.3742C99.4251 76.3742 83.1562 80.4216 81.4009 81.5887C81.4009 81.5887 75.3368 78.713 74.6599 77.6767Z" fill="#78AD60"/>
<path d="M88.1182 79.3576L88.2769 84.0306L92.8191 82.6814L92.8891 78.0552L88.1182 79.3576Z" fill="#E39A45"/>
<path d="M81.3821 75.3428V76.0757L82.255 75.861L81.3821 75.3428Z" fill="#C98532"/>
<path d="M76.3542 77.798C76.3542 77.798 92.3244 74.3528 94.2431 73.2744C94.2431 73.2744 98.043 75.8326 98.1971 76.0754C98.1971 76.0754 83.4407 79.2965 81.3913 80.7436C81.382 80.7296 76.4756 78.4562 76.3542 77.798Z" fill="#4C813C"/>
<path d="M87.2733 78.0596C89.6556 78.0596 91.5868 77.5873 91.5868 77.0046C91.5868 76.4219 89.6556 75.9496 87.2733 75.9496C84.891 75.9496 82.9598 76.4219 82.9598 77.0046C82.9598 77.5873 84.891 78.0596 87.2733 78.0596Z" fill="#81C562"/>
<path d="M81.3821 75.3428L88.1184 79.3575L92.8987 78.055C92.8987 78.055 87.2968 74.4418 87.054 74.3531C87.0447 74.3531 81.9656 75.0953 81.3821 75.3428Z" fill="#FBB047"/>
</svg>
