<svg width="102" height="83" viewBox="0 0 102 83" fill="none" xmlns="http://www.w3.org/2000/svg">
<path d="M61.0151 80.7444C80.0676 80.4484 95.4981 79.2707 95.4801 78.1139C95.4621 76.9571 80.0025 76.2593 60.95 76.5553C41.8975 76.8513 26.467 78.029 26.4849 79.1857C26.5029 80.3425 41.9626 81.0403 61.0151 80.7444Z" fill="#DFE4EA"/>
<path d="M6.83673 81.9437C9.9555 81.9437 12.4838 81.6085 12.4838 81.1949C12.4838 80.7814 9.9555 80.4462 6.83673 80.4462C3.71796 80.4462 1.1897 80.7814 1.1897 81.1949C1.1897 81.6085 3.71796 81.9437 6.83673 81.9437Z" fill="#DFE4EA"/>
<path d="M22.049 81.1949C25.1678 81.1949 27.696 80.8596 27.696 80.4461C27.696 80.0326 25.1678 79.6973 22.049 79.6973C18.9302 79.6973 16.402 80.0326 16.402 80.4461C16.402 80.8596 18.9302 81.1949 22.049 81.1949Z" fill="#DFE4EA"/>
<path d="M87.5445 63.8528C87.3616 61.5032 87.3884 59.1421 87.6247 56.7973C87.9589 53.2807 88.4715 49.733 89.7284 46.4125C90.8605 43.1098 90.5797 39.4774 90.5752 36.0187C90.3791 29.0435 89.5367 21.9256 88.8548 14.9727C88.6141 12.6372 88.3571 10.3032 88.0837 7.9707C88.4626 10.2884 88.8058 12.6149 89.1267 14.9415C89.4208 17.0407 89.7908 19.8709 89.978 21.939C90.6198 28.9543 91.3686 36.0187 90.8694 43.0697C90.7713 45.4453 89.6125 47.598 89.1223 49.9023C88.0481 54.4708 87.8965 59.1863 87.5667 63.8528H87.5445Z" fill="#964546"/>
<path d="M92.9376 77.331H82.9138C82.665 77.3308 82.4239 77.2446 82.2314 77.087C82.0389 76.9294 81.9068 76.7101 81.8575 76.4663L79.0139 62.4401H97.0827L93.9628 76.493C93.9108 76.7275 93.7814 76.9377 93.5954 77.0897C93.4095 77.2417 93.1778 77.3266 92.9376 77.331Z" fill="#AE514F"/>
<path d="M94.2301 45.4764C94.2301 45.4764 99.0437 51.9881 100.109 56.5477L95.0057 58.1923C95.0057 58.1923 91.3643 49.5724 89.684 48.3601L94.2301 45.4764Z" fill="#4C813C" stroke="#78AD60" stroke-width="1.31894" stroke-miterlimit="10"/>
<path d="M95.8614 53.2036C96.4628 52.9093 96.6134 51.9824 96.1978 51.1334C95.7823 50.2844 94.9579 49.8348 94.3566 50.1292C93.7552 50.4235 93.6046 51.3504 94.0201 52.1993C94.4357 53.0483 95.26 53.498 95.8614 53.2036Z" fill="#81C562"/>
<path d="M81.3628 43.569C81.3628 43.569 86.9296 41.9377 88.494 40.5338L90.3615 44.349C90.3615 44.349 84.2153 47.7095 82.7846 47.4956L81.3628 43.569Z" fill="#4C813C" stroke="#78AD60" stroke-width="0.771623" stroke-miterlimit="10"/>
<path d="M86.1948 44.9502C86.7947 44.7344 87.1568 44.214 87.0035 43.7878C86.8503 43.3616 86.2396 43.191 85.6397 43.4068C85.0398 43.6225 84.6777 44.1429 84.831 44.5691C84.9843 44.9953 85.5948 45.1659 86.1948 44.9502Z" fill="#81C562"/>
<path d="M86.3145 4.03523C86.3145 4.03523 91.8813 2.40396 93.4457 1L95.3131 4.81521C95.3131 4.81521 89.1669 8.1758 87.7362 7.96186L86.3145 4.03523Z" fill="#4C813C" stroke="#78AD60" stroke-width="0.771623" stroke-miterlimit="10"/>
<path d="M91.1086 5.52368C91.7085 5.30793 92.0706 4.78753 91.9173 4.36133C91.764 3.93513 91.1535 3.76452 90.5535 3.98027C89.9536 4.19602 89.5915 4.71641 89.7448 5.14262C89.8981 5.56882 90.5087 5.73943 91.1086 5.52368Z" fill="#81C562"/>
<path d="M89.5724 18.4135C89.5724 18.4135 93.8556 14.5003 94.6534 12.5481L98.0051 15.1554C98.0051 15.1554 93.9626 20.8738 92.572 21.315L89.5724 18.4135Z" fill="#4C813C" stroke="#78AD60" stroke-width="0.771623" stroke-miterlimit="10"/>
<path d="M94.4755 17.5905C94.9194 17.1329 95.0158 16.5062 94.6907 16.1909C94.3656 15.8755 93.7422 15.9908 93.2983 16.4484C92.8544 16.906 92.758 17.5326 93.0831 17.848C93.4082 18.1634 94.0316 18.0481 94.4755 17.5905Z" fill="#81C562"/>
<path d="M82.5213 28.5042C82.5213 28.5042 88.0569 30.2335 90.1472 29.9349L89.599 34.1467C89.599 34.1467 82.6238 33.5406 81.5408 32.56L82.5213 28.5042Z" fill="#4C813C" stroke="#78AD60" stroke-width="0.771623" stroke-miterlimit="10"/>
<path d="M87.0519 31.8674C87.1604 31.4277 86.7465 30.9474 86.1276 30.7947C85.5086 30.642 84.9189 30.8746 84.8104 31.3143C84.7019 31.7541 85.1157 32.2344 85.7346 32.3871C86.3536 32.5398 86.9434 32.3071 87.0519 31.8674Z" fill="#81C562"/>
<path d="M97.667 59.066H78.3904C77.8415 59.066 77.3965 59.511 77.3965 60.06V62.1815C77.3965 62.7304 77.8415 63.1754 78.3904 63.1754H97.667C98.2159 63.1754 98.6609 62.7304 98.6609 62.1815V60.06C98.6609 59.511 98.2159 59.066 97.667 59.066Z" fill="#E96E6E"/>
<path d="M91.3109 41.4562C92.017 40.5802 92.9281 39.8918 93.9636 39.4518C94.9991 39.0118 96.127 38.8338 97.2477 38.9335L101.206 39.2232C101.206 39.2232 97.7424 43.8362 91.3109 41.4562Z" fill="#4C813C"/>
<path d="M90.1565 25.9548C90.6647 25.3318 91.3184 24.8433 92.0599 24.5324C92.8014 24.2215 93.6079 24.0978 94.4085 24.172L97.2432 24.377C97.2432 24.377 94.7606 27.6574 90.1565 25.9548Z" fill="#4C813C"/>
<path d="M89.3056 16.0289C88.5557 16.3226 87.7449 16.4271 86.945 16.333C86.1451 16.2389 85.3808 15.9492 84.7194 15.4896L82.3661 13.8984C82.3661 13.8984 86.1634 12.2582 89.3056 16.0289Z" fill="#4C813C"/>
<path d="M88.6458 12.2585C88.6458 12.2585 88.5834 10.5916 89.9829 9.98097L91.378 9.37036C91.378 9.37036 91.4136 12.1426 88.6458 12.2585Z" fill="#4C813C"/>
<path d="M88.0841 54.5018C88.0841 54.5018 85.2405 47.7806 79.5623 47.7806C79.5623 47.7806 81.4297 55.4735 88.0841 54.5018Z" fill="#4C813C"/>
<path d="M24.5 72.5798C24.5 72.5798 24.4555 76.3148 24.6917 77.1305C24.6917 77.1305 29.6702 79.7066 30.9315 80.9902L31.4887 78.7617L31.2346 77.1527L30.9539 76.3148L30.3744 74.6836L28.9348 74.3627L27.0896 73.6763L25.9129 73.2306L24.6115 72.5397L24.5 72.5798Z" fill="#4C813C"/>
<path d="M48.1494 71.336C48.1494 71.336 47.2579 73.8453 48.1494 75.5657C48.1494 75.5657 32.0194 80.0228 30.923 80.9899L30.9453 76.3145C30.9453 76.3145 32.4606 74.2821 33.2629 74.1707C34.0652 74.0593 41.7312 72.6108 41.7312 72.6108L42.9034 71.9823L45.6044 71.2068L48.1494 71.336Z" fill="#447538"/>
<path d="M24.5004 72.5796C24.5004 72.5796 41.4906 68.6351 43.3803 67.6457C43.3803 67.6457 47.6278 70.4358 48.1404 71.3361C48.1404 71.3361 32.6077 75.2003 30.9363 76.3146C30.9363 76.3146 25.1422 73.5691 24.5004 72.5796Z" fill="#78AD60"/>
<path d="M37.3496 74.1841L37.5011 78.65L41.8333 77.3575L41.9047 72.945L37.3496 74.1841Z" fill="#E39A45"/>
<path d="M30.9142 70.3511V71.0508L31.7521 70.8503L30.9142 70.3511Z" fill="#C98532"/>
<path d="M26.1134 72.6956C26.1134 72.6956 41.3608 69.4063 43.1927 68.3767C43.1927 68.3767 46.8207 70.8192 46.9677 71.0509C46.9677 71.0509 32.8791 74.1263 30.9225 75.5079C30.9136 75.499 26.2293 73.324 26.1134 72.6956Z" fill="#4C813C"/>
<path d="M36.543 72.945C38.8174 72.945 40.6612 72.494 40.6612 71.9377C40.6612 71.3814 38.8174 70.9304 36.543 70.9304C34.2685 70.9304 32.4247 71.3814 32.4247 71.9377C32.4247 72.494 34.2685 72.945 36.543 72.945Z" fill="#81C562"/>
<path d="M30.9142 70.3509L37.3501 74.1839L41.9052 72.9449C41.9052 72.9449 36.5568 69.4907 36.3205 69.406C36.3205 69.4194 31.4713 70.1147 30.9142 70.3509Z" fill="#FBB047"/>
<path d="M41.9096 73.7608C41.9096 73.7608 41.8694 77.4958 42.1056 78.3114C42.1056 78.3114 47.0797 80.8831 48.3455 82.1712L48.9026 79.9427L48.6441 78.3337L48.3633 77.5003L47.7883 75.869L46.3487 75.5481L44.5035 74.8617L43.3225 74.416L42.0255 73.7296L41.9096 73.7608Z" fill="#4C813C"/>
<path d="M65.5317 72.5397C65.5317 72.5397 64.6403 75.0489 65.5317 76.7649C65.5317 76.7649 49.3973 81.2219 48.3053 82.1936V77.5181C48.3053 77.5181 49.8252 75.4857 50.623 75.3699C51.4208 75.254 59.0913 73.8144 59.0913 73.8144L60.2635 73.1815L62.9689 72.4104L65.5317 72.5397Z" fill="#447538"/>
<path d="M41.9095 73.7608C41.9095 73.7608 58.9041 69.8118 60.7895 68.8268C60.7895 68.8268 65.037 71.6169 65.554 72.5173C65.554 72.5173 50.0213 76.377 48.3455 77.4957C48.341 77.4957 42.5514 74.768 41.9095 73.7608Z" fill="#78AD60"/>
<path d="M54.7546 75.3652L54.9062 79.8267L59.2429 78.5386L59.3098 74.1217L54.7546 75.3652Z" fill="#E39A45"/>
<path d="M48.323 71.5322V72.232L49.1565 72.027L48.323 71.5322Z" fill="#C98532"/>
<path d="M43.5228 73.8763C43.5228 73.8763 58.7703 70.5871 60.6021 69.5575C60.6021 69.5575 64.2301 71.9999 64.3772 72.2317C64.3772 72.2317 50.2886 75.307 48.332 76.6887C48.3231 76.6798 43.6387 74.5048 43.5228 73.8763Z" fill="#4C813C"/>
<path d="M53.9477 74.1262C56.2222 74.1262 58.066 73.6752 58.066 73.1189C58.066 72.5626 56.2222 72.1116 53.9477 72.1116C51.6733 72.1116 49.8295 72.5626 49.8295 73.1189C49.8295 73.6752 51.6733 74.1262 53.9477 74.1262Z" fill="#81C562"/>
<path d="M48.323 71.5323L54.7544 75.3653L59.3096 74.1218C59.3096 74.1218 53.9611 70.6721 53.7294 70.5874C53.7294 70.5874 48.8801 71.2961 48.323 71.5323Z" fill="#FBB047"/>
<path d="M41.9091 67.0886C41.9091 67.0886 41.8646 70.8236 42.1008 71.6392C42.1008 71.6392 47.0793 74.2109 48.3406 75.499L48.8977 73.2705L48.6392 71.6615L48.3629 70.828L47.7835 69.1967L46.3438 68.8758L44.4987 68.1895L43.322 67.7438L42.0205 67.0574L41.9091 67.0886Z" fill="#4C813C"/>
<path d="M65.5317 65.854C65.5317 65.854 64.6403 68.3633 65.5317 70.0793C65.5317 70.0793 49.3973 74.5363 48.3053 75.5079V70.8325C48.3053 70.8325 49.8207 68.8001 50.623 68.6843C51.4252 68.5684 59.0913 67.1287 59.0913 67.1287L60.2679 66.4959L62.9689 65.7248L65.5317 65.854Z" fill="#447538"/>
<path d="M41.9095 67.0885C41.9095 67.0885 58.8997 63.1396 60.7895 62.1546C60.7895 62.1546 65.037 64.9447 65.5496 65.845C65.5496 65.845 50.0168 69.7048 48.3455 70.8235C48.3455 70.8235 42.5514 68.0824 41.9095 67.0885Z" fill="#78AD60"/>
<path d="M54.7589 68.6932L54.9105 73.1546L59.2427 71.8666L59.314 67.4496L54.7589 68.6932Z" fill="#E39A45"/>
<path d="M48.323 64.8602V65.5599L49.1609 65.3549L48.323 64.8602Z" fill="#C98532"/>
<path d="M43.5228 67.1911C43.5228 67.1911 58.7703 63.9018 60.6021 62.8723C60.6021 62.8723 64.2301 65.3147 64.3772 65.5465C64.3772 65.5465 50.2886 68.6218 48.332 70.0035C48.3231 70.0079 43.6387 67.8329 43.5228 67.1911Z" fill="#4C813C"/>
<path d="M53.9524 67.4541C56.2268 67.4541 58.0707 67.0031 58.0707 66.4468C58.0707 65.8905 56.2268 65.4395 53.9524 65.4395C51.6779 65.4395 49.8341 65.8905 49.8341 66.4468C49.8341 67.0031 51.6779 67.4541 53.9524 67.4541Z" fill="#81C562"/>
<path d="M48.323 64.8603L54.7589 68.6933L59.314 67.4498C59.314 67.4498 53.9656 64.0001 53.7294 63.9154C53.7294 63.9154 48.8801 64.6241 48.323 64.8603Z" fill="#FBB047"/>
<path d="M36.32 62.177C36.32 62.177 36.2799 65.9075 36.5161 66.7231C36.5161 66.7231 41.4946 69.2993 42.7559 70.5873L43.313 68.3588L43.0545 66.7498L42.7782 65.9119L42.1988 64.2851L40.7592 63.9598L38.914 63.2734L37.7329 62.8277L36.4358 62.1413L36.32 62.177Z" fill="#4C813C"/>
<path d="M59.9649 60.9513C59.9649 60.9513 59.0735 63.4606 59.9649 65.1766C59.9649 65.1766 43.8305 69.6336 42.7385 70.6052L42.7608 65.9254C42.7608 65.9254 44.2762 63.8974 45.074 63.7815C45.8718 63.6657 53.5423 62.2216 53.5423 62.2216L54.7145 61.5931L57.42 60.8221L59.9649 60.9513Z" fill="#447538"/>
<path d="M36.3204 62.1769C36.3204 62.1769 53.315 58.228 55.2003 57.243C55.2003 57.243 59.4479 60.0331 59.9649 60.9334C59.9649 60.9334 44.4322 64.7932 42.7609 65.9074C42.7609 65.9074 36.9667 63.1797 36.3204 62.1769Z" fill="#78AD60"/>
<path d="M49.1699 63.7769L49.3214 68.2428L53.6581 66.9547L53.725 62.5378L49.1699 63.7769Z" fill="#E39A45"/>
<path d="M42.7385 59.9441V60.6483L43.572 60.4433L42.7385 59.9441Z" fill="#C98532"/>
<path d="M37.9382 62.2882C37.9382 62.2882 53.1857 58.9945 55.0176 57.9649C55.0176 57.9649 58.6455 60.4118 58.7926 60.6391C58.7926 60.6391 44.704 63.71 42.7474 65.0961C42.7385 65.0961 38.0541 62.9211 37.9382 62.2882Z" fill="#4C813C"/>
<path d="M48.3633 62.5379C50.6377 62.5379 52.4816 62.0869 52.4816 61.5306C52.4816 60.9743 50.6377 60.5233 48.3633 60.5233C46.0888 60.5233 44.245 60.9743 44.245 61.5306C44.245 62.0869 46.0888 62.5379 48.3633 62.5379Z" fill="#81C562"/>
<path d="M42.7385 59.9441L49.17 63.7771L53.7251 62.5381C53.7251 62.5381 48.3767 59.0883 48.1449 58.9992C48.1493 58.9992 43.2957 59.7079 42.7385 59.9441Z" fill="#FBB047"/>
<path d="M59.782 73.627C59.782 73.627 59.7375 77.3575 59.9737 78.1731C59.9737 78.1731 64.9522 80.7493 66.2135 82.0374L66.7707 79.8088L66.5166 78.1999L66.2358 77.3619L65.6564 75.7307L64.2213 75.4098L62.376 74.7234L61.1949 74.2777L59.8935 73.5913L59.782 73.627Z" fill="#4C813C"/>
<path d="M83.4222 72.3834C83.4222 72.3834 82.5308 74.8927 83.4222 76.6087C83.4222 76.6087 67.2922 81.0657 66.1958 82.0373V77.3574C66.1958 77.3574 67.7112 75.3295 68.5134 75.2136C69.3157 75.0977 76.9818 73.6537 76.9818 73.6537L78.154 73.0252L80.8549 72.2542L83.4222 72.3834Z" fill="#447538"/>
<path d="M59.7821 73.6267C59.7821 73.6267 76.7722 69.6778 78.662 68.6928C78.662 68.6928 82.9096 71.4784 83.4221 72.3832C83.4221 72.3832 67.8894 76.243 66.2181 77.3573C66.2181 77.3573 60.4239 74.6117 59.7821 73.6267Z" fill="#78AD60"/>
<path d="M72.6312 75.2271L72.7827 79.6931L77.115 78.405L77.1863 73.9881L72.6312 75.2271Z" fill="#E39A45"/>
<path d="M66.1958 71.3939V72.0981L67.0337 71.8931L66.1958 71.3939Z" fill="#C98532"/>
<path d="M61.3999 73.7387C61.3999 73.7387 76.6429 70.4494 78.4748 69.4198C78.4748 69.4198 82.1028 71.8667 82.2498 72.094C82.2498 72.094 68.1612 75.1649 66.2046 76.551C66.1957 76.551 61.5202 74.3715 61.3999 73.7387Z" fill="#4C813C"/>
<path d="M71.8246 73.9882C74.099 73.9882 75.9429 73.5372 75.9429 72.9809C75.9429 72.4246 74.099 71.9736 71.8246 71.9736C69.5501 71.9736 67.7063 72.4246 67.7063 72.9809C67.7063 73.5372 69.5501 73.9882 71.8246 73.9882Z" fill="#81C562"/>
<path d="M66.1958 71.3939L72.6318 75.227L77.1868 73.9879C77.1868 73.9879 71.8384 70.5382 71.6022 70.449C71.6022 70.449 66.7529 71.1577 66.1958 71.3939Z" fill="#FBB047"/>
<path d="M60.8115 66.5049C60.8115 66.5049 60.7669 70.2399 61.0031 71.0555C61.0031 71.0555 65.9816 73.6272 67.2429 74.9153L67.8 72.6868L67.546 71.0778L67.2652 70.2399L66.6858 68.6086L65.2506 68.2877L63.4054 67.6013L62.2243 67.1556L60.9229 66.4692L60.8115 66.5049Z" fill="#4C813C"/>
<path d="M84.4513 65.2611C84.4513 65.2611 83.5599 67.7704 84.4513 69.4863C84.4513 69.4863 68.3214 73.9434 67.225 74.915V70.2396C67.225 70.2396 68.7403 68.2072 69.5426 68.0913C70.3449 67.9754 78.0109 66.5358 78.0109 66.5358L79.1831 65.9029L81.8841 65.1318L84.4513 65.2611Z" fill="#447538"/>
<path d="M60.8115 66.5045C60.8115 66.5045 77.8017 62.5601 79.6914 61.5706C79.6914 61.5706 83.9389 64.3607 84.4515 65.261C84.4515 65.261 68.9188 69.1253 67.2474 70.2395C67.2474 70.2395 61.4533 67.494 60.8115 66.5045Z" fill="#78AD60"/>
<path d="M73.6613 68.1095L73.8128 72.5709L78.145 71.2829L78.2163 66.866L73.6613 68.1095Z" fill="#E39A45"/>
<path d="M67.225 64.2762V64.9759L68.0629 64.7709L67.225 64.2762Z" fill="#C98532"/>
<path d="M62.4116 66.6205C62.4116 66.6205 77.6546 63.3312 79.4865 62.3016C79.4865 62.3016 83.1145 64.7441 83.2616 64.9758C83.2616 64.9758 69.1729 68.0512 67.2163 69.4329C67.2252 69.4195 62.5409 67.2489 62.4116 66.6205Z" fill="#4C813C"/>
<path d="M72.8547 66.8702C75.1291 66.8702 76.9729 66.4193 76.9729 65.8629C76.9729 65.3066 75.1291 64.8557 72.8547 64.8557C70.5802 64.8557 68.7363 65.3066 68.7363 65.8629C68.7363 66.4193 70.5802 66.8702 72.8547 66.8702Z" fill="#81C562"/>
<path d="M67.225 64.2763L73.6609 68.1093L78.2159 66.8658C78.2159 66.8658 72.8676 63.4161 72.6313 63.3314C72.6313 63.3314 67.7821 64.0401 67.225 64.2763Z" fill="#FBB047"/>
<path d="M59.7821 60.4166C59.7821 60.4166 59.742 64.1516 59.9783 64.9672C59.9783 64.9672 64.9523 67.5389 66.2181 68.827L66.7752 66.5985L66.5167 64.9895L66.2359 64.1561L65.6565 62.5248L64.2213 62.2039L62.3761 61.5175L61.195 61.0718L59.898 60.3854L59.7821 60.4166Z" fill="#4C813C"/>
<path d="M83.4265 59.1687C83.4265 59.1687 82.535 61.678 83.4265 63.3939C83.4265 63.3939 67.292 67.8509 66.2001 68.8226V64.1472C66.2001 64.1472 67.7199 62.1148 68.5177 61.9989C69.3155 61.883 76.986 60.4434 76.986 60.4434L78.1582 59.8105L80.8637 59.0394L83.4265 59.1687Z" fill="#447538"/>
<path d="M59.7821 60.4166C59.7821 60.4166 76.7767 56.4677 78.662 55.4827C78.662 55.4827 82.9096 58.2728 83.4266 59.1731C83.4266 59.1731 67.8939 63.0329 66.2181 64.1516C66.2181 64.1516 60.4284 61.3971 59.7821 60.4166Z" fill="#78AD60"/>
<path d="M72.6312 62.021L72.7827 66.4825L77.1194 65.1944L77.1863 60.7775L72.6312 62.021Z" fill="#E39A45"/>
<path d="M66.2001 58.1878V58.8876L67.0335 58.6825L66.2001 58.1878Z" fill="#C98532"/>
<path d="M61.3999 60.5323C61.3999 60.5323 76.6474 57.243 78.4748 56.2134C78.4748 56.2134 82.1072 58.6559 82.2543 58.8877C82.2543 58.8877 68.1657 61.963 66.209 63.3447C66.2001 63.3358 61.5202 61.1607 61.3999 60.5323Z" fill="#4C813C"/>
<path d="M71.8246 60.7818C74.099 60.7818 75.9429 60.3309 75.9429 59.7746C75.9429 59.2182 74.099 58.7673 71.8246 58.7673C69.5501 58.7673 67.7063 59.2182 67.7063 59.7746C67.7063 60.3309 69.5501 60.7818 71.8246 60.7818Z" fill="#81C562"/>
<path d="M66.2001 58.1879L72.6316 62.0209L77.1866 60.7774C77.1866 60.7774 71.8382 57.3277 71.6064 57.243C71.6064 57.243 66.7572 57.9517 66.2001 58.1879Z" fill="#FBB047"/>
<path d="M50.6094 53.7443C50.6094 53.7443 50.5648 57.4793 50.8011 58.2949C50.8011 58.2949 55.7795 60.8666 57.0409 62.1547L57.598 59.9262L57.3395 58.3172L57.0632 57.4838L56.4837 55.8525L55.0441 55.5316L53.1989 54.8452L52.0223 54.3995L50.7209 53.7131L50.6094 53.7443Z" fill="#4C813C"/>
<path d="M74.2493 52.4831C74.2493 52.4831 73.3579 54.9924 74.2493 56.7083C74.2493 56.7083 58.1149 61.1653 57.0229 62.137V57.4616C57.0229 57.4616 58.5383 55.4292 59.3406 55.3133C60.1428 55.1974 67.8089 53.7578 67.8089 53.7578L68.9811 53.1249L71.6865 52.3538L74.2493 52.4831Z" fill="#447538"/>
<path d="M50.6095 53.7443C50.6095 53.7443 67.5996 49.7954 69.4894 48.8104C69.4894 48.8104 73.737 51.6005 74.2495 52.5008C74.2495 52.5008 58.7168 56.3606 57.0454 57.4793C57.0632 57.4793 51.2691 54.7338 50.6095 53.7443Z" fill="#78AD60"/>
<path d="M63.459 55.3488L63.6105 59.8103L67.9428 58.5222L68.014 54.1053L63.459 55.3488Z" fill="#E39A45"/>
<path d="M57.0229 51.5156V52.2153L57.8609 52.0103L57.0229 51.5156Z" fill="#C98532"/>
<path d="M52.2228 53.8602C52.2228 53.8602 67.4702 50.5709 69.302 49.5413C69.302 49.5413 72.9301 51.9838 73.0772 52.2155C73.0772 52.2155 58.9885 55.2909 57.0319 56.6725C57.023 56.6636 52.3387 54.4886 52.2228 53.8602Z" fill="#4C813C"/>
<path d="M62.6523 54.11C64.9268 54.11 66.7706 53.659 66.7706 53.1027C66.7706 52.5464 64.9268 52.0954 62.6523 52.0954C60.3779 52.0954 58.5341 52.5464 58.5341 53.1027C58.5341 53.659 60.3779 54.11 62.6523 54.11Z" fill="#81C562"/>
<path d="M57.0229 51.5158L63.4544 55.3488L68.0095 54.1053C68.0095 54.1053 62.6611 50.6556 62.4293 50.5709C62.4115 50.5709 57.5801 51.2796 57.0229 51.5158Z" fill="#FBB047"/>
<path d="M53.7292 47.0721C53.7292 47.0721 53.6846 50.8071 53.9208 51.6227C53.9208 51.6227 58.8993 54.1944 60.1606 55.4825L60.7178 53.254L60.4637 51.645L60.1829 50.8115L59.6035 49.1803L58.1684 48.8594L56.3231 48.173L55.142 47.7273L53.8406 47.0409L53.7292 47.0721Z" fill="#4C813C"/>
<path d="M77.3694 45.8285C77.3694 45.8285 76.478 48.3378 77.3694 50.0538C77.3694 50.0538 61.2395 54.5108 60.1431 55.4824V50.807C60.1431 50.807 61.6584 48.7746 62.4607 48.6587C63.263 48.5429 70.929 47.1032 70.929 47.1032L72.1012 46.4703L74.8022 45.6993L77.3694 45.8285Z" fill="#447538"/>
<path d="M53.7296 47.072C53.7296 47.072 70.7198 43.1231 72.6095 42.1381C72.6095 42.1381 76.8571 44.9282 77.3696 45.8285C77.3696 45.8285 61.8414 49.6882 60.1655 50.807C60.1833 50.807 54.3893 48.0614 53.7296 47.072Z" fill="#78AD60"/>
<path d="M66.579 48.6767L66.7305 53.1382L71.0628 51.8501L71.134 47.4332L66.579 48.6767Z" fill="#E39A45"/>
<path d="M60.1431 44.8437V45.5434L60.981 45.3384L60.1431 44.8437Z" fill="#C98532"/>
<path d="M55.347 47.1879C55.347 47.1879 70.59 43.8987 72.4218 42.8691C72.4218 42.8691 76.0544 45.3115 76.197 45.5433C76.197 45.5433 62.1084 48.6186 60.1517 50.0003C60.1428 49.9914 55.4585 47.8164 55.347 47.1879Z" fill="#4C813C"/>
<path d="M65.7721 47.4377C68.0466 47.4377 69.8904 46.9867 69.8904 46.4304C69.8904 45.8741 68.0466 45.4232 65.7721 45.4232C63.4976 45.4232 61.6538 45.8741 61.6538 46.4304C61.6538 46.9867 63.4976 47.4377 65.7721 47.4377Z" fill="#81C562"/>
<path d="M60.1431 44.8436L66.579 48.6766L71.134 47.4331C71.134 47.4331 65.7857 43.9834 65.5494 43.8987C65.5316 43.8987 60.7002 44.6073 60.1431 44.8436Z" fill="#FBB047"/>
<path d="M55.8241 40.4C55.8241 40.4 55.7796 44.135 56.0158 44.9506C56.0158 44.9506 60.9943 47.5223 62.2556 48.8104L62.8172 46.5819L62.5587 44.9729L62.2779 44.1395L61.6985 42.5082L60.2634 42.1873L58.4182 41.5009L57.237 41.0552L55.94 40.3688L55.8241 40.4Z" fill="#4C813C"/>
<path d="M79.4685 39.1563C79.4685 39.1563 78.5771 41.6656 79.4685 43.3815C79.4685 43.3815 63.3341 47.8386 62.2377 48.8102L62.26 44.1348C62.26 44.1348 63.7753 42.1024 64.5776 41.9865C65.3799 41.8706 73.0459 40.431 73.0459 40.431L74.2181 39.7981L76.9191 39.027L79.4685 39.1563Z" fill="#447538"/>
<path d="M55.8242 40.3999C55.8242 40.3999 72.8144 36.451 74.7041 35.466C74.7041 35.466 78.9517 38.2561 79.4687 39.1564C79.4687 39.1564 63.936 43.0162 62.2602 44.1349C62.2602 44.1349 56.4705 41.3894 55.8242 40.3999Z" fill="#78AD60"/>
<path d="M68.6737 42.0044L68.8252 46.4659L73.1619 45.1778L73.2288 40.7609L68.6737 42.0044Z" fill="#E39A45"/>
<path d="M62.2377 38.1714V38.8712L63.0756 38.6662L62.2377 38.1714Z" fill="#C98532"/>
<path d="M57.442 40.5159C57.442 40.5159 72.6895 37.2267 74.5169 36.1971C74.5169 36.1971 78.1493 38.6395 78.292 38.8713C78.292 38.8713 64.2078 41.9466 62.2467 43.3283C62.2378 43.3194 57.5534 41.1444 57.442 40.5159Z" fill="#4C813C"/>
<path d="M67.8671 40.7654C70.1415 40.7654 71.9853 40.3144 71.9853 39.7581C71.9853 39.2018 70.1415 38.7508 67.8671 38.7508C65.5926 38.7508 63.7488 39.2018 63.7488 39.7581C63.7488 40.3144 65.5926 40.7654 67.8671 40.7654Z" fill="#81C562"/>
<path d="M62.2377 38.1717L68.6736 42.0047L73.2287 40.7612C73.2287 40.7612 67.8803 37.3115 67.644 37.2268C67.644 37.2268 62.7993 37.9355 62.2377 38.1717Z" fill="#FBB047"/>
<path d="M9.76548 81.3598L10.0686 71.7861L7.41663 74.2642L9.76548 81.3598Z" fill="#ACE0F3"/>
<path d="M6.45789 71.2693L7.41613 74.2645L10.0681 71.7864L6.45789 71.2693Z" fill="#7DD2EF"/>
<path d="M3.23132 74.3893L6.45823 71.2693L7.41647 74.2645L3.23132 74.3893Z" fill="#CCEBF7"/>
<path d="M2.80794 78.5744L3.23134 74.3892L0 77.4155L2.80794 78.5744Z" fill="#65B9DC"/>
<path d="M9.7655 81.3601L2.80811 78.5745L7.41665 74.2645L9.7655 81.3601Z" fill="#7DD2EF"/>
<path d="M0 77.4155L0.182753 81.0346L2.80794 78.5743L0 77.4155Z" fill="#7DD2EF"/>
<path d="M9.76508 81.3597L0.182495 81.0344L2.80768 78.5741L9.76508 81.3597Z" fill="#65B9DC"/>
<path d="M3.2315 74.3893L2.80811 78.5745L7.41665 74.2645L3.2315 74.3893Z" fill="#ACE0F3"/>
<path d="M22.771 81.1458L23.9744 75.9266L22.2495 77.0008L22.771 81.1458Z" fill="#ACE0F3"/>
<path d="M22.0491 75.2538L22.2497 77.001L23.9745 75.9269L22.0491 75.2538Z" fill="#7DD2EF"/>
<path d="M19.9451 76.6177L22.0488 75.2538L22.2494 77.001L19.9451 76.6177Z" fill="#CCEBF7"/>
<path d="M19.2589 78.8641L19.9453 76.6177L17.8416 77.9236L19.2589 78.8641Z" fill="#65B9DC"/>
<path d="M22.7711 81.146L19.2589 78.864L22.2496 77.001L22.7711 81.146Z" fill="#7DD2EF"/>
<path d="M17.8415 77.9235L17.5518 79.9292L19.2588 78.864L17.8415 77.9235Z" fill="#7DD2EF"/>
<path d="M22.771 81.1461L17.5518 79.9294L19.2588 78.8641L22.771 81.1461Z" fill="#65B9DC"/>
<path d="M19.9453 76.6177L19.2589 78.8641L22.2496 77.001L19.9453 76.6177Z" fill="#ACE0F3"/>
<path opacity="0.6" d="M34.1943 40.5068L27.6335 33.946" stroke="#C7DDF2" stroke-width="0.672927" stroke-miterlimit="10" stroke-linecap="round"/>
<path opacity="0.6" d="M42.2436 36.3307L40.853 29.3555" stroke="#C7DDF2" stroke-width="0.672927" stroke-miterlimit="10" stroke-linecap="round"/>
<path opacity="0.6" d="M23.3503 45.6503L30.3479 46.9206" stroke="#C7DDF2" stroke-width="0.672927" stroke-miterlimit="10" stroke-linecap="round"/>
<path opacity="0.6" d="M26.6486 50.5173L30.018 50.6644" stroke="#C7DDF2" stroke-width="0.672927" stroke-miterlimit="10" stroke-linecap="round"/>
<path opacity="0.6" d="M28.5206 41.9286L31.5158 43.4797" stroke="#C7DDF2" stroke-width="0.672927" stroke-miterlimit="10" stroke-linecap="round"/>
<path opacity="0.6" d="M36.2445 35.2388L38.0362 38.1002" stroke="#C7DDF2" stroke-width="0.672927" stroke-miterlimit="10" stroke-linecap="round"/>
</svg>
