<svg width="398" height="544" viewBox="0 0 398 544" fill="none" xmlns="http://www.w3.org/2000/svg">
<g filter="url(#filter0_d_3257_4568)">
<rect y="41" width="394" height="499" rx="30" fill="#1EDBA2"/>
</g>
<g filter="url(#filter1_d_3257_4568)">
<circle cx="185" cy="198" r="151" fill="#F6F5D8"/>
</g>
<path d="M65.6775 419V400.8H73.5555C75.1849 400.8 76.5889 401.069 77.7675 401.606C78.9462 402.126 79.8562 402.88 80.4975 403.868C81.1389 404.856 81.4595 406.035 81.4595 407.404C81.4595 408.756 81.1389 409.926 80.4975 410.914C79.8562 411.902 78.9462 412.665 77.7675 413.202C76.5889 413.722 75.1849 413.982 73.5555 413.982H68.0175L69.8895 412.084V419H65.6775ZM69.8895 412.552L68.0175 410.55H73.3215C74.6215 410.55 75.5922 410.273 76.2335 409.718C76.8749 409.163 77.1955 408.392 77.1955 407.404C77.1955 406.399 76.8749 405.619 76.2335 405.064C75.5922 404.509 74.6215 404.232 73.3215 404.232H68.0175L69.8895 402.23V412.552ZM92.6336 419V416.27L92.3736 415.672V410.784C92.3736 409.917 92.105 409.241 91.5676 408.756C91.0476 408.271 90.2416 408.028 89.1496 408.028C88.4043 408.028 87.6676 408.149 86.9396 408.392C86.229 408.617 85.6223 408.929 85.1196 409.328L83.6636 406.494C84.4263 405.957 85.345 405.541 86.4196 405.246C87.4943 404.951 88.5863 404.804 89.6956 404.804C91.8276 404.804 93.483 405.307 94.6616 406.312C95.8403 407.317 96.4296 408.886 96.4296 411.018V419H92.6336ZM88.3696 419.208C87.2776 419.208 86.3416 419.026 85.5616 418.662C84.7816 418.281 84.1836 417.769 83.7676 417.128C83.3516 416.487 83.1436 415.767 83.1436 414.97C83.1436 414.138 83.343 413.41 83.7416 412.786C84.1576 412.162 84.8076 411.677 85.6916 411.33C86.5756 410.966 87.7283 410.784 89.1496 410.784H92.8676V413.15H89.5916C88.6383 413.15 87.9796 413.306 87.6156 413.618C87.269 413.93 87.0956 414.32 87.0956 414.788C87.0956 415.308 87.295 415.724 87.6936 416.036C88.1096 416.331 88.673 416.478 89.3836 416.478C90.0596 416.478 90.6663 416.322 91.2036 416.01C91.741 415.681 92.131 415.204 92.3736 414.58L92.9976 416.452C92.703 417.353 92.1656 418.038 91.3856 418.506C90.6056 418.974 89.6003 419.208 88.3696 419.208ZM101.615 424.252C100.887 424.252 100.167 424.139 99.4566 423.914C98.7459 423.689 98.1653 423.377 97.7146 422.978L99.1966 420.092C99.5086 420.369 99.8639 420.586 100.263 420.742C100.679 420.898 101.086 420.976 101.485 420.976C102.057 420.976 102.507 420.837 102.837 420.56C103.183 420.3 103.495 419.858 103.773 419.234L104.501 417.518L104.813 417.076L109.831 405.012H113.731L107.413 419.858C106.962 420.985 106.442 421.869 105.853 422.51C105.281 423.151 104.639 423.602 103.929 423.862C103.235 424.122 102.464 424.252 101.615 424.252ZM104.007 419.546L97.7666 405.012H101.953L106.789 416.712L104.007 419.546ZM133.3 404.804C134.409 404.804 135.388 405.029 136.238 405.48C137.104 405.913 137.78 406.589 138.266 407.508C138.768 408.409 139.02 409.571 139.02 410.992V419H134.964V411.616C134.964 410.489 134.73 409.657 134.262 409.12C133.794 408.583 133.135 408.314 132.286 408.314C131.696 408.314 131.168 408.453 130.7 408.73C130.232 408.99 129.868 409.389 129.608 409.926C129.348 410.463 129.218 411.148 129.218 411.98V419H125.162V411.616C125.162 410.489 124.928 409.657 124.46 409.12C124.009 408.583 123.359 408.314 122.51 408.314C121.92 408.314 121.392 408.453 120.924 408.73C120.456 408.99 120.092 409.389 119.832 409.926C119.572 410.463 119.442 411.148 119.442 411.98V419H115.386V405.012H119.26V408.834L118.532 407.716C119.017 406.763 119.702 406.043 120.586 405.558C121.487 405.055 122.51 404.804 123.654 404.804C124.936 404.804 126.054 405.133 127.008 405.792C127.978 406.433 128.62 407.421 128.932 408.756L127.502 408.366C127.97 407.274 128.715 406.407 129.738 405.766C130.778 405.125 131.965 404.804 133.3 404.804ZM149.699 419.208C148.104 419.208 146.7 418.896 145.487 418.272C144.291 417.648 143.363 416.799 142.705 415.724C142.046 414.632 141.717 413.393 141.717 412.006C141.717 410.602 142.037 409.363 142.679 408.288C143.337 407.196 144.23 406.347 145.357 405.74C146.483 405.116 147.757 404.804 149.179 404.804C150.548 404.804 151.779 405.099 152.871 405.688C153.98 406.26 154.855 407.092 155.497 408.184C156.138 409.259 156.459 410.55 156.459 412.058C156.459 412.214 156.45 412.396 156.433 412.604C156.415 412.795 156.398 412.977 156.381 413.15H145.019V410.784H154.249L152.689 411.486C152.689 410.758 152.541 410.125 152.247 409.588C151.952 409.051 151.545 408.635 151.025 408.34C150.505 408.028 149.898 407.872 149.205 407.872C148.511 407.872 147.896 408.028 147.359 408.34C146.839 408.635 146.431 409.059 146.137 409.614C145.842 410.151 145.695 410.793 145.695 411.538V412.162C145.695 412.925 145.859 413.601 146.189 414.19C146.535 414.762 147.012 415.204 147.619 415.516C148.243 415.811 148.971 415.958 149.803 415.958C150.548 415.958 151.198 415.845 151.753 415.62C152.325 415.395 152.845 415.057 153.313 414.606L155.471 416.946C154.829 417.674 154.023 418.237 153.053 418.636C152.082 419.017 150.964 419.208 149.699 419.208ZM167.661 404.804C168.77 404.804 169.758 405.029 170.625 405.48C171.509 405.913 172.202 406.589 172.705 407.508C173.208 408.409 173.459 409.571 173.459 410.992V419H169.403V411.616C169.403 410.489 169.152 409.657 168.649 409.12C168.164 408.583 167.47 408.314 166.569 408.314C165.928 408.314 165.347 408.453 164.827 408.73C164.324 408.99 163.926 409.397 163.631 409.952C163.354 410.507 163.215 411.217 163.215 412.084V419H159.159V405.012H163.033V408.886L162.305 407.716C162.808 406.78 163.527 406.061 164.463 405.558C165.399 405.055 166.465 404.804 167.661 404.804ZM182.856 419.208C181.209 419.208 179.926 418.792 179.008 417.96C178.089 417.111 177.63 415.854 177.63 414.19V401.918H181.686V414.138C181.686 414.727 181.842 415.187 182.154 415.516C182.466 415.828 182.89 415.984 183.428 415.984C184.069 415.984 184.615 415.811 185.066 415.464L186.158 418.324C185.742 418.619 185.239 418.844 184.65 419C184.078 419.139 183.48 419.208 182.856 419.208ZM175.472 408.444V405.324H185.17V408.444H175.472ZM193.141 419.208C191.945 419.208 190.792 419.069 189.683 418.792C188.591 418.497 187.724 418.133 187.083 417.7L188.435 414.788C189.076 415.187 189.83 415.516 190.697 415.776C191.581 416.019 192.447 416.14 193.297 416.14C194.233 416.14 194.891 416.027 195.273 415.802C195.671 415.577 195.871 415.265 195.871 414.866C195.871 414.537 195.715 414.294 195.403 414.138C195.108 413.965 194.709 413.835 194.206 413.748C193.704 413.661 193.149 413.575 192.543 413.488C191.953 413.401 191.355 413.289 190.749 413.15C190.142 412.994 189.587 412.769 189.085 412.474C188.582 412.179 188.175 411.781 187.863 411.278C187.568 410.775 187.42 410.125 187.42 409.328C187.42 408.444 187.672 407.664 188.175 406.988C188.695 406.312 189.44 405.783 190.411 405.402C191.381 405.003 192.543 404.804 193.895 404.804C194.848 404.804 195.819 404.908 196.807 405.116C197.795 405.324 198.618 405.627 199.277 406.026L197.925 408.912C197.249 408.513 196.564 408.245 195.871 408.106C195.195 407.95 194.536 407.872 193.895 407.872C192.993 407.872 192.335 407.993 191.919 408.236C191.503 408.479 191.295 408.791 191.295 409.172C191.295 409.519 191.442 409.779 191.737 409.952C192.049 410.125 192.456 410.264 192.959 410.368C193.461 410.472 194.007 410.567 194.597 410.654C195.203 410.723 195.81 410.836 196.417 410.992C197.023 411.148 197.569 411.373 198.055 411.668C198.557 411.945 198.965 412.335 199.277 412.838C199.589 413.323 199.745 413.965 199.745 414.762C199.745 415.629 199.485 416.4 198.965 417.076C198.445 417.735 197.691 418.255 196.703 418.636C195.732 419.017 194.545 419.208 193.141 419.208ZM212.808 419L207.764 405.012H211.586L215.772 417.05H213.952L218.32 405.012H221.752L225.99 417.05H224.17L228.486 405.012H232.074L227.004 419H223.078L219.36 408.678H220.556L216.708 419H212.808ZM233.96 419V405.012H238.016V419H233.96ZM235.988 403.062C235.243 403.062 234.636 402.845 234.168 402.412C233.7 401.979 233.466 401.441 233.466 400.8C233.466 400.159 233.7 399.621 234.168 399.188C234.636 398.755 235.243 398.538 235.988 398.538C236.733 398.538 237.34 398.746 237.808 399.162C238.276 399.561 238.51 400.081 238.51 400.722C238.51 401.398 238.276 401.961 237.808 402.412C237.357 402.845 236.751 403.062 235.988 403.062ZM247.5 419.208C245.854 419.208 244.571 418.792 243.652 417.96C242.734 417.111 242.274 415.854 242.274 414.19V401.918H246.33V414.138C246.33 414.727 246.486 415.187 246.798 415.516C247.11 415.828 247.535 415.984 248.072 415.984C248.714 415.984 249.26 415.811 249.71 415.464L250.802 418.324C250.386 418.619 249.884 418.844 249.294 419C248.722 419.139 248.124 419.208 247.5 419.208ZM240.116 408.444V405.324H249.814V408.444H240.116ZM261.581 404.804C262.69 404.804 263.678 405.029 264.545 405.48C265.429 405.913 266.122 406.589 266.625 407.508C267.128 408.409 267.379 409.571 267.379 410.992V419H263.323V411.616C263.323 410.489 263.072 409.657 262.569 409.12C262.084 408.583 261.39 408.314 260.489 408.314C259.848 408.314 259.267 408.453 258.747 408.73C258.244 408.99 257.846 409.397 257.551 409.952C257.274 410.507 257.135 411.217 257.135 412.084V419H253.079V399.708H257.135V408.886L256.225 407.716C256.728 406.78 257.447 406.061 258.383 405.558C259.319 405.055 260.385 404.804 261.581 404.804ZM277.379 424.252C276.755 424.252 276.157 424.183 275.585 424.044C275.013 423.923 274.528 423.732 274.129 423.472L275.221 420.534C275.689 420.863 276.261 421.028 276.937 421.028C277.44 421.028 277.838 420.855 278.133 420.508C278.445 420.179 278.601 419.676 278.601 419V405.012H282.657V418.974C282.657 420.586 282.198 421.869 281.279 422.822C280.36 423.775 279.06 424.252 277.379 424.252ZM280.629 403.062C279.884 403.062 279.277 402.845 278.809 402.412C278.341 401.979 278.107 401.441 278.107 400.8C278.107 400.159 278.341 399.621 278.809 399.188C279.277 398.755 279.884 398.538 280.629 398.538C281.374 398.538 281.981 398.746 282.449 399.162C282.917 399.561 283.151 400.081 283.151 400.722C283.151 401.398 282.917 401.961 282.449 402.412C281.998 402.845 281.392 403.062 280.629 403.062ZM292.294 419.208C291.132 419.208 290.092 418.983 289.174 418.532C288.272 418.081 287.57 417.397 287.068 416.478C286.565 415.542 286.314 414.355 286.314 412.916V405.012H290.37V412.318C290.37 413.479 290.612 414.337 291.098 414.892C291.6 415.429 292.302 415.698 293.204 415.698C293.828 415.698 294.382 415.568 294.868 415.308C295.353 415.031 295.734 414.615 296.012 414.06C296.289 413.488 296.428 412.777 296.428 411.928V405.012H300.484V419H296.636V415.152L297.338 416.27C296.87 417.241 296.176 417.977 295.258 418.48C294.356 418.965 293.368 419.208 292.294 419.208ZM308.947 419.208C307.751 419.208 306.598 419.069 305.489 418.792C304.397 418.497 303.53 418.133 302.889 417.7L304.241 414.788C304.882 415.187 305.636 415.516 306.503 415.776C307.387 416.019 308.254 416.14 309.103 416.14C310.039 416.14 310.698 416.027 311.079 415.802C311.478 415.577 311.677 415.265 311.677 414.866C311.677 414.537 311.521 414.294 311.209 414.138C310.914 413.965 310.516 413.835 310.013 413.748C309.51 413.661 308.956 413.575 308.349 413.488C307.76 413.401 307.162 413.289 306.555 413.15C305.948 412.994 305.394 412.769 304.891 412.474C304.388 412.179 303.981 411.781 303.669 411.278C303.374 410.775 303.227 410.125 303.227 409.328C303.227 408.444 303.478 407.664 303.981 406.988C304.501 406.312 305.246 405.783 306.217 405.402C307.188 405.003 308.349 404.804 309.701 404.804C310.654 404.804 311.625 404.908 312.613 405.116C313.601 405.324 314.424 405.627 315.083 406.026L313.731 408.912C313.055 408.513 312.37 408.245 311.677 408.106C311.001 407.95 310.342 407.872 309.701 407.872C308.8 407.872 308.141 407.993 307.725 408.236C307.309 408.479 307.101 408.791 307.101 409.172C307.101 409.519 307.248 409.779 307.543 409.952C307.855 410.125 308.262 410.264 308.765 410.368C309.268 410.472 309.814 410.567 310.403 410.654C311.01 410.723 311.616 410.836 312.223 410.992C312.83 411.148 313.376 411.373 313.861 411.668C314.364 411.945 314.771 412.335 315.083 412.838C315.395 413.323 315.551 413.965 315.551 414.762C315.551 415.629 315.291 416.4 314.771 417.076C314.251 417.735 313.497 418.255 312.509 418.636C311.538 419.017 310.351 419.208 308.947 419.208ZM323.774 419.208C322.127 419.208 320.844 418.792 319.926 417.96C319.007 417.111 318.548 415.854 318.548 414.19V401.918H322.604V414.138C322.604 414.727 322.76 415.187 323.072 415.516C323.384 415.828 323.808 415.984 324.346 415.984C324.987 415.984 325.533 415.811 325.984 415.464L327.076 418.324C326.66 418.619 326.157 418.844 325.568 419C324.996 419.139 324.398 419.208 323.774 419.208ZM316.39 408.444V405.324H326.088V408.444H316.39ZM126.848 451V448.27L126.588 447.672V442.784C126.588 441.917 126.319 441.241 125.782 440.756C125.262 440.271 124.456 440.028 123.364 440.028C122.618 440.028 121.882 440.149 121.154 440.392C120.443 440.617 119.836 440.929 119.334 441.328L117.878 438.494C118.64 437.957 119.559 437.541 120.634 437.246C121.708 436.951 122.8 436.804 123.91 436.804C126.042 436.804 127.697 437.307 128.876 438.312C130.054 439.317 130.644 440.886 130.644 443.018V451H126.848ZM122.584 451.208C121.492 451.208 120.556 451.026 119.776 450.662C118.996 450.281 118.398 449.769 117.982 449.128C117.566 448.487 117.358 447.767 117.358 446.97C117.358 446.138 117.557 445.41 117.956 444.786C118.372 444.162 119.022 443.677 119.906 443.33C120.79 442.966 121.942 442.784 123.364 442.784H127.082V445.15H123.806C122.852 445.15 122.194 445.306 121.83 445.618C121.483 445.93 121.31 446.32 121.31 446.788C121.31 447.308 121.509 447.724 121.908 448.036C122.324 448.331 122.887 448.478 123.598 448.478C124.274 448.478 124.88 448.322 125.418 448.01C125.955 447.681 126.345 447.204 126.588 446.58L127.212 448.452C126.917 449.353 126.38 450.038 125.6 450.506C124.82 450.974 123.814 451.208 122.584 451.208Z" fill="black"/>
<path d="M146.384 451.208C145.188 451.208 144.035 451.069 142.926 450.792C141.834 450.497 140.967 450.133 140.326 449.7L141.678 446.788C142.319 447.187 143.073 447.516 143.94 447.776C144.824 448.019 145.69 448.14 146.54 448.14C147.476 448.14 148.134 448.027 148.516 447.802C148.914 447.577 149.114 447.265 149.114 446.866C149.114 446.537 148.958 446.294 148.646 446.138C148.351 445.965 147.952 445.835 147.45 445.748C146.947 445.661 146.392 445.575 145.786 445.488C145.196 445.401 144.598 445.289 143.992 445.15C143.385 444.994 142.83 444.769 142.328 444.474C141.825 444.179 141.418 443.781 141.106 443.278C140.811 442.775 140.664 442.125 140.664 441.328C140.664 440.444 140.915 439.664 141.418 438.988C141.938 438.312 142.683 437.783 143.654 437.402C144.624 437.003 145.786 436.804 147.138 436.804C148.091 436.804 149.062 436.908 150.05 437.116C151.038 437.324 151.861 437.627 152.52 438.026L151.168 440.912C150.492 440.513 149.807 440.245 149.114 440.106C148.438 439.95 147.779 439.872 147.138 439.872C146.236 439.872 145.578 439.993 145.162 440.236C144.746 440.479 144.538 440.791 144.538 441.172C144.538 441.519 144.685 441.779 144.98 441.952C145.292 442.125 145.699 442.264 146.202 442.368C146.704 442.472 147.25 442.567 147.84 442.654C148.446 442.723 149.053 442.836 149.66 442.992C150.266 443.148 150.812 443.373 151.298 443.668C151.8 443.945 152.208 444.335 152.52 444.838C152.832 445.323 152.988 445.965 152.988 446.762C152.988 447.629 152.728 448.4 152.208 449.076C151.688 449.735 150.934 450.255 149.946 450.636C148.975 451.017 147.788 451.208 146.384 451.208ZM155.49 451V437.012H159.546V451H155.49ZM157.518 435.062C156.773 435.062 156.166 434.845 155.698 434.412C155.23 433.979 154.996 433.441 154.996 432.8C154.996 432.159 155.23 431.621 155.698 431.188C156.166 430.755 156.773 430.538 157.518 430.538C158.263 430.538 158.87 430.746 159.338 431.162C159.806 431.561 160.04 432.081 160.04 432.722C160.04 433.398 159.806 433.961 159.338 434.412C158.887 434.845 158.281 435.062 157.518 435.062ZM171.812 436.804C172.922 436.804 173.91 437.029 174.776 437.48C175.66 437.913 176.354 438.589 176.856 439.508C177.359 440.409 177.61 441.571 177.61 442.992V451H173.554V443.616C173.554 442.489 173.303 441.657 172.8 441.12C172.315 440.583 171.622 440.314 170.72 440.314C170.079 440.314 169.498 440.453 168.978 440.73C168.476 440.99 168.077 441.397 167.782 441.952C167.505 442.507 167.366 443.217 167.366 444.084V451H163.31V437.012H167.184V440.886L166.456 439.716C166.959 438.78 167.678 438.061 168.614 437.558C169.55 437.055 170.616 436.804 171.812 436.804ZM187.967 456.252C186.649 456.252 185.375 456.087 184.145 455.758C182.931 455.446 181.917 454.969 181.103 454.328L182.715 451.416C183.304 451.901 184.049 452.283 184.951 452.56C185.869 452.855 186.771 453.002 187.655 453.002C189.093 453.002 190.133 452.681 190.775 452.04C191.433 451.399 191.763 450.445 191.763 449.18V447.074L192.023 443.564L191.971 440.028V437.012H195.819V448.66C195.819 451.26 195.143 453.175 193.791 454.406C192.439 455.637 190.497 456.252 187.967 456.252ZM187.343 450.324C186.043 450.324 184.864 450.047 183.807 449.492C182.767 448.92 181.926 448.131 181.285 447.126C180.661 446.103 180.349 444.916 180.349 443.564C180.349 442.195 180.661 441.007 181.285 440.002C181.926 438.979 182.767 438.191 183.807 437.636C184.864 437.081 186.043 436.804 187.343 436.804C188.521 436.804 189.561 437.047 190.463 437.532C191.364 438 192.066 438.737 192.569 439.742C193.071 440.73 193.323 442.004 193.323 443.564C193.323 445.107 193.071 446.381 192.569 447.386C192.066 448.374 191.364 449.111 190.463 449.596C189.561 450.081 188.521 450.324 187.343 450.324ZM188.149 446.996C188.859 446.996 189.492 446.857 190.047 446.58C190.601 446.285 191.035 445.878 191.347 445.358C191.659 444.838 191.815 444.24 191.815 443.564C191.815 442.871 191.659 442.273 191.347 441.77C191.035 441.25 190.601 440.851 190.047 440.574C189.492 440.279 188.859 440.132 188.149 440.132C187.438 440.132 186.805 440.279 186.251 440.574C185.696 440.851 185.254 441.25 184.925 441.77C184.613 442.273 184.457 442.871 184.457 443.564C184.457 444.24 184.613 444.838 184.925 445.358C185.254 445.878 185.696 446.285 186.251 446.58C186.805 446.857 187.438 446.996 188.149 446.996ZM199.594 451V431.708H203.65V451H199.594ZM214.356 451.208C212.761 451.208 211.357 450.896 210.144 450.272C208.948 449.648 208.021 448.799 207.362 447.724C206.703 446.632 206.374 445.393 206.374 444.006C206.374 442.602 206.695 441.363 207.336 440.288C207.995 439.196 208.887 438.347 210.014 437.74C211.141 437.116 212.415 436.804 213.836 436.804C215.205 436.804 216.436 437.099 217.528 437.688C218.637 438.26 219.513 439.092 220.154 440.184C220.795 441.259 221.116 442.55 221.116 444.058C221.116 444.214 221.107 444.396 221.09 444.604C221.073 444.795 221.055 444.977 221.038 445.15H209.676V442.784H218.906L217.346 443.486C217.346 442.758 217.199 442.125 216.904 441.588C216.609 441.051 216.202 440.635 215.682 440.34C215.162 440.028 214.555 439.872 213.862 439.872C213.169 439.872 212.553 440.028 212.016 440.34C211.496 440.635 211.089 441.059 210.794 441.614C210.499 442.151 210.352 442.793 210.352 443.538V444.162C210.352 444.925 210.517 445.601 210.846 446.19C211.193 446.762 211.669 447.204 212.276 447.516C212.9 447.811 213.628 447.958 214.46 447.958C215.205 447.958 215.855 447.845 216.41 447.62C216.982 447.395 217.502 447.057 217.97 446.606L220.128 448.946C219.487 449.674 218.681 450.237 217.71 450.636C216.739 451.017 215.621 451.208 214.356 451.208ZM236.9 451.208C235.253 451.208 233.97 450.792 233.052 449.96C232.133 449.111 231.674 447.854 231.674 446.19V433.918H235.73V446.138C235.73 446.727 235.886 447.187 236.198 447.516C236.51 447.828 236.934 447.984 237.472 447.984C238.113 447.984 238.659 447.811 239.11 447.464L240.202 450.324C239.786 450.619 239.283 450.844 238.694 451C238.122 451.139 237.524 451.208 236.9 451.208ZM229.516 440.444V437.324H239.214V440.444H229.516ZM251.058 451V448.27L250.798 447.672V442.784C250.798 441.917 250.53 441.241 249.992 440.756C249.472 440.271 248.666 440.028 247.574 440.028C246.829 440.028 246.092 440.149 245.364 440.392C244.654 440.617 244.047 440.929 243.544 441.328L242.088 438.494C242.851 437.957 243.77 437.541 244.844 437.246C245.919 436.951 247.011 436.804 248.12 436.804C250.252 436.804 251.908 437.307 253.086 438.312C254.265 439.317 254.854 440.886 254.854 443.018V451H251.058ZM246.794 451.208C245.702 451.208 244.766 451.026 243.986 450.662C243.206 450.281 242.608 449.769 242.192 449.128C241.776 448.487 241.568 447.767 241.568 446.97C241.568 446.138 241.768 445.41 242.166 444.786C242.582 444.162 243.232 443.677 244.116 443.33C245 442.966 246.153 442.784 247.574 442.784H251.292V445.15H248.016C247.063 445.15 246.404 445.306 246.04 445.618C245.694 445.93 245.52 446.32 245.52 446.788C245.52 447.308 245.72 447.724 246.118 448.036C246.534 448.331 247.098 448.478 247.808 448.478C248.484 448.478 249.091 448.322 249.628 448.01C250.166 447.681 250.556 447.204 250.798 446.58L251.422 448.452C251.128 449.353 250.59 450.038 249.81 450.506C249.03 450.974 248.025 451.208 246.794 451.208ZM266.793 451.208C265.615 451.208 264.583 450.948 263.699 450.428C262.815 449.908 262.122 449.119 261.619 448.062C261.134 446.987 260.891 445.635 260.891 444.006C260.891 442.359 261.125 441.007 261.593 439.95C262.061 438.893 262.737 438.104 263.621 437.584C264.505 437.064 265.563 436.804 266.793 436.804C268.111 436.804 269.289 437.107 270.329 437.714C271.387 438.303 272.219 439.135 272.825 440.21C273.449 441.285 273.761 442.55 273.761 444.006C273.761 445.479 273.449 446.753 272.825 447.828C272.219 448.903 271.387 449.735 270.329 450.324C269.289 450.913 268.111 451.208 266.793 451.208ZM258.525 456.044V437.012H262.399V439.872L262.321 444.032L262.581 448.166V456.044H258.525ZM266.091 447.88C266.767 447.88 267.365 447.724 267.885 447.412C268.423 447.1 268.847 446.658 269.159 446.086C269.489 445.497 269.653 444.803 269.653 444.006C269.653 443.191 269.489 442.498 269.159 441.926C268.847 441.354 268.423 440.912 267.885 440.6C267.365 440.288 266.767 440.132 266.091 440.132C265.415 440.132 264.809 440.288 264.271 440.6C263.734 440.912 263.309 441.354 262.997 441.926C262.685 442.498 262.529 443.191 262.529 444.006C262.529 444.803 262.685 445.497 262.997 446.086C263.309 446.658 263.734 447.1 264.271 447.412C264.809 447.724 265.415 447.88 266.091 447.88Z" fill="white"/>
<path d="M240.065 7.66538V211.02C240.065 215.252 236.634 218.685 232.399 218.685H125.666C123.637 218.685 121.794 217.9 120.425 216.608C120.224 216.424 120.035 216.227 119.857 216.017C118.699 214.676 118 212.928 118 211.02V7.66538C118 3.43294 121.433 0 125.666 0H232.399C234.35 0 236.133 0.730715 237.486 1.93139H237.489C238.128 2.50163 238.672 3.17505 239.093 3.92869C239.712 5.0348 240.065 6.3071 240.065 7.66538Z" fill="#4E57E7"/>
<path d="M159.796 4.25781H162.263C163.473 4.25781 164.45 5.23784 164.45 6.44424V12.0235C164.45 13.8632 165.94 15.3533 167.78 15.3533H193.49C195.33 15.3533 196.82 13.8632 196.82 12.0235V6.55313V6.44424C196.82 5.23497 197.801 4.25781 199.007 4.25781H201.475H229.816C234.049 4.25781 237.482 7.69075 237.482 11.9232V208.054C237.482 212.286 234.049 215.719 229.816 215.719H127.471C123.238 215.719 119.805 212.286 119.805 208.054V11.9232C119.805 7.69075 123.238 4.25781 127.471 4.25781H162.263" fill="#F6F5D8"/>
<path d="M186.134 9.16016H168.196C167.484 9.16016 166.906 9.73749 166.906 10.4497C166.906 11.1618 167.484 11.7392 168.196 11.7392H186.134C186.846 11.7392 187.423 11.1618 187.423 10.4497C187.423 9.73749 186.846 9.16016 186.134 9.16016Z" fill="white" stroke="black" stroke-width="0.87" stroke-miterlimit="10"/>
<path d="M192.071 11.7393C192.926 11.7393 193.619 11.0465 193.619 10.1919C193.619 9.33733 192.926 8.64453 192.071 8.64453C191.216 8.64453 190.523 9.33733 190.523 10.1919C190.523 11.0465 191.216 11.7393 192.071 11.7393Z" fill="white" stroke="black" stroke-width="0.87" stroke-miterlimit="10"/>
<path d="M136.553 47.4092L137.846 48.9193C138.138 49.2603 138.657 49.2947 138.992 48.9938L144.085 44.4204C144.423 44.1166 144.948 44.1539 145.237 44.5035L145.503 44.8244C145.779 45.154 145.744 45.6411 145.429 45.9305L138.843 51.9683C138.516 52.2663 138.009 52.2462 137.708 51.9195L134.882 48.8362C134.564 48.4895 134.613 47.945 134.986 47.6585L135.456 47.2974C135.794 47.0395 136.275 47.0882 136.553 47.412V47.4092Z" fill="#0DA08B" stroke="black" stroke-miterlimit="10"/>
<path d="M136.553 146.368L137.846 147.878C138.138 148.219 138.657 148.254 138.992 147.953L144.085 143.379C144.423 143.076 144.948 143.113 145.237 143.462L145.503 143.783C145.779 144.113 145.744 144.6 145.429 144.89L138.843 150.927C138.516 151.225 138.009 151.205 137.708 150.879L134.882 147.795C134.564 147.448 134.613 146.904 134.986 146.617L135.456 146.256C135.794 145.998 136.275 146.047 136.553 146.371V146.368Z" fill="#0DA08B" stroke="black" stroke-miterlimit="10"/>
<path d="M219.102 42.1895H164.005C162.401 42.1895 161.102 43.4891 161.102 45.0923C161.102 46.6954 162.401 47.9951 164.005 47.9951H219.102C220.705 47.9951 222.005 46.6954 222.005 45.0923C222.005 43.4891 220.705 42.1895 219.102 42.1895Z" fill="#BFCDFF"/>
<path d="M200.459 140.371H162.907C161.91 140.371 161.102 141.179 161.102 142.176V142.179C161.102 143.176 161.91 143.985 162.907 143.985H200.459C201.456 143.985 202.265 143.176 202.265 142.179V142.176C202.265 141.179 201.456 140.371 200.459 140.371Z" fill="#BFCDFF"/>
<path d="M186.19 146.885H162.962C161.965 146.885 161.156 147.693 161.156 148.69V148.693C161.156 149.69 161.965 150.498 162.962 150.498H186.19C187.187 150.498 187.996 149.69 187.996 148.693V148.69C187.996 147.693 187.187 146.885 186.19 146.885Z" fill="#BFCDFF"/>
<path d="M194.973 153.469H162.454C161.457 153.469 160.648 154.277 160.648 155.274V155.277C160.648 156.274 161.457 157.082 162.454 157.082H194.973C195.971 157.082 196.779 156.274 196.779 155.277V155.274C196.779 154.277 195.971 153.469 194.973 153.469Z" fill="#BFCDFF"/>
<path d="M208.419 170.689H135.836C134.999 170.689 134.32 171.368 134.32 172.205C134.32 173.043 134.999 173.721 135.836 173.721H208.419C209.256 173.721 209.935 173.043 209.935 172.205C209.935 171.368 209.256 170.689 208.419 170.689Z" fill="#BFCDFF"/>
<path d="M179.45 178.305H135.836C134.999 178.305 134.32 178.983 134.32 179.821C134.32 180.658 134.999 181.336 135.836 181.336H179.45C180.287 181.336 180.966 180.658 180.966 179.821C180.966 178.983 180.287 178.305 179.45 178.305Z" fill="#BFCDFF"/>
<path d="M200.006 50.7031H164.005C162.401 50.7031 161.102 52.0028 161.102 53.6059C161.102 55.2091 162.401 56.5088 164.005 56.5088H200.006C201.61 56.5088 202.91 55.2091 202.91 53.6059C202.91 52.0028 201.61 50.7031 200.006 50.7031Z" fill="#BFCDFF"/>
<path d="M244.903 14.728V213.194C244.903 219.217 240.016 224.103 233.992 224.103H131.224C128.916 224.103 126.707 223.16 125.108 221.495L120.422 216.607C121.792 217.899 123.635 218.684 125.664 218.684H232.396C236.632 218.684 240.062 215.251 240.062 211.019V7.66442C240.062 6.30614 239.71 5.03384 239.091 3.92773L242.667 8.37794C244.112 10.1775 244.903 12.4184 244.903 14.728Z" fill="#203FB0"/>
<path d="M219.572 75.0234H136.437C134.202 75.0234 132.391 76.835 132.391 79.0696V128.26C132.391 130.494 134.202 132.306 136.437 132.306H219.572C221.807 132.306 223.618 130.494 223.618 128.26V79.0696C223.618 76.835 221.807 75.0234 219.572 75.0234Z" fill="#1EDBA2"/>
<path d="M287.222 234.393C286.448 241.623 283.327 250.881 273.067 257.633C262.81 264.387 252.679 264.255 249.564 264.126C249.094 264.106 248.647 263.891 248.211 263.51C251.745 255.154 261.451 238.955 285.603 230.35C286.821 231.155 287.494 231.865 287.222 234.393Z" fill="#DD7272" stroke="black" stroke-width="0.45" stroke-miterlimit="10"/>
<path d="M285.602 230.349C261.451 238.955 251.744 255.154 248.21 263.51C245.766 261.358 243.808 253.87 241.381 245.818C239.334 239.026 231.152 227.235 226.681 221.094C224.314 220.394 222.371 219.529 221.382 219.199C219.047 218.42 211.644 214.136 205.021 215.176C198.398 216.214 190.347 213.488 184.372 213.617C181.721 213.675 179.941 214.523 178.508 215.62C178.591 214.85 178.5 214.056 178.202 213.345C178.015 212.91 177.703 212.508 177.267 212.322C176.674 212.07 175.989 212.253 175.387 212.491C172.41 213.66 170.372 216.019 168.389 218.409C168.191 217.856 168.062 217.205 168.01 216.474C167.753 212.709 170.22 209.462 175.932 204.789C181.646 200.112 189.112 199.917 196.254 197.321C203.399 194.725 201.189 188.753 200.751 183.446C200.312 178.139 192.359 152.137 191.451 148.242C190.542 144.345 180.282 111.105 187.295 109.678C187.467 109.643 187.636 109.612 187.8 109.592C188.012 112.171 188.35 114.753 189.015 117.249C189.45 118.888 191.004 119.911 192.632 120.103C193.68 120.229 194.606 119.954 195.523 119.544C196.308 122.719 197.145 126.596 198.332 131.101C199.55 135.726 201.794 141.202 204.304 146.546C205.577 146.52 207.508 146.566 209.047 147.007C211.773 147.787 213.071 149.346 214.891 150.512C215.645 150.996 218.089 153.062 220.697 155.315H221.772C226.716 155.18 230.513 156.203 233.147 157.329C234.451 156.249 237.082 155.157 241.641 157.395C248.783 160.9 256.315 183.495 258.132 186.87C259.952 190.246 262.159 204.009 265.664 211.021C269.171 218.03 281.377 227.252 283.716 229.068C284.427 229.622 285.066 229.994 285.602 230.349Z" fill="#FF9F9F" stroke="black" stroke-width="0.45" stroke-miterlimit="10"/>
<path d="M178.51 215.621C176.71 216.999 175.461 218.767 173.727 219.85C171.214 221.418 169.21 220.713 168.391 218.409C170.374 216.019 172.412 213.661 175.389 212.491C175.991 212.254 176.676 212.07 177.269 212.322C177.705 212.509 178.017 212.91 178.204 213.345C178.502 214.056 178.593 214.85 178.51 215.621Z" fill="white" stroke="black" stroke-width="0.45" stroke-miterlimit="10"/>
<path d="M195.528 119.544C194.611 119.954 193.686 120.229 192.637 120.103C191.009 119.911 189.455 118.888 189.02 117.249C188.355 114.753 188.017 112.171 187.805 109.592C192.29 108.945 193.789 112.535 195.528 119.544Z" fill="white" stroke="black" stroke-width="0.45" stroke-miterlimit="10"/>
<path d="M204.305 146.547C209.83 158.299 216.642 169.405 216.642 169.405" stroke="black" stroke-width="0.45" stroke-miterlimit="10"/>
<path d="M237.609 159.992C237.609 159.992 236.113 158.597 233.141 157.33" stroke="black" stroke-width="0.45" stroke-miterlimit="10"/>
<path d="M220.688 155.314C224.373 158.504 228.385 162.069 228.385 162.069" stroke="black" stroke-width="0.45" stroke-miterlimit="10"/>
<path d="M143.781 41.4766H135.97C133.859 41.4766 132.148 43.1869 132.148 45.2968V53.1049C132.148 55.2148 133.859 56.9252 135.97 56.9252H143.781C145.892 56.9252 147.603 55.2148 147.603 53.1049V45.2968C147.603 43.1869 145.892 41.4766 143.781 41.4766Z" fill="black" stroke="black" stroke-miterlimit="10"/>
<path d="M143.781 140.156H135.97C133.859 140.156 132.148 141.867 132.148 143.976V151.785C132.148 153.894 133.859 155.605 135.97 155.605H143.781C145.892 155.605 147.603 153.894 147.603 151.785V143.976C147.603 141.867 145.892 140.156 143.781 140.156Z" fill="black" stroke="black" stroke-miterlimit="10"/>
<path d="M143.5 40.9902H135.283C133.284 40.9902 131.664 42.6098 131.664 44.6077V52.8214C131.664 54.8193 133.284 56.4389 135.283 56.4389H143.5C145.499 56.4389 147.119 54.8193 147.119 52.8214V44.6077C147.119 42.6098 145.499 40.9902 143.5 40.9902Z" fill="#F6F5D8" stroke="black" stroke-width="0.5" stroke-miterlimit="10"/>
<path d="M143.5 139.67H135.283C133.284 139.67 131.664 141.29 131.664 143.287V151.501C131.664 153.499 133.284 155.119 135.283 155.119H143.5C145.499 155.119 147.119 153.499 147.119 151.501V143.287C147.119 141.29 145.499 139.67 143.5 139.67Z" fill="#F6F5D8" stroke="black" stroke-width="0.5" stroke-miterlimit="10"/>
<path d="M136.276 47.6146L137.495 49.0367C137.771 49.3585 138.258 49.3909 138.575 49.107L143.378 44.7974C143.697 44.5108 144.19 44.546 144.465 44.8758L144.717 45.1786C144.977 45.4896 144.944 45.9465 144.647 46.2195L138.434 51.9107C138.126 52.1919 137.647 52.173 137.366 51.8648L134.699 48.9556C134.398 48.6285 134.444 48.1148 134.796 47.8444L135.24 47.5065C135.559 47.2632 136.013 47.3091 136.276 47.6146Z" fill="#0DA08B" stroke="black" stroke-width="0.5" stroke-miterlimit="10"/>
<path d="M136.276 146.294L137.495 147.716C137.771 148.038 138.258 148.071 138.575 147.787L143.378 143.477C143.697 143.191 144.19 143.226 144.465 143.556L144.717 143.858C144.977 144.169 144.944 144.626 144.647 144.899L138.434 150.59C138.126 150.872 137.647 150.853 137.366 150.544L134.699 147.635C134.398 147.308 134.444 146.794 134.796 146.524L135.24 146.186C135.559 145.943 136.013 145.989 136.276 146.294Z" fill="#0DA08B" stroke="black" stroke-width="0.5" stroke-miterlimit="10"/>
<defs>
<filter id="filter0_d_3257_4568" x="0" y="41" width="398" height="503" filterUnits="userSpaceOnUse" color-interpolation-filters="sRGB">
<feFlood flood-opacity="0" result="BackgroundImageFix"/>
<feColorMatrix in="SourceAlpha" type="matrix" values="0 0 0 0 0 0 0 0 0 0 0 0 0 0 0 0 0 0 127 0" result="hardAlpha"/>
<feOffset dx="4" dy="4"/>
<feComposite in2="hardAlpha" operator="out"/>
<feColorMatrix type="matrix" values="0 0 0 0 0.157344 0 0 0 0 0.281833 0 0 0 0 0.7125 0 0 0 1 0"/>
<feBlend mode="normal" in2="BackgroundImageFix" result="effect1_dropShadow_3257_4568"/>
<feBlend mode="normal" in="SourceGraphic" in2="effect1_dropShadow_3257_4568" result="shape"/>
</filter>
<filter id="filter1_d_3257_4568" x="34" y="47" width="306" height="306" filterUnits="userSpaceOnUse" color-interpolation-filters="sRGB">
<feFlood flood-opacity="0" result="BackgroundImageFix"/>
<feColorMatrix in="SourceAlpha" type="matrix" values="0 0 0 0 0 0 0 0 0 0 0 0 0 0 0 0 0 0 127 0" result="hardAlpha"/>
<feOffset dx="4" dy="4"/>
<feComposite in2="hardAlpha" operator="out"/>
<feColorMatrix type="matrix" values="0 0 0 0 0.0470588 0 0 0 0 0.0862745 0 0 0 0 0.247059 0 0 0 1 0"/>
<feBlend mode="normal" in2="BackgroundImageFix" result="effect1_dropShadow_3257_4568"/>
<feBlend mode="normal" in="SourceGraphic" in2="effect1_dropShadow_3257_4568" result="shape"/>
</filter>
</defs>
</svg>
