<svg width="122" height="54" viewBox="0 0 122 54" fill="none" xmlns="http://www.w3.org/2000/svg">
<path fill-rule="evenodd" clip-rule="evenodd" d="M24.4688 10.4648C25.8667 10.4648 27 11.5753 27 12.945V24.5193C27 25.8891 25.8667 26.9995 24.4688 26.9995H16.0312C14.6333 26.9995 13.5 28.1099 13.5 29.4797V41.054C13.5 42.4237 12.3667 43.5342 10.9688 43.5342H2.53121C1.13326 43.5342 0 42.4237 0 41.054V29.4797C0 28.1099 1.13326 26.9995 2.53121 26.9995H10.9688C12.3667 26.9995 13.5 25.8891 13.5 24.5193V12.945C13.5 11.5753 14.6333 10.4648 16.0312 10.4648H24.4688Z" fill="white"/>
<path d="M58.25 21.8409C58.1288 20.7652 57.6288 19.9318 56.75 19.3409C55.8712 18.7424 54.7652 18.4432 53.4318 18.4432C52.4773 18.4432 51.6515 18.5947 50.9545 18.8977C50.2576 19.1932 49.7159 19.6023 49.3295 20.125C48.9508 20.6402 48.7614 21.2273 48.7614 21.8864C48.7614 22.4394 48.8902 22.9167 49.1477 23.3182C49.4129 23.7197 49.7576 24.0568 50.1818 24.3295C50.6136 24.5947 51.0758 24.8182 51.5682 25C52.0606 25.1742 52.5341 25.3182 52.9886 25.4318L55.2614 26.0227C56.0038 26.2045 56.7652 26.4508 57.5455 26.7614C58.3258 27.072 59.0492 27.4811 59.7159 27.9886C60.3826 28.4962 60.9205 29.125 61.3295 29.875C61.7462 30.625 61.9545 31.5227 61.9545 32.5682C61.9545 33.8864 61.6136 35.0568 60.9318 36.0795C60.2576 37.1023 59.2765 37.9091 57.9886 38.5C56.7083 39.0909 55.1591 39.3864 53.3409 39.3864C51.5985 39.3864 50.0909 39.1098 48.8182 38.5568C47.5455 38.0038 46.5492 37.2197 45.8295 36.2045C45.1098 35.1818 44.7121 33.9697 44.6364 32.5682H48.1591C48.2273 33.4091 48.5 34.1098 48.9773 34.6705C49.4621 35.2235 50.0795 35.6364 50.8295 35.9091C51.5871 36.1742 52.4167 36.3068 53.3182 36.3068C54.3106 36.3068 55.1932 36.1515 55.9659 35.8409C56.7462 35.5227 57.3598 35.0833 57.8068 34.5227C58.2538 33.9545 58.4773 33.2917 58.4773 32.5341C58.4773 31.8447 58.2803 31.2803 57.8864 30.8409C57.5 30.4015 56.9735 30.0379 56.3068 29.75C55.6477 29.4621 54.9015 29.2083 54.0682 28.9886L51.3182 28.2386C49.4545 27.7311 47.9773 26.9848 46.8864 26C45.803 25.0152 45.2614 23.7121 45.2614 22.0909C45.2614 20.75 45.625 19.5795 46.3523 18.5795C47.0795 17.5795 48.0644 16.803 49.3068 16.25C50.5492 15.6894 51.9508 15.4091 53.5114 15.4091C55.0871 15.4091 56.4773 15.6856 57.6818 16.2386C58.8939 16.7917 59.8485 17.553 60.5455 18.5227C61.2424 19.4848 61.6061 20.5909 61.6364 21.8409H58.25ZM69.2756 28.6364V39H65.8778V15.7273H69.2301V24.3864H69.446C69.8551 23.447 70.4801 22.7008 71.321 22.1477C72.1619 21.5947 73.2604 21.3182 74.6165 21.3182C75.8134 21.3182 76.8589 21.5644 77.7528 22.0568C78.6544 22.5492 79.3513 23.2841 79.8438 24.2614C80.3438 25.2311 80.5938 26.4432 80.5938 27.8977V39H77.196V28.3068C77.196 27.0265 76.8665 26.0341 76.2074 25.3295C75.5483 24.6174 74.6316 24.2614 73.4574 24.2614C72.6544 24.2614 71.9347 24.4318 71.2983 24.7727C70.6695 25.1136 70.1733 25.6136 69.8097 26.2727C69.4536 26.9242 69.2756 27.7121 69.2756 28.6364ZM92.6506 39.3523C90.9309 39.3523 89.4498 38.9848 88.2074 38.25C86.9725 37.5076 86.018 36.4659 85.3438 35.125C84.6771 33.7765 84.3438 32.197 84.3438 30.3864C84.3438 28.5985 84.6771 27.0227 85.3438 25.6591C86.018 24.2955 86.9574 23.2311 88.1619 22.4659C89.3741 21.7008 90.7907 21.3182 92.4119 21.3182C93.3968 21.3182 94.3513 21.4811 95.2756 21.8068C96.1998 22.1326 97.0294 22.6439 97.7642 23.3409C98.4991 24.0379 99.0786 24.9432 99.5028 26.0568C99.9271 27.1629 100.139 28.5076 100.139 30.0909V31.2955H86.2642V28.75H96.8097C96.8097 27.8561 96.6278 27.0644 96.2642 26.375C95.9006 25.678 95.3892 25.1288 94.7301 24.7273C94.0786 24.3258 93.3134 24.125 92.4347 24.125C91.4801 24.125 90.6468 24.3598 89.9347 24.8295C89.2301 25.2917 88.6847 25.8977 88.2983 26.6477C87.9195 27.3902 87.7301 28.197 87.7301 29.0682V31.0568C87.7301 32.2235 87.9347 33.2159 88.3438 34.0341C88.7604 34.8523 89.34 35.4773 90.0824 35.9091C90.8248 36.3333 91.6922 36.5455 92.6847 36.5455C93.3286 36.5455 93.9157 36.4545 94.446 36.2727C94.9763 36.0833 95.4347 35.803 95.821 35.4318C96.2074 35.0606 96.5028 34.6023 96.7074 34.0568L99.9233 34.6364C99.6657 35.5833 99.2036 36.4129 98.5369 37.125C97.8778 37.8295 97.0483 38.3788 96.0483 38.7727C95.0559 39.1591 93.9233 39.3523 92.6506 39.3523ZM107.307 15.7273V39H103.909V15.7273H107.307ZM120.185 21.5455V24.2727H110.321V21.5455H120.185ZM113.026 39V19.5227C113.026 18.4318 113.264 17.5265 113.741 16.8068C114.219 16.0795 114.851 15.5379 115.639 15.1818C116.427 14.8182 117.283 14.6364 118.207 14.6364C118.889 14.6364 119.473 14.6932 119.957 14.8068C120.442 14.9129 120.802 15.0114 121.037 15.1023L120.241 17.8523C120.082 17.8068 119.878 17.7538 119.628 17.6932C119.378 17.625 119.075 17.5909 118.719 17.5909C117.893 17.5909 117.302 17.7955 116.946 18.2045C116.598 18.6136 116.423 19.2045 116.423 19.9773V39H113.026Z" fill="white"/>
</svg>
