<svg width="81" height="43" viewBox="0 0 81 43" fill="none" xmlns="http://www.w3.org/2000/svg">
<path d="M66.237 35.4822C64.3804 35.687 62.4869 36.11 60.6672 35.687C59.3243 35.3748 58.1358 34.6261 56.8836 34.0587C51.6025 31.6649 45.5123 32.5445 39.7176 32.5647C34.3929 32.5882 29.0985 31.8429 23.7805 31.581C16.5798 31.23 9.36327 31.7667 2.29372 33.1791C1.51818 33.3335 0.665426 33.5551 0.235691 34.2165C-0.314908 35.0726 0.165187 36.2879 0.994443 36.8788C1.8237 37.4697 2.88461 37.6007 3.89851 37.7114L27.4467 40.3469C30.8308 40.7263 34.2217 41.1023 37.626 41.2098C40.7047 41.3105 43.7901 41.1829 46.8687 41.2668C57.0111 41.5354 67.402 44.0098 77.1348 41.1493C78.6725 40.6961 80.331 39.9676 80.9387 38.4836C81.6471 36.7546 76.0001 35.8515 75.2715 35.7642C72.2667 35.405 69.2418 35.1465 66.237 35.4822Z" fill="#E8F0F9"/>
<path d="M44.6562 28.7175L47.2179 25.236C47.2179 25.236 52.7339 28.3885 58.5824 28.7175C64.4308 29.0465 69.0236 28.5832 71.6524 29.4393L67.1871 39.6858L45.0491 36.2714L44.6562 28.7175Z" fill="#BCCAD8" stroke="#BBBDBF" stroke-width="0.0839327" stroke-miterlimit="10"/>
<path d="M43.8672 26.7534C43.8672 26.7534 55.9535 29.5097 59.566 29.5769C63.1784 29.644 70.0777 30.1107 70.2724 30.1107C70.4672 30.1107 65.9381 39.1754 65.6091 40.2262C65.6091 40.2262 53.459 42.197 35.5243 35.3011L43.8672 26.7534Z" fill="#E8E8E8" stroke="#A7A9AC" stroke-width="0.0839327" stroke-miterlimit="10"/>
<path d="M40.7148 32.7226L37.5623 31.3428C37.5623 31.3428 45.9052 23.7251 46.4289 22.9999C46.4289 22.9999 62.7857 28.3212 66.8581 27.4013L62.7186 36.9931L40.7148 32.7226Z" fill="#CBD1D8" stroke="#A7A9AC" stroke-width="0.0839327" stroke-miterlimit="10"/>
<path d="M46.4624 32.4608H46.167C46.167 32.4608 45.6734 34.4349 45.9689 34.6296C46.2643 34.8243 47.6475 36.2042 50.6691 36.2042C53.6907 36.2042 54.2648 35.6771 54.4797 34.7908C54.5537 34.3278 54.5389 33.8549 54.436 33.3975L49.5511 32.2459L47.7953 32.3298L46.4624 32.4608Z" fill="#FAA732"/>
<path d="M51.3239 31.5073C49.6688 31.2018 45.4453 31.2555 46.288 33.0516C47.1307 34.8478 53.4256 34.9351 54.3455 34.1898C55.2654 33.4444 52.9757 31.8128 51.3239 31.5073Z" fill="#FDB614"/>
<path d="M36.4006 37.5438C36.4029 37.5627 36.4029 37.5819 36.4006 37.6008C36.2988 38.0002 36.0445 38.3437 35.6922 38.5577C35.6922 38.5308 35.6922 38.5039 35.6922 38.4737C35.0208 34.6766 31.8649 26.3438 31.4251 25.7764C30.9853 25.209 28.9944 24.3697 17.9589 23.2517C15.5081 23.0033 13.4635 22.8555 11.7714 22.775C9.87057 22.6628 7.96479 22.6628 6.06396 22.775C6.07479 22.4672 6.18558 22.1714 6.37955 21.9323C6.84286 21.469 7.77955 21.4522 7.77955 21.4522C8.41744 21.422 10.1297 21.4522 12.3791 21.5831C19.4294 21.9625 31.8078 23.1073 33.1339 25.1318C33.3514 25.5374 33.5279 25.9637 33.661 26.4042C34.4601 28.7543 35.6754 33.4545 36.1824 35.9759C36.2997 36.4913 36.3728 37.0159 36.4006 37.5438Z" fill="#3659A0"/>
<path d="M42.7627 26.2633C41.5575 29.1304 37.4817 34.3208 36.1589 35.9659C35.6452 33.4513 34.4366 28.7342 33.6376 26.3942C34.3762 26.4513 35.4102 26.4479 35.7392 26.0383C36.263 25.3669 36.592 26.6695 37.7738 26.421C38.9555 26.1726 39.0227 25.4139 40.1239 25.8503C41.2251 26.2868 41.4265 25.5347 42.1584 25.7127L42.6318 25.8268C42.6842 25.9695 42.7279 26.1153 42.7627 26.2633Z" fill="#C5DAF1"/>
<path d="M42.6486 25.8267L42.1753 25.7125C41.4434 25.5346 41.2554 26.3034 40.1407 25.8502C39.0261 25.3969 38.959 26.1859 37.7906 26.4209C36.6223 26.6559 36.2798 25.3835 35.7561 26.0382C35.4204 26.4478 34.393 26.4511 33.6544 26.3941C33.5213 25.9535 33.3447 25.5273 33.1273 25.1216C31.7844 23.1072 19.4295 21.9523 12.3724 21.573C12.9403 21.2086 13.6094 21.0346 14.2827 21.0761C15.2026 21.0761 39.7043 23.4262 41.2151 24.0977C41.5628 24.268 41.8703 24.5102 42.1174 24.8083C42.3646 25.1063 42.5456 25.4535 42.6486 25.8267Z" fill="#84A0D3"/>
<path d="M42.511 28.4321C41.9369 29.5803 37.9887 35.2709 36.4007 37.5404C36.3657 37.0085 36.2848 36.4805 36.1589 35.9625C37.4817 34.3141 41.5575 29.127 42.7628 26.2599C42.9158 26.9921 42.8274 27.7542 42.511 28.4321Z" fill="#3659A0"/>
<path d="M35.6721 38.4737C35.0007 34.6766 31.8448 26.3437 31.405 25.7764C30.9652 25.209 28.9743 24.3696 17.9388 23.2517C15.488 23.0032 13.4434 22.8555 11.7513 22.7749C9.8505 22.6628 7.94472 22.6628 6.0439 22.7749C5.79546 24.8598 7.18538 29.6238 7.41032 31.9169C7.67219 34.6329 9.42471 36.1202 10.7374 36.3855C12.0501 36.6507 33.2314 39.0109 34.4736 38.9236C34.9016 38.9058 35.3189 38.7836 35.6889 38.5677C35.6822 38.5308 35.6755 38.5039 35.6721 38.4737ZM17.734 26.7231C16.6866 26.7231 15.8372 26.2598 15.8372 25.6924C15.8372 25.125 16.6866 24.6617 17.734 24.6617C18.7815 24.6617 19.6309 25.1217 19.6309 25.6924C19.6309 26.2632 18.7849 26.7164 17.734 26.7164V26.7231Z" fill="#4F6CB3"/>
<path d="M19.6308 25.6857C19.6308 26.2531 18.7814 26.7164 17.7339 26.7164C16.6864 26.7164 15.837 26.2531 15.837 25.6857C15.837 25.1183 16.6864 24.655 17.7339 24.655C18.7814 24.655 19.6308 25.115 19.6308 25.6857Z" fill="#284776"/>
<path d="M24.7675 12.9514C25.1636 14.2071 26.3991 15.0632 27.6917 15.3015C28.9842 15.5399 30.3204 15.2378 31.5492 14.7778C32.4154 14.4421 33.2883 14.019 33.8221 13.267C34.3559 12.515 34.4365 11.3668 33.7785 10.7188C33.4019 10.3916 32.9322 10.1909 32.4355 10.1447C31.143 9.9567 29.8303 10.2723 28.5948 10.6987C27.9838 10.9102 27.3056 11.2224 27.1142 11.8402C26.8523 12.6828 27.648 13.4684 28.4169 13.9015C29.5986 14.573 31.002 14.9557 32.3113 14.62C33.6207 14.2843 34.7521 13.0521 34.6614 11.7025C34.5507 10.279 33.1876 9.25502 31.8144 8.86893C30.579 8.5332 29.1722 8.55671 28.1046 9.2651C27.037 9.97349 26.4428 11.4608 27.0034 12.6224C27.4802 13.6027 28.625 14.1063 29.7161 14.1668C30.7464 14.2438 31.7672 13.9243 32.5698 13.2737C32.9616 12.9442 33.2606 12.5182 33.4373 12.0377C33.6139 11.5572 33.6621 11.039 33.577 10.5342C33.4733 10.0319 33.2063 9.57807 32.8176 9.24345C32.4289 8.90883 31.9405 8.71222 31.4284 8.68428C30.4212 8.68428 29.4442 9.62433 29.5348 10.6416C29.5492 10.8543 29.6199 11.0594 29.7396 11.2358C29.958 11.4942 30.2617 11.6658 30.5957 11.7193C31.0998 11.8362 31.6243 11.8325 32.1267 11.7086C32.629 11.5847 33.0951 11.3441 33.487 11.0063C33.879 10.6684 34.1857 10.2429 34.3823 9.76434C34.5789 9.28572 34.6598 8.76748 34.6186 8.25171C34.5773 7.73593 34.415 7.23717 34.1447 6.79591C33.8745 6.35465 33.504 5.98334 33.0634 5.71214C32.6227 5.44094 32.1243 5.27749 31.6087 5.23507C31.093 5.19264 30.5746 5.27244 30.0955 5.46798C29.7598 5.61235 29.377 5.92122 29.471 6.28381C29.547 6.48162 29.696 6.64268 29.8874 6.73369C31.0087 7.40515 32.6034 7.50922 33.52 6.57589C33.8801 6.17754 34.096 5.66981 34.1332 5.13409C34.1703 4.59837 34.0265 4.06569 33.7248 3.62146C33.406 3.18974 32.9708 2.85781 32.4701 2.66457C31.9694 2.47132 31.4241 2.42476 30.8979 2.53034C30.3772 2.64925 29.8914 2.88771 29.4789 3.22685C29.0663 3.56598 28.7383 3.99649 28.5209 4.48429C28.2658 5.04832 28.1852 5.82721 28.672 6.20659C28.882 6.35999 29.1311 6.45078 29.3905 6.46846C29.9495 6.50568 30.5094 6.40976 31.0242 6.18856C31.5389 5.96737 31.9939 5.62721 32.3516 5.19604C33.0626 4.32781 33.5265 3.28402 33.6945 2.17446C33.7861 1.87114 33.7622 1.54465 33.6274 1.25792C33.4629 0.989331 33.0164 0.89197 32.8451 1.15384" stroke="#D0D2D3" stroke-width="0.335731" stroke-miterlimit="10"/>
<path d="M40.3187 15.3384C40.2881 15.2944 40.2684 15.2437 40.2614 15.1906C40.2544 15.1374 40.2602 15.0833 40.2784 15.0329C40.3029 14.9964 40.3381 14.9682 40.3791 14.9523C40.4733 14.9087 40.5791 14.8973 40.6804 14.9197C40.7818 14.9422 40.8729 14.9973 40.9398 15.0766C41.0086 15.1643 41.0567 15.2665 41.0808 15.3754C41.1549 15.7884 41.2502 16.1974 41.3662 16.6008C41.393 16.6713 41.6113 17.1816 41.4367 17.2084C41.3628 17.2084 41.252 16.8727 41.2218 16.8224C40.9432 16.312 40.5873 15.8487 40.3187 15.3384Z" fill="#D0D2D3"/>
<path d="M42.7864 15.4023C42.8535 15.3184 42.9442 15.2277 43.0482 15.2445C43.0919 15.2543 43.1324 15.2751 43.1657 15.3049C43.2419 15.3757 43.2933 15.4689 43.3127 15.571C43.332 15.6731 43.3182 15.7787 43.2732 15.8723C43.217 15.9684 43.1415 16.0518 43.0516 16.1174C42.7036 16.3489 42.3675 16.5976 42.0444 16.8627C41.994 16.9165 41.608 17.316 41.5139 17.1683C41.4737 17.1045 41.7456 16.8661 41.7859 16.8325C42.125 16.3457 42.4171 15.8555 42.7864 15.4023Z" fill="#D0D2D3"/>
<path d="M43.6288 14.7141C43.7929 14.811 43.9311 14.9462 44.0317 15.1081C44.1322 15.2701 44.1921 15.4539 44.2062 15.644" stroke="#D0D2D3" stroke-width="0.167865" stroke-miterlimit="10" stroke-linecap="round"/>
<path d="M43.5549 14.207C43.6757 14.21 43.794 14.2421 43.8998 14.3006C44.0056 14.359 44.0957 14.4421 44.1626 14.5428" stroke="#D0D2D3" stroke-width="0.107434" stroke-miterlimit="10" stroke-linecap="round"/>
</svg>
