<svg width="132" height="117" viewBox="0 0 132 117" fill="none" xmlns="http://www.w3.org/2000/svg">
<g opacity="0.1">
<path d="M43.4747 2.59741C44.0009 2.66318 44.3955 3.05779 44.3955 3.58394C44.3955 4.11009 44.0009 4.57047 43.4747 4.57047V2.59741Z" fill="black"/>
<path d="M48.8022 4.57047C49.3471 4.57047 49.7888 4.12879 49.7888 3.58394C49.7888 3.0391 49.3471 2.59741 48.8022 2.59741C48.2574 2.59741 47.8157 3.0391 47.8157 3.58394C47.8157 4.12879 48.2574 4.57047 48.8022 4.57047Z" fill="black"/>
<path d="M54.1295 4.57047C54.6744 4.57047 55.1161 4.12879 55.1161 3.58394C55.1161 3.0391 54.6744 2.59741 54.1295 2.59741C53.5846 2.59741 53.1429 3.0391 53.1429 3.58394C53.1429 4.12879 53.5846 4.57047 54.1295 4.57047Z" fill="black"/>
<path d="M59.5228 4.57047C60.0677 4.57047 60.5094 4.12879 60.5094 3.58394C60.5094 3.0391 60.0677 2.59741 59.5228 2.59741C58.978 2.59741 58.5363 3.0391 58.5363 3.58394C58.5363 4.12879 58.978 4.57047 59.5228 4.57047Z" fill="black"/>
<path d="M64.8501 4.57047C65.3949 4.57047 65.8366 4.12879 65.8366 3.58394C65.8366 3.0391 65.3949 2.59741 64.8501 2.59741C64.3052 2.59741 63.8635 3.0391 63.8635 3.58394C63.8635 4.12879 64.3052 4.57047 64.8501 4.57047Z" fill="black"/>
<path d="M70.2434 4.57047C70.7883 4.57047 71.2299 4.12879 71.2299 3.58394C71.2299 3.0391 70.7883 2.59741 70.2434 2.59741C69.6985 2.59741 69.2568 3.0391 69.2568 3.58394C69.2568 4.12879 69.6985 4.57047 70.2434 4.57047Z" fill="black"/>
<path d="M75.5708 4.57047C76.1156 4.57047 76.5573 4.12879 76.5573 3.58394C76.5573 3.0391 76.1156 2.59741 75.5708 2.59741C75.0259 2.59741 74.5842 3.0391 74.5842 3.58394C74.5842 4.12879 75.0259 4.57047 75.5708 4.57047Z" fill="black"/>
<path d="M80.964 4.57047C81.5088 4.57047 81.9505 4.12879 81.9505 3.58394C81.9505 3.0391 81.5088 2.59741 80.964 2.59741C80.4191 2.59741 79.9774 3.0391 79.9774 3.58394C79.9774 4.12879 80.4191 4.57047 80.964 4.57047Z" fill="black"/>
<path d="M86.3573 4.57047C86.9021 4.57047 87.3438 4.12879 87.3438 3.58394C87.3438 3.0391 86.9021 2.59741 86.3573 2.59741C85.8124 2.59741 85.3707 3.0391 85.3707 3.58394C85.3707 4.12879 85.8124 4.57047 86.3573 4.57047Z" fill="black"/>
<path d="M91.6846 4.57047C92.2295 4.57047 92.6712 4.12879 92.6712 3.58394C92.6712 3.0391 92.2295 2.59741 91.6846 2.59741C91.1398 2.59741 90.6981 3.0391 90.6981 3.58394C90.6981 4.12879 91.1398 4.57047 91.6846 4.57047Z" fill="black"/>
<path d="M97.0779 4.57047C97.6228 4.57047 98.0645 4.12879 98.0645 3.58394C98.0645 3.0391 97.6228 2.59741 97.0779 2.59741C96.5331 2.59741 96.0914 3.0391 96.0914 3.58394C96.0914 4.12879 96.5331 4.57047 97.0779 4.57047Z" fill="black"/>
<path d="M102.405 4.57047C102.95 4.57047 103.392 4.12879 103.392 3.58394C103.392 3.0391 102.95 2.59741 102.405 2.59741C101.86 2.59741 101.419 3.0391 101.419 3.58394C101.419 4.12879 101.86 4.57047 102.405 4.57047Z" fill="black"/>
<path d="M107.799 4.57047C108.343 4.57047 108.785 4.12879 108.785 3.58394C108.785 3.0391 108.343 2.59741 107.799 2.59741C107.254 2.59741 106.812 3.0391 106.812 3.58394C106.812 4.12879 107.254 4.57047 107.799 4.57047Z" fill="black"/>
<path d="M113.126 4.57047C113.671 4.57047 114.112 4.12879 114.112 3.58394C114.112 3.0391 113.671 2.59741 113.126 2.59741C112.581 2.59741 112.139 3.0391 112.139 3.58394C112.139 4.12879 112.581 4.57047 113.126 4.57047Z" fill="black"/>
<path d="M118.519 4.57047C119.063 4.57047 119.505 4.12879 119.505 3.58394C119.505 3.0391 119.063 2.59741 118.519 2.59741C117.974 2.59741 117.532 3.0391 117.532 3.58394C117.532 4.12879 117.974 4.57047 118.519 4.57047Z" fill="black"/>
<path d="M123.846 4.57047C124.391 4.57047 124.833 4.12879 124.833 3.58394C124.833 3.0391 124.391 2.59741 123.846 2.59741C123.302 2.59741 122.86 3.0391 122.86 3.58394C122.86 4.12879 123.302 4.57047 123.846 4.57047Z" fill="black"/>
<path d="M129.239 4.57047C129.784 4.57047 130.226 4.12879 130.226 3.58394C130.226 3.0391 129.784 2.59741 129.239 2.59741C128.694 2.59741 128.253 3.0391 128.253 3.58394C128.253 4.12879 128.694 4.57047 129.239 4.57047Z" fill="black"/>
<path d="M43.7378 9.30583C44.1324 9.17429 44.4612 8.77968 44.4612 8.31929C44.4612 7.79314 44.0666 7.39853 43.6062 7.33276L43.7378 9.30583Z" fill="black"/>
<path d="M48.8022 9.37162C49.3471 9.37162 49.7888 8.92994 49.7888 8.38509C49.7888 7.84024 49.3471 7.39856 48.8022 7.39856C48.2574 7.39856 47.8157 7.84024 47.8157 8.38509C47.8157 8.92994 48.2574 9.37162 48.8022 9.37162Z" fill="black"/>
<path d="M54.1295 9.37162C54.6744 9.37162 55.1161 8.92994 55.1161 8.38509C55.1161 7.84024 54.6744 7.39856 54.1295 7.39856C53.5846 7.39856 53.1429 7.84024 53.1429 8.38509C53.1429 8.92994 53.5846 9.37162 54.1295 9.37162Z" fill="black"/>
<path d="M59.5228 9.37162C60.0677 9.37162 60.5094 8.92994 60.5094 8.38509C60.5094 7.84024 60.0677 7.39856 59.5228 7.39856C58.978 7.39856 58.5363 7.84024 58.5363 8.38509C58.5363 8.92994 58.978 9.37162 59.5228 9.37162Z" fill="black"/>
<path d="M64.8501 9.37162C65.3949 9.37162 65.8366 8.92994 65.8366 8.38509C65.8366 7.84024 65.3949 7.39856 64.8501 7.39856C64.3052 7.39856 63.8635 7.84024 63.8635 8.38509C63.8635 8.92994 64.3052 9.37162 64.8501 9.37162Z" fill="black"/>
<path d="M70.2434 9.37162C70.7883 9.37162 71.2299 8.92994 71.2299 8.38509C71.2299 7.84024 70.7883 7.39856 70.2434 7.39856C69.6985 7.39856 69.2568 7.84024 69.2568 8.38509C69.2568 8.92994 69.6985 9.37162 70.2434 9.37162Z" fill="black"/>
<path d="M75.5708 9.37162C76.1156 9.37162 76.5573 8.92994 76.5573 8.38509C76.5573 7.84024 76.1156 7.39856 75.5708 7.39856C75.0259 7.39856 74.5842 7.84024 74.5842 8.38509C74.5842 8.92994 75.0259 9.37162 75.5708 9.37162Z" fill="black"/>
<path d="M80.964 9.37162C81.5088 9.37162 81.9505 8.92994 81.9505 8.38509C81.9505 7.84024 81.5088 7.39856 80.964 7.39856C80.4191 7.39856 79.9774 7.84024 79.9774 8.38509C79.9774 8.92994 80.4191 9.37162 80.964 9.37162Z" fill="black"/>
<path d="M86.3573 9.37162C86.9021 9.37162 87.3438 8.92994 87.3438 8.38509C87.3438 7.84024 86.9021 7.39856 86.3573 7.39856C85.8124 7.39856 85.3707 7.84024 85.3707 8.38509C85.3707 8.92994 85.8124 9.37162 86.3573 9.37162Z" fill="black"/>
<path d="M91.6846 9.37162C92.2295 9.37162 92.6712 8.92994 92.6712 8.38509C92.6712 7.84024 92.2295 7.39856 91.6846 7.39856C91.1398 7.39856 90.6981 7.84024 90.6981 8.38509C90.6981 8.92994 91.1398 9.37162 91.6846 9.37162Z" fill="black"/>
<path d="M97.0779 9.37162C97.6228 9.37162 98.0645 8.92994 98.0645 8.38509C98.0645 7.84024 97.6228 7.39856 97.0779 7.39856C96.5331 7.39856 96.0914 7.84024 96.0914 8.38509C96.0914 8.92994 96.5331 9.37162 97.0779 9.37162Z" fill="black"/>
<path d="M102.405 9.37162C102.95 9.37162 103.392 8.92994 103.392 8.38509C103.392 7.84024 102.95 7.39856 102.405 7.39856C101.86 7.39856 101.419 7.84024 101.419 8.38509C101.419 8.92994 101.86 9.37162 102.405 9.37162Z" fill="black"/>
<path d="M107.799 9.37162C108.343 9.37162 108.785 8.92994 108.785 8.38509C108.785 7.84024 108.343 7.39856 107.799 7.39856C107.254 7.39856 106.812 7.84024 106.812 8.38509C106.812 8.92994 107.254 9.37162 107.799 9.37162Z" fill="black"/>
<path d="M113.126 9.37162C113.671 9.37162 114.112 8.92994 114.112 8.38509C114.112 7.84024 113.671 7.39856 113.126 7.39856C112.581 7.39856 112.139 7.84024 112.139 8.38509C112.139 8.92994 112.581 9.37162 113.126 9.37162Z" fill="black"/>
<path d="M118.519 9.37162C119.063 9.37162 119.505 8.92994 119.505 8.38509C119.505 7.84024 119.063 7.39856 118.519 7.39856C117.974 7.39856 117.532 7.84024 117.532 8.38509C117.532 8.92994 117.974 9.37162 118.519 9.37162Z" fill="black"/>
<path d="M123.846 9.37162C124.391 9.37162 124.833 8.92994 124.833 8.38509C124.833 7.84024 124.391 7.39856 123.846 7.39856C123.302 7.39856 122.86 7.84024 122.86 8.38509C122.86 8.92994 123.302 9.37162 123.846 9.37162Z" fill="black"/>
<path d="M129.239 9.37162C129.784 9.37162 130.226 8.92994 130.226 8.38509C130.226 7.84024 129.784 7.39856 129.239 7.39856C128.694 7.39856 128.253 7.84024 128.253 8.38509C128.253 8.92994 128.694 9.37162 129.239 9.37162Z" fill="black"/>
<path d="M44.1983 13.778C44.3298 13.5807 44.3956 13.3834 44.3956 13.1861C44.3956 12.8572 44.2641 12.5284 44.001 12.3969L44.1983 13.778Z" fill="black"/>
<path d="M48.8022 14.1726C49.3471 14.1726 49.7888 13.731 49.7888 13.1861C49.7888 12.6413 49.3471 12.1996 48.8022 12.1996C48.2574 12.1996 47.8157 12.6413 47.8157 13.1861C47.8157 13.731 48.2574 14.1726 48.8022 14.1726Z" fill="black"/>
<path d="M54.1295 14.1726C54.6744 14.1726 55.1161 13.731 55.1161 13.1861C55.1161 12.6413 54.6744 12.1996 54.1295 12.1996C53.5846 12.1996 53.1429 12.6413 53.1429 13.1861C53.1429 13.731 53.5846 14.1726 54.1295 14.1726Z" fill="black"/>
<path d="M59.5228 14.1726C60.0677 14.1726 60.5094 13.731 60.5094 13.1861C60.5094 12.6413 60.0677 12.1996 59.5228 12.1996C58.978 12.1996 58.5363 12.6413 58.5363 13.1861C58.5363 13.731 58.978 14.1726 59.5228 14.1726Z" fill="black"/>
<path d="M64.8501 14.1726C65.3949 14.1726 65.8366 13.731 65.8366 13.1861C65.8366 12.6413 65.3949 12.1996 64.8501 12.1996C64.3052 12.1996 63.8635 12.6413 63.8635 13.1861C63.8635 13.731 64.3052 14.1726 64.8501 14.1726Z" fill="black"/>
<path d="M70.2434 14.1726C70.7883 14.1726 71.2299 13.731 71.2299 13.1861C71.2299 12.6413 70.7883 12.1996 70.2434 12.1996C69.6985 12.1996 69.2568 12.6413 69.2568 13.1861C69.2568 13.731 69.6985 14.1726 70.2434 14.1726Z" fill="black"/>
<path d="M75.5708 14.1726C76.1156 14.1726 76.5573 13.731 76.5573 13.1861C76.5573 12.6413 76.1156 12.1996 75.5708 12.1996C75.0259 12.1996 74.5842 12.6413 74.5842 13.1861C74.5842 13.731 75.0259 14.1726 75.5708 14.1726Z" fill="black"/>
<path d="M80.964 14.1726C81.5088 14.1726 81.9505 13.731 81.9505 13.1861C81.9505 12.6413 81.5088 12.1996 80.964 12.1996C80.4191 12.1996 79.9774 12.6413 79.9774 13.1861C79.9774 13.731 80.4191 14.1726 80.964 14.1726Z" fill="black"/>
<path d="M86.3573 14.1726C86.9021 14.1726 87.3438 13.731 87.3438 13.1861C87.3438 12.6413 86.9021 12.1996 86.3573 12.1996C85.8124 12.1996 85.3707 12.6413 85.3707 13.1861C85.3707 13.731 85.8124 14.1726 86.3573 14.1726Z" fill="black"/>
<path d="M91.6846 14.1726C92.2295 14.1726 92.6712 13.731 92.6712 13.1861C92.6712 12.6413 92.2295 12.1996 91.6846 12.1996C91.1398 12.1996 90.6981 12.6413 90.6981 13.1861C90.6981 13.731 91.1398 14.1726 91.6846 14.1726Z" fill="black"/>
<path d="M97.0779 14.1726C97.6228 14.1726 98.0645 13.731 98.0645 13.1861C98.0645 12.6413 97.6228 12.1996 97.0779 12.1996C96.5331 12.1996 96.0914 12.6413 96.0914 13.1861C96.0914 13.731 96.5331 14.1726 97.0779 14.1726Z" fill="black"/>
<path d="M102.405 14.1726C102.95 14.1726 103.392 13.731 103.392 13.1861C103.392 12.6413 102.95 12.1996 102.405 12.1996C101.86 12.1996 101.419 12.6413 101.419 13.1861C101.419 13.731 101.86 14.1726 102.405 14.1726Z" fill="black"/>
<path d="M107.799 14.1726C108.343 14.1726 108.785 13.731 108.785 13.1861C108.785 12.6413 108.343 12.1996 107.799 12.1996C107.254 12.1996 106.812 12.6413 106.812 13.1861C106.812 13.731 107.254 14.1726 107.799 14.1726Z" fill="black"/>
<path d="M113.126 14.1726C113.671 14.1726 114.112 13.731 114.112 13.1861C114.112 12.6413 113.671 12.1996 113.126 12.1996C112.581 12.1996 112.139 12.6413 112.139 13.1861C112.139 13.731 112.581 14.1726 113.126 14.1726Z" fill="black"/>
<path d="M118.519 14.1726C119.063 14.1726 119.505 13.731 119.505 13.1861C119.505 12.6413 119.063 12.1996 118.519 12.1996C117.974 12.1996 117.532 12.6413 117.532 13.1861C117.532 13.731 117.974 14.1726 118.519 14.1726Z" fill="black"/>
<path d="M123.846 14.1726C124.391 14.1726 124.833 13.731 124.833 13.1861C124.833 12.6413 124.391 12.1996 123.846 12.1996C123.302 12.1996 122.86 12.6413 122.86 13.1861C122.86 13.731 123.302 14.1726 123.846 14.1726Z" fill="black"/>
<path d="M129.239 14.1726C129.784 14.1726 130.226 13.731 130.226 13.1861C130.226 12.6413 129.784 12.1996 129.239 12.1996C128.694 12.1996 128.253 12.6413 128.253 13.1861C128.253 13.731 128.694 14.1726 129.239 14.1726Z" fill="black"/>
<path d="M48.8022 18.9081C49.3471 18.9081 49.7888 18.4664 49.7888 17.9216C49.7888 17.3767 49.3471 16.9351 48.8022 16.9351C48.2574 16.9351 47.8157 17.3767 47.8157 17.9216C47.8157 18.4664 48.2574 18.9081 48.8022 18.9081Z" fill="black"/>
<path d="M54.1295 18.9081C54.6744 18.9081 55.1161 18.4664 55.1161 17.9216C55.1161 17.3767 54.6744 16.9351 54.1295 16.9351C53.5846 16.9351 53.1429 17.3767 53.1429 17.9216C53.1429 18.4664 53.5846 18.9081 54.1295 18.9081Z" fill="black"/>
<path d="M59.5228 18.9081C60.0677 18.9081 60.5094 18.4664 60.5094 17.9216C60.5094 17.3767 60.0677 16.9351 59.5228 16.9351C58.978 16.9351 58.5363 17.3767 58.5363 17.9216C58.5363 18.4664 58.978 18.9081 59.5228 18.9081Z" fill="black"/>
<path d="M64.8501 18.9081C65.3949 18.9081 65.8366 18.4664 65.8366 17.9216C65.8366 17.3767 65.3949 16.9351 64.8501 16.9351C64.3052 16.9351 63.8635 17.3767 63.8635 17.9216C63.8635 18.4664 64.3052 18.9081 64.8501 18.9081Z" fill="black"/>
<path d="M70.2434 18.9081C70.7883 18.9081 71.2299 18.4664 71.2299 17.9216C71.2299 17.3767 70.7883 16.9351 70.2434 16.9351C69.6985 16.9351 69.2568 17.3767 69.2568 17.9216C69.2568 18.4664 69.6985 18.9081 70.2434 18.9081Z" fill="black"/>
<path d="M75.5708 18.9081C76.1156 18.9081 76.5573 18.4664 76.5573 17.9216C76.5573 17.3767 76.1156 16.9351 75.5708 16.9351C75.0259 16.9351 74.5842 17.3767 74.5842 17.9216C74.5842 18.4664 75.0259 18.9081 75.5708 18.9081Z" fill="black"/>
<path d="M80.964 18.9081C81.5088 18.9081 81.9505 18.4664 81.9505 17.9216C81.9505 17.3767 81.5088 16.9351 80.964 16.9351C80.4191 16.9351 79.9774 17.3767 79.9774 17.9216C79.9774 18.4664 80.4191 18.9081 80.964 18.9081Z" fill="black"/>
<path d="M86.3573 18.9081C86.9021 18.9081 87.3438 18.4664 87.3438 17.9216C87.3438 17.3767 86.9021 16.9351 86.3573 16.9351C85.8124 16.9351 85.3707 17.3767 85.3707 17.9216C85.3707 18.4664 85.8124 18.9081 86.3573 18.9081Z" fill="black"/>
<path d="M91.6846 18.9081C92.2295 18.9081 92.6712 18.4664 92.6712 17.9216C92.6712 17.3767 92.2295 16.9351 91.6846 16.9351C91.1398 16.9351 90.6981 17.3767 90.6981 17.9216C90.6981 18.4664 91.1398 18.9081 91.6846 18.9081Z" fill="black"/>
<path d="M97.0779 18.9081C97.6228 18.9081 98.0645 18.4664 98.0645 17.9216C98.0645 17.3767 97.6228 16.9351 97.0779 16.9351C96.5331 16.9351 96.0914 17.3767 96.0914 17.9216C96.0914 18.4664 96.5331 18.9081 97.0779 18.9081Z" fill="black"/>
<path d="M102.405 18.9081C102.95 18.9081 103.392 18.4664 103.392 17.9216C103.392 17.3767 102.95 16.9351 102.405 16.9351C101.86 16.9351 101.419 17.3767 101.419 17.9216C101.419 18.4664 101.86 18.9081 102.405 18.9081Z" fill="black"/>
<path d="M107.799 18.9081C108.343 18.9081 108.785 18.4664 108.785 17.9216C108.785 17.3767 108.343 16.9351 107.799 16.9351C107.254 16.9351 106.812 17.3767 106.812 17.9216C106.812 18.4664 107.254 18.9081 107.799 18.9081Z" fill="black"/>
<path d="M113.126 18.9081C113.671 18.9081 114.112 18.4664 114.112 17.9216C114.112 17.3767 113.671 16.9351 113.126 16.9351C112.581 16.9351 112.139 17.3767 112.139 17.9216C112.139 18.4664 112.581 18.9081 113.126 18.9081Z" fill="black"/>
<path d="M118.519 18.9081C119.063 18.9081 119.505 18.4664 119.505 17.9216C119.505 17.3767 119.063 16.9351 118.519 16.9351C117.974 16.9351 117.532 17.3767 117.532 17.9216C117.532 18.4664 117.974 18.9081 118.519 18.9081Z" fill="black"/>
<path d="M123.846 18.9081C124.391 18.9081 124.833 18.4664 124.833 17.9216C124.833 17.3767 124.391 16.9351 123.846 16.9351C123.302 16.9351 122.86 17.3767 122.86 17.9216C122.86 18.4664 123.302 18.9081 123.846 18.9081Z" fill="black"/>
<path d="M129.239 18.9081C129.784 18.9081 130.226 18.4664 130.226 17.9216C130.226 17.3767 129.784 16.9351 129.239 16.9351C128.694 16.9351 128.253 17.3767 128.253 17.9216C128.253 18.4664 128.694 18.9081 129.239 18.9081Z" fill="black"/>
<path d="M48.8022 23.7091C49.3471 23.7091 49.7888 23.2675 49.7888 22.7226C49.7888 22.1778 49.3471 21.7361 48.8022 21.7361C48.2574 21.7361 47.8157 22.1778 47.8157 22.7226C47.8157 23.2675 48.2574 23.7091 48.8022 23.7091Z" fill="black"/>
<path d="M54.1295 23.7091C54.6744 23.7091 55.1161 23.2675 55.1161 22.7226C55.1161 22.1778 54.6744 21.7361 54.1295 21.7361C53.5846 21.7361 53.1429 22.1778 53.1429 22.7226C53.1429 23.2675 53.5846 23.7091 54.1295 23.7091Z" fill="black"/>
<path d="M59.5228 23.7091C60.0677 23.7091 60.5094 23.2675 60.5094 22.7226C60.5094 22.1778 60.0677 21.7361 59.5228 21.7361C58.978 21.7361 58.5363 22.1778 58.5363 22.7226C58.5363 23.2675 58.978 23.7091 59.5228 23.7091Z" fill="black"/>
<path d="M64.8501 23.7091C65.3949 23.7091 65.8366 23.2675 65.8366 22.7226C65.8366 22.1778 65.3949 21.7361 64.8501 21.7361C64.3052 21.7361 63.8635 22.1778 63.8635 22.7226C63.8635 23.2675 64.3052 23.7091 64.8501 23.7091Z" fill="black"/>
<path d="M70.2434 23.7091C70.7883 23.7091 71.2299 23.2675 71.2299 22.7226C71.2299 22.1778 70.7883 21.7361 70.2434 21.7361C69.6985 21.7361 69.2568 22.1778 69.2568 22.7226C69.2568 23.2675 69.6985 23.7091 70.2434 23.7091Z" fill="black"/>
<path d="M75.5708 23.7091C76.1156 23.7091 76.5573 23.2675 76.5573 22.7226C76.5573 22.1778 76.1156 21.7361 75.5708 21.7361C75.0259 21.7361 74.5842 22.1778 74.5842 22.7226C74.5842 23.2675 75.0259 23.7091 75.5708 23.7091Z" fill="black"/>
<path d="M80.964 23.7091C81.5088 23.7091 81.9505 23.2675 81.9505 22.7226C81.9505 22.1778 81.5088 21.7361 80.964 21.7361C80.4191 21.7361 79.9774 22.1778 79.9774 22.7226C79.9774 23.2675 80.4191 23.7091 80.964 23.7091Z" fill="black"/>
<path d="M86.3573 23.7091C86.9021 23.7091 87.3438 23.2675 87.3438 22.7226C87.3438 22.1778 86.9021 21.7361 86.3573 21.7361C85.8124 21.7361 85.3707 22.1778 85.3707 22.7226C85.3707 23.2675 85.8124 23.7091 86.3573 23.7091Z" fill="black"/>
<path d="M91.6846 23.7091C92.2295 23.7091 92.6712 23.2675 92.6712 22.7226C92.6712 22.1778 92.2295 21.7361 91.6846 21.7361C91.1398 21.7361 90.6981 22.1778 90.6981 22.7226C90.6981 23.2675 91.1398 23.7091 91.6846 23.7091Z" fill="black"/>
<path d="M97.0779 23.7091C97.6228 23.7091 98.0645 23.2675 98.0645 22.7226C98.0645 22.1778 97.6228 21.7361 97.0779 21.7361C96.5331 21.7361 96.0914 22.1778 96.0914 22.7226C96.0914 23.2675 96.5331 23.7091 97.0779 23.7091Z" fill="black"/>
<path d="M102.405 23.7091C102.95 23.7091 103.392 23.2675 103.392 22.7226C103.392 22.1778 102.95 21.7361 102.405 21.7361C101.86 21.7361 101.419 22.1778 101.419 22.7226C101.419 23.2675 101.86 23.7091 102.405 23.7091Z" fill="black"/>
<path d="M107.799 23.7091C108.343 23.7091 108.785 23.2675 108.785 22.7226C108.785 22.1778 108.343 21.7361 107.799 21.7361C107.254 21.7361 106.812 22.1778 106.812 22.7226C106.812 23.2675 107.254 23.7091 107.799 23.7091Z" fill="black"/>
<path d="M113.126 23.7091C113.671 23.7091 114.112 23.2675 114.112 22.7226C114.112 22.1778 113.671 21.7361 113.126 21.7361C112.581 21.7361 112.139 22.1778 112.139 22.7226C112.139 23.2675 112.581 23.7091 113.126 23.7091Z" fill="black"/>
<path d="M118.519 23.7091C119.063 23.7091 119.505 23.2675 119.505 22.7226C119.505 22.1778 119.063 21.7361 118.519 21.7361C117.974 21.7361 117.532 22.1778 117.532 22.7226C117.532 23.2675 117.974 23.7091 118.519 23.7091Z" fill="black"/>
<path d="M123.846 23.7091C124.391 23.7091 124.833 23.2675 124.833 22.7226C124.833 22.1778 124.391 21.7361 123.846 21.7361C123.302 21.7361 122.86 22.1778 122.86 22.7226C122.86 23.2675 123.302 23.7091 123.846 23.7091Z" fill="black"/>
<path d="M129.239 23.7091C129.784 23.7091 130.226 23.2675 130.226 22.7226C130.226 22.1778 129.784 21.7361 129.239 21.7361C128.694 21.7361 128.253 22.1778 128.253 22.7226C128.253 23.2675 128.694 23.7091 129.239 23.7091Z" fill="black"/>
<path d="M48.8022 28.5103C49.3471 28.5103 49.7888 28.0686 49.7888 27.5238C49.7888 26.9789 49.3471 26.5372 48.8022 26.5372C48.2574 26.5372 47.8157 26.9789 47.8157 27.5238C47.8157 28.0686 48.2574 28.5103 48.8022 28.5103Z" fill="black"/>
<path d="M54.1295 28.5103C54.6744 28.5103 55.1161 28.0686 55.1161 27.5238C55.1161 26.9789 54.6744 26.5372 54.1295 26.5372C53.5846 26.5372 53.1429 26.9789 53.1429 27.5238C53.1429 28.0686 53.5846 28.5103 54.1295 28.5103Z" fill="black"/>
<path d="M59.5228 28.5103C60.0677 28.5103 60.5094 28.0686 60.5094 27.5238C60.5094 26.9789 60.0677 26.5372 59.5228 26.5372C58.978 26.5372 58.5363 26.9789 58.5363 27.5238C58.5363 28.0686 58.978 28.5103 59.5228 28.5103Z" fill="black"/>
<path d="M64.8501 28.5103C65.3949 28.5103 65.8366 28.0686 65.8366 27.5238C65.8366 26.9789 65.3949 26.5372 64.8501 26.5372C64.3052 26.5372 63.8635 26.9789 63.8635 27.5238C63.8635 28.0686 64.3052 28.5103 64.8501 28.5103Z" fill="black"/>
<path d="M70.2434 28.5103C70.7883 28.5103 71.2299 28.0686 71.2299 27.5238C71.2299 26.9789 70.7883 26.5372 70.2434 26.5372C69.6985 26.5372 69.2568 26.9789 69.2568 27.5238C69.2568 28.0686 69.6985 28.5103 70.2434 28.5103Z" fill="black"/>
<path d="M75.5708 28.5103C76.1156 28.5103 76.5573 28.0686 76.5573 27.5238C76.5573 26.9789 76.1156 26.5372 75.5708 26.5372C75.0259 26.5372 74.5842 26.9789 74.5842 27.5238C74.5842 28.0686 75.0259 28.5103 75.5708 28.5103Z" fill="black"/>
<path d="M80.964 28.5103C81.5088 28.5103 81.9505 28.0686 81.9505 27.5238C81.9505 26.9789 81.5088 26.5372 80.964 26.5372C80.4191 26.5372 79.9774 26.9789 79.9774 27.5238C79.9774 28.0686 80.4191 28.5103 80.964 28.5103Z" fill="black"/>
<path d="M86.3573 28.5103C86.9021 28.5103 87.3438 28.0686 87.3438 27.5238C87.3438 26.9789 86.9021 26.5372 86.3573 26.5372C85.8124 26.5372 85.3707 26.9789 85.3707 27.5238C85.3707 28.0686 85.8124 28.5103 86.3573 28.5103Z" fill="black"/>
<path d="M91.6846 28.5103C92.2295 28.5103 92.6712 28.0686 92.6712 27.5238C92.6712 26.9789 92.2295 26.5372 91.6846 26.5372C91.1398 26.5372 90.6981 26.9789 90.6981 27.5238C90.6981 28.0686 91.1398 28.5103 91.6846 28.5103Z" fill="black"/>
<path d="M97.0779 28.5103C97.6228 28.5103 98.0645 28.0686 98.0645 27.5238C98.0645 26.9789 97.6228 26.5372 97.0779 26.5372C96.5331 26.5372 96.0914 26.9789 96.0914 27.5238C96.0914 28.0686 96.5331 28.5103 97.0779 28.5103Z" fill="black"/>
<path d="M102.405 28.5103C102.95 28.5103 103.392 28.0686 103.392 27.5238C103.392 26.9789 102.95 26.5372 102.405 26.5372C101.86 26.5372 101.419 26.9789 101.419 27.5238C101.419 28.0686 101.86 28.5103 102.405 28.5103Z" fill="black"/>
<path d="M107.799 28.5103C108.343 28.5103 108.785 28.0686 108.785 27.5238C108.785 26.9789 108.343 26.5372 107.799 26.5372C107.254 26.5372 106.812 26.9789 106.812 27.5238C106.812 28.0686 107.254 28.5103 107.799 28.5103Z" fill="black"/>
<path d="M113.126 28.5103C113.671 28.5103 114.112 28.0686 114.112 27.5238C114.112 26.9789 113.671 26.5372 113.126 26.5372C112.581 26.5372 112.139 26.9789 112.139 27.5238C112.139 28.0686 112.581 28.5103 113.126 28.5103Z" fill="black"/>
<path d="M118.519 28.5103C119.063 28.5103 119.505 28.0686 119.505 27.5238C119.505 26.9789 119.063 26.5372 118.519 26.5372C117.974 26.5372 117.532 26.9789 117.532 27.5238C117.532 28.0686 117.974 28.5103 118.519 28.5103Z" fill="black"/>
<path d="M123.846 28.5103C124.391 28.5103 124.833 28.0686 124.833 27.5238C124.833 26.9789 124.391 26.5372 123.846 26.5372C123.302 26.5372 122.86 26.9789 122.86 27.5238C122.86 28.0686 123.302 28.5103 123.846 28.5103Z" fill="black"/>
<path d="M129.239 28.5103C129.784 28.5103 130.226 28.0686 130.226 27.5238C130.226 26.9789 129.784 26.5372 129.239 26.5372C128.694 26.5372 128.253 26.9789 128.253 27.5238C128.253 28.0686 128.694 28.5103 129.239 28.5103Z" fill="black"/>
<path d="M49.7228 32.7195C49.7886 32.5879 49.7886 32.4564 49.7886 32.3906C49.7886 31.996 49.5255 31.6014 49.1309 31.4698L49.7228 32.7195Z" fill="black"/>
<path d="M54.1295 33.3113C54.6744 33.3113 55.1161 32.8696 55.1161 32.3248C55.1161 31.7799 54.6744 31.3383 54.1295 31.3383C53.5846 31.3383 53.1429 31.7799 53.1429 32.3248C53.1429 32.8696 53.5846 33.3113 54.1295 33.3113Z" fill="black"/>
<path d="M59.5228 33.3113C60.0677 33.3113 60.5094 32.8696 60.5094 32.3248C60.5094 31.7799 60.0677 31.3383 59.5228 31.3383C58.978 31.3383 58.5363 31.7799 58.5363 32.3248C58.5363 32.8696 58.978 33.3113 59.5228 33.3113Z" fill="black"/>
<path d="M64.8501 33.3113C65.3949 33.3113 65.8366 32.8696 65.8366 32.3248C65.8366 31.7799 65.3949 31.3383 64.8501 31.3383C64.3052 31.3383 63.8635 31.7799 63.8635 32.3248C63.8635 32.8696 64.3052 33.3113 64.8501 33.3113Z" fill="black"/>
<path d="M70.2434 33.3113C70.7883 33.3113 71.2299 32.8696 71.2299 32.3248C71.2299 31.7799 70.7883 31.3383 70.2434 31.3383C69.6985 31.3383 69.2568 31.7799 69.2568 32.3248C69.2568 32.8696 69.6985 33.3113 70.2434 33.3113Z" fill="black"/>
<path d="M75.5708 33.3113C76.1156 33.3113 76.5573 32.8696 76.5573 32.3248C76.5573 31.7799 76.1156 31.3383 75.5708 31.3383C75.0259 31.3383 74.5842 31.7799 74.5842 32.3248C74.5842 32.8696 75.0259 33.3113 75.5708 33.3113Z" fill="black"/>
<path d="M80.964 33.3113C81.5088 33.3113 81.9505 32.8696 81.9505 32.3248C81.9505 31.7799 81.5088 31.3383 80.964 31.3383C80.4191 31.3383 79.9774 31.7799 79.9774 32.3248C79.9774 32.8696 80.4191 33.3113 80.964 33.3113Z" fill="black"/>
<path d="M86.3573 33.3113C86.9021 33.3113 87.3438 32.8696 87.3438 32.3248C87.3438 31.7799 86.9021 31.3383 86.3573 31.3383C85.8124 31.3383 85.3707 31.7799 85.3707 32.3248C85.3707 32.8696 85.8124 33.3113 86.3573 33.3113Z" fill="black"/>
<path d="M91.6846 33.3113C92.2295 33.3113 92.6712 32.8696 92.6712 32.3248C92.6712 31.7799 92.2295 31.3383 91.6846 31.3383C91.1398 31.3383 90.6981 31.7799 90.6981 32.3248C90.6981 32.8696 91.1398 33.3113 91.6846 33.3113Z" fill="black"/>
<path d="M97.0779 33.3113C97.6228 33.3113 98.0645 32.8696 98.0645 32.3248C98.0645 31.7799 97.6228 31.3383 97.0779 31.3383C96.5331 31.3383 96.0914 31.7799 96.0914 32.3248C96.0914 32.8696 96.5331 33.3113 97.0779 33.3113Z" fill="black"/>
<path d="M102.405 33.3113C102.95 33.3113 103.392 32.8696 103.392 32.3248C103.392 31.7799 102.95 31.3383 102.405 31.3383C101.86 31.3383 101.419 31.7799 101.419 32.3248C101.419 32.8696 101.86 33.3113 102.405 33.3113Z" fill="black"/>
<path d="M107.799 33.3113C108.343 33.3113 108.785 32.8696 108.785 32.3248C108.785 31.7799 108.343 31.3383 107.799 31.3383C107.254 31.3383 106.812 31.7799 106.812 32.3248C106.812 32.8696 107.254 33.3113 107.799 33.3113Z" fill="black"/>
<path d="M113.126 33.3113C113.671 33.3113 114.112 32.8696 114.112 32.3248C114.112 31.7799 113.671 31.3383 113.126 31.3383C112.581 31.3383 112.139 31.7799 112.139 32.3248C112.139 32.8696 112.581 33.3113 113.126 33.3113Z" fill="black"/>
<path d="M118.519 33.3113C119.063 33.3113 119.505 32.8696 119.505 32.3248C119.505 31.7799 119.063 31.3383 118.519 31.3383C117.974 31.3383 117.532 31.7799 117.532 32.3248C117.532 32.8696 117.974 33.3113 118.519 33.3113Z" fill="black"/>
<path d="M123.846 33.3113C124.391 33.3113 124.833 32.8696 124.833 32.3248C124.833 31.7799 124.391 31.3383 123.846 31.3383C123.302 31.3383 122.86 31.7799 122.86 32.3248C122.86 32.8696 123.302 33.3113 123.846 33.3113Z" fill="black"/>
<path d="M129.239 33.3113C129.784 33.3113 130.226 32.8696 130.226 32.3248C130.226 31.7799 129.784 31.3383 129.239 31.3383C128.694 31.3383 128.253 31.7799 128.253 32.3248C128.253 32.8696 128.694 33.3113 129.239 33.3113Z" fill="black"/>
<path d="M54.1295 38.1125C54.6744 38.1125 55.1161 37.6708 55.1161 37.1259C55.1161 36.5811 54.6744 36.1394 54.1295 36.1394C53.5846 36.1394 53.1429 36.5811 53.1429 37.1259C53.1429 37.6708 53.5846 38.1125 54.1295 38.1125Z" fill="black"/>
<path d="M59.5228 38.1125C60.0677 38.1125 60.5094 37.6708 60.5094 37.1259C60.5094 36.5811 60.0677 36.1394 59.5228 36.1394C58.978 36.1394 58.5363 36.5811 58.5363 37.1259C58.5363 37.6708 58.978 38.1125 59.5228 38.1125Z" fill="black"/>
<path d="M64.8501 38.1125C65.3949 38.1125 65.8366 37.6708 65.8366 37.1259C65.8366 36.5811 65.3949 36.1394 64.8501 36.1394C64.3052 36.1394 63.8635 36.5811 63.8635 37.1259C63.8635 37.6708 64.3052 38.1125 64.8501 38.1125Z" fill="black"/>
<path d="M70.2434 38.1125C70.7883 38.1125 71.2299 37.6708 71.2299 37.1259C71.2299 36.5811 70.7883 36.1394 70.2434 36.1394C69.6985 36.1394 69.2568 36.5811 69.2568 37.1259C69.2568 37.6708 69.6985 38.1125 70.2434 38.1125Z" fill="black"/>
<path d="M75.5708 38.1125C76.1156 38.1125 76.5573 37.6708 76.5573 37.1259C76.5573 36.5811 76.1156 36.1394 75.5708 36.1394C75.0259 36.1394 74.5842 36.5811 74.5842 37.1259C74.5842 37.6708 75.0259 38.1125 75.5708 38.1125Z" fill="black"/>
<path d="M80.964 38.1125C81.5088 38.1125 81.9505 37.6708 81.9505 37.1259C81.9505 36.5811 81.5088 36.1394 80.964 36.1394C80.4191 36.1394 79.9774 36.5811 79.9774 37.1259C79.9774 37.6708 80.4191 38.1125 80.964 38.1125Z" fill="black"/>
<path d="M86.3573 38.1125C86.9021 38.1125 87.3438 37.6708 87.3438 37.1259C87.3438 36.5811 86.9021 36.1394 86.3573 36.1394C85.8124 36.1394 85.3707 36.5811 85.3707 37.1259C85.3707 37.6708 85.8124 38.1125 86.3573 38.1125Z" fill="black"/>
<path d="M91.6846 38.1125C92.2295 38.1125 92.6712 37.6708 92.6712 37.1259C92.6712 36.5811 92.2295 36.1394 91.6846 36.1394C91.1398 36.1394 90.6981 36.5811 90.6981 37.1259C90.6981 37.6708 91.1398 38.1125 91.6846 38.1125Z" fill="black"/>
<path d="M97.0779 38.1125C97.6228 38.1125 98.0645 37.6708 98.0645 37.1259C98.0645 36.5811 97.6228 36.1394 97.0779 36.1394C96.5331 36.1394 96.0914 36.5811 96.0914 37.1259C96.0914 37.6708 96.5331 38.1125 97.0779 38.1125Z" fill="black"/>
<path d="M102.405 38.1125C102.95 38.1125 103.392 37.6708 103.392 37.1259C103.392 36.5811 102.95 36.1394 102.405 36.1394C101.86 36.1394 101.419 36.5811 101.419 37.1259C101.419 37.6708 101.86 38.1125 102.405 38.1125Z" fill="black"/>
<path d="M107.799 38.1125C108.343 38.1125 108.785 37.6708 108.785 37.1259C108.785 36.5811 108.343 36.1394 107.799 36.1394C107.254 36.1394 106.812 36.5811 106.812 37.1259C106.812 37.6708 107.254 38.1125 107.799 38.1125Z" fill="black"/>
<path d="M113.126 38.1125C113.671 38.1125 114.112 37.6708 114.112 37.1259C114.112 36.5811 113.671 36.1394 113.126 36.1394C112.581 36.1394 112.139 36.5811 112.139 37.1259C112.139 37.6708 112.581 38.1125 113.126 38.1125Z" fill="black"/>
<path d="M118.519 38.1125C119.063 38.1125 119.505 37.6708 119.505 37.1259C119.505 36.5811 119.063 36.1394 118.519 36.1394C117.974 36.1394 117.532 36.5811 117.532 37.1259C117.532 37.6708 117.974 38.1125 118.519 38.1125Z" fill="black"/>
<path d="M123.846 38.1125C124.391 38.1125 124.833 37.6708 124.833 37.1259C124.833 36.5811 124.391 36.1394 123.846 36.1394C123.302 36.1394 122.86 36.5811 122.86 37.1259C122.86 37.6708 123.302 38.1125 123.846 38.1125Z" fill="black"/>
<path d="M129.239 38.1125C129.784 38.1125 130.226 37.6708 130.226 37.1259C130.226 36.5811 129.784 36.1394 129.239 36.1394C128.694 36.1394 128.253 36.5811 128.253 37.1259C128.253 37.6708 128.694 38.1125 129.239 38.1125Z" fill="black"/>
<path d="M55.0503 42.3218C55.1161 42.1903 55.1819 42.0587 55.1819 41.8614C55.1819 41.3353 54.7215 40.8749 54.1953 40.8749L55.0503 42.3218Z" fill="black"/>
<path d="M59.5228 42.9136C60.0677 42.9136 60.5094 42.4719 60.5094 41.9271C60.5094 41.3822 60.0677 40.9406 59.5228 40.9406C58.978 40.9406 58.5363 41.3822 58.5363 41.9271C58.5363 42.4719 58.978 42.9136 59.5228 42.9136Z" fill="black"/>
<path d="M64.8501 42.9136C65.3949 42.9136 65.8366 42.4719 65.8366 41.9271C65.8366 41.3822 65.3949 40.9406 64.8501 40.9406C64.3052 40.9406 63.8635 41.3822 63.8635 41.9271C63.8635 42.4719 64.3052 42.9136 64.8501 42.9136Z" fill="black"/>
<path d="M70.2434 42.9136C70.7883 42.9136 71.2299 42.4719 71.2299 41.9271C71.2299 41.3822 70.7883 40.9406 70.2434 40.9406C69.6985 40.9406 69.2568 41.3822 69.2568 41.9271C69.2568 42.4719 69.6985 42.9136 70.2434 42.9136Z" fill="black"/>
<path d="M75.5708 42.9136C76.1156 42.9136 76.5573 42.4719 76.5573 41.9271C76.5573 41.3822 76.1156 40.9406 75.5708 40.9406C75.0259 40.9406 74.5842 41.3822 74.5842 41.9271C74.5842 42.4719 75.0259 42.9136 75.5708 42.9136Z" fill="black"/>
<path d="M80.964 42.9136C81.5088 42.9136 81.9505 42.4719 81.9505 41.9271C81.9505 41.3822 81.5088 40.9406 80.964 40.9406C80.4191 40.9406 79.9774 41.3822 79.9774 41.9271C79.9774 42.4719 80.4191 42.9136 80.964 42.9136Z" fill="black"/>
<path d="M86.3573 42.9136C86.9021 42.9136 87.3438 42.4719 87.3438 41.9271C87.3438 41.3822 86.9021 40.9406 86.3573 40.9406C85.8124 40.9406 85.3707 41.3822 85.3707 41.9271C85.3707 42.4719 85.8124 42.9136 86.3573 42.9136Z" fill="black"/>
<path d="M91.6846 42.9136C92.2295 42.9136 92.6712 42.4719 92.6712 41.9271C92.6712 41.3822 92.2295 40.9406 91.6846 40.9406C91.1398 40.9406 90.6981 41.3822 90.6981 41.9271C90.6981 42.4719 91.1398 42.9136 91.6846 42.9136Z" fill="black"/>
<path d="M97.0779 42.9136C97.6228 42.9136 98.0645 42.4719 98.0645 41.9271C98.0645 41.3822 97.6228 40.9406 97.0779 40.9406C96.5331 40.9406 96.0914 41.3822 96.0914 41.9271C96.0914 42.4719 96.5331 42.9136 97.0779 42.9136Z" fill="black"/>
<path d="M102.405 42.9136C102.95 42.9136 103.392 42.4719 103.392 41.9271C103.392 41.3822 102.95 40.9406 102.405 40.9406C101.86 40.9406 101.419 41.3822 101.419 41.9271C101.419 42.4719 101.86 42.9136 102.405 42.9136Z" fill="black"/>
<path d="M107.799 42.9136C108.343 42.9136 108.785 42.4719 108.785 41.9271C108.785 41.3822 108.343 40.9406 107.799 40.9406C107.254 40.9406 106.812 41.3822 106.812 41.9271C106.812 42.4719 107.254 42.9136 107.799 42.9136Z" fill="black"/>
<path d="M113.126 42.9136C113.671 42.9136 114.112 42.4719 114.112 41.9271C114.112 41.3822 113.671 40.9406 113.126 40.9406C112.581 40.9406 112.139 41.3822 112.139 41.9271C112.139 42.4719 112.581 42.9136 113.126 42.9136Z" fill="black"/>
<path d="M118.519 42.9136C119.063 42.9136 119.505 42.4719 119.505 41.9271C119.505 41.3822 119.063 40.9406 118.519 40.9406C117.974 40.9406 117.532 41.3822 117.532 41.9271C117.532 42.4719 117.974 42.9136 118.519 42.9136Z" fill="black"/>
<path d="M123.846 42.9136C124.391 42.9136 124.833 42.4719 124.833 41.9271C124.833 41.3822 124.391 40.9406 123.846 40.9406C123.302 40.9406 122.86 41.3822 122.86 41.9271C122.86 42.4719 123.302 42.9136 123.846 42.9136Z" fill="black"/>
<path d="M129.239 42.9136C129.784 42.9136 130.226 42.4719 130.226 41.9271C130.226 41.3822 129.784 40.9406 129.239 40.9406C128.694 40.9406 128.253 41.3822 128.253 41.9271C128.253 42.4719 128.694 42.9136 129.239 42.9136Z" fill="black"/>
<path d="M59.5228 47.7148C60.0677 47.7148 60.5094 47.2731 60.5094 46.7282C60.5094 46.1834 60.0677 45.7417 59.5228 45.7417C58.978 45.7417 58.5363 46.1834 58.5363 46.7282C58.5363 47.2731 58.978 47.7148 59.5228 47.7148Z" fill="black"/>
<path d="M64.8501 47.7148C65.3949 47.7148 65.8366 47.2731 65.8366 46.7282C65.8366 46.1834 65.3949 45.7417 64.8501 45.7417C64.3052 45.7417 63.8635 46.1834 63.8635 46.7282C63.8635 47.2731 64.3052 47.7148 64.8501 47.7148Z" fill="black"/>
<path d="M70.2434 47.7148C70.7883 47.7148 71.2299 47.2731 71.2299 46.7282C71.2299 46.1834 70.7883 45.7417 70.2434 45.7417C69.6985 45.7417 69.2568 46.1834 69.2568 46.7282C69.2568 47.2731 69.6985 47.7148 70.2434 47.7148Z" fill="black"/>
<path d="M75.5708 47.7148C76.1156 47.7148 76.5573 47.2731 76.5573 46.7282C76.5573 46.1834 76.1156 45.7417 75.5708 45.7417C75.0259 45.7417 74.5842 46.1834 74.5842 46.7282C74.5842 47.2731 75.0259 47.7148 75.5708 47.7148Z" fill="black"/>
<path d="M80.964 47.7148C81.5088 47.7148 81.9505 47.2731 81.9505 46.7282C81.9505 46.1834 81.5088 45.7417 80.964 45.7417C80.4191 45.7417 79.9774 46.1834 79.9774 46.7282C79.9774 47.2731 80.4191 47.7148 80.964 47.7148Z" fill="black"/>
<path d="M86.3573 47.7148C86.9021 47.7148 87.3438 47.2731 87.3438 46.7282C87.3438 46.1834 86.9021 45.7417 86.3573 45.7417C85.8124 45.7417 85.3707 46.1834 85.3707 46.7282C85.3707 47.2731 85.8124 47.7148 86.3573 47.7148Z" fill="black"/>
<path d="M91.6846 47.7148C92.2295 47.7148 92.6712 47.2731 92.6712 46.7282C92.6712 46.1834 92.2295 45.7417 91.6846 45.7417C91.1398 45.7417 90.6981 46.1834 90.6981 46.7282C90.6981 47.2731 91.1398 47.7148 91.6846 47.7148Z" fill="black"/>
<path d="M97.0779 47.7148C97.6228 47.7148 98.0645 47.2731 98.0645 46.7282C98.0645 46.1834 97.6228 45.7417 97.0779 45.7417C96.5331 45.7417 96.0914 46.1834 96.0914 46.7282C96.0914 47.2731 96.5331 47.7148 97.0779 47.7148Z" fill="black"/>
<path d="M102.405 47.7148C102.95 47.7148 103.392 47.2731 103.392 46.7282C103.392 46.1834 102.95 45.7417 102.405 45.7417C101.86 45.7417 101.419 46.1834 101.419 46.7282C101.419 47.2731 101.86 47.7148 102.405 47.7148Z" fill="black"/>
<path d="M107.799 47.7148C108.343 47.7148 108.785 47.2731 108.785 46.7282C108.785 46.1834 108.343 45.7417 107.799 45.7417C107.254 45.7417 106.812 46.1834 106.812 46.7282C106.812 47.2731 107.254 47.7148 107.799 47.7148Z" fill="black"/>
<path d="M113.126 47.7148C113.671 47.7148 114.112 47.2731 114.112 46.7282C114.112 46.1834 113.671 45.7417 113.126 45.7417C112.581 45.7417 112.139 46.1834 112.139 46.7282C112.139 47.2731 112.581 47.7148 113.126 47.7148Z" fill="black"/>
<path d="M118.519 47.7148C119.063 47.7148 119.505 47.2731 119.505 46.7282C119.505 46.1834 119.063 45.7417 118.519 45.7417C117.974 45.7417 117.532 46.1834 117.532 46.7282C117.532 47.2731 117.974 47.7148 118.519 47.7148Z" fill="black"/>
<path d="M123.846 47.7148C124.391 47.7148 124.833 47.2731 124.833 46.7282C124.833 46.1834 124.391 45.7417 123.846 45.7417C123.302 45.7417 122.86 46.1834 122.86 46.7282C122.86 47.2731 123.302 47.7148 123.846 47.7148Z" fill="black"/>
<path d="M129.239 47.7148C129.784 47.7148 130.226 47.2731 130.226 46.7282C130.226 46.1834 129.784 45.7417 129.239 45.7417C128.694 45.7417 128.253 46.1834 128.253 46.7282C128.253 47.2731 128.694 47.7148 129.239 47.7148Z" fill="black"/>
<path d="M64.8501 52.5159C65.3949 52.5159 65.8366 52.0742 65.8366 51.5294C65.8366 50.9845 65.3949 50.5428 64.8501 50.5428C64.3052 50.5428 63.8635 50.9845 63.8635 51.5294C63.8635 52.0742 64.3052 52.5159 64.8501 52.5159Z" fill="black"/>
<path d="M70.2434 52.5159C70.7883 52.5159 71.2299 52.0742 71.2299 51.5294C71.2299 50.9845 70.7883 50.5428 70.2434 50.5428C69.6985 50.5428 69.2568 50.9845 69.2568 51.5294C69.2568 52.0742 69.6985 52.5159 70.2434 52.5159Z" fill="black"/>
<path d="M75.5708 52.5159C76.1156 52.5159 76.5573 52.0742 76.5573 51.5294C76.5573 50.9845 76.1156 50.5428 75.5708 50.5428C75.0259 50.5428 74.5842 50.9845 74.5842 51.5294C74.5842 52.0742 75.0259 52.5159 75.5708 52.5159Z" fill="black"/>
<path d="M80.964 52.5159C81.5088 52.5159 81.9505 52.0742 81.9505 51.5294C81.9505 50.9845 81.5088 50.5428 80.964 50.5428C80.4191 50.5428 79.9774 50.9845 79.9774 51.5294C79.9774 52.0742 80.4191 52.5159 80.964 52.5159Z" fill="black"/>
<path d="M86.3573 52.5159C86.9021 52.5159 87.3438 52.0742 87.3438 51.5294C87.3438 50.9845 86.9021 50.5428 86.3573 50.5428C85.8124 50.5428 85.3707 50.9845 85.3707 51.5294C85.3707 52.0742 85.8124 52.5159 86.3573 52.5159Z" fill="black"/>
<path d="M91.6846 52.5159C92.2295 52.5159 92.6712 52.0742 92.6712 51.5294C92.6712 50.9845 92.2295 50.5428 91.6846 50.5428C91.1398 50.5428 90.6981 50.9845 90.6981 51.5294C90.6981 52.0742 91.1398 52.5159 91.6846 52.5159Z" fill="black"/>
<path d="M97.0779 52.5159C97.6228 52.5159 98.0645 52.0742 98.0645 51.5294C98.0645 50.9845 97.6228 50.5428 97.0779 50.5428C96.5331 50.5428 96.0914 50.9845 96.0914 51.5294C96.0914 52.0742 96.5331 52.5159 97.0779 52.5159Z" fill="black"/>
<path d="M102.405 52.5159C102.95 52.5159 103.392 52.0742 103.392 51.5294C103.392 50.9845 102.95 50.5428 102.405 50.5428C101.86 50.5428 101.419 50.9845 101.419 51.5294C101.419 52.0742 101.86 52.5159 102.405 52.5159Z" fill="black"/>
<path d="M107.799 52.5159C108.343 52.5159 108.785 52.0742 108.785 51.5294C108.785 50.9845 108.343 50.5428 107.799 50.5428C107.254 50.5428 106.812 50.9845 106.812 51.5294C106.812 52.0742 107.254 52.5159 107.799 52.5159Z" fill="black"/>
<path d="M113.126 52.5159C113.671 52.5159 114.112 52.0742 114.112 51.5294C114.112 50.9845 113.671 50.5428 113.126 50.5428C112.581 50.5428 112.139 50.9845 112.139 51.5294C112.139 52.0742 112.581 52.5159 113.126 52.5159Z" fill="black"/>
<path d="M118.519 52.5159C119.063 52.5159 119.505 52.0742 119.505 51.5294C119.505 50.9845 119.063 50.5428 118.519 50.5428C117.974 50.5428 117.532 50.9845 117.532 51.5294C117.532 52.0742 117.974 52.5159 118.519 52.5159Z" fill="black"/>
<path d="M123.846 52.5159C124.391 52.5159 124.833 52.0742 124.833 51.5294C124.833 50.9845 124.391 50.5428 123.846 50.5428C123.302 50.5428 122.86 50.9845 122.86 51.5294C122.86 52.0742 123.302 52.5159 123.846 52.5159Z" fill="black"/>
<path d="M129.239 52.5159C129.784 52.5159 130.226 52.0742 130.226 51.5294C130.226 50.9845 129.784 50.5428 129.239 50.5428C128.694 50.5428 128.253 50.9845 128.253 51.5294C128.253 52.0742 128.694 52.5159 129.239 52.5159Z" fill="black"/>
<path d="M70.2434 57.2511C70.7883 57.2511 71.2299 56.8095 71.2299 56.2646C71.2299 55.7198 70.7883 55.2781 70.2434 55.2781C69.6985 55.2781 69.2568 55.7198 69.2568 56.2646C69.2568 56.8095 69.6985 57.2511 70.2434 57.2511Z" fill="black"/>
<path d="M75.5708 57.2511C76.1156 57.2511 76.5573 56.8095 76.5573 56.2646C76.5573 55.7198 76.1156 55.2781 75.5708 55.2781C75.0259 55.2781 74.5842 55.7198 74.5842 56.2646C74.5842 56.8095 75.0259 57.2511 75.5708 57.2511Z" fill="black"/>
<path d="M80.964 57.2511C81.5088 57.2511 81.9505 56.8095 81.9505 56.2646C81.9505 55.7198 81.5088 55.2781 80.964 55.2781C80.4191 55.2781 79.9774 55.7198 79.9774 56.2646C79.9774 56.8095 80.4191 57.2511 80.964 57.2511Z" fill="black"/>
<path d="M86.3573 57.2511C86.9021 57.2511 87.3438 56.8095 87.3438 56.2646C87.3438 55.7198 86.9021 55.2781 86.3573 55.2781C85.8124 55.2781 85.3707 55.7198 85.3707 56.2646C85.3707 56.8095 85.8124 57.2511 86.3573 57.2511Z" fill="black"/>
<path d="M91.6846 57.2511C92.2295 57.2511 92.6712 56.8095 92.6712 56.2646C92.6712 55.7198 92.2295 55.2781 91.6846 55.2781C91.1398 55.2781 90.6981 55.7198 90.6981 56.2646C90.6981 56.8095 91.1398 57.2511 91.6846 57.2511Z" fill="black"/>
<path d="M97.0779 57.2511C97.6228 57.2511 98.0645 56.8095 98.0645 56.2646C98.0645 55.7198 97.6228 55.2781 97.0779 55.2781C96.5331 55.2781 96.0914 55.7198 96.0914 56.2646C96.0914 56.8095 96.5331 57.2511 97.0779 57.2511Z" fill="black"/>
<path d="M102.405 57.2511C102.95 57.2511 103.392 56.8095 103.392 56.2646C103.392 55.7198 102.95 55.2781 102.405 55.2781C101.86 55.2781 101.419 55.7198 101.419 56.2646C101.419 56.8095 101.86 57.2511 102.405 57.2511Z" fill="black"/>
<path d="M107.799 57.2511C108.343 57.2511 108.785 56.8095 108.785 56.2646C108.785 55.7198 108.343 55.2781 107.799 55.2781C107.254 55.2781 106.812 55.7198 106.812 56.2646C106.812 56.8095 107.254 57.2511 107.799 57.2511Z" fill="black"/>
<path d="M113.126 57.2511C113.671 57.2511 114.112 56.8095 114.112 56.2646C114.112 55.7198 113.671 55.2781 113.126 55.2781C112.581 55.2781 112.139 55.7198 112.139 56.2646C112.139 56.8095 112.581 57.2511 113.126 57.2511Z" fill="black"/>
<path d="M118.519 57.2511C119.063 57.2511 119.505 56.8095 119.505 56.2646C119.505 55.7198 119.063 55.2781 118.519 55.2781C117.974 55.2781 117.532 55.7198 117.532 56.2646C117.532 56.8095 117.974 57.2511 118.519 57.2511Z" fill="black"/>
<path d="M123.846 57.2511C124.391 57.2511 124.833 56.8095 124.833 56.2646C124.833 55.7198 124.391 55.2781 123.846 55.2781C123.302 55.2781 122.86 55.7198 122.86 56.2646C122.86 56.8095 123.302 57.2511 123.846 57.2511Z" fill="black"/>
<path d="M129.239 57.2511C129.784 57.2511 130.226 56.8095 130.226 56.2646C130.226 55.7198 129.784 55.2781 129.239 55.2781C128.694 55.2781 128.253 55.7198 128.253 56.2646C128.253 56.8095 128.694 57.2511 129.239 57.2511Z" fill="black"/>
<path d="M75.5708 62.0523C76.1156 62.0523 76.5573 61.6106 76.5573 61.0658C76.5573 60.5209 76.1156 60.0792 75.5708 60.0792C75.0259 60.0792 74.5842 60.5209 74.5842 61.0658C74.5842 61.6106 75.0259 62.0523 75.5708 62.0523Z" fill="black"/>
<path d="M80.964 62.0523C81.5088 62.0523 81.9505 61.6106 81.9505 61.0658C81.9505 60.5209 81.5088 60.0792 80.964 60.0792C80.4191 60.0792 79.9774 60.5209 79.9774 61.0658C79.9774 61.6106 80.4191 62.0523 80.964 62.0523Z" fill="black"/>
<path d="M86.3573 62.0523C86.9021 62.0523 87.3438 61.6106 87.3438 61.0658C87.3438 60.5209 86.9021 60.0792 86.3573 60.0792C85.8124 60.0792 85.3707 60.5209 85.3707 61.0658C85.3707 61.6106 85.8124 62.0523 86.3573 62.0523Z" fill="black"/>
<path d="M91.6846 62.0523C92.2295 62.0523 92.6712 61.6106 92.6712 61.0658C92.6712 60.5209 92.2295 60.0792 91.6846 60.0792C91.1398 60.0792 90.6981 60.5209 90.6981 61.0658C90.6981 61.6106 91.1398 62.0523 91.6846 62.0523Z" fill="black"/>
<path d="M97.0779 62.0523C97.6228 62.0523 98.0645 61.6106 98.0645 61.0658C98.0645 60.5209 97.6228 60.0792 97.0779 60.0792C96.5331 60.0792 96.0914 60.5209 96.0914 61.0658C96.0914 61.6106 96.5331 62.0523 97.0779 62.0523Z" fill="black"/>
<path d="M102.405 62.0523C102.95 62.0523 103.392 61.6106 103.392 61.0658C103.392 60.5209 102.95 60.0792 102.405 60.0792C101.86 60.0792 101.419 60.5209 101.419 61.0658C101.419 61.6106 101.86 62.0523 102.405 62.0523Z" fill="black"/>
<path d="M107.799 62.0523C108.343 62.0523 108.785 61.6106 108.785 61.0658C108.785 60.5209 108.343 60.0792 107.799 60.0792C107.254 60.0792 106.812 60.5209 106.812 61.0658C106.812 61.6106 107.254 62.0523 107.799 62.0523Z" fill="black"/>
<path d="M113.126 62.0523C113.671 62.0523 114.112 61.6106 114.112 61.0658C114.112 60.5209 113.671 60.0792 113.126 60.0792C112.581 60.0792 112.139 60.5209 112.139 61.0658C112.139 61.6106 112.581 62.0523 113.126 62.0523Z" fill="black"/>
<path d="M118.519 62.0523C119.063 62.0523 119.505 61.6106 119.505 61.0658C119.505 60.5209 119.063 60.0792 118.519 60.0792C117.974 60.0792 117.532 60.5209 117.532 61.0658C117.532 61.6106 117.974 62.0523 118.519 62.0523Z" fill="black"/>
<path d="M123.846 62.0523C124.391 62.0523 124.833 61.6106 124.833 61.0658C124.833 60.5209 124.391 60.0792 123.846 60.0792C123.302 60.0792 122.86 60.5209 122.86 61.0658C122.86 61.6106 123.302 62.0523 123.846 62.0523Z" fill="black"/>
<path d="M129.239 62.0523C129.784 62.0523 130.226 61.6106 130.226 61.0658C130.226 60.5209 129.784 60.0792 129.239 60.0792C128.694 60.0792 128.253 60.5209 128.253 61.0658C128.253 61.6106 128.694 62.0523 129.239 62.0523Z" fill="black"/>
<path d="M81.8848 66.3273C81.9506 66.1958 82.0164 66.0642 82.0164 65.8669C82.0164 65.3408 81.556 64.8804 81.0298 64.8804C80.6352 64.8804 80.3063 65.0777 80.1748 65.4065L81.8848 66.3273Z" fill="black"/>
<path d="M86.3573 66.8534C86.9021 66.8534 87.3438 66.4117 87.3438 65.8669C87.3438 65.3221 86.9021 64.8804 86.3573 64.8804C85.8124 64.8804 85.3707 65.3221 85.3707 65.8669C85.3707 66.4117 85.8124 66.8534 86.3573 66.8534Z" fill="black"/>
<path d="M91.6846 66.8534C92.2295 66.8534 92.6712 66.4117 92.6712 65.8669C92.6712 65.3221 92.2295 64.8804 91.6846 64.8804C91.1398 64.8804 90.6981 65.3221 90.6981 65.8669C90.6981 66.4117 91.1398 66.8534 91.6846 66.8534Z" fill="black"/>
<path d="M97.0779 66.8534C97.6228 66.8534 98.0645 66.4117 98.0645 65.8669C98.0645 65.3221 97.6228 64.8804 97.0779 64.8804C96.5331 64.8804 96.0914 65.3221 96.0914 65.8669C96.0914 66.4117 96.5331 66.8534 97.0779 66.8534Z" fill="black"/>
<path d="M102.405 66.8534C102.95 66.8534 103.392 66.4117 103.392 65.8669C103.392 65.3221 102.95 64.8804 102.405 64.8804C101.86 64.8804 101.419 65.3221 101.419 65.8669C101.419 66.4117 101.86 66.8534 102.405 66.8534Z" fill="black"/>
<path d="M107.799 66.8534C108.343 66.8534 108.785 66.4117 108.785 65.8669C108.785 65.3221 108.343 64.8804 107.799 64.8804C107.254 64.8804 106.812 65.3221 106.812 65.8669C106.812 66.4117 107.254 66.8534 107.799 66.8534Z" fill="black"/>
<path d="M113.126 66.8534C113.671 66.8534 114.112 66.4117 114.112 65.8669C114.112 65.3221 113.671 64.8804 113.126 64.8804C112.581 64.8804 112.139 65.3221 112.139 65.8669C112.139 66.4117 112.581 66.8534 113.126 66.8534Z" fill="black"/>
<path d="M118.519 66.8534C119.063 66.8534 119.505 66.4117 119.505 65.8669C119.505 65.3221 119.063 64.8804 118.519 64.8804C117.974 64.8804 117.532 65.3221 117.532 65.8669C117.532 66.4117 117.974 66.8534 118.519 66.8534Z" fill="black"/>
<path d="M123.846 66.8534C124.391 66.8534 124.833 66.4117 124.833 65.8669C124.833 65.3221 124.391 64.8804 123.846 64.8804C123.302 64.8804 122.86 65.3221 122.86 65.8669C122.86 66.4117 123.302 66.8534 123.846 66.8534Z" fill="black"/>
<path d="M129.239 66.8534C129.784 66.8534 130.226 66.4117 130.226 65.8669C130.226 65.3221 129.784 64.8804 129.239 64.8804C128.694 64.8804 128.253 65.3221 128.253 65.8669C128.253 66.4117 128.694 66.8534 129.239 66.8534Z" fill="black"/>
<path d="M92.6711 70.7338V70.668C92.6711 70.0761 92.2107 69.6815 91.6845 69.6815C91.3556 69.6815 91.0268 69.8788 90.8295 70.1419L92.6711 70.7338Z" fill="black"/>
<path d="M97.0779 71.6546C97.6228 71.6546 98.0645 71.2129 98.0645 70.668C98.0645 70.1232 97.6228 69.6815 97.0779 69.6815C96.5331 69.6815 96.0914 70.1232 96.0914 70.668C96.0914 71.2129 96.5331 71.6546 97.0779 71.6546Z" fill="black"/>
<path d="M102.405 71.6546C102.95 71.6546 103.392 71.2129 103.392 70.668C103.392 70.1232 102.95 69.6815 102.405 69.6815C101.86 69.6815 101.419 70.1232 101.419 70.668C101.419 71.2129 101.86 71.6546 102.405 71.6546Z" fill="black"/>
<path d="M107.799 71.6546C108.343 71.6546 108.785 71.2129 108.785 70.668C108.785 70.1232 108.343 69.6815 107.799 69.6815C107.254 69.6815 106.812 70.1232 106.812 70.668C106.812 71.2129 107.254 71.6546 107.799 71.6546Z" fill="black"/>
<path d="M113.126 71.6546C113.671 71.6546 114.112 71.2129 114.112 70.668C114.112 70.1232 113.671 69.6815 113.126 69.6815C112.581 69.6815 112.139 70.1232 112.139 70.668C112.139 71.2129 112.581 71.6546 113.126 71.6546Z" fill="black"/>
<path d="M118.519 71.6546C119.063 71.6546 119.505 71.2129 119.505 70.668C119.505 70.1232 119.063 69.6815 118.519 69.6815C117.974 69.6815 117.532 70.1232 117.532 70.668C117.532 71.2129 117.974 71.6546 118.519 71.6546Z" fill="black"/>
<path d="M123.846 71.6546C124.391 71.6546 124.833 71.2129 124.833 70.668C124.833 70.1232 124.391 69.6815 123.846 69.6815C123.302 69.6815 122.86 70.1232 122.86 70.668C122.86 71.2129 123.302 71.6546 123.846 71.6546Z" fill="black"/>
<path d="M129.239 71.6546C129.784 71.6546 130.226 71.2129 130.226 70.668C130.226 70.1232 129.784 69.6815 129.239 69.6815C128.694 69.6815 128.253 70.1232 128.253 70.668C128.253 71.2129 128.694 71.6546 129.239 71.6546Z" fill="black"/>
<g opacity="0.2">
<path d="M16.3296 -109V-95.1342V-79.7879V-64.4417V-49.1163V-33.77V-18.4238V-3.09838V12.2479V27.5941V42.9195V58.2658V73.612V88.9374V104.284V116.19" stroke="#50515A" stroke-width="0.213754" stroke-miterlimit="10"/>
<path d="M31.6537 -109V-95.1342V-79.7879V-64.4417V-49.1163V-33.77V-18.4238V-3.09838V12.2479V27.5941V42.9195V58.2658V73.612V88.9374V104.284V116.19" stroke="#50515A" stroke-width="0.213754" stroke-miterlimit="10"/>
<path d="M46.9984 -109V-95.1342V-79.7879V-64.4417V-49.1163V-33.77V-18.4238V-3.09838V12.2479V27.5941V42.9195V58.2658V73.612V88.9374V104.284V116.19" stroke="#50515A" stroke-width="0.213754" stroke-miterlimit="10"/>
<path d="M62.3425 -109V-95.1342V-79.7879V-64.4417V-49.1163V-33.77V-18.4238V-3.09838V12.2479V27.5941V42.9195V58.2658V73.612V88.9374V104.284V116.19" stroke="#50515A" stroke-width="0.213754" stroke-miterlimit="10"/>
<path d="M77.6672 -109V-95.1342V-79.7879V-64.4417V-49.1163V-33.77V-18.4238V-3.09838V12.2479V27.5941V42.9195V58.2658V73.612V88.9374V104.284V116.19" stroke="#50515A" stroke-width="0.213754" stroke-miterlimit="10"/>
<path d="M93.0114 -109V-95.1342V-79.7879V-64.4417V-49.1163V-33.77V-18.4238V-3.09838V12.2479V27.5941V42.9195V58.2658V73.612V88.9374V104.284V116.19" stroke="#50515A" stroke-width="0.213754" stroke-miterlimit="10"/>
<path d="M108.356 -109V-95.1342V-79.7879V-64.4417V-49.1163V-33.77V-18.4238V-3.09838V12.2479V27.5941V42.9195V58.2658V73.612V88.9374V104.284V116.19" stroke="#50515A" stroke-width="0.213754" stroke-miterlimit="10"/>
<path d="M123.681 -109V-95.1342V-79.7879V-64.4417V-49.1163V-33.77V-18.4238V-3.09838V12.2479V27.5941V42.9195V58.2658V73.612V88.9374V104.284V116.19" stroke="#50515A" stroke-width="0.213754" stroke-miterlimit="10"/>
<path d="M226.153 12.2479H215.707H200.363H185.039H169.694H154.37H139.025H123.68H108.356H93.0117H77.6669H62.343H46.9982H31.6534H16.3295H0.984741" stroke="#50515A" stroke-width="0.213754" stroke-miterlimit="10"/>
<path d="M226.153 27.5938H215.707H200.363H185.039H169.694H154.37H139.025H123.68H108.356H93.0117H77.6669H62.343H46.9982H31.6534H16.3295H0.984741" stroke="#50515A" stroke-width="0.213754" stroke-miterlimit="10"/>
<path d="M226.153 42.9198H215.707H200.363H185.039H169.694H154.37H139.025H123.68H108.356H93.0117H77.6669H62.343H46.9982H31.6534H16.3295H0.984741" stroke="#50515A" stroke-width="0.213754" stroke-miterlimit="10"/>
<path d="M226.153 58.2659H215.707H200.363H185.039H169.694H154.37H139.025H123.68H108.356H93.0117H77.6669H62.343H46.9982H31.6534H16.3295H0.984741" stroke="#50515A" stroke-width="0.213754" stroke-miterlimit="10"/>
<path d="M226.153 73.6118H215.707H200.363H185.039H169.694H154.37H139.025H123.68H108.356H93.0117H77.6669H62.343H46.9982H31.6534H16.3295H0.984741" stroke="#50515A" stroke-width="0.213754" stroke-miterlimit="10"/>
<path d="M226.153 88.9377H215.707H200.363H185.039H169.694H154.37H139.025H123.68H108.356H93.0117H77.6669H62.343H46.9982H31.6534H16.3295H0.984741" stroke="#50515A" stroke-width="0.213754" stroke-miterlimit="10"/>
<path d="M226.153 104.284H215.707H200.363H185.039H169.694H154.37H139.025H123.68H108.356H93.0117H77.6669H62.343H46.9982H31.6534H16.3295H0.984741" stroke="#50515A" stroke-width="0.213754" stroke-miterlimit="10"/>
</g>
</g>
</svg>
